<svg data-v-fde0c5aa="" xmlns="http://www.w3.org/2000/svg" viewBox="0 0 300 300" class="iconAboveSlogan"><!----><defs data-v-fde0c5aa=""><!----></defs><rect data-v-fde0c5aa="" fill="transparent" x="0" y="0" width="300px" height="300px" class="logo-background-square"></rect><defs data-v-fde0c5aa=""><!----></defs><g data-v-fde0c5aa="" id="0bbec311-df70-4bf5-ac8f-b491da3c8aa8" fill="#000000" transform="matrix(7.5256115825470795,0,0,7.5256115825470795,55.77934290576951,141.70699538922025)"><path d="M6.05 13.01C5.96 12.99 5.36 12.95 4.26 12.87L4.26 3.77L3.25 3.77L0.27 6.34L0.66 6.89C0.73 7.00 0.84 7.04 0.99 7.04C1.08 7.04 1.16 7.00 1.25 6.93L3.04 5.40C3.02 5.61 3.02 5.84 3.02 6.03L3.02 12.87L1.06 13.01C0.92 13.03 0.87 13.12 0.87 13.26L0.87 13.40L0.87 13.82L6.24 13.82L6.24 13.26C6.24 13.12 6.19 13.03 6.05 13.01ZM10.46 12.94C9.95 12.94 9.59 12.80 9.34 12.50C9.09 12.21 8.97 11.77 8.97 11.24L8.97 6.73L6.71 6.73L6.71 7.32C6.71 7.46 6.79 7.56 6.93 7.59C7.01 7.62 7.27 7.67 7.71 7.76L7.71 11.26C7.71 12.10 7.94 12.73 8.33 13.20C8.75 13.69 9.34 13.94 10.09 13.94C10.99 13.94 11.77 13.57 12.45 12.81L12.54 13.57C12.60 13.73 12.71 13.83 12.88 13.83L14.63 13.83L14.63 13.23C14.63 13.09 14.56 13.01 14.42 12.98C14.34 12.95 14.07 12.89 13.62 12.81L13.62 6.73L12.38 6.73L11.37 6.73L11.37 7.34C11.37 7.48 11.44 7.57 11.58 7.60C12.03 7.69 12.29 7.74 12.38 7.77L12.38 11.97C11.80 12.61 11.16 12.95 10.46 12.95ZM17.65 8.18L17.57 7.07C17.54 6.94 17.51 6.86 17.46 6.80C17.40 6.75 17.33 6.73 17.19 6.73L16.48 6.73L15.47 6.73L15.47 7.32C15.47 7.46 15.54 7.56 15.68 7.59C15.76 7.62 16.03 7.67 16.48 7.76L16.48 12.81L15.68 12.96C15.54 12.99 15.47 13.09 15.47 13.23L15.47 13.82L18.73 13.82L18.73 13.23C18.73 13.09 18.66 12.99 18.52 12.96C18.10 12.88 17.84 12.84 17.72 12.81L17.72 9.31C18.12 8.33 18.73 7.83 19.54 7.83C19.80 7.83 19.98 7.85 20.12 7.90C20.26 7.94 20.37 7.97 20.45 7.97C20.54 7.97 20.61 7.90 20.64 7.78L20.79 6.85C20.51 6.68 20.19 6.59 19.82 6.59C18.90 6.59 18.19 7.13 17.67 8.18ZM24.54 12.95C24.46 12.92 24.21 12.87 23.76 12.78L23.76 3.50L21.49 3.50L21.49 4.10C21.49 4.24 21.57 4.33 21.71 4.35C21.80 4.38 22.05 4.44 22.50 4.52L22.50 12.80L21.71 12.95C21.57 12.98 21.49 13.08 21.49 13.22L21.49 13.82L24.77 13.82L24.77 13.22C24.77 13.08 24.68 12.98 24.54 12.95Z"></path></g><defs data-v-fde0c5aa=""><linearGradient data-v-fde0c5aa="" gradientTransform="rotate(25)" id="596dee49-5cb8-4182-aacc-ebafcf535f11" x1="0%" y1="0%" x2="100%" y2="0%"><stop data-v-fde0c5aa="" offset="0%" stop-color="#E90DCA" stop-opacity="1"></stop><stop data-v-fde0c5aa="" offset="100%" stop-color="#1536F1" stop-opacity="1"></stop></linearGradient></defs><g data-v-fde0c5aa="" id="b5481303-3c0a-4add-8234-639450ead4a2" stroke="none" fill="url(#596dee49-5cb8-4182-aacc-ebafcf535f11)" transform="matrix(1.7977069149084224,0,0,1.7977069149084224,60.113749037168716,5.1388705783489)"><path d="M76.31 35.389H47.45c-9.202 0-16.853 6.692-18.39 15.46h10.653c1.267-3.025 4.257-5.156 7.737-5.156h28.86c4.625 0 8.389 3.76 8.389 8.385v7.838c0 4.625-3.764 8.387-8.389 8.387H47.45c-.062 0-.12-.017-.182-.018H30.764c3.077 6.111 9.392 10.322 16.687 10.322h28.86c10.306 0 18.69-8.385 18.69-18.691v-7.838C95 43.774 86.616 35.389 76.31 35.389z"></path><path d="M29.527 64.611l.001.004H40.97l-.004-.004H52.55c9.234 0 16.904-6.739 18.404-15.553H60.315c-1.246 3.072-4.252 5.249-7.766 5.249h-9.538v.004h-19.18v-.004h-.141a8.304 8.304 0 01-1.917-.242c-3.7-.872-6.471-4.183-6.471-8.146v-7.838c0-4.625 3.764-8.385 8.389-8.385h28.86c.059 0 .114.016.173.017h16.514c-3.077-6.11-9.392-10.321-16.687-10.321H23.69C13.384 19.394 5 27.779 5 38.082v7.838c0 9.778 7.55 17.812 17.124 18.612.518.043 1.037.079 1.566.079h5.837z"></path></g><defs data-v-fde0c5aa=""><!----></defs><g data-v-fde0c5aa="" id="71aa024e-6991-474b-b6c1-a63101ad5499" fill="#000000" transform="matrix(0.2643227765785471,0,0,0.2643227765785471,80.48574847919568,255.36377813077863)"><path d="M10.54 5.74L10.54 5.74Q10.58 5.98 10.61 6.07Q10.63 6.16 10.63 6.31L10.63 6.31Q10.63 6.78 10.42 7.18Q10.22 7.57 9.87 7.74L9.87 7.74Q9.59 7.36 9.18 7.09Q8.78 6.82 8.29 6.64Q7.81 6.47 7.29 6.38Q6.78 6.30 6.29 6.30L6.29 6.30Q5.80 6.30 5.37 6.38Q4.94 6.45 4.61 6.59Q4.28 6.72 4.09 6.92Q3.91 7.11 3.91 7.36L3.91 7.36Q3.95 7.67 4.28 7.99Q4.62 8.30 5.11 8.60Q5.60 8.90 6.20 9.20Q6.79 9.49 7.36 9.76L7.36 9.76Q8.08 10.09 8.60 10.38Q9.11 10.67 9.45 11.01Q9.79 11.35 9.95 11.79Q10.12 12.22 10.12 12.84L10.12 12.84Q10.12 13.55 9.88 14.18Q9.65 14.80 9.19 15.26Q8.74 15.72 8.09 15.98Q7.45 16.24 6.65 16.24L6.65 16.24Q5.87 16.24 4.96 16.00Q4.05 15.76 3.25 15.35Q2.46 14.94 1.94 14.40Q1.41 13.86 1.41 13.26L1.41 13.26Q1.41 12.98 1.57 12.54Q1.74 12.11 2.16 11.63L2.16 11.63Q2.20 12.05 2.61 12.63Q3.02 13.20 3.85 13.69L3.85 13.69Q4.62 14.14 5.44 14.34Q6.26 14.55 6.97 14.55L6.97 14.55Q7.76 14.55 8.25 14.35Q8.74 14.15 9.02 13.88Q9.30 13.61 9.41 13.33Q9.52 13.05 9.53 12.88L9.53 12.88Q9.52 12.60 9.28 12.34Q9.03 12.08 8.62 11.84Q8.20 11.59 7.66 11.34Q7.11 11.09 6.52 10.84L6.52 10.84Q5.64 10.44 5.00 10.10Q4.37 9.76 3.96 9.40Q3.54 9.04 3.35 8.65Q3.16 8.26 3.16 7.76L3.16 7.76Q3.16 6.97 3.64 6.27Q4.12 5.57 5.01 5.21L5.01 5.21Q5.46 5.01 5.97 4.93Q6.48 4.84 6.97 4.84L6.97 4.84Q7.90 4.84 8.78 5.10Q9.66 5.35 10.54 5.74ZM23.70 14.36L23.70 14.36Q23.70 13.78 23.90 12.85Q24.09 11.93 24.42 10.88L24.42 10.88Q23.49 10.95 22.56 11.06Q21.63 11.17 20.94 11.19L20.94 11.19Q20.31 12.66 19.94 13.89Q19.57 15.13 19.36 16.31L19.36 16.31Q18.83 16.18 18.48 15.87Q18.13 15.55 17.84 15.08L17.84 15.08Q17.95 14.85 18.09 14.50Q18.24 14.15 18.45 13.66Q18.65 13.16 18.91 12.50Q19.17 11.83 19.50 10.95L19.50 10.95Q19.04 10.75 18.89 10.40L18.89 10.40Q18.96 10.35 19.20 10.28Q19.45 10.22 19.81 10.15L19.81 10.15L19.99 9.70Q20.29 8.95 20.48 8.43Q20.66 7.91 20.80 7.41Q20.93 6.92 21.05 6.31Q21.17 5.71 21.34 4.79L21.34 4.79Q21.92 4.90 22.41 5.31Q22.89 5.71 23.24 6.29L23.24 6.29Q23.11 6.45 22.93 6.79Q22.75 7.13 22.53 7.59Q22.32 8.06 22.06 8.64Q21.81 9.23 21.52 9.87L21.52 9.87Q22.39 9.76 23.27 9.66Q24.16 9.56 24.85 9.52L24.85 9.52Q25.10 8.79 25.38 8.10Q25.65 7.41 25.91 6.83Q26.18 6.26 26.42 5.82Q26.67 5.39 26.87 5.18L26.87 5.18Q27.01 5.19 27.24 5.29Q27.47 5.38 27.71 5.50Q27.94 5.63 28.14 5.78Q28.34 5.92 28.41 6.05L28.41 6.05Q28.15 6.29 27.90 6.66Q27.65 7.04 27.41 7.53Q27.16 8.02 26.92 8.60Q26.68 9.17 26.47 9.79L26.47 9.79Q26.75 10.04 26.75 10.42L26.75 10.42Q26.75 10.68 26.64 10.91L26.64 10.91Q26.52 10.88 26.39 10.87Q26.26 10.86 26.12 10.85L26.12 10.85Q25.89 11.61 25.69 12.35Q25.49 13.09 25.36 13.76Q25.23 14.43 25.15 14.99Q25.07 15.55 25.07 15.93L25.07 15.93Q25.07 16.07 25.08 16.16Q25.09 16.24 25.10 16.30L25.10 16.30Q24.79 16.28 24.65 16.19Q24.51 16.10 24.44 16.00Q24.37 15.89 24.32 15.79Q24.26 15.68 24.14 15.62L24.14 15.62Q24.04 15.58 23.95 15.43Q23.87 15.27 23.81 15.08Q23.76 14.88 23.73 14.69Q23.70 14.49 23.70 14.36ZM44.21 7.46L44.21 7.46Q44.21 8.13 43.91 8.73Q43.61 9.32 43.08 9.79Q42.55 10.26 41.83 10.58Q41.12 10.91 40.28 11.02L40.28 11.02Q40.49 11.65 40.79 12.31Q41.09 12.98 41.44 13.59Q41.79 14.21 42.17 14.73Q42.55 15.25 42.91 15.58L42.91 15.58Q42.84 15.72 42.71 15.86Q42.57 16.00 42.40 16.12Q42.22 16.24 42.03 16.32Q41.85 16.39 41.68 16.39L41.68 16.39Q41.37 16.39 41.09 16.10Q40.81 15.81 40.52 15.17Q40.24 14.53 39.92 13.52Q39.61 12.50 39.23 11.07L39.23 11.07Q39.07 11.07 38.92 11.07Q38.77 11.07 38.68 11.05L38.68 11.05Q38.58 10.99 38.47 10.85L38.47 10.85Q38.09 11.66 37.80 12.38Q37.51 13.09 37.27 13.76Q37.04 14.42 36.87 15.04Q36.69 15.67 36.57 16.31L36.57 16.31Q36.09 16.20 35.74 15.90Q35.39 15.61 35.08 15.08L35.08 15.08Q35.14 14.95 35.20 14.83Q35.27 14.71 35.36 14.50Q35.46 14.28 35.61 13.94Q35.76 13.61 36.00 13.05Q36.25 12.49 36.59 11.68Q36.93 10.86 37.42 9.70L37.42 9.70Q37.65 9.18 37.81 8.79Q37.97 8.40 38.09 8.04Q38.22 7.69 38.32 7.33Q38.43 6.97 38.54 6.51L38.54 6.51Q37.90 6.73 37.34 7.01Q36.79 7.28 36.43 7.59L36.43 7.59Q36.30 7.50 36.17 7.34Q36.04 7.17 35.92 6.96Q35.81 6.76 35.73 6.55Q35.64 6.34 35.63 6.17L35.63 6.17Q36.05 5.89 36.66 5.66Q37.27 5.42 37.95 5.24Q38.64 5.07 39.35 4.97Q40.07 4.87 40.68 4.87L40.68 4.87Q42.36 4.87 43.29 5.56Q44.21 6.26 44.21 7.46ZM40.63 6.02L40.80 6.29Q40.70 6.41 40.49 6.79Q40.28 7.17 40.00 7.69Q39.73 8.22 39.43 8.83Q39.13 9.45 38.85 10.05L38.85 10.05Q39.90 10.05 40.78 9.86Q41.66 9.66 42.31 9.30Q42.95 8.95 43.31 8.46Q43.67 7.98 43.67 7.39L43.67 7.39Q43.67 6.69 43.16 6.32Q42.66 5.95 41.61 5.95L41.61 5.95Q41.37 5.95 41.13 5.97Q40.89 5.99 40.63 6.02L40.63 6.02ZM51.79 14.38L51.79 14.38Q51.79 13.87 51.95 13.07Q52.11 12.26 52.37 11.33Q52.63 10.40 52.96 9.43Q53.30 8.46 53.65 7.60Q54.00 6.75 54.33 6.10Q54.67 5.46 54.94 5.18L54.94 5.18Q55.08 5.19 55.31 5.29Q55.54 5.38 55.78 5.50Q56.01 5.63 56.21 5.78Q56.41 5.92 56.46 6.05L56.46 6.05Q56.06 6.41 55.66 7.15Q55.26 7.88 54.89 8.82Q54.52 9.76 54.19 10.80Q53.87 11.84 53.63 12.82Q53.40 13.80 53.26 14.64Q53.13 15.48 53.13 16.00L53.13 16.00Q53.13 16.24 53.17 16.30L53.17 16.30Q52.86 16.28 52.72 16.19Q52.58 16.10 52.51 16.00Q52.43 15.89 52.37 15.79Q52.30 15.68 52.18 15.62L52.18 15.62Q52.08 15.58 52.01 15.43Q51.94 15.27 51.89 15.09Q51.84 14.90 51.81 14.70Q51.79 14.50 51.79 14.38ZM64.02 16.24L64.02 16.24Q63.22 16.00 62.94 15.79Q62.66 15.57 62.66 15.19L62.66 15.19Q62.66 14.77 62.86 14.01Q63.06 13.24 63.37 12.31Q63.69 11.37 64.09 10.35Q64.50 9.32 64.92 8.39Q65.34 7.45 65.74 6.67Q66.14 5.89 66.44 5.46L66.44 5.46L66.35 4.87Q66.54 4.87 66.89 4.97Q67.24 5.07 67.60 5.21Q67.96 5.35 68.23 5.49Q68.50 5.64 68.53 5.74L68.53 5.74Q68.46 6.08 68.42 6.76Q68.38 7.43 68.38 8.20L68.38 8.20Q68.38 9.73 68.49 11.19Q68.61 12.66 69.05 14.17L69.05 14.17Q69.27 13.05 69.53 11.94Q69.79 10.82 70.07 9.81Q70.35 8.79 70.63 7.92Q70.91 7.06 71.17 6.40Q71.43 5.75 71.65 5.38Q71.88 5.01 72.06 4.98L72.06 4.98Q72.21 5.01 72.39 5.10Q72.58 5.19 72.74 5.32Q72.91 5.45 73.05 5.60Q73.19 5.75 73.28 5.91L73.28 5.91Q72.83 6.09 72.39 6.76Q71.95 7.43 71.55 8.39Q71.15 9.35 70.80 10.47Q70.46 11.59 70.20 12.68Q69.94 13.76 69.80 14.69Q69.65 15.61 69.64 16.17L69.64 16.17Q69.64 16.20 69.65 16.21L69.65 16.21Q69.61 16.23 69.56 16.23Q69.51 16.23 69.47 16.23L69.47 16.23Q68.82 16.23 68.33 16.07Q67.83 15.90 67.68 15.61L67.68 15.61Q67.38 14.43 67.19 13.34Q66.99 12.25 66.86 11.16Q66.72 10.07 66.65 8.95Q66.57 7.84 66.53 6.62L66.53 6.62Q66.26 7.04 65.97 7.72Q65.67 8.40 65.39 9.21Q65.11 10.02 64.85 10.92Q64.60 11.82 64.40 12.67Q64.20 13.52 64.09 14.29Q63.98 15.05 63.98 15.61L63.98 15.61Q63.98 15.90 63.99 16.03Q63.99 16.16 64.02 16.24ZM82.60 10.74L82.60 10.74Q83.47 9.45 84.31 8.37Q85.16 7.28 85.93 6.50Q86.70 5.71 87.35 5.28Q87.99 4.84 88.47 4.84L88.47 4.84Q88.65 4.84 88.86 4.98Q89.08 5.12 89.27 5.35Q89.46 5.57 89.59 5.83Q89.71 6.09 89.71 6.33L89.71 6.33Q88.84 6.61 88.01 7.06Q87.18 7.52 86.41 8.11Q85.65 8.71 84.96 9.44Q84.27 10.16 83.71 10.99L83.71 10.99Q83.93 11.56 84.26 12.21Q84.59 12.87 84.98 13.47Q85.37 14.08 85.82 14.60Q86.27 15.12 86.73 15.43L86.73 15.43Q86.66 15.58 86.49 15.72Q86.32 15.86 86.13 15.98Q85.93 16.10 85.71 16.17Q85.50 16.24 85.32 16.24L85.32 16.24Q84.95 16.24 84.64 15.90Q84.34 15.55 84.02 14.86Q83.71 14.17 83.36 13.14Q83.02 12.11 82.60 10.74ZM80.49 16.31L80.49 16.31Q79.95 16.18 79.60 15.87Q79.25 15.55 78.96 15.08L78.96 15.08Q79.09 14.81 79.26 14.38Q79.44 13.94 79.69 13.31Q79.94 12.67 80.29 11.78Q80.64 10.89 81.10 9.70L81.10 9.70Q81.40 8.95 81.58 8.43Q81.77 7.91 81.91 7.41Q82.04 6.92 82.17 6.31Q82.29 5.71 82.46 4.79L82.46 4.79Q83.05 4.90 83.53 5.31Q84.01 5.71 84.36 6.29L84.36 6.29Q84.21 6.48 84.01 6.88Q83.80 7.28 83.55 7.84Q83.30 8.40 82.99 9.09Q82.68 9.77 82.35 10.54L82.35 10.54Q81.59 12.22 81.16 13.62Q80.72 15.01 80.49 16.31ZM110.98 10.35L110.98 10.35Q112.03 9.20 112.86 7.91Q113.69 6.62 114.41 5.01L114.41 5.01Q114.77 5.05 115.11 5.21Q115.44 5.36 115.64 5.56L115.64 5.56Q114.87 6.48 114.25 7.24Q113.62 7.99 113.11 8.66Q112.59 9.32 112.15 9.93Q111.71 10.54 111.29 11.16L111.29 11.16Q111.08 11.87 110.89 12.60Q110.71 13.33 110.57 13.99Q110.43 14.66 110.35 15.22Q110.28 15.79 110.28 16.20L110.28 16.20Q110.12 16.20 109.79 16.14Q109.45 16.07 109.10 15.99Q108.75 15.90 108.46 15.82Q108.18 15.74 108.12 15.68L108.12 15.68Q108.35 15.30 108.56 14.75Q108.78 14.20 108.99 13.59Q109.20 12.98 109.40 12.36Q109.59 11.73 109.76 11.20L109.76 11.20Q109.41 10.11 109.08 9.15Q108.75 8.19 108.44 7.41Q108.14 6.64 107.86 6.08Q107.58 5.52 107.32 5.22L107.32 5.22Q107.46 5.17 107.75 5.11Q108.04 5.05 108.38 5.00Q108.72 4.94 109.08 4.91Q109.44 4.87 109.72 4.86L109.72 4.86Q109.72 5.21 109.78 5.71Q109.84 6.22 109.95 6.79Q110.05 7.36 110.19 7.95Q110.33 8.54 110.47 9.03Q110.61 9.52 110.75 9.88Q110.88 10.23 110.98 10.35ZM127.62 4.98L127.62 4.98Q127.89 5.10 128.17 5.27Q128.45 5.45 128.69 5.63Q128.93 5.81 129.09 5.98Q129.25 6.16 129.26 6.27L129.26 6.27Q129.02 6.22 128.79 6.20Q128.55 6.17 128.35 6.17L128.35 6.17Q127.72 6.17 127.10 6.48Q126.48 6.79 125.92 7.32Q125.36 7.85 124.88 8.57Q124.40 9.28 124.06 10.09Q123.72 10.91 123.52 11.77Q123.33 12.64 123.33 13.48L123.33 13.48Q123.33 14.57 123.69 15.11Q124.05 15.64 124.75 15.64L124.75 15.64Q125.09 15.64 125.48 15.51Q125.87 15.37 126.28 15.13Q126.69 14.90 127.08 14.56Q127.47 14.22 127.81 13.82L127.81 13.82Q128.30 13.23 128.69 12.48Q129.08 11.73 129.35 10.89Q129.63 10.05 129.77 9.16Q129.92 8.27 129.92 7.42L129.92 7.42Q129.92 7.08 129.91 6.85Q129.89 6.62 129.87 6.46Q129.85 6.30 129.84 6.20Q129.82 6.10 129.81 6.03L129.81 6.03Q129.98 6.12 130.18 6.24Q130.38 6.36 130.56 6.59Q130.73 6.82 130.85 7.20Q130.97 7.57 130.97 8.18L130.97 8.18Q130.97 9.16 130.74 10.10Q130.51 11.05 130.09 11.90Q129.68 12.75 129.12 13.50Q128.56 14.24 127.92 14.80L127.92 14.80Q127.08 15.54 126.13 15.95Q125.17 16.35 124.29 16.35L124.29 16.35Q123.00 16.35 122.32 15.53Q121.65 14.71 121.65 13.12L121.65 13.12Q121.65 12.26 121.83 11.31Q122.02 10.36 122.37 9.44Q122.71 8.51 123.19 7.68Q123.66 6.85 124.23 6.21Q124.80 5.57 125.45 5.19Q126.10 4.82 126.78 4.82L126.78 4.82Q127.01 4.82 127.20 4.85Q127.40 4.89 127.62 4.98ZM143.67 5.75L143.67 5.75Q143.05 6.58 142.55 7.57Q142.04 8.57 141.69 9.61Q141.33 10.65 141.14 11.67Q140.95 12.68 140.95 13.57L140.95 13.57Q140.95 14.66 141.27 15.15Q141.60 15.64 142.38 15.64L142.38 15.64Q143.29 15.64 143.98 15.00Q144.66 14.36 145.26 13.24L145.26 13.24Q145.66 12.52 145.94 11.65Q146.22 10.78 146.39 9.86Q146.57 8.95 146.65 8.02Q146.73 7.08 146.73 6.23L146.73 6.23Q146.73 5.68 146.72 5.43Q146.71 5.18 146.68 5.03L146.68 5.03Q146.72 5.03 146.89 5.05Q147.06 5.08 147.27 5.12Q147.49 5.17 147.71 5.24Q147.92 5.31 148.08 5.39L148.08 5.39Q148.01 6.45 147.82 7.59Q147.63 8.72 147.32 9.83Q147.01 10.93 146.61 11.96Q146.20 12.98 145.70 13.79L145.70 13.79Q144.96 14.99 144.03 15.67Q143.11 16.35 141.85 16.35L141.85 16.35Q140.56 16.35 139.85 15.60Q139.13 14.85 139.13 13.33L139.13 13.33Q139.13 12.45 139.33 11.33Q139.52 10.22 139.85 9.07Q140.18 7.91 140.62 6.81Q141.05 5.71 141.53 4.84L141.53 4.84Q141.76 4.86 142.09 4.94Q142.41 5.03 142.72 5.16Q143.02 5.29 143.28 5.45Q143.54 5.61 143.67 5.75ZM164.57 7.46L164.57 7.46Q164.57 8.13 164.27 8.73Q163.97 9.32 163.44 9.79Q162.90 10.26 162.19 10.58Q161.48 10.91 160.64 11.02L160.64 11.02Q160.85 11.65 161.15 12.31Q161.45 12.98 161.80 13.59Q162.15 14.21 162.53 14.73Q162.90 15.25 163.27 15.58L163.27 15.58Q163.20 15.72 163.06 15.86Q162.93 16.00 162.76 16.12Q162.58 16.24 162.39 16.32Q162.20 16.39 162.04 16.39L162.04 16.39Q161.73 16.39 161.45 16.10Q161.17 15.81 160.88 15.17Q160.59 14.53 160.28 13.52Q159.96 12.50 159.59 11.07L159.59 11.07Q159.43 11.07 159.28 11.07Q159.12 11.07 159.04 11.05L159.04 11.05Q158.94 10.99 158.83 10.85L158.83 10.85Q158.45 11.66 158.16 12.38Q157.86 13.09 157.63 13.76Q157.40 14.42 157.23 15.04Q157.05 15.67 156.93 16.31L156.93 16.31Q156.45 16.20 156.10 15.90Q155.75 15.61 155.44 15.08L155.44 15.08Q155.50 14.95 155.56 14.83Q155.62 14.71 155.72 14.50Q155.82 14.28 155.97 13.94Q156.11 13.61 156.36 13.05Q156.60 12.49 156.95 11.68Q157.29 10.86 157.78 9.70L157.78 9.70Q158.00 9.18 158.16 8.79Q158.33 8.40 158.45 8.04Q158.58 7.69 158.68 7.33Q158.79 6.97 158.90 6.51L158.90 6.51Q158.26 6.73 157.70 7.01Q157.15 7.28 156.79 7.59L156.79 7.59Q156.66 7.50 156.53 7.34Q156.39 7.17 156.28 6.96Q156.17 6.76 156.09 6.55Q156.00 6.34 155.99 6.17L155.99 6.17Q156.41 5.89 157.02 5.66Q157.63 5.42 158.31 5.24Q159.00 5.07 159.71 4.97Q160.43 4.87 161.04 4.87L161.04 4.87Q162.72 4.87 163.65 5.56Q164.57 6.26 164.57 7.46ZM160.99 6.02L161.15 6.29Q161.06 6.41 160.85 6.79Q160.64 7.17 160.36 7.69Q160.09 8.22 159.79 8.83Q159.49 9.45 159.21 10.05L159.21 10.05Q160.26 10.05 161.14 9.86Q162.02 9.66 162.67 9.30Q163.31 8.95 163.67 8.46Q164.02 7.98 164.02 7.39L164.02 7.39Q164.02 6.69 163.52 6.32Q163.02 5.95 161.97 5.95L161.97 5.95Q161.73 5.95 161.49 5.97Q161.25 5.99 160.99 6.02L160.99 6.02ZM187.43 5.75L187.43 5.75Q186.82 6.58 186.31 7.57Q185.81 8.57 185.45 9.61Q185.09 10.65 184.91 11.67Q184.72 12.68 184.72 13.57L184.72 13.57Q184.72 14.66 185.04 15.15Q185.36 15.64 186.14 15.64L186.14 15.64Q187.05 15.64 187.74 15.00Q188.43 14.36 189.03 13.24L189.03 13.24Q189.42 12.52 189.70 11.65Q189.98 10.78 190.16 9.86Q190.33 8.95 190.41 8.02Q190.50 7.08 190.50 6.23L190.50 6.23Q190.50 5.68 190.48 5.43Q190.47 5.18 190.44 5.03L190.44 5.03Q190.48 5.03 190.65 5.05Q190.82 5.08 191.04 5.12Q191.25 5.17 191.47 5.24Q191.69 5.31 191.84 5.39L191.84 5.39Q191.77 6.45 191.58 7.59Q191.39 8.72 191.09 9.83Q190.78 10.93 190.37 11.96Q189.97 12.98 189.46 13.79L189.46 13.79Q188.72 14.99 187.80 15.67Q186.87 16.35 185.61 16.35L185.61 16.35Q184.32 16.35 183.61 15.60Q182.90 14.85 182.90 13.33L182.90 13.33Q182.90 12.45 183.09 11.33Q183.29 10.22 183.62 9.07Q183.95 7.91 184.38 6.81Q184.81 5.71 185.29 4.84L185.29 4.84Q185.53 4.86 185.85 4.94Q186.17 5.03 186.48 5.16Q186.79 5.29 187.05 5.45Q187.31 5.61 187.43 5.75ZM208.33 7.46L208.33 7.46Q208.33 8.13 208.03 8.73Q207.73 9.32 207.20 9.79Q206.67 10.26 205.95 10.58Q205.24 10.91 204.40 11.02L204.40 11.02Q204.61 11.65 204.91 12.31Q205.21 12.98 205.56 13.59Q205.91 14.21 206.29 14.73Q206.67 15.25 207.03 15.58L207.03 15.58Q206.96 15.72 206.83 15.86Q206.70 16.00 206.52 16.12Q206.35 16.24 206.16 16.32Q205.97 16.39 205.80 16.39L205.80 16.39Q205.49 16.39 205.21 16.10Q204.93 15.81 204.65 15.17Q204.36 14.53 204.04 13.52Q203.73 12.50 203.35 11.07L203.35 11.07Q203.20 11.07 203.04 11.07Q202.89 11.07 202.80 11.05L202.80 11.05Q202.71 10.99 202.59 10.85L202.59 10.85Q202.22 11.66 201.92 12.38Q201.63 13.09 201.40 13.76Q201.17 14.42 200.99 15.04Q200.82 15.67 200.69 16.31L200.69 16.31Q200.21 16.20 199.86 15.90Q199.51 15.61 199.21 15.08L199.21 15.08Q199.26 14.95 199.33 14.83Q199.39 14.71 199.49 14.50Q199.58 14.28 199.73 13.94Q199.88 13.61 200.12 13.05Q200.37 12.49 200.71 11.68Q201.05 10.86 201.54 9.70L201.54 9.70Q201.77 9.18 201.93 8.79Q202.09 8.40 202.22 8.04Q202.34 7.69 202.45 7.33Q202.55 6.97 202.66 6.51L202.66 6.51Q202.02 6.73 201.47 7.01Q200.91 7.28 200.55 7.59L200.55 7.59Q200.42 7.50 200.29 7.34Q200.16 7.17 200.05 6.96Q199.93 6.76 199.85 6.55Q199.77 6.34 199.75 6.17L199.75 6.17Q200.17 5.89 200.78 5.66Q201.39 5.42 202.08 5.24Q202.76 5.07 203.48 4.97Q204.19 4.87 204.81 4.87L204.81 4.87Q206.49 4.87 207.41 5.56Q208.33 6.26 208.33 7.46ZM204.75 6.02L204.92 6.29Q204.82 6.41 204.61 6.79Q204.40 7.17 204.13 7.69Q203.85 8.22 203.55 8.83Q203.25 9.45 202.97 10.05L202.97 10.05Q204.02 10.05 204.90 9.86Q205.79 9.66 206.43 9.30Q207.07 8.95 207.43 8.46Q207.79 7.98 207.79 7.39L207.79 7.39Q207.79 6.69 207.28 6.32Q206.78 5.95 205.73 5.95L205.73 5.95Q205.49 5.95 205.25 5.97Q205.02 5.99 204.75 6.02L204.75 6.02ZM220.70 14.38L220.70 14.38Q221.05 14.98 221.05 15.54L221.05 15.54Q221.05 15.67 221.03 15.77Q221.00 15.88 220.98 15.99L220.98 15.99Q220.74 15.96 220.48 15.95Q220.22 15.93 219.94 15.93L219.94 15.93Q219.60 15.93 219.26 15.95Q218.92 15.97 218.50 16.02Q218.08 16.06 217.56 16.13Q217.04 16.20 216.36 16.31L216.36 16.31Q216.03 16.20 215.71 15.87Q215.39 15.54 215.11 15.08L215.11 15.08Q215.25 14.77 215.46 14.31Q215.67 13.86 215.95 13.21Q216.23 12.56 216.57 11.68Q216.92 10.81 217.31 9.66L217.31 9.66Q217.56 8.90 217.74 8.33Q217.92 7.76 218.07 7.22Q218.22 6.68 218.36 6.09Q218.50 5.50 218.67 4.73L218.67 4.73Q219.23 4.84 219.64 5.14Q220.05 5.45 220.43 6.01L220.43 6.01Q220.32 6.19 220.14 6.59Q219.95 7 219.71 7.58Q219.46 8.16 219.17 8.90Q218.88 9.63 218.55 10.47L218.55 10.47Q218.25 11.30 217.95 12.03Q217.66 12.75 217.43 13.34Q217.20 13.93 217.06 14.35Q216.92 14.77 216.92 14.98L216.92 14.98Q217.14 14.97 217.32 14.95Q217.50 14.94 217.70 14.90Q217.90 14.87 218.13 14.82Q218.36 14.77 218.68 14.69L218.68 14.69Q218.96 14.62 219.20 14.57Q219.44 14.52 219.67 14.48Q219.90 14.45 220.14 14.43Q220.39 14.41 220.70 14.38ZM238.24 5.74L238.24 5.74Q238.28 5.98 238.30 6.07Q238.32 6.16 238.32 6.31L238.32 6.31Q238.32 6.78 238.12 7.18Q237.92 7.57 237.57 7.74L237.57 7.74Q237.29 7.36 236.88 7.09Q236.47 6.82 235.99 6.64Q235.51 6.47 234.99 6.38Q234.47 6.30 233.98 6.30L233.98 6.30Q233.49 6.30 233.07 6.38Q232.64 6.45 232.31 6.59Q231.98 6.72 231.79 6.92Q231.60 7.11 231.60 7.36L231.60 7.36Q231.64 7.67 231.98 7.99Q232.32 8.30 232.81 8.60Q233.30 8.90 233.89 9.20Q234.49 9.49 235.06 9.76L235.06 9.76Q235.77 10.09 236.29 10.38Q236.81 10.67 237.15 11.01Q237.48 11.35 237.65 11.79Q237.82 12.22 237.82 12.84L237.82 12.84Q237.82 13.55 237.58 14.18Q237.34 14.80 236.89 15.26Q236.43 15.72 235.79 15.98Q235.14 16.24 234.35 16.24L234.35 16.24Q233.56 16.24 232.65 16.00Q231.74 15.76 230.95 15.35Q230.16 14.94 229.64 14.40Q229.11 13.86 229.11 13.26L229.11 13.26Q229.11 12.98 229.27 12.54Q229.43 12.11 229.85 11.63L229.85 11.63Q229.89 12.05 230.31 12.63Q230.72 13.20 231.55 13.69L231.55 13.69Q232.32 14.14 233.14 14.34Q233.95 14.55 234.67 14.55L234.67 14.55Q235.45 14.55 235.94 14.35Q236.43 14.15 236.71 13.88Q236.99 13.61 237.10 13.33Q237.22 13.05 237.23 12.88L237.23 12.88Q237.22 12.60 236.97 12.34Q236.73 12.08 236.31 11.84Q235.90 11.59 235.35 11.34Q234.81 11.09 234.22 10.84L234.22 10.84Q233.34 10.44 232.70 10.10Q232.06 9.76 231.65 9.40Q231.24 9.04 231.05 8.65Q230.86 8.26 230.86 7.76L230.86 7.76Q230.86 6.97 231.34 6.27Q231.81 5.57 232.71 5.21L232.71 5.21Q233.16 5.01 233.67 4.93Q234.18 4.84 234.67 4.84L234.67 4.84Q235.59 4.84 236.47 5.10Q237.36 5.35 238.24 5.74ZM244.76 17.54L244.76 17.54Q244.68 17.47 244.61 17.31Q244.54 17.15 244.54 17.01L244.54 17.01Q245.24 16.41 245.54 15.86Q245.84 15.32 245.84 14.67L245.84 14.67Q245.84 14.25 245.81 13.95Q245.77 13.65 245.67 13.26L245.67 13.26Q246.02 13.29 246.37 13.38Q246.71 13.47 246.98 13.60Q247.25 13.73 247.44 13.91Q247.62 14.08 247.66 14.25L247.66 14.25Q247.00 16.58 244.76 17.54ZM272.41 9.21L272.41 9.21Q272.87 9.21 273.13 9.46Q273.39 9.72 273.39 10.16L273.39 10.16Q273.39 10.28 273.37 10.39Q273.35 10.51 273.32 10.60L273.32 10.60Q273.14 10.57 272.92 10.55Q272.69 10.53 272.38 10.53L272.38 10.53Q271.78 10.53 271.17 10.63Q270.55 10.74 269.99 10.81L269.99 10.81Q269.67 11.55 269.40 12.24Q269.14 12.94 268.95 13.51Q268.76 14.08 268.65 14.50Q268.55 14.92 268.53 15.13L268.53 15.13Q269.67 14.90 270.82 14.73Q271.98 14.56 273.25 14.48L273.25 14.48Q273.41 14.71 273.51 14.99Q273.62 15.27 273.62 15.60L273.62 15.60Q273.62 15.68 273.62 15.78Q273.62 15.88 273.59 15.97L273.59 15.97Q273.20 15.96 272.76 15.95Q272.33 15.95 271.63 15.95L271.63 15.95Q271.17 15.95 270.75 15.97Q270.34 15.99 269.92 16.03Q269.50 16.07 269.03 16.14Q268.56 16.21 267.97 16.31L267.97 16.31Q267.33 16.06 266.73 15.08L266.73 15.08Q266.97 14.57 267.39 13.54Q267.82 12.52 268.48 10.79L268.48 10.79Q267.85 10.60 267.65 10.09L267.65 10.09Q267.72 10.02 268.06 9.92Q268.39 9.81 268.88 9.70L268.88 9.70Q269.09 9.16 269.24 8.75Q269.39 8.34 269.50 7.99Q269.61 7.63 269.70 7.29Q269.79 6.94 269.88 6.54L269.88 6.54Q269.39 6.51 269.11 6.27Q268.83 6.02 268.83 5.63L268.83 5.63Q268.83 5.52 268.86 5.36Q268.90 5.21 268.94 5.10L268.94 5.10Q269.22 5.14 269.48 5.15Q269.74 5.17 270.16 5.17L270.16 5.17Q271.04 5.17 271.81 5.12Q272.58 5.07 273.20 5.01Q273.83 4.96 274.27 4.91Q274.72 4.86 274.96 4.86L274.96 4.86Q275.28 4.86 275.53 5.19Q275.79 5.53 275.91 6.15L275.91 6.15Q275.48 6.10 275.21 6.09Q274.93 6.08 274.72 6.08L274.72 6.08Q273.95 6.08 273.32 6.15Q272.68 6.23 272.09 6.31L272.09 6.31Q272.01 6.44 271.90 6.64Q271.80 6.83 271.63 7.18Q271.46 7.53 271.22 8.06Q270.97 8.60 270.62 9.39L270.62 9.39Q271.15 9.31 271.62 9.26Q272.09 9.21 272.41 9.21ZM289.80 15.23L289.80 15.23Q289.67 15.36 289.43 15.52Q289.18 15.68 288.90 15.81Q288.62 15.95 288.34 16.05Q288.05 16.16 287.87 16.17L287.87 16.17Q287.69 16.17 287.55 16.03Q287.41 15.89 287.25 15.39Q287.10 14.90 286.90 13.95Q286.69 13.01 286.38 11.38L286.38 11.38Q285.59 12.21 284.90 12.98Q284.21 13.75 283.72 14.41Q283.23 15.06 282.95 15.55Q282.67 16.04 282.67 16.30L282.67 16.30Q282.51 16.28 282.33 16.17Q282.16 16.06 282.02 15.90Q281.88 15.75 281.79 15.57Q281.69 15.39 281.69 15.22L281.69 15.22Q281.74 15.06 281.90 14.78Q282.07 14.50 282.32 14.18L282.32 14.18Q282.86 13.50 283.84 12.59Q284.83 11.69 286.23 10.60L286.23 10.60Q285.32 6.08 283.65 6.08L283.65 6.08Q283.82 5.67 284.19 5.36Q284.56 5.05 284.98 4.98L284.98 4.98Q285.45 4.98 285.74 5.10Q286.03 5.22 286.27 5.70Q286.51 6.17 286.75 7.13Q286.99 8.09 287.35 9.76L287.35 9.76Q287.81 9.27 288.24 8.76Q288.67 8.25 289.03 7.77Q289.39 7.29 289.67 6.89Q289.95 6.48 290.11 6.19L290.11 6.19Q290.26 5.92 290.26 5.64L290.26 5.64Q290.26 5.39 290.11 4.98L290.11 4.98Q290.56 5.25 290.79 5.48Q291.02 5.71 291.19 6.12L291.19 6.12Q291.16 6.45 291.00 6.79Q290.84 7.13 290.44 7.59Q290.04 8.06 289.34 8.75Q288.64 9.44 287.50 10.46L287.50 10.46Q287.77 11.72 288.02 12.59Q288.27 13.45 288.54 14.01Q288.81 14.56 289.11 14.85Q289.42 15.13 289.80 15.23ZM307.61 7.63L307.61 7.63Q307.61 8.40 307.22 9.10Q306.84 9.80 306.19 10.32Q305.54 10.85 304.66 11.16Q303.79 11.47 302.81 11.47L302.81 11.47Q302.46 11.47 302.25 11.38Q302.05 11.28 301.80 11.02L301.80 11.02Q301.10 12.54 300.66 13.82Q300.22 15.11 299.96 16.31L299.96 16.31Q299.43 16.18 299.10 15.87Q298.76 15.55 298.48 15.08L298.48 15.08Q298.62 14.81 298.82 14.38Q299.01 13.94 299.29 13.31Q299.57 12.67 299.94 11.78Q300.31 10.89 300.82 9.70L300.82 9.70Q301.04 9.16 301.21 8.75Q301.38 8.34 301.50 7.99Q301.63 7.63 301.74 7.28Q301.84 6.93 301.95 6.51L301.95 6.51Q301.29 6.72 300.74 7Q300.19 7.28 299.82 7.59L299.82 7.59Q299.70 7.50 299.57 7.34Q299.43 7.17 299.32 6.96Q299.21 6.76 299.12 6.55Q299.04 6.34 299.03 6.17L299.03 6.17Q299.43 5.89 300.03 5.66Q300.64 5.42 301.32 5.24Q302.01 5.07 302.74 4.97Q303.48 4.87 304.15 4.87L304.15 4.87Q304.95 4.87 305.59 5.07Q306.24 5.28 306.68 5.64Q307.13 6.01 307.37 6.51Q307.61 7.01 307.61 7.63ZM305.12 5.95L305.12 5.95Q304.58 5.95 304.02 6.03L304.02 6.03L304.19 6.29Q304.05 6.47 303.84 6.83Q303.63 7.20 303.38 7.71Q303.13 8.22 302.83 8.85Q302.53 9.48 302.19 10.18L302.19 10.18Q303.28 10.18 304.18 9.97Q305.07 9.77 305.71 9.41Q306.35 9.06 306.71 8.58Q307.06 8.11 307.06 7.56L307.06 7.56Q307.06 6.83 306.57 6.39Q306.08 5.95 305.12 5.95ZM314.69 16.24L314.69 16.24Q314.02 16.04 313.76 15.85Q313.50 15.65 313.50 15.36L313.50 15.36Q313.50 15.13 313.63 14.73Q313.75 14.32 314.00 13.77Q314.24 13.22 314.59 12.54Q314.93 11.87 315.36 11.10L315.36 11.10Q315.00 11.09 314.71 11.08Q314.43 11.07 314.24 11.07L314.24 11.07Q314.33 10.86 314.72 10.71Q315.11 10.56 315.76 10.44L315.76 10.44Q316.30 9.53 316.93 8.71Q317.55 7.88 318.18 7.19Q318.81 6.50 319.44 5.97Q320.07 5.45 320.64 5.14L320.64 5.14Q320.66 5.04 320.66 4.97Q320.67 4.90 320.67 4.87L320.67 4.87Q320.87 4.87 321.20 4.97Q321.52 5.07 321.84 5.21Q322.15 5.35 322.40 5.49Q322.64 5.64 322.67 5.74L322.67 5.74Q322.21 6.55 321.76 8.17Q321.31 9.79 321.02 12.04L321.02 12.04Q320.95 12.60 320.90 13.31Q320.85 14.03 320.85 14.91L320.85 14.91Q320.85 15.22 320.85 15.54Q320.85 15.86 320.88 16.21L320.88 16.21Q320.85 16.23 320.82 16.23Q320.80 16.23 320.71 16.23L320.71 16.23Q320.52 16.23 320.26 16.16Q320.00 16.10 319.75 16.01Q319.51 15.92 319.33 15.81Q319.16 15.69 319.12 15.61L319.12 15.61Q319.10 15.43 319.10 15.25Q319.10 15.08 319.10 14.88L319.10 14.88Q319.10 14.01 319.17 13.12Q319.23 12.22 319.38 11.27L319.38 11.27Q319.19 11.26 318.86 11.23Q318.54 11.21 318.14 11.20Q317.74 11.19 317.29 11.16Q316.83 11.14 316.40 11.13L316.40 11.13Q316.06 11.76 315.77 12.38Q315.48 13.01 315.27 13.64L315.27 13.64Q315.03 14.31 314.88 14.98Q314.73 15.65 314.69 16.24ZM320.10 7.83L320.10 7.83Q320.15 7.63 320.23 7.29Q320.31 6.94 320.38 6.57L320.38 6.57Q320.03 6.69 319.60 7.03Q319.17 7.36 318.72 7.86Q318.26 8.36 317.79 8.98Q317.32 9.60 316.89 10.30L316.89 10.30Q318.07 10.21 319.56 10.18L319.56 10.18Q319.68 9.59 319.81 9.01Q319.94 8.43 320.10 7.83ZM331.30 16.24L331.30 16.24Q330.50 16.00 330.22 15.79Q329.94 15.57 329.94 15.19L329.94 15.19Q329.94 14.77 330.13 14.01Q330.33 13.24 330.65 12.31Q330.96 11.37 331.37 10.35Q331.77 9.32 332.19 8.39Q332.61 7.45 333.01 6.67Q333.41 5.89 333.72 5.46L333.72 5.46L333.62 4.87Q333.82 4.87 334.17 4.97Q334.52 5.07 334.87 5.21Q335.23 5.35 335.50 5.49Q335.78 5.64 335.80 5.74L335.80 5.74Q335.73 6.08 335.69 6.76Q335.65 7.43 335.65 8.20L335.65 8.20Q335.65 9.73 335.77 11.19Q335.89 12.66 336.32 14.17L336.32 14.17Q336.55 13.05 336.81 11.94Q337.06 10.82 337.34 9.81Q337.62 8.79 337.90 7.92Q338.18 7.06 338.44 6.40Q338.70 5.75 338.93 5.38Q339.15 5.01 339.33 4.98L339.33 4.98Q339.49 5.01 339.67 5.10Q339.85 5.19 340.02 5.32Q340.19 5.45 340.33 5.60Q340.47 5.75 340.55 5.91L340.55 5.91Q340.10 6.09 339.66 6.76Q339.22 7.43 338.82 8.39Q338.42 9.35 338.08 10.47Q337.74 11.59 337.48 12.68Q337.22 13.76 337.07 14.69Q336.92 15.61 336.91 16.17L336.91 16.17Q336.91 16.20 336.92 16.21L336.92 16.21Q336.88 16.23 336.83 16.23Q336.78 16.23 336.74 16.23L336.74 16.23Q336.10 16.23 335.60 16.07Q335.10 15.90 334.95 15.61L334.95 15.61Q334.66 14.43 334.46 13.34Q334.26 12.25 334.13 11.16Q334.00 10.07 333.92 8.95Q333.84 7.84 333.80 6.62L333.80 6.62Q333.54 7.04 333.24 7.72Q332.95 8.40 332.67 9.21Q332.39 10.02 332.13 10.92Q331.87 11.82 331.67 12.67Q331.48 13.52 331.37 14.29Q331.25 15.05 331.25 15.61L331.25 15.61Q331.25 15.90 331.26 16.03Q331.27 16.16 331.30 16.24ZM347.55 14.45L347.55 14.45Q347.76 13.99 348.05 13.26Q348.35 12.53 348.67 11.68Q348.99 10.84 349.33 9.95Q349.66 9.06 349.96 8.26Q350.25 7.46 350.47 6.83Q350.69 6.20 350.78 5.87L350.78 5.87Q349.90 6.23 349.27 6.97Q348.64 7.71 348.32 8.83L348.32 8.83Q348.00 8.72 347.73 8.43Q347.47 8.15 347.38 7.71L347.38 7.71Q347.52 7.07 347.91 6.54Q348.29 6.01 348.88 5.63Q349.47 5.25 350.24 5.05Q351.01 4.84 351.89 4.84L351.89 4.84Q353.01 4.84 353.95 5.17Q354.89 5.50 355.56 6.09Q356.23 6.68 356.61 7.50Q356.99 8.33 356.99 9.34L356.99 9.34Q356.99 10.71 356.48 11.96Q355.98 13.20 355.12 14.15Q354.26 15.11 353.12 15.67Q351.99 16.24 350.74 16.24L350.74 16.24Q349.59 16.24 348.78 15.79Q347.96 15.33 347.55 14.45ZM352.49 5.54L352.49 5.54Q351.79 5.54 351.16 5.74L351.16 5.74Q351.78 5.96 352.18 6.21Q352.59 6.45 352.74 6.59L352.74 6.59Q352.63 6.75 352.42 7.14Q352.20 7.53 351.91 8.09Q351.62 8.65 351.30 9.32Q350.98 9.98 350.67 10.68L350.67 10.68Q349.87 12.46 349.52 13.48Q349.16 14.50 349.16 14.90L349.16 14.90Q349.36 14.97 349.64 14.99Q349.92 15.02 350.24 15.02L350.24 15.02Q351.37 15.02 352.39 14.50Q353.40 13.97 354.17 13.09Q354.93 12.21 355.37 11.04Q355.81 9.87 355.81 8.58L355.81 8.58Q355.81 7.14 354.91 6.34Q354.02 5.54 352.49 5.54ZM380.00 10.35L380.00 10.35Q381.05 9.20 381.89 7.91Q382.72 6.62 383.43 5.01L383.43 5.01Q383.80 5.05 384.13 5.21Q384.47 5.36 384.66 5.56L384.66 5.56Q383.89 6.48 383.27 7.24Q382.65 7.99 382.13 8.66Q381.61 9.32 381.17 9.93Q380.73 10.54 380.31 11.16L380.31 11.16Q380.10 11.87 379.92 12.60Q379.74 13.33 379.60 13.99Q379.46 14.66 379.38 15.22Q379.30 15.79 379.30 16.20L379.30 16.20Q379.15 16.20 378.81 16.14Q378.48 16.07 378.13 15.99Q377.78 15.90 377.49 15.82Q377.20 15.74 377.15 15.68L377.15 15.68Q377.37 15.30 377.59 14.75Q377.80 14.20 378.01 13.59Q378.22 12.98 378.42 12.36Q378.62 11.73 378.78 11.20L378.78 11.20Q378.43 10.11 378.11 9.15Q377.78 8.19 377.47 7.41Q377.16 6.64 376.88 6.08Q376.60 5.52 376.35 5.22L376.35 5.22Q376.49 5.17 376.78 5.11Q377.06 5.05 377.41 5.00Q377.75 4.94 378.11 4.91Q378.46 4.87 378.74 4.86L378.74 4.86Q378.74 5.21 378.81 5.71Q378.87 6.22 378.97 6.79Q379.08 7.36 379.22 7.95Q379.36 8.54 379.50 9.03Q379.64 9.52 379.77 9.88Q379.90 10.23 380.00 10.35ZM396.65 4.98L396.65 4.98Q396.91 5.10 397.19 5.27Q397.47 5.45 397.71 5.63Q397.95 5.81 398.11 5.98Q398.27 6.16 398.29 6.27L398.29 6.27Q398.05 6.22 397.81 6.20Q397.57 6.17 397.38 6.17L397.38 6.17Q396.75 6.17 396.12 6.48Q395.50 6.79 394.94 7.32Q394.38 7.85 393.90 8.57Q393.43 9.28 393.09 10.09Q392.74 10.91 392.55 11.77Q392.35 12.64 392.35 13.48L392.35 13.48Q392.35 14.57 392.71 15.11Q393.08 15.64 393.78 15.64L393.78 15.64Q394.11 15.64 394.51 15.51Q394.90 15.37 395.30 15.13Q395.71 14.90 396.10 14.56Q396.49 14.22 396.83 13.82L396.83 13.82Q397.32 13.23 397.71 12.48Q398.10 11.73 398.38 10.89Q398.65 10.05 398.80 9.16Q398.94 8.27 398.94 7.42L398.94 7.42Q398.94 7.08 398.93 6.85Q398.92 6.62 398.90 6.46Q398.87 6.30 398.86 6.20Q398.85 6.10 398.83 6.03L398.83 6.03Q399.00 6.12 399.20 6.24Q399.41 6.36 399.58 6.59Q399.76 6.82 399.88 7.20Q399.99 7.57 399.99 8.18L399.99 8.18Q399.99 9.16 399.76 10.10Q399.53 11.05 399.12 11.90Q398.71 12.75 398.15 13.50Q397.59 14.24 396.94 14.80L396.94 14.80Q396.10 15.54 395.15 15.95Q394.20 16.35 393.32 16.35L393.32 16.35Q392.03 16.35 391.35 15.53Q390.67 14.71 390.67 13.12L390.67 13.12Q390.67 12.26 390.86 11.31Q391.05 10.36 391.39 9.44Q391.73 8.51 392.21 7.68Q392.69 6.85 393.25 6.21Q393.82 5.57 394.47 5.19Q395.12 4.82 395.81 4.82L395.81 4.82Q396.03 4.82 396.23 4.85Q396.42 4.89 396.65 4.98ZM412.69 5.75L412.69 5.75Q412.08 6.58 411.57 7.57Q411.07 8.57 410.71 9.61Q410.35 10.65 410.17 11.67Q409.98 12.68 409.98 13.57L409.98 13.57Q409.98 14.66 410.30 15.15Q410.62 15.64 411.40 15.64L411.40 15.64Q412.31 15.64 413.00 15.00Q413.69 14.36 414.29 13.24L414.29 13.24Q414.68 12.52 414.96 11.65Q415.24 10.78 415.42 9.86Q415.59 8.95 415.67 8.02Q415.76 7.08 415.76 6.23L415.76 6.23Q415.76 5.68 415.74 5.43Q415.73 5.18 415.70 5.03L415.70 5.03Q415.74 5.03 415.91 5.05Q416.08 5.08 416.30 5.12Q416.51 5.17 416.73 5.24Q416.95 5.31 417.10 5.39L417.10 5.39Q417.03 6.45 416.84 7.59Q416.65 8.72 416.35 9.83Q416.04 10.93 415.63 11.96Q415.23 12.98 414.72 13.79L414.72 13.79Q413.98 14.99 413.06 15.67Q412.13 16.35 410.87 16.35L410.87 16.35Q409.58 16.35 408.87 15.60Q408.16 14.85 408.16 13.33L408.16 13.33Q408.16 12.45 408.35 11.33Q408.55 10.22 408.88 9.07Q409.21 7.91 409.64 6.81Q410.07 5.71 410.55 4.84L410.55 4.84Q410.79 4.86 411.11 4.94Q411.43 5.03 411.74 5.16Q412.05 5.29 412.31 5.45Q412.57 5.61 412.69 5.75ZM433.59 7.46L433.59 7.46Q433.59 8.13 433.29 8.73Q432.99 9.32 432.46 9.79Q431.93 10.26 431.21 10.58Q430.50 10.91 429.66 11.02L429.66 11.02Q429.87 11.65 430.17 12.31Q430.47 12.98 430.82 13.59Q431.17 14.21 431.55 14.73Q431.93 15.25 432.29 15.58L432.29 15.58Q432.22 15.72 432.09 15.86Q431.96 16.00 431.78 16.12Q431.61 16.24 431.42 16.32Q431.23 16.39 431.06 16.39L431.06 16.39Q430.75 16.39 430.47 16.10Q430.19 15.81 429.91 15.17Q429.62 14.53 429.30 13.52Q428.99 12.50 428.61 11.07L428.61 11.07Q428.46 11.07 428.30 11.07Q428.15 11.07 428.06 11.05L428.06 11.05Q427.97 10.99 427.85 10.85L427.85 10.85Q427.48 11.66 427.18 12.38Q426.89 13.09 426.66 13.76Q426.43 14.42 426.25 15.04Q426.08 15.67 425.95 16.31L425.95 16.31Q425.47 16.20 425.12 15.90Q424.77 15.61 424.47 15.08L424.47 15.08Q424.52 14.95 424.59 14.83Q424.65 14.71 424.75 14.50Q424.84 14.28 424.99 13.94Q425.14 13.61 425.38 13.05Q425.63 12.49 425.97 11.68Q426.31 10.86 426.80 9.70L426.80 9.70Q427.03 9.18 427.19 8.79Q427.35 8.40 427.48 8.04Q427.60 7.69 427.71 7.33Q427.81 6.97 427.92 6.51L427.92 6.51Q427.28 6.73 426.73 7.01Q426.17 7.28 425.81 7.59L425.81 7.59Q425.68 7.50 425.55 7.34Q425.42 7.17 425.31 6.96Q425.19 6.76 425.11 6.55Q425.03 6.34 425.01 6.17L425.01 6.17Q425.43 5.89 426.04 5.66Q426.65 5.42 427.34 5.24Q428.02 5.07 428.74 4.97Q429.45 4.87 430.07 4.87L430.07 4.87Q431.75 4.87 432.67 5.56Q433.59 6.26 433.59 7.46ZM430.01 6.02L430.18 6.29Q430.08 6.41 429.87 6.79Q429.66 7.17 429.39 7.69Q429.11 8.22 428.81 8.83Q428.51 9.45 428.23 10.05L428.23 10.05Q429.28 10.05 430.16 9.86Q431.05 9.66 431.69 9.30Q432.33 8.95 432.69 8.46Q433.05 7.98 433.05 7.39L433.05 7.39Q433.05 6.69 432.54 6.32Q432.04 5.95 430.99 5.95L430.99 5.95Q430.75 5.95 430.51 5.97Q430.28 5.99 430.01 6.02L430.01 6.02ZM460.60 7.46L460.60 7.46Q460.60 8.13 460.30 8.73Q460.00 9.32 459.47 9.79Q458.93 10.26 458.22 10.58Q457.51 10.91 456.67 11.02L456.67 11.02Q456.88 11.65 457.18 12.31Q457.48 12.98 457.83 13.59Q458.18 14.21 458.56 14.73Q458.93 15.25 459.30 15.58L459.30 15.58Q459.23 15.72 459.10 15.86Q458.96 16.00 458.79 16.12Q458.61 16.24 458.42 16.32Q458.23 16.39 458.07 16.39L458.07 16.39Q457.76 16.39 457.48 16.10Q457.20 15.81 456.91 15.17Q456.62 14.53 456.31 13.52Q455.99 12.50 455.62 11.07L455.62 11.07Q455.46 11.07 455.31 11.07Q455.15 11.07 455.07 11.05L455.07 11.05Q454.97 10.99 454.86 10.85L454.86 10.85Q454.48 11.66 454.19 12.38Q453.89 13.09 453.66 13.76Q453.43 14.42 453.26 15.04Q453.08 15.67 452.96 16.31L452.96 16.31Q452.48 16.20 452.13 15.90Q451.78 15.61 451.47 15.08L451.47 15.08Q451.53 14.95 451.59 14.83Q451.65 14.71 451.75 14.50Q451.85 14.28 452.00 13.94Q452.14 13.61 452.39 13.05Q452.63 12.49 452.98 11.68Q453.32 10.86 453.81 9.70L453.81 9.70Q454.03 9.18 454.20 8.79Q454.36 8.40 454.48 8.04Q454.61 7.69 454.71 7.33Q454.82 6.97 454.93 6.51L454.93 6.51Q454.29 6.73 453.73 7.01Q453.18 7.28 452.82 7.59L452.82 7.59Q452.69 7.50 452.56 7.34Q452.42 7.17 452.31 6.96Q452.20 6.76 452.12 6.55Q452.03 6.34 452.02 6.17L452.02 6.17Q452.44 5.89 453.05 5.66Q453.66 5.42 454.34 5.24Q455.03 5.07 455.74 4.97Q456.46 4.87 457.07 4.87L457.07 4.87Q458.75 4.87 459.68 5.56Q460.60 6.26 460.60 7.46ZM457.02 6.02L457.18 6.29Q457.09 6.41 456.88 6.79Q456.67 7.17 456.39 7.69Q456.12 8.22 455.82 8.83Q455.52 9.45 455.24 10.05L455.24 10.05Q456.29 10.05 457.17 9.86Q458.05 9.66 458.70 9.30Q459.34 8.95 459.70 8.46Q460.05 7.98 460.05 7.39L460.05 7.39Q460.05 6.69 459.55 6.32Q459.05 5.95 458.00 5.95L458.00 5.95Q457.76 5.95 457.52 5.97Q457.28 5.99 457.02 6.02L457.02 6.02ZM473.42 9.21L473.42 9.21Q473.89 9.21 474.14 9.46Q474.40 9.72 474.40 10.16L474.40 10.16Q474.40 10.28 474.38 10.39Q474.36 10.51 474.33 10.60L474.33 10.60Q474.15 10.57 473.93 10.55Q473.70 10.53 473.40 10.53L473.40 10.53Q472.79 10.53 472.18 10.63Q471.56 10.74 471.00 10.81L471.00 10.81Q470.68 11.55 470.41 12.24Q470.15 12.94 469.96 13.51Q469.77 14.08 469.67 14.50Q469.56 14.92 469.55 15.13L469.55 15.13Q470.68 14.90 471.84 14.73Q472.99 14.56 474.26 14.48L474.26 14.48Q474.42 14.71 474.52 14.99Q474.63 15.27 474.63 15.60L474.63 15.60Q474.63 15.68 474.63 15.78Q474.63 15.88 474.60 15.97L474.60 15.97Q474.21 15.96 473.77 15.95Q473.34 15.95 472.64 15.95L472.64 15.95Q472.18 15.95 471.76 15.97Q471.35 15.99 470.93 16.03Q470.51 16.07 470.04 16.14Q469.57 16.21 468.99 16.31L468.99 16.31Q468.34 16.06 467.74 15.08L467.74 15.08Q467.98 14.57 468.41 13.54Q468.83 12.52 469.49 10.79L469.49 10.79Q468.86 10.60 468.66 10.09L468.66 10.09Q468.73 10.02 469.07 9.92Q469.41 9.81 469.90 9.70L469.90 9.70Q470.11 9.16 470.25 8.75Q470.40 8.34 470.51 7.99Q470.62 7.63 470.72 7.29Q470.81 6.94 470.89 6.54L470.89 6.54Q470.40 6.51 470.12 6.27Q469.84 6.02 469.84 5.63L469.84 5.63Q469.84 5.52 469.88 5.36Q469.91 5.21 469.95 5.10L469.95 5.10Q470.23 5.14 470.49 5.15Q470.75 5.17 471.17 5.17L471.17 5.17Q472.05 5.17 472.82 5.12Q473.59 5.07 474.22 5.01Q474.84 4.96 475.29 4.91Q475.73 4.86 475.97 4.86L475.97 4.86Q476.29 4.86 476.55 5.19Q476.80 5.53 476.92 6.15L476.92 6.15Q476.49 6.10 476.22 6.09Q475.94 6.08 475.73 6.08L475.73 6.08Q474.96 6.08 474.33 6.15Q473.69 6.23 473.10 6.31L473.10 6.31Q473.02 6.44 472.91 6.64Q472.81 6.83 472.64 7.18Q472.47 7.53 472.23 8.06Q471.98 8.60 471.63 9.39L471.63 9.39Q472.16 9.31 472.63 9.26Q473.10 9.21 473.42 9.21ZM483.80 16.24L483.80 16.24Q483.13 16.04 482.87 15.85Q482.61 15.65 482.61 15.36L482.61 15.36Q482.61 15.13 482.73 14.73Q482.86 14.32 483.11 13.77Q483.35 13.22 483.69 12.54Q484.04 11.87 484.47 11.10L484.47 11.10Q484.11 11.09 483.82 11.08Q483.53 11.07 483.35 11.07L483.35 11.07Q483.43 10.86 483.83 10.71Q484.22 10.56 484.86 10.44L484.86 10.44Q485.41 9.53 486.03 8.71Q486.65 7.88 487.28 7.19Q487.91 6.50 488.54 5.97Q489.17 5.45 489.75 5.14L489.75 5.14Q489.76 5.04 489.77 4.97Q489.78 4.90 489.78 4.87L489.78 4.87Q489.97 4.87 490.30 4.97Q490.63 5.07 490.94 5.21Q491.26 5.35 491.50 5.49Q491.75 5.64 491.78 5.74L491.78 5.74Q491.32 6.55 490.87 8.17Q490.42 9.79 490.13 12.04L490.13 12.04Q490.06 12.60 490.01 13.31Q489.96 14.03 489.96 14.91L489.96 14.91Q489.96 15.22 489.96 15.54Q489.96 15.86 489.99 16.21L489.99 16.21Q489.96 16.23 489.93 16.23Q489.90 16.23 489.82 16.23L489.82 16.23Q489.62 16.23 489.36 16.16Q489.10 16.10 488.86 16.01Q488.61 15.92 488.44 15.81Q488.26 15.69 488.22 15.61L488.22 15.61Q488.21 15.43 488.21 15.25Q488.21 15.08 488.21 14.88L488.21 14.88Q488.21 14.01 488.27 13.12Q488.33 12.22 488.49 11.27L488.49 11.27Q488.29 11.26 487.97 11.23Q487.65 11.21 487.25 11.20Q486.85 11.19 486.40 11.16Q485.94 11.14 485.51 11.13L485.51 11.13Q485.17 11.76 484.88 12.38Q484.58 13.01 484.37 13.64L484.37 13.64Q484.13 14.31 483.99 14.98Q483.84 15.65 483.80 16.24ZM489.20 7.83L489.20 7.83Q489.26 7.63 489.34 7.29Q489.41 6.94 489.48 6.57L489.48 6.57Q489.13 6.69 488.71 7.03Q488.28 7.36 487.82 7.86Q487.37 8.36 486.90 8.98Q486.43 9.60 486.00 10.30L486.00 10.30Q487.17 10.21 488.67 10.18L488.67 10.18Q488.78 9.59 488.92 9.01Q489.05 8.43 489.20 7.83ZM499.52 12.43L499.52 12.43Q499.52 11.45 499.75 10.51Q499.98 9.56 500.40 8.71Q500.82 7.87 501.40 7.16Q501.98 6.45 502.68 5.94Q503.37 5.42 504.15 5.13Q504.94 4.84 505.76 4.84L505.76 4.84Q506.73 4.84 507.27 5.25Q507.81 5.66 507.81 6.38L507.81 6.38Q507.81 6.66 507.73 6.96Q507.65 7.25 507.51 7.54Q507.36 7.83 507.16 8.09Q506.97 8.36 506.73 8.55L506.73 8.55Q506.37 8.50 506.10 8.22Q505.83 7.95 505.76 7.59L505.76 7.59Q506.25 7.18 506.54 6.74Q506.83 6.30 506.83 5.94L506.83 5.94Q506.83 5.32 506.06 5.32L506.06 5.32Q505.74 5.32 505.39 5.45Q505.05 5.59 504.70 5.82Q504.35 6.06 504.02 6.40Q503.69 6.73 503.41 7.14L503.41 7.14Q501.47 9.94 501.47 12.87L501.47 12.87Q501.47 13.90 501.79 14.53Q502.11 15.16 502.64 15.27L502.64 15.27Q503.24 15.13 504.17 14.50Q505.09 13.87 506.18 12.87L506.18 12.87Q506.32 13.01 506.35 13.16L506.35 13.16Q505.95 13.69 505.51 14.18Q505.08 14.67 504.65 15.08Q504.22 15.48 503.81 15.79Q503.40 16.10 503.05 16.27L503.05 16.27Q501.31 16.24 500.42 15.27Q499.52 14.31 499.52 12.43ZM519.86 14.36L519.86 14.36Q519.86 13.78 520.06 12.85Q520.25 11.93 520.58 10.88L520.58 10.88Q519.65 10.95 518.72 11.06Q517.79 11.17 517.10 11.19L517.10 11.19Q516.47 12.66 516.10 13.89Q515.73 15.13 515.52 16.31L515.52 16.31Q514.99 16.18 514.64 15.87Q514.29 15.55 514.00 15.08L514.00 15.08Q514.11 14.85 514.26 14.50Q514.40 14.15 514.61 13.66Q514.81 13.16 515.07 12.50Q515.33 11.83 515.66 10.95L515.66 10.95Q515.20 10.75 515.05 10.40L515.05 10.40Q515.12 10.35 515.36 10.28Q515.61 10.22 515.97 10.15L515.97 10.15L516.15 9.70Q516.45 8.95 516.64 8.43Q516.82 7.91 516.96 7.41Q517.09 6.92 517.21 6.31Q517.33 5.71 517.50 4.79L517.50 4.79Q518.08 4.90 518.57 5.31Q519.05 5.71 519.40 6.29L519.40 6.29Q519.27 6.45 519.09 6.79Q518.91 7.13 518.69 7.59Q518.48 8.06 518.22 8.64Q517.97 9.23 517.68 9.87L517.68 9.87Q518.55 9.76 519.44 9.66Q520.32 9.56 521.01 9.52L521.01 9.52Q521.26 8.79 521.54 8.10Q521.81 7.41 522.07 6.83Q522.34 6.26 522.59 5.82Q522.83 5.39 523.03 5.18L523.03 5.18Q523.17 5.19 523.40 5.29Q523.63 5.38 523.87 5.50Q524.10 5.63 524.30 5.78Q524.50 5.92 524.57 6.05L524.57 6.05Q524.31 6.29 524.06 6.66Q523.81 7.04 523.57 7.53Q523.32 8.02 523.08 8.60Q522.84 9.17 522.63 9.79L522.63 9.79Q522.91 10.04 522.91 10.42L522.91 10.42Q522.91 10.68 522.80 10.91L522.80 10.91Q522.68 10.88 522.55 10.87Q522.42 10.86 522.28 10.85L522.28 10.85Q522.05 11.61 521.85 12.35Q521.65 13.09 521.52 13.76Q521.39 14.43 521.31 14.99Q521.23 15.55 521.23 15.93L521.23 15.93Q521.23 16.07 521.24 16.16Q521.25 16.24 521.26 16.30L521.26 16.30Q520.95 16.28 520.81 16.19Q520.67 16.10 520.60 16.00Q520.53 15.89 520.48 15.79Q520.42 15.68 520.30 15.62L520.30 15.62Q520.20 15.58 520.11 15.43Q520.03 15.27 519.97 15.08Q519.92 14.88 519.89 14.69Q519.86 14.49 519.86 14.36Z"></path></g></svg>