<svg xmlns="http://www.w3.org/2000/svg" xmlns:xlink="http://www.w3.org/1999/xlink" id="_20i" data-name="20i" width="126.85" height="54.5"><defs><linearGradient id="linear-gradient" x1="-3839.79" y1="-41.61" x2="-3839.92" y2="-40.43" gradientTransform="matrix(22.72 0 0 -47.2 87361.91 -1876.85)" gradientUnits="userSpaceOnUse"><stop offset="0" stop-color="#fbbc02"/><stop offset="1" stop-color="#ed7733"/></linearGradient><linearGradient id="linear-gradient-2" x1="-3836.82" y1="-41.95" x2="-3836.95" y2="-40.76" gradientTransform="matrix(22.29 0 0 -47 85612.55 -1884.75)" xlink:href="#linear-gradient"/><style>.cls-1{fill:#333}</style></defs><path class="cls-1" d="M69.66 65.83h-29a4.84 4.84 0 01-3.9-3.46c-.76-2.83 1.31-5.11 2.6-6.24l2.07-1.87c.87-.78 1.74-1.62 2.64-2.34l12.9-11 1.92-1.62a44.2 44.2 0 003.75-3.22 10.46 10.46 0 003.13-7.65 6.74 6.74 0 00-2.36-5 10.57 10.57 0 00-7.9-2.43 15.8 15.8 0 00-10.39 5.66 3.89 3.89 0 01-5.48.52 3.89 3.89 0 01-.52-5.48 23.64 23.64 0 0115.66-8.45 18.18 18.18 0 0113.59 4.17 14.49 14.49 0 015.15 10.63 18.29 18.29 0 01-5.3 13.5 56.06 56.06 0 01-4.35 3.8l-1.81 1.46-12.89 11-.31.28h20.8a3.9 3.9 0 010 7.79z" transform="translate(-36.58 -11.38)"/><circle class="cls-1" cx="106.81" cy="5.69" r="3.92"/><path d="M111.61 65.82a3.9 3.9 0 11-1.13-7.72h.07a19.34 19.34 0 000-37.31 3.89 3.89 0 011.15-7.69 4.28 4.28 0 01.93.26 27.14 27.14 0 010 52.32 4.41 4.41 0 01-1 .15z" transform="translate(-36.58 -11.38)" fill="url(#linear-gradient)"/><path d="M99.16 65.82a3.68 3.68 0 01-1-.15 27.13 27.13 0 010-52.31 3.89 3.89 0 012.09 7.49 19.35 19.35 0 000 37.32 3.88 3.88 0 01-1 7.64z" transform="translate(-36.58 -11.38)" fill="url(#linear-gradient-2)"/><path class="cls-1" d="M143.41 65.82a3.88 3.88 0 01-3.88-3.88V33.3a3.9 3.9 0 017.79-.14v28.75a3.89 3.89 0 01-3.87 3.91zm20-49.77a4.7 4.7 0 01-9.38 0 4.63 4.63 0 014.57-4.7h.13a4.57 4.57 0 014.68 4.47zm-.77 0a3.82 3.82 0 00-3.7-3.94h-.2a3.89 3.89 0 00-3.94 3.82v.14a3.93 3.93 0 007.85.27v-.29zm-2.55.84l1.17 1.79h-1.14l-1-1.59h-1.18v1.59h-1.14v-5.24h2.2c1.38 0 2.21.72 2.21 1.83a1.65 1.65 0 01-1 1.62zm-1.22-.69c.75 0 1.17-.33 1.17-.93s-.42-.91-1.17-.91h-1v1.84z" transform="translate(-36.58 -11.38)"/></svg>