<svg xmlns="http://www.w3.org/2000/svg" xmlns:xlink="http://www.w3.org/1999/xlink" width="79.91" height="70.646"><defs><linearGradient id="linear-gradient" x1=".5" y1="1" x2=".5" gradientUnits="objectBoundingBox"><stop offset="0" stop-color="#035"/><stop offset=".7" stop-color="#007ac1"/></linearGradient><linearGradient id="linear-gradient-2" x1=".13" y1="1.683" x2=".902" y2="-1.043" gradientUnits="objectBoundingBox"><stop offset=".49" stop-color="#ed8e13"/><stop offset=".73" stop-color="#80490a"/><stop offset=".86" stop-color="#ed8e13"/></linearGradient><linearGradient id="linear-gradient-3" x1=".5" y1="1" x2=".5" gradientUnits="objectBoundingBox"><stop offset="0" stop-color="#999"/><stop offset="1" stop-color="#333"/></linearGradient><linearGradient id="linear-gradient-4" x1=".5" y1="0" x2=".5" y2="1" xlink:href="#linear-gradient"/></defs><g id="abantecart" transform="translate(-.5 -4.21)"><path id="Path_29241" data-name="Path 29241" d="M21.838 74.856H.5L31.39 4.21h21.339z" fill="url(#linear-gradient)"/><path id="Path_29242" data-name="Path 29242" d="M72.235 44.979l5.206-12.149H3.1l4.87 12.149z" transform="translate(.646 7.115)" fill="url(#linear-gradient-2)"/><path id="Path_29243" data-name="Path 29243" d="M8.39 42.56l7.492 22.74h50.705V42.56zm11 18.829l-4.969-14.534h9.589l3.558 14.559zm18.117 0h-7.129l-2.81-14.534h9.989zm9.989 0H40.7V46.855h9.652zm3.546 0l2.5-10.3 4.994 10.3z" transform="translate(1.961 9.534)" fill="#d9ccbb"/><path id="Path_29244" data-name="Path 29244" d="M64.164 60.986H14.432L14.07 59.9h50.094z" transform="translate(3.373 13.844)" fill="#cfc2b2"/><path id="Path_29245" data-name="Path 29245" d="M50.817 43.284H8.615l-.225-.724h42.427z" transform="translate(1.961 9.534)" fill="url(#linear-gradient-3)"/><path id="Path_29246" data-name="Path 29246" d="M44.54 4.21l-11.1 25.371 18.017 45.275h20.764z" transform="translate(8.189)" fill="url(#linear-gradient-4)"/></g></svg>