<svg xmlns="http://www.w3.org/2000/svg" width="96.677" height="65.88"><g id="Group_4281" data-name="Group 4281" transform="translate(-420.043 -214.823)" fill="#fecb00"><path id="Path_29259" data-name="Path 29259" d="M447.1 261a133.484 133.484 0 0124.732 1.751 35.054 35.054 0 0111.361 3.48c.8.44 1.174-.11 1.463-.674 1.153-2.251 2.271-4.521 3.4-6.783.656-1.31-.383-1.523-1.2-1.722a66.38 66.38 0 00-10.092-1.582c-9.49-.8-18.979-1.606-28.5-2-4.484-.188-8.965-.61-13.457-.618a2.723 2.723 0 01-2.747-1.822c-1.218-2.525-2.689-4.94-3.751-7.525-1.522-3.706-3.681-7.087-5.229-10.771-.436-1.038-.927-2.017-2.185-2.332-.987-.247-.873-1.128-.8-1.846.073-.765.777-.594 1.287-.648 5.358-.559 10.714-1.141 16.075-1.661 5.4-.524 10.814-.972 16.218-1.478 3.967-.372 7.93-.788 11.9-1.176q6.133-.6 12.267-1.181c4.669-.438 9.341-.856 14.011-1.288 5.133-.475 10.258-1.064 15.4-1.378a4.021 4.021 0 003.913-2.746c.52-1.266 1.369-2.262 2.876-2.177 2.432.138 3.236 1.713 2.3 3.973-3.728 8.985-8.644 17.356-13.256 25.885-2.4 4.435-4.62 8.987-7.315 13.236-1.9 3-3.328 6.253-5.367 9.162-1.726 2.461-.952 4.8 1.957 6.319 1.874.979 2.437 2.095 1.877 3.72a4.416 4.416 0 01-4.5 2.613c-1.788-.3-2.466-1.016-2.684-3.056-.473-4.449-3.219-7.632-7.285-9.372-6.42-2.746-13.29-3.478-20.176-4.132a214.961 214.961 0 00-22.073-.669c-.525 0-1.38.216-1.413-.592-.037-.908.836-.9 1.493-.9 3.166-.018 6.331-.01 9.5-.01zm-17.961-24.811c2.78-.247 4.847-.468 6.919-.61q18.476-1.262 36.954-2.487c9.793-.636 19.59-1.217 29.387-1.8a1.969 1.969 0 001.819-1.056c.758-1.382 1.563-2.738 2.366-4.094 1.073-1.813.613-2.681-1.514-2.768a59.449 59.449 0 00-8.086.512c-8.522.811-17.051 1.55-25.578 2.3-5.049.446-10.106.819-15.151 1.309-9.6.932-19.206 1.683-28.814 2.469-3.937.322-3.574-.009-2.005 3.3a.924.924 0 01.054.113c.667 2.171 1.443 3.03 3.646 2.814zm43.333 6.947v-.051c7.658 0 15.317-.021 22.975.025a2.122 2.122 0 002.055-1.272c1.238-2.16 2.51-4.3 3.771-6.447.23-.392.592-.8.384-1.255-.245-.536-.809-.288-1.236-.269-6.757.308-13.5.8-20.263 1.091-12.748.549-25.487 1.3-38.23 1.979-4.317.228-8.632.494-12.95.693-1.2.055-1.362.475-.821 1.465a23.291 23.291 0 011.39 2.92 1.8 1.8 0 002 1.271q10.162-.119 20.324-.144c6.862-.021 13.729-.004 20.598-.004zm-40.278 1.94c-.945-.044-1.057.034-.743.722.586 1.282 1.262 2.523 1.852 3.8a1.539 1.539 0 001.553.961c3.239.138 6.478.3 9.71.551 12.391.954 24.81 1.526 37.182 2.729a46.31 46.31 0 016.506.995c1.089.266 1.592.107 2.094-.817 1.252-2.3 2.574-4.57 3.85-6.861.187-.335.7-.635.417-1.058-.262-.395-.786-.383-1.257-.392-10.276-.206-20.55-.5-30.827-.611-10.112-.106-20.225-.023-30.338-.023"/><path id="Path_29260" data-name="Path 29260" d="M632.289 424.934c3.254.549 5.948 2.667 7.975 5.738a7.8 7.8 0 011.493 4.295 3.173 3.173 0 01-3.889 3.249c-4.275-.777-8.6-5.16-9.383-9.5-.385-2.116 1.115-3.834 3.804-3.782z" transform="translate(-156.282 -157.577)"/><path id="Path_29261" data-name="Path 29261" d="M500.661 410.817c2.962.037 6.454 4.1 6.07 7.06a2.01 2.01 0 01-2.692 1.626 7.945 7.945 0 01-5.524-6.163c-.345-1.61.475-2.54 2.146-2.523z" transform="translate(-58.794 -146.99)"/></g></svg>