<svg xmlns="http://www.w3.org/2000/svg" id="AlmaLinux" width="77.88" height="76.22"><defs><style>.cls-1{fill:#86da2f}.cls-2{fill:#24c2ff}.cls-3{fill:#ffcb12}.cls-4{fill:#0069da}.cls-5{fill:#ff4649}</style></defs><path id="path22" class="cls-1" d="M131.38 44.64a5.59 5.59 0 016.26 5.23 6 6 0 01-5.49 6.51 5.88 5.88 0 11-.77-11.74z" transform="translate(-59.78 -1.59)"/><path id="path24" class="cls-2" d="M91.06 71.82A5.72 5.72 0 0196.67 66a6.24 6.24 0 016 6 6 6 0 01-5.49 5.87c-3.7-.06-6.12-2.35-6.12-6.05z" transform="translate(-59.78 -1.59)"/><path id="path26" class="cls-3" d="M100.12 34.55c-.51.26-.77-.12-.9-.51-4.72-8.8-3.31-19.9 5-26.54 2.17-1.79 6.25-2.17 8-.38a3.18 3.18 0 011 2.29 10.1 10.1 0 001.92 5.36 6 6 0 005.23 2.17c1.78 0 3.57-.25 4.72 1.79.64 1.15.38 5.62-.64 6.51-.51.38-.89.13-1.27 0a16.83 16.83 0 00-9.06-.64c-1 .13-1.54-.13-1.54-1.28a11.26 11.26 0 00-1.49-5.32c-1.91-3.44-5.48-3.57-7.78-.38-1.92 2.55-2.43 5.62-2.94 8.68a35.76 35.76 0 00-.25 8.29z" transform="translate(-59.78 -1.59)"/><path id="path28" class="cls-1" d="M103.31 36.47a.69.69 0 01.25-1c7.28-6.64 18.12-7.91 26.55-1.41 2.17 1.79 3.57 5.49 2.42 7.66a3.16 3.16 0 01-1.91 1.53c-1.79.77-3.45 1.53-4.6 3.19a6.66 6.66 0 00-.89 5.62c.38 1.66 1 3.44-.64 5-.89.9-5.23 1.66-6.38.9-.51-.39-.38-.77-.25-1.28a17.7 17.7 0 00-1.54-8.93c-.38-1-.25-1.53.77-1.79a10.77 10.77 0 004.72-2.68c2.81-2.68 2.17-6.12-1.53-7.66-2.93-1.27-6-1-8.93-.76a33.19 33.19 0 00-8.04 1.61z" transform="translate(-59.78 -1.59)"/><path id="path30" class="cls-2" d="M101.65 39.79c.38-.39.64-.26 1 0 8.42 5.1 12.76 15.18 8.93 25-1 2.55-4.34 5.1-6.76 4.46a3.45 3.45 0 01-2-1.4 9.22 9.22 0 00-4.34-3.57 6.7 6.7 0 00-5.62.76c-1.53.9-3.06 2-5 .9-1.15-.64-3.07-4.6-2.68-5.87.25-.51.76-.51 1.27-.51a16.57 16.57 0 008.17-4.09 1.2 1.2 0 012 .26 11.08 11.08 0 004 3.7c3.32 1.91 6.51.25 6.89-3.57.38-3.2-.77-6-1.79-8.81a50.6 50.6 0 00-4.07-7.26z" transform="translate(-59.78 -1.59)"/><path id="path32" class="cls-4" d="M97.57 40.55a19 19 0 01-3.19 7.15c-4.6 6.89-11.23 9.7-19.4 8.93a6.26 6.26 0 01-5.62-5.1 3.13 3.13 0 01.77-2.53 10 10 0 002-3.57c.77-2.81-.25-5.1-2.3-7.15-2.8-2.8-2.42-5.35.9-7.4a13.61 13.61 0 011.4-.76c.77-.39 1.4-.39 1.66.51a15.76 15.76 0 006 6.89c.89.76.89 1.28.13 2.17a9.45 9.45 0 00-2.56 6 3.9 3.9 0 004.21 4.59 11.27 11.27 0 005-1.4 38.33 38.33 0 0010-8c.36-.2.49-.46 1-.33z" transform="translate(-59.78 -1.59)"/><path id="path34" class="cls-5" d="M76.64 13.75a12.3 12.3 0 011.53.26c4.72.89 7.66-.77 9.19-5.23 1-2.94 3.19-3.83 6-2.3.13 0 .13.13.26.13 2.93 1.66 2.93 1.91 1.15 4.46a14.84 14.84 0 00-2.68 6.77c-.26 1.4-.77 1.66-2 1.15a9.1 9.1 0 00-6.38 0A4 4 0 0081 24.35c1 3.19 3.82 4.59 6.25 6.25s5.23 2.55 7.91 3.7c.38.13 1 .13.89.76-.12.39-.63.39-1.14.39-5.75.25-11.23-.64-15.7-4.47-4.21-3.44-7.27-7.66-6.76-13.53a4.65 4.65 0 014.19-3.7z" transform="translate(-59.78 -1.59)"/><path id="path36" class="cls-4" d="M66.17 49.61a6 6 0 01-6.38-5.36A6.15 6.15 0 0165 37.87c3.32-.38 6.39 1.92 6.64 5s-1.77 6.49-5.47 6.74z" transform="translate(-59.78 -1.59)"/><path id="path38" class="cls-3" d="M119.77 4.18a6.2 6.2 0 016.51 5.49 6 6 0 01-11.87.89 5.88 5.88 0 015.36-6.38z" transform="translate(-59.78 -1.59)"/><path id="path40" class="cls-5" d="M86.46 6.61a5.94 5.94 0 01-11.74 1.78c-.38-3.7 1.66-6.38 5.11-6.76a6.09 6.09 0 016.63 4.98z" transform="translate(-59.78 -1.59)"/></svg>