<svg xmlns="http://www.w3.org/2000/svg" xmlns:xlink="http://www.w3.org/1999/xlink" id="Apache" width="174.59" height="66.37"><defs><linearGradient id="linear-gradient" x1="-7568.83" y1="-2554.68" x2="-7459.76" y2="-2427.73" gradientTransform="matrix(.04 -.08 .08 .04 515.67 -486.76)" gradientUnits="userSpaceOnUse"><stop offset="0" stop-color="#f59723"/><stop offset=".31" stop-color="#f69822"/><stop offset=".84" stop-color="#e87726"/></linearGradient><linearGradient id="linear-gradient-2" x1="-8375.09" y1="-2569.4" x2="-7598.75" y2="-2569.4" gradientTransform="matrix(.04 -.08 .08 .04 515.67 -486.76)" gradientUnits="userSpaceOnUse"><stop offset=".32" stop-color="#9c2063"/><stop offset=".63" stop-color="#c82037"/><stop offset=".75" stop-color="#cc2135"/><stop offset="1" stop-color="#e87726"/></linearGradient><linearGradient id="linear-gradient-3" x1="-8281.14" y1="-2492.15" x2="-7818.73" y2="-2492.15" gradientTransform="matrix(.04 -.08 .08 .04 515.67 -486.76)" gradientUnits="userSpaceOnUse"><stop offset="0" stop-color="#282661"/><stop offset=".1" stop-color="#662e8c"/><stop offset=".79" stop-color="#9e2064"/><stop offset=".95" stop-color="#cc2032"/></linearGradient><linearGradient id="linear-gradient-4" x1="-8331.55" y1="-2576.55" x2="-7555.21" y2="-2576.55" xlink:href="#linear-gradient-2"/><linearGradient id="linear-gradient-5" x1="-8274.72" y1="-2566.42" x2="-7866.85" y2="-2566.42" xlink:href="#linear-gradient-3"/><linearGradient id="linear-gradient-6" x1="-8331.55" y1="-2496.63" x2="-7555.21" y2="-2496.63" xlink:href="#linear-gradient-2"/><linearGradient id="linear-gradient-7" x1="-8379.67" y1="-2500.45" x2="-7603.33" y2="-2500.45" xlink:href="#linear-gradient-2"/><linearGradient id="linear-gradient-8" x1="-8331.55" y1="-2472.7" x2="-7555.21" y2="-2472.7" xlink:href="#linear-gradient-2"/><linearGradient id="linear-gradient-9" x1="-8331.55" y1="-2474.95" x2="-7555.21" y2="-2474.95" xlink:href="#linear-gradient-2"/><linearGradient id="linear-gradient-10" x1="-7895.26" y1="-2475.52" x2="-7723.86" y2="-2475.52" xlink:href="#linear-gradient-2"/><style>.cls-10,.cls-3{fill:#bd202e}.cls-10{isolation:isolate;opacity:.35}</style></defs><path d="M41.13 6.2a24.66 24.66 0 00-4.87 4.88l1.91 3.58a48.6 48.6 0 014-5.07l.16-.17-.16.17a42.2 42.2 0 00-3.82 5.15c2-.1 4.94-.5 7.42-.91.73-4.07-.72-5.92-.72-5.92s-1.84-3-4-1.69z" transform="translate(-12.71 -5.9)" fill="url(#linear-gradient)"/><path d="M37.88 26.63h-.28zM36 33.05l-.47.09zM22.7 47.41l.06-.16c.42-1.1.83-2.17 1.24-3.21s.92-2.31 1.38-3.41.94-2.27 1.4-3.36 1-2.23 1.44-3.28c.38-.85.75-1.68 1.12-2.49.13-.27.25-.53.38-.79q.36-.78.72-1.53c.22-.46.43-.91.65-1.35.08-.15.15-.29.22-.44a.25.25 0 010-.07h-.24l-.15-.32a.37.37 0 01-.05.11c-.33.67-.67 1.33-1 2l-.56 1.17c-.53 1.09-1 2.19-1.54 3.29s-1 2.24-1.51 3.37-1 2.21-1.41 3.31-.91 2.2-1.35 3.29-.91 2.27-1.34 3.38l-.29.75q-.53 1.35-1 2.67l.29.57h.27a.24.24 0 000-.08c.43-1.2.85-2.32 1.27-3.42z" transform="translate(-12.71 -5.9)" fill="none"/><path class="cls-3" d="M34.72 36.27l-.72.13.39-.06z" transform="translate(-12.71 -5.9)"/><path d="M34.72 36.27l-.72.13.39-.06z" transform="translate(-12.71 -5.9)"/><path class="cls-3" d="M35.37 33.16h.12c.16 0 .32 0 .47-.09z" transform="translate(-12.71 -5.9)"/><path d="M35.37 33.16h.12c.16 0 .32 0 .47-.09z" transform="translate(-12.71 -5.9)"/><path d="M32.55 23.91c.58-1.08 1.17-2.14 1.76-3.16s1.24-2.09 1.87-3.09c0-.06.08-.12.11-.18.62-1 1.25-1.92 1.88-2.82l-1.9-3.58-.43.53c-.56.68-1.12 1.41-1.71 2.19s-1.34 1.82-2 2.8-1.28 1.86-1.93 2.84-1.1 1.7-1.65 2.58l-.06.1L30.94 27c.53-1 1.06-2.09 1.61-3.09z" transform="translate(-12.71 -5.9)" fill="url(#linear-gradient-2)"/><path d="M21.23 51.37c-.33.89-.66 1.81-1 2.74l-.13.4c-.23.63-.42 1.2-.87 2.48a5.06 5.06 0 011.88 2.2 3.91 3.91 0 00-1.3-2.73c3.61.16 6.72-.75 8.31-3.37a7.37 7.37 0 00.39-.74c-.73.92-1.64 1.31-3.34 1.22a9.62 9.62 0 004.87-4c.26-.42.52-.88.78-1.39a7.85 7.85 0 01-7.42 2.39l-2 .22c-.06.17-.12.34-.19.51z" transform="translate(-12.71 -5.9)" fill="url(#linear-gradient-3)"/><path d="M22.2 46.91c.43-1.11.88-2.24 1.33-3.38s.89-2.19 1.36-3.29.93-2.2 1.41-3.31 1-2.25 1.5-3.36 1-2.21 1.54-3.29c.19-.39.38-.79.57-1.17.33-.68.66-1.34 1-2A.37.37 0 0131 27l-2.49-4.88a2.12 2.12 0 01-.12.2c-.58.94-1.15 1.9-1.72 2.88s-1.13 2-1.68 3-.99 1.8-1.4 2.64c-.08.18-.17.36-.26.53q-.81 1.66-1.47 3.21c-.5 1.16-.94 2.28-1.33 3.33q-.37 1.05-.69 2c-.18.55-.34 1.1-.5 1.65-.37 1.29-.69 2.58-.95 3.88l2.49 4.92q.5-1.32 1-2.67l.3-.75z" transform="translate(-12.71 -5.9)" fill="url(#linear-gradient-4)"/><path d="M18.33 45.61a37.6 37.6 0 00-.65 4.68v.16A9.6 9.6 0 0014.81 48a13.65 13.65 0 012.79 6.37 6.37 6.37 0 01-3.15-.53 6.48 6.48 0 002.7 1.63 7.7 7.7 0 00-3.75 1.85 8.11 8.11 0 014.44-.81c-1.7 4.8-3.41 10.1-5.13 15.75a1.52 1.52 0 001-1c.3-1 2.32-7.72 5.48-16.48.1-.25.19-.5.28-.75a1.8 1.8 0 01.08-.21c.33-.92.68-1.86 1-2.82l.24-.66-2.5-4.92v.17z" transform="translate(-12.71 -5.9)" fill="url(#linear-gradient-5)"/><path d="M31.31 27.4l-.21.44c-.22.44-.43.89-.66 1.35s-.48 1-.72 1.53l-.37.79c-.37.81-.75 1.64-1.13 2.49-.47 1-.95 2.15-1.43 3.28s-.94 2.2-1.41 3.36-.91 2.24-1.37 3.41-.83 2.11-1.25 3.22l-.06.15c-.42 1.1-.84 2.22-1.26 3.38a.19.19 0 000 .08l2-.22h-.12A14.24 14.24 0 0031 46.34a18.87 18.87 0 002.6-3.62 29.72 29.72 0 001.69-3.48c.46-1.12.91-2.33 1.34-3.64a7.57 7.57 0 01-1.88.65l-.38.07a2.32 2.32 0 01-.38.06 8.74 8.74 0 004.68-4.54A8 8 0 0135.93 33l-.47.08h-.12a8.83 8.83 0 002-1.11c.12-.09.24-.18.35-.28l.5-.47.29-.33a8.3 8.3 0 00.63-.86c.05-.09.12-.18.17-.28l.22-.42c.31-.62.56-1.19.76-1.67.1-.25.18-.47.26-.69l.09-.24c.08-.24.14-.44.19-.63s.12-.49.15-.65a1.78 1.78 0 01-.27.17 9.12 9.12 0 01-2.77.94l1.85-.2-1.85.2h-.28l-6.29.69v.06z" transform="translate(-12.71 -5.9)" fill="url(#linear-gradient-6)"/><path d="M38.43 14.73c-.57.85-1.18 1.82-1.84 2.93a1.51 1.51 0 00-.1.17c-.57 1-1.18 2-1.82 3.15C34.12 22 33.55 23 33 24.17c-.52 1-1.05 2-1.61 3.17l6.3-.69A7.67 7.67 0 0041.11 24a37.042 37.042 0 002.48-4.17A32 32 0 0045 16.72a15.48 15.48 0 00.56-1.66 10.86 10.86 0 00.27-1.25 71.44 71.44 0 01-7.41.92z" transform="translate(-12.71 -5.9)" fill="url(#linear-gradient-7)"/><path class="cls-3" d="M34.33 36.35l-.39.06z" transform="translate(-12.71 -5.9)"/><path class="cls-10" d="M34.33 36.35l-.39.06z" transform="translate(-12.71 -5.9)"/><path d="M34.33 36.35l-.39.06z" transform="translate(-12.71 -5.9)" fill="url(#linear-gradient-8)"/><path class="cls-3" d="M35.37 33.16h.12z" transform="translate(-12.71 -5.9)"/><path class="cls-10" d="M35.37 33.16h.12z" transform="translate(-12.71 -5.9)"/><path d="M35.37 33.16h.12z" transform="translate(-12.71 -5.9)" fill="url(#linear-gradient-9)"/><path d="M125.67 52.59c-.38-.07-1.84-.44-2.07-.53a24.58 24.58 0 01-2.6-1.32c-.29-.24-.33-.27-.86-.66a13.84 13.84 0 01-2-2c-.17-.22-.35-.46-.41-.52l-.2-.26a22.57 22.57 0 01-1.16-2s-.11-.28-.24-.57-.32-.76-.42-1-.21-.6-.26-.71a18.38 18.38 0 01-.51-2.36 19.54 19.54 0 010-3.67 12.92 12.92 0 011.22-4.13 2.33 2.33 0 00.2-.53c0-.07 0-.12.1-.12a.12.12 0 00.1-.13 6.21 6.21 0 01.63-1.07 16.64 16.64 0 012.66-2.93 13.53 13.53 0 013.61-2l.8-.25a11.26 11.26 0 012.74-.33 13 13 0 014.61.57 6.7 6.7 0 011.82.83.14.14 0 00.13.07 8.29 8.29 0 012.05 1.55 8.79 8.79 0 011.74 2.29c.26.51.27.54.09.66l-.3.21-.37.23-.73.44c-.52.32-.72.29-.88-.11a8.44 8.44 0 00-3.74-3.5 9.08 9.08 0 00-3.9-.76 9 9 0 00-3.93.75 8.56 8.56 0 00-1.58.93.37.37 0 01-.2.13 12.16 12.16 0 00-1.73 1.7 13 13 0 00-1.69 3c-.09.28-.2.6-.25.71a12.52 12.52 0 00-.52 4.91 11.2 11.2 0 00.52 2.65 3.9 3.9 0 01.16.45 13.2 13.2 0 001.62 3 17.82 17.82 0 001.83 1.9 14.71 14.71 0 002.15 1.34 1.16 1.16 0 01.33.14 9.92 9.92 0 001.17.37 6.67 6.67 0 002.27.23 8.47 8.47 0 004.77-1.28 10.28 10.28 0 003.05-3 2 2 0 01.45-.63 9.68 9.68 0 012.17 1.18 6.1 6.1 0 01-.7 1.34.74.74 0 00-.19.27 11.33 11.33 0 01-2.4 2.32 14.25 14.25 0 01-3 1.54 10.27 10.27 0 01-4 .65h-2.07zm-80.87-.14a.68.68 0 01.1-.28c.05-.1.19-.4.31-.68s.25-.59.3-.7l.71-1.66c.34-.81.66-1.56.71-1.67s.21-.49.35-.85.3-.75.36-.86l.3-.7.36-.83a1.93 1.93 0 00.15-.38 10.45 10.45 0 01.5-1.21l.36-.86c.14-.36.3-.75.35-.86l.36-.85c.14-.36.3-.75.35-.86s.19-.43.3-.7l.31-.71c.05-.11.3-.7.55-1.31l.56-1.31c0-.11.28-.65.51-1.21l.51-1.2c0-.11.25-.59.44-1.06 1.09-2.64 1.34-3.23 1.59-3.77 0-.11.2-.5.35-.86s.35-.85.46-1.08l.2-.43h2.2l.23.53c.28.65.59 1.37.71 1.63a10.62 10.62 0 01.51 1.21 11.29 11.29 0 00.56 1.33 1.93 1.93 0 01.15.38 9.33 9.33 0 00.5 1.21 10.62 10.62 0 01.51 1.21 3.13 3.13 0 00.21.54l.36.82c.08.2.19.45.24.56s.21.49.35.85.3.75.35.86l.72 1.66.71 1.65c.05.11.16.39.25.61.93 2.28 1.3 3.16 1.42 3.43l.55 1.31.51 1.21c0 .11.19.43.3.7l.31.71c0 .11.21.49.35.86l.36.85a29.27 29.27 0 011.11 2.72c0 .12-.25.15-1.46.15-1.43 0-1.46 0-1.53-.23s-.3-.77-.55-1.33l-.36-.86c-.25-.61-.45-1.09-.66-1.56 0-.11-.21-.5-.35-.86l-.36-.85c-.3-.68-.5-1.16-.5-1.21a4 4 0 00-.19-.49c-.11-.23-.25-.57-.33-.75l-.14-.32h-12l-.2.48c-.11.26-.33.79-.48 1.18l-.47 1.13a2.77 2.77 0 00-.19.48 11.79 11.79 0 01-.51 1.21c-.05.11-.21.5-.35.86l-.36.85c0 .11-.26.61-.46 1.11l-.42 1a9.27 9.27 0 01-3 0zm17.78-10.59a7.92 7.92 0 00-.58-1.37 1.93 1.93 0 01-.15-.39 1.68 1.68 0 00-.14-.38c-.09-.18-.41-1-.72-1.74s-.6-1.5-.65-1.61-.31-.75-.56-1.41-.51-1.3-.56-1.41L59 33c-.08-.2-.25-.57-.36-.83a3.1 3.1 0 01-.21-.55 1.27 1.27 0 00-.13-.34c-.07-.14-.24-.54-.38-.9s-.3-.77-.37-.91a1.21 1.21 0 01-.13-.38c0-.21-.19-.14-.26.1s-.13.37-.2.53-.33.76-.55 1.31-.56 1.33-.72 1.72l-1.91 4.59L52 41.59l-.16.37h5.37a51 51 0 005.37-.1zM72.52 39V25.55h5.64c5.9 0 7 .05 7.91.4a10.45 10.45 0 011.9.93c.07.07.29.24.47.38a9.09 9.09 0 013 4.69 9.49 9.49 0 01-.44 5.74 8.15 8.15 0 01-5 4.68c-.45.13-1.34.16-5.63.19h-5.09v10h-2.77V39zm12 1a5.3 5.3 0 004.13-3.88 9.64 9.64 0 00.11-3.68 6.11 6.11 0 00-1.62-2.88 6.71 6.71 0 00-1-.85 3.36 3.36 0 01-.35-.21 3.9 3.9 0 00-.51-.25c-.42-.18-.77-.2-5.24-.23h-4.79v12.1h4.24c2.49 0 4.58 0 5-.11zm5.67 12.42a4.39 4.39 0 01.35-1c.21-.5.78-1.85 1.26-3s.93-2.24 1-2.41.32-.76.56-1.31c.4-1 .62-1.48.81-1.92 0-.11.27-.65.5-1.21l.55-1.3c.08-.17.37-.87.66-1.57s.66-1.57.82-2c.34-.82 1.49-3.53 1.62-3.82.05-.11.21-.5.35-.86l.36-.86c0-.11.19-.42.3-.7s.29-.65.37-.82a1.88 1.88 0 00.14-.39 11.61 11.61 0 01.51-1.21 37 37 0 00.71-1.72 5.86 5.86 0 01.33-.73c.07-.08.43-.12 1.19-.12h1.09l.13.33c.26.65 1.43 3.39 1.71 4.06 0 .11.28.65.5 1.21l.51 1.2c0 .12.44 1 .86 2.08s.81 2 .86 2.05l.62 1.46c.68 1.64 1.4 3.32 1.51 3.57s.19.43.3.71l.31.7c0 .11.21.5.35.86.25.61.45 1.09.66 1.56l.36.86c.14.36.33.8.41 1a1.88 1.88 0 01.14.39 7 7 0 00.31.72 6.13 6.13 0 01.3.71 2.69 2.69 0 00.15.37c.08.17.26.61.41 1s.3.74.35.85a7.71 7.71 0 01.51 1.26 8.83 8.83 0 01-2.9 0c-.06-.07-.51-1.1-1-2.29s-.95-2.3-1-2.47l-.4-1c-.14-.36-.3-.74-.35-.85-.14-.31-.46-1.07-.61-1.44l-.13-.33-12 .06-.6 1.46-.7 1.69a2 2 0 00-.1.28s-.22.56-.51 1.2c0 .11-.21.49-.35.85l-.4 1-.47 1.14-.34.83h-1.42a7.33 7.33 0 01-1.44-.08zm17.61-10.55s-.35-.91-.65-1.61a26 26 0 01-.37-1 8.2 8.2 0 00-.37-.9 1.27 1.27 0 01-.13-.34 9.72 9.72 0 00-.5-1.22l-.36-.86c-.15-.36-.32-.79-.4-1s-.21-.53-.32-.8-.24-.62-.31-.76a1.27 1.27 0 01-.13-.34 2.18 2.18 0 00-.15-.4c-.08-.17-.32-.75-.52-1.27s-.45-1.14-.55-1.36l-.32-.73c-.17-.41-.29-.38-.46.13-.07.22-.18.49-.23.6l-.31.7c-.12.28-.25.6-.31.71s-1.18 2.8-2.54 6.05L98.29 39c-.05.11-.28.65-.5 1.21s-.48 1.15-.57 1.33-.15.36-.15.38 2.42 0 5.37 0 5.37 0 5.37-.06zm34 10.5V25.55h2.63v12h15.9v-12h2.73v27h-2.73V40h-15.9l-.06 12.54h-1.29c-1 0-1.31 0-1.34-.1zM169.21 39V25.54H187v2.52h-15.1v9.46h13.16v2.42h-13.17V50h15.4v2.52h-18.12z" transform="translate(-12.71 -5.9)" fill="#a00"/></svg>