<svg xmlns="http://www.w3.org/2000/svg" width="30.185" height="80.98"><g id="Group_4282" data-name="Group 4282" transform="translate(-214.488 -230.099)" fill="#698fb8"><path id="Path_29267" data-name="Path 29267" d="M214.488 291.541c6.784-.77 12.734-.993 18.5.035 4.742.845 8.823 3.288 10.09 8.775 1.494 6.469-1.69 10.492-6.7 13.72 8.412 6.081 10.109 11.671 6.507 19.182-2.565 5.35-7.443 6.128-12.228 6.722a60.7 60.7 0 01-16.173-.228v-48.206zm6.366 25.972c0 5.053.022 9.772-.01 14.49-.015 2.352 1 3.515 3.429 3.388 2.632-.138 5.241.111 7.862-.784 4.1-1.4 6.211-3.9 6.276-8.351.064-4.486-2.113-7-6.144-8.4a20.071 20.071 0 00-11.413-.342zm-.012-20.6c0 4.1-.012 7.867.006 11.64.008 1.8.243 3.512 2.592 3.617 3.423.153 6.865.109 9.932-1.647a7.23 7.23 0 003.726-8.174c-.629-3.273-2.655-5.522-6.053-5.866-3.145-.316-6.353-.799-10.203.432z" transform="translate(0 -29.331)"/><path id="Path_29268" data-name="Path 29268" d="M238.511 260.926l-2.355-.157c.38-4.5.38-4.5 10-14.328-7.634-8.827-10.506-15.543-9.233-22.343a58.549 58.549 0 0113.27 18.243c2.907.335 2.744-3.162 5.236-3.525.294 4.313-2.824 6.307-5.583 8.385-4.896 3.684-10.836 6.436-11.335 13.725z" transform="translate(-10.771 6)"/></g></svg>