<svg xmlns="http://www.w3.org/2000/svg" width="81.187" height="81.211"><g id="buddypress" transform="translate(-.502 -.483)"><path id="Path_29264" data-name="Path 29264" d="M80.537 40.863A39.643 39.643 0 1140.893 1.22a39.643 39.643 0 0139.644 39.643z" transform="translate(.201 .198)" fill="#fff"/><path id="Path_29265" data-name="Path 29265" d="M37.694.517A40.8 40.8 0 00.778 35.746a51.454 51.454 0 000 10.643 40.671 40.671 0 0080.644-.1 52.659 52.659 0 000-10.58A40.811 40.811 0 0046.8.8a75.343 75.343 0 00-9.106-.283zM46.8 2.636a38.806 38.806 0 01-1.459 76.978 54.42 54.42 0 01-8.385 0 42.7 42.7 0 01-6.927-1.408A38.819 38.819 0 012.821 34.515 36.891 36.891 0 016.309 23.9 38.641 38.641 0 0128.89 4.209a39.935 39.935 0 019.514-1.9 55.629 55.629 0 018.4.33z" fill="#d84800"/><path id="Path_29266" data-name="Path 29266" d="M37.332 5.128A34.861 34.861 0 006.886 28.812a35.888 35.888 0 00-.876 18.776A34.988 34.988 0 0030.8 73.391a28.632 28.632 0 009.045 1.078 28.747 28.747 0 009.055-1.078 34.772 34.772 0 0025.473-29.33 47.433 47.433 0 00-.14-9.768 34.962 34.962 0 00-36.9-29.165zm12.14 7.272a12.115 12.115 0 019.007 7.954A8.753 8.753 0 0159 23.637a9.413 9.413 0 01-.241 3.26 12.064 12.064 0 01-6.859 8.182 6.077 6.077 0 01-1.979.609s.216-.52.495-1.078a14.386 14.386 0 00-6.343-19.359 15.312 15.312 0 00-2.055-.863l-1.04-.33c-.3-.1 1.142-.875 2.613-1.269a12.077 12.077 0 015.886-.393zm-8.994 4.224a12.064 12.064 0 018.88 9.489 14.563 14.563 0 01-.292 5.442 11.8 11.8 0 01-6.566 7.482 10.8 10.8 0 01-4.96 1.028 11.747 11.747 0 01-11.334-8.335 7.916 7.916 0 01-.457-3.438 9.527 9.527 0 01.317-3.273 12.217 12.217 0 019.489-8.614 16.631 16.631 0 014.922.216zM59 36.919c4.453 1.408 7.168 4.808 8.373 10.517a34.989 34.989 0 01.545 6.1c-.089.2-.444.228-2.7.228a20.07 20.07 0 01-2.613-.089 30.523 30.523 0 00-.863-4.643c-1.472-4.935-4.668-8.715-8.411-9.768-.343-.114-.634-.254-.634-.317a8.4 8.4 0 011.078-1.332l1.066-1.205 1.56.089a10.605 10.605 0 012.563.457zM33.742 44.5l3.806 3.806 1.357-1.345c.761-.71 2.715-2.613 4.364-4.237l2.93-2.88 1.1.14a14.475 14.475 0 018.106 3.73 15.312 15.312 0 014.567 9.362 39.543 39.543 0 01.127 6.711l-.089.457H37.535c-15.908 0-22.517 0-22.581-.152a30.992 30.992 0 01-.089-6.039C15.741 45.761 20.257 40.8 27.691 40c1.446-.165.825-.66 6.051 4.5z" transform="translate(1.25 1.225)" fill="#d84800"/></g></svg>