<svg xmlns="http://www.w3.org/2000/svg" width="71.107" height="70.964"><g id="Cachet" transform="translate(40 315)"><g id="Icon" transform="translate(-40 -315)"><g id="Oval-1"><path id="Path_29269" data-name="Path 29269" d="M-5.182-244.036c-19.2 0-34.818-15.917-34.818-35.482S-24.381-315-5.182-315a34.316 34.316 0 0117.273 4.667l1.632.952-3.135 3.2-.984-.558a30.019 30.019 0 00-14.785-3.9c-16.81 0-30.486 13.962-30.486 31.122S-21.992-248.4-5.182-248.4 25.3-262.357 25.3-279.518a31.639 31.639 0 00-1.7-10.282l-.294-.859 3.354-3.421.8 2.192a35.959 35.959 0 012.173 12.366c.003 19.569-15.617 35.486-34.815 35.486z" transform="translate(40 315)" fill="#7dd322"/></g><g id="Line" transform="translate(12.753 1.776)"><path id="Path_29270" data-name="Path 29270" d="M26.084-265.711l.2-.2 39.5-40.286 1.527-1.557 3.053 3.114-1.527 1.557-39.5 40.283-.2.2-3.053 3.114-1.527-1.557-11.021-11.237-1.527-1.557 3.053-3.115 1.527 1.557 9.495 9.684z" transform="translate(-12.009 307.757)" fill="#7dd322" fill-rule="evenodd"/></g></g></g></svg>