<svg xmlns="http://www.w3.org/2000/svg" id="cake-logo" width="75.029" height="58.553"><g id="Group_4287" data-name="Group 4287" fill="#d33c44"><path id="Path_29291" data-name="Path 29291" d="M37.509 23.429l29.345 7.285c5.107-1.993 8.175-4.535 8.175-7.285V11.711C75.029 5.252 58.228 0 37.509 0S0 5.252 0 11.711v11.718c0 6.462 16.792 11.706 37.509 11.706z"/><path id="Path_29292" data-name="Path 29292" d="M45.15 22.1L15.8 14.806v11.709l29.35 7.295c5.109-2 8.178-4.535 8.178-7.295V14.806c0 2.76-3.068 5.292-8.178 7.292" transform="translate(21.701 20.33)"/><path id="Path_29293" data-name="Path 29293" d="M0 14.806v11.711c0 6.464 16.792 11.706 37.509 11.706V26.517C16.792 26.517 0 21.27 0 14.806" transform="translate(0 20.33)"/></g></svg>