<svg xmlns="http://www.w3.org/2000/svg" id="centos" width="77.47" height="77.47"><defs><style>.cls-5{fill:#fff}</style></defs><path d="M96.5 45.8l2.79-2.8 2.79 2.81v19.71h9.28l-12.07 12-11.87-12h9.08V45.8zM72.8 13.16h24v24h-24v-24z" transform="translate(-60.6 -.96)" fill="#9ccd2a"/><path d="M93.23 36.87L96 39.65l-2.8 2.79H73.51v9.28l-12-12.07 12-11.86v9.08zm8.67-23.71h24v24h-24z" transform="translate(-60.6 -.96)" fill="#932279"/><path d="M102.16 33.59l-2.78 2.8-2.79-2.8V13.87h-9.28l12.07-12 11.86 12h-9.08v19.72zm-.26 8.67h24v24h-24v-24z" transform="translate(-60.6 -.96)" fill="#efa724"/><path d="M105.44 42.52l-2.81-2.78 2.81-2.74h19.72v-9.33l12 12.07-12 11.86v-9.08zm-32.64-.26h24v24h-24v-24z" transform="translate(-60.6 -.96)" fill="#262577"/><path class="cls-5" d="M71.94 12.3h25.68V38H71.94zm1.71 24h22.26V14H73.65v22.27zm27.4-24h25.67V38h-25.67V12.3zm1.71 24H125V14h-22.24zm-1.71 5.14h25.67v25.65h-25.67V41.41zm1.71 24H125V43.12h-22.24zm-30.82-24h25.68v25.65H71.94V41.41zm1.71 24h22.26V43.12H73.65v22.25z" transform="translate(-60.6 -.96)"/><path class="cls-5" d="M78.75 57.85L60.6 39.69l18.15-18.15 18.16 18.15-18.15 18.16zM63 39.69l15.75 15.74 15.74-15.74L78.75 24zm36.31-2.42L81.18 19.12 99.33 1l18.16 18.16-18.16 18.11zM83.6 19.12l15.73 15.73 15.74-15.73L99.33 3.38zm36.31 38.73l-18.16-18.16 18.16-18.15 18.16 18.15-18.16 18.16zm-15.74-18.16l15.74 15.74 15.74-15.74L119.91 24zm-4.84 38.74L81.18 60.27l18.15-18.15 18.16 18.15-18.16 18.16zM83.6 60.27L99.33 76l15.74-15.74-15.74-15.72z" transform="translate(-60.6 -.96)"/></svg>