<svg xmlns="http://www.w3.org/2000/svg" width="85" height="85"><g id="cmsmadesimple" transform="translate(-.5 -.41)"><circle id="Ellipse_906" data-name="Ellipse 906" cx="42.5" cy="42.5" r="42.5" transform="translate(.5 .41)" fill="#e6ac21"/><path id="Path_29294" data-name="Path 29294" d="M46.112 10a12.54 12.54 0 018.519 7.447 6.111 6.111 0 010 2.5l-4.484-.582c-.2 1.773-1.6 1.521-2.844 1.548-.833 0-1.773-.212-1.984 1.085 0 .2-.728.4-1.138.423-.886.093-1.733 0-2.421.833a2.646 2.646 0 01-1.693.608c-1.019.066-1.323.582-1.323 1.495a44.71 44.71 0 015.092-1.257 35.185 35.185 0 016.019-.2 8.585 8.585 0 012.91.913 6.429 6.429 0 013.968 6.23A14.947 14.947 0 0152.1 42.381c-1.019 1.111-1.773.992-2.355-.437a14.154 14.154 0 01-.542-2.553c-2.646.648-3.122-1.243-3.492-2.87-.86-.106-1.508-.159-2.143-.265a1.482 1.482 0 01-1.323-1.627c0-.661 0-1.508-1.4-1.124a26.455 26.455 0 00.661 3.2 62.831 62.831 0 012.831 17.2c0 1.746-.238 2.143-1.9 2.646a6.958 6.958 0 01-4.484.212 1.9 1.9 0 01-1.495-2.355 75.172 75.172 0 001.058-8.6 45.054 45.054 0 00-.6-8.955c-.278-1.534-1.521-2.9-2.328-4.339l-.661.265c.132.423.225.847.384 1.323.6 1.508 1.2 3.016 1.839 4.59-1.323.529-1.984 1.614-3.373 1.323a2.116 2.116 0 00-.5 1.138c0 .714 0 1.323-.992 1.323-.265 0-.661.437-.754.754-.489 1.495-1.177 2.646-2.937 2.95-.886.132-1.23.833-1.4 1.68-.066.331-.45.6-.661.9a3.757 3.757 0 01-.78-.661c-3.307-5.291-3.135-14.55 2.288-18.955a4.669 4.669 0 00.833-1.2l-.37-.357-2.646 1.64L24.193 28l-2.844 1.971c-1.323-1.1-1.323-1.1-2.368.159-.437.5-.833 1.019-1.257 1.508-1.323 1.561-1.878 1.574-3.36-.106-.992 1.323-1.9 2.566-2.937 3.77a5.833 5.833 0 01-1.427.981v-6.441a23.148 23.148 0 015.291-8.2 9.775 9.775 0 017.659-2.95 10.371 10.371 0 017.844 3.208c.661.7 1.323 1.323 1.984 1.984a8.268 8.268 0 001.032.661 4.96 4.96 0 00.291-.886c.357-3.267 2.064-5.952 3.743-8.638A11.363 11.363 0 0146.112 10z" transform="translate(3.066 3.072)" fill="#fff"/><path id="Path_29295" data-name="Path 29295" d="M35.185 38.911c-.291 2.434-.516 4.431-.794 6.415-.5 3.492.661 4.524 4.63 4.881a12.553 12.553 0 004.63-.952 3 3 0 002.156-3.386c-.2-2.381-.317-4.749-.476-7.341 1.442 0 2.791-.066 4.127 0a54.233 54.233 0 0117.765 3.36 19.034 19.034 0 014.471 2.566c2.434 1.918 2.553 4.193.3 6.363a18.373 18.373 0 01-4.114 2.9 50.411 50.411 0 01-16.68 4.89 76.443 76.443 0 01-27.315-.476 40.371 40.371 0 01-9.656-3.347c-4.974-2.513-5.053-5.913-.476-9.154a34.392 34.392 0 0112.067-4.92c2.989-.661 6.045-1.151 9.365-1.8z" transform="translate(3.199 12.27)" fill="#fff"/></g></svg>