<svg xmlns="http://www.w3.org/2000/svg" id="_.co" data-name=".co" width="176.09" height="75.55"><g id="Layer_2" data-name="Layer 2"><path d="M185.39 39.87c.25 21.44-16.84 37.9-37.71 37.9-20.32 0-38.65-16.34-37.53-40a37.65 37.65 0 0175.24 2.11zM147.74 21c-10.32-.31-19.26 8.77-19.14 19.14a19.2 19.2 0 0038.4-.18c0-10.15-8.82-19.41-19.26-18.96zm-41.38 24.09a38.62 38.62 0 01-4.36 13.3 36.9 36.9 0 01-29.63 19.07 36.69 36.69 0 01-23.86-5.78c-8.57-5.53-14.29-13.29-16.21-23.42a49.5 49.5 0 01-.75-12.86 34.54 34.54 0 017.27-18.14A36.9 36.9 0 0163.05 2.72a36.63 36.63 0 0129.64 8 37 37 0 0113.42 22.74c.19 1 .06 1.55-1 1.55-4.47 0-8.94.25-13.42-.93-3.85-1.05-6.08-3.85-8.38-6.65a17.55 17.55 0 00-9.7-6 18.71 18.71 0 00-14.72 2.42A19.07 19.07 0 0050.19 37a17.62 17.62 0 003.17 14c7 9.7 20.44 11 28.77 2.86a30.14 30.14 0 002.92-3.29c2.67-3.54 6.52-5 10.62-5.35 3.48-.38 7.02-.13 10.69-.13zM26.89 64.85c.56 4.6-4 9-8.76 8.76a8.86 8.86 0 01.06-17.71h.31c4.97.25 8.39 3.67 8.39 8.95z" transform="translate(-9.31 -2.23)" fill="#f06f30" id="Layer_1-2" data-name="Layer 1-2"/></g></svg>