<svg xmlns="http://www.w3.org/2000/svg" id="_.co.uk" data-name=".co.uk" width="131.31" height="72.26"><path d="M54.83 63.15a8 8 0 01-7 .29 7.58 7.58 0 01-2.42-1.86 7.88 7.88 0 01-1.69-2.46 8.5 8.5 0 01-.65-3.34 9.59 9.59 0 01.61-3.35 7.91 7.91 0 011.73-2.82 8.3 8.3 0 012.5-1.81 7.8 7.8 0 016.89.32 16.07 16.07 0 012.86 2.34l2.18-2.3a17.14 17.14 0 00-1.57-1.73 10.72 10.72 0 00-4.27-2.1 11.43 11.43 0 00-2.86-.28 10.76 10.76 0 00-4.47.89 11 11 0 00-3.55 2.54 11.81 11.81 0 00-2.38 12.45 11.16 11.16 0 0010.32 7.25 10.55 10.55 0 005.2-1.2A14 14 0 0060 62.87l-2.26-2a12.58 12.58 0 01-2.94 2.29m26-7.57a8.44 8.44 0 01-.57 3.3 10.52 10.52 0 01-1.65 2.7A8.34 8.34 0 0176 63.44a8.67 8.67 0 01-6.49 0A8.17 8.17 0 0167 61.58a8.61 8.61 0 01-1.73-2.74 9.54 9.54 0 01-.61-3.34 9.38 9.38 0 01.61-3.31 8.72 8.72 0 011.61-2.7 7.5 7.5 0 012.54-1.85 8.06 8.06 0 016.49 0 8.26 8.26 0 012.58 1.85 8.83 8.83 0 011.73 2.74 9.82 9.82 0 01.61 3.39zm0-8.06a10.81 10.81 0 00-3.63-2.46 11.63 11.63 0 00-9.15 0 11.15 11.15 0 00-6 6 11.63 11.63 0 002.38 12.5 12.27 12.27 0 003.6 2.49 11.85 11.85 0 004.55.92 11.31 11.31 0 008.06-3.42A11.55 11.55 0 0083 59.85 12 12 0 0083 51a10.38 10.38 0 00-2.21-3.58zM33.63 59.61a2.7 2.7 0 10.16-.08m58.44 0a3.63 3.63 0 00-3.83 3.34v.28a3.63 3.63 0 103.71-3.62m46.51 7.25l-5.92-9.35-2.26 2.38v7H124V35.43h6.45V52l7.74-8.3h7.65l-8.66 9.07 9 13.9zM129 3.1a36 36 0 00-28.21 58 12 12 0 01-.81-4.35v-13h6.41v11.34c0 3.67.6 5.44 3.59 5.44s3.7-1.81 3.7-5.4V43.77H120v13.06a9.07 9.07 0 01-8 10 9.57 9.57 0 01-2.14 0 11.72 11.72 0 01-5.24-1.09 35.5 35.5 0 0024.19 9.64 36 36 0 000-72z" transform="translate(-32.22 -3.1)" fill="#002b49" fill-rule="evenodd"/></svg>