<svg xmlns="http://www.w3.org/2000/svg" id="_.com" data-name=".com" width="179.5" height="43.8"><defs><linearGradient id="linear-gradient" x1="20.06" y1="983.99" x2="20.06" y2="1002.38" gradientTransform="translate(-10.87 -970.86)" gradientUnits="userSpaceOnUse"><stop offset="0" stop-color="#6ec5f2"/><stop offset="1" stop-color="#128cd5"/></linearGradient></defs><path d="M79.14 45a21.6 21.6 0 110-9.42H66.87a9.07 9.07 0 00-8.7-5.58 8.58 8.58 0 00-6.93 2.81 11.32 11.32 0 00-2.63 7.39 9.43 9.43 0 008.61 10.1h.91a9.07 9.07 0 008.74-5.3zm2.45-5a21.65 21.65 0 1121.92 21.4h-.27a21 21 0 01-21.65-20.27V40zm12 0a9.06 9.06 0 100-.32zm34.42-20.11h11.19v4.26a9.85 9.85 0 012.44-2.86 13.64 13.64 0 018.74-2.81 12.24 12.24 0 019.06 3.85 12.81 12.81 0 012.45 3.31 17.94 17.94 0 012.9-3.49 14.09 14.09 0 019.83-3.67 14.47 14.47 0 0110.55 4c3.76 4 4.53 6.7 4.53 15.58V60h-12.13V38.93a13.65 13.65 0 00-.82-5.66 5.15 5.15 0 00-5.34-3.27 5.66 5.66 0 00-5.8 3.35 11.65 11.65 0 00-.86 5v21.73H152.7V38.43a12.63 12.63 0 00-.73-5 5.14 5.14 0 00-5.25-3.4 5.88 5.88 0 00-5.93 3.58 12.51 12.51 0 00-.86 5.34v21.13h-12.05z" transform="translate(-10.25 -18.1)" fill="#0061a3"/><circle cx="9.19" cy="22.33" r="9.19" fill="url(#linear-gradient)"/></svg>