<svg xmlns="http://www.w3.org/2000/svg" width="84.827" height="85"><g id="cms-logo-concrete5" transform="translate(-352.6 -2.8)"><path id="Path_29296" data-name="Path 29296" d="M395 2.8a42.5 42.5 0 11-42.4 42.486A42.464 42.464 0 01395 2.8z" fill="#6bd5ff"/><path id="Path_29297" data-name="Path 29297" d="M461.861 85.5c-5.88-7-14.9 7.753-19.773 10.953a12 12 0 01-12.048.259c-4.9-2.911-3.4-9.771 1.787-11.5 4.612-1.528 12.653 3.344 15.565-1.528 3.6-6-8.7-7.379-12.336-7.235-6.572.259-12.855 2.392-16.775 7.35-4.208 5.361-3.228 11.818 1.383 16.689 4.7 4.554 11.529 6.312 18.3 5.765a20.071 20.071 0 006.918-2.1c4.5-2.421 18.188-17.208 16.977-18.649zm-42.918-5.246c2.277.432-2.133-12.279-2.421-14.008-.346-2.1-1.124-5.1-3.228-5.419-2.421-.346-3.113 2.421-2.594 4.871.519 2.536 6.111 14.152 8.243 14.556zm18.822-6.572c3.516.49 3.286-16.429 3.286-18.735 0-2.075.807-7.782-1.989-8.33-3.8-.749-4.208 4.295-4.295 7.033.173 2.709-.721 19.542 3 20.032zm8.388 2.738c3.833 1.614 6.8-15.507 7.206-17.7.4-2.219.49-6.975-3.344-5.476-1.931.749-2.277 3.862-2.565 5.592-.461 2.191-4.266 16.314-1.3 17.582zm-18.5-1.47c4.352.317.231-16.89-.086-19.168-.346-2.335-1.931-7.033-5.159-4.295-1.614 1.355-.894 4.554-.605 6.341.288 2.306 2.508 16.89 5.851 17.121z" transform="translate(-41.238 -31.132)" fill="#fff"/></g></svg>