<svg xmlns="http://www.w3.org/2000/svg" width="89.813" height="68.057"><g id="Group_4288" data-name="Group 4288" transform="translate(235.251 62.42)"><path id="Path_29298" data-name="Path 29298" d="M-146.879-31.757A2.6 2.6 0 01-145.6-32c.037-3.743.3-7.5.069-11.225a20.241 20.241 0 00-19.953-19.162c-4.43-.093-8.865.083-13.3.137-11.98-.059-23.961-.245-35.939-.141A20.029 20.029 0 00-234.99-42.81a397.675 397.675 0 000 28.811c.4 11.22 9.35 19.544 20.6 19.586 16.241.06 32.483.084 48.723-.028a20.218 20.218 0 0020.124-19.444c.233-6.028-.023-12.075-.059-18.114a2.6 2.6 0 00-1.277.242zm-11 13.707c-.048 2.317-.868 3.328-3.182 3.359a122.593 122.593 0 01-13.952-.227c-5.94-.6-10.032-4.063-11.894-9.763-.547-1.676-1.153-2.1-2.861-2-6.037.362-6.112.361-6.119 6.358 0 .891.012 1.784-.027 2.674-.073 1.627-1.031 2.8-2.544 2.783-5.414-.068-10.908.89-16.212-.931a13.513 13.513 0 01-9.061-14.4 14.165 14.165 0 0113.238-11.957c2.172-.059 3.651.909 3.684 2.56.04 1.99-1.322 2.645-3.03 3.009-5.239 1.118-7.866 4.159-7.455 8.666a7.369 7.369 0 005.322 6.81c2.6.865 5.315.575 7.951.3 1.9-.194 2.383-1.77 2.359-3.551a902.73 902.73 0 01-.069-13.67c0-3.616.712-4.274 4.377-4.34 2.275-.04 4.548-.135 6.823-.2 2.465.461 4.844 1.132 6.5 3.193.783.972 1.376.672 2.209.033a14.54 14.54 0 019.152-2.92c3.661 0 7.323-.094 10.984-.06 2.534.023 3.884 1.176 3.866 3.1-.017 1.9-1.376 2.977-3.948 2.995-3.365.023-6.729-.06-10.094-.045-4.337.02-7.157 2.1-8.42 6.131-1.194 3.814 2.109 8.891 6.418 9.434a60.352 60.352 0 008.3.161 2.354 2.354 0 002.5-2.687c-.028-1.582-.775-2.693-2.468-2.767-1.975-.087-3.958-.009-5.936-.057-2.489-.06-3.774-1.055-3.757-2.826.016-1.691 1.422-2.871 3.763-2.945 3.066-.1 6.135-.089 9.2-.088 3.368 0 4.052.641 4.484 4.063-.027 3.27-.036 6.538-.102 9.805zm10.317-13.2a2.567 2.567 0 01.434-.361 2.567 2.567 0 00-.435.357z" fill="#42b6f2"/><path id="Path_29299" data-name="Path 29299" d="M-182.881-29.217c2.465.461 4.844 1.132 6.5 3.193.783.972 1.376.672 2.209.033a14.54 14.54 0 019.152-2.92c3.661 0 7.323-.094 10.984-.06 2.534.023 3.884 1.176 3.867 3.1-.017 1.9-1.376 2.977-3.948 2.995-3.365.023-6.729-.06-10.094-.045-4.337.02-7.157 2.1-8.42 6.131-1.195 3.814 2.109 8.891 6.418 9.434a60.353 60.353 0 008.3.161 2.354 2.354 0 002.5-2.687c-.028-1.582-.775-2.693-2.468-2.767-1.975-.087-3.958-.009-5.936-.057-2.489-.06-3.774-1.055-3.757-2.826.016-1.691 1.422-2.871 3.763-2.945 3.066-.1 6.135-.089 9.2-.088 3.368 0 4.052.641 4.484 4.063-.033 3.267-.042 6.536-.109 9.8-.048 2.317-.868 3.328-3.182 3.359a122.593 122.593 0 01-13.952-.227c-5.94-.6-10.032-4.063-11.894-9.763-.547-1.676-1.153-2.1-2.861-2-6.037.362-6.112.361-6.119 6.358 0 .891.012 1.784-.028 2.674-.072 1.627-1.03 2.8-2.543 2.783-5.414-.068-10.908.89-16.212-.931a13.513 13.513 0 01-9.061-14.4A14.165 14.165 0 01-202.842-28.8c2.172-.059 3.651.909 3.684 2.56.04 1.99-1.322 2.645-3.03 3.009-5.239 1.118-7.866 4.159-7.455 8.666a7.369 7.369 0 005.322 6.81c2.6.865 5.315.575 7.951.3 1.9-.194 2.383-1.77 2.358-3.551a902.73 902.73 0 01-.068-13.67c0-3.616.712-4.275 4.377-4.34 2.275-.037 4.548-.131 6.822-.201zm-1.144 10.739v-.029c.788 0 1.577.028 2.363-.006 1.524-.066 2.889-.608 2.8-2.338-.088-1.669-1.447-2.183-2.985-2.178-1.28 0-2.564.065-3.839-.011-1.648-.1-2.55.313-2.563 2.249-.012 1.869.73 2.483 2.454 2.322.584-.055 1.179-.009 1.77-.009z" transform="translate(-7.653 -13.346)" fill="#fbfcfe"/><path id="Path_29300" data-name="Path 29300" d="M-165.233-14.336c-.591 0-1.186-.045-1.772.009-1.724.161-2.466-.453-2.454-2.322.013-1.936.915-2.347 2.563-2.249 1.275.076 2.559.016 3.839.011 1.538 0 2.9.509 2.985 2.178.092 1.73-1.273 2.272-2.8 2.338-.786.034-1.575.006-2.363.006z" transform="translate(-26.444 -17.488)" fill="#42b6f2"/></g></svg>