<svg xmlns="http://www.w3.org/2000/svg" width="78.924" height="78.924"><path id="Path_29301" data-name="Path 29301" d="M70.616.6H8.308A8.273 8.273 0 000 8.908v62.308a8.273 8.273 0 008.308 8.308h62.308a8.332 8.332 0 008.308-8.308V8.908A8.273 8.273 0 0070.616.6M39.323 48.693a12.013 12.013 0 008.032-3.416l3.692 4.246a20.407 20.407 0 01-12.738 4.893c-8.77 0-14.308-5.816-13.016-14.031s8.77-14.031 17.538-14.031a14.715 14.715 0 0110.985 4.707l-5.169 4.246a8.5 8.5 0 00-6.739-3.23 9.937 9.937 0 00-10.154 8.308c-.738 4.892 2.215 8.308 7.569 8.308" transform="translate(0 -.6)" fill="#e5422b"/></svg>