<svg xmlns="http://www.w3.org/2000/svg" width="73.103" height="78.34"><g id="hFVY0x" transform="translate(674.38 285.729)"><g id="Group_4289" data-name="Group 4289" transform="translate(-674.38 -285.729)"><path id="Path_29302" data-name="Path 29302" d="M-612.231-246.5v38.041c0 1.092.183 1.108-1.077 1.062-2.723-.1-5.45-.109-8.173-.2-7.721-.271-15.421-.794-23.093-1.762a98.258 98.258 0 01-26.246-7.125 1.187 1.187 0 01-.808-1.027q-1.456-9.036-2.182-18.159a141.89 141.89 0 01-.515-15.886 156.722 156.722 0 012.675-24.047 1 1 0 01.789-.923q11.043-3.26 22.346-5.45c6.209-1.21 12.473-2.053 18.77-2.64 5.551-.517 11.11-.91 16.683-1.1.657-.023.835.127.833.807q-.034 19.208-.017 38.416zm-58.2-6.137a23.257 23.257 0 012.084-5.282 15.317 15.317 0 015.557-6.121 10.4 10.4 0 017.648-1.441 12.547 12.547 0 015.443 2.848c2.392 1.923 3.68 4.255 3.1 7.432a5.236 5.236 0 01-4.053 4.3c-1.785.325-3.066-.639-4.094-1.956a3.855 3.855 0 00-4.718-1.265c-1.919.947-3.562 4.834-3.348 6.826.014.128.031.281.173.3.484.051.76.455 1.16.653a46.2 46.2 0 005.687 2.574c1.326.446 2.621 1.18 4.089.989a4 4 0 012.823.657 2.615 2.615 0 001.6.266c.321-.011.333-.172.287-.451a23.342 23.342 0 01-.364-2.656 24.773 24.773 0 012.153-12.074 20.46 20.46 0 018.265-9.373 15.123 15.123 0 0111.015-1.713 18.612 18.612 0 017.465 3.809 7.351 7.351 0 012.6 3.324c.876 2.557.745 5.03-1.143 7.139-1.4 1.565-4.286 3.027-6.889 1.368a13.157 13.157 0 01-2.313-1.886 6.013 6.013 0 00-7.634-.442 10.143 10.143 0 00-3.581 9.378 5.471 5.471 0 00.388 2.193c.188.341.336.851.8.734 1.374-.345 2.787-.545 4.138-.939 2.093-.611 4.227-1.09 6.265-1.895 1.618-.639 3.286-1.158 4.884-1.841 2.21-.945 4.388-1.968 6.567-2.987a1.31 1.31 0 00.942-1.41q-.023-15.869-.007-31.738c0-.2 0-.4-.011-.6-.017-.231-.136-.386-.387-.346-1.069.172-2.146.03-3.217.1q-4.1.282-8.19.586c-1.315.1-2.631.193-3.942.33a426.29 426.29 0 00-6.37.72c-1.8.216-3.6.425-5.4.7-2.161.332-4.317.708-6.468 1.1-3.18.584-6.35 1.22-9.49 2-2.174.537-4.355 1.047-6.52 1.618-2.118.559-4.219 1.182-6.328 1.774a.706.706 0 00-.57.61c-.187 1.1-.438 2.2-.583 3.3-.416 3.177-.956 6.335-1.259 9.53a58.216 58.216 0 00-.421 6.853 1.052 1.052 0 00.359.858c.585.492 1.16.992 1.803 1.543zm24.521 4.872c-.024 6.26 1.553 11.066 5 15.232 3.352 4.055 7.547 6.259 12.9 5.833 3.618-.288 6.57-2.051 9.277-4.341 2.508-2.123 2.326-5.452.684-7.776a3.8 3.8 0 00-5.856-.489 14.811 14.811 0 01-1.941 1.65 7.3 7.3 0 01-6.927.957 8.775 8.775 0 01-4.211-3.385c-3.033-4.255-2.522-10.75 1-14.756a7.674 7.674 0 0111.2-.233 7.874 7.874 0 001.309 1.117 3.234 3.234 0 002.522.732 5.161 5.161 0 003.158-8.2c-3.2-3.676-7.142-5.8-12.212-5.547a14.635 14.635 0 00-10.773 5.649c-3.453 4.122-5.332 8.945-5.135 13.553zm-23.665.959c.119 5.592 1.652 10.626 5.791 14.637a9 9 0 007.883 2.608 11.206 11.206 0 007.042-4.353c1.5-1.806 1.078-4.836-.279-6.492a2.443 2.443 0 00-2.955-.765c-.739.245-1.069.878-1.53 1.381-2.377 2.6-5.656 2.871-8.158.142a9.644 9.644 0 01-2.484-6.12 11.518 11.518 0 012.29-8.1 5.139 5.139 0 018.073-.2 6.453 6.453 0 001.53 1.425 1.971 1.971 0 002.052.129 4.8 4.8 0 001.9-6.467 11.224 11.224 0 00-3.822-3.734 8.591 8.591 0 00-7.093-1.226 10.858 10.858 0 00-6.367 4.6 20.41 20.41 0 00-3.877 12.531z" transform="translate(674.38 285.729)" fill="#4c95a7"/><path id="Path_29303" data-name="Path 29303" d="M-252.289-282.323a28.965 28.965 0 012.1 2.866 41.8 41.8 0 015.251 9.4 30.164 30.164 0 011.378 7.8 174.111 174.111 0 01.743 19.182c-.135 6.075-.488 12.14-.945 18.2a34.31 34.31 0 01-2.325 10.871 31.3 31.3 0 01-6.16 8.9 1.17 1.17 0 01-.232.187c-.036.023-.094.012-.069.01v-77.339zm1.122 4.213c-.019.2-.033.277-.033.351v29.79a3.637 3.637 0 00.3 1.145c.124.386.345.4.6.12a1.9 1.9 0 011.39-.646 2.211 2.211 0 001.5-.573 3.075 3.075 0 011.856-.639c.92-.114 1.089-.28 1.1-1.222.017-1.547-.235-3.085-.15-4.635a11.087 11.087 0 00-.018-1.425c-.183-2.454-.341-4.912-.589-7.36a29 29 0 00-.4-4.059 28.162 28.162 0 00-3.919-8.613 8.606 8.606 0 00-1.637-2.234z" transform="translate(315.886 282.834)" fill="#4c95a7"/><path id="Path_29304" data-name="Path 29304" d="M-660.375-244.4c-.643-.551-1.219-1.051-1.8-1.542a1.052 1.052 0 01-.359-.858 58.2 58.2 0 01.421-6.853c.3-3.195.844-6.353 1.259-9.53.145-1.108.4-2.2.583-3.3a.706.706 0 01.57-.61c2.109-.592 4.21-1.215 6.328-1.774 2.165-.571 4.346-1.081 6.52-1.618 3.14-.776 6.31-1.412 9.49-2 2.151-.395 4.306-.771 6.468-1.1 1.792-.275 3.6-.484 5.4-.7 2.122-.254 4.245-.5 6.37-.72 1.311-.137 2.627-.232 3.942-.33q4.095-.3 8.19-.586c1.07-.074 2.148.068 3.217-.1.251-.04.37.115.387.346.015.2.011.4.011.6q0 15.869.007 31.738a1.31 1.31 0 01-.942 1.41c-2.179 1.019-4.357 2.042-6.567 2.987-1.6.683-3.266 1.2-4.884 1.841-2.037.8-4.172 1.284-6.265 1.895-1.352.394-2.764.594-4.138.939-.463.116-.612-.394-.8-.734a5.469 5.469 0 01-.388-2.193 10.143 10.143 0 013.581-9.378 6.013 6.013 0 017.634.442 13.154 13.154 0 002.313 1.886c2.6 1.659 5.489.2 6.889-1.368 1.887-2.11 2.019-4.582 1.143-7.139a7.352 7.352 0 00-2.6-3.324 18.611 18.611 0 00-7.465-3.809 15.123 15.123 0 00-11.015 1.713 20.459 20.459 0 00-8.265 9.373 24.772 24.772 0 00-2.153 12.074 23.329 23.329 0 00.364 2.656c.046.279.034.44-.287.451a2.615 2.615 0 01-1.6-.266 4 4 0 00-2.823-.657c-1.468.19-2.763-.543-4.089-.989a46.207 46.207 0 01-5.687-2.574c-.4-.2-.676-.6-1.16-.653-.142-.015-.159-.168-.173-.3-.214-1.992 1.428-5.879 3.348-6.826a3.855 3.855 0 014.718 1.265c1.027 1.317 2.309 2.281 4.094 1.956a5.236 5.236 0 004.053-4.3c.577-3.177-.711-5.509-3.1-7.432a12.546 12.546 0 00-5.443-2.848 10.4 10.4 0 00-7.648 1.441 15.317 15.317 0 00-5.557 6.121 23.258 23.258 0 00-2.092 5.277z" transform="translate(664.319 277.491)" fill="#6abcd1"/><path id="Path_29305" data-name="Path 29305" d="M-484.866-141.731c-.2-4.608 1.682-9.426 5.134-13.558a14.634 14.634 0 0110.773-5.649c5.069-.257 9.013 1.871 12.212 5.547a5.161 5.161 0 01-3.158 8.2 3.233 3.233 0 01-2.522-.732 7.873 7.873 0 01-1.309-1.117 7.674 7.674 0 00-11.2.233c-3.523 4.007-4.034 10.5-1 14.756a8.775 8.775 0 004.211 3.385 7.3 7.3 0 006.927-.957 14.806 14.806 0 001.941-1.65 3.8 3.8 0 015.856.489c1.641 2.323 1.824 5.653-.684 7.776-2.706 2.29-5.658 4.053-9.277 4.341-5.357.426-9.552-1.777-12.9-5.833-3.451-4.165-5.029-8.971-5.004-15.231z" transform="translate(513.332 179.691)" fill="#fefefe"/><path id="Path_29306" data-name="Path 29306" d="M-642.423-125.08a20.411 20.411 0 013.869-12.542 10.858 10.858 0 016.367-4.6 8.591 8.591 0 017.094 1.226 11.225 11.225 0 013.822 3.734 4.8 4.8 0 01-1.9 6.467 1.971 1.971 0 01-2.052-.129 6.452 6.452 0 01-1.53-1.425 5.139 5.139 0 00-8.073.2 11.518 11.518 0 00-2.29 8.1 9.644 9.644 0 002.484 6.12c2.5 2.73 5.781 2.456 8.158-.142.46-.5.79-1.137 1.53-1.381a2.443 2.443 0 012.955.765c1.356 1.655 1.774 4.686.279 6.492a11.206 11.206 0 01-7.042 4.353 9 9 0 01-7.883-2.608c-4.135-4.005-5.665-9.038-5.788-14.63z" transform="translate(647.224 164)" fill="#fefefe"/><path id="Path_29307" data-name="Path 29307" d="M-243.5-254.262a8.606 8.606 0 011.637 2.235 28.162 28.162 0 013.919 8.613 29 29 0 01.4 4.059c.249 2.448.406 4.905.589 7.36a11.087 11.087 0 01.018 1.425c-.084 1.55.167 3.088.15 4.635-.01.942-.18 1.108-1.1 1.222a3.074 3.074 0 00-1.856.639 2.211 2.211 0 01-1.5.573 1.9 1.9 0 00-1.39.646c-.251.28-.471.266-.6-.12a3.637 3.637 0 01-.3-1.145q.013-14.9 0-29.79c-.004-.075.009-.149.033-.352z" transform="translate(308.224 258.986)" fill="#6abcd1"/></g></g></svg>