<svg xmlns="http://www.w3.org/2000/svg" id="debian" width="60.53" height="75.35"><defs><style>.cls-1{fill:#d70751}</style></defs><path class="cls-1" d="M105.91 42.09c-1.25 0 .24.64 1.87.89a14.71 14.71 0 001.22-1 9.17 9.17 0 01-3.09.16m6.7-1.72a8 8 0 001.48-3.31 8.32 8.32 0 01-1 2.3c-2.34 1.47-.22-.88 0-1.77-2.51 3.16-.35 1.9-.44 2.78m2.44-6.42c.15-2.24-.45-1.53-.65-.68.24.13.42 1.59.65.68M101.18 3.25c.66.12 1.44.21 1.33.37.73-.16.89-.3-1.33-.37m1.33.37l-.47.1h.43v-.06" transform="translate(-69.73 -2.28)"/><path class="cls-1" d="M123.28 34.84c.08 2-.59 3-1.19 4.73l-1.07.54c-.89 1.71.08 1.09-.55 2.45-1.38 1.23-4.18 3.84-5.08 4.07-.66 0 .44-.77.59-1.07-1.85 1.27-1.49 1.91-4.31 2.68l-.08-.19c-7 3.28-16.63-3.21-16.5-12.07-.08.57-.21.43-.37.65a11.16 11.16 0 016.26-11 10.57 10.57 0 0111.74 1.53 10.48 10.48 0 00-8.56-4.11c-3.69.06-7.15 2.41-8.3 5-1.86 1.15-2.11 4.55-2.94 5.17C91.81 41.38 95 44.9 100.42 49c.85.58.24.67.35 1.1A14.73 14.73 0 0196 46.48a12.89 12.89 0 002.49 2.87c-1.69-.57-4-4.1-4.62-4.25 2.92 5.23 11.85 9.17 16.53 7.22a19.53 19.53 0 01-7.35-.86c-1-.52-2.4-1.61-2.16-1.81 6.38 2.38 13 1.8 18.49-2.62 1.41-1.1 2.94-3 3.39-3-.67 1 .11.48-.4 1.36 1.4-2.25-.61-.91 1.44-3.89l.76 1c-.28-1.87 2.33-4.15 2.06-7.11.6-.9.67 1 0 3.06.88-2.31.23-2.68.45-4.59a15.4 15.4 0 01.73 2c-.57-2.24.59-3.76.88-5.06-.28-.13-.88 1-1-1.65 0-1.15.32-.61.43-.89a5.14 5.14 0 01-1.12-2.63c.26-.4.69 1 1 1.08a26.53 26.53 0 01-.64-3.39c-1-2.16-.36.29-1.2-.93-1.11-3.43.91-.79 1-2.35 1.67 2.42 2.62 6.17 3.06 7.72a32.9 32.9 0 00-1.53-5.5c.5.21-.82-3.9.65-1.18-1.57-5.8-6.75-11.22-11.5-13.77.58.53 1.31 1.2 1 1.31-2.37-1.41-2-1.52-2.29-2.12-1.93-.78-2.05.07-3.33 0-3.64-1.92-4.34-1.72-7.68-2.93l.15.72c-2.4-.81-2.8.3-5.4 0-.16-.13.83-.45 1.65-.57-2.33.31-2.22-.46-4.5.09a17.82 17.82 0 011.75-1c-1.89.11-4.53 1.1-3.71.2-3 1.39-8.48 3.33-11.59 6.23l-.09-.65c-1.42 1.7-6.17 5.07-6.55 7.27l-.38.08a41.93 41.93 0 00-1.79 3.94c-1 1.64-1.41.63-1.28.89a59.8 59.8 0 00-3.64 9.71c.58.86 0 5.21.23 8.68-1 17.16 12 33.83 26.25 37.68 2.09.74 5.18.71 7.82.79-3.11-.89-3.51-.47-6.54-1.53-2.18-1-2.66-2.2-4.21-3.54l.61 1.08c-3-1.07-1.76-1.33-4.23-2.11l.66-.85c-1-.08-2.61-1.66-3-2.54h-1.08c-1.29-1.59-2-2.74-1.93-3.63l-.34.62c-.4-.68-4.76-6-2.5-4.75a5 5 0 01-1.58-1.72l.46-.53c-1.09-1.4-2-3.19-1.94-3.79a2.48 2.48 0 001.39 1.06c-2.75-6.82-2.91-.37-5-6.94h.44a13.33 13.33 0 01-.81-1.6L75 45c-2-2.29-.55-9.73-.27-13.81.2-1.66 1.65-3.43 2.76-6.2l-.68-.12c1.29-2.24 7.36-9 10.17-8.67 1.36-1.71-.27 0-.54-.44 3-3.09 3.93-2.18 6-2.74 2.18-1.29-1.87.5-.84-.49 3.77-1 2.67-2.19 7.58-2.68.52.3-1.2.46-1.64.84 3.14-1.53 9.92-1.18 14.33.85 5.11 2.39 10.86 9.46 11.08 16.1l.26.07c-.13 2.64.41 5.7-.52 8.5l.63-1.32" transform="translate(-69.73 -2.28)"/><path class="cls-1" d="M92.28 43.8l-.17.88a16.79 16.79 0 002.52 3.19c-.76-1.47-1.32-2.08-2.35-4.07m1.94-.07a7.13 7.13 0 01-1-1.64 11.18 11.18 0 001.37 2.77l-.39-1.13m34.35-7.46l-.19.46a22.07 22.07 0 01-2.17 6.94 21.94 21.94 0 002.36-7.4M101.42 2.65c.85-.3 2.08-.16 3-.37-1.16.1-2.33.16-3.47.31l.5.06M71.79 18.41c.19 1.8-1.36 2.5.34 1.32.91-2.05-.36-.57-.34-1.32m-2 8.34a19.61 19.61 0 00.61-2.62c-1.08 1.38-.49 1.68-.61 2.62" transform="translate(-69.73 -2.28)"/></svg>