<svg xmlns="http://www.w3.org/2000/svg" id="django" width="181.7" height="63.31"><defs><style>.cls-1{fill-rule:evenodd}</style></defs><g id="layer1"><path id="path2838" class="cls-1" d="M19.12 39.32c0 6 4.37 9.58 11.39 8V31.36c-7.11-2.17-11.36 2.21-11.39 8m11.61-31h9.68v45.8c-9.28 1.52-18.16 2.48-24.52-1.07C7.71 48.5 7.05 34 13.52 27.49c3.29-3.29 9.9-5.6 17-4.09V9c0-.3 0-.61.22-.64" transform="translate(-9.15 -8.35)"/><path id="path2840" class="cls-1" d="M56.11 18.45h-9.68V8.35h9.68z" transform="translate(-9.15 -8.35)"/><path id="path2844" class="cls-1" d="M172.24 47.7c10.55 4.1 11.72-18.88 1.08-16.77-6.61 1.31-6.4 14.7-1.08 16.77m.43-24.7c8.06-.86 14.14 2.69 16.56 8.17 4.14 9.35-.22 20.08-6.88 23.23A19.8 19.8 0 01172 55.88c-10.09-.88-16.45-11.16-12.9-22.59a15.3 15.3 0 011.5-3.44c2.19-3.73 5.89-6.22 12-6.88" transform="translate(-9.15 -8.35)"/><path id="path2848" class="cls-1" d="M69.44 44.05c-2.67 4.5 4 5.57 8.39 4.3v-6.67c-3.33.47-7.13.25-8.39 2.37m17 10.53c-8 .46-20.14 3.19-24.52-2.15-2.56-3.13-2.29-9.11 0-12 3-3.79 9.44-4.62 15.27-5.16a5.49 5.49 0 00-.43-4.3c-5.34-1.36-10.64.74-14.41 2.36v-7.56c5.69-2.62 18.86-5.37 22.8.64 2.07 3.16 1.29 8.66 1.29 13.55z" transform="translate(-9.15 -8.35)"/><path id="path2852" class="cls-1" d="M120.41 55h-9.68V42.54c0-4.11.67-9.31-1.5-11-1.7-1.29-5.73-.64-8.17 0V55h-9.68V25.12c9.89-2.57 27.75-5.32 29 7.1.64 6.12-.47 15.31 0 22.8" transform="translate(-9.15 -8.35)"/><path id="path2856" class="cls-1" d="M134.82 44.69c1.63 2.64 6 3.62 9.68 1.94q-.3-7.56-.21-15.49c-8.37-2.21-13.35 7.27-9.47 13.55m24.31-20.43a65.74 65.74 0 01-3.23 7.1c-1 .22-1.86-.4-2.37 0-.22 10.48 2.24 24.69-1.93 32.26-2.51 4.55-7.13 7.47-14.2 8a28.84 28.84 0 01-12.9-1.94v-9c4.41 2.57 15.57 4.68 18.71-.65.92-1.57.87-3.18 1.29-5.59-2 .11-4 1-6.45 1.08-10.14.13-16.42-8-14-19.15a15.23 15.23 0 016.95-9.96c7.06-4.3 17.92-4 28.18-2.15" transform="translate(-9.15 -8.35)"/><path id="path2860" class="cls-1" d="M56.11 23.57v20.91c-.41 8.51-.32 15.28-3.43 19.35a18 18 0 01-3 2.8c-.92.69-2.67 2.09-3.66 2.15s-3.57-1.39-4.73-1.94a35.1 35.1 0 00-4.52-2.15c3.68-2.28 7.18-4 8.6-8.6 1.25-4 1.08-9.82 1.08-15.48v-17z" transform="translate(-9.15 -8.35)"/></g></svg>