<svg xmlns="http://www.w3.org/2000/svg" width="72" height="82.022"><path id="Drupal" d="M60.057 15.481c-4.2-2.593-8.151-3.7-12.1-6.3A50.51 50.51 0 0139.185.167c-.494 5.557-2.1 7.657-4.075 9.262-4.076 3.211-6.545 4.075-10 6.051A35.856 35.856 0 006.211 46.85 35.844 35.844 0 0042.52 82.17 34.541 34.541 0 0078.211 48.7v-1.233c0-20.995-15.561-30.381-18.154-31.986zm.371 58.786a18.441 18.441 0 01-8.274 3.211c-4.323.37-10.127.617-13.585-2.47a1.146 1.146 0 010-1.605 1.715 1.715 0 011.235-.617l.618.123c1.482 1.359 3.952 2.346 9.015 2.346s8.645-1.358 10.25-2.593c.741-.494.988-.123 1.111.247a1.333 1.333 0 01-.371 1.357zM46.719 67.6a14.1 14.1 0 013.705-2.6 8.123 8.123 0 013.335-.494 6.929 6.929 0 013.581.741 6.8 6.8 0 011.729 2.84c.371.741 0 1.235-.617 1.605-.494.37-.617.124-1.235-.864-.494-1.111-.988-2.1-3.828-2.1a6.2 6.2 0 00-4.94 2.1c-1.359.988-1.852 1.482-2.346.741-.496-.613-.249-1.231.616-1.969zM75.37 52.531a18.572 18.572 0 01-2.717 9.633c-1.976 2.717-3.087 3.828-5.31 3.581C64.5 65.5 58.7 56.73 55.117 56.483c-4.569-.124-14.573 9.633-22.477 9.633-4.816 0-6.175-.741-7.781-1.729A8.443 8.443 0 0121.4 56.73c.124-6.175 5.928-11.979 13.214-11.979 9.262-.123 15.684 9.139 20.377 9.139 3.952-.123 11.485-7.9 15.314-7.9 3.954-.005 5.065 4.071 5.065 6.541z" transform="translate(-6.211 -.167)" fill="#29a9e0"/></svg>