<svg xmlns="http://www.w3.org/2000/svg" width="78.929" height="78.834"><defs><radialGradient id="radial-gradient" cx=".499" cy=".5" r="1.055" gradientTransform="matrix(.502 0 0 1 .249 0)" gradientUnits="objectBoundingBox"><stop offset="0" stop-color="#ffe1b7"/><stop offset=".11" stop-color="#fed39c"/><stop offset=".39" stop-color="#fbb158"/><stop offset=".59" stop-color="#fa9c2d"/><stop offset=".69" stop-color="#f9941d"/></radialGradient><radialGradient id="radial-gradient-2" cx=".5" cy=".5" fy=".135" r=".949" gradientTransform="matrix(.497 0 0 1 .252 0)" gradientUnits="objectBoundingBox"><stop offset="0" stop-color="#b0e2f9"/><stop offset=".13" stop-color="#a4d9f4"/><stop offset=".37" stop-color="#85c3e7"/><stop offset=".69" stop-color="#539ed2"/><stop offset="1" stop-color="#1b75bb"/></radialGradient><radialGradient id="radial-gradient-3" cx=".509" cy=".775" fx=".055" fy="1.009" r=".858" gradientTransform="matrix(.623 0 0 1 .189 0)" gradientUnits="objectBoundingBox"><stop offset="0" stop-color="#8dd7f7"/><stop offset=".12" stop-color="#89d2f2"/><stop offset=".26" stop-color="#7fc4e4"/><stop offset=".4" stop-color="#6eadcd"/><stop offset=".56" stop-color="#558dac"/><stop offset=".72" stop-color="#366482"/><stop offset=".88" stop-color="#113250"/><stop offset=".89" stop-color="#0e2e4c"/></radialGradient><radialGradient id="radial-gradient-4" cx=".509" cy=".607" fx=".777" fy=".356" r=".817" gradientTransform="matrix(.649 0 0 1 .176 0)" gradientUnits="objectBoundingBox"><stop offset="0" stop-color="#aee1f9"/><stop offset=".26" stop-color="#8cc8eb"/><stop offset=".82" stop-color="#3789c7"/><stop offset="1" stop-color="#1b75bb"/></radialGradient><linearGradient id="linear-gradient" x1=".964" y1=".097" x2=".076" y2=".626" gradientUnits="objectBoundingBox"><stop offset="0" stop-color="#0e2b49"/><stop offset=".09" stop-color="#113251"/><stop offset=".24" stop-color="#184566"/><stop offset=".41" stop-color="#236489"/><stop offset=".61" stop-color="#348fb9"/><stop offset=".82" stop-color="#47c2f2"/><stop offset=".83" stop-color="#58c7f3"/><stop offset=".87" stop-color="#7fd3f6"/><stop offset=".9" stop-color="#98daf7"/><stop offset=".92" stop-color="#a1ddf8"/></linearGradient><linearGradient id="linear-gradient-2" x1=".5" y1=".999" x2=".5" y2="-.003" gradientUnits="objectBoundingBox"><stop offset="0" stop-color="#1c3b56"/><stop offset=".14" stop-color="#1b3f5b"/><stop offset=".31" stop-color="#184969"/><stop offset=".49" stop-color="#145a81"/><stop offset=".68" stop-color="#0e72a2"/><stop offset=".87" stop-color="#0690cc"/><stop offset="1" stop-color="#00a8ec"/></linearGradient><linearGradient id="linear-gradient-3" x1="-.001" y1=".5" x2="1" y2=".5" gradientUnits="objectBoundingBox"><stop offset="0" stop-color="#ef5629"/><stop offset=".09" stop-color="#f06135"/><stop offset=".26" stop-color="#f37e54"/><stop offset=".48" stop-color="#f9ae86"/><stop offset=".71" stop-color="#ffe6c1"/><stop offset=".75" stop-color="#ffe2bb"/><stop offset=".8" stop-color="#fed7aa"/><stop offset=".86" stop-color="#fdc58e"/><stop offset=".93" stop-color="#fbad67"/><stop offset="1" stop-color="#f98f38"/></linearGradient><linearGradient id="linear-gradient-4" y1=".5" x2="1" y2=".5" gradientUnits="objectBoundingBox"><stop offset=".02" stop-color="#10bfff"/><stop offset=".19" stop-color="#91d8f7"/><stop offset=".21" stop-color="#8acfee"/><stop offset=".33" stop-color="#659ebc"/><stop offset=".45" stop-color="#457593"/><stop offset=".57" stop-color="#2d5573"/><stop offset=".68" stop-color="#1c3e5c"/><stop offset=".78" stop-color="#12314f"/><stop offset=".87" stop-color="#0e2c4a"/></linearGradient></defs><g id="e107" transform="translate(-.493 -.544)"><path id="Path_29309" data-name="Path 29309" d="M36.955 57.458c1.9-1.887 7.646-7.535 7.646-7.535l3.034 3.835L34.4 65.166 22.39 53.141l2.54-3.391s5.834 5.722 7.77 7.65a3.8 3.8 0 004.255.058z" transform="translate(5.108 11.477)" fill="url(#linear-gradient)"/><path id="Path_29310" data-name="Path 29310" d="M40.764 65.526c-2.393 2.4-8.028 2.651-10.742 0-2.466-2.466-9.952-9.484-9.952-9.484l3.885-4.242s6.487 6.364 8.633 8.5a4.39 4.39 0 005.525 0c2.109-2.109 8.5-8.374 8.5-8.374l3.761 4.255s-7.23 6.965-9.61 9.345z" transform="translate(4.566 11.955)" fill="url(#linear-gradient-2)"/><path id="Path_29311" data-name="Path 29311" d="M20.07 56.484l4.193-3.946 1.209-2.787-3.515 3.391-1.887 3.342z" transform="translate(4.566 11.477)" fill="#202f60"/><path id="Path_29312" data-name="Path 29312" d="M45.617 56.524l-4.008-4.008L40.4 49.84l3.761 3.589 1.455 3.1z" transform="translate(9.308 11.498)" fill="#00aced"/><path id="Path_29313" data-name="Path 29313" d="M42.363 38.378c3.391 3.391 13.467 13.393 13.467 13.393l1.332 2.183L36.3 39.389 15.33 54.188l1.418-2.245s10.2-10.1 13.566-13.479c2.762-2.764 9.274-2.764 12.049-.086z" transform="translate(3.461 8.359)" fill="url(#linear-gradient-3)"/><path id="Path_29314" data-name="Path 29314" d="M42.048 38.767c-2.466-2.466-8.855-2.466-11.889.6-3.7 3.7-14.8 14.688-14.8 14.688l3.811 3.909s11-11.309 14.8-14.935a3.7 3.7 0 014.736 0C42.282 46.734 53.27 57.6 53.27 57.6l3.885-3.7S45.747 42.541 42.048 38.767z" transform="translate(3.468 8.5)" fill="url(#radial-gradient)"/><path id="Path_29315" data-name="Path 29315" d="M39.785 30.019l19.917 20 3.268 2.2L37 23.47 11.26 52.242l2.8-1.7 20.386-20.4a3.7 3.7 0 015.34-.123z" transform="translate(2.511 5.347)" fill="url(#linear-gradient-4)"/><path id="Path_29316" data-name="Path 29316" d="M45.446 25.982c-5.167-5.155-11.642-3.515-14.084-1.1-5.87 5.848-23.542 23.31-23.542 23.31l4.242 4.255S29.229 35.428 34.89 29.62a4.4 4.4 0 015.944 0c5.759 5.68 22.939 22.827 22.939 22.827l4.127-4.131z" transform="translate(1.709 5.142)" fill="url(#radial-gradient-2)"/><path id="Path_29317" data-name="Path 29317" d="M77.824 39.714L39.47 1.73 1.72 38.493l9.952 9.952 3.527-2.06-4.378-4.365a3.7 3.7 0 010-4.736c6.61-6.6 19.855-19.732 26.453-26.342a3.539 3.539 0 014.736-.123l26.219 26.219a3.465 3.465 0 01.247 4.933c-1.135 1.135-4.489 4.6-4.489 4.6l3.638 2.553z" transform="translate(.286 .277)" fill="url(#radial-gradient-3)"/><path id="Path_29318" data-name="Path 29318" d="M76.889 46.046c-1.443 1.443-5.821 5.71-5.821 5.71l-4.5-3.527s4.119-4.316 5.34-5.574 2.368-3.465-.234-6.08C64.458 29.385 50 15.017 42.79 7.815a4.168 4.168 0 00-5.463-.123C29.927 15.091 15 29.8 7.593 37.191a4.181 4.181 0 00-.123 5.217l5.574 5.71-4.612 3.551s-4.242-4.489-5.7-5.944a8.83 8.83 0 01.36-12.135C10.75 25.882 26.141 10.627 33.8 2.968a8.953 8.953 0 0112.5.247L76.162 33.06c4.008 4.008 4.402 9.311.727 12.986z" fill="url(#radial-gradient-4)"/><path id="Path_29319" data-name="Path 29319" d="M10.9 38.729l3.071-.789-3.637 3.76-3.404 1.21zm54.633.3l-2.762-.851 3.638 3.761 3.157 1.1z" transform="translate(1.502 8.722)" fill="#072b44"/></g></svg>