<svg xmlns="http://www.w3.org/2000/svg" width="86" height="83.545"><g id="logo_1_" data-name="logo (1)" transform="translate(-10.186 -10.737)"><g id="Group_4292" data-name="Group 4292" transform="translate(10.186 10.737)"><g id="Group_4290" data-name="Group 4290"><path id="Path_29320" data-name="Path 29320" d="M52.25 91.942a39.534 39.534 0 01-28.619-12.528A38.793 38.793 0 0148.33 13.7a64.433 64.433 0 015.143-.241c.61 0 1.2.015 1.721.05a38.379 38.379 0 0128.276 15.8c.183.249.39.521.609.811 1.981 2.611 4.973 6.556 4.275 10.376-.577 3.149-4.722 5.293-9.673 7.576-.733.338-1.36.624-1.782.849a1122.601 1122.601 0 01-13.115 6.857c-4.588 2.373-9.332 4.825-14.4 7.545-.284.152-.567.313-.855.476a12.229 12.229 0 01-6.129 2.044c-.145 0-.291 0-.439-.011a8.473 8.473 0 01-6.223-3.168 9.074 9.074 0 01-1.865-7.143c.669-4.186 4.211-6 7.057-7.462.305-.156.608-.312.909-.471 3.441-1.817 6.531-3.418 9.645-5.031 3.528-1.828 7.086-3.671 11.218-5.862l.383-.2c.285-.148.856-.444 1.331-.732a16.794 16.794 0 00-3.355-1.889 20.206 20.206 0 00-8.555-1.931 21.86 21.86 0 00-18.026 9.948 22.183 22.183 0 00-1.475 18.282c2.48 6.351 8.748 13.139 18.9 13.139A24.372 24.372 0 0055.738 73a20.038 20.038 0 0015.084-11.47 29.771 29.771 0 001.228-3.484c1.12-3.643 2.512-8.177 8.345-8.883a9.641 9.641 0 011.156-.071 9.373 9.373 0 019.214 7.708c.532 3.217-.883 7.267-2 10.035a40.643 40.643 0 01-19.74 21.292 39.2 39.2 0 01-16.775 3.815z" transform="translate(-10.376 -10.928)" fill="#fff" fill-rule="evenodd"/><path id="Path_29321" data-name="Path 29321" d="M53.282 15.794c.551 0 1.082.013 1.553.045a35.919 35.919 0 0126.407 14.774c1.631 2.217 5 6.15 4.434 9.233-.486 2.654-7.943 5.467-10.158 6.654C65.9 51.624 57.7 55.692 48 60.9c-1.763.948-3.553 2.223-5.788 2.223q-.152 0-.307-.008a6.242 6.242 0 01-5.724-7.385c.524-3.272 3.778-4.58 6.649-6.1 7.342-3.877 13.087-6.77 20.867-10.9 1.1-.581 3.412-1.664 3.51-2.77.184-2.1-3.85-3.921-5.355-4.616a22.616 22.616 0 00-9.536-2.128 24.3 24.3 0 00-20.2 11.184 24.847 24.847 0 00-1.661 20.5 22.676 22.676 0 0021.26 14.749 26.8 26.8 0 004.227-.343 22.457 22.457 0 0016.99-12.928c2.151-4.766 1.882-10.209 7.572-10.9a7.028 7.028 0 01.853-.052 6.885 6.885 0 016.72 5.593c.432 2.614-.9 6.325-1.847 8.679a38.054 38.054 0 01-18.47 19.95 36.794 36.794 0 11-19.39-69.623 61.98 61.98 0 014.912-.232m0-5.057c-2.2 0-4.629.181-5.381.252a41.761 41.761 0 00-15.14 4.231 41.856 41.856 0 0037.15 75.006 43.234 43.234 0 0021.012-22.638C92.251 64.281 93.694 60 93.066 56.2a11.871 11.871 0 00-7.589-9.079c2.766-1.724 4.679-3.667 5.173-6.361.9-4.917-2.5-9.4-4.746-12.361-.213-.28-.411-.542-.588-.782a40.9 40.9 0 00-30.142-16.824 28.751 28.751 0 00-1.891-.056zM34.329 49.049A17.52 17.52 0 0136.457 43a19.211 19.211 0 0115.858-8.716 17.459 17.459 0 016.551 1.288 1513.083 1513.083 0 01-8.737 4.552c-3.053 1.582-6.21 3.218-9.662 5.04-.291.153-.586.305-.882.456a21.864 21.864 0 00-5.258 3.43zm8.4 19.121a14.98 14.98 0 006.858-2.365c.27-.153.537-.305.8-.447 5.049-2.71 9.785-5.159 14.364-7.528q2.634-1.361 5.351-2.772c-.26.732-.475 1.429-.668 2.055a27.718 27.718 0 01-1.11 3.187 17.5 17.5 0 01-13.176 10.013 21.878 21.878 0 01-3.431.28 17.177 17.177 0 01-8.985-2.423z" transform="translate(-10.186 -10.737)" fill="#4d4c4d"/></g><g id="Group_4291" data-name="Group 4291" transform="translate(62.686 58.266)"><path id="Path_29322" data-name="Path 29322" d="M89.256 95.234a10.906 10.906 0 01-3.852-.721c-4-1.507-6.39-5.663-5.941-10.341a9.509 9.509 0 017.914-8.779 12.688 12.688 0 012.132-.186 9.5 9.5 0 019.583 7.57 10.192 10.192 0 01-1.968 8.659 10.031 10.031 0 01-7.868 3.798z" transform="translate(-77.723 -73.521)" fill="#6eceec" fill-rule="evenodd"/><path id="Path_29323" data-name="Path 29323" d="M89.383 76.766a7.855 7.855 0 017.938 6.256 8.467 8.467 0 01-8.192 10.4 9.212 9.212 0 01-3.257-.612c-6.974-2.627-6.58-14.474 1.661-15.881a10.818 10.818 0 011.85-.163m0-3.372a14.391 14.391 0 00-2.417.21 11.158 11.158 0 00-9.309 10.281c-.523 5.445 2.3 10.3 7.026 12.079a12.557 12.557 0 004.445.829 11.7 11.7 0 009.185-4.435 11.865 11.865 0 002.3-10.082 11.267 11.267 0 00-11.225-8.883z" transform="translate(-77.595 -73.394)" fill="#4d4c4d"/></g></g></g></svg>