<svg xmlns="http://www.w3.org/2000/svg" width="94.064" height="64.775"><g id="expressionengine" transform="translate(-1.548 -12.775)" fill="#3785b1"><path id="Path_29324" data-name="Path 29324" d="M47.023 13.725s29.769-6 44.568 12.154c0 0 13.608 15.389-9.246 34.995l6.967 4.7-27.5 7.295s20.575-9.4 20.575-29.978c.131 0 1.585-27.87-35.361-29.167zm-11.5 3.719S8.78 29.113 16.075 56.826c0 0 5.029 20.09 33.868 19.92 0 0-35.807 6.326-46.834-16.515 0 0-7.766-13.778 11.342-30.791l-7.282-4.583z"/><path id="Path_29325" data-name="Path 29325" d="M38.179 55.872c-6.47-2.619-4.689-10.857-4.689-10.857 14.092-2.266 17.982-5.343 17.982-5.343 10.857-7.138 3.719-13.935 3.719-13.935-6.8-5.671-18.139-.17-18.139-.17a23.705 23.705 0 00-12.48 12.808c-5.671 18.466 9.4 20.732 9.4 20.732a22.592 22.592 0 0020.958-7.779l-1.624-1.31c-8.8 8.932-15.127 5.854-15.127 5.854zm4.7-29.651s4.374-1.467 5.514 2.619c0 0 1.454 6.483-5.239 11.014 0 0-1.951 2.266-9.4 3.235.046-.183 2.487-13.789 9.127-16.868z" transform="translate(6.735 3.22)"/></g></svg>