<svg xmlns="http://www.w3.org/2000/svg" id="Fedora" width="67.74" height="67.73"><defs><style>.cls-2{fill:none;stroke:#3c6eb4;stroke-width:7.43px}.cls-3{fill:#fff}</style></defs><path id="voice" d="M137 38.42a33.87 33.87 0 00-67.73 0v26.19a7.7 7.7 0 007.69 7.68h26.19A33.87 33.87 0 00137 38.42" transform="translate(-69.23 -4.55)" fill="#294172"/><path id="in" class="cls-2" d="M88.75 40.61h12.17v12.17a12.17 12.17 0 11-12.17-12.17z" transform="translate(-69.23 -4.55)"/><g id="finity"><path id="in-2" data-name="in" class="cls-2" d="M113 40.63h-12.14V28.46A12.18 12.18 0 11113 40.63z" transform="translate(-69.23 -4.55)"/></g><path id="free" class="cls-3" d="M104.65 36.9v15.86a15.9 15.9 0 01-15.9 15.9 12.71 12.71 0 01-3.51-.47A4.1 4.1 0 0182 64.53 3.52 3.52 0 0185.73 61c1.07 0 1.45.2 3 .2a8.38 8.38 0 008.39-8.37v-7.34A1.18 1.18 0 0096 44.3h-5.56a3.7 3.7 0 110-7.4" transform="translate(-69.23 -4.55)"/><g id="dom"><path id="free-2" data-name="free" class="cls-3" d="M97.14 44.34V28.48A15.9 15.9 0 01113 12.58a12.4 12.4 0 013.51.48 4.08 4.08 0 013.26 3.65 3.5 3.5 0 01-3.75 3.58c-1.07 0-1.46-.2-3-.2a8.38 8.38 0 00-8.39 8.37v7.3a1.18 1.18 0 001.18 1.18h5.51a3.7 3.7 0 110 7.4" transform="translate(-69.23 -4.55)"/></g><path id="TM" d="M131.12 66.43V65l-.65 1.48-.62-1.48v1.41h-.36v-2.2h.37l.62 1.42.61-1.42h.39v2.22zm-2.63-1.85v1.85h-.38v-1.85h-.63v-.37h1.64v.37" transform="translate(-69.23 -4.55)" fill="#3c6eb4"/></svg>