<svg xmlns="http://www.w3.org/2000/svg" width="88.098" height="88.695"><g id="Group_4293" data-name="Group 4293" transform="translate(-4.209 -2.188)"><path id="Path_29326" data-name="Path 29326" d="M33.147 5.995A4.835 4.835 0 0027.4 2.309h-.15l-1.622.737L7.5 14.25c-5.749 3.686-1.916 6.634-.147 7.371l26.826 10.615c4.275 1.769 5.6-1.179 4.423-6.044z" transform="translate(35.304)"/><path id="Path_29327" data-name="Path 29327" d="M30.215 6.488A9.446 9.446 0 0019.6 2.655L6.923 6.636c-4.57 1.327-1.916 4.423.885 5.6l24.914 9.877c4.865 1.916 5.012-1.769 3.391-4.718z" transform="translate(35.583 9.826)" fill="#72bf44"/><path id="Path_29328" data-name="Path 29328" d="M10.05 29.286a4.835 4.835 0 005.75 3.685h.147l1.622-.737L35.7 21.03c5.6-3.686 1.916-6.634.147-7.518L9.165 3.045C4.89 1.423 3.564 4.224 4.743 9.089z" transform="translate(18.008 57.791)"/><path id="Path_29329" data-name="Path 29329" d="M11.165 18.742a9.588 9.588 0 0010.614 3.686l12.531-3.98c4.57-1.327 1.916-4.423-.885-5.455L8.659 3.116C3.794 1.2 3.646 4.885 5.268 7.686z" transform="translate(19.399 58.162)" fill="#72bf44"/><path id="Path_29330" data-name="Path 29330" d="M8.009 8.176a4.655 4.655 0 00-3.686 5.6v.147l.737 1.622 11.2 18.133c3.686 5.6 6.634 1.916 7.518.147L34.4 7.145c1.622-4.275-1.179-5.6-6.192-4.423z" transform="translate(0 18.015)"/><path id="Path_29331" data-name="Path 29331" d="M8.364 9.185A9.588 9.588 0 004.679 19.8l3.98 12.678c1.327 4.57 4.423 1.916 5.455-1.032l9.877-24.767c1.916-4.865-1.769-5.012-4.57-3.538z" transform="translate(9.964 19.512)" fill="#72bf44"/><path id="Path_29332" data-name="Path 29332" d="M31.5 31.066a4.835 4.835 0 003.686-5.749v-.147l-.737-1.474-11.2-18.28c-3.686-5.6-6.634-1.917-7.519-.147L5.116 32.1c-1.769 4.273 1.184 5.6 6.044 4.42z" transform="translate(56.996 35.814)"/><path id="Path_29333" data-name="Path 29333" d="M20.756 28.19a9.1 9.1 0 003.686-10.614L20.609 4.9c-1.327-4.57-4.423-1.916-5.6 1.032L5.13 30.7c-1.917 4.861 1.77 5.008 4.717 3.387z" transform="translate(57.278 36.184)" fill="#72bf44"/></g></svg>