<svg xmlns="http://www.w3.org/2000/svg" width="57.111" height="74.767"><defs><linearGradient id="linear-gradient" x1=".5" y1="1.066" x2=".5" y2=".066" gradientUnits="objectBoundingBox"><stop offset="0" stop-color="#507fb4"/><stop offset=".21" stop-color="#5081b6"/><stop offset=".33" stop-color="#5086be"/><stop offset=".36" stop-color="#5088c2"/><stop offset=".42" stop-color="#5085bd"/><stop offset=".57" stop-color="#5080b6"/><stop offset="1" stop-color="#507fb4"/></linearGradient><linearGradient id="linear-gradient-2" x1=".5" y1="1.081" x2=".5" y2=".081" gradientUnits="objectBoundingBox"><stop offset="0" stop-color="#73a8db"/><stop offset=".01" stop-color="#71a6d9"/><stop offset=".02" stop-color="#6a9ed1"/><stop offset=".03" stop-color="#5f90c3"/><stop offset=".03" stop-color="#4f7cb0"/><stop offset=".04" stop-color="#3f689c"/><stop offset=".28" stop-color="#5685b9"/><stop offset=".56" stop-color="#6b9fd3"/><stop offset=".8" stop-color="#78afe3"/><stop offset="1" stop-color="#7cb4e8"/></linearGradient><linearGradient id="linear-gradient-3" x1=".5" y1="1.081" x2=".5" y2=".081" gradientUnits="objectBoundingBox"><stop offset="0" stop-color="#4d7cad"/><stop offset=".03" stop-color="#4978a7"/><stop offset=".21" stop-color="#39648c"/><stop offset=".22" stop-color="#3a658d"/><stop offset=".5" stop-color="#4673a3"/><stop offset=".76" stop-color="#4d7cb0"/><stop offset="1" stop-color="#507fb4"/></linearGradient></defs><g id="Group_4295" data-name="Group 4295" transform="translate(-.464 -24.845)" stroke="#000" stroke-miterlimit="10" stroke-width=".071"><path id="Path_29336" data-name="Path 29336" d="M5.33 24.88h10.005v74.7H5.33z" transform="translate(18.859)" fill="url(#linear-gradient)"/><path id="Path_29337" data-name="Path 29337" d="M.5 76.706c0 11.329 5.346 10.643 12.654 10.643v-7.995c-2.305 0-3.629.343-3.629-3.678v-38.7c0-2.992 1.618-2.648 3.629-2.648v-8.041C6.189 26.287.5 25.306.5 36.636z" transform="translate(0 5.41)" fill="url(#linear-gradient-2)"/><path id="Path_29338" data-name="Path 29338" d="M22.2 76.706c0 11.329-5.346 10.643-12.654 10.643v-7.995c2.305 0 3.629.343 3.629-3.678v-38.7c0-2.992-1.618-2.648-3.629-2.648v-8.041c6.964 0 12.654-.981 12.654 10.349z" transform="translate(35.336 5.41)" fill="url(#linear-gradient-3)"/></g></svg>