<svg xmlns="http://www.w3.org/2000/svg" width="69.823" height="86.216"><defs><linearGradient id="linear-gradient" y1=".5" x2="1" y2=".5" gradientUnits="objectBoundingBox"><stop offset="0" stop-color="#e63f1d"/><stop offset="1" stop-color="#f16b03"/></linearGradient></defs><g id="formalms" transform="translate(-1.48 -176.305)"><path id="Path_29339" data-name="Path 29339" d="M64.4 213.538c-2.538 3.358-7.42 10.176-9.906 13.568-2.226 2.965-5.439-.224-4.215-2.944 3.933-8.71 12.265-25.4 15.359-34.19 1.64-4.654-4.823-6.621-7.183-1.811-4.177 8.514-11.62 25.914-15.849 34.414-1.38 2.768-6.24 1.8-4.957-1.811 3.532-9.945 11.308-29.17 14.84-38.946 2.122-5.848-5.491-7.035-6.938-3.392-3.947 9.931-11.508 29.889-15.352 39.855-1.224 3.175-6.218 2.035-4.957-2.035 2.679-8.615 8.036-25.846 10.9-34.414 1.9-5.685-5.365-7.978-7.42-2.035-3.71 10.617-10.254 32.087-13.623 42.792-1.217 3.853-5.283 3.175-5.454 0-.237-4.579-.453-13.758-.49-18.316-.052-5.658-7.68-4.749-7.68 1.133v29.435c0 10.264 5.431 18.567 12.139 18.567 8.9-.224 9.958-4.66 13.868-9.056 3.22-3.623 9.646-.224 6.93 3.853-1.751 2.625-7.8 11.207-16.962 12.34 11.761 3.962 21.421 2.15 28.478-7.021 6.871-8.921 17.808-24.293 24.894-37.25 2.271-4.091-4.2-5.678-6.426-2.734zm-49.92 36.117c-3.832 0-6.938-2.84-6.938-6.343s3.106-6.343 6.938-6.343 6.938 2.84 6.938 6.343-3.106 6.343-6.938 6.343z" fill="url(#linear-gradient)"/></g></svg>