<svg xmlns="http://www.w3.org/2000/svg" width="79.546" height="70.967"><g id="Group_4398" data-name="Group 4398" transform="translate(-1816.692 -4293)"><g id="formtools" transform="translate(1816.692 4293)"><path id="Path_29340" data-name="Path 29340" d="M55.468 12.17l2.8 46.485L14.67 38.781z" transform="translate(-2.961 -1.335)" fill="#0074a7"/><path id="Path_29341" data-name="Path 29341" d="M56.242 15.538L19.94 7.15l-4.48 35.936z" transform="translate(-2.496 -4.29)" fill="#0096c2"/><path id="Path_29342" data-name="Path 29342" d="M42.938 60.86l25.07-27.024L39.3 11.07z" transform="translate(11.538 -1.983)" fill="#00628e"/><path id="Path_29343" data-name="Path 29343" d="M60.8 49.281L25.61 63.436 14.41 27.23z" transform="translate(-3.114 7.531)" fill="#00628e"/><path id="Path_29344" data-name="Path 29344" d="M53.549 18.886L18.28 8.21l39.876-2.86-4.607 13.536z" transform="translate(-.836 -5.35)" fill="#6eafcc"/><path id="Path_29345" data-name="Path 29345" d="M39.48 18.409L67.9 37.2 45.676 5.35z" transform="translate(11.644 -5.35)" fill="#0096c2"/><path id="Path_29346" data-name="Path 29346" d="M29.8 63.937L22.329 26.38 7.3 30.828z" transform="translate(-7.3 7.03)" fill="#004365"/><path id="Path_29347" data-name="Path 29347" d="M23.028 41.2l1.716-34.05L7.3 42.149z" transform="translate(-7.3 -4.29)" fill="#0074a7"/><path id="Path_29348" data-name="Path 29348" d="M67.737 25.4L39.76 51.073l10.994 10.39z" transform="translate(11.809 6.453)" fill="#004365"/><path id="Path_29349" data-name="Path 29349" d="M53.139 40.05L21.46 55.889l40.067-3.05-8.388-12.789z" transform="translate(1.036 15.078)" fill="#005279"/></g></g></svg>