<svg xmlns="http://www.w3.org/2000/svg" id="freebsd" width="175.6" height="47.22"><defs><style>.cls-1{fill:#aa2d29}</style></defs><path class="cls-1" d="M145.08 29a6 6 0 012.67 10 7.57 7.57 0 013.78 4.33 7.25 7.25 0 01-.5 5.5 7.61 7.61 0 01-4.88 3.66 15.9 15.9 0 01-3.38.16h-6.83a1.29 1.29 0 01-1.33-1.42v-16c0-8.18 8.62-6.81 10.47-6.23zm-8.14 6.57v3h7.15c2.79 0 3.24-3.9 2.85-5a4 4 0 00-2.66-2.34c-.94-.23-7.34-1.79-7.34 4.29zm0 5.22v9.53c0 .25 0 .22.26.22h5.33a9.72 9.72 0 004.38-.63 5.31 5.31 0 002.57-5 4.56 4.56 0 00-3.19-3.91 9 9 0 00-3-.29zm32.78-10.62c0-1 .62-1.56 1.89-1.56h6.46c6.43 0 9.73 6.2 9.73 12.17s-4 12-10.38 12h-6.33c-1 0-1.37-.2-1.37-1.34zm2.42.82v19.38h5.12c5.19 0 8-4.76 8-9.59S182.71 31 177.72 31zm-12.21.01a4.05 4.05 0 00-4 4c0 2 2.74 3.21 5.44 4.68 2.87 1.56 5.92 3.11 5.92 6.43 0 4.55-3.4 6.9-7.8 6.9a9.91 9.91 0 01-5.49-1.58 1.68 1.68 0 01-.86-1.4A1 1 0 01154.2 49a2.11 2.11 0 011.12.38 8.47 8.47 0 004.23 1.21c2.77 0 5.12-1.21 5.12-4.27 0-1.91-2.29-3.12-4.77-4.42-3.12-1.62-6.62-3.41-6.62-6.72 0-4.17 3.18-6.58 7.16-6.58a11.38 11.38 0 015.41 1.4 1.68 1.68 0 01.89 1.46 1.18 1.18 0 01-1.11 1.25 2.61 2.61 0 01-1.21-.58 9.41 9.41 0 00-4.49-1.13zM85.92 51.62a1.08 1.08 0 01-1.12 1.07 1.06 1.06 0 01-1.1-1.1V41c0-3 2.07-5.35 6-5.35a12.67 12.67 0 014.9.88 1.29 1.29 0 01.83 1.07.89.89 0 01-1 .92c-.92 0-2.16-.71-4.08-.71-2.78 0-4.44 1.36-4.44 3.4zM72.58 40.77v10.88a1 1 0 01-1.1 1 1.06 1.06 0 01-1.1-1.1V35.67c.13-5 3.51-7.56 7.07-7.56h4.27c1 0 1.46.4 1.46 1.16s-.5 1.08-1.46 1.08h-4.18c-2.67 0-4.92 1.67-4.92 5.36v2.85h7.34a1.11 1.11 0 110 2.21zM131.47 43a8.71 8.71 0 00-3.19-5.57 8.08 8.08 0 00-5.28-1.8 8.46 8.46 0 00-2.76 16.44 9.08 9.08 0 005.58 0 3.36 3.36 0 001.77-.95 1.15 1.15 0 000-1.41 1.33 1.33 0 00-1-.39.9.9 0 00-.4.13l-.14.07c-.3.13-.58.25-.86.34a6.22 6.22 0 01-3.38.25 5.91 5.91 0 01-3.09-1.65 6.25 6.25 0 01-1.56-2.64v-.14h13.11a1.15 1.15 0 00.92-.36 3.15 3.15 0 00.28-2.32zm-2.26.43H117v-.12a6.43 6.43 0 012.52-4.23 5.69 5.69 0 013.6-1.12 6 6 0 013.88 1.42 5.75 5.75 0 012.17 3.95zM112.25 43a8.73 8.73 0 00-3.18-5.57 8.1 8.1 0 00-5.25-1.81 8.46 8.46 0 00-2.76 16.44 9.11 9.11 0 005.59 0 3.44 3.44 0 001.77-.95 1.18 1.18 0 000-1.41 1.33 1.33 0 00-1-.39.9.9 0 00-.4.13l-.15.07c-.3.13-.58.25-.85.34a6.26 6.26 0 01-3.39.25 5.91 5.91 0 01-3.09-1.65A6.23 6.23 0 0198 45.8v-.14h13a1.15 1.15 0 00.92-.36 3.1 3.1 0 00.33-2.3zm-2.26.43H97.76v-.12a6.43 6.43 0 012.52-4.23A5.65 5.65 0 01103.9 38a6 6 0 013.93 1.41 5.78 5.78 0 012.17 3.92zM64.27 20a1.32 1.32 0 01-.1.53 1.26 1.26 0 01-.28.4 1.23 1.23 0 01-.4.27 1.28 1.28 0 01-.48.09 1.19 1.19 0 01-.51-.1 1.24 1.24 0 01-.67-.68 1.44 1.44 0 01-.09-.51 1.29 1.29 0 01.1-.53 1.3 1.3 0 01.28-.41 1.2 1.2 0 01.4-.26 1.37 1.37 0 01.49-.09 1.28 1.28 0 01.48.09 1.2 1.2 0 01.4.26 1.3 1.3 0 01.28.41 1.29 1.29 0 01.1.53zM64 20a1.18 1.18 0 00-.08-.43 1 1 0 00-.21-.34.93.93 0 00-.31-.23 1 1 0 00-.78 0 .87.87 0 00-.32.22 1 1 0 00-.21.34A1.18 1.18 0 0062 20a1.35 1.35 0 00.07.41 1.27 1.27 0 00.2.34 1 1 0 00.31.23 1 1 0 00.42.08 1 1 0 00.4-.06 1.34 1.34 0 00.31-.22 1.08 1.08 0 00.21-.34A1.18 1.18 0 0064 20zm-1.25.74h-.23v-1.43h.54a.7.7 0 01.39.09.37.37 0 01.13.32.32.32 0 01-.11.28.47.47 0 01-.26.11l.4.63h-.27l-.34-.61h-.22zm.27-.81h.12a.2.2 0 00.11 0 .23.23 0 00.07-.07.21.21 0 000-.12.15.15 0 000-.1.16.16 0 00-.08-.06.29.29 0 00-.1 0h-.39V20zm124.73 9.98a1.29 1.29 0 01-.1.53 1.33 1.33 0 01-.27.41 1.25 1.25 0 01-.41.26 1.29 1.29 0 01-.48.1 1.36 1.36 0 01-.51-.1 1.28 1.28 0 01-.4-.27 1.36 1.36 0 01-.26-.41 1.27 1.27 0 01-.1-.52 1.24 1.24 0 01.1-.52 1.2 1.2 0 01.28-.41 1.31 1.31 0 01.4-.26 1.19 1.19 0 01.49-.1 1.12 1.12 0 01.48.1 1.25 1.25 0 01.41.26 1.33 1.33 0 01.27.41 1.24 1.24 0 01.1.52zm-.27 0a1.22 1.22 0 00-.08-.43 1.08 1.08 0 00-.21-.34 1 1 0 00-.31-.21 1 1 0 00-.78 0 1 1 0 00-.32.21 1.08 1.08 0 00-.21.34 1.21 1.21 0 00-.07.43 1.16 1.16 0 00.07.42 1 1 0 00.19.34 1.24 1.24 0 00.32.23 1.07 1.07 0 00.41.08.85.85 0 00.39-.08.84.84 0 00.31-.22.93.93 0 00.21-.33 1.23 1.23 0 00.08-.44zm-1.24.74H186v-1.43h.54a.65.65 0 01.39.1.36.36 0 01.13.31.37.37 0 01-.1.29.46.46 0 01-.27.1l.4.63h-.26l-.37-.61h-.22zm.26-.81h.23l.07-.07a.21.21 0 000-.12.15.15 0 00-.1-.16.19.19 0 00-.1 0h-.39v.42zM59.61 17.73c2.54 2.54-4.51 13.71-5.7 14.9s-4.21.1-6.76-2.44-3.63-5.57-2.44-6.76 12.36-8.24 14.9-5.7zM24 20.42c-3.88-2.2-9.4-4.65-11.16-2.9s.76 7.43 3 11.32A23.9 23.9 0 0124 20.42z" transform="translate(-12.2 -16.92)"/><path class="cls-1" d="M55.73 31.76a2.77 2.77 0 01-.28 2.79c-1.36 1.35-5-.09-8.31-3.23-.23-.2-.46-.42-.68-.64a14.68 14.68 0 01-2.72-3.63c-1.15-2.07-1.44-3.9-.57-4.78a2.39 2.39 0 012.17-.43c.6-.39 1.32-.81 2.1-1.25a23.08 23.08 0 109.46 9.15c-.41.75-.81 1.43-1.17 2.02z" transform="translate(-12.2 -16.92)"/></svg>