<svg xmlns="http://www.w3.org/2000/svg" width="72.208" height="72.181"><g id="Group_4399" data-name="Group 4399" transform="translate(-1654.69 -4293.159)"><g id="freshrss" transform="translate(1654.69 4293.159)"><path id="Path_29350" data-name="Path 29350" d="M50.333 236.634a23.639 23.639 0 0123.647 23.634v.487h5.527v-.655A29.393 29.393 0 0050.1 230.71h-.442v5.932zM20.71 259.97h5.976a23.626 23.626 0 0122.976-23.32v-5.932A29.38 29.38 0 0020.71 259.97zm29.69 23.94v5.571a29.4 29.4 0 0029.093-28.726H73.98A23.665 23.665 0 0150.4 283.91z" transform="translate(-13.931 -224.268)" fill="none"/><path id="Path_29351" data-name="Path 29351" d="M51.8 244.816v-6.536a23.611 23.611 0 00-22.98 23.32h6.5a17.422 17.422 0 0116.48-16.784zm.936 34.831h-.2v5.9a23.665 23.665 0 0023.581-23.155h-5.9a17.5 17.5 0 01-17.485 17.255z" transform="translate(-16.064 -225.898)" fill="#b5d0ee"/><path id="Path_29352" data-name="Path 29352" d="M47.979 287.715v6.968a36.1 36.1 0 0035.732-35.694h-6.632a29.407 29.407 0 01-29.1 28.726zm-.737-58.763v-6.442A36.106 36.106 0 0011.51 258.2h6.779a29.38 29.38 0 0128.953-29.252z" transform="translate(-11.51 -222.502)" fill="#b5d0ee"/><path id="Path_29353" data-name="Path 29353" d="M60.917 244.788a17.428 17.428 0 0117.435 17.427v.165h5.9v-.487A23.639 23.639 0 0060.6 238.26h-.67v6.54c.361 0 .678-.008.987-.008z" transform="translate(-24.25 -225.894)" fill="#0062c2"/><path id="Path_29354" data-name="Path 29354" d="M57.377 222.5h-.368v6.442h.442a29.412 29.412 0 0129.4 29.385v.659h6.632v-.392A36.1 36.1 0 0057.377 222.5zm.435 26.741a5.457 5.457 0 00-.8.039 9.182 9.182 0 00-8.382 8.92v.228a9.152 9.152 0 009.115 9.188h.066a9.2 9.2 0 009.16-8.631v-.557a9.133 9.133 0 00-9.16-9.188z" transform="translate(-21.276 -222.5)" fill="#0062c2"/></g></g></svg>