<svg xmlns="http://www.w3.org/2000/svg" id="Group_4400" data-name="Group 4400" width="104.303" height="100.001"><path id="Path_29355" data-name="Path 29355" d="M-96.054-4.361c-.948-2.472-1.907-4.94-2.84-7.418-1-2.66-1.68-5.494-3.047-7.948a58.73 58.73 0 00-5.293-7.094c-3.109-4-6.174-8.037-9.39-11.949-2.382-2.9-5-5.605-7.47-8.429-2.276-2.6-4.488-5.249-6.763-7.847-.691-.789-1.518-1.456-2.243-2.217-1.574-1.653-3.183-3.279-4.653-5.022-.606-.718-.144-1.547.483-2.148 1.287-1.231 2.561-2.478 3.9-3.648 2.23-1.945 4.5-3.839 6.769-5.743 1.466-1.232 1.475-1.222.665-2.889a5.26 5.26 0 00-.427-.826 1.44 1.44 0 01.42-2.247 36.685 36.685 0 013.745-2.4q4.983-2.68 10.045-5.214c1.435-.72 2.948-1.287 4.434-1.9 5.183-2.147 9.584-5.582 14.27-8.558 3.278-2.082 6.769-3.828 10.174-5.709a1.573 1.573 0 012 .459c.977.955 1.975 1.887 3.132 2.988 1.295-.347 2.768-.78 4.26-1.134q6.143-1.456 12.3-2.852a10.869 10.869 0 011.843-.249 2.209 2.209 0 012.5 1.718c.955 2.8 1.964 5.585 2.9 8.392q2.352 7.04 4.637 14.1c1.175 3.649 2.287 7.319 3.453 11.065 4 .571 8.154 1.262 9.5 6.2a9.853 9.853 0 01-4.65 11.25c.307 1.324.615 2.753.972 4.17 1.726 6.845 3.442 13.691 5.215 20.523.378 1.459.977 2.86 1.475 4.287v1.12a11.566 11.566 0 01-2.876 1.081 78.826 78.826 0 00-11.632 2.3c-4.741 1.18-9.516 2.234-14.225 3.532-4.591 1.266-9.126 2.737-13.666 4.179-5.815 1.852-11.617 3.759-17.422 5.658-.118.039-.172.275-.256.419zm32.415-44.089c-2.24.691-4.464 1.442-6.724 2.059a6.59 6.59 0 01-7.853-3.715c-1.471-3.684-.525-7.555 2.584-9.073a43.9 43.9 0 014.607-1.943c5.711-2.021 11.443-3.985 17.167-5.97l4.63-1.087c-2.992-11.537-6.585-22.616-10.34-33.731-5.165 1.333-10.2 2.4-15.082 3.946-7.248 2.294-14.4 4.888-21.568 7.433-2.9 1.03-5.751 2.205-8.575 3.427-3.12 1.349-6.243 2.715-9.256 4.282-2.877 1.5-5.614 3.263-8.392 4.9 2.076 4.48 4.032 8.614 5.908 12.785 1.062 2.36 1.988 4.782 2.982 7.173 2.491 5.988 5.054 11.947 7.451 17.973 1.276 3.208 2.285 6.523 3.381 9.8 1.392 4.163 2.685 8.359 4.141 12.5 1.164 3.307 2.508 6.552 3.784 9.854A443.259 443.259 0 01-37.1-23.451l-10.539-39.584-4.394 1.2-2.993 1.147a14.491 14.491 0 00-1.417.331c-3.449 1.162-6.891 2.348-10.339 3.513-1.58.534-3.185 1-4.751 1.568-1.087.4-1.429 1.331-1.129 2.58.3 1.266 1.23 1.266 2.187 1.052 1.206-.27 2.4-.6 3.579-.981 2.644-.855 5.273-1.756 7.907-2.641.8-.268 1.7-.488 2.167.376a3.784 3.784 0 01.618 2.521 3.772 3.772 0 01-1.985 1.693c-1.772.838-3.628 1.496-5.45 2.226zm-41.846 19.293A424.623 424.623 0 00-123.766-71.9l-9.383 8.787a287.484 287.484 0 0127.665 33.956zm63.477-24.489a28.934 28.934 0 003-3.526c2.29-3.8-.859-9.562-5.271-9.973-2.723-.254-5.112.751-7.575 1.588-3.635 1.235-7.291 2.412-10.928 3.641-3.692 1.248-7.408 2.437-11.034 3.855a5.867 5.867 0 00-2.718 2.35 4.694 4.694 0 00.691 5.705 5.2 5.2 0 005.66 1.89c1.43-.4 2.8-1 4.217-1.461 2.589-.847 5.2-1.629 7.772-2.52a1.477 1.477 0 00.857-1.086c-.072-.743-.7-.938-1.409-.693-.176.06-.339.156-.516.211q-5.581 1.744-11.165 3.481a3.776 3.776 0 01-4.636-2.276 3.662 3.662 0 012.426-4.254c1.283-.446 2.63-.708 3.922-1.134Q-59.45-60.9-50.2-64c1.058-.352 2.106-.742 3.175-1.055a4.94 4.94 0 015.836 2.066c1.451 2.485 1.227 4.645-.709 6.571a5.757 5.757 0 01-.848.6zm-40.6-47.031l-6.33 3.113.2.517 7.644-2.191zm37.776 37.3l1.85 5.777c2.109-2.34 1.29-5.041-1.852-5.773z" transform="translate(138.036 104.362)" fill="#212020"/><path id="Path_29356" data-name="Path 29356" d="M-25.983-57.737l4.393-1.2 10.537 39.583A443.259 443.259 0 00-68.747-3.746c-1.275-3.3-2.62-6.546-3.784-9.854-1.456-4.14-2.75-8.336-4.141-12.5-1.1-3.278-2.1-6.594-3.381-9.8-2.4-6.026-4.96-11.985-7.451-17.973-.994-2.391-1.92-4.812-2.982-7.173-1.876-4.17-3.832-8.3-5.908-12.785 2.778-1.635 5.515-3.4 8.392-4.9 3.013-1.568 6.136-2.933 9.256-4.282 2.825-1.222 5.677-2.4 8.575-3.427C-63-88.983-55.849-91.577-48.6-93.871c4.883-1.546 9.917-2.613 15.082-3.946 3.755 11.115 7.348 22.194 10.34 33.731L-27.81-63c-.866-2.713-1.742-5.424-2.6-8.141q-1.92-6.1-3.816-12.217a1.53 1.53 0 00-1.92-1.262c-2.013.358-4.072.522-6.048 1.02-9.061 2.284-18.158 4.454-26.983 7.583-2.8.992-5.688 1.78-8.387 2.994-3.144 1.414-6.123 3.194-8.983 4.713l18.823 55.57c16.241-5.7 32.448-11 49.341-14.754-.516-1.94-1.029-3.842-1.527-5.748-1.471-5.631-2.965-11.255-4.391-16.9-.635-2.512-1.126-5.058-1.682-7.595z" transform="translate(111.987 100.268)" fill="#fbfbfb"/><path id="Path_29357" data-name="Path 29357" d="M-9.526-35.755c.556 2.533 1.047 5.083 1.682 7.6 1.425 5.642 2.919 11.267 4.391 16.9.5 1.906 1.011 3.808 1.527 5.748-16.893 3.75-33.1 9.054-49.341 14.754l-18.818-55.572c2.859-1.52 5.839-3.3 8.983-4.713 2.7-1.214 5.588-2 8.387-2.994 8.825-3.129 17.922-5.3 26.983-7.583 1.976-.5 4.035-.662 6.048-1.02a1.53 1.53 0 011.92 1.262q1.9 6.11 3.816 12.217c.855 2.717 1.73 5.428 2.6 8.141-5.724 1.985-11.455 3.949-17.167 5.97a43.9 43.9 0 00-4.612 1.945c-3.108 1.518-4.054 5.389-2.584 9.073a6.59 6.59 0 007.853 3.715c2.261-.616 4.484-1.368 6.724-2.059.946 6.221-5.224 11.323-10.989 11.57-3.809.163-6.751-1.572-9.295-4.3a19.142 19.142 0 01-4.638-19.126c1.624-5.9 7.325-8.46 13.358-8.014 2.454.181 4.862.937 7.315 1.192a4.711 4.711 0 004.883-2.435c1.063-1.942.582-3.815-.551-5.622-1.578-2.515-4.187-3.344-6.777-3.768a28.791 28.791 0 00-19.354 3.464 23.2 23.2 0 00-11.263 15.034c-1.859 7.24-.3 14.1 2.894 20.556A25.072 25.072 0 00-46.73-3.754c3.991 2.61 8.25 4.315 12.9 4.026 7.922-.491 14.931-3.131 19.878-9.94A22.077 22.077 0 00-9.574-22.08a25.466 25.466 0 00-2.946-12.528z" transform="translate(95.53 78.286)" fill="#72659f"/><path id="Path_29358" data-name="Path 29358" d="M5.59-18.923A25.466 25.466 0 018.536-6.394 22.077 22.077 0 014.159 6.017c-4.947 6.809-11.956 9.45-19.878 9.94-4.651.288-8.91-1.416-12.9-4.026a25.072 25.072 0 01-8.822-10.065c-3.2-6.455-4.752-13.316-2.894-20.556a23.2 23.2 0 0111.263-15.034 28.791 28.791 0 0119.357-3.465c2.591.424 5.2 1.253 6.777 3.768 1.134 1.807 1.614 3.68.551 5.622a4.711 4.711 0 01-4.885 2.436c-2.454-.254-4.861-1.011-7.315-1.192-6.033-.445-11.733 2.109-13.358 8.014A19.142 19.142 0 00-23.307.585c2.543 2.724 5.486 4.46 9.295 4.3C-8.247 4.634-2.077-.468-3.023-6.689-1.2-7.419.654-8.076 2.426-8.911A3.772 3.772 0 004.411-10.6a3.784 3.784 0 00-.618-2.521c-.464-.864-1.368-.644-2.167-.376-2.634.885-5.263 1.786-7.907 2.641-1.176.38-2.373.711-3.579.981-.957.215-1.884.214-2.187-1.052-.3-1.249.042-2.184 1.129-2.58 1.566-.571 3.171-1.034 4.751-1.568 3.449-1.165 6.89-2.351 10.339-3.513a14.49 14.49 0 011.418-.335z" transform="translate(77.42 62.6)" fill="#fcfcfc"/><path id="Path_29359" data-name="Path 29359" d="M-97.321 25.074a287.484 287.484 0 00-27.665-33.953l9.383-8.787a424.619 424.619 0 0118.282 42.74z" transform="translate(129.873 50.131)" fill="#fafaf9"/><path id="Path_29360" data-name="Path 29360" d="M59.61 8.455l-.743-2.168a5.757 5.757 0 00.848-.6c1.936-1.926 2.16-4.086.709-6.571a4.94 4.94 0 00-5.836-2.066c-1.069.313-2.117.7-3.175 1.055q-9.252 3.08-18.506 6.152c-1.292.426-2.639.687-3.922 1.134a3.662 3.662 0 00-2.426 4.254 3.776 3.776 0 004.636 2.276L42.36 8.44c.177-.055.34-.151.516-.211.708-.245 1.337-.049 1.409.693A1.477 1.477 0 0143.427 10c-2.573.892-5.184 1.673-7.772 2.52-1.414.462-2.786 1.064-4.217 1.461a5.2 5.2 0 01-5.66-1.89 4.694 4.694 0 01-.691-5.705A5.867 5.867 0 0127.8 4.04c3.631-1.418 7.347-2.607 11.039-3.855 3.638-1.229 7.293-2.406 10.928-3.641 2.463-.837 4.852-1.841 7.575-1.588 4.412.411 7.561 6.178 5.271 9.973a28.933 28.933 0 01-3.003 3.526z" transform="translate(36.419 42.26)" fill="#c5c0bc"/><path id="Path_29361" data-name="Path 29361" d="M-.6-94.524l1.511 1.44-7.644 2.191-.2-.517z" transform="translate(56.024 98.208)" fill="#e9e8e8"/><path id="Path_29362" data-name="Path 29362" d="M110.855 5.1c3.142.732 3.961 3.433 1.85 5.777z" transform="translate(-17.653 35.892)" fill="#ebeaef"/></svg>