<svg xmlns="http://www.w3.org/2000/svg" width="98" height="98"><defs><radialGradient id="radial-gradient" cx=".533" cy=".538" r=".5" gradientUnits="objectBoundingBox"><stop offset=".3" stop-color="#9672b2"/><stop offset=".7" stop-color="#825ea4"/><stop offset="1" stop-color="#79549d"/></radialGradient></defs><g id="gibbon-logo-flat" transform="translate(0 -.045)"><path id="backgroundrect" transform="translate(0 .045)" fill="none" d="M0 0h98v98H0z"/><g id="Group_4401" data-name="Group 4401" transform="translate(7.552 7.208)"><circle id="Inner_Circle" cx="41.106" cy="41.106" r="41.106" fill="url(#radial-gradient)"/><g id="Gibbon_Isolate" transform="translate(14.227 7.68)"><g id="svg_5"><path id="svg_6" d="M335.229 234.956c1.151 1.282 3.358 3.5 4.215 4.242s2.995 2.734 3.523 3.276a18.019 18.019 0 001.446 1.672c.295.137 3.913-.069 4.42-.021s2.481.713 3.564.959 4.235 1.035 5.565.864a32.821 32.821 0 005.757-2.159c.9-.425 3.975-1.652 5.263-2.138a20.743 20.743 0 003.543-1.494 13.242 13.242 0 013.475-1.466 2.935 2.935 0 011.953.171c.349.281.343 1.1.281 1.617s-.4 1.131-.713 1.165-.665-.24-.5-.466-.069-.631-.6-.514-1.686.3-2.118.466-1.275.973-2.042 1.336a47.871 47.871 0 00-5.208 2.94c-1.425 1.021-4.16 2.707-4.756 3.091s-.788.295-1.85.946a24.505 24.505 0 01-3.166 1.844c-.939.35-2.426.747-2.426.747a6.14 6.14 0 001.885.439 19.656 19.656 0 014.475.781c1.131.4 3.29 2.865 4.071 2.981s.843.507 1.871-.041a22.134 22.134 0 013.728-1.645c1.467-.466 3.379-1.268 3.7-1.3s1.46.843 2.741 1.186a18.128 18.128 0 002.447.637c.411.007 1.754.082 1.919.514s.507.713.144.843-.274.35-.651.24a.9.9 0 00-1.206.288 1.922 1.922 0 01-1.528.74 2.9 2.9 0 01-1.617-.377c-.685-.315-1.809-.884-2.31-.692s-2.364 2.447-4.208 3.214a10.136 10.136 0 01-4.934 1.035 25.076 25.076 0 01-3.584-1.446 6.4 6.4 0 00-1.953-.171 34.314 34.314 0 004.208 2.686 14.323 14.323 0 004.907.624c1.014-.137 2.741-.781 3.385-.37s.843.5.959 1.035a4.176 4.176 0 001.1 1.809c.288.137 1.288.829 1.062 1.323s-1.364 1.165-1.96.9-1.131-1.055-1.638-1.521a1.367 1.367 0 00-1.686-.35 20.1 20.1 0 01-4.88 1.419c-1.316 0-4.242-.377-5.167-1.1s-3.865-2.652-4.8-3.612a21.823 21.823 0 01-2.22-2.858c-.541-.781-.322-1.521-.864-1.645s-4.592-.9-6-1.357a11.267 11.267 0 01-4.215-2.933c-.665-.9-1.213-1.268-1.6-1.206s-1.693.959-2.6.726-1.645-1.761-2.111-3.228-.583-1.994-.192-2.474 1.117-1.4 1.117-1.4-1.508-2.282-2.515-3.879-3.646-4.043-4.523-5.935a65.2 65.2 0 00-5.023-7.71c-1.33-1.8-2.6-3.865-3.146-4.235s-2.125-.843-2.214-1.3-.11-.946.178-1.055 1.048.836 1.186.541-.925-1.378-1.247-1.583-1.693-2.316-1.528-2.543a2.374 2.374 0 01.857-.569 3.088 3.088 0 01.829.021c.24-.007.836-.4.946-.11s1.391 2.186 1.583 2.686a15.463 15.463 0 001.857 2.337c.583.685.8 1.261 1.384 1.939s3.646 4.043 5.167 5.688 3.536 3.529 4.8 4.941z" transform="translate(-317.801 -217.258)" fill="#fff"/></g></g><g id="gibbonedu.org" transform="translate(22.917 58.801)" fill="#fff"><path id="svg_7" d="M452.166 967.353c.027.445.027.754.027 1.5 0 1.487-.13 2.022-.6 2.5-.521.548-1.213.692-3.269.692a5.656 5.656 0 01-2.227-.274c-1.117-.466-1.5-1.3-1.5-3.31a12.471 12.471 0 01.206-3.427 2.261 2.261 0 011.645-1.679 8.1 8.1 0 012.07-.158c1.782 0 2.227.069 2.817.418s.809.966.836 2.268h-1.679c-.055-1.158-.26-1.288-2.056-1.288-1.247 0-1.693.144-1.919.624a5.638 5.638 0 00-.206 2.344 6.7 6.7 0 00.192 2.46c.219.48.706.624 2.056.624.959 0 1.439-.089 1.652-.315a2.058 2.058 0 00.343-1.391l-.034-.35h-2.172v-1.24z" transform="translate(-444.6 -963.2)"/><path id="svg_8" d="M569.467 965.647H568V964.4h1.474v1.247zm0 7.436H568V967h1.474v6.086z" transform="translate(-559.543 -964.318)"/><path id="svg_9" d="M606.607 964.3h1.473v3.481l.027.014c.274-.692.809-.966 1.919-.966a2.335 2.335 0 011.672.521c.459.445.6 1.1.6 2.591 0 1.4-.117 1.94-.521 2.46a2.176 2.176 0 01-1.878.665 1.71 1.71 0 01-1.864-1.042h-.027l.069.966H606.6v-8.69zm1.494 5.462c0 1.85.185 2.152 1.371 2.152 1.117 0 1.329-.315 1.329-1.967 0-1.617-.206-1.939-1.288-1.939s-1.413.411-1.413 1.754z" transform="translate(-595.498 -964.225)"/><path id="svg_10" d="M703.707 964.3h1.474v3.481l.027.014c.274-.692.809-.966 1.919-.966a2.334 2.334 0 011.672.521c.459.445.6 1.1.6 2.591 0 1.4-.116 1.94-.521 2.46a2.176 2.176 0 01-1.878.665 1.71 1.71 0 01-1.864-1.042h-.036l.069.966H703.7v-8.69zm1.508 5.462c0 1.85.178 2.152 1.371 2.152 1.11 0 1.323-.315 1.323-1.967 0-1.617-.206-1.939-1.288-1.939s-1.412.411-1.412 1.754z" transform="translate(-685.943 -964.225)"/><path id="svg_11" d="M802.819 1001.614c.459.432.624 1.083.624 2.46 0 2.707-.493 3.269-2.865 3.269-1.432 0-2.124-.219-2.488-.822a4.554 4.554 0 01-.391-2.529c0-1.33.185-1.981.651-2.4.432-.377.98-.494 2.268-.494 1.242.009 1.804.139 2.201.516zm-3.618 2.556c0 1.782.171 2.035 1.357 2.035 1.234 0 1.391-.26 1.391-2.1 0-1.6-.185-1.85-1.384-1.85-1.179-.004-1.365.245-1.365 1.915z" transform="translate(-773.501 -998.503)"/><path id="svg_12" d="M897.194 1001.182l-.055 1.028h.027a1.737 1.737 0 011.892-1.11 2.045 2.045 0 011.926.8 2.309 2.309 0 01.206 1.227v4.146h-1.473v-3.66c0-1.1-.185-1.316-1.083-1.316-.987 0-1.432.418-1.432 1.371v3.612h-1.5v-6.086h1.494z" transform="translate(-864.785 -998.503)"/></g><g id="Gibbon_1_" transform="translate(25.117 69.293)" fill="#fff"><path id="svg_13" d="M479.03 1135.72a1.14 1.14 0 01-.13.658c-.164.254-.48.37-1.028.37s-.843-.1-.973-.336a1.053 1.053 0 01-.1-.548h.377c.014.473.11.548.713.548.583 0 .754-.144.754-.658v-.542h-.021a.442.442 0 01-.26.281 1.51 1.51 0 01-.6.1 1.129 1.129 0 01-.788-.24c-.206-.206-.274-.473-.274-1.1 0-.685.048-.953.247-1.172a1.057 1.057 0 01.85-.281c.459 0 .7.116.843.411l.007-.007-.021-.363h.391v2.878zm-1.919-1.576c0 .946.1 1.1.754 1.1.617 0 .761-.206.761-1.124 0-.8-.137-.987-.768-.987s-.754.178-.754 1.007z" transform="translate(-476.7 -1131.669)"/><path id="svg_14" d="M519.691 1116.945h-.391v-.445h.391zm0 3.42h-.391v-2.707h.391z" transform="translate(-516.38 -1116.486)"/><path id="svg_15" d="M533.5 1116.5h.391v1.508l.014.007a.408.408 0 01.233-.281 1.606 1.606 0 01.651-.116c.795 0 1.048.35 1.048 1.425 0 1.028-.274 1.364-1.1 1.364-.466 0-.706-.11-.857-.377l.014.336h-.391v-3.866zm.411 2.426c0 .973.11 1.138.774 1.138.6 0 .733-.185.733-1.055s-.13-1.062-.726-1.062c-.617.007-.788.212-.788.98z" transform="translate(-529.607 -1116.486)"/><path id="svg_16" d="M575.1 1116.5h.391v1.508l.014.007a.407.407 0 01.233-.281 1.606 1.606 0 01.651-.116c.795 0 1.048.35 1.048 1.425 0 1.028-.274 1.364-1.1 1.364-.466 0-.706-.11-.857-.377l.014.336h-.391v-3.866zm.411 2.426c0 .973.11 1.138.774 1.138.6 0 .733-.185.733-1.055s-.13-1.062-.726-1.062c-.63.007-.788.212-.788.98z" transform="translate(-568.356 -1116.486)"/><path id="svg_17" d="M617.892 1134.3c0 1.151-.206 1.384-1.2 1.384s-1.193-.233-1.193-1.412c0-1.138.206-1.371 1.2-1.371s1.193.223 1.193 1.399zm-1.864-.891a1.82 1.82 0 00-.116.864c0 .973.069 1.069.781 1.069s.788-.1.788-1.055-.069-1.062-.781-1.062c-.4.002-.59.057-.672.18z" transform="translate(-605.988 -1131.761)"/><path id="svg_18" d="M658.284 1132.841v.377c.137-.295.391-.418.9-.418a.941.941 0 01.877.349 1.232 1.232 0 01.1.637v1.761h-.391v-1.727a.993.993 0 00-.062-.473c-.069-.151-.24-.206-.576-.206-.6 0-.822.219-.822.781v1.624h-.41v-2.707z" transform="translate(-645.482 -1131.669)"/><path id="svg_19" d="M700.664 1134.826l.007.11c0 .555-.3.747-1.165.747-.98 0-1.206-.261-1.206-1.4 0-1.117.233-1.384 1.213-1.384.665 0 .932.13 1.062.514a2.669 2.669 0 01.082.953h-1.946c.007.857.1.987.781.987s.768-.055.761-.521h.411zm-.4-.774a1.6 1.6 0 00-.055-.576c-.069-.2-.24-.267-.679-.267-.679 0-.8.13-.8.843h1.535z" transform="translate(-683.113 -1131.763)"/><path id="svg_20" d="M741.63 1120.179h-.391l.021-.356c-.137.281-.4.391-.884.391a1.069 1.069 0 01-.822-.274 1.685 1.685 0 01-.254-1.158c0-1.014.26-1.357 1.049-1.357a1.629 1.629 0 01.685.13.419.419 0 01.206.247l.007-.007v-1.495h.391v3.879zm-1.741-2.269a1.315 1.315 0 00-.185.857c0 .925.137 1.117.754 1.117a.849.849 0 00.6-.164c.123-.11.178-.445.178-.973 0-.768-.171-.98-.781-.98a.867.867 0 00-.566.143z" transform="translate(-721.303 -1116.3)"/><path id="svg_21" d="M784.007 1136.014h-.391l.027-.356-.014-.014c-.137.281-.432.4-.891.4-.665 0-.939-.281-.939-.946v-1.8h.391v1.8c0 .487.123.61.6.61.617 0 .822-.206.822-.857v-1.549H784v2.707z" transform="translate(-760.891 -1132.135)"/><path id="svg_22" d="M822.559 1165.728h-.459v-.528h.459z" transform="translate(-798.429 -1161.849)"/><path id="svg_23" d="M838.592 1134.3c0 1.151-.206 1.384-1.2 1.384s-1.192-.233-1.192-1.412c0-1.138.206-1.371 1.2-1.371s1.192.223 1.192 1.399zm-1.864-.891a1.82 1.82 0 00-.116.864c0 .973.068 1.069.781 1.069s.788-.1.788-1.055-.068-1.062-.781-1.062c-.4.002-.59.057-.672.18z" transform="translate(-811.563 -1131.761)"/><path id="svg_24" d="M878.891 1132.562l-.041.315.014.007a.772.772 0 01.768-.384c.514 0 .754.24.754.767v.185h-.4v-.219c0-.281-.13-.4-.445-.4a.588.588 0 00-.576.281 1.234 1.234 0 00-.069.535v1.624h-.4v-2.707h.391z" transform="translate(-850.964 -1131.39)"/><path id="svg_25" d="M912.73 1135.72a1.141 1.141 0 01-.13.658c-.164.254-.48.37-1.028.37s-.843-.1-.973-.336a1.053 1.053 0 01-.1-.548h.377c.014.473.11.548.713.548.583 0 .754-.144.754-.658v-.542h-.021a.443.443 0 01-.26.281 1.51 1.51 0 01-.6.1 1.129 1.129 0 01-.788-.24c-.206-.206-.274-.473-.274-1.1 0-.685.048-.953.247-1.172a1.057 1.057 0 01.85-.281c.459 0 .7.116.843.411l.007-.007-.021-.363h.391v2.878zm-1.919-1.576c0 .946.1 1.1.754 1.1.617 0 .761-.206.761-1.124 0-.8-.137-.987-.768-.987s-.754.178-.754 1.007z" transform="translate(-880.677 -1131.669)"/></g></g></g></svg>