<svg xmlns="http://www.w3.org/2000/svg" width="78.186" height="85.771"><g id="gnusocial" transform="translate(-3.33 -.5)"><path id="Path_29363" data-name="Path 29363" d="M57.364 51.723c-3.257 19.031-33.5 19.124-33.5 19.124s18.508-5.736 17.248-19.513c-1.183-12.584 16.252.389 16.252.389z" transform="translate(6.984 15.424)" fill="#a22430"/><rect id="Rectangle_1290" data-name="Rectangle 1290" width="78.186" height="67.639" rx="8.42" transform="translate(3.33 .5)" fill="#a22430"/><path id="Path_29364" data-name="Path 29364" d="M39.908 35.325h15.761c0 7.559-3.2 19.339-18.2 18.575S19.149 41.343 19 33.4s2.319-17.744 20-17.3a16.3 16.3 0 0116.548 14.226l-7.3-.134s-1.662-7.518-10.48-7.183-10 1.93-10 11.284 4.1 12.571 10.373 12.812c9.877.375 8.979-5.133 8.979-5.133l-4.624.268z" transform="translate(5.329 5.3)" fill="#fff"/><path id="Path_29365" data-name="Path 29365" d="M43.354 7.371C44.546 6.3 49.693 12.558 49.827 15c.188 3.578.281 10.092-10.386 10-6.848 0-7.17-4.744-7.17-4.744s-.188-4.026 3.529-4.026 2.493 2.68 5.441 2.68c4.423 0 3.739-1.782 3.846-4.088.255-5.254-2.922-6.3-1.729-7.371z" transform="translate(9.844 2.296)" fill="#fff"/><path id="Path_29366" data-name="Path 29366" d="M25.927 7.377C24.734 6.3 19.44 11.4 19.44 15s-.281 10.092 10.386 10c6.862 0 7.183-4.744 7.183-4.744s.188-4.021-3.538-4.021-2.493 2.68-5.441 2.68c-4.423 0-3.726-1.782-3.846-4.088-.255-5.254 2.935-6.3 1.742-7.371z" transform="translate(5.48 2.29)" fill="#fff"/></g></svg>