<svg xmlns="http://www.w3.org/2000/svg" id="go_cardless" data-name="go cardless" width="182.89" height="19.58"><path d="M18.55 49.79c-5.93 0-10-4.14-10-9.67a9.73 9.73 0 019.91-9.83 10.42 10.42 0 017.47 2.6l-2.6 3.17a7 7 0 00-4.95-2A5.73 5.73 0 0012.86 40a5.68 5.68 0 005.77 6 7.05 7.05 0 004-1.14v-2.71h-4.24v-3.57h8.2v8.2a12.38 12.38 0 01-8 3m20.31-19.5A9.71 9.71 0 1048.61 40a9.51 9.51 0 00-9.75-9.71zM44.39 40a5.56 5.56 0 01-5.53 5.85A5.62 5.62 0 0133.34 40a5.55 5.55 0 015.52-5.85A5.63 5.63 0 0144.39 40zm16 9.75c-5.28 0-9.26-4.31-9.26-9.75s3.9-9.75 9.34-9.75a9.6 9.6 0 017.23 3l-1.46 1.54a7.72 7.72 0 00-5.77-2.6c-4.06 0-7.15 3.33-7.15 7.8s3.09 7.8 7.15 7.8a7.8 7.8 0 005.93-2.68l1.39 1.38a9.48 9.48 0 01-7.4 3.25M79.57 30.7h-1.95l-8.45 18.77h2.11l2.19-5h10.08l2.19 5H88zm-5.2 11.94l4.22-9.51 4.23 9.51zm26.24-.89c2.92-.49 5-2.36 5-5.45 0-3.41-2.6-5.6-6.67-5.6H91v18.77h2v-7.32h5.2l5.28 7.32h2.6zm-7.48-1.47v-7.63h5.61c2.93 0 4.71 1.38 4.71 3.73s-2 3.9-4.71 3.9zm22.75-9.58h-6.58v18.77h6.58c5.93 0 10-4.15 10.08-9.43-.08-5.28-4.15-9.34-10.08-9.34zm0 16.82h-4.38V32.65h4.38c4.8 0 7.8 3.25 7.8 7.47s-3.08 7.4-7.8 7.4zm13.33-16.82h2.19v16.82h10.81v1.95h-13zm28.92 1.95h-10.89v6.42h9.67v1.86h-9.67v6.59h11v1.95h-13V30.7h12.92zM168.86 39c4.06.9 5.93 2.44 5.93 5.37 0 3.25-2.6 5.36-6.26 5.36a10.43 10.43 0 01-7.47-3l1.3-1.54a8.46 8.46 0 006.25 2.68c2.44 0 4.06-1.3 4.06-3.25 0-1.79-.89-2.84-4.79-3.66-4.22-1-6.17-2.35-6.17-5.52 0-3 2.52-5.2 6-5.2a9.69 9.69 0 016.42 2.27l-1.22 1.71a7.76 7.76 0 00-5.28-2c-2.36 0-3.9 1.38-3.9 3.09.16 1.87 1 2.92 5.12 3.73m16.65 0c4.06.9 5.93 2.44 5.93 5.37 0 3.25-2.6 5.36-6.25 5.36a10.46 10.46 0 01-7.48-3l1.3-1.54a8.48 8.48 0 006.26 2.68c2.44 0 4.06-1.3 4.06-3.25 0-1.79-.89-2.84-4.79-3.66-4.23-1-6.18-2.35-6.18-5.52 0-3 2.52-5.2 6-5.2a9.67 9.67 0 016.42 2.27l-1.22 1.71a7.74 7.74 0 00-5.28-2c-2.35 0-3.9 1.38-3.9 3.09.08 1.87 1.06 2.92 5.12 3.73" transform="translate(-8.56 -30.21)" fill="#154ae5"/></svg>