<svg xmlns="http://www.w3.org/2000/svg" width="87" height="87"><g id="Group_4407" data-name="Group 4407" transform="translate(-1692 -3772.455)"><g id="helpcenterlive" transform="translate(1692 3772.486)"><circle id="Ellipse_911" data-name="Ellipse 911" cx="43.5" cy="43.5" r="43.5" transform="translate(0 -.031)" fill="#518df7"/></g><g id="Group_4405" data-name="Group 4405" transform="translate(1720.538 3818.783)"><path id="Path_29373" data-name="Path 29373" d="M3.352-31.8H5.6v8.83h5.332v1.936h-7.58zm10.391 1.86h-2.111v-1.921h2.111zm-2.111.949h2.111v7.961h-2.111z" transform="translate(-3.352 35.29)" fill="#ffdf70"/><path id="Path_29374" data-name="Path 29374" d="M5.68-21.289h2.032L5.1-14.052h-2L.5-21.289h2.133l1.507 5.338z" transform="translate(10.084 28.321)" fill="#ffdf70"/><path id="Path_29375" data-name="Path 29375" d="M4.779-27.288a1.414 1.414 0 00-1.121.453 2.26 2.26 0 00-.5 1.227h3.235a1.812 1.812 0 00-.5-1.253 1.554 1.554 0 00-1.114-.427zm0-1.716a4.172 4.172 0 011.789.372 3.135 3.135 0 011.315 1.176 4.012 4.012 0 01.606 1.643 10.613 10.613 0 01.066 1.578H3.106a1.978 1.978 0 00.752 1.68 1.772 1.772 0 001.037.3 1.493 1.493 0 001.044-.365 1.734 1.734 0 00.387-.548h2.126a2.641 2.641 0 01-.738 1.439 3.614 3.614 0 01-2.863 1.161 4.037 4.037 0 01-2.681-.979 3.947 3.947 0 01-1.16-3.184A4.426 4.426 0 012.058-27.9 3.584 3.584 0 014.779-29zm5.1-2.556h2.286v2.732l-.59 5.028h-1.088l-.606-5.025zm.051 8.619h2.177v2.111H9.932z" transform="translate(16.6 35.441)" fill="#ffdf70"/><path id="Path_29368" data-name="Path 29368" d="M81.712 37.71a1.391 1.391 0 011.927 1.927l-3.714 3.714a1.4 1.4 0 01-1.94-1.927zm4.8 8.463c.651 0 1.123.574 1.123 1.391a1.276 1.276 0 01-1.123 1.276h-5.259a1.162 1.162 0 01-1.1-1.276 1.276 1.276 0 011.1-1.391zm-2.54 9.5a1.391 1.391 0 01-1.94 1.927l-3.714-3.714a1.4 1.4 0 011.94-1.94z" transform="translate(-47.904 -37.48)" fill="#faa61a"/></g><path id="Path_29369" data-name="Path 29369" d="M3.158-19.535v-10.694h2.213v4.077h4.178v-4.077h2.22v10.693h-2.22v-4.773H5.371v4.773zm12.968-6.413a1.4 1.4 0 00-1.114.45 2.245 2.245 0 00-.5 1.219h3.218a1.8 1.8 0 00-.5-1.244 1.543 1.543 0 00-1.103-.425zm0-1.7a4.144 4.144 0 011.777.37 3.113 3.113 0 011.306 1.168 3.985 3.985 0 01.6 1.632 10.541 10.541 0 01.065 1.567h-5.409a1.965 1.965 0 00.747 1.669 1.76 1.76 0 001.03.3 1.483 1.483 0 001.037-.363 1.723 1.723 0 00.384-.544h2.111a2.623 2.623 0 01-.733 1.429 3.59 3.59 0 01-2.841 1.146 4.01 4.01 0 01-2.662-.972 3.921 3.921 0 01-1.153-3.163 4.4 4.4 0 011.041-3.148 3.559 3.559 0 012.701-1.096zm6.526 8.118h-2.066v-10.699h2.068zm6.737-3.954a3.112 3.112 0 00-.417-1.618 1.452 1.452 0 00-1.353-.7 1.539 1.539 0 00-1.545 1.066 4.044 4.044 0 00-.218 1.436 2.291 2.291 0 00.733 1.937 1.669 1.669 0 001.03.326 1.493 1.493 0 001.317-.667 3.113 3.113 0 00.454-1.785zm-1.175-4.128a3.1 3.1 0 012.347 1.023 4.232 4.232 0 01.961 3 4.764 4.764 0 01-.939 3.185 3.041 3.041 0 01-2.419 1.1 2.525 2.525 0 01-1.567-.472 3.04 3.04 0 01-.667-.762v4.121h-2.046v-11.026h1.98v1.168a3.319 3.319 0 01.711-.812 2.612 2.612 0 011.64-.53z" transform="translate(1696.881 3834.157)" fill="#ddd"/><g id="Group_4406" data-name="Group 4406" transform="translate(1730.347 3804.349)"><g id="Group_4406-2" data-name="Group 4406" fill="#fff"><path id="Path_29370" data-name="Path 29370" d="M1.887-25.166a5.873 5.873 0 011.5-4.316A4.475 4.475 0 016.711-30.8a4.493 4.493 0 013.946 1.77 3.832 3.832 0 01.74 1.995H9.163A3.018 3.018 0 008.6-28.2a2.272 2.272 0 00-1.806-.7 2.239 2.239 0 00-1.922.983 4.725 4.725 0 00-.7 2.782 4.147 4.147 0 00.744 2.7 2.35 2.35 0 001.89.9 2.161 2.161 0 001.794-.773 3.34 3.34 0 00.566-1.241h2.213A4.8 4.8 0 019.892-20.7a4.345 4.345 0 01-3.058 1.1 4.612 4.612 0 01-3.627-1.48 5.923 5.923 0 01-1.32-4.086zM15.3-26.319a1.4 1.4 0 00-1.114.45 2.245 2.245 0 00-.5 1.219H16.9a1.8 1.8 0 00-.5-1.244 1.543 1.543 0 00-1.1-.425zm0-1.7a4.144 4.144 0 011.777.37 3.114 3.114 0 011.306 1.168 3.985 3.985 0 01.6 1.632 10.541 10.541 0 01.065 1.567h-5.404a1.965 1.965 0 00.747 1.669 1.76 1.76 0 001.03.3 1.483 1.483 0 001.037-.363 1.723 1.723 0 00.384-.544h2.111a2.623 2.623 0 01-.733 1.429 3.59 3.59 0 01-2.844 1.153 4.01 4.01 0 01-2.662-.972 3.92 3.92 0 01-1.153-3.163 4.4 4.4 0 011.039-3.156 3.559 3.559 0 012.7-1.095zm8.8.019a3.052 3.052 0 012.006.642 2.611 2.611 0 01.78 2.129v5.325h-2.117v-4.81a2.195 2.195 0 00-.167-.958 1.174 1.174 0 00-1.161-.609 1.439 1.439 0 00-1.441.89 3.065 3.065 0 00-.2 1.2v4.28h-2.06V-27.8h1.99v1.153a3.51 3.51 0 01.754-.878A2.622 2.622 0 0124.1-28z" transform="translate(-1.887 30.803)"/><path id="Path_29372" data-name="Path 29372" d="M.461-26.469v-1.578h1.182v-2.363h2.192v2.363h1.376v1.578H3.835v4.477a1.008 1.008 0 00.132.649 1.455 1.455 0 00.808.128h.214q.114 0 .222-.012v1.656l-1.049.039a2.816 2.816 0 01-2.145-.544 1.62 1.62 0 01-.373-1.174v-5.215z" transform="translate(25.211 30.903)"/><path id="Path_29371" data-name="Path 29371" d="M4.6-20.738a1.371 1.371 0 00-1.087.439 2.192 2.192 0 00-.485 1.19H6.16a1.757 1.757 0 00-.485-1.215 1.506 1.506 0 00-1.075-.414zm0-1.664a4.045 4.045 0 011.735.361A3.039 3.039 0 017.6-20.9a3.89 3.89 0 01.588 1.593 10.29 10.29 0 01.064 1.53H2.973a1.918 1.918 0 00.727 1.628 1.718 1.718 0 001.006.29 1.447 1.447 0 001.013-.354 1.682 1.682 0 00.375-.531h2.063a2.56 2.56 0 01-.715 1.4 3.5 3.5 0 01-2.776 1.126 3.915 3.915 0 01-2.6-.949 3.827 3.827 0 01-1.125-3.092 4.291 4.291 0 011.016-3.073A3.475 3.475 0 014.6-22.4zm8.517.021h.1l.174.011v2.07q-.191-.021-.34-.028t-.241-.007a1.674 1.674 0 00-1.636.793 3.085 3.085 0 00-.234 1.374v3.69H8.9V-22.2h1.926v1.346a4.267 4.267 0 01.814-1.055 2.217 2.217 0 011.472-.472z" transform="translate(30.207 25.374)"/></g></g></g></svg>