<svg xmlns="http://www.w3.org/2000/svg" id="_.info" data-name=".info" width="145.94" height="70.73"><defs><style>.cls-1{fill:#fdfefe}.cls-2{fill:#0a547f}</style></defs><g id="Wk46cV.tif"><path class="cls-1" d="M39.44 50.49c4.38-.28 9.2 4 9.16 8.89a9.07 9.07 0 01-9.09 8.67 8.91 8.91 0 01-8.72-8.89c.08-4.43 3.77-8.97 8.65-8.67z" transform="translate(-27.03 -4.63)"/><path class="cls-2" d="M160.09 75.37H39.69a9 9 0 00-1.13-.37A15.21 15.21 0 0127 60.33V19.71a14.85 14.85 0 01.2-2.4A15.08 15.08 0 0142 4.64h116a14.47 14.47 0 014.14.63A15.24 15.24 0 01173 19.81c-.07 13.54 0 27.08 0 40.62a12.54 12.54 0 010 1.37 15.25 15.25 0 01-12.3 13.35 2.14 2.14 0 00-.61.22zM132 13.11a6.37 6.37 0 00-.75-.24 23.24 23.24 0 00-10.15.13 13 13 0 00-10.18 13.11v4c0 .26 0 .53-.07.85h-6.12v8.49H111v28.28a99.77 99.77 0 0011.37-.12V39.43h8.21c-.43 1.16-.91 2.25-1.23 3.39a23.8 23.8 0 00-.37 11.85c1.42 6.52 5.32 11 11.73 13a25.09 25.09 0 0014.93.07 16.83 16.83 0 0012-12.3 23.23 23.23 0 00.27-11.65c-1.49-6.32-5.32-10.65-11.56-12.62a25.7 25.7 0 00-15.64.09 16.72 16.72 0 00-8.5 5.74c-.47.6-.89 1.24-1.49 2.09v-8.2h-8.31a48.06 48.06 0 010-5.51c.32-2.6 1.75-3.82 4.37-4.2a9.83 9.83 0 014.14.47l1 .27zM68.82 31v36.73h11.36V46.02a8.3 8.3 0 012.07-5.17A6.15 6.15 0 0188.5 39a5.21 5.21 0 014 3.95 13.84 13.84 0 01.5 4.2v20.57h11.34a3.25 3.25 0 000-.36V43.79a18.74 18.74 0 00-1.34-7.27 9.83 9.83 0 00-5.84-5.71 15.21 15.21 0 00-7.57-.58 12.72 12.72 0 00-8.74 5.67l-.63.86v-5.8zm-15.5 36.72a106.79 106.79 0 0011.39-.09V31H53.32zM39.44 50.49c-4.88-.3-8.57 4.24-8.65 8.67a8.91 8.91 0 008.72 8.89 9.07 9.07 0 009.09-8.67c.04-4.93-4.78-9.17-9.16-8.89zM59.1 13.36a17.17 17.17 0 00-2.28.35 5.44 5.44 0 00-4.15 4.17 5.68 5.68 0 001.92 5.77c2.12 1.88 6.34 2 8.59.39a5.61 5.61 0 002.45-5.65A5.3 5.3 0 0062.29 14a8.09 8.09 0 00-3.19-.64z" transform="translate(-27.03 -4.63)"/><path class="cls-1" d="M132 13.11v8.81l-1-.27a9.83 9.83 0 00-4.14-.47c-2.62.38-4 1.6-4.37 4.2a48.06 48.06 0 000 5.51h8.31v8.24c.6-.85 1-1.49 1.49-2.09a16.72 16.72 0 018.44-5.82 25.7 25.7 0 0115.64-.09c6.24 2 10.07 6.3 11.56 12.62a23.23 23.23 0 01-.27 11.65 16.83 16.83 0 01-12 12.3 25.09 25.09 0 01-14.93-.07c-6.41-2-10.31-6.44-11.73-13a23.8 23.8 0 01.37-11.85c.32-1.14.8-2.23 1.23-3.39h-8.21v28.22a99.77 99.77 0 01-11.37.12V39.41h-6.23v-8.49h6.12c0-.32.07-.59.07-.85v-4A13 13 0 01121.1 13a23.24 23.24 0 0110.13-.08 6.37 6.37 0 01.77.19zm24.73 36a14.69 14.69 0 00-.66-5.09 6.81 6.81 0 00-4.49-4.78 9.54 9.54 0 00-5.4-.16 7.45 7.45 0 00-5.44 5.47 17.28 17.28 0 00-.11 9.54 7.12 7.12 0 005.5 5.6 9.54 9.54 0 001.66.26c4 .22 7.11-1.36 8.32-5.65a17.11 17.11 0 00.6-5.2zM68.82 31h11.34v5.8l.63-.86a12.72 12.72 0 018.74-5.67 15.21 15.21 0 017.57.58 9.83 9.83 0 015.9 5.67 18.74 18.74 0 011.44 7.27v23.57a3.25 3.25 0 010 .36H93V47.15a13.84 13.84 0 00-.59-4.24 5.21 5.21 0 00-4-3.95 6.15 6.15 0 00-6.22 1.89A8.3 8.3 0 0080.21 46v21.73H68.82zm-15.5 36.72V31h11.39v36.63a106.79 106.79 0 01-11.39.09zm5.78-54.36a8.09 8.09 0 013.19.65 5.3 5.3 0 013.34 4.38A5.61 5.61 0 0163.18 24c-2.25 1.56-6.47 1.49-8.59-.39a5.68 5.68 0 01-1.92-5.77 5.44 5.44 0 014.15-4.17 17.17 17.17 0 012.28-.31z" transform="translate(-27.03 -4.63)"/><path class="cls-2" d="M156.71 49.1a17.11 17.11 0 01-.62 5.19c-1.21 4.29-4.28 5.87-8.32 5.65a9.54 9.54 0 01-1.66-.26 7.12 7.12 0 01-5.5-5.6 17.28 17.28 0 01.11-9.54 7.45 7.45 0 015.44-5.47 9.54 9.54 0 015.4.16 6.81 6.81 0 014.49 4.77 14.69 14.69 0 01.66 5.1z" transform="translate(-27.03 -4.63)"/></g></svg>