<svg xmlns="http://www.w3.org/2000/svg" width="84" height="89"><g id="Group_4444" data-name="Group 4444" transform="translate(-1124 -4272)"><ellipse id="Ellipse_913" data-name="Ellipse 913" cx="42" cy="44.5" rx="42" ry="44.5" transform="translate(1124 4272)"/><g id="fcepX5" transform="translate(1134.943 4300.064)"><g id="Group_4408" data-name="Group 4408" fill="#fff"><path id="Path_29376" data-name="Path 29376" d="M-557.477-21.145c1.78-.931 3.072-1.7 4.436-2.3 4.09-1.815 8.111-3.782 12.193-5.609 2.472-1.107 4.843-2.417 7.333-3.467 2.738-1.155 5.5-2.356 8.871-1.692 2.358 1.08 4.979 2.3 7.615 3.478.593.266 1.268.352 1.857.625 2.791 1.3 5.542 2.68 8.35 3.936 3.485 1.559 7.013 3.023 10.516 4.541.124.053.187.246.361.49z" transform="translate(559.343 54.343)"/><path id="Path_29377" data-name="Path 29377" d="M-496.858-45.414c.24-.463.3-.813.506-.942 8.038-5.1 16.089-10.174 24.362-15.395v27.409c-4.7-2.149-9.425-4.211-14.095-6.418a254.772 254.772 0 00-5.328-2.435c-1.759-.782-3.565-1.458-5.445-2.219z" transform="translate(535.431 65.13)"/><path id="Path_29378" data-name="Path 29378" d="M-535.94-45.682L-560.133-34.6a2.13 2.13 0 01-.294-.231.446.446 0 01-.125-.246c-.006-8.652-.005-17.3-.005-26.164z" transform="translate(560.558 64.929)"/><path id="Path_29379" data-name="Path 29379" d="M-497.5-67.045c-1.607.51-3.2 1.054-4.824 1.522-2.886.834-5.832 1.487-8.669 2.461-4.343 1.491-8.883 2.31-13.16 4.026a11.236 11.236 0 01-3.913.737 10.62 10.62 0 01-3.967-.6c-2.36-.92-4.815-1.569-7.218-2.268-2.434-.708-4.767-1.766-7.234-2.276-4.066-.839-7.787-2.8-11.875-3.326-.026-.208-.065-.3-.037-.346.047-.084.138-.2.21-.2q30.376-.013 60.751-.008z" transform="translate(559.71 67.332)"/><path id="Path_29380" data-name="Path 29380" d="M-507.882-51.894v3.054l2.551 2.45-5.814 3.862a9.58 9.58 0 00-5.963-1.135l-2.244 1.224-5.888-4.314c2.429-.943 2.89-2.709 2.914-4.762l7.339 1.7c2.119-.685 4.555-.955 7.105-2.079z" transform="translate(546.626 61.242)"/><path id="Path_29381" data-name="Path 29381" d="M-551.32-61.312l12.8 3.77-1.617 2.3v1.887L-551.506-61z" transform="translate(556.987 64.957)"/><path id="Path_29382" data-name="Path 29382" d="M-475.039-60.1l-10.2 6.839v-1.805l-1.4-1.619c.111-.3.136-.589.246-.626a417.76 417.76 0 017.957-2.538c1.081-.331 2.2-.55 3.3-.819z" transform="translate(531.398 64.703)"/><path id="Path_29383" data-name="Path 29383" d="M-467.663-60.744l.422-.495.191.191-.495.422z" transform="translate(523.915 64.929)"/></g></g></g></svg>