<svg xmlns="http://www.w3.org/2000/svg" width="80.927" height="81.497"><g id="joomla" transform="translate(-.663 -.747)"><path id="Path_29395" data-name="Path 29395" d="M133.109 12.562a10.691 10.691 0 00-21.275-1.511l-.108-.057c-8.744-3.944-16.11 3.042-16.11 3.042L76.133 33.613l7.7 7.413 15.68-15.405c7.323-7.323 11.31-2.367 11.31-2.367 5.512 4.657.19 10.169.19 10.169l7.888 7.6c6.442-6.957 6.815-13.029 4.857-17.859a10.691 10.691 0 009.351-10.605" transform="translate(-51.519 -.767)" fill="#f9ae41"/><path id="Path_29396" data-name="Path 29396" d="M162.034 113.712l.057-.108c3.944-8.744-3.042-16.11-3.042-16.11l-19.578-19.483-7.413 7.7 15.406 15.681c7.323 7.323 2.366 11.311 2.366 11.311-4.657 5.512-10.169.19-10.169.19l-7.6 7.888c6.957 6.442 13.029 6.815 17.859 4.857a10.691 10.691 0 1012.117-11.924" transform="translate(-89.696 -52.744)" fill="#ee4035"/><path id="Path_29397" data-name="Path 29397" d="M49.942 133.04L34.26 148.446c-7.323 7.323-11.31 2.367-11.31 2.367-5.512-4.657-.19-10.169-.19-10.169l-7.888-7.6C8.43 140 8.056 146.069 10.014 150.9a10.691 10.691 0 1011.925 12.117l.108.057c8.744 3.945 16.11-3.042 16.11-3.042l19.483-19.579-7.7-7.413" transform="translate(0 -90.309)" fill="#4f91cd"/><path id="Path_29398" data-name="Path 29398" d="M24.639 34.344c-7.323-7.323-2.367-11.311-2.367-11.311 4.658-5.512 10.17-.19 10.17-.19l7.6-7.888C33.087 8.514 27.016 8.141 22.185 10.1a10.691 10.691 0 10-12.116 11.923l-.057.109c-3.945 8.743 3.041 16.108 3.041 16.108l19.579 19.484 7.413-7.7-15.406-15.68" transform="translate(-.154)" fill="#7ac043"/></g></svg>