<svg xmlns="http://www.w3.org/2000/svg" width="75.297" height="45.89"><g id="Group_4410" data-name="Group 4410" transform="translate(503.721 62.57)"><path id="Path_29399" data-name="Path 29399" d="M-358.56-62.57c.915.273 1.838.519 2.742.822 4.642 1.552 7.469 4.687 7.964 9.59.468 4.633-1.2 8.337-5.357 10.747-.181.105-.347.238-.676.464.408.23.7.419 1.009.566 5.515 2.614 7.834 6.677 7.029 12.328-.849 5.956-4.637 10.036-10.281 11.03a17.4 17.4 0 01-2.932.3c-6.95.026-13.9.014-21.042.014v-2q0-20.963-.006-41.927c0-.647-.089-1.294-.137-1.941zm-15.61 40.625c5.331 0 10.474.106 15.611-.038a6.877 6.877 0 006.613-5.4c1.489-5.726-1.919-10.211-7.852-10.269-4.433-.043-8.866-.012-13.3 0a8.718 8.718 0 00-1.073.131zm0-20.992c4.668 0 9.156.183 13.623-.052 4.34-.229 6.73-2.748 6.894-6.636.18-4.3-1.79-7.066-6.257-7.468-4.695-.423-9.457-.095-14.259-.095z" transform="translate(-82.731)" fill="#373737"/><path id="Path_29400" data-name="Path 29400" d="M-467.906-62.57c-.379.448-.729.926-1.143 1.339-5.76 5.748-11.529 11.486-17.389 17.32L-467.5-16.7c-2.269 0-4.273.073-6.265-.051a2.406 2.406 0 01-1.416-1.081q-7.241-10.416-14.419-20.874c-.307-.445-.632-.877-1.062-1.474-2.442 2.425-4.845 4.765-7.172 7.179a2.451 2.451 0 00-.3 1.527c-.021 4.851-.013 9.7-.013 14.721h-5.567v-45.815h5.586v22.4c4.526-4.328 9.221-8.73 13.811-13.237 3.031-2.976 5.913-6.1 8.861-9.165z" fill="#d40303"/></g></svg>