<svg xmlns="http://www.w3.org/2000/svg" width="75.98" height="78.218"><path id="logomark.min" d="M75.938 17.7a1.238 1.238 0 01.043.32V34.8a1.224 1.224 0 01-.615 1.062l-14.092 8.117V60.06a1.227 1.227 0 01-.612 1.062L31.247 78.055a1.314 1.314 0 01-.214.089c-.028.009-.054.026-.083.034a1.232 1.232 0 01-.627 0c-.034-.009-.064-.028-.1-.04a1.273 1.273 0 01-.2-.083L.615 61.122A1.226 1.226 0 010 60.06V9.692a1.251 1.251 0 01.043-.321c.009-.035.031-.067.043-.1a1.206 1.206 0 01.078-.19 1.145 1.145 0 01.084-.111 1.247 1.247 0 01.109-.142 1.2 1.2 0 01.121-.092 1 1 0 01.134-.106L15.319.164a1.227 1.227 0 011.224 0L31.248 8.63a1.5 1.5 0 01.135.1 1.447 1.447 0 01.119.092 1.432 1.432 0 01.11.144 1.129 1.129 0 01.083.109 1.278 1.278 0 01.08.19c.012.035.034.067.043.1a1.238 1.238 0 01.043.32v31.467L44.117 34.1V18.013a1.237 1.237 0 01.043-.318c.011-.037.031-.069.043-.1a1.38 1.38 0 01.08-.19c.023-.04.057-.072.083-.109a1.259 1.259 0 01.11-.142 1.176 1.176 0 01.119-.092 1.236 1.236 0 01.135-.106l14.707-8.47a1.226 1.226 0 011.224 0l14.705 8.467a1.351 1.351 0 01.138.1c.038.031.083.058.118.092a1.431 1.431 0 01.11.144.924.924 0 01.083.109 1.213 1.213 0 01.08.19.876.876 0 01.043.1zm-2.409 16.4V20.134L68.383 23.1l-7.109 4.09v13.962L73.531 34.1zM58.824 59.352V45.381l-6.993 3.994-19.969 11.4v14.1l26.962-15.523zM2.451 11.812v47.54L29.41 74.873v-14.1L15.326 52.8h-.006a57.871 57.871 0 00-.248-.19 1.166 1.166 0 01-.1-.129 1.308 1.308 0 01-.092-.119.976.976 0 01-.064-.153.906.906 0 01-.058-.138 1.171 1.171 0 01-.024-.179 1.062 1.062 0 01-.018-.138V18.867L7.6 14.772l-5.149-2.959zM15.932 2.64L3.68 9.692l12.249 7.053L28.18 9.691 15.929 2.64zM22.3 46.654l7.108-4.092v-30.75l-5.146 2.962-7.109 4.093v30.751l5.147-2.964zm37.75-35.692L47.8 18.015l12.25 7.053 12.25-7.055-12.25-7.051zM58.824 27.19l-7.109-4.09-5.146-2.962V34.1l7.108 4.092 5.148 2.964V27.19zM30.635 58.652L48.6 48.394l8.982-5.126-12.238-7.048-14.094 8.114L18.4 51.73l12.231 6.923z" fill="#ff2d20" fill-rule="evenodd"/></svg>