<svg xmlns="http://www.w3.org/2000/svg" id="lets_encrypt" data-name="lets encrypt" width="95.37" height="74.07"><defs><style>.cls-1{fill:#ffa400}.cls-2{fill:#003a70}</style></defs><path class="cls-1" d="M135.61 26.27h-5.51v-2.85a4.13 4.13 0 00-8.25 0v2.85h-5.51v-2.85a9.64 9.64 0 0119.27 0z" transform="translate(-52.31 -1.48)"/><path class="cls-2" d="M137.88 26.27h-23.8a1.83 1.83 0 00-1.86 1.85v17.59a1.83 1.83 0 001.86 1.86h23.8a1.83 1.83 0 001.85-1.86V28.12a1.91 1.91 0 00-1.85-1.85zm-10.74 11.55v2.38a1.22 1.22 0 01-2.44 0v-2.38a2.39 2.39 0 01-1.22-2.15 2.44 2.44 0 014.88 0 2.32 2.32 0 01-1.22 2.15z" transform="translate(-52.31 -1.48)"/><path class="cls-1" d="M111.64 23.65h-5.75a1.68 1.68 0 010-3.36h5.75a1.68 1.68 0 010 3.36zm4.06-9.05a1.48 1.48 0 01-1-.41l-4.53-3.71a1.69 1.69 0 012.15-2.62l4.52 3.72A1.72 1.72 0 01117 14a1.92 1.92 0 01-1.3.6zm10.3-3.95A1.69 1.69 0 01124.29 9V3.16a1.69 1.69 0 013.37 0V9a1.68 1.68 0 01-1.66 1.65zm10.19 3.95a1.64 1.64 0 01-1.28-.64 1.72 1.72 0 01.24-2.38l4.52-3.72a1.69 1.69 0 012.15 2.62l-4.53 3.71a1.61 1.61 0 01-1.1.41zm9.81 9.05h-5.8a1.68 1.68 0 110-3.36h5.8a1.68 1.68 0 110 3.36z" transform="translate(-52.31 -1.48)"/><path class="cls-2" d="M52.31 47.34V28.59h4.53v14.8h7.26v4zm26.76-6.45v1H69.5a2.72 2.72 0 00.34 1 2.14 2.14 0 00.7.76 3.13 3.13 0 001 .52 3.52 3.52 0 001.1.18 3.21 3.21 0 001.73-.35 3.1 3.1 0 001.16-1l3 1.92A6.48 6.48 0 0176.11 47a8.39 8.39 0 01-3.54.75 8.76 8.76 0 01-2.78-.46 7.23 7.23 0 01-2.33-1.34 6.8 6.8 0 01-2.14-5.16 6.64 6.64 0 01.58-2.91 6 6 0 011.51-2.2 6.45 6.45 0 012.26-1.39 7.41 7.41 0 012.79-.53 7.87 7.87 0 012.67.47 6.64 6.64 0 012.09 1.39 6.32 6.32 0 011.33 2.26 8.44 8.44 0 01.52 3.01zm-4-1.62a2.81 2.81 0 00-.64-1.8 2.39 2.39 0 00-2-.76 3.57 3.57 0 00-1.16.18 2.85 2.85 0 00-.93.52 2.71 2.71 0 00-.93 1.8h5.63zm11-1.86v5.05a2.23 2.23 0 00.35 1.39 1.54 1.54 0 001.28.47 2.69 2.69 0 00.69-.06 4.94 4.94 0 00.58-.17l.03 3.19c-.29.11-.7.17-1.16.29a11 11 0 01-1.39.11 6.15 6.15 0 01-2.21-.34 3.86 3.86 0 01-1.45-.93A3.43 3.43 0 0182 44.9a10.1 10.1 0 01-.2-1.9v-5.59h-2.15v-3.25h2.09v-3.48H86v3.48h3.08v3.25zm7.08-9.17a2.22 2.22 0 00-2.32 2.15A2 2 0 0093 32.48a.43.43 0 00.29-.06 2.44 2.44 0 01-2 1.74h-.17v2h.23a4.9 4.9 0 002.79-1.28A5.26 5.26 0 0095.62 31a2.54 2.54 0 00-2.5-2.76zm10 9.81a4.35 4.35 0 00-1.22-.87 3.37 3.37 0 00-1.5-.35 2.43 2.43 0 00-1.11.23.82.82 0 00-.52.81.85.85 0 00.58.82 9.77 9.77 0 001.86.52 8.13 8.13 0 011.51.46 7.61 7.61 0 011.33.76 3.18 3.18 0 011 1.16 3.57 3.57 0 01.35 1.63 3.94 3.94 0 01-.53 2.08 3.73 3.73 0 01-1.33 1.4 6 6 0 01-1.8.75 7.81 7.81 0 01-2 .23 9.36 9.36 0 01-3.14-.52 6.53 6.53 0 01-2.55-1.51l2.44-2.55a5.28 5.28 0 001.45 1 3.89 3.89 0 001.8.41 2.28 2.28 0 001-.23.91.91 0 00.53-.87 1.06 1.06 0 00-.64-.93 10 10 0 00-2-.58 12.8 12.8 0 01-1.39-.41 4.16 4.16 0 01-1.22-.69 4.12 4.12 0 01-.87-1.11 3.46 3.46 0 01-.35-1.57 3.76 3.76 0 01.53-2 4 4 0 011.27-1.33A4.76 4.76 0 0198.4 34a7.42 7.42 0 011.92-.23 9.78 9.78 0 012.9.47 5.73 5.73 0 012.38 1.39zm-50.85 31V50.3h12.6v3.83h-8.23v3.54h7.78v3.6h-7.78v3.89h8.71v3.89zm24.5 0v-7.2a6.26 6.26 0 00-.12-1.05 2.69 2.69 0 00-.29-.87 1.35 1.35 0 00-.58-.58 1.68 1.68 0 00-1-.23 2 2 0 00-1 .23A2.66 2.66 0 0073 60a4.5 4.5 0 00-.47.93 3.48 3.48 0 00-.17 1v7.17h-4.31V55.93h4.17v1.8h.06a3.09 3.09 0 01.64-.82 3.15 3.15 0 01.87-.69 6.39 6.39 0 011.1-.47 4.83 4.83 0 011.28-.17 5.47 5.47 0 012.27.46 4.55 4.55 0 011.5 1.22 4.89 4.89 0 01.82 1.74 7.57 7.57 0 01.24 2v8.1h-4.19zm15.56-8.94a2.75 2.75 0 00-1-.76 3.49 3.49 0 00-1.28-.29 2.78 2.78 0 00-1.22.29 2.4 2.4 0 00-.92.76 5.48 5.48 0 00-.64 1 3.53 3.53 0 000 2.56 2.4 2.4 0 00.64 1 3.16 3.16 0 001 .75 3.08 3.08 0 001.28.3 3.47 3.47 0 001.33-.24 2.61 2.61 0 001-.75l2.38 3A5.72 5.72 0 0192.89 69a8.69 8.69 0 01-2.73.46 9.23 9.23 0 01-2.9-.46 6.15 6.15 0 01-2.38-1.4 6.91 6.91 0 01-1.57-2.2 7 7 0 01-.58-3 6.74 6.74 0 01.58-2.9 7 7 0 011.57-2.21 6.45 6.45 0 012.38-1.39 8 8 0 012.9-.47 10.71 10.71 0 011.39.12c.47.11.93.23 1.34.35a11.23 11.23 0 011.22.58 4.13 4.13 0 01.93.75zm12.64-.64a2 2 0 00-.58-.12h-.52a3.63 3.63 0 00-1.45.29 3 3 0 00-.93.76 3.19 3.19 0 00-.52 1 2.82 2.82 0 00-.18.93v6.74h-4.33v-13.2h4.18v1.91h.06a3.92 3.92 0 011.45-1.62 3.85 3.85 0 012.14-.64h.53c.17 0 .29.06.4.06zM115.24 71c-.29.7-.58 1.28-.87 1.86a7.08 7.08 0 01-1.16 1.39 5.13 5.13 0 01-1.57.87 7.87 7.87 0 01-2.15.29 9.58 9.58 0 01-1.28-.06 5.18 5.18 0 01-1.1-.23l.47-3.66.69.18a2.76 2.76 0 00.7.06 2 2 0 001.45-.47 3.17 3.17 0 00.75-1.33l.41-1.11-5.51-12.94h4.81l3 8.47h.06l2.61-8.47h4.59zM137 62.43a8.28 8.28 0 01-.41 2.67 7.69 7.69 0 01-1.22 2.26 6.6 6.6 0 01-2 1.57 5.64 5.64 0 01-2.67.58 6.31 6.31 0 01-2.32-.46 4.37 4.37 0 01-1.69-1.34h-.06v7.84h-4.35V56h4.12v1.63h.06a5.89 5.89 0 011.68-1.39 5 5 0 012.56-.59 5.68 5.68 0 012.61.59 5.59 5.59 0 012 1.5 7.32 7.32 0 011.17 2.26 6.1 6.1 0 01.52 2.43zm-4.24 0a4.66 4.66 0 00-.17-1.22 3 3 0 00-.59-1.05 2.59 2.59 0 00-1-.75 3.3 3.3 0 00-1.34-.29 3.25 3.25 0 00-1.33.29 3.09 3.09 0 00-1 .75 3.55 3.55 0 00-.64 1.11 3.07 3.07 0 00-.23 1.22 3.14 3.14 0 00.23 1.22 4.51 4.51 0 00.64 1.1 3 3 0 002.32 1 3 3 0 001.34-.29 3.16 3.16 0 001-.75 3.32 3.32 0 00.59-1.1 5.57 5.57 0 00.13-1.24zm11.14-3.31v5.05a2.23 2.23 0 00.35 1.39 1.54 1.54 0 001.28.47 2.8 2.8 0 00.7-.06 5.61 5.61 0 00.58-.17l.05 3.19c-.29.11-.69.17-1.16.29a10.85 10.85 0 01-1.39.11 6.19 6.19 0 01-2.21-.34 3.86 3.86 0 01-1.45-.93 3.42 3.42 0 01-.75-1.51 9.35 9.35 0 01-.23-1.92v-5.57h-2.09v-3.25h2.09v-3.48h4.23v3.48h3.08v3.25z" transform="translate(-52.31 -1.48)"/></svg>