<svg xmlns="http://www.w3.org/2000/svg" xmlns:xlink="http://www.w3.org/1999/xlink" width="88.349" height="95.93"><defs><linearGradient id="linear-gradient" x1="-6.668" y1="13.009" x2="-6.132" y2="13.009" gradientUnits="objectBoundingBox"><stop offset="0" stop-color="#11801a"/><stop offset=".01" stop-color="#11811a"/><stop offset=".4" stop-color="#0f9c2f"/><stop offset=".74" stop-color="#0eac3c"/><stop offset="1" stop-color="#0eb240"/></linearGradient><linearGradient id="linear-gradient-2" x1="-10.349" y1="13.131" x2="-9.535" y2="13.131" gradientUnits="objectBoundingBox"><stop offset="0" stop-color="#39ae00"/><stop offset=".31" stop-color="#44c000"/><stop offset=".7" stop-color="#4ed000"/><stop offset="1" stop-color="#51d600"/></linearGradient><linearGradient id="linear-gradient-3" x1="-18.91" y1="9.538" x2="-17.41" y2="9.538" xlink:href="#linear-gradient-2"/><linearGradient id="linear-gradient-4" x1="-22.494" y1="22.169" x2="-20.868" y2="22.169" xlink:href="#linear-gradient-2"/><linearGradient id="linear-gradient-5" x1="-19.896" y1="8.244" x2="-18.46" y2="8.244" xlink:href="#linear-gradient-2"/></defs><g id="limesurvey" transform="translate(-3.068 -.491)"><path id="Path_29401" data-name="Path 29401" d="M11.07 9.709a26.131 26.131 0 018.53 1.6 48.153 48.153 0 017.856 3.591 68.871 68.871 0 017.226 4.647 79.636 79.636 0 013.388 2.654c.54.465 1.124.914 1.649 1.409l.825.735.4.375.435.42h-7.926l.7-.825.675-.765c.435-.495.9-.974 1.349-1.5.929-.914 1.844-1.814 2.788-2.684s1.979-1.619 2.878-2.444c.48-.4 1-.81 1.5-1.184l.765-.6.75-.57a73.16 73.16 0 016.342-4.259 69.052 69.052 0 016.746-3.568 67.193 67.193 0 0114.395-4.932 58.258 58.258 0 017.5-1.139 44.376 44.376 0 017.586-.03c-1.049.735-2.129 1.349-3.193 2.009l-1.589.974-.795.48-.78.495c-2.1 1.244-4.123 2.519-6.162 3.763-3.973 2.519-7.946 5.037-11.768 7.646s-7.586 5.247-11.244 8.021c-.914.7-1.814 1.379-2.7 2.084s-1.8 1.409-2.684 2.114-1.769 1.514-2.564 2.174l-1.259 1.079-1.139.989-4.887 4.288-3.21-4.256-.27-.315-.3-.36-.63-.765-1.274-1.5-2.594-3c-1.8-1.949-3.553-3.9-5.427-5.817s-3.688-3.853-5.637-5.7a71.2 71.2 0 00-6.251-5.334z" transform="translate(3.994)" fill="url(#linear-gradient)"/><path id="Path_29402" data-name="Path 29402" d="M40.541 58.708A23.492 23.492 0 0119.552 45.62l-14 6a38.694 38.694 0 0048.9 19.7l-6-14.017a22.233 22.233 0 01-7.916 1.409z" transform="translate(1.239 22.527)" fill="url(#linear-gradient-2)"/><path id="Path_29403" data-name="Path 29403" d="M18.287 49.277a23.462 23.462 0 0111.349-20.1L19.8 17.42A38.754 38.754 0 005.425 62.6l14.032-6a23.177 23.177 0 01-1.169-7.3z" transform="translate(0 8.45)" fill="url(#linear-gradient-3)"/><path id="Path_29404" data-name="Path 29404" d="M48.853 18.08l-13.133 9.7a23.357 23.357 0 0110.494 9.969l14.017-6A39.278 39.278 0 0048.853 18.08z" transform="translate(16.299 8.78)" fill="url(#linear-gradient-4)"/><path id="Path_29405" data-name="Path 29405" d="M63.97 43.377a38.634 38.634 0 00-2.684-14.137l-14 6a23.492 23.492 0 01-11.064 28.9l6 14A38.8 38.8 0 0063.97 43.377z" transform="translate(16.548 14.35)" fill="url(#linear-gradient-5)"/></g></svg>