<svg xmlns="http://www.w3.org/2000/svg" id="Linux" width="58.74" height="71.19"><defs><style>.cls-1{fill:#020101}.cls-2{fill:#fefefe}</style></defs><g id="jJNelr.tif"><path class="cls-1" d="M69.27 67.19a7.3 7.3 0 00.57-4.44 11.71 11.71 0 01-.2-1.67 3.56 3.56 0 012.06-3.66 17.12 17.12 0 011.88-.75 3.94 3.94 0 001.86-1.39c.52-.7 1.09-1.37 1.62-2.05a.54.54 0 00.13-.35c-.47-4.61 1.17-8.66 3.31-12.57a44.44 44.44 0 014.9-7.16 16 16 0 003.85-9.93c0-1.41-.1-2.83-.16-4.24a25.08 25.08 0 01.43-7.18 8.92 8.92 0 017.92-7.19 14.92 14.92 0 015.69.14c3.41.84 5.41 3.13 6.47 6.36a24.81 24.81 0 011.05 7.26v4.25a10.11 10.11 0 001.62 5.85 54.7 54.7 0 003.25 4.53 41.91 41.91 0 015.4 8.17 18.38 18.38 0 012 9.49c-.1 1.14-.37 2.26-.58 3.47 0-.06 0 0 0 0a4 4 0 012.27 2.86c.19.75.33 1.52.59 2.24a9.44 9.44 0 00.91 1.72c.48.77 1.1 1.45 1.5 2.25a2.6 2.6 0 01-.89 3.6 20.87 20.87 0 01-2.47 1.43c-.63.35-1.29.66-1.93 1a11.81 11.81 0 00-3.57 2.77 10.45 10.45 0 01-5.11 3.39l-.88.24h-2.17a1.45 1.45 0 00-.32-.18 4.67 4.67 0 01-2.49-1.51c-.59-.73-1.06-1.56-1.59-2.35-1.43-.14-3-.24-4.49-.46a15.64 15.64 0 00-4.53-.13c-1.28.19-2.55.49-3.84.61-.91.09-1.63.28-2 1.19a1.72 1.72 0 01-.54.57A5.88 5.88 0 0187 74.8a11.8 11.8 0 01-5.8-1.35A14.61 14.61 0 0076.52 72c-1.17-.14-2.35-.29-3.52-.46-1.58-.23-3-.66-3.68-2.36zm23.2-37.41c-.21.77-.35 1.54-.63 2.27q-1.8 4.66-3.66 9.31A38.22 38.22 0 0085.92 48c-.28 1.37-.28 2.81-1.11 4 1.6 1.27 3.2 2.48 4.74 3.77a10.64 10.64 0 013.09 4 3.47 3.47 0 01-.93 4.4.76.76 0 00-.12.15 7.91 7.91 0 004.73 2.4 14 14 0 008.52-1.72 2.26 2.26 0 001.3-1.68c.31-1.91.62-3.82.88-5.74a9.29 9.29 0 011.57-4.8c1.1-1.39 2.28-2.72 3.44-4.06a.54.54 0 00.15-.64c-.66-1.8-1.24-3.62-2-5.39-1.47-3.58-3-7.11-4.51-10.67-.48-1.14-.87-2.31-1.3-3.46l-5 2.37a5.6 5.6 0 01-5.3-.21c-.54-.28-1.07-.62-1.6-.94zm-5.94 43.33v.14a14.6 14.6 0 002.47-.69 3.15 3.15 0 001.43-4.29 24.12 24.12 0 00-1.51-2.48c-1.3-1.92-2.67-3.79-3.94-5.73-.93-1.43-1.73-2.94-2.63-4.4a5.86 5.86 0 00-1-1.24 2.1 2.1 0 00-3.05.19c-.45.5-.89 1-1.33 1.52a7.59 7.59 0 01-3 2.21 15.28 15.28 0 00-1.73.83 1.4 1.4 0 00-.77 1.34c0 .8.08 1.61.16 2.41a8.42 8.42 0 01-.19 3.46 7.85 7.85 0 00-.28 1.8c0 .81.18 1.17 1 1.37a26.09 26.09 0 002.61.5A28 28 0 0182.12 72a10.32 10.32 0 004.41 1.11zm24.61-18.79a5.19 5.19 0 00-.55 1.07c-.21.81-.36 1.63-.49 2.46-.31 2-.54 4.1-.91 6.14-.33 1.84-.86 3.64-1.21 5.47a4.1 4.1 0 002.13 4.17 1.84 1.84 0 00.56.18 6.14 6.14 0 004.62-1.12 31.08 31.08 0 002.5-2.09 21.56 21.56 0 015.21-3.68c.58-.29 1.14-.6 1.69-.92a9.27 9.27 0 001.1-.75.92.92 0 00.3-1.41 9 9 0 00-.82-1.28 11.09 11.09 0 01-1.85-3.68 20.32 20.32 0 00-.79-2.27 1.71 1.71 0 00-.79-.88 2.53 2.53 0 00-2.65.33 7.21 7.21 0 01-3 1.5 3.55 3.55 0 01-4.38-1.84c-.21-.41-.39-.85-.67-1.4zM97 20.13a3.69 3.69 0 00-2.55.79c-1.16.89-2.29 1.81-3.43 2.74a1.19 1.19 0 00-.32 1.52 5.67 5.67 0 001.15 1.38c.79.68 1.65 1.26 2.47 1.89a3.93 3.93 0 004.55.53c1.4-.73 2.83-1.38 4.23-2.11a4.93 4.93 0 001.23-.9c1.27-1.27 1-2.56-.62-3.31l-.41-.17c-1.27-.57-2.54-1.14-3.81-1.73a5.17 5.17 0 00-2.49-.63zm7.12 2a5.36 5.36 0 00-.5-7.09 2.85 2.85 0 00-3.94.08 5 5 0 00-1.48 4.27c0 .09.08.24.16.26.53.19 1.07.34 1.64.52a3.85 3.85 0 01.42-2.28 1.4 1.4 0 011.24-.85 1.31 1.31 0 011.18.91 3.13 3.13 0 01-.4 3.52zm-11.43-.55a1.27 1.27 0 00-.11-.16l-.13-.15a3.09 3.09 0 01-.28-3.14.79.79 0 011.43-.13 4.26 4.26 0 01.49 1.16 7 7 0 01.12 1c.41-.17.78-.32 1.13-.49a.41.41 0 00.22-.26 4.78 4.78 0 00-1.1-3.63 2.69 2.69 0 00-1.31-.78 1.83 1.83 0 00-2 1.1 5.13 5.13 0 00-.55 3.68 4.28 4.28 0 001.17 2.41zm-6.93 15.48l-.21-.06L83 41.63l.46.25zm25.69-1.37c0 .14-.1.2-.08.22l2.94 3.83.3-.2a15.77 15.77 0 00-3.16-3.85z" transform="translate(-69.27 -4.4)"/><path class="cls-2" d="M92.47 29.78c.54.32 1.06.66 1.6.95a5.6 5.6 0 005.3.21l5-2.37c.43 1.15.82 2.32 1.3 3.46 1.49 3.56 3 7.09 4.51 10.67.72 1.77 1.3 3.59 2 5.39a.54.54 0 01-.15.64c-1.16 1.34-2.34 2.67-3.44 4.06a9.29 9.29 0 00-1.57 4.8c-.26 1.92-.57 3.83-.88 5.74a2.26 2.26 0 01-1.3 1.68 14 14 0 01-8.52 1.67 7.91 7.91 0 01-4.73-2.4.76.76 0 01.12-.15 3.47 3.47 0 00.93-4.4 10.64 10.64 0 00-3.09-4C88 54.47 86.41 53.26 84.81 52c.83-1.18.83-2.62 1.11-4a38.22 38.22 0 012.26-6.64q1.86-4.63 3.66-9.31c.28-.73.42-1.5.63-2.27z" transform="translate(-69.27 -4.4)"/><path d="M86.53 73.11A10.32 10.32 0 0182.12 72a28 28 0 00-7.51-1.94 26.09 26.09 0 01-2.61-.5c-.79-.2-1-.56-1-1.37a7.85 7.85 0 01.28-1.8 8.42 8.42 0 00.19-3.46c-.08-.8-.12-1.61-.16-2.41a1.4 1.4 0 01.77-1.34 15.28 15.28 0 011.73-.83 7.59 7.59 0 003-2.21c.44-.51.88-1 1.33-1.52a2.1 2.1 0 013.05-.19 5.86 5.86 0 011 1.24c.9 1.46 1.7 3 2.63 4.4 1.27 1.94 2.64 3.81 3.94 5.73a24.12 24.12 0 011.51 2.48A3.15 3.15 0 0189 72.56a14.6 14.6 0 01-2.39.69zm24.61-18.79c.28.55.46 1 .7 1.4a3.55 3.55 0 004.38 1.84 7.21 7.21 0 003-1.5 2.53 2.53 0 012.65-.33 1.71 1.71 0 01.79.88 20.32 20.32 0 01.79 2.27 11.09 11.09 0 001.85 3.68 9 9 0 01.82 1.28.92.92 0 01-.3 1.41 9.27 9.27 0 01-1.1.75c-.55.32-1.11.63-1.69.92a21.56 21.56 0 00-5.21 3.68 31.08 31.08 0 01-2.5 2.09 6.14 6.14 0 01-4.62 1.12 1.84 1.84 0 01-.56-.18 4.1 4.1 0 01-2.14-4.17c.35-1.83.88-3.63 1.21-5.47.37-2 .6-4.1.91-6.14.13-.83.28-1.65.49-2.46a5.19 5.19 0 01.53-1.07z" transform="translate(-69.27 -4.4)" fill="#fdbb02"/><path d="M97 20.13a5.17 5.17 0 012.49.63c1.27.59 2.54 1.16 3.81 1.73l.41.17c1.63.75 1.89 2 .62 3.31a4.93 4.93 0 01-1.23.9c-1.4.73-2.83 1.38-4.23 2.11a3.93 3.93 0 01-4.55-.53c-.82-.63-1.68-1.21-2.47-1.89a5.67 5.67 0 01-1.15-1.38 1.19 1.19 0 01.3-1.52c1.14-.93 2.27-1.85 3.43-2.74a3.69 3.69 0 012.57-.79zm-.52 7.51H97l.29-.05a13.1 13.1 0 005.14-2.39 6.83 6.83 0 001-1c.12-.13.09-.39.12-.59a1.61 1.61 0 00-.6.16c-.7.52-1.34 1.12-2.06 1.6A9.13 9.13 0 0197.21 27c-2.25.32-3.88-.81-5.29-2.38-.09-.1-.14-.24-.24-.31a2.23 2.23 0 00-.43-.16c0 .15-.15.32-.11.44a1.34 1.34 0 00.36.62 23.53 23.53 0 002.18 1.69 4.67 4.67 0 002.75.74zm-.21-6.25c-.08-.15-.1-.23-.12-.23a2 2 0 00-.79-.09 2 2 0 00-.64.45v.18c0 .01.38.22.52.17a7.14 7.14 0 00.98-.48zm1.82-.39l-.48.3a3.41 3.41 0 00.38.38 1.06 1.06 0 00.47.24 2 2 0 00.61-.18c-.09-.17-.14-.39-.28-.49a3.49 3.49 0 00-.7-.25z" transform="translate(-69.27 -4.4)" fill="#fc932b"/><path class="cls-2" d="M104.07 22.09l-1.68-.66a3.13 3.13 0 00.4-3.52 1.31 1.31 0 00-1.18-.91 1.4 1.4 0 00-1.24.85 3.85 3.85 0 00-.42 2.28c-.57-.18-1.11-.33-1.64-.52-.08 0-.15-.17-.16-.26a5 5 0 011.48-4.27 2.85 2.85 0 013.94-.08 5.36 5.36 0 01.5 7.09zm-11.43-.55l-.88.66a4.28 4.28 0 01-1.17-2.41 5.13 5.13 0 01.55-3.68 1.83 1.83 0 012-1.1 2.69 2.69 0 011.31.77 4.78 4.78 0 011.1 3.63.41.41 0 01-.22.26c-.35.17-.72.32-1.13.49a7 7 0 00-.12-1A4.26 4.26 0 0093.6 18a.79.79 0 00-1.48.13 3.09 3.09 0 00.28 3.14l.13.15a1.27 1.27 0 01.11.12zm-6.88 15.52l-2.33 4.82-.43-.25L85.55 37zm25.69-1.37a15.77 15.77 0 013.16 3.85l-.3.2-2.94-3.83.08-.22z" transform="translate(-69.27 -4.4)"/><path class="cls-1" d="M96.43 27.64a4.67 4.67 0 01-2.75-.78 23.53 23.53 0 01-2.18-1.69 1.34 1.34 0 01-.36-.62c0-.12.07-.29.11-.44a2.23 2.23 0 01.43.16c.1.07.15.21.24.31 1.41 1.57 3 2.7 5.29 2.38a9.13 9.13 0 003.7-1.56c.72-.48 1.36-1.08 2.06-1.6a1.61 1.61 0 01.6-.16c0 .2 0 .46-.12.59a6.83 6.83 0 01-1 1 13.1 13.1 0 01-5.14 2.39l-.29.05zm-.21-6.25a7.14 7.14 0 01-1 .48c-.14.05-.35-.09-.52-.17s0-.15 0-.18a2 2 0 01.64-.45 2 2 0 01.79.09s.01.08.09.23zm1.87-.39a3.49 3.49 0 01.7.25c.14.1.19.32.28.49a2 2 0 01-.61.18 1.06 1.06 0 01-.47-.24 3.41 3.41 0 01-.38-.38z" transform="translate(-69.27 -4.4)"/></g></svg>