<svg xmlns="http://www.w3.org/2000/svg" width="86.003" height="86.303"><path id="mambocms" d="M21.163 70.621C17.293 79.319 24.2 86.8 29.591 86.8c6.742 0 11.8-6.405 11.8-12.811V39.606s18.365 20.335 24.272 27.307c1.389 1.686 4.261 3.034 9.439 3.034a11.637 11.637 0 0011.462-11.8 11.058 11.058 0 00-7.43-10.788c-8.388-3.223-33.712-12.473-33.712-12.473S66.62 29.9 73.74 28.481a9.439 9.439 0 007.08-8.765c0-4.045-4.383-7.417-9.79-7.417A10.181 10.181 0 0063.276 15C58.259 18.7 43.4 30.167 43.4 30.167s8.441-16.64 11.138-22.25C56.628 3.575 52.124.5 49.144.5c-5.057 0-10.451 4.045-10.451 7.754 0 5.556-.337 22.25-.337 22.25s-9.79-11.462-13.485-15.17a4.45 4.45 0 00-3.371-1.012c-4.045 0-9.439 4.045-9.439 9.1a3.924 3.924 0 002.36 4.045c5.043 2.025 19.879 7.419 19.879 7.419s-19.219 5.057-25.961 6.743C5.2 42.411.585 46.6.585 52.754a5.718 5.718 0 009.1 5.057c6.594-4.41 25.958-18.2 25.958-18.2S24.642 62.8 21.163 70.621z" transform="translate(-.566 -.5)" fill="#fd850b"/></svg>