<svg xmlns="http://www.w3.org/2000/svg" width="92.554" height="91.96"><g id="krZFfK.tif" transform="translate(514 156.136)"><g id="Group_4412" data-name="Group 4412" transform="translate(-514 -156.136)"><path id="Path_29411" data-name="Path 29411" d="M-421.446-115.816a2.911 2.911 0 00-.514.889c-1.682 11.026-6.521 20.677-13.082 29.532-3.691 4.98-7.561 9.832-11.459 14.654-1.56 1.93-3.413 3.624-5.14 5.419a3.991 3.991 0 01-.643.4c.523-2.312 1.034-4.427 1.474-6.557.414-2.006.77-4.025 1.117-6.044a13.249 13.249 0 00-.544-6.328 3.39 3.39 0 00-.813.559 2.854 2.854 0 01-4.4.692 10.554 10.554 0 01-3.8-6.075c-1.4-5.276-2.807-10.547-4.3-16.151-2.047 1.615-3.73 3.63-6.6 2.65.582 5.094 1.2 9.887 1.638 14.7a15.866 15.866 0 01-.294 5.191c-.8 3.213-2.2 3.937-5.469 3.189a7.465 7.465 0 00.979 4.322c1.859 3.036 3.826 6.006 5.757 9 .284.44.605.855.909 1.281l-.192.32c-.951-.356-1.915-.679-2.85-1.072a142.348 142.348 0 01-22.628-12.17 50.965 50.965 0 01-17.642-19.315 71.284 71.284 0 01-2.8-6.734 3.366 3.366 0 01-.081-.989c.293.357.725.67.858 1.079A46.56 46.56 0 00-503-87.749a32.063 32.063 0 003.063 2.827c.633 1.7 2.217 2.418 3.541 3.4l5.29 3.8a5.2 5.2 0 00.628.585 131.424 131.424 0 0017.257 9.47c1.375.646 2.817 1.153 4.227 1.723l.177-.271c-2.3-3.805-5.449-7.159-6.253-11.756-2.627 1.327-3.667.891-3.618-1.4a2.338 2.338 0 01.514.444c.745 1.18 1.147 1.149 2.276.331 1.084-.784.675-1.569.33-2.439a14.366 14.366 0 011.672.8c1.765 1.133 3.276.718 3.991-1.286a20.146 20.146 0 00.609-3.244l.221-1.755-.528-1.758a5.451 5.451 0 00-.973-1.466 63.573 63.573 0 00-4.281-2.977c-1.86-1.194-3.765-2.319-5.65-3.474l-1.186-.9c-4.41-3.021-8.872-5.97-13.215-9.084-4.063-2.913-8.287-5.634-11.825-9.23a9.012 9.012 0 00-2.24-1.614c-.726-.379-1.537-.956-2.416-.24-.757 0-1.321.16-.906 1.112-.2.226-.491.419-.6.684-.865 2.1-.508 4.287-.437 6.45.021.624.307 1.292-.675 1.4v-7.91c.3-.482.584-.97.894-1.444a2.788 2.788 0 013.9-1.146 10.985 10.985 0 012.928 1.909c3.941 3.923 8.563 6.956 13.085 10.116 4.844 3.385 9.765 6.662 14.64 10 .8.547 1.515 1.208 2.3 1.773a.962.962 0 00.786.17c.159-.072.258-.493.223-.736-.513-3.572-1.017-7.146-1.626-10.7a2.854 2.854 0 00-1.1-1.426c-4.019-3.257-8.09-6.451-12.1-9.723a8.484 8.484 0 01-3.332-7.25c.3-4.117 1.449-8 5.362-10.4.689-.423 1.034-1.37 1.685-1.892a33.135 33.135 0 013.71-2.589c1.427-.853 1.578-1.107.5-2.419-1.332-1.618-2.766-3.151-4.146-4.73-.277-.316-.509-.672-.761-1.01a4.983 4.983 0 011.287.668c1.194 1.166 2.322 2.4 3.476 3.605l3.243 4.949a10.915 10.915 0 001.108 2.014c.219.261.862.169 1.313.237.024-.36.184-.786.046-1.066a22.757 22.757 0 00-1.283-2.077 9.735 9.735 0 00-.968-2.057 35.725 35.725 0 00-2.51-2.636 9.637 9.637 0 00-.978-1.593c-1.012-1.111-2.1-2.156-3.16-3.219a20.483 20.483 0 00-10.01-5.742l-.591-.26-.6-.006c-4.3-1.194-9.935.036-11.984 2.638h.6a.472.472 0 00.017.279l-.341.149-.278.074c-.749.343-1.421 1.118-2.356.419a9.642 9.642 0 011.563-1.533c6.275-3.853 12.681-4.182 19.147-.495a35.06 35.06 0 0111.031 10.54c.25.351.484.714.732 1.079a13.3 13.3 0 017.462-1.213 26.518 26.518 0 003.73.275 2.513 2.513 0 001.5-.866c2.383-2.571 4.595-5.31 7.094-7.759a22.457 22.457 0 0110.682-5.472c.75-.184 1.625.205 2.42.122 4.071-.425 7.452 1.29 10.719 3.358A4.9 4.9 0 01-434-151.5a5.311 5.311 0 01-1.411-.017 14.094 14.094 0 01-1.849-.795l1.023-.308.094-.38-3.517-1.474-.015-.013-.852-.274-1.211-.314-1.705-.282-2.982-.008-1.168.006-.608.271a4.677 4.677 0 00-.875.063 23.821 23.821 0 00-12.052 7.55c-1.075 1.229-2.246 2.39-3.2 3.706-1.181 1.626-2.182 3.382-3.261 5.082-.237.3-.618.571-.675.9a4.955 4.955 0 00.156 1.418 9.518 9.518 0 001.3-.7c.14-.1.1-.455.137-.693a7.42 7.42 0 00.8-.833c1.6-2.255 3.173-4.524 4.756-6.788l.63-.009-2.963 4.117c2.215 1.008 4.34 1.848 6.345 2.913a16.7 16.7 0 018.051 9.307 10.906 10.906 0 01-.548 8.654 26.246 26.246 0 01-7.04 8.519 2.651 2.651 0 00-.943 3.147c.866 3.182 1.507 6.425 2.283 9.834a3.8 3.8 0 00.7-.611c6.433-10.36 12.882-20.712 19.254-31.109 1.012-1.651 1.612-3.549 2.518-5.271a16.392 16.392 0 012.107-3.147c1.637-1.872 3.519-1.86 5.122.02a17.254 17.254 0 013.531 8.364 6.188 6.188 0 00.614 1.362zm-37.308 22.279l.569-.918 1.526-2.257c.954-.827.583-1.875.418-2.846-.192-1.138-.5-2.257-.772-3.382-.533-2.22-1.075-4.438-1.676-6.917l-1.242 1.38-1.484 1.719-.6.6c-1.067.2-.942.943-.745 1.686.236.887.513 1.763.764 2.647.791 2.792 1.546 5.595 2.388 8.372.218.712.631.629.854-.084zm-13.228 1.488l1.94 1.554c-.006-3.461-.212-6.687-.522-9.9-.19-1.972-.887-2.717-2.588-3.131l-2.652-1.925a14.1 14.1 0 00.008 1.581c.426 3.126.894 6.247 1.305 9.374.199 1.504 1.228 2.085 2.509 2.447zm-1.764-31.384l1.17 3.532c.406 2.639-1.069 4.151-3.25 5.08a10.779 10.779 0 01-6.546.861c-1.356-.286-2.712-.569-4.437-.931 1.168.992 2.065 1.833 3.042 2.569 2.407 1.813 4.915 3.5 7.254 5.4a5.153 5.153 0 003.82 1.4c1.493-.109 1.625-.117 1.586-1.588-.054-2.036-.195-4.071-.274-6.107a4.9 4.9 0 01.158-.979 1.685 1.685 0 01.409.982 46.072 46.072 0 001.211 5.46c.8 2.336 4.4 3.085 6.235 1.355 3.335-3.148 6.684-6.288 9.861-9.59 1.455-1.513 2.934-3.153 3.306-5.391a5.43 5.43 0 00.586-.954 9.8 9.8 0 00-.675-8.019c-.371-.742-.845-1.434-1.272-2.149l-.378.243a7.774 7.774 0 01.468.828 15.614 15.614 0 011.472 3.746 10.264 10.264 0 01-.806 6.261 14.635 14.635 0 01-4.265 5.495c-3.375 2.582-10.025 2.667-13.646-.085-.782-.594-1.752-1.238-1.245-2.557.073-.191-.177-.506-.278-.763l1.518-5.245 2.077-4.674a35.405 35.405 0 012.732-3.96c2.9-3.211 6.519-3.718 10.1-.84l.494.4c.334-1.073-.5-1.427-.985-1.828a27.2 27.2 0 00-8.8-4.525 1.08 1.08 0 00-1.445.582c-.638 1.038-1.231 2.1-1.9 3.122a1.566 1.566 0 01-2.142.7 1.339 1.339 0 01-.48-1.913c.393-.834.82-1.653 1.229-2.479.181-.365.356-.733.584-1.2-3.688-.469-7.158-.892-10.643.734.331.593.64 1.129.931 1.675a16.378 16.378 0 011.055 2.083 1.455 1.455 0 01-.621 2.021 1.464 1.464 0 01-1.909-.633c-.4-.547-.728-1.151-1.091-1.728-.452-.718-.906-1.435-1.354-2.143l-4.379 3.082.144.385c3.269-.364 5.422 1.408 7.173 3.744a41.436 41.436 0 012.448 4.149zm44.1 27.6l3.5-7.091c.291-.723.613-1.435.866-2.17a51.651 51.651 0 002.945-20.681 42.323 42.323 0 00-1.549-8.423c-.511-1.8-1.235-3.718-3.124-4.735l-.587-.083c-.258-.733-.7-.625-1.189-.252-1.627.28-2.253 1.615-2.9 2.853-1.572 3.02-2.857 6.211-4.642 9.1-6.746 10.909-13.665 21.713-20.467 32.588-.952 1.523-2.378 2.937-1.932 5.025l.536 1.147.569 1.749a16.041 16.041 0 001.571 2.539c2.118 2.344 4.1 1.881 5.466-1.1 1.6-3.492 3.13-7.019 4.69-10.531l.365-.87.225-.314a4.083 4.083 0 01.992.765 5.567 5.567 0 01.5 1.311c.1.524.2 1.047.285 1.572.44 2.655.084 3.138-2.528 3.453-.088.011-.167.091-.369.207.183.653.411 1.332.556 2.028a12.31 12.31 0 01.3 2.155c.061 2.284-.874 3.055-3.12 2.652-.073-.013-.165.081-.4.2 1.079 5.147-.906 10.027-1.732 15.3.517-.474.9-.764 1.21-1.119 2.589-2.969 5.321-5.832 7.705-8.957 3.328-4.363 6.393-8.925 9.57-13.4zm-32.163-18.9a33.934 33.934 0 004.527-1.038c2.778-1.033 4.32-3.307 5.607-5.872a8.711 8.711 0 00-1.19-10.3c-3.332-3.924-8.161-4.067-11.225.378a18.849 18.849 0 00-1.7 2.894c-1.2 2.651-2.368 5.319-3.427 8.028-.841 2.15-.448 3.024 1.6 4.29a13.454 13.454 0 005.809 1.621zm-19.168-.133l.076.306a41.355 41.355 0 005.164-1.4c2.322-.947 2.64-1.837 2.041-4.269a36.161 36.161 0 00-5.31-11.711c-1.946-2.865-6.527-3.686-8.938-1.677-4.743 3.952-5.462 8.427-2.278 13.66a9.841 9.841 0 009.245 5.093zM-450.1-84.7c.311.229.649.486 1 .73a1.81 1.81 0 00.384.19c.985.383 2.124.139 2.26-.6a7.528 7.528 0 00-1-5.243zm5.39-10.3l-.444-.048c-.406.925-.84 1.84-1.2 2.781a5.6 5.6 0 00-.192 1.2 5.97 5.97 0 001.7.092 1.186 1.186 0 00.692-.928A30.842 30.842 0 00-444.71-95zm-46.47-24.1l.368-.165-1.548-3.327a4.368 4.368 0 001.18 3.492z" transform="translate(514 156.136)" fill="#296841"/><path id="Path_29412" data-name="Path 29412" d="M-499.934 11.184A32.063 32.063 0 01-503 8.357a46.56 46.56 0 01-8.971-15.625c-.133-.409-.565-.721-.858-1.079L-514-11.214v-.293c.982-.11.7-.778.675-1.4-.072-2.163-.428-4.354.437-6.45.11-.265.4-.458.6-.684a21.157 21.157 0 002 2.1c2.08 1.676 4.185 3.328 6.351 4.892 6.979 5.042 13.994 10.036 20.988 15.058 3.911 2.808 7.8 5.648 11.725 8.437a11.46 11.46 0 001.932.9 20.146 20.146 0 01-.609 3.244c-.715 2-2.226 2.419-3.991 1.286a14.365 14.365 0 00-1.672-.8l-1.022-.789c-1.5-1.7-2.948-3.435-4.509-5.071-1.231-1.29-2.569-2.482-3.91-3.661-1.405-1.236-2.871-2.4-4.31-3.6a2.355 2.355 0 000-.269 6.724 6.724 0 00-3.234-2.91l-.436-.163.164.434.434 1.426c-1.856.782-2.927 2.354-3.986 3.938-.651-.722-1.347-1.409-1.944-2.173a405.242 405.242 0 01-5.753-7.508c-.931-1.25-1.731-2.6-2.629-3.87a3.468 3.468 0 00-.838-.634 1.36 1.36 0 00.218 1q4.376 6.114 8.772 12.214c.848 1.174 1.744 2.315 2.617 3.471a6.27 6.27 0 00-4.004 4.273z" transform="translate(514 60.03)" fill="#80c026"/><path id="Path_29413" data-name="Path 29413" d="M-482.425-149.555l.6.006c.066.381.128.775.591.26a20.482 20.482 0 0110.01 5.742c1.063 1.063 2.148 2.108 3.16 3.219a9.637 9.637 0 01.978 1.593l-.948.637c-1.153-1.207-2.282-2.439-3.476-3.605a4.982 4.982 0 00-1.287-.668l.011-.031-.339-.091a57.814 57.814 0 00-5.3-3.319 18.967 18.967 0 00-13.66-1.195c-.562.15-1.138.248-1.708.37a.472.472 0 01-.017-.279 19.656 19.656 0 019.19-1.182c1.714.261 1.736.154 2.195-1.457z" transform="translate(499.751 151.489)" fill="#53af2d"/><path id="Path_29414" data-name="Path 29414" d="M-333.411-143.534l-.63.009-.02-2.1a23.82 23.82 0 0112.052-7.55 4.675 4.675 0 01.875-.063l.608-.271 1.168-.006v1.62l3.224-.157h.328l.12.011h.12c.362.1.723.2 1.086.291q1.678.437 3.358.87a.3.3 0 01-.038.177c-2.082-.208-4.16-.533-6.246-.6a18.023 18.023 0 00-10.826 3.53c-.521.353-1.07.665-1.606 1l-.2-.117.111.2-.522.468-.321.107.009-.059-.323.319.025-.029-.324.314.022-.025-.317.314.019-.023-.314.313h.032c-.9-.113-1.3.282-1.2 1.179l.009-.026-.314.314z" transform="translate(386.931 154.282)" fill="#53af2d"/><path id="Path_29415" data-name="Path 29415" d="M-266.678-148.732l-3.358-.87c-.363-.094-.724-.194-1.086-.291a19.261 19.261 0 002.158-.033c.29-.034.546-.36.817-.552l3.517 1.478-.094.38-1.023.308-.318-.124z" transform="translate(342.485 152.14)" fill="#00903e"/><path id="Path_29416" data-name="Path 29416" d="M-330.978-123.38c-.1-.9.3-1.292 1.2-1.179z" transform="translate(384.765 133.85)" fill="#296841"/><path id="Path_29417" data-name="Path 29417" d="M-256.09-144.536l.613.292-.651-.115a.3.3 0 00.038-.177z" transform="translate(331.897 147.944)" fill="#296841"/><path id="Path_29418" data-name="Path 29418" d="M-495.826-139.046l.278-.074z" transform="translate(501.166 144.12)" fill="#53af2d"/><path id="Path_29419" data-name="Path 29419" d="M-322.879-128.59l.321-.107z" transform="translate(379.035 136.759)" fill="#296841"/><path id="Path_29420" data-name="Path 29420" d="M-331.98-120.277l.314-.314z" transform="translate(385.462 131.035)" fill="#296841"/><path id="Path_29421" data-name="Path 29421" d="M-324.966-127.229l.324-.314z" transform="translate(380.508 135.944)" fill="#296841"/><path id="Path_29422" data-name="Path 29422" d="M-423.377-125.523l.339.091z" transform="translate(450.004 134.518)" fill="#296841"/><path id="Path_29423" data-name="Path 29423" d="M-325.972-126.246l.317-.314z" transform="translate(381.219 135.25)" fill="#296841"/><path id="Path_29424" data-name="Path 29424" d="M-326.977-125.258l.314-.313z" transform="translate(381.929 134.552)" fill="#296841"/><path id="Path_29425" data-name="Path 29425" d="M-323.951-128.214l.323-.319z" transform="translate(379.792 136.643)" fill="#296841"/><path id="Path_29426" data-name="Path 29426" d="M-291.48-97.587c1.889 1.017 2.613 2.935 3.124 4.735a42.318 42.318 0 011.549 8.423 51.652 51.652 0 01-2.945 20.681c-.253.736-.576 1.448-.866 2.17L-291.81-62c-1.665-.592-3.13-1.813-5.053-1.6.114-.521.2-1.048.346-1.561 1.072-3.851 2.264-7.673 3.2-11.556.75-3.112 1.194-6.3 1.774-9.451l.616-4.53-.535-.078-.85 4.654a23.089 23.089 0 01-.385 2.561c-1.54 5.868-3.116 11.726-4.681 17.587a15.253 15.253 0 01-1.6-.653 7.161 7.161 0 00-4.276-1.114l-.008-1.173-.351-.462-.249.438-2.111 4.424-.234.573-2.913 6.461-.237.314-.09.542-.329.876-.225.314-.365.87c-1.56 3.512-3.087 7.039-4.69 10.531-1.37 2.984-3.348 3.446-5.466 1.1a16.041 16.041 0 01-1.571-2.539 5.454 5.454 0 001.1-1.016q5.57-9.147 11.088-18.325c2.036-3.37 4.084-6.733 6.114-10.106q4.061-6.747 8.1-13.506c1.746-2.894 3.738-5.682 4.211-9.162z" transform="translate(378.477 114.79)" fill="#80c026"/><path id="Path_29427" data-name="Path 29427" d="M-355.182-63.675a13.454 13.454 0 01-5.809-1.621c-2.051-1.266-2.445-2.14-1.6-4.29 1.059-2.709 2.229-5.377 3.427-8.028a18.849 18.849 0 011.7-2.894c3.064-4.445 7.893-4.3 11.225-.378a8.711 8.711 0 011.19 10.3c-1.287 2.565-2.829 4.839-5.607 5.872a33.932 33.932 0 01-4.526 1.039zm5.106-13.285c-.608-.872-1.353-1.055-2.008-.147a42.343 42.343 0 00-2.515 4.449l-.151.539a18.183 18.183 0 00.043 3.2c.309 1.677 1.671 2.084 2.9.9a7.654 7.654 0 002.5-5.87c1.407-1.367 1.13-2.453-.77-3.071z" transform="translate(407.374 105.079)" fill="#f5d504"/><path id="Path_29428" data-name="Path 29428" d="M-428.49-63.4a9.841 9.841 0 01-9.245-5.093c-3.184-5.233-2.465-9.707 2.278-13.66 2.411-2.009 6.992-1.189 8.938 1.677a36.16 36.16 0 015.31 11.711c.6 2.432.281 3.322-2.041 4.269a41.353 41.353 0 01-5.164 1.4zm-5.935-9.872a7.828 7.828 0 002.4 5.851 1.68 1.68 0 002.017.627 2.528 2.528 0 001.3-1.62c.188-3.047-.453-5.886-2.854-8.043a1.447 1.447 0 00-2.262.077c-1.606.846-1.745 1.573-.601 3.103z" transform="translate(461.513 104.677)" fill="#f5d504"/><path id="Path_29429" data-name="Path 29429" d="M-404.891-39.767c.1.257.351.572.278.763-.507 1.319.463 1.963 1.245 2.557 3.621 2.752 10.27 2.667 13.646.086a14.635 14.635 0 004.265-5.495l.609.038c-.372 2.238-1.851 3.878-3.306 5.391-3.177 3.3-6.526 6.442-9.861 9.59-1.832 1.729-5.436.981-6.235-1.355a46.054 46.054 0 01-1.211-5.46 1.686 1.686 0 00-.409-.982 4.894 4.894 0 00-.158.979c.079 2.036.22 4.071.274 6.107.039 1.471-.093 1.479-1.586 1.588a5.153 5.153 0 01-3.82-1.4c-2.339-1.9-4.847-3.582-7.254-5.4-.977-.736-1.874-1.577-3.042-2.569l4.437.931a10.779 10.779 0 006.546-.861c2.18-.929 3.656-2.441 3.25-5.08.1-.451.207-.9.315-1.354.142-.592.289-1.183.434-1.775l.445.074c0 .994-.029 1.99.016 2.982a4.391 4.391 0 00.32 1.058z" transform="translate(448.648 76.568)" fill="#00903e"/><path id="Path_29430" data-name="Path 29430" d="M-406.443-92.952a41.432 41.432 0 00-2.448-4.149c-1.751-2.336-3.9-4.109-7.173-3.744l-.144-.385 4.379-3.082 1.354 2.143c.362.577.687 1.181 1.091 1.728a1.464 1.464 0 001.909.633 1.455 1.455 0 00.621-2.021 16.385 16.385 0 00-1.055-2.083c-.291-.546-.6-1.083-.931-1.675 3.485-1.626 6.955-1.2 10.643-.734-.228.471-.4.839-.583 1.2-.41.827-.836 1.645-1.229 2.479a1.339 1.339 0 00.48 1.913 1.566 1.566 0 002.142-.7c.668-1.018 1.262-2.084 1.9-3.122a1.08 1.08 0 011.445-.582 27.2 27.2 0 018.8 4.525c.489.4 1.319.755.985 1.828l-.494-.4c-3.584-2.877-7.205-2.371-10.1.84a35.4 35.4 0 00-2.732 3.96c-1.435.184-2.877.331-4.3.561-1.533.252-3.044.576-4.56.867z" transform="translate(444.941 121.257)" fill="#80c026"/><path id="Path_29431" data-name="Path 29431" d="M-280.439 55.98c-3.177 4.477-6.243 9.039-9.57 13.4-2.384 3.125-5.117 5.988-7.705 8.957-.31.355-.693.645-1.21 1.119.826-5.268 2.811-10.149 1.732-15.3.232-.123.324-.217.4-.2 2.245.4 3.181-.368 3.119-2.652a12.307 12.307 0 00-.3-2.155c-.145-.7-.373-1.375-.556-2.028.2-.116.281-.2.369-.207 2.611-.315 2.968-.8 2.528-3.453-.087-.525-.19-1.048-.285-1.572a8.974 8.974 0 011.525.319c1.38.541 2.735 1.146 4.1 1.726a10.014 10.014 0 01-.38 1.547c-.915 2.2-1.878 4.376-2.809 6.568-.433 1.02-.83 2.056-1.244 3.085l.463.189c.645-1.373 1.3-2.74 1.933-4.119 1.066-2.323 2.118-4.653 3.176-6.98a9.359 9.359 0 011.348.322c1.13.454 2.244.954 3.366 1.434z" transform="translate(362.119 9.232)" fill="#00903e"/><path id="Path_29432" data-name="Path 29432" d="M-423.653 89.282c-.049 2.293.991 2.73 3.618 1.4.8 4.6 3.953 7.951 6.253 11.756l-.177.271c-1.411-.571-2.852-1.077-4.227-1.723a131.422 131.422 0 01-17.257-9.47 5.2 5.2 0 01-.628-.585l2.949-3.536 6.448 6.15.325-.29a20.24 20.24 0 00-1.47-1.852c-1.644-1.652-3.335-3.257-5.009-4.88a26.254 26.254 0 011.893-1.989c.783-.676 1.668-1.236 2.509-1.847.114.66.182 1.332.352 1.977.405 1.54 1.2 1.925 2.712 1.384a3.439 3.439 0 01.671-.077 3.606 3.606 0 00.162 1.284c.357.627-.174 1.641.859 1.951z" transform="translate(458.969 -12.517)" fill="#00903e"/><path id="Path_29433" data-name="Path 29433" d="M-465.515 8.671a11.46 11.46 0 01-1.932-.9c-3.925-2.789-7.814-5.629-11.725-8.437-6.994-5.022-14.009-10.016-20.988-15.058-2.165-1.564-4.271-3.216-6.351-4.892a21.146 21.146 0 01-2-2.1c-.415-.952.149-1.11.906-1.112.1.217.132.515.3.638 2.378 1.763 4.754 3.529 7.169 5.241 3.326 2.357 6.7 4.642 10.022 7.008 3.044 2.169 6.039 4.406 9.059 6.608 2.47 1.8 4.934 3.614 7.423 5.389 2.766 1.972 5.558 3.907 8.339 5.858z" transform="translate(510.222 62.702)" fill="#53af2d"/><path id="Path_29434" data-name="Path 29434" d="M-292.846-97.788c-.473 3.48-2.466 6.268-4.206 9.17l-8.1 13.506c-2.03 3.373-4.078 6.736-6.114 10.106q-5.538 9.166-11.088 18.325a5.455 5.455 0 01-1.1 1.016l-.569-1.749c.624-.853 1.309-1.669 1.861-2.567 1.96-3.193 3.869-6.416 5.806-9.623 2.984-4.941 5.989-9.87 8.961-14.818 2.855-4.755 5.68-9.528 8.518-14.294q2.725-4.577 5.445-9.156z" transform="translate(379.843 114.991)" fill="#53af2d"/><path id="Path_29435" data-name="Path 29435" d="M-462.778 6.1c-2.781-1.951-5.573-3.886-8.339-5.858-2.49-1.775-4.953-3.587-7.423-5.389-3.02-2.2-6.015-4.439-9.059-6.608-3.32-2.366-6.7-4.651-10.022-7.008-2.415-1.712-4.791-3.478-7.169-5.241-.166-.123-.2-.421-.3-.638.879-.716 1.69-.139 2.416.24a9.012 9.012 0 012.24 1.614c3.538 3.6 7.761 6.317 11.825 9.23 4.343 3.114 8.805 6.063 13.215 9.084.029.778.528.945 1.186.9a4.6 4.6 0 00.754.957c1.945 1.442 3.9 2.877 5.89 4.252 1.384.954 2.837 1.808 4.26 2.708z" transform="translate(507.707 63.52)" fill="#2ca235"/><path id="Path_29436" data-name="Path 29436" d="M-326.052-49.167c-.447-2.088.98-3.5 1.932-5.025 6.8-10.875 13.721-21.679 20.467-32.588 1.785-2.886 3.069-6.076 4.642-9.1.645-1.238 1.27-2.573 2.9-2.853a10.15 10.15 0 01-.548 1.342c-2 3.448-4.005 6.9-6.05 10.321q-6.32 10.585-12.683 21.144-4.662 7.75-9.37 15.473a7.575 7.575 0 01-1.29 1.286z" transform="translate(381.335 115.597)" fill="#00903e"/><path id="Path_29437" data-name="Path 29437" d="M-325.849-49.865a7.576 7.576 0 001.288-1.281q4.719-7.715 9.37-15.473 6.355-10.564 12.683-21.144c2.044-3.424 4.046-6.873 6.049-10.321a10.146 10.146 0 00.548-1.342c.494-.373.931-.481 1.189.252l-5.445 9.156c-2.837 4.766-5.662 9.539-8.518 14.294-2.972 4.949-5.977 9.877-8.961 14.818-1.937 3.207-3.846 6.43-5.806 9.623-.551.9-1.237 1.714-1.86 2.567z" transform="translate(381.132 116.295)" fill="#2ca235"/><path id="Path_29438" data-name="Path 29438" d="M-242.4 18.039c1.922-.218 3.387 1 5.053 1.6l1.192.423-3.5 7.091a8.464 8.464 0 00-5.307-2.414z" transform="translate(324.015 33.156)" fill="#53af2d"/><path id="Path_29439" data-name="Path 29439" d="M-273.052 32.805c-1.365-.58-2.72-1.184-4.1-1.726a8.974 8.974 0 00-1.525-.319 5.565 5.565 0 00-.5-1.311 4.082 4.082 0 00-.992-.765l.329-.876c2.227.637 2.882.284 3.338-1.922.163-.79.125-1.62.22-2.428.059-.5.194-.994.3-1.49.092.553.151 1.115.287 1.657.084.332.207.814.448.921 1.5.662 3.04 1.236 4.567 1.839z" transform="translate(348.874 30.362)" fill="#2ca235"/><path id="Path_29440" data-name="Path 29440" d="M-445.837 87.414l-2.948 3.536-5.29-3.8c.39-.537.755-1.093 1.174-1.606.782-.957 1.595-1.89 2.395-2.832z" transform="translate(471.682 -12.534)" fill="#2ca235"/><path id="Path_29441" data-name="Path 29441" d="M-249.984 40.883a8.464 8.464 0 015.307 2.414l-2.675 4.909c-1.122-.481-2.236-.982-3.371-1.432a9.36 9.36 0 00-1.348-.322c.469-1.405.921-2.816 1.417-4.212a12.279 12.279 0 01.67-1.357z" transform="translate(329.032 17.006)" fill="#2ca235"/><path id="Path_29442" data-name="Path 29442" d="M-459.018 74.922c-.8.943-1.613 1.875-2.395 2.832-.419.513-.785 1.07-1.174 1.606-1.324-.986-2.909-1.7-3.541-3.4a6.27 6.27 0 014.005-4.276z" transform="translate(480.194 -4.742)" fill="#53af2d"/><path id="Path_29443" data-name="Path 29443" d="M-382.976-63.221c1.516-.291 3.027-.615 4.55-.861 1.428-.231 2.87-.378 4.3-.561l-2.074 4.673c-1-.175-2.088.585-3.051-.25-.043-.037-.3.152-.444.257-.512.376-1.018.76-1.526 1.141z" transform="translate(421.474 91.526)" fill="#53af2d"/><path id="Path_29444" data-name="Path 29444" d="M-380.226 29.76c-1.282-.362-2.311-.943-2.509-2.45-.411-3.128-.879-6.248-1.305-9.374a14.088 14.088 0 01-.008-1.581l2.652 1.925a25.3 25.3 0 00.045 2.614c.344 2.959.745 5.911 1.125 8.866z" transform="translate(422.244 34.327)" fill="#80c026"/><path id="Path_29445" data-name="Path 29445" d="M-373.833 34.387c-.38-2.955-.781-5.907-1.125-8.867a25.3 25.3 0 01-.042-2.613c1.7.415 2.4 1.159 2.588 3.131.31 3.216.516 6.442.522 9.9z" transform="translate(415.851 29.7)" fill="#2ca235"/><path id="Path_29446" data-name="Path 29446" d="M-330.276 17.836l-1.526 2.257-3.229-12.3 1.483-1.719c.688 2.7 1.35 5.41 2.076 8.1.334 1.238.793 2.442 1.196 3.662z" transform="translate(387.616 41.588)" fill="#53af2d"/><path id="Path_29447" data-name="Path 29447" d="M-326.711 14.519c-.4-1.22-.862-2.424-1.2-3.663-.726-2.691-1.388-5.4-2.076-8.1l1.242-1.38c.6 2.479 1.142 4.7 1.676 6.917.27 1.125.58 2.244.772 3.382.169.97.541 2.018-.414 2.844z" transform="translate(384.051 44.905)" fill="#80c026"/><path id="Path_29448" data-name="Path 29448" d="M-483.837-150.656c-.459 1.611-.481 1.718-2.193 1.456a19.656 19.656 0 00-9.191 1.182h-.6c2.049-2.602 7.683-3.832 11.984-2.638z" transform="translate(501.162 152.59)" fill="#2ca235"/><path id="Path_29449" data-name="Path 29449" d="M-349.591-126.66l.02 2.1c-1.583 2.264-3.16 4.533-4.756 6.788a7.426 7.426 0 01-.8.833l-.923-.93c1.079-1.7 2.08-3.456 3.261-5.082.953-1.319 2.123-2.48 3.198-3.709z" transform="translate(402.461 135.321)" fill="#2ca235"/><path id="Path_29450" data-name="Path 29450" d="M-377-48.2c.508-.381 1.013-.766 1.525-1.141.143-.1.4-.293.444-.257.963.836 2.046.075 3.051.25l-1.518 5.245-.8.419a4.392 4.392 0 01-.32-1.058c-.044-.992-.016-1.988-.016-2.982l-.445-.074c-.145.591-.291 1.183-.434 1.775-.108.451-.21.9-.315 1.354z" transform="translate(417.252 80.907)" fill="#2ca235"/><path id="Path_29451" data-name="Path 29451" d="M-296.523 75.184l2.642-4.919a7.528 7.528 0 011 5.243c-.136.737-1.275.98-2.26.6a1.808 1.808 0 01-.384-.19c-.349-.248-.687-.505-.998-.734z" transform="translate(360.423 -3.743)" fill="#fbfcfc"/><path id="Path_29452" data-name="Path 29452" d="M-394.724 96.356l-.018-.073-.363-3.576 2.479 1.2 1.022.789c.345.87.754 1.655-.33 2.439-1.13.818-1.531.849-2.276-.331a2.337 2.337 0 00-.514-.448z" transform="translate(430.04 -19.591)" fill="#fbfcfc"/><path id="Path_29453" data-name="Path 29453" d="M-335.917 26.572c-.223.713-.636.8-.853.08-.841-2.777-1.6-5.58-2.388-8.372-.25-.884-.528-1.76-.764-2.647-.2-.743-.323-1.485.745-1.686z" transform="translate(391.163 36.027)" fill="#00903e"/><path id="Path_29454" data-name="Path 29454" d="M-333.808 25.142l-3.259-12.624.6-.6 3.229 12.3z" transform="translate(389.054 37.457)" fill="#2ca235"/><path id="Path_29455" data-name="Path 29455" d="M-406.053-112.091l.948-.637a35.723 35.723 0 012.51 2.636 9.733 9.733 0 01.968 2.057l-1.183.892z" transform="translate(437.77 125.482)" fill="#2ca235"/><path id="Path_29456" data-name="Path 29456" d="M-389.094 55.791c-1.422-.9-2.876-1.753-4.26-2.708-1.993-1.375-3.945-2.81-5.89-4.252a4.6 4.6 0 01-.754-.957c1.885 1.154 3.791 2.279 5.65 3.474 1.462.939 2.9 1.922 4.281 2.977a5.45 5.45 0 01.973 1.466z" transform="translate(433.494 12.068)" fill="#00903e"/><path id="Path_29457" data-name="Path 29457" d="M-301.044-64.6l-.609-.038a10.264 10.264 0 00.806-6.261 15.615 15.615 0 00-1.468-3.752 7.763 7.763 0 00-.468-.828l.378-.243c.427.715.9 1.407 1.272 2.149a9.8 9.8 0 01.675 8.019 5.431 5.431 0 01-.586.954z" transform="translate(364.843 99.346)" fill="#2ca235"/><path id="Path_29458" data-name="Path 29458" d="M-277.257-152.619c-.271.193-.527.519-.817.552a19.256 19.256 0 01-2.158.033h-.12l-.12-.011h-.328l-3.224.157v-1.62l2.982.008 1.705.282 1.211.314.852.274z" transform="translate(351.595 154.282)" fill="#2ca235"/><path id="Path_29459" data-name="Path 29459" d="M-282.6 51.818a30.843 30.843 0 01.556 3.1 1.186 1.186 0 01-.692.928 5.97 5.97 0 01-1.7-.092 5.6 5.6 0 01.192-1.2c.365-.941.8-1.855 1.2-2.781z" transform="translate(351.891 9.318)" fill="#fbfcfc"/><path id="Path_29460" data-name="Path 29460" d="M-395.016-95.863l1.183-.892a22.747 22.747 0 011.283 2.077c.138.28-.021.707-.046 1.066-.451-.068-1.094.024-1.313-.237a10.913 10.913 0 01-1.107-2.014z" transform="translate(429.976 114.203)" fill="#00903e"/><path id="Path_29461" data-name="Path 29461" d="M-357.721-96.751l.923.93c-.04.238 0 .591-.137.693a9.517 9.517 0 01-1.3.7 4.955 4.955 0 01-.156-1.418c.052-.334.433-.607.67-.905z" transform="translate(404.13 114.2)" fill="#00903e"/><path id="Path_29462" data-name="Path 29462" d="M-439.207-38.482a4.368 4.368 0 01-1.181-3.492l1.548 3.327z" transform="translate(462.027 75.517)" fill="#2ca235"/><path id="Path_29463" data-name="Path 29463" d="M-402.832 45.716c-.658.041-1.157-.126-1.186-.9z" transform="translate(436.333 14.231)" fill="#00903e"/><path id="Path_29464" data-name="Path 29464" d="M-272.169-153.2l-1.705-.282z" transform="translate(344.428 154.263)" fill="#00903e"/><path id="Path_29465" data-name="Path 29465" d="M-452.4-149.273c-.463.515-.524.121-.591-.26z" transform="translate(470.915 151.473)" fill="#2ca235"/><path id="Path_29466" data-name="Path 29466" d="M-263.095-151.182l-.852-.274z" transform="translate(337.418 152.831)" fill="#00903e"/><path id="Path_29467" data-name="Path 29467" d="M-282.176 46.766l.365-.87z" transform="translate(350.291 13.466)" fill="#2ca235"/><path id="Path_29468" data-name="Path 29468" d="M-289.457-153.491l-.608.271z" transform="translate(355.862 154.268)" fill="#2ca235"/><path id="Path_29469" data-name="Path 29469" d="M-446.948 50.977a2.348 2.348 0 010 .269l1.484 4.1-3.82 3.8-4.721-5.45c1.059-1.584 2.13-3.156 3.986-3.938.41.328.812.668 1.233.983.563.428 1.152.744 1.838.236z" transform="translate(471.634 10.734)" fill="#53af2d"/><path id="Path_29470" data-name="Path 29470" d="M-480.865 29.074l4.721 5.45 3.791 4.122c1.673 1.623 3.365 3.228 5.008 4.88a20.249 20.249 0 011.47 1.852l-.325.29-6.448-6.15-4.669-4.7-3.105-3.242c-.874-1.156-1.769-2.3-2.617-3.471q-4.4-6.1-8.772-12.214a1.36 1.36 0 01-.218-1 3.467 3.467 0 01.838.634c.9 1.275 1.7 2.62 2.629 3.87a405.242 405.242 0 005.753 7.508c.597.762 1.293 1.449 1.944 2.171z" transform="translate(498.493 35.362)" fill="#296841"/><path id="Path_29471" data-name="Path 29471" d="M-428.506 58.91l-1.484-4.1c1.439 1.2 2.905 2.365 4.31 3.6 1.341 1.179 2.679 2.371 3.91 3.661 1.561 1.636 3.011 3.376 4.509 5.071l-2.479-1.2.363 3.576c-1.033-.31-.5-1.324-.859-1.951a3.607 3.607 0 01-.162-1.284 3.438 3.438 0 00-.671.077c-1.51.541-2.306.156-2.712-1.384-.17-.645-.237-1.318-.352-1.977l-.334-2.534c-1.992.626-2.463.469-3.683-1.11-.117-.149-.237-.296-.356-.445zm8.264 6.07l-2.913-2.8-.29.232.277 1.7c.039.241.071.484.126.721.212.915.744 1.225 1.62.811.307-.137.593-.327 1.18-.664zm-7.67-7.413c.474 1.869.92 2.334 2.126 2.3z" transform="translate(454.674 7.171)" fill="#296841"/><path id="Path_29472" data-name="Path 29472" d="M-438.411 46.9c-.686.508-1.275.192-1.839-.23-.42-.315-.822-.654-1.233-.983l-.434-1.426.272-.271a6.724 6.724 0 013.234 2.91z" transform="translate(463.097 14.813)" fill="#296841"/><path id="Path_29473" data-name="Path 29473" d="M-442.038 43.6l-.272.271-.164-.434z" transform="translate(463.49 15.205)" fill="#53af2d"/><path id="Path_29474" data-name="Path 29474" d="M-320.275-130.771l-.111-.2.2.117z" transform="translate(377.274 138.366)" fill="#296841"/><path id="Path_29475" data-name="Path 29475" d="M-273.052-148.531h.328z" transform="translate(343.848 150.766)" fill="#00903e"/><path id="Path_29476" data-name="Path 29476" d="M-262.106 13.626c-1.527-.6-3.066-1.177-4.567-1.839-.242-.107-.365-.589-.448-.921-.137-.542-.2-1.1-.287-1.657-.142-.518.37-1.307-.614-1.476l.234-.573c1.818-.312 2.259-1.778 2.718-3.227a7.161 7.161 0 014.276 1.114 15.244 15.244 0 001.6.653c-.238.778-.436 1.571-.723 2.331-.709 1.869-1.457 3.73-2.189 5.595z" transform="translate(340.297 43.123)" fill="#53af2d"/><path id="Path_29477" data-name="Path 29477" d="M-264.233-30.585c.732-1.864 1.48-3.723 2.188-5.6.287-.76.484-1.553.723-2.331 1.565-5.861 3.141-11.72 4.681-17.587a23.082 23.082 0 00.385-2.561l.77-.046c-.58 3.153-1.024 6.339-1.774 9.451-.936 3.883-2.128 7.705-3.2 11.556-.143.513-.232 1.04-.346 1.561l-2.566 6.694a12.283 12.283 0 00-.671 1.356c-.5 1.4-.948 2.807-1.417 4.212-1.058 2.327-2.11 4.657-3.176 6.98-.633 1.378-1.288 2.746-1.933 4.119l-.463-.189c.413-1.029.811-2.064 1.244-3.085.931-2.192 1.894-4.369 2.809-6.568a10.014 10.014 0 00.38-1.547z" transform="translate(342.423 87.334)" fill="#296841"/><path id="Path_29478" data-name="Path 29478" d="M-275.809 16.944c.984.17.472.958.614 1.476-.1.5-.236.989-.3 1.49-.095.807-.057 1.637-.22 2.428-.456 2.206-1.112 2.559-3.338 1.922l.09-.542.237-.314zm-.287 3.714l-.369-.132-1.144 2.948.394.144c1.115-.701 1.047-1.858 1.115-2.96z" transform="translate(348.082 33.911)" fill="#296841"/><path id="Path_29479" data-name="Path 29479" d="M-264.507 1.134c-.46 1.449-.9 2.915-2.718 3.227l2.111-4.424.6.024z" transform="translate(339.733 45.92)" fill="#296841"/><path id="Path_29480" data-name="Path 29480" d="M-219.973-69.781l-.77.046.85-4.654.535.078-.615 4.53z" transform="translate(306.909 98.408)" fill="#53af2d"/><path id="Path_29481" data-name="Path 29481" d="M-259.442-1.091l-.6-.024.249-.438z" transform="translate(334.661 46.973)" fill="#53af2d"/><path id="Path_29482" data-name="Path 29482" d="M-278.506 38.932l-.237.314z" transform="translate(347.867 18.383)" fill="#2ca235"/><path id="Path_29483" data-name="Path 29483" d="M-334.88-57.927a42.349 42.349 0 012.515-4.449c.656-.908 1.4-.724 2.008.147-.662.577-1.451 1.108-1.029 2.178a1.5 1.5 0 001.8.9 7.654 7.654 0 01-2.5 5.87c-1.231 1.182-2.593.775-2.9-.9a18.191 18.191 0 01-.043-3.2z" transform="translate(387.654 90.348)" fill="#1e1d0d"/><path id="Path_29484" data-name="Path 29484" d="M-320.976-57.36a1.5 1.5 0 01-1.8-.9c-.422-1.07.367-1.6 1.029-2.178 1.896.622 2.17 1.708.771 3.078z" transform="translate(379.049 88.553)" fill="#fbfcfc"/><path id="Path_29485" data-name="Path 29485" d="M-334.75-45.795l-.151.539z" transform="translate(387.524 78.216)" fill="#80c026"/><path id="Path_29486" data-name="Path 29486" d="M-421.244-61.252a1.447 1.447 0 012.262-.077c2.4 2.156 3.043 5 2.854 8.043a2.528 2.528 0 01-1.3 1.62 1.68 1.68 0 01-2.017-.627 7.828 7.828 0 01-2.4-5.851c.969.081 1.794-.166 2.011-1.22.226-1.084-.555-1.542-1.41-1.888z" transform="translate(448.93 89.544)" fill="#1e1d0d"/><path id="Path_29487" data-name="Path 29487" d="M-423.012-59.848c.855.346 1.636.8 1.413 1.888-.217 1.054-1.042 1.3-2.011 1.22-1.143-1.53-1.004-2.26.598-3.108z" transform="translate(450.697 88.14)" fill="#fbfcfc"/><path id="Path_29488" data-name="Path 29488" d="M-434.118 68.767l.355.446c1.221 1.58 1.692 1.736 3.683 1.11l.334 2.534c-.841.611-1.725 1.17-2.509 1.847a26.243 26.243 0 00-1.893 1.989l-3.791-4.122z" transform="translate(460.287 -2.685)" fill="#2ca235"/><path id="Path_29489" data-name="Path 29489" d="M-404.512 82.706c-.587.337-.873.527-1.18.673-.876.414-1.408.1-1.62-.811-.055-.237-.086-.48-.126-.721q-.14-.852-.277-1.7l.29-.232z" transform="translate(438.944 -10.555)" fill="#fbfcfc"/><path id="Path_29490" data-name="Path 29490" d="M-422.918 64.2l2.126 2.3c-1.208.03-1.652-.435-2.126-2.3z" transform="translate(449.68 .543)" fill="#fbfcfc"/><path id="Path_29491" data-name="Path 29491" d="M-272.639 29.265c-.072 1.1 0 2.259-1.12 2.96l-.394-.144 1.144-2.948z" transform="translate(344.625 25.303)" fill="#fbfcfc"/></g></g></svg>