<svg xmlns="http://www.w3.org/2000/svg" width="93.635" height="51.83"><g id="v7E37e.tif" transform="translate(-5.15 -28.191)"><g id="Group_4445" data-name="Group 4445" transform="translate(5.15 28.191)"><path id="Path_30385" data-name="Path 30385" d="M232 85.066a8.3 8.3 0 00-.554 1.245c-1.531 5.785-5.314 9.247-11.157 10.149-5.523.852-10-1.261-13.217-5.822-1.883-2.667-3.625-5.432-5.431-8.152.258-.467.487-.953.778-1.4 2.457-3.77 4.935-7.527 7.379-11.305a19.457 19.457 0 001-1.988c.3-.432.577-.883.9-1.3a12.474 12.474 0 002.909-10.249c-.221-1.246-.622-2.46-.94-3.688.505.681 1.041 1.341 1.511 2.045 4.572 6.834 9.117 13.686 13.705 20.51a14.937 14.937 0 012.841 7.038c.011.12.182.226.279.338z" transform="translate(-138.366 -44.829)" fill="#85c927"/><path id="Path_30386" data-name="Path 30386" d="M88.013 51.7a19.455 19.455 0 01-1 1.988c-2.444 3.778-4.922 7.535-7.379 11.305-.29.446-.52.931-.778 1.4a10.468 10.468 0 00-.917 1.062c-1.5 2.278-2.983 4.57-4.469 6.859a13.533 13.533 0 01-22.179.913c-2.731-3.57-5.291-7.273-7.945-10.899a12.171 12.171 0 00-1.2-1.239l-1.222-2.058a13.632 13.632 0 00-19.5-4.585 8.187 8.187 0 01-1.264.547 5.258 5.258 0 01.41-1.108c4.557-7 9.1-14.005 13.711-20.967a13.015 13.015 0 0111.693-6.146 13.076 13.076 0 0110.78 5.755c2.573 3.558 5.12 7.135 7.7 10.688a11.921 11.921 0 001.192 1.236c.577.934 1.1 1.9 1.738 2.8A13.537 13.537 0 0086.647 52.5c.428-.306.91-.538 1.366-.8z" transform="translate(-15.585 -28.732)" fill="#2951a5"/><path id="Path_30387" data-name="Path 30387" d="M182.069 51.621c-.457.266-.938.5-1.367.8a13.537 13.537 0 01-19.265-3.251c-.634-.894-1.161-1.863-1.738-2.8-.091-.626-.159-1.257-.276-1.879a13.185 13.185 0 017.764-14.709 13.58 13.58 0 0116.193 4.17c.578.766 1.043 1.618 1.559 2.43.318 1.228.719 2.443.94 3.688a12.474 12.474 0 01-2.909 10.249c-.324.419-.602.87-.901 1.302z" transform="translate(-109.641 -28.657)" fill="#fd7b07"/><path id="Path_30388" data-name="Path 30388" d="M10.593 110.011a8.189 8.189 0 001.264-.547 13.632 13.632 0 0119.5 4.585q.609 1.031 1.222 2.058c-.077.222-.275.485-.214.659 2.249 6.49-1.835 14.608-9.782 16.444a13.4 13.4 0 01-16.324-10.472 12.541 12.541 0 011.647-9.106c.613-1 1.305-1.95 1.961-2.923l.458-.333-.018.015.329-.344z" transform="translate(-6.02 -81.751)" fill="#01c1c1"/><path id="Path_30389" data-name="Path 30389" d="M19.6 116.135l-.329.344z" transform="translate(-14.987 -87.839)" fill="#2951a5"/><path id="Path_30390" data-name="Path 30390" d="M18.372 117.153l-.458.333z" transform="translate(-14.067 -88.528)" fill="#2951a5"/></g></g></svg>