<svg xmlns="http://www.w3.org/2000/svg" width="87.391" height="84.816"><g id="Layer_3" transform="translate(-93.857 -39.235)"><g id="Group_4417" data-name="Group 4417" transform="translate(93.857 39.235)"><path id="Tournesol_1_" d="M180.894 90.908c-.915 3.108 2.2 5.674 4.9 5.983-1.009 1.051-2.526.99-3.721 1.69 1.988 4.67 7.889 5.7 12.226 4.336-3.7 3.338-6.849 7.626-7.659 12.587.207.277.923.165 1.33.242 4.477.042 8.7-2.108 12.087-4.956 1.369 3.376-2.5 4.956-5.162 5.354 2.981 4.2 8.551 1.5 10.541-2.272-.368 2.723-.727 5.457-1.344 8.138a11.094 11.094 0 0010.41-7.638v-.017a11.637 11.637 0 01-.867 7.916c1.647 1.17 5.257.367 6.488-1.087a19.785 19.785 0 003.082-5.741c1.345 2.729 2.9 5.536 3.119 8.606 5.1-.944 6.573-6.937 6.26-11.252 2.714 4.058 6.523 7.9 11.311 9.2 1.541-5.088-.606-10.7-3.659-14.85 1.681.1 3.861-.03 5.138 1.349 1.116 1.205 1.137 3.151 1.368 4.68 4.981-2.594 2.116-8.872-1.478-11.327 2.718.88 5.518 1.63 8.183 2.613A11.318 11.318 0 00249 94.251a11.187 11.187 0 016.032 3.119c1.956-1.63.29-6.405-.434-7.458a19.537 19.537 0 00-3.661-3.779c3.06-.515 5.974-1.485 9.126-.786-.111-4.16-2.44-6.1-5.2-7.615a36.327 36.327 0 00-4.231-1.209c4.478-1.78 9.693-4.142 11.966-8.7a19.01 19.01 0 00-15.247-.275c.638-5.139 3.9-4.459 7.284-4.171-1.533-4.6-7.191-4.211-10.349-2.02 1.454-1.987 2.48-5.135 4.23-6.769a11.94 11.94 0 00-12.971 3.608c.552-2.886 1.814-6.056 4.194-7.96-3.543-3.741-8.906-.227-11.53 2.9-.054-3.089-.666-6.292.328-9.271-5.453-.7-8.6 3.765-9.757 8.308-1.018-4.717-3.434-9.788-7.251-12.937-2.969 4.018-3.549 9.281-2.538 14.021-3.791-.535-2.98-4.639-2.213-7.206-5.16.677-5.359 6.741-3.227 10.349-2.113-1.706-4.28-3.453-6.379-5.162a13.226 13.226 0 00-1.478 6.491c-.817-.525-.911-1.8-1.57-2.391-4.514 2.441-2.855 8.362-.606 11.819-3-.751-6.182-1.295-8.8-3.107-2.247 4.348 1.218 9.763 5.1 12.02a24.711 24.711 0 00-14.619 2.751c1.5 2.413 4.881 4.9 7.583 6.1-.9.41-3.94-.884-4.876-.556.129.246 4.6 7 10.287 6.48-1.567 2.8-5.639 1.916-7.312.061" transform="translate(-175.213 -39.235)" fill="#ffc200"/><g id="Inline_stripes" transform="translate(8.271 12.062)" fill="none" stroke="#fff" stroke-linecap="round" stroke-width="3"><path id="Path_29496" data-name="Path 29496" d="M345.167 107.165c1.2 4.788 4.03 11.192 7.364 14.94" transform="translate(-320.066 -105.889)"/><path id="Path_29497" data-name="Path 29497" d="M393.771 116.357c-.475-4.057-.667-11.329.393-15.692" transform="translate(-358.819 -100.665)"/><path id="Path_29498" data-name="Path 29498" d="M246.333 225.915c3.679 2.02 10.084 3.81 14.073 4.844" transform="translate(-240.639 -201.321)"/><path id="Path_29499" data-name="Path 29499" d="M236.839 262.582c-7.167 3.567-17.509 2.52-19.5 2.062" transform="translate(-217.334 -230.788)"/><path id="Path_29500" data-name="Path 29500" d="M231.833 292.883c4.816.116 12.235-1.975 16.92-2.635" transform="translate(-228.986 -253.022)"/><path id="Path_29501" data-name="Path 29501" d="M218.75 313.928c6.145.67 15.114-3.134 20.863-4.68" transform="translate(-218.472 -268.291)"/><path id="Path_29502" data-name="Path 29502" d="M299.417 349.233a46.848 46.848 0 009.016-14.318" transform="translate(-283.299 -288.918)"/><path id="Path_29503" data-name="Path 29503" d="M326.583 363.264c.906-4.645 3.94-11.831 7.413-15.349" transform="translate(-305.131 -299.365)"/><path id="Path_29504" data-name="Path 29504" d="M374.75 370.961a126.584 126.584 0 003.649-13.713" transform="translate(-343.84 -306.865)"/><path id="Path_29505" data-name="Path 29505" d="M419.5 369.9a38.322 38.322 0 001.015-14.989" transform="translate(-379.803 -304.991)"/><path id="Path_29506" data-name="Path 29506" d="M448.772 362.053c-.633-4.061-3.39-10.405-5.105-14.138" transform="translate(-399.224 -299.365)"/><path id="Path_29507" data-name="Path 29507" d="M467.407 349.477A41.565 41.565 0 00457 340.248" transform="translate(-409.939 -293.204)"/><path id="Path_29508" data-name="Path 29508" d="M487.605 329.639c-3.8-1.411-9.542-4.52-12.272-7.724" transform="translate(-424.672 -278.47)"/><path id="Path_29509" data-name="Path 29509" d="M502.489 295.931c-3.75-2.417-9.07-4.584-13.156-6.349" transform="translate(-435.923 -252.486)"/><path id="Path_29510" data-name="Path 29510" d="M491.924 252.838a38.242 38.242 0 0114.153 5.1" transform="translate(-438.006 -222.957)"/><path id="Path_29511" data-name="Path 29511" d="M488.23 229.584c4.557-.973 10.464-1.8 15.148-1.338" transform="translate(-435.037 -203.087)"/><path id="Path_29512" data-name="Path 29512" d="M482.69 190.08a30.886 30.886 0 0111.965-8.415" transform="translate(-430.585 -165.76)"/><path id="Path_29513" data-name="Path 29513" d="M477.3 149.415c-2.817 4.453-7.9 9.21-12.968 11.094" transform="translate(-415.832 -139.842)"/><path id="Path_29514" data-name="Path 29514" d="M448.874 131.478c-2.964 3.211-5.985 7.2-8.659 10.655" transform="translate(-396.45 -125.428)"/><path id="Path_29515" data-name="Path 29515" d="M316.062 122.29c3.625 3.03 8.174 8.462 9.413 13.148" transform="translate(-296.676 -118.044)"/><path id="Path_29516" data-name="Path 29516" d="M278.062 129.6c1.765 2.136 4.757 4.1 6.84 5.84 2.445 2.036 3.862 6.969 4.863 9.865" transform="translate(-266.138 -123.921)"/><path id="Path_29517" data-name="Path 29517" d="M265 178.54a40.458 40.458 0 0011.454 10.742" transform="translate(-255.64 -163.248)"/><path id="Path_29518" data-name="Path 29518" d="M419.664 106.1c-3.061 3.815-5.349 10.088-6.664 14.756" transform="translate(-374.579 -105.035)"/><path id="Path_29519" data-name="Path 29519" d="M263.667 334.835a69.443 69.443 0 0014.4-7.92" transform="translate(-254.569 -282.489)"/></g><circle id="Ellipse_914" data-name="Ellipse 914" cx="17.345" cy="17.345" r="17.345" transform="translate(27.481 27.689)" fill="#8e7650" stroke="#fff" stroke-width="3"/></g></g></svg>