<svg xmlns="http://www.w3.org/2000/svg" xmlns:xlink="http://www.w3.org/1999/xlink" width="99.869" height="67.784"><defs><linearGradient id="linear-gradient" x1=".045" y1=".501" x2="1.043" y2=".501" gradientUnits="objectBoundingBox"><stop offset="0" stop-color="#929497"/><stop offset=".124" stop-color="#757578"/><stop offset=".279" stop-color="#575658"/><stop offset=".44" stop-color="#403e3f"/><stop offset=".609" stop-color="#302d2e"/><stop offset=".788" stop-color="#262223"/><stop offset="1" stop-color="#231f20"/></linearGradient><linearGradient id="linear-gradient-2" x1=".297" y1=".016" x2=".792" y2="1.031" gradientUnits="objectBoundingBox"><stop offset="0" stop-color="#231f20"/><stop offset="1" stop-color="#231f20" stop-opacity="0"/></linearGradient><linearGradient id="linear-gradient-3" x1=".024" y1=".503" x2="1.024" y2=".503" xlink:href="#linear-gradient"/><radialGradient id="radial-gradient" cx="2.104" cy=".558" r="3.17" gradientTransform="matrix(.667 0 0 1 .707 0)" gradientUnits="objectBoundingBox"><stop offset="0" stop-color="#faaf40"/><stop offset=".043" stop-color="#f9a538"/><stop offset=".112" stop-color="#f89d31"/><stop offset=".227" stop-color="#f89a2f"/><stop offset=".528" stop-color="#f7922d"/><stop offset="1" stop-color="#f37b28"/></radialGradient></defs><g id="Moodle-Logo.wine" transform="translate(0 -15.935)"><path id="Path_29525" data-name="Path 29525" d="M78.693 79.7V48.378c0-6.593-2.747-9.89-8.1-9.89s-8.1 3.3-8.1 9.89V79.7h-16.08V48.378c0-6.593-2.61-9.89-7.967-9.89s-8.1 3.3-8.1 9.89V79.7H14.408V46.6c0-6.868 2.335-11.95 7.143-15.522 4.121-3.159 9.89-4.67 16.9-4.67 7.28 0 12.5 1.786 15.934 5.494 2.885-3.709 8.242-5.494 16.071-5.494 7.143 0 12.775 1.511 16.9 4.67 4.808 3.571 7.143 8.654 7.143 15.522v33.234h-15.8z" transform="translate(5.38 3.886)" fill="url(#radial-gradient)"/><path id="Path_29531" data-name="Path 29531" d="M15.956 34.388l-1.648 8.242c15.11 5.082 29.4.137 36.95-13.049-11.126-7.692-21.428.137-35.3 4.808" transform="translate(5.343 3.865)" fill="#58595b"/><path id="Path_29532" data-name="Path 29532" d="M15.919 32.919c-.549 3.159-.962 6.181-1.511 9.341 14.423 4.945 28.571.687 36.126-12.225-9.616-11.127-20.334-1.924-34.615 2.884" transform="translate(5.38 3.274)" fill="url(#linear-gradient)"/><path id="Path_29533" data-name="Path 29533" d="M33.208 37.338c-6.593-1.374-13.736 2.06-18.681 5.632-3.159-23.077 11.126-22.528 29.808-16.758-1.236 5.632-3.3 13.187-6.868 17.72a7.381 7.381 0 00-4.258-6.593" transform="translate(5.261 2.563)" fill="url(#linear-gradient-2)"/><path id="Path_29534" data-name="Path 29534" d="M.008 36.192C24.183 21.632 37.782 18.885 65.941 16 33.249 41.824 32.425 36.192.008 36.192" fill="url(#linear-gradient-3)"/><path id="Path_29535" data-name="Path 29535" d="M65.941 16.137L39.98 34.955" fill="#383738" stroke="#4a4a4c" stroke-width=".5"/><path id="Path_29536" data-name="Path 29536" d="M25.545 23.623c.275 3.022-.412-2.885 0 0" transform="translate(9.49 2.542)" fill="#231f20" opacity=".23"/><path id="Path_29537" data-name="Path 29537" d="M.008 36.192l39.972-1.236" fill="#fff" stroke="#a8abad" stroke-width=".5"/><path id="Path_29538" data-name="Path 29538" d="M32.563 26.439c-6.872 1.923-29.396 6.868-29.672 9.753a92.877 92.877 0 00-.137 13.873" fill="none" stroke="#f16922" stroke-width=".5"/><path id="Path_29539" data-name="Path 29539" d="M4.476 61.566C2 55.384-1.018 48.516 2.553 40c2.335 7.967 1.923 14.011 1.923 21.566" transform="translate(.339 8.967)" fill="#f16922"/><ellipse id="Ellipse_915" data-name="Ellipse 915" cx="1.099" cy=".549" rx="1.099" ry=".549" transform="rotate(-19.61 89.933 -74.922)" fill="#6d6e70"/></g></svg>