<svg xmlns="http://www.w3.org/2000/svg" width="88.811" height="77.103"><g id="mybb" transform="translate(-1.21 -191.6)" fill="#393d3f"><path id="Path_29540" data-name="Path 29540" d="M11.236 268.7l4.69-14.6C6.887 247.537 1.21 238.03 1.21 227.445c0-19.783 19.883-35.845 44.406-35.845s44.406 16.062 44.406 35.845c0 9.866-4.244 15.466-12.227 21.93l4.826 13.919L72 257.062a62.971 62.971 0 01-26.383 6.232 52.962 52.962 0 01-20.088-3.857zM4.79 227.395c0 .491 0 .964.041 1.456a3.016 3.016 0 00.036.537 6.3 6.3 0 00.082.878c.041.291.045.455.073.687.05.4.118.8.187 1.2.428-8.07 5.8-15.038 12.15-20.215 9.862-8.065 27.793-15.612 39.475-6.2a25.387 25.387 0 014.094 4.244 47.367 47.367 0 0113.76 7.046c3.939 2.939 8.383 9 10.353 13.674v-3.307c0-17.932-17.959-32.474-40.121-32.474S4.79 209.463 4.79 227.395zm50.456 23.522c-6.75 2.488-17.668 5.627-24.923 5.163l-3.023 1.364c1.888.614 5.336 1.283 7.278 1.66.628.127 3.239.514 3.844.591l1.974.177 2.5.141c.741 0 1.419.046 2.138.046.482 0 1.287 0 2.411-.036.337 0 .96-.032 1.883-.086.4-.032 1.174-.114 2.338-.246l1.879-.268c.359-.055 1.119-.2 2.274-.414l2.693-.646q.455-.127 3.612-1.1c1.1-.382 6.468-2.352 6.823-2.511l-5.622-3.835c-2.352.155-5.7.086-8.051 0zm26.283-15.867c.173-7.069-5.741-12.6-11.418-16.13q-.654-.411-1.324-.8a43.317 43.317 0 00-4.376-2.211c6.582 10.039 7.214 26.26-4.226 32.178-.414.214-.842.423-1.269.619h1.865c.6 0 1.224-.032 1.788-.064 2.452-.132 3.389.7 5.459 2.074l.91.614.214-.118-.209.123 7.578 5.036-3.366-7.815-.159.123.159-.127-.355-.823a.159.159 0 01.1-.045c4.13-2.693 8.534-7.5 8.643-12.628zm-29.613-29.426c-9.307-4.922-20.552.323-28.094 5.868-7.242 5.308-15.129 13.364-13.983 22.53.869 6.823 5.167 13.132 11.154 17.286h-.045c.082.041.132.073.127.1l-4.167 10.558 10.2-7.365c2.693-1.947 4.039-1.992 7.319-1.929 13.942.378 29.795-5.04 30.154-19.824.246-9.3-3.111-22.185-12.659-27.229z"/><path id="Path_29541" data-name="Path 29541" d="M61.11 229.478s8.82-8.538 20.088-4.094c12.145 4.767 13.219 21.834 13.219 21.834-13.055-27.834-33.307-17.74-33.307-17.74z" transform="translate(-32.652 -17.717)" fill-rule="evenodd"/></g></svg>