<svg xmlns="http://www.w3.org/2000/svg" id="MySQL" width="143.15" height="73.92"><defs><style>.cls-1{fill:#00618a}</style></defs><path class="cls-1" d="M28.43 70.37h4.71V51.75L40.44 68c.86 2 2 2.66 4.36 2.66S48.24 70 49.11 68l7.3-16.24v18.62h4.71v-18.6a2.83 2.83 0 00-2.22-3.14c-3.58-1.12-6-.15-7.07 2.27l-7.17 16-6.94-16c-1-2.42-3.49-3.38-7.07-2.27a2.84 2.84 0 00-2.22 3.15zM65 55.21h4.72v10.26c-.05.56.18 1.87 2.76 1.91h10.25V55.16h4.77v16.73c0 4.11-5.1 5-7.46 5.07H65.15v-3.17h14.91c3-.32 2.68-1.83 2.68-2.34v-1.24h-10c-4.67 0-7.64-2.07-7.67-4.42 0-.21.1-10.48 0-10.58z" transform="translate(-28.43 -3.04)"/><path d="M91.13 70.37h13.56a10.42 10.42 0 004.36-.91c2-.93 3-2.2 3-3.87v-3.44c0-1.36-1.14-2.63-3.36-3.48a11.68 11.68 0 00-4-.69H99c-1.9 0-2.81-.58-3-1.85a1.53 1.53 0 010-.42v-2.15a1.4 1.4 0 010-.39c.23-1 .73-1.24 2.41-1.4h13.92V48.6H99a12.8 12.8 0 00-3.81.39c-2.82.88-4 2.27-4 4.69v2.75c0 2.12 2.4 3.93 6.44 4.36.45 0 .91.06 1.36.06h4.9a2.58 2.58 0 01.5 0c1.49.12 2.13.39 2.58.93a1.11 1.11 0 01.36.84v2.78a1.54 1.54 0 01-.68 1.12 3.27 3.27 0 01-2 .67h-13.5v3.14zm50.37-5.47c0 3.23 2.41 5 7.26 5.41.45 0 .91 0 1.36.06h12.29v-3.14H150c-2.77 0-3.81-.7-3.81-2.36V48.6h-4.69v16.3zm-26.41.16V53.85c0-2.84 2-4.57 6-5.12a8.93 8.93 0 011.27-.09h9a9.76 9.76 0 011.32.09c3.95.55 5.95 2.28 5.95 5.12v11.21a4.09 4.09 0 01-2.8 4.35l4.64 4.2h-5.57l-3.75-3.39-3.79.23h-5a10.55 10.55 0 01-2.77-.39c-3-.82-4.45-2.39-4.45-5zm5.09-.28a2 2 0 00.1.49c.28 1.3 1.49 2 3.35 2h4.29L124 63.74h5.48l3.42 3.1a2.2 2.2 0 001.19-1.51 1.75 1.75 0 000-.46V54.13a1.68 1.68 0 000-.43c-.28-1.21-1.5-1.91-3.32-1.91h-7.11c-2.1 0-3.45.91-3.45 2.34v10.66z" transform="translate(-28.43 -3.04)" fill="#e48e00"/><path class="cls-1" d="M166.56 43.39a16.55 16.55 0 00-7 1c-.54.22-1.39.23-1.48.9.29.31.34.78.57 1.16a9.23 9.23 0 001.9 2.22c.74.56 1.51 1.16 2.31 1.65 1.42.87 3 1.36 4.37 2.23.8.51 1.6 1.15 2.39 1.73.39.28.65.73 1.15.9v-.08c-.26-.34-.33-.8-.58-1.15l-1.07-1.07a17.41 17.41 0 00-3.79-3.63c-1.13-.81-3.65-1.9-4.12-3.22l-.08-.08a19.33 19.33 0 002.47-.57c1.24-.34 2.35-.25 3.63-.58l1.73-.5V44c-.65-.66-1.11-1.54-1.81-2.14a53.14 53.14 0 00-5.94-4.45c-1.15-.73-2.57-1.2-3.79-1.82-.41-.2-1.13-.31-1.4-.66a17.22 17.22 0 01-1.48-2.79c-1-2-2.05-4.17-3-6.27a36.62 36.62 0 00-1.81-4.12 36.5 36.5 0 00-14-13.52 17 17 0 00-4.61-1.48l-2.72-.16a13.68 13.68 0 01-1.65-1.24c-2.07-1.31-7.37-4.15-8.91-.42-1 2.36 1.45 4.66 2.31 5.85a18.17 18.17 0 011.85 2.68c.28.62.33 1.24.57 1.9a43 43 0 001.9 4.86 16.56 16.56 0 001.32 2.23c.3.41.82.59.9 1.23a10.25 10.25 0 00-.82 2.73c-1.29 4.06-.8 9.11 1.07 12.11.58.93 1.93 2.91 3.79 2.15 1.63-.67 1.26-2.72 1.73-4.54.11-.41 0-.71.25-1v.09l1.48 3a20.32 20.32 0 004.7 4.87c.86.64 1.54 1.76 2.64 2.14v-.08h-.08c-.22-.34-.55-.47-.83-.74a19.26 19.26 0 01-1.89-2.15 49.6 49.6 0 01-4-6.59c-.58-1.11-1.08-2.33-1.57-3.46-.18-.44-.18-1.1-.57-1.32a15.78 15.78 0 00-1.73 2.47 21 21 0 00-1 5.44c-.15 0-.08 0-.17.09-1.15-.28-1.55-1.46-2-2.48a15.56 15.56 0 01-.33-9.64c.25-.77 1.36-3.17.91-3.88-.21-.7-.92-1.11-1.32-1.65a13.07 13.07 0 01-1.32-2.3c-.88-2-1.29-4.25-2.22-6.27a18.31 18.31 0 00-1.82-2.79 16.71 16.71 0 01-2-2.8c-.19-.41-.45-1.06-.17-1.48a.66.66 0 01.5-.5c.47-.37 1.81.12 2.3.33a20.39 20.39 0 013.55 1.81c.54.35 1.08 1 1.73 1.24h.74c1.16.27 2.46.09 3.54.41a21.53 21.53 0 015.2 2.48 32.15 32.15 0 0111.29 12.37c.43.82.61 1.6 1 2.47.76 1.75 1.72 3.56 2.47 5.28a24.64 24.64 0 002.56 4.86c.56.75 2.72 1.15 3.71 1.57a21.87 21.87 0 012.47 1c1.25.76 2.46 1.65 3.63 2.48.58.41 2.38 1.32 2.47 2.06z" transform="translate(-28.43 -3.04)"/><path d="M129.71 12a5.85 5.85 0 00-1.48.17v.08h.08a12.16 12.16 0 001.15 1.48l.83 1.73.08-.08a2 2 0 00.74-1.81c-.2-.22-.23-.49-.41-.75s-.7-.53-1-.82z" transform="translate(-28.43 -3.04)" fill-rule="evenodd" fill="#00618a"/><path d="M164.62 67.14a3.48 3.48 0 103.48-3.48 3.43 3.43 0 00-3.48 3.48zm6.17 0a2.7 2.7 0 11-2.69-2.76 2.69 2.69 0 012.69 2.76zm-1.76 2h.78l-1.14-1.74c.61-.07 1.08-.36 1.08-1.09s-.51-1.14-1.5-1.14h-1.54v4h.66v-1.76h.63l1 1.71zm-1.66-2.27v-1.16h.77c.4 0 .88.07.88.54s-.43.6-.93.6z" transform="translate(-28.43 -3.04)" fill-rule="evenodd" fill="#e48e00"/></svg>