<svg xmlns="http://www.w3.org/2000/svg" id="_.net" data-name=".net" width="166.04" height="66.83"><circle cx="11.07" cy="55.48" r="11.07" fill="#fdcc0f"/><path d="M87.7 65.2a4.11 4.11 0 01-3.47 4.69h-8.3a4.13 4.13 0 01-4.69-3.47v-.09a4.28 4.28 0 010-1.13V36.54c0-3.84-1.36-6.47-5.86-6.47A17.47 17.47 0 0056 32.79V65.2a4.13 4.13 0 01-3.48 4.69h-8.3a4.13 4.13 0 01-4.69-3.47v-.09a4.28 4.28 0 010-1.13V23A4.13 4.13 0 0143 18.3h3.85c2.25 0 3.19 1.12 4.69 3.75a36 36 0 0118.15-5.21c14.07 0 18.2 7.51 18.2 17.45zm46.91-15.71h-25.94c-.42 6.8 3.14 8.72 11.26 8.72a38.72 38.72 0 0011.63-1.45 4.69 4.69 0 016.19 2.39 4.88 4.88 0 01.38 2.3v2a5.12 5.12 0 01-3.76 5.55 55.62 55.62 0 01-16.65 2.54C100.55 71.49 92.3 62.72 92.3 44s8.21-27.49 24.34-27.49c20.08 0 23.17 13.51 22.8 28.15a4.27 4.27 0 01-3.8 4.69h-.89zm-25.89-10.18h14.72c.94-5.72-.32-10.32-6.66-10.32-5.58 0-8.11 3.75-8.11 10.32zm40.8-27.67c0-3 1.27-4.18 5-5.21L159.94 5c4.36-1.18 6.24 1 6.24 4.26V18h8.11a4.13 4.13 0 014.71 3.44v.09a4.27 4.27 0 010 1.13v4.27a4.13 4.13 0 01-3.47 4.69H166v19.89c0 4.08 1.55 6.33 6.9 6.33h1a4.25 4.25 0 014.69 3.8v4a5.16 5.16 0 01-4.27 5.21 26.22 26.22 0 01-4.69.42c-14.82 0-20.07-6.19-20.07-18.43v-21h-4.08a4.12 4.12 0 01-4.69-3.47v-.09a4.28 4.28 0 010-1.13v-2.47C140.85 22 142 20.6 145 20l4.69-1.27z" transform="translate(-12.98 -4.66)"/></svg>