<svg xmlns="http://www.w3.org/2000/svg" id="node_js" data-name="node js" width="122.94" height="75.29"><defs><linearGradient id="linear-gradient" x1="1.31" y1="139.74" x2="1.65" y2="139.74" gradientTransform="scale(-115.3 115.3) rotate(63.888 112.185 68.223)" gradientUnits="userSpaceOnUse"><stop offset=".3" stop-color="#3e863d"/><stop offset=".5" stop-color="#55934f"/><stop offset=".8" stop-color="#5aad45"/></linearGradient><linearGradient id="linear-gradient-2" x1=".56" y1="141.73" x2=".78" y2="141.73" gradientTransform="scale(177.06 -177.06) rotate(36.459 216.029 70.497)" gradientUnits="userSpaceOnUse"><stop offset=".57" stop-color="#3e863d"/><stop offset=".72" stop-color="#619857"/><stop offset="1" stop-color="#76ac64"/></linearGradient><linearGradient id="linear-gradient-3" x1=".39" y1="141.47" x2=".58" y2="141.47" gradientTransform="matrix(129.89 0 0 -129.89 23.85 18409.54)" gradientUnits="userSpaceOnUse"><stop offset=".16" stop-color="#6bbf47"/><stop offset=".38" stop-color="#79b461"/><stop offset=".47" stop-color="#75ac64"/><stop offset=".7" stop-color="#659e5a"/><stop offset=".9" stop-color="#3e863d"/></linearGradient><clipPath id="clip-path" transform="translate(-40.94 -2.05)"><path class="cls-1" d="M85.61 19.45L73.9 26.21a1.41 1.41 0 00-.71 1.22V41a1.41 1.41 0 00.71 1.22l11.71 6.76a1.42 1.42 0 001.41 0l11.71-6.76a1.41 1.41 0 00.71-1.22V27.43a1.41 1.41 0 00-.71-1.22L87 19.45a1.4 1.4 0 00-1.41 0"/></clipPath><clipPath id="clip-path-2" transform="translate(-40.94 -2.05)"><path class="cls-1" d="M73.48 41.81a1.47 1.47 0 00.42.37l10 5.8 1.68 1a1.37 1.37 0 00.81.19l.28-.05 12.39-22.65a1.35 1.35 0 00-.33-.26l-7.67-4.43-4-2.33a1.2 1.2 0 00-.37-.15z"/></clipPath><clipPath id="clip-path-3" transform="translate(-40.94 -2.05)"><path class="cls-1" d="M86.17 19.27a1.47 1.47 0 00-.56.18l-11.68 6.74 12.59 22.93a1.55 1.55 0 00.51-.18l11.7-6.76a1.41 1.41 0 00.69-1L86.58 19.29a1.27 1.27 0 00-.28 0h-.12"/></clipPath><style>.cls-1{fill:none}.cls-2{fill:#689f63}</style></defs><path class="cls-2" d="M101.71 77.35a2.41 2.41 0 01-1.17-.31l-3.7-2.2c-.56-.31-.29-.42-.11-.48a7.5 7.5 0 001.68-.77.31.31 0 01.28 0l2.84 1.69a.36.36 0 00.35 0L113 68.9a.36.36 0 00.17-.3V55.78a.36.36 0 00-.17-.3l-11.1-6.4a.3.3 0 00-.34 0l-11.1 6.4a.34.34 0 00-.17.3v12.81a.34.34 0 00.17.3l3 1.76c1.65.82 2.66-.15 2.66-1.13V56.88a.32.32 0 01.32-.32h1.41a.32.32 0 01.32.32v12.65c0 2.2-1.2 3.46-3.29 3.46a4.79 4.79 0 01-2.56-.69l-2.91-1.68a2.36 2.36 0 01-1.17-2V55.78a2.34 2.34 0 011.17-2l11.11-6.41a2.41 2.41 0 012.33 0L114 53.76a2.35 2.35 0 011.17 2V68.6a2.35 2.35 0 01-1.17 2L102.87 77a2.25 2.25 0 01-1.17.31" transform="translate(-40.94 -2.05)"/><path class="cls-2" d="M105.14 68.52c-4.86 0-5.88-2.23-5.88-4.1a.32.32 0 01.32-.32H101a.31.31 0 01.32.27c.22 1.46.86 2.2 3.8 2.2 2.34 0 3.34-.53 3.34-1.77 0-.71-.29-1.25-3.92-1.6-3-.3-4.92-1-4.92-3.4 0-2.24 1.89-3.58 5.05-3.58 3.56 0 5.32 1.24 5.54 3.89a.33.33 0 01-.08.25.37.37 0 01-.24.1h-1.44a.32.32 0 01-.31-.25c-.35-1.54-1.19-2-3.47-2-2.56 0-2.85.89-2.85 1.56s.35 1 3.79 1.5 5 1.09 5 3.49-2 3.8-5.54 3.8M118.64 55h.36a.33.33 0 00.37-.34c0-.33-.23-.33-.35-.33h-.39zm-.45-1.06h.81c.29 0 .84 0 .84.64a.56.56 0 01-.45.59c.33 0 .35.24.4.54a2.7 2.7 0 00.12.64h-.51c0-.12-.09-.73-.09-.76s-.08-.2-.25-.2h-.42v1h-.46zm-1 1.2A1.79 1.79 0 10119 53.3a1.8 1.8 0 00-1.78 1.79m3.94 0A2.14 2.14 0 11119 53a2.16 2.16 0 012.14 2.14" transform="translate(-40.94 -2.05)"/><path d="M67.33 27.22a1.44 1.44 0 00-.71-1.22l-11.78-6.79a1.32 1.32 0 00-.64-.21h-.12a1.36 1.36 0 00-.65.19L41.66 26a1.45 1.45 0 00-.72 1.24v18.24a.72.72 0 00.35.62.7.7 0 00.71 0l7-4a1.44 1.44 0 00.71-1.24v-8.55a1.41 1.41 0 01.71-1.23l3-1.71a1.39 1.39 0 01.71-.2 1.35 1.35 0 01.7.2l3 1.71a1.41 1.41 0 01.71 1.23v8.52a1.45 1.45 0 00.72 1.24l7 4a.71.71 0 001.06-.61zm55.54 9.5a.35.35 0 01-.18.3l-4 2.33a.33.33 0 01-.36 0l-4-2.33a.35.35 0 01-.18-.3v-4.67a.35.35 0 01.18-.31l4-2.33a.33.33 0 01.36 0l4 2.33a.35.35 0 01.18.31zM124 2.14a.72.72 0 00-1.06.63v18.06a.49.49 0 01-.74.43l-3-1.7a1.44 1.44 0 00-1.42 0L106 26.36a1.43 1.43 0 00-.71 1.23v13.59a1.43 1.43 0 00.71 1.23l11.78 6.8a1.39 1.39 0 001.42 0l11.8-6.8a1.42 1.42 0 00.71-1.23V7.3a1.44 1.44 0 00-.71-1.25zm39.21 29.79a1.44 1.44 0 00.71-1.23v-3.3a1.44 1.44 0 00-.71-1.23l-11.7-6.79a1.39 1.39 0 00-1.42 0l-11.78 6.8a1.41 1.41 0 00-.71 1.23V41a1.42 1.42 0 00.72 1.23L150 48.9a1.41 1.41 0 001.39 0l7.06-3.9a.73.73 0 00.36-.62.69.69 0 00-.36-.62l-11.84-6.8a.7.7 0 01-.36-.61v-4.29a.68.68 0 01.36-.61l3.68-2.13a.7.7 0 01.71 0l3.69 2.13a.69.69 0 01.35.61v3.35a.72.72 0 00.36.62.7.7 0 00.71 0z" transform="translate(-40.94 -2.05)" fill-rule="evenodd" fill="#333"/><path d="M150.59 31.29a.26.26 0 01.27 0l2.26 1.3a.28.28 0 01.13.24v2.61a.28.28 0 01-.13.24L150.86 37a.26.26 0 01-.27 0l-2.26-1.3a.27.27 0 01-.14-.24v-2.63a.27.27 0 01.14-.24z" transform="translate(-40.94 -2.05)" fill-rule="evenodd" fill="#689f63"/><g clip-path="url(#clip-path)"><path d="M111.27 25.06l-33-16.17L61.36 43.4l33 16.17z" transform="translate(-40.94 -2.05)" fill="url(#linear-gradient)"/></g><g clip-path="url(#clip-path-2)"><path d="M59.22 29.84l23.29 31.53 30.81-22.76L90 7.08z" transform="translate(-40.94 -2.05)" fill="url(#linear-gradient-2)"/></g><g clip-path="url(#clip-path-3)"><path d="M73.93 19.26v29.86h25.48V19.26z" transform="translate(-40.94 -2.05)" fill="url(#linear-gradient-3)"/></g></svg>