<svg xmlns="http://www.w3.org/2000/svg" width="72" height="76.09"><g id="Group_4421" data-name="Group 4421" transform="translate(704.137 54.396)"><path id="Path_29542" data-name="Path 29542" d="M-646.329 20.616h7.6l5.082 36.473h-16.422c1.244-12.146 2.485-24.235 3.74-36.473z" transform="translate(-25.511 -35.395)" fill="#383636"/><path id="Path_29543" data-name="Path 29543" d="M-684.959-46.878l8.936-7.518 14.759 25.176-3.7 2.875z" transform="translate(-9.049)" fill="#fedf0d"/><path id="Path_29544" data-name="Path 29544" d="M-699.168 25.688l-4.969-11.471 28.356-6.875 1.842 4.685z" transform="translate(0 -29.131)" fill="#fedf0e"/><path id="Path_29545" data-name="Path 29545" d="M-621.732 7.128l27.774 6.609-3.927 11.87-11.346-6.077c-3.873-2.078-7.668-4.324-11.644-6.18-2.387-1.115-3.016-2.35-1.6-4.576a14.269 14.269 0 00.743-1.646z" transform="translate(-38.179 -29.03)" fill="#fedf0e"/><path id="Path_29546" data-name="Path 29546" d="M-627.374-26.08l-3.729-2.959 14.506-24.7 9.592 6.833z" transform="translate(-34.461 -.311)" fill="#fedf0d"/></g></svg>