<svg xmlns="http://www.w3.org/2000/svg" id="_.online" data-name=".online" width="189.08" height="51.57"><g id="g6" fill-rule="evenodd"><path id="path2" d="M57.45 39.76c0-4.33-.14-8-.28-11.07h9.12l.49 4.75H67a12.32 12.32 0 0110.43-5.53c6.9 0 12.09 4.69 12.09 14.9v20.56H79V44.15c0-4.47-1.52-7.52-5.32-7.52a5.63 5.63 0 00-5.32 4 7.69 7.69 0 00-.36 2.74v20H57.45zm36.89 23.61H104v-50h-9.7zm14.83 0h10.68v-34.8h-10.68v34.8zm11-44.48a5.39 5.39 0 01-5.76 5.41 5.26 5.26 0 01-5.55-5.41 5.25 5.25 0 015.62-5.48 5.39 5.39 0 015.69 5.48zm5.12 20.87c0-4.33-.13-8-.27-11.07h9.11l.49 4.75h.21a12.3 12.3 0 0110.43-5.53c6.9 0 12.08 4.69 12.08 14.9v20.56h-10.5V44.15c0-4.47-1.52-7.52-5.32-7.52a5.62 5.62 0 00-5.31 4 7.45 7.45 0 00-.42 2.69v20h-10.5V39.76zm59.42 2.69c0-2.69-1.11-7.2-6-7.2-4.45 0-6.25 4.22-6.53 7.2zM172.3 50c.34 4.58 4.66 6.76 9.59 6.76a28.59 28.59 0 009.38-1.46l1.39 7.49a32.27 32.27 0 01-12.3 2.21c-11.54 0-18.14-7-18.14-18.1 0-9 5.35-19 17.17-19 11 0 15.15 8.94 15.15 17.73a27.25 27.25 0 01-.35 4.37zm-136 7.06c-4.52 0-7-4.57-7-10.66 0-5.22 1.88-10.66 7-10.66 4.8 0 6.75 5.36 6.75 10.66 0 6.38-2.65 10.66-6.75 10.66m.28-29.16c-10.93 0-18.16 7.33-18.16 18.79v.89a11.52 11.52 0 015.29 9.78 11.64 11.64 0 01-.32 2.69A17.48 17.48 0 0036 65c9.11 0 17.95-6 17.95-18.93 0-10.67-7-18.14-17.39-18.14" transform="translate(-5.46 -13.41)" fill="#3e3e3d"/><path id="path4" d="M20 56.11a7.27 7.27 0 11-7.27-7.25A7.26 7.26 0 0120 56.11" transform="translate(-5.46 -13.41)" fill="#10a44a"/></g></svg>