<svg xmlns="http://www.w3.org/2000/svg" xmlns:xlink="http://www.w3.org/1999/xlink" id="openbsd" width="83.25" height="71.78"><defs><radialGradient id="radial-gradient" cx="195.97" cy="-42.72" r="62.39" gradientTransform="matrix(.59 0 0 -.61 -18.46 12.69)" gradientUnits="userSpaceOnUse"><stop offset="0" stop-color="#fff68e"/><stop offset=".73" stop-color="#eed26a"/><stop offset="1" stop-color="#d6aa4a"/></radialGradient><radialGradient id="radial-gradient-2" cx="52.9" cy="-202.66" r="9.07" gradientTransform="matrix(.41 0 0 -.26 98.41 -22.92)" gradientUnits="userSpaceOnUse"><stop offset="0" stop-color="#fff68e"/><stop offset=".5" stop-color="#faea82"/><stop offset="1" stop-color="#d6aa4a"/></radialGradient><radialGradient id="radial-gradient-3" cx="97.54" cy="-118.71" r="4.11" gradientTransform="matrix(.31 0 0 -.34 98.51 -10.59)" xlink:href="#radial-gradient-2"/><radialGradient id="radial-gradient-4" cx="73.57" cy="-226.05" r="10.1" gradientTransform="matrix(.38 0 0 -.27 98.44 -20.42)" xlink:href="#radial-gradient-2"/><radialGradient id="radial-gradient-5" cx="86.31" cy="-188.02" r="10.81" gradientTransform="matrix(.32 0 0 -.32 98.5 -13.26)" xlink:href="#radial-gradient-2"/><radialGradient id="radial-gradient-6" cx="86.13" cy="-200.67" r="106.54" gradientTransform="matrix(.32 0 0 -.33 98.5 -12.94)" xlink:href="#radial-gradient-2"/><radialGradient id="radial-gradient-7" cx="-75.54" cy="-170.9" r="4.32" gradientTransform="matrix(.28 0 0 -.38 98.54 -6.02)" xlink:href="#radial-gradient-2"/><radialGradient id="radial-gradient-8" cx="80.06" cy="-228.05" r="3.56" gradientTransform="matrix(.32 0 0 -.32 98.5 -13.36)" xlink:href="#radial-gradient-2"/><radialGradient id="radial-gradient-9" cx="-56.6" cy="-109.41" r="3.26" gradientTransform="matrix(.21 0 0 -.5 98.61 11.18)" xlink:href="#radial-gradient-2"/><radialGradient id="radial-gradient-10" cx="59.74" cy="-190.58" r="3.82" gradientTransform="matrix(.27 0 0 -.38 98.55 -5)" xlink:href="#radial-gradient-2"/><radialGradient id="radial-gradient-11" cx="-11.2" cy="-95.78" r="3.26" gradientTransform="matrix(.19 0 0 -.54 98.63 17.74)" xlink:href="#radial-gradient-2"/><radialGradient id="radial-gradient-12" cx="30.44" cy="-146.03" r="3.96" gradientTransform="matrix(.23 0 0 -.45 98.59 4.61)" xlink:href="#radial-gradient-2"/><style>.cls-2{fill:#0f0d06}.cls-3{fill:#0e0b05}.cls-4{fill:#0d0b05}.cls-5{fill:#fff}.cls-6{fill:#0f0e07}.cls-7{fill:#0f0e08}.cls-8{fill:#0e0d08}.cls-9{fill:#010101}.cls-12{fill:#020202}.cls-13{fill:#050505}.cls-14{fill:#0e0d05}</style></defs><path d="M103.69 3.22c-.7 1.63-.5 3.53-1 5.23-.11.39-.5 1.57-1.07 1.49-1.15-.17-.55-2.39-1.88-2.43l.41 3.24c-2 .25-1.73-2.87-2.54-4.14-.94-1.47-1.16.66-1.1 1.32 0 .42.12.83.17 1.25a8.2 8.2 0 010 2.1c-1.91 0-1.21-2.55-2.61-2.93l.1 3c-2.12 0-3.09-1.93-4-3.56-.39-.68-.91-2-1.84-1.57.44 1.89 1.47 3.69 1.57 5.65 0 .51-.45 1.8-1.15 1.56C87.1 12.91 87.32 10 86 9.19c-.27-.16-.71 0-1 0a15.42 15.42 0 001.2 4.91c.12.32.45 1.42-.24 1.4-1.23 0-1.53-2.41-2.78-2.13.16.64.54 1.16.75 1.78a7.58 7.58 0 01.44 1.15c.15.86-.94.93-1.5.76a8.15 8.15 0 01-3.24-2.44c-.27-.26-1-1.19-1.41-.77s.48 1.3.75 1.61a10.1 10.1 0 012.08 3.24 1.41 1.41 0 01-.31 1.61c-.51.35-1.33-.29-1.74-.56-1.26-.83-2.5-2.27-4.08-2.3l-.37.94 1 1.36 2.61 2.93-3-1.26c.12.8 2 1.76 1.65 2.58-.23.48-1.33.49-1.76.43-1.54-.22-2.64-1.38-4.08-1.79-1.27-.36-1 .62-.31 1.19.25.2.49.41.73.62.44.37.85.75 1.26 1.16.63.63 1.19 1.31 1.77 2l-3-.11v.21l2.93 1.36-.52 2.1a5.78 5.78 0 01-2.31-.57 3.74 3.74 0 00-1.73-.6c-.71.05-1.14.7-.66 1.31.72.91 2.15 1.43 3.07 2.14.35.27.85.73.46 1.2-.78.91-2.89-.26-3.92 0v.21c1 .56 2.92.88 3.48 1.9.44.81-.81 2.63-1.7 2.56S69 38.42 68.43 38a24.9 24.9 0 00-4.5-3.21c-2.78-1.32-5.54.79-7.74 2.16.28.89 1.39-.06 2.09.1a4.81 4.81 0 012.26 1.78A28.38 28.38 0 0167 50.3c.29 1.15.78 2.52-.08 3.54-.23.28-.57.32-.83.54s-.18.41.08.49a3.46 3.46 0 001.65-.19c1.54-.37 3.29-1.2 4-2.7.43-.94.59-2.77 1.66-3.14.24 1 1.37 2.33 1.26 3.35a6.16 6.16 0 01-1.6 2.6c-.19.24-.67.75-.38 1.09s.86-.39 1-.55c.79-.75 2.53-1.94 3-.21.41 1.49-.91 3.91-1.57 5.23-.18.36-1 1.51-.69 1.92s1.17-.76 1.34-1c.66-.87 3-3.42 4.19-2.5 1.5 1.12 1 1.92.42 3.44-.16.43-.75 1.5-.35 1.91s.9 0 1.1-.34c.35-.68 1.32-2.71 2.29-2.19a5.06 5.06 0 011.88 1.48c.55.94.07 2.82-.08 3.85-.08.59-.71 2.43-.19 2.86s.88-.79 1-1.08a13.38 13.38 0 011.9-2.91c.28-.31.67-.83 1.14-.74 2.43.46-.06 2.88.94 4.11.2.25.75.23 1 .29l1.25-3.24c.64.24 1.58.33 2 .86a3.8 3.8 0 01.67 1.75 14.37 14.37 0 01.29 4.71c.2.14.51.48.78.31s.38-1.1.5-1.46A26.87 26.87 0 0198.05 69c.35-.72 1.29-1.48 2-.49s.42 2.79.86 3.94c1.11-.54 1.23-2.86 1.25-4l1.44.21.87 1.78L106 75c.81-.31.56-1.87.65-2.62.12-1 .36-3.06 1.1-3.81.3-.31.9-.33 1.29-.48.44 1.08.68 2.31 1.22 3.35.21.4.69.84 1.17.59s.45-.78.39-1.22c-.15-1.08-.39-2.15-.48-3.24 2.07-.15 3.29 1.53 4.59 2.93.51.54 1 1.25 1.69 1.46l-1.08-3.14-.6-2.93c.76-.31 2.35-1.85 3.14-1.63 1.18.34 2.09 3.63 3.55 2.85.63-.33.31-.88 0-1.32-.44-.65-1.75-2.22-1.61-3a2.13 2.13 0 011.71-1.3 7 7 0 014.5 2.14l.94-.1c-.14-1.88-2.94-2.73-3.35-4.61a1.36 1.36 0 010-.6c.3-1.2 1-.67 1.77-.35.23.1.74.36.93.07s-.16-.74-.3-1a2.9 2.9 0 01-.43-1.78 7.85 7.85 0 012.41 1.39c.2.13.63.45.87.27s-.12-.58-.24-.72c-.37-.43-1.5-1.46-1.39-2.08.08-.42.79-.87 1.07-1.16a24.62 24.62 0 002.83-3h.1c1.85 2.16 7.65.65 6.91-2.61-.46.06-.89.43-1.36.26-2.06-.71-1.56-4-3.87-4a15.64 15.64 0 00-2.08-6.17c-.48-.86-1.47-1.64-1.82-2.52a6.12 6.12 0 01-.18-1.77c1.21-.19.61-1.42.17-2.09a14 14 0 00-1.65-2.3c-.78-.78-2-1.29-1.84-2.62s2.22-1.08 2.59-2.2a15.14 15.14 0 00-1.89.29c-1.55.26-1.82-.27-1.1-1.65a17 17 0 012.54-3.14c.28-.32 1.16-1.06.71-1.53s-1 .21-1.31.42a15 15 0 01-3.75 1.67c-.39.12-1.55.57-1.68-.12-.18-.95 1.6-1.12 1.37-2.18-.71.17-2.12 1.29-2.8.77-.83-.63.38-2.23.51-3s-.47-.78-.89-.31c-.15.17-.28.35-.42.52a4.37 4.37 0 00-.59.94c-1.71-1 1.53-2.16.92-3.09-.22-.33-.62 0-.81.17-.41.36-1.94 2.12-2.27.83s.37-3.15.76-4.5c.1-.35.55-1.3.11-1.56-.64-.37-.92.88-1.07 1.25a8.18 8.18 0 01-2.14 2.91c-.29.26-.8.78-1.25.66-.64-.18-.65-2-.62-2.53 0-.26.15-.71-.1-.9s-.51.25-.56.48c-.16.77-.64 3-1.78 1.53-1-1.3.56-4-1.54-4.56L108.5 11c-1.38-.3-1.07-2.27-.73-3.35l-.63-.21a10.77 10.77 0 01-.38 1.26c-.56 1.56-1.31 1.87-1.88.1a26.51 26.51 0 01-.5-4.18c-.09-.55-.14-1.11-.69-1.36z" transform="translate(-56.19 -3.22)"/><path d="M103.8 6.36c-.07 3-1 5.23-4.29 5.23l1.15 4.71c-1.25-1.3-1.66-3.14-2.27-4.82a19.21 19.21 0 01-1-3.24h-.1c0 1.89.44 3.76.06 5.65a27.68 27.68 0 01-1.11 2.83h-.1l.63-4.61c-2.34.19-4.36.54-5.89-1.67a8.33 8.33 0 01-.81-1.57H90c.27 1.75 1.83 3.79 0 5.26a3.37 3.37 0 01-.94.49l1.66 2.51 1 1.26c-2.65-1.75-4.22-4.81-5.55-7.64H86c.34 2.26 1.71 4.29 2 6.59.11.8.42 1.93-.27 2.51l-.84-4c-1.22.63-2.16 2.53-3.77 2.26a10.79 10.79 0 01-1.88-.9c.3 1 1.14 1.86.66 2.93a7.55 7.55 0 01-.76 1l3.34 1.25c-.61.73-1.88.16-2.61-.19A25.17 25.17 0 0178 19.81a7 7 0 00-2.41-1.4c.53 1.15 1.9 2.12 2.83 3a18.72 18.72 0 012 2.29c.64.78 1.47 1.66 1.16 2.72-1.11-1.13-2.08-1.94-3.76-1.55a7.35 7.35 0 01-1.78.49 10.27 10.27 0 01-3.35-1c.62 1.33 2.24 2 2.59 3.56.25 1.12-.56 2.55-.71 3.66l3.56.53v.21c-3 .8-5.2-.87-8.06-1.36v.1a17.38 17.38 0 015.49 4.08 3.53 3.53 0 011.11 2.09c-.57-.45-1.63-1.64-2.41-1.52-.62.09-.83.79-.91 1.31a28.16 28.16 0 00-.24 4.4c-.6-.52-.52-1.25-.52-2a3.44 3.44 0 01-2.52.91c-1-.19-1.94-1.39-2.61-2.06-1.33-1.32-2.8-2.63-4.71-2.89-1-.13-4 0-2.66 1.53a1.89 1.89 0 00.47.42c.71.36 2.22-.11 3-.11v.11l-2.56.52c1 2.2 3.33.23 4.61 1.57a6.87 6.87 0 00-3.25 0l1.46 1.88.68.88 2.47.28v.1h-2.2c.13 1.15 1.46.84 2.3.73v.11l-1.78.31c.28.65 1 2.57 1.61 2.87s1.21-.22 1.64-.46c-.58 1.05-1.61.63-1.05 2.09l1.67-.84c-.37.42-1 .76-1.25 1.26s.2 1.63.42 2.2L70 49.57l-1.59 1.79.13 1.87a5.7 5.7 0 003.13-3c.25-.59.28-1.32.57-1.87.22-.4.84-.34 1-.77.24-.83-.27-1.51.14-2.38h.1l.32 1.67c1-.3 1.68-2 2-2.93h.2c.3 1.34-.92 2.21-1.36 3.35.74.17 2.07.53 2 1.46L74 47.79l2 4.4h.11c1-1.45 1.88-3.75 3.24-4.82.48 1.55-1.17 2.8-1.78 4.08.9-.24 2.53-1.45 3.35-.94a8.45 8.45 0 00-3 2.09c-.28.31-.79.82-.79 1.26s.57 1 .82 1.36a11.68 11.68 0 003.41 3.45 15 15 0 001.35-3.35c.13-.54.11-1.27.64-1.56.51 2.88-1.55 6.06-2.2 8.78 2-1.66 3.16-4.36 5.65-5.44-.06 1.35-2.22 2.06-2.33 3.56 0 .52.61.8 1 1.05a15.89 15.89 0 003 1.95c.41.17.81.53 1.2.12a4.2 4.2 0 00.65-3.12c-.07-.6-.32-1.53.13-2l.68 4.34-.41 5h.1c1-2.48 1.85-5.18 3.77-7.11 0 1.31-1.47 3.16-2 4.39A27.72 27.72 0 0099 67.15a9.89 9.89 0 00-.22-3.87c-.16-.58-.66-1.35-.3-1.89 1.3 2.8 2.72 5.63 2.72 8.79h.1a30.15 30.15 0 01.72-5.75c.06-.35.16-1.76.65-1.76s.32.85.27 1.13c-.24 1.28-.53 2.58-.69 3.87l4.5-.11 1.56-.28v-1.6l-2.15-3.76c.82-.19 1.62 1.27 2 1.88a26.22 26.22 0 012.84 7.64h.1c-.27-3.46-1.17-6.65-.73-10.15 1 .41.47 3 .6 4 0 .32 0 1.16.37 1.28s1-.19 1.33-.3a33.69 33.69 0 003.56-1.52c.45-.2 1.08-.45 1.11-1 .12-2-1.7-2.58-2.89-3.66a3.75 3.75 0 012.61 1.2 22 22 0 013.31 3.09 16.67 16.67 0 001.61 2.1 25.53 25.53 0 00-1.75-3.25 20.76 20.76 0 01-2.12-6.59h.1l2 5.23c1.08-.37 2-1.65 2.66-2.51.31-.39.7-.74.69-1.26 1.76-.63-.49-2-.84-2.61 1.22-.18 2.31 1 3.46 1.25-.51-1.09-1.4-2.51-1.15-3.76h.2L126 55c1.83-1.69 4-3.43 5.36-5.54a10.67 10.67 0 00.57-9.94 9.92 9.92 0 00-1.37-2.81c-.93-1-1.73.68-1.84 1.45a2.86 2.86 0 011.25.48c1.42 1 1.49 2.64.9 4.12a6.38 6.38 0 00-.77 1.88 10.46 10.46 0 00.56 2.51 4.34 4.34 0 01-1.42 3.76 4.26 4.26 0 01-3.45 1.13c-.58-.09-1.19-.63-1.78-.41-.92.34-1.1 1.73-1.67 2.43-.26-1.57.93-2.48 1.18-3.87a6.8 6.8 0 00-.63-2.62c-.18-.55-.45-2.09-1.29-1.77-.53.2-.81.81-1.12 1.25-.75 1-1.42 2.3-2.75 2.61.49-1.25 1.81-2.3 2.54-3.45 1.47-2.27 3-6.12 1.08-8.58A6.57 6.57 0 00119 36a24.33 24.33 0 00-3.66-1.06v-.21l1.46-.21-.31-2.3-.95.32c0-3.84 3.85-5.93 6.49-8l-.48 1.36 1.3 2 2.6 4.1-1-.1c.2 1.5.56 2.9 0 4.39-.34 1-1.18 1.76-1.43 2.72-.13.49.11 1 .11 1.47a9.1 9.1 0 01-.39 2c1.88-.9 2.24-3.63 4.19-4.29a27.69 27.69 0 01-.62-2.73c-.14-2.06.27-4.11 0-6.17a31.35 31.35 0 00-2.16-6.38l1 .42c.21-1.45 1.41-2.23 2.19-3.35-1.21.44-3.06 1.94-4.39 1.15-.92-.55-1.25-1.74-2.2-2.2l-1.25 5h-.11c-.55-2.32.63-4.52 1.15-6.7-1.59 1.29-2.71 2.92-4.92 3.24l3-2.2.69-1-.9-.78-2.41-1.66 1 .21.42-3.35h-.1a6 6 0 01-.85 1.15 4.91 4.91 0 01-1.62 1.43c-1.22.42-2.9-1-4-1.32v4.81c-1.07-.18-.93-1.26-.94-2.19 0-2.07-.09-4.11 0-6.18h-.11c-.31 2.33-1.07 5.64-3.34 6.8a12.11 12.11 0 001.61-3.14c.1-.35.4-1 0-1.24-1.06-.79-2.68-.11-3.54-1.37s-.3-2.82-.82-4.08z" transform="translate(-56.19 -3.22)" fill="url(#radial-gradient)"/><path class="cls-2" d="M97.41 8.55l.11.11zm-.1.32l.1.1z" transform="translate(-56.19 -3.22)"/><path class="cls-3" d="M109.86 9.29l.11.1z" transform="translate(-56.19 -3.22)"/><path class="cls-2" d="M103.27 9.5l.11.1z" transform="translate(-56.19 -3.22)"/><path class="cls-4" d="M109.76 9.71l.1.1z" transform="translate(-56.19 -3.22)"/><path class="cls-2" d="M103.17 9.81l.1.11z" transform="translate(-56.19 -3.22)"/><path class="cls-5" d="M85.9 10.65l.11.1z" transform="translate(-56.19 -3.22)"/><path class="cls-2" d="M102.64 10.65l.11.1zm-.1.1l.1.11zm2.41.11l.1.1zM90.61 11l.11.11zm14.55 0l.1.11zm-18.94.11l.1.1zm5.12 0l.11.1zm14 0l.1.1z" transform="translate(-56.19 -3.22)"/><path class="cls-6" d="M91.66 11.38l.1.1zm9.42 0l.1.1z" transform="translate(-56.19 -3.22)"/><path class="cls-4" d="M117.61 11.38l.1.1z" transform="translate(-56.19 -3.22)"/><path class="cls-5" d="M117.54 11.55v.07z" transform="translate(-56.19 -3.22)"/><path class="cls-2" d="M86.22 11.59l.1.1zm21.45 0l.1.1z" transform="translate(-56.19 -3.22)"/><path class="cls-6" d="M90.82 12l.11.1z" transform="translate(-56.19 -3.22)"/><path class="cls-3" d="M117.4 12l.1.1z" transform="translate(-56.19 -3.22)"/><path class="cls-6" d="M86.74 13l.11.1zm.52 0l.11.1zm.11.21l.1.1z" transform="translate(-56.19 -3.22)"/><path d="M102.85 13.58l-1.67 7.53c1.29-.79 1.56-3.65 1.67-5h.15a16.27 16.27 0 00.82 3.56c.2.45.41 1.05 1 1L103.4 16z" transform="translate(-56.19 -3.22)"/><path class="cls-6" d="M99.09 13.68l.1.11zm-8.9.21l.11.11zm-.52.42l.11.1zm-.52.21l.1.1zm13.39.31l.1.11z" transform="translate(-56.19 -3.22)"/><path d="M92.6 14.94c0 2.67 1.35 5.11.84 7.84.5-.3.51-1 .52-1.56 0-1.27-.21-2.51-.21-3.77h.11c.36 1.26 1.35 3.78 2.82 4a6.8 6.8 0 00-1.1-1.77c-.83-1.33-1.64-3.95-2.98-4.74z" transform="translate(-56.19 -3.22)"/><path class="cls-6" d="M88.42 15l.1.11z" transform="translate(-56.19 -3.22)"/><path class="cls-7" d="M92.81 15l.1.11z" transform="translate(-56.19 -3.22)"/><path class="cls-2" d="M107.14 15.15l.11.1z" transform="translate(-56.19 -3.22)"/><path class="cls-6" d="M102.44 15.36l.1.1zm5.12 0l.11.1z" transform="translate(-56.19 -3.22)"/><path class="cls-2" d="M116.46 15.36l.1.1z" transform="translate(-56.19 -3.22)"/><path class="cls-6" d="M107.46 15.46l.1.11zm-.63.11l.1.1zm.52 0l.11.1z" transform="translate(-56.19 -3.22)"/><path class="cls-7" d="M93.23 15.67l.1.1zm6.9.1l.11.11z" transform="translate(-56.19 -3.22)"/><path class="cls-4" d="M117.08 15.77l.11.11z" transform="translate(-56.19 -3.22)"/><path class="cls-6" d="M106.83 16l.1.11z" transform="translate(-56.19 -3.22)"/><path d="M114.05 16.09c-1.16 1.83-2.55 4.32-4.29 5.65v.1c1.32-.23 2.74-1.9 3.14-3.14h.1c0 1.87-.87 3.84-.1 5.65h.1c.56-1.88.27-4.1.75-6.06.15-.62.7-1.65.3-2.2z" transform="translate(-56.19 -3.22)"/><path class="cls-6" d="M87.05 16.3l.11.1z" transform="translate(-56.19 -3.22)"/><path class="cls-7" d="M93.65 16.4l.1.11zm-5.76.21l.11.11zm-.73.11l.1.1zm2.41 0l.1.1zm13.91 0l.11.1zm-.84.21l.11.1z" transform="translate(-56.19 -3.22)"/><path class="cls-2" d="M114.05 16.93l.1.1z" transform="translate(-56.19 -3.22)"/><path class="cls-5" d="M120.43 17l.11.1zm-39.23.1l.1.11z" transform="translate(-56.19 -3.22)"/><path class="cls-7" d="M94.07 17.13l.1.11z" transform="translate(-56.19 -3.22)"/><path class="cls-3" d="M120.43 17.13l.11.11z" transform="translate(-56.19 -3.22)"/><path class="cls-6" d="M113.21 17.34l.11.11z" transform="translate(-56.19 -3.22)"/><path class="cls-7" d="M90.4 17.55l.11.11z" transform="translate(-56.19 -3.22)"/><path class="cls-6" d="M110.07 17.55l.11.11z" transform="translate(-56.19 -3.22)"/><path class="cls-8" d="M91.34 17.76l.11.11z" transform="translate(-56.19 -3.22)"/><path class="cls-7" d="M91.45 17.87l.1.1z" transform="translate(-56.19 -3.22)"/><path class="cls-6" d="M112.79 17.87l.11.1z" transform="translate(-56.19 -3.22)"/><path class="cls-9" d="M91.55 18l.11.11z" transform="translate(-56.19 -3.22)"/><path class="cls-6" d="M83 18.08l.11.1z" transform="translate(-56.19 -3.22)"/><path class="cls-2" d="M119.59 18.08l.11.1zm-.1.1l.1.11zm-43.74.21l.11.1z" transform="translate(-56.19 -3.22)"/><path class="cls-6" d="M81.82 18.39l.11.1z" transform="translate(-56.19 -3.22)"/><path class="cls-8" d="M94.27 18.49l.11.11z" transform="translate(-56.19 -3.22)"/><path class="cls-6" d="M113 18.6l.11.1z" transform="translate(-56.19 -3.22)"/><path class="cls-2" d="M118 18.6l.1.1z" transform="translate(-56.19 -3.22)"/><path class="cls-3" d="M119.07 18.6l.11.1z" transform="translate(-56.19 -3.22)"/><path class="cls-6" d="M112.9 18.7l.1.11z" transform="translate(-56.19 -3.22)"/><path class="cls-8" d="M93.33 19.12l.11.11z" transform="translate(-56.19 -3.22)"/><path class="cls-2" d="M119.7 19.23l.1.1z" transform="translate(-56.19 -3.22)"/><path class="cls-8" d="M93.86 19.44l.1.1z" transform="translate(-56.19 -3.22)"/><path class="cls-3" d="M116.67 19.54l.1.11z" transform="translate(-56.19 -3.22)"/><path class="cls-8" d="M95.53 19.65l.1.1z" transform="translate(-56.19 -3.22)"/><path class="cls-2" d="M121.58 19.85l.11.11z" transform="translate(-56.19 -3.22)"/><path class="cls-5" d="M127.23 19.85l.11.11z" transform="translate(-56.19 -3.22)"/><path class="cls-8" d="M95.74 20l.1.1z" transform="translate(-56.19 -3.22)"/><path class="cls-6" d="M112.06 20l.11.1z" transform="translate(-56.19 -3.22)"/><path class="cls-3" d="M127.23 20l.11.1z" transform="translate(-56.19 -3.22)"/><path class="cls-4" d="M126.81 20.06l.11.11zm.32 0l.1.11z" transform="translate(-56.19 -3.22)"/><path class="cls-6" d="M111.85 20.17l.11.1z" transform="translate(-56.19 -3.22)"/><path class="cls-3" d="M127 20.17l.11.1z" transform="translate(-56.19 -3.22)"/><path class="cls-8" d="M95.22 20.27l.1.11z" transform="translate(-56.19 -3.22)"/><path d="M107.14 20.27c-.61 1.4-.92 2.69-2.19 3.67v.2c.92.25 1.55-.91 1.78-1.67h.1c.09.7.18 2.17.94 2.41l-.51-2.41z" transform="translate(-56.19 -3.22)"/><path class="cls-2" d="M121.9 20.27l.1.11z" transform="translate(-56.19 -3.22)"/><path class="cls-4" d="M126.92 20.27l.1.11z" transform="translate(-56.19 -3.22)"/><path d="M84.75 20.38C85 23 88.44 24.69 88 27.49c.55-.32.41-.93.22-1.46-.39-1.1-1-2.07-1.48-3.14 1 .91 2.48 1.95 3.87 1.36l-2.19-.91z" transform="translate(-56.19 -3.22)"/><path class="cls-3" d="M126.81 20.38l.11.1z" transform="translate(-56.19 -3.22)"/><path class="cls-4" d="M126.71 20.48l.1.11z" transform="translate(-56.19 -3.22)"/><path class="cls-2" d="M120.12 20.59l.1.1z" transform="translate(-56.19 -3.22)"/><path class="cls-4" d="M125.77 20.59l.1.1z" transform="translate(-56.19 -3.22)"/><path class="cls-3" d="M126.61 20.59l.1.1z" transform="translate(-56.19 -3.22)"/><path class="cls-8" d="M95.53 20.69l.1.11z" transform="translate(-56.19 -3.22)"/><path class="cls-6" d="M111.43 20.69l.11.11z" transform="translate(-56.19 -3.22)"/><path class="cls-4" d="M126.5 20.69l.11.11z" transform="translate(-56.19 -3.22)"/><path class="cls-7" d="M84.75 20.8l.11.1zm26.58 0l.1.1z" transform="translate(-56.19 -3.22)"/><path class="cls-3" d="M126.4 20.8l.1.1z" transform="translate(-56.19 -3.22)"/><path class="cls-6" d="M85.49 20.9l.1.11z" transform="translate(-56.19 -3.22)"/><path class="cls-4" d="M126.29 20.9l.11.11z" transform="translate(-56.19 -3.22)"/><path class="cls-6" d="M79.63 21l.1.1z" transform="translate(-56.19 -3.22)"/><path class="cls-7" d="M111.12 21l.1.1zm-.1.1l.1.11z" transform="translate(-56.19 -3.22)"/><path class="cls-6" d="M78.27 21.22l.1.1z" transform="translate(-56.19 -3.22)"/><path class="cls-8" d="M96.05 21.22l.11.1z" transform="translate(-56.19 -3.22)"/><path d="M99.19 21.22c-.31 1-1.2 3.07-.84 4.08h.21l.74-2.52h.1c.26.95.53 2.39 1.68 2.52l-1.68-4.08z" transform="translate(-56.19 -3.22)"/><path class="cls-7" d="M78.37 21.32l.11.1z" transform="translate(-56.19 -3.22)"/><path class="cls-4" d="M125.87 21.32l.11.1z" transform="translate(-56.19 -3.22)"/><path class="cls-6" d="M78.48 21.42l.1.11z" transform="translate(-56.19 -3.22)"/><path class="cls-7" d="M81.82 21.42l.11.11zm28.25 0l.11.11z" transform="translate(-56.19 -3.22)"/><path class="cls-6" d="M78.58 21.53l.1.1z" transform="translate(-56.19 -3.22)"/><path class="cls-7" d="M80.46 21.53l.11.1z" transform="translate(-56.19 -3.22)"/><path class="cls-8" d="M106.62 21.53l.11.1zm.63 0l.1.1z" transform="translate(-56.19 -3.22)"/><path class="cls-7" d="M110 21.53l.1.1z" transform="translate(-56.19 -3.22)"/><path class="cls-6" d="M78.68 21.63l.11.11z" transform="translate(-56.19 -3.22)"/><path class="cls-8" d="M109.86 21.63l.11.11zm-23.33.21l.11.11z" transform="translate(-56.19 -3.22)"/><path class="cls-7" d="M112.58 21.84l.11.11z" transform="translate(-56.19 -3.22)"/><path class="cls-8" d="M85.49 22.16l.1.1zm20.82.1l.1.11z" transform="translate(-56.19 -3.22)"/><path class="cls-7" d="M82.14 22.37l.1.1zm-2.62.1l.11.11z" transform="translate(-56.19 -3.22)"/><path class="cls-8" d="M87.26 22.47l.11.11zm6.18 0l.1.11z" transform="translate(-56.19 -3.22)"/><path class="cls-2" d="M119.7 22.47l.1.11z" transform="translate(-56.19 -3.22)"/><path class="cls-8" d="M93.65 22.68l.1.1zm5.65.1l.1.11zm7.53 0l.1.11zm-20.61.42l.1.11z" transform="translate(-56.19 -3.22)"/><path class="cls-4" d="M124.83 23.2l.1.11z" transform="translate(-56.19 -3.22)"/><path class="cls-8" d="M87.58 23.52l.1.1z" transform="translate(-56.19 -3.22)"/><path class="cls-4" d="M124.3 23.52l.11.1z" transform="translate(-56.19 -3.22)"/><path class="cls-8" d="M86.53 23.62l.11.11zm19.36.11l.1.1z" transform="translate(-56.19 -3.22)"/><path d="M92.18 23.83l.52 4.4h.21l-.1-3.14c.68.47 1.6 1.64 2.51 1.25-.35-.38-.86-.44-1.25-.77-.65-.52-1-1.67-1.89-1.74z" transform="translate(-56.19 -3.22)"/><path class="cls-8" d="M87.26 24l.11.1zm17.69.1l.1.11zm-18 .11l.1.1zm11.3 0l.1.1z" transform="translate(-56.19 -3.22)"/><path class="cls-7" d="M112.79 24.25l.11.1zm.21 0l.11.1z" transform="translate(-56.19 -3.22)"/><path d="M115.2 24.46a7.59 7.59 0 01-3.56 2.3V27a3.09 3.09 0 002.51-.73c-.12.61-.9 2.22-.31 2.61l1-3z" transform="translate(-56.19 -3.22)"/><path class="cls-8" d="M93.12 24.56l.11.11zm-11.92.11l.1.1zm16.84 0l.11.1zm9.73 0l.11.1z" transform="translate(-56.19 -3.22)"/><path class="cls-2" d="M114.89 24.67l.1.1z" transform="translate(-56.19 -3.22)"/><path class="cls-6" d="M74.08 24.88l.11.1z" transform="translate(-56.19 -3.22)"/><path class="cls-8" d="M100.76 24.88l.11.1z" transform="translate(-56.19 -3.22)"/><path class="cls-7" d="M79.73 25l.11.11z" transform="translate(-56.19 -3.22)"/><path class="cls-4" d="M124.93 25l.11.11z" transform="translate(-56.19 -3.22)"/><path class="cls-8" d="M87.37 25.09l.1.1zm.42 0l.1.1zm10.77 0l.11.1zm-18.2.1l.1.11z" transform="translate(-56.19 -3.22)"/><path class="cls-7" d="M114.26 25.4l.1.1zm.63.1l.1.11z" transform="translate(-56.19 -3.22)"/><path class="cls-2" d="M121.48 25.5l.1.11z" transform="translate(-56.19 -3.22)"/><path class="cls-9" d="M73.77 25.61l.1.1z" transform="translate(-56.19 -3.22)"/><path class="cls-8" d="M93.65 25.71l.1.11zm-5.55.11l.11.1zm6.28 0l.1.1z" transform="translate(-56.19 -3.22)"/><path class="cls-6" d="M74.08 25.92l.11.11z" transform="translate(-56.19 -3.22)"/><path class="cls-7" d="M113.53 25.92l.1.11z" transform="translate(-56.19 -3.22)"/><path class="cls-8" d="M94.07 26l.1.1zm1.15.1l.1.11z" transform="translate(-56.19 -3.22)"/><path class="cls-7" d="M113.94 26.24l.11.1z" transform="translate(-56.19 -3.22)"/><path class="cls-8" d="M94.59 26.34l.1.11zm.21.11l.1.1zm17.68 0l.1.1z" transform="translate(-56.19 -3.22)"/><path class="cls-6" d="M119.18 26.45l.1.1zm-44.58.1l.11.11z" transform="translate(-56.19 -3.22)"/><path d="M116.35 31.26a17.3 17.3 0 017.43-.42 9.16 9.16 0 00-2.12-3.24c-.28-.33-.64-.94-1.12-1s-1.07.5-1.47.82a9.32 9.32 0 00-2.72 3.84z" transform="translate(-56.19 -3.22)" fill="url(#radial-gradient-2)"/><path class="cls-8" d="M113.11 26.76l.1.11z" transform="translate(-56.19 -3.22)"/><path class="cls-6" d="M118.76 26.76l.1.11z" transform="translate(-56.19 -3.22)"/><path d="M97.31 26.87l-.63 3.24c.53-.4.65-1.67.73-2.3l.94 1a3.67 3.67 0 00-1.04-1.94z" transform="translate(-56.19 -3.22)"/><path class="cls-8" d="M111.64 27l.11.1z" transform="translate(-56.19 -3.22)"/><path class="cls-7" d="M113.94 27l.11.1zm7.22.1l.11.11z" transform="translate(-56.19 -3.22)"/><path d="M107.56 27.18l-2 2 1.89-1.36.31 1.88a2.92 2.92 0 00-.21-2.51m-22.18.31v.11a12.47 12.47 0 012.16 3.24c.3.62.22 1.31.88 1.68a9.06 9.06 0 00-1-3.25c.74.43 1.73 1.08 2.61.84v-.22a13.38 13.38 0 01-3.13-1.8c-.44-.35-.89-.8-1.47-.61z" transform="translate(-56.19 -3.22)"/><path class="cls-8" d="M119.07 27.39l.11.1zm-21.24.21l.11.1zm-12.34.1l.1.11zm12.45.11l.1.1z" transform="translate(-56.19 -3.22)"/><path class="cls-7" d="M121.79 27.81l.11.1z" transform="translate(-56.19 -3.22)"/><path class="cls-8" d="M97.62 27.91l.11.11z" transform="translate(-56.19 -3.22)"/><path class="cls-7" d="M117.61 27.91l.1.11z" transform="translate(-56.19 -3.22)"/><path class="cls-2" d="M122.84 27.91l.1.11z" transform="translate(-56.19 -3.22)"/><path class="cls-7" d="M75.34 28l.1.1z" transform="translate(-56.19 -3.22)"/><path class="cls-8" d="M106.62 28l.11.1zm.84 0l.1.1zm6.17 0l.11.1zm-26.78.1l.1.11zm10.46 0l.1.11z" transform="translate(-56.19 -3.22)"/><path class="cls-2" d="M126 28.12l.1.11z" transform="translate(-56.19 -3.22)"/><path class="cls-7" d="M118.13 28.23l.1.1z" transform="translate(-56.19 -3.22)"/><path class="cls-8" d="M106.73 28.33l.1.1z" transform="translate(-56.19 -3.22)"/><path d="M78.37 28.43c.1.89.82 1.22 1.47 1.7a12.54 12.54 0 012.38 2.28c.44.58.71 1.57 1.28 2a4.84 4.84 0 00-2.51-4v-.1c1.5.29 3 .85 4.5.21v-.21l-1.78-.07z" transform="translate(-56.19 -3.22)"/><path class="cls-8" d="M86.11 28.43l.11.11zm19.88.11l.11.1zm7.85 0l.1.1zm-26.37.1l.11.11zm18.42 0l.1.11z" transform="translate(-56.19 -3.22)"/><path class="cls-2" d="M123.36 28.64l.11.11z" transform="translate(-56.19 -3.22)"/><path class="cls-7" d="M116.87 28.75l.11.1z" transform="translate(-56.19 -3.22)"/><path d="M127 28.75l.21 2.51 2.3.31a5.5 5.5 0 00-2.51-2.82z" transform="translate(-56.19 -3.22)" fill="url(#radial-gradient-3)"/><path class="cls-8" d="M98.35 28.85l.11.11z" transform="translate(-56.19 -3.22)"/><path d="M101.7 28.85l-.94 1.78 1-1.15.63 1.05z" transform="translate(-56.19 -3.22)"/><path class="cls-8" d="M113.74 28.85l.1.11z" transform="translate(-56.19 -3.22)"/><path class="cls-4" d="M127 28.85l.11.11z" transform="translate(-56.19 -3.22)"/><path class="cls-8" d="M86.43 29l.1.1zm1.46 0l.11.1z" transform="translate(-56.19 -3.22)"/><path class="cls-2" d="M122.73 29l.11.1z" transform="translate(-56.19 -3.22)"/><path class="cls-7" d="M75.13 29.06l.1.11z" transform="translate(-56.19 -3.22)"/><path class="cls-8" d="M101.39 29.17l.1.1zm-13 .1l.1.11zm-.63.21l.1.11zm20.09 0l.1.11zm20.09 0l.1.11zm-26.16.11l.1.1zm26.26 0l.1.1zm-46.35.1l.1.1zm46.45 0l.11.1zm-48.75.1l.1.11zm22.81 0l.1.11z" transform="translate(-56.19 -3.22)"/><path class="cls-7" d="M74.92 30l.1.11z" transform="translate(-56.19 -3.22)"/><path class="cls-8" d="M79.73 30l.11.11z" transform="translate(-56.19 -3.22)"/><path class="cls-4" d="M117 30l.1.11z" transform="translate(-56.19 -3.22)"/><path class="cls-8" d="M96.79 30.11l.1.1zm4.39.1l.1.11z" transform="translate(-56.19 -3.22)"/><path class="cls-7" d="M74.81 30.42l.11.11z" transform="translate(-56.19 -3.22)"/><path class="cls-8" d="M81.72 30.42l.1.11zm6.17 0l.11.11zm-.52.11l.1.1z" transform="translate(-56.19 -3.22)"/><path class="cls-4" d="M116.67 30.53l.1.1z" transform="translate(-56.19 -3.22)"/><path class="cls-7" d="M121.16 30.53l.11.1z" transform="translate(-56.19 -3.22)"/><path class="cls-4" d="M123.05 30.63l.1.11z" transform="translate(-56.19 -3.22)"/><path class="cls-8" d="M80.78 30.84l.1.11zm6.8.11l.1.1z" transform="translate(-56.19 -3.22)"/><path class="cls-4" d="M129.33 31.16l.1.1z" transform="translate(-56.19 -3.22)"/><path d="M111.75 31.36L110 32.72l1.57-.83-.21 1.25a1.82 1.82 0 00.42-1.78z" transform="translate(-56.19 -3.22)"/><path class="cls-5" d="M122.21 37.64a3.08 3.08 0 001.39-2.09c.26-1 .6-3.63-.66-4.12a8.19 8.19 0 00-2.61 0c-.68 0-2.13-.1-2.66.4s-.12 2.23.24 2.71 1.25.59 1.79.84a5.27 5.27 0 012.51 2.26z" transform="translate(-56.19 -3.22)"/><path class="cls-2" d="M125.14 31.47l.1.1z" transform="translate(-56.19 -3.22)"/><path class="cls-4" d="M128.91 31.47l.1.1zm.62 0l-.1.21z" transform="translate(-56.19 -3.22)"/><path class="cls-12" d="M123.26 31.57l.1.11z" transform="translate(-56.19 -3.22)"/><path class="cls-5" d="M129.53 31.57l.11.11z" transform="translate(-56.19 -3.22)"/><path class="cls-7" d="M75.34 31.68l.1.1z" transform="translate(-56.19 -3.22)"/><path class="cls-8" d="M111.12 31.68l.1.1z" transform="translate(-56.19 -3.22)"/><path class="cls-6" d="M72.51 31.78l.11.11z" transform="translate(-56.19 -3.22)"/><path class="cls-8" d="M117.5 31.78l.11.11zm5.86 0l.11.11zm-35 .11l.11.1zm23.12 0l.11.1z" transform="translate(-56.19 -3.22)"/><path class="cls-7" d="M73.14 32l.1.11z" transform="translate(-56.19 -3.22)"/><path class="cls-8" d="M110.6 32l.1.11z" transform="translate(-56.19 -3.22)"/><path class="cls-12" d="M123.47 32l.1.11z" transform="translate(-56.19 -3.22)"/><path class="cls-5" d="M127 32v.94c1.9-.68 2.33 2.09.32 2l.42 2.41c1.4-.66 2-3.81.89-5-.32-.35-1.14-.35-1.63-.35z" transform="translate(-56.19 -3.22)"/><path class="cls-6" d="M71.88 32.1l.11.1z" transform="translate(-56.19 -3.22)"/><path class="cls-8" d="M82.76 32.2l.11.11zm28.15 0l.11.11zm5.23 0l.11.11z" transform="translate(-56.19 -3.22)"/><path class="cls-12" d="M123.57 32.2l.11.11zm5 0l.11.11z" transform="translate(-56.19 -3.22)"/><path class="cls-6" d="M72.2 32.31l.1.1z" transform="translate(-56.19 -3.22)"/><path class="cls-8" d="M115.93 32.31l.11.1zm-27.72.1l.1.11z" transform="translate(-56.19 -3.22)"/><path d="M121.69 32.41c-.22.22-.53.38-.69.65-1.1 1.89 3.08 1.94 1.9-.1a2.16 2.16 0 00-.58-.55l-.63.31z" transform="translate(-56.19 -3.22)"/><path class="cls-12" d="M121.79 32.41v.11h.42z" transform="translate(-56.19 -3.22)"/><path class="cls-9" d="M123.68 32.41l.1.11z" transform="translate(-56.19 -3.22)"/><path class="cls-6" d="M72.51 32.52l.11.1z" transform="translate(-56.19 -3.22)"/><path class="cls-12" d="M121.41 32.58v.07z" transform="translate(-56.19 -3.22)"/><path class="cls-9" d="M121.55 32.55h.07zm.14.07v.1l.52-.1z" transform="translate(-56.19 -3.22)"/><path class="cls-12" d="M122.42 32.52l.1.1z" transform="translate(-56.19 -3.22)"/><path class="cls-9" d="M121.27 32.62l.1.1z" transform="translate(-56.19 -3.22)"/><path class="cls-13" d="M122.63 32.62l.1.1z" transform="translate(-56.19 -3.22)"/><path class="cls-6" d="M72.83 32.72l.1.11z" transform="translate(-56.19 -3.22)"/><path class="cls-9" d="M121.16 32.72l.11.11z" transform="translate(-56.19 -3.22)"/><path class="cls-12" d="M127.34 32.72l.31.21v-.1z" transform="translate(-56.19 -3.22)"/><path class="cls-13" d="M127.44 32.72l.11.11z" transform="translate(-56.19 -3.22)"/><path class="cls-9" d="M127.55 32.72l.1.11z" transform="translate(-56.19 -3.22)"/><path class="cls-12" d="M127.76 32.72l.1.11z" transform="translate(-56.19 -3.22)"/><path class="cls-9" d="M127.86 32.72l.11.11z" transform="translate(-56.19 -3.22)"/><path class="cls-8" d="M83.08 32.83l.1.1z" transform="translate(-56.19 -3.22)"/><path d="M99.72 32.83c0 .53-.11 1.07.41 1.36v-1l1.26.42z" transform="translate(-56.19 -3.22)"/><path class="cls-8" d="M99.92 32.83l.11.1z" transform="translate(-56.19 -3.22)"/><path class="cls-12" d="M127.13 32.83l.1.1z" transform="translate(-56.19 -3.22)"/><path class="cls-9" d="M127.23 32.83l.21.21v-.21zm.53 0l.1.1z" transform="translate(-56.19 -3.22)"/><path class="cls-8" d="M100.24 32.93l.1.11z" transform="translate(-56.19 -3.22)"/><path class="cls-9" d="M121 32.93l.1.11z" transform="translate(-56.19 -3.22)"/><path class="cls-7" d="M126.81 32.93l.11.11z" transform="translate(-56.19 -3.22)"/><path class="cls-13" d="M126.92 32.93l.1.11z" transform="translate(-56.19 -3.22)"/><path d="M106.1 34.29l.52-.94.63.42c-.46-1.23-1.15-.35-1.15.52z" transform="translate(-56.19 -3.22)"/><path class="cls-9" d="M122.94 33l.11.1zm3.87 0l.11.1z" transform="translate(-56.19 -3.22)"/><path d="M93.44 33.14a2.87 2.87 0 001 1.68l-.62-1.36 1.25.1c-.28-.56-1.07-.42-1.63-.42z" transform="translate(-56.19 -3.22)"/><path class="cls-8" d="M94.9 33.14l.11.11zm5.23 0l.11.11z" transform="translate(-56.19 -3.22)"/><path class="cls-5" d="M126.71 33.14l.1.11z" transform="translate(-56.19 -3.22)"/><path class="cls-7" d="M73.56 33.25l.1.1z" transform="translate(-56.19 -3.22)"/><path class="cls-8" d="M106.93 33.25l.11.1z" transform="translate(-56.19 -3.22)"/><path class="cls-5" d="M126.61 33.25l.1.1z" transform="translate(-56.19 -3.22)"/><path class="cls-8" d="M100.55 33.35l.11.11z" transform="translate(-56.19 -3.22)"/><path d="M88.1 33.77l1.47 1.78-.84-1.47 1.25-.2-.1-.42z" transform="translate(-56.19 -3.22)"/><path class="cls-8" d="M93.86 33.46l.1.1z" transform="translate(-56.19 -3.22)"/><path class="cls-13" d="M123.05 33.46l.1.1z" transform="translate(-56.19 -3.22)"/><path class="cls-5" d="M126.5 33.46v.31h.11z" transform="translate(-56.19 -3.22)"/><path class="cls-8" d="M93.54 33.56l.11.11z" transform="translate(-56.19 -3.22)"/><path class="cls-13" d="M126.5 33.77l.11.11z" transform="translate(-56.19 -3.22)"/><path class="cls-8" d="M83.39 33.88l.11.1zm4.71 0l.11.1z" transform="translate(-56.19 -3.22)"/><path class="cls-5" d="M126.5 33.88v.31h.11z" transform="translate(-56.19 -3.22)"/><path class="cls-9" d="M122.87 34.05v.07zm5.83-.05l.1.1z" transform="translate(-56.19 -3.22)"/><path class="cls-8" d="M83.18 34.08l.11.11zm16.64 0l.1.11zm-25.11.11l.1.1zm19.15 0l.1.1z" transform="translate(-56.19 -3.22)"/><path class="cls-13" d="M121.06 34.19l.1.1z" transform="translate(-56.19 -3.22)"/><path class="cls-7" d="M74.81 34.29l.11.11z" transform="translate(-56.19 -3.22)"/><path class="cls-5" d="M126.61 34.29l.1.11z" transform="translate(-56.19 -3.22)"/><path class="cls-9" d="M122.52 34.4l.11.1z" transform="translate(-56.19 -3.22)"/><path class="cls-13" d="M126.61 34.4l.1.1z" transform="translate(-56.19 -3.22)"/><path class="cls-12" d="M121.48 34.5l.1.11z" transform="translate(-56.19 -3.22)"/><path class="cls-9" d="M121.58 34.5l.11.11zm.7 0h.07z" transform="translate(-56.19 -3.22)"/><path class="cls-5" d="M126.71 34.5l.1.11z" transform="translate(-56.19 -3.22)"/><path class="cls-9" d="M128.42 34.57v.07z" transform="translate(-56.19 -3.22)"/><path class="cls-13" d="M128.49 34.5l.1.11z" transform="translate(-56.19 -3.22)"/><path class="cls-9" d="M75.13 34.61l.1.1z" transform="translate(-56.19 -3.22)"/><path class="cls-13" d="M121.9 34.61l.1.1z" transform="translate(-56.19 -3.22)"/><path class="cls-5" d="M126.81 34.61l.11.1z" transform="translate(-56.19 -3.22)"/><path class="cls-9" d="M117.92 34.71l.11.11z" transform="translate(-56.19 -3.22)"/><path class="cls-5" d="M126.92 34.71l.1.11z" transform="translate(-56.19 -3.22)"/><path class="cls-9" d="M127.13 34.71l.1.11z" transform="translate(-56.19 -3.22)"/><path d="M77.53 36.7v.21l3 1.05c-.06-.8-1.09-1-1.78-1.15l2.09-1.89c-1.07-.13-2.41 1.23-3.31 1.78z" transform="translate(-56.19 -3.22)"/><path class="cls-13" d="M127 34.82l.11.1z" transform="translate(-56.19 -3.22)"/><path class="cls-5" d="M127.13 34.82l.1.1z" transform="translate(-56.19 -3.22)"/><path class="cls-12" d="M127.23 34.82l.11.1z" transform="translate(-56.19 -3.22)"/><path class="cls-9" d="M127.65 34.82v.1h.35z" transform="translate(-56.19 -3.22)"/><path class="cls-7" d="M75.44 34.92l.11.11z" transform="translate(-56.19 -3.22)"/><path class="cls-8" d="M123.68 34.92l.1.11zm4 0l.11.11z" transform="translate(-56.19 -3.22)"/><path class="cls-9" d="M118.76 35l.1.1z" transform="translate(-56.19 -3.22)"/><path d="M81.93 36.28v.21l2.3.83 1.36 1c-.15-1.11-1.33-1.3-2.09-1.88 1-.19 2.29-.2 2.72-1.26z" transform="translate(-56.19 -3.22)"/><path class="cls-8" d="M116.77 35.24l.1.1z" transform="translate(-56.19 -3.22)"/><path class="cls-9" d="M119.28 35.24l.11.1z" transform="translate(-56.19 -3.22)"/><path class="cls-8" d="M79.52 35.34l.11.1zm5.86.1l.11.11zm.63 0l.1.11zm43 0l.11.11zm-53 .11l.11.1z" transform="translate(-56.19 -3.22)"/><path class="cls-12" d="M129 35.55l.11.1z" transform="translate(-56.19 -3.22)"/><path class="cls-8" d="M79 35.65l.1.11zm6.8 0l.1.11zm37.67.11l.1.1zm4 0l.11.1zm-48.76.1l.11.11z" transform="translate(-56.19 -3.22)"/><path class="cls-2" d="M124.51 35.86l.11.11zm-59.74.21l.1.11z" transform="translate(-56.19 -3.22)"/><path class="cls-9" d="M127.44 36.07l.11.11z" transform="translate(-56.19 -3.22)"/><path class="cls-8" d="M75.55 36.28l.1.11z" transform="translate(-56.19 -3.22)"/><path d="M96.68 37l.31-.73c-.44.08-.79.43-.31.73z" transform="translate(-56.19 -3.22)"/><path class="cls-8" d="M78 36.39l.11.1z" transform="translate(-56.19 -3.22)"/><path class="cls-2" d="M65.4 36.49l.1.11z" transform="translate(-56.19 -3.22)"/><path class="cls-7" d="M119.91 36.49l.1.11z" transform="translate(-56.19 -3.22)"/><path class="cls-8" d="M83.71 36.6l.1.1z" transform="translate(-56.19 -3.22)"/><path class="cls-9" d="M127.55 36.6l.1.1z" transform="translate(-56.19 -3.22)"/><path class="cls-8" d="M75.86 36.7l.1.11z" transform="translate(-56.19 -3.22)"/><path class="cls-6" d="M120.22 36.7l.11.11z" transform="translate(-56.19 -3.22)"/><path class="cls-8" d="M123.05 36.7l.1.11z" transform="translate(-56.19 -3.22)"/><path class="cls-3" d="M60.06 36.81l.1.1z" transform="translate(-56.19 -3.22)"/><path class="cls-2" d="M65.81 36.81l.11.1z" transform="translate(-56.19 -3.22)"/><path class="cls-7" d="M73.35 36.81l.1.1z" transform="translate(-56.19 -3.22)"/><path class="cls-12" d="M128.38 36.81l.11.1z" transform="translate(-56.19 -3.22)"/><path class="cls-8" d="M84.44 36.91l.1.1z" transform="translate(-56.19 -3.22)"/><path d="M100.45 36.91l-.11.73a.57.57 0 00.32-.73z" transform="translate(-56.19 -3.22)"/><path class="cls-8" d="M100.66 36.91l.1.1z" transform="translate(-56.19 -3.22)"/><path d="M104.84 37.64l.32-.73c-.41.09-.75.41-.32.73z" transform="translate(-56.19 -3.22)"/><path class="cls-9" d="M122.94 36.91l.11.1z" transform="translate(-56.19 -3.22)"/><path class="cls-12" d="M128.28 36.91l.1.1z" transform="translate(-56.19 -3.22)"/><path class="cls-8" d="M83.92 37.12l.1.1z" transform="translate(-56.19 -3.22)"/><path class="cls-9" d="M121.9 37.12l.1.1z" transform="translate(-56.19 -3.22)"/><path class="cls-6" d="M124 37.12l.1.1z" transform="translate(-56.19 -3.22)"/><path class="cls-9" d="M128.07 37.12l.1.1zm-.1.1l.1.11z" transform="translate(-56.19 -3.22)"/><path class="cls-8" d="M85.07 37.33l.1.1z" transform="translate(-56.19 -3.22)"/><path class="cls-2" d="M66.55 37.43l.1.11z" transform="translate(-56.19 -3.22)"/><path class="cls-8" d="M122.11 37.43l.1.11z" transform="translate(-56.19 -3.22)"/><path class="cls-3" d="M62.26 37.54l.1.1z" transform="translate(-56.19 -3.22)"/><path class="cls-8" d="M100.55 37.54l.11.1zm4.08 0l.11.1z" transform="translate(-56.19 -3.22)"/><path d="M108 38.27v.42l1-.73z" transform="translate(-56.19 -3.22)"/><path class="cls-8" d="M85.17 38.06l.11.11zm23.23 0l.1.11zm.52 0l.11.11z" transform="translate(-56.19 -3.22)"/><path d="M113 38.06v1.26a.81.81 0 000-1.26z" transform="translate(-56.19 -3.22)"/><path class="cls-2" d="M126.92 38.06l.1.11z" transform="translate(-56.19 -3.22)"/><path class="cls-4" d="M131.21 38.06l.1.11z" transform="translate(-56.19 -3.22)"/><path class="cls-8" d="M108.29 38.17l.11.1zm.53 0l.1.1zm4.08 0l.1.1z" transform="translate(-56.19 -3.22)"/><path class="cls-6" d="M123.36 38.17l.11.1z" transform="translate(-56.19 -3.22)"/><path class="cls-2" d="M126.4 38.27l.1.1z" transform="translate(-56.19 -3.22)"/><path class="cls-8" d="M108.19 38.58l.1.11zm-15 .11l.1.1z" transform="translate(-56.19 -3.22)"/><path d="M92.39 40.15l1.26.32-.65-.67.38-1a2.05 2.05 0 00-.99 1.35z" transform="translate(-56.19 -3.22)"/><path class="cls-14" d="M127 38.79l.11.11z" transform="translate(-56.19 -3.22)"/><path d="M122.73 43.4v.1c2.64.33 3.82-.92 5.76-2.41-.28.75-1.66 1.72-1.62 2.41s1.21.81 1.72.61a3.4 3.4 0 001.83-2.49 2.59 2.59 0 00-4-2.47c-1.49 1.14-2.14 3.1-3.69 4.25z" transform="translate(-56.19 -3.22)" fill="url(#radial-gradient-4)"/><path class="cls-9" d="M62.47 39l.1.11z" transform="translate(-56.19 -3.22)"/><path d="M73.45 41.09c.14.79.91.37 1.47.33.8-.06 2.28.2 2.72.93l.73-.1c-.19-1.19-1.89-1.19-2.82-1.26.68-.69 1.66-.9 1.88-2z" transform="translate(-56.19 -3.22)"/><path class="cls-4" d="M130.48 39l.1.11z" transform="translate(-56.19 -3.22)"/><path class="cls-6" d="M68.33 39.11l.1.1z" transform="translate(-56.19 -3.22)"/><path class="cls-4" d="M131.73 39.21l.11.11z" transform="translate(-56.19 -3.22)"/><path class="cls-2" d="M65.5 39.32l.11.1z" transform="translate(-56.19 -3.22)"/><path class="cls-8" d="M92.7 39.32l.11.1zm-16.11.1l.11.11zm16.22.11l.1.1z" transform="translate(-56.19 -3.22)"/><path class="cls-6" d="M69.06 39.73l.1.11z" transform="translate(-56.19 -3.22)"/><path class="cls-8" d="M76.17 39.73l.11.11zm.84 0l.1.11z" transform="translate(-56.19 -3.22)"/><path class="cls-3" d="M62.68 39.84l.1.1z" transform="translate(-56.19 -3.22)"/><path d="M97.62 39.84l-1.15 1.46 1.47.53-1-.63c.22-.46 1.07-.85.73-1.36z" transform="translate(-56.19 -3.22)"/><path class="cls-14" d="M130.16 39.84l.11.1z" transform="translate(-56.19 -3.22)"/><path class="cls-6" d="M71.78 39.94l.1.11z" transform="translate(-56.19 -3.22)"/><path class="cls-8" d="M75.86 39.94l.1.11zm16.43 0l.1.11z" transform="translate(-56.19 -3.22)"/><path class="cls-6" d="M69.48 40.05l.1.1zm2.09 0l.1.1z" transform="translate(-56.19 -3.22)"/><path class="cls-8" d="M76.59 40.15l.11.11zm11.83 0l.1.11z" transform="translate(-56.19 -3.22)"/><path d="M88.52 40.15l-1.26 1.15c.49.17 1.63.81 2 .32l-1.36-.53zm27.1 0l1.46 1.15v.21l-1.36.74a3.27 3.27 0 001.89-.74 3.06 3.06 0 00-1.99-1.36z" transform="translate(-56.19 -3.22)"/><path class="cls-6" d="M69.79 40.26l.11.1z" transform="translate(-56.19 -3.22)"/><path class="cls-9" d="M130.37 40.26l.11.1z" transform="translate(-56.19 -3.22)"/><path class="cls-4" d="M132.15 40.26l.11.1zm-69.06.1l.11.11z" transform="translate(-56.19 -3.22)"/><path class="cls-8" d="M97 40.36l.11.11zm.53 0l.1.11zm18.73 0l.1.11z" transform="translate(-56.19 -3.22)"/><path class="cls-14" d="M125.35 40.36l.1.11zm5 0l.11.11z" transform="translate(-56.19 -3.22)"/><path class="cls-8" d="M88 40.47l.1.1zm.42 0l.1.1zm8.47 0l.1.1z" transform="translate(-56.19 -3.22)"/><path class="cls-3" d="M63.3 40.57l.11.11z" transform="translate(-56.19 -3.22)"/><path d="M82 40.57a11.9 11.9 0 01-2.72 3.66c-.64.62-1.63 1.2-1.88 2.1l4.6-1 2.41-.49c-1.44-1-4 .12-5.34.73 1-1.91 2.82-2.66 3.25-4.91l-.11-.11z" transform="translate(-56.19 -3.22)"/><path class="cls-8" d="M88.31 40.57l.11.11zm8.48 0l.1.11zm19.25 0l.1.11zm-40.29.11l.11.1z" transform="translate(-56.19 -3.22)"/><path d="M101.18 41.62l.63.1v-1c-.46.1-.51.47-.63.9z" transform="translate(-56.19 -3.22)"/><path class="cls-7" d="M74.29 40.78l.1.11z" transform="translate(-56.19 -3.22)"/><path class="cls-8" d="M116.35 40.78l.11.11zm-34.53.11l.11.1z" transform="translate(-56.19 -3.22)"/><path class="cls-3" d="M63.62 41l.1.1z" transform="translate(-56.19 -3.22)"/><path class="cls-8" d="M76 41l.11.1zm20.93.1l.1.11z" transform="translate(-56.19 -3.22)"/><path class="cls-9" d="M130.48 41.09l.1.11z" transform="translate(-56.19 -3.22)"/><path class="cls-7" d="M117.4 41.2l.1.1z" transform="translate(-56.19 -3.22)"/><path class="cls-6" d="M124.09 41.2l.11.1z" transform="translate(-56.19 -3.22)"/><path class="cls-8" d="M88.42 41.3l.1.11z" transform="translate(-56.19 -3.22)"/><path class="cls-2" d="M128.07 41.3l.1.11z" transform="translate(-56.19 -3.22)"/><path class="cls-8" d="M87.68 41.41l.11.1zm13.5 0l.1.1z" transform="translate(-56.19 -3.22)"/><path d="M106.1 41.41l.1 1.15a1.75 1.75 0 00.94-1.15l-.73.52z" transform="translate(-56.19 -3.22)"/><path class="cls-8" d="M78 41.51l.11.11zm28 0l.11.11zm.84 0l.1.11z" transform="translate(-56.19 -3.22)"/><path class="cls-7" d="M117.5 41.51l.11.11z" transform="translate(-56.19 -3.22)"/><path class="cls-14" d="M128.28 41.51l.1.11z" transform="translate(-56.19 -3.22)"/><path class="cls-3" d="M64 41.62l.1.1z" transform="translate(-56.19 -3.22)"/><path class="cls-8" d="M88.31 41.62l.11.1zm18.42 0l.1.1zm9.73.1l.1.11z" transform="translate(-56.19 -3.22)"/><path class="cls-14" d="M124.2 41.93l.1.11z" transform="translate(-56.19 -3.22)"/><path class="cls-9" d="M130.27 41.93l.1.11z" transform="translate(-56.19 -3.22)"/><path class="cls-4" d="M132.67 42l.11.1z" transform="translate(-56.19 -3.22)"/><path class="cls-9" d="M130.16 42.25l.11.1z" transform="translate(-56.19 -3.22)"/><path class="cls-8" d="M81.72 42.35l.1.11z" transform="translate(-56.19 -3.22)"/><path class="cls-3" d="M66.86 42.46l.11.1z" transform="translate(-56.19 -3.22)"/><path class="cls-12" d="M126.71 42.56l.1.1z" transform="translate(-56.19 -3.22)"/><path class="cls-4" d="M123.57 42.66l.11.11z" transform="translate(-56.19 -3.22)"/><path class="cls-14" d="M126.61 42.66l.1.11zm-3.14.11l.1.1z" transform="translate(-56.19 -3.22)"/><path d="M91.34 43.61l.21-.74c-.45.13-.69.46-.21.74z" transform="translate(-56.19 -3.22)"/><path class="cls-2" d="M64.77 43l.1.1z" transform="translate(-56.19 -3.22)"/><path class="cls-8" d="M91 43l.11.1zm-10.67.1l.1.11z" transform="translate(-56.19 -3.22)"/><path class="cls-14" d="M125.77 43.08l.1.11z" transform="translate(-56.19 -3.22)"/><path class="cls-8" d="M80.25 43.19l.11.1z" transform="translate(-56.19 -3.22)"/><path class="cls-9" d="M129.64 43.19l.1.1zm-4.4.1l.11.11z" transform="translate(-56.19 -3.22)"/><path class="cls-14" d="M129.53 43.29l.11.11z" transform="translate(-56.19 -3.22)"/><path d="M110.07 43.5L110 45l-.94-.63a1.24 1.24 0 001.15 1l.1-1.88z" transform="translate(-56.19 -3.22)"/><path class="cls-9" d="M124.3 43.5v.11h.32z" transform="translate(-56.19 -3.22)"/><path d="M84.23 46.74c.69 0 3.1.07 3.45-.41l-2.3-.33 1.26-2.4c-.76.23-2.07 2.4-2.41 3.13m8.47 9.11a7.17 7.17 0 002.2-2.62c-.84.25-1.2 1.07-1.78 1.68l-.31-2.2c2.45-.21 3.52-2.89 5-4.5a10.15 10.15 0 013.1-2c-.66-.79-1.58.05-2.2.52C97 48 96.05 49.57 94.59 51l.84-2.19h-.11a5.14 5.14 0 01-2.09 2.82l.42-1.46h-.11c-.44 1-.93 1.57-2.09 1.57l1-2.41h-.11L91 51.66l-.42-.1 1-2h-.11c-.53.85-1.08 2-2.19 1.78l.94-1.78c-.53.41-.75 1.39-1.37 1.64-.28.11-.82-.1-.7-.47s.94-1 1.26-1.38c1.07-1.41 1.94-3.7 3.53-4.57 1.3-.71 3.28.19 4.71.18a1.92 1.92 0 002-1.15c-.67-.08-1.3.35-2 .35-1.76 0-4.65-.87-6.16.32s-1.37 2.52-2.24 3.94A7.21 7.21 0 0187.47 50c-.22.18-.63.44-.55.79s.83.65 1.18.81a11.7 11.7 0 002.51.82 4.34 4.34 0 011.53.36c.71.52.47 2.27.56 3z" transform="translate(-56.19 -3.22)"/><path class="cls-9" d="M128.91 43.92l.1.1zm-1.78.1l.1.11zm1.46 0l.11.11z" transform="translate(-56.19 -3.22)"/><path d="M73.14 44.13l-.11.63.42-.63z" transform="translate(-56.19 -3.22)"/><path class="cls-8" d="M97.83 44.13l.11.1z" transform="translate(-56.19 -3.22)"/><path class="cls-9" d="M127.55 44.13l.1.1z" transform="translate(-56.19 -3.22)"/><path class="cls-8" d="M110.28 44.23l.11.11z" transform="translate(-56.19 -3.22)"/><path d="M127.44 47.16c-.24-.71-.13-1.56-.59-2.19-.6-.82-1.95-.75-2.86-.74-.31 0-.84 0-1 .29s.2 1.22.29 1.6c.4 1.56.75 3.73 2.11 4.78.89.69 2.69.24 3.44-.5 1.19-1.18 1.51-3.94.3-5.21-1.49-1.58-1.47 1.22-1.65 2z" transform="translate(-56.19 -3.22)" fill="url(#radial-gradient-5)"/><path class="cls-2" d="M65.61 44.34l.1.1z" transform="translate(-56.19 -3.22)"/><path class="cls-8" d="M91.66 44.34l.1.1z" transform="translate(-56.19 -3.22)"/><path class="cls-7" d="M75.44 44.44l.11.11z" transform="translate(-56.19 -3.22)"/><path class="cls-8" d="M79 44.44l.1.11zm7.22 0l.1.11z" transform="translate(-56.19 -3.22)"/><path class="cls-7" d="M73.35 44.55l.1.1z" transform="translate(-56.19 -3.22)"/><path class="cls-8" d="M76 44.55l.11.1zm2.93 0l.11.1zm14.44 0l.11.1zm-14.54.1l.1.11z" transform="translate(-56.19 -3.22)"/><path class="cls-7" d="M73.24 44.76l.11.1z" transform="translate(-56.19 -3.22)"/><path class="cls-8" d="M85.59 44.76l.1.1zm5.65 0l.1.1z" transform="translate(-56.19 -3.22)"/><path class="cls-3" d="M98.67 44.76l.1.1z" transform="translate(-56.19 -3.22)"/><path class="cls-8" d="M128.59 44.76l.11.1z" transform="translate(-56.19 -3.22)"/><path d="M133.93 44.86l-.56 2.62-.4 1.35.75.53-.21-.94h.11c.48 1.16 1 1.36 2.19 1.36l-.73-1.57c.48.56.66 1.34 1.46 1.46l-.73-1.36c.67.73 1 1.23 2 .74v-.21c-1.74-.83-1.9-3.62-3.87-4z" transform="translate(-56.19 -3.22)" fill="url(#radial-gradient-6)"/><path d="M117.19 45.7l.31-.73c-.43.12-.65.36-.31.73z" transform="translate(-56.19 -3.22)"/><path class="cls-8" d="M85.38 45.07l.11.11z" transform="translate(-56.19 -3.22)"/><path class="cls-14" d="M126.92 45.07l.1.11z" transform="translate(-56.19 -3.22)"/><path class="cls-7" d="M92.29 45.18l.1.1z" transform="translate(-56.19 -3.22)"/><path class="cls-9" d="M122.94 45.18l.11.1z" transform="translate(-56.19 -3.22)"/><path class="cls-4" d="M132.78 45.18l.1.1z" transform="translate(-56.19 -3.22)"/><path class="cls-8" d="M82 45.28l.11.1z" transform="translate(-56.19 -3.22)"/><path class="cls-7" d="M92.18 45.28l.11.1zm-19 .1l.1.11zm.42 0l.1.11zm18.52 0l.1.11z" transform="translate(-56.19 -3.22)"/><path class="cls-8" d="M85.49 45.49l.1.1zm5 0l.1.1z" transform="translate(-56.19 -3.22)"/><path class="cls-7" d="M74.92 45.59l.1.11z" transform="translate(-56.19 -3.22)"/><path class="cls-6" d="M120.54 45.59l.1.11z" transform="translate(-56.19 -3.22)"/><path class="cls-9" d="M127.44 45.59l.11.11z" transform="translate(-56.19 -3.22)"/><path class="cls-7" d="M74.81 45.8l.11.11z" transform="translate(-56.19 -3.22)"/><path class="cls-6" d="M91.76 45.8l.11.11z" transform="translate(-56.19 -3.22)"/><path d="M103.06 45.8l1.15 1.26.53-1.26-.53.84zm10.57 0l-.1 1.57-1-.63c-.06.69 1 1.48 1.57 1.78l-.21-2.72z" transform="translate(-56.19 -3.22)"/><path class="cls-8" d="M84.65 46l.1.11zm1.78 0l.1.11zm-1.89.11l.11.1z" transform="translate(-56.19 -3.22)"/><path class="cls-6" d="M120.22 46.12l.11.1z" transform="translate(-56.19 -3.22)"/><path class="cls-2" d="M68.43 46.33l.11.1z" transform="translate(-56.19 -3.22)"/><path class="cls-7" d="M75 46.43l.11.11z" transform="translate(-56.19 -3.22)"/><path class="cls-8" d="M84.23 46.43l.1.11z" transform="translate(-56.19 -3.22)"/><path class="cls-2" d="M99 46.43l.11.11z" transform="translate(-56.19 -3.22)"/><path class="cls-6" d="M120 46.43l.11.11zm.74.11l.1.1z" transform="translate(-56.19 -3.22)"/><path class="cls-8" d="M103.69 46.64l.11.1zm32.12 0l.11.1zm-45.93.1l.1.11z" transform="translate(-56.19 -3.22)"/><path class="cls-6" d="M119.8 46.74l.11.11z" transform="translate(-56.19 -3.22)"/><path class="cls-2" d="M67.49 46.85l.1.1zm31 0l.1.1z" transform="translate(-56.19 -3.22)"/><path class="cls-8" d="M99.3 46.85l.1.1z" transform="translate(-56.19 -3.22)"/><path class="cls-2" d="M67.18 47l.1.11z" transform="translate(-56.19 -3.22)"/><path class="cls-8" d="M103.9 47l.1.11zm9 0l.1.11z" transform="translate(-56.19 -3.22)"/><path class="cls-6" d="M120.33 47.16l.1.11z" transform="translate(-56.19 -3.22)"/><path class="cls-8" d="M98.56 47.37l.11.11z" transform="translate(-56.19 -3.22)"/><path class="cls-2" d="M67.18 47.48l.1.1z" transform="translate(-56.19 -3.22)"/><path class="cls-8" d="M123.57 47.48l.11.1zm-44.68.1l.11.11z" transform="translate(-56.19 -3.22)"/><path d="M85.28 47.58a10.38 10.38 0 01-2.46 4.19 6.14 6.14 0 00-1.42 1.88c1.74-.5 3.69-2.26 5.55-2.09-.48-.93-2.71.36-3.56.52a15.83 15.83 0 002-3c.18-.49.3-1.14-.16-1.47z" transform="translate(-56.19 -3.22)"/><path class="cls-6" d="M90.61 47.58l.11.11z" transform="translate(-56.19 -3.22)"/><path class="cls-8" d="M97.41 47.58l.11.11z" transform="translate(-56.19 -3.22)"/><path class="cls-2" d="M68.43 47.69l.11.1zm.42 0l.1.1z" transform="translate(-56.19 -3.22)"/><path class="cls-8" d="M85.17 47.79l.11.11z" transform="translate(-56.19 -3.22)"/><path class="cls-6" d="M119 47.79l.1.11z" transform="translate(-56.19 -3.22)"/><path class="cls-9" d="M123.68 47.9l.1.1zm6.06.1l.11.11z" transform="translate(-56.19 -3.22)"/><path class="cls-7" d="M136.65 48l.1.11z" transform="translate(-56.19 -3.22)"/><path class="cls-8" d="M97.73 48.11l.1.1z" transform="translate(-56.19 -3.22)"/><path class="cls-7" d="M75.44 48.21l.11.1z" transform="translate(-56.19 -3.22)"/><path class="cls-2" d="M68 48.31l.11.11z" transform="translate(-56.19 -3.22)"/><path class="cls-8" d="M96.68 48.31l.11.11z" transform="translate(-56.19 -3.22)"/><path class="cls-2" d="M67.91 48.42l.1.1z" transform="translate(-56.19 -3.22)"/><path class="cls-8" d="M113.74 48.42l.1.1z" transform="translate(-56.19 -3.22)"/><path d="M108.61 50.09c-.44-.44-.89-1.05-1.57-.94l2 2.41.52-3c-.81.09-.77.88-.95 1.53z" transform="translate(-56.19 -3.22)"/><path class="cls-6" d="M135.39 48.52l.11.11z" transform="translate(-56.19 -3.22)"/><path class="cls-7" d="M74.19 48.63l.1.1zm2.19 0l.11.1z" transform="translate(-56.19 -3.22)"/><path d="M98.77 49.57l-.1-.52h-.32l.11 1.36c.61-.11 1.24-1.2 1.36-1.78z" transform="translate(-56.19 -3.22)"/><path class="cls-9" d="M129.64 48.63l.1.1z" transform="translate(-56.19 -3.22)"/><path class="cls-8" d="M78.16 48.73l.11.11zm18.21 0l.1.11zm.83 0l.11.11zm12.35 0l.1.11z" transform="translate(-56.19 -3.22)"/><path class="cls-6" d="M119.18 48.73l.1.11z" transform="translate(-56.19 -3.22)"/><path class="cls-4" d="M137.8 48.84l.11.1z" transform="translate(-56.19 -3.22)"/><path class="cls-8" d="M88.73 48.94l.1.11z" transform="translate(-56.19 -3.22)"/><path class="cls-3" d="M132.88 48.94l.11.11z" transform="translate(-56.19 -3.22)"/><path class="cls-8" d="M79 49.05l.1.1zm5.65 0l.1.1z" transform="translate(-56.19 -3.22)"/><path d="M92.53 49.12v.07z" transform="translate(-56.19 -3.22)"/><path class="cls-6" d="M118.76 49.15l.1.11z" transform="translate(-56.19 -3.22)"/><path class="cls-4" d="M130.37 49.15l.11.11zm3.25 0l.1.11z" transform="translate(-56.19 -3.22)"/><path class="cls-8" d="M85.28 49.26l.1.1zm7.11 0l.11.1zm-8 .21l.1.1zm44.89 0l.1.1z" transform="translate(-56.19 -3.22)"/><path class="cls-4" d="M130.27 49.47l.1.1z" transform="translate(-56.19 -3.22)"/><path class="cls-2" d="M135.92 49.47l.1.1z" transform="translate(-56.19 -3.22)"/><path d="M69.9 49.57l.1.1z" transform="translate(-56.19 -3.22)"/><path class="cls-8" d="M88 49.57l.1.1z" transform="translate(-56.19 -3.22)"/><path class="cls-6" d="M117.92 49.57l.11.1z" transform="translate(-56.19 -3.22)"/><path class="cls-2" d="M69.69 49.67l.1.11zm.21 0l.1.11z" transform="translate(-56.19 -3.22)"/><path class="cls-7" d="M91.45 49.67l.1.11z" transform="translate(-56.19 -3.22)"/><path class="cls-8" d="M95.74 49.67l.1.11zm33.48 0l.11.11zm-20.61.21l.1.11zm15.9 0l.11.11z" transform="translate(-56.19 -3.22)"/><path class="cls-6" d="M71.67 50l.11.1z" transform="translate(-56.19 -3.22)"/><path class="cls-8" d="M95.43 50.09l.1.11zm13.6 0l.1.11z" transform="translate(-56.19 -3.22)"/><path class="cls-7" d="M78.27 50.2l.1.1z" transform="translate(-56.19 -3.22)"/><path class="cls-3" d="M89.67 50.2l.11.1z" transform="translate(-56.19 -3.22)"/><path class="cls-8" d="M91 50.2l.11.1z" transform="translate(-56.19 -3.22)"/><path class="cls-7" d="M92 50.2l.11.1z" transform="translate(-56.19 -3.22)"/><path class="cls-8" d="M96.16 50.2l.1.1z" transform="translate(-56.19 -3.22)"/><path class="cls-4" d="M130.69 50.2l.1.1z" transform="translate(-56.19 -3.22)"/><path class="cls-8" d="M87.05 50.3l.11.11zm6.39 0l.1.11z" transform="translate(-56.19 -3.22)"/><path d="M102.64 50.3l-.52 1.36H102l-.84-1.15.73 2.41h.11c.3-.7 1.28-1.99.64-2.62z" transform="translate(-56.19 -3.22)"/><path class="cls-8" d="M108.09 50.3l.1.11z" transform="translate(-56.19 -3.22)"/><path class="cls-7" d="M91.87 50.41l.1.1z" transform="translate(-56.19 -3.22)"/><path class="cls-2" d="M123.36 50.41l.11.1z" transform="translate(-56.19 -3.22)"/><path class="cls-4" d="M88.21 50.51l.1.11z" transform="translate(-56.19 -3.22)"/><path class="cls-8" d="M102.44 50.51l.1.11z" transform="translate(-56.19 -3.22)"/><path class="cls-7" d="M75.13 50.62l.1.1z" transform="translate(-56.19 -3.22)"/><path class="cls-6" d="M91.55 50.62l.11.1z" transform="translate(-56.19 -3.22)"/><path class="cls-8" d="M93.44 50.62l.1.1zm.94 0l.1.1z" transform="translate(-56.19 -3.22)"/><path class="cls-2" d="M69 50.72l.11.11z" transform="translate(-56.19 -3.22)"/><path class="cls-8" d="M94.59 50.72l.1.11zm30.55 0l.1.11zm-41.64.11l.1.1zm41.74 0l.11.1z" transform="translate(-56.19 -3.22)"/><path class="cls-2" d="M68.64 50.93l.1.1z" transform="translate(-56.19 -3.22)"/><path class="cls-4" d="M89.46 50.93l.11.1z" transform="translate(-56.19 -3.22)"/><path class="cls-2" d="M90.82 50.93l.11.1z" transform="translate(-56.19 -3.22)"/><path class="cls-8" d="M94.59 50.93l.1.1z" transform="translate(-56.19 -3.22)"/><path d="M113.94 51l.63 3.46c-.66-.59-2.72-3.27-3.55-2.3 1.92.61 2.72 2.86 4.39 3.87l-.52-2-.63-3.14z" transform="translate(-56.19 -3.22)"/><path class="cls-8" d="M125.35 50.93l.1.1z" transform="translate(-56.19 -3.22)"/><path class="cls-9" d="M127.34 51l.1.11z" transform="translate(-56.19 -3.22)"/><path class="cls-3" d="M130 51l.11.11z" transform="translate(-56.19 -3.22)"/><path class="cls-4" d="M68.33 51.14l.1.1z" transform="translate(-56.19 -3.22)"/><path class="cls-6" d="M71.05 51.14l.1.1z" transform="translate(-56.19 -3.22)"/><path class="cls-8" d="M83.92 51.14l.1.1z" transform="translate(-56.19 -3.22)"/><path class="cls-4" d="M89 51.14l.11.1zm.32 0l.1.1z" transform="translate(-56.19 -3.22)"/><path class="cls-3" d="M91.24 51.14l.1.1z" transform="translate(-56.19 -3.22)"/><path class="cls-9" d="M125.87 51.14l.11.1z" transform="translate(-56.19 -3.22)"/><path class="cls-4" d="M129.85 51.14l.1.1z" transform="translate(-56.19 -3.22)"/><path class="cls-8" d="M83.18 51.24l.11.11z" transform="translate(-56.19 -3.22)"/><path class="cls-4" d="M88.83 51.24l.11.11zm1.47 0l.1.11z" transform="translate(-56.19 -3.22)"/><path class="cls-7" d="M76.49 51.35l.1.1z" transform="translate(-56.19 -3.22)"/><path class="cls-6" d="M93.54 51.45l.11.11z" transform="translate(-56.19 -3.22)"/><path class="cls-2" d="M70.73 51.56l.11.1z" transform="translate(-56.19 -3.22)"/><path class="cls-3" d="M90.93 51.56l.1.1z" transform="translate(-56.19 -3.22)"/><path class="cls-6" d="M93.33 51.56l.11.1z" transform="translate(-56.19 -3.22)"/><path class="cls-8" d="M84.75 51.66l.11.11z" transform="translate(-56.19 -3.22)"/><path class="cls-2" d="M124.72 51.66l.11.11z" transform="translate(-56.19 -3.22)"/><path class="cls-8" d="M88.52 51.77l.1.1z" transform="translate(-56.19 -3.22)"/><path d="M119.49 51.77c-.53 1.29.76 2.69 1.26 3.87-1.36-.7-2.57-1.87-4.19-1.88v.41c2.33.21 3.57 2.59 5.44 3.67 0-2-1.69-4.2-2.3-6.07z" transform="translate(-56.19 -3.22)"/><path class="cls-2" d="M122.63 51.77l.1.1z" transform="translate(-56.19 -3.22)"/><path class="cls-8" d="M84.13 51.87l.1.11z" transform="translate(-56.19 -3.22)"/><path class="cls-2" d="M125.14 51.87l.1.11z" transform="translate(-56.19 -3.22)"/><path class="cls-3" d="M129.12 51.87l.1.11z" transform="translate(-56.19 -3.22)"/><path class="cls-8" d="M94.48 52l.11.1z" transform="translate(-56.19 -3.22)"/><path class="cls-4" d="M129 52l.11.1z" transform="translate(-56.19 -3.22)"/><path class="cls-7" d="M78.27 52.08l.1.11zm35.78 0l.1.11z" transform="translate(-56.19 -3.22)"/><path class="cls-3" d="M128.91 52.08l.1.11z" transform="translate(-56.19 -3.22)"/><path class="cls-7" d="M78.16 52.19l.11.1z" transform="translate(-56.19 -3.22)"/><path class="cls-8" d="M89.78 52.19l.1.1zm4.39 0l.1.1z" transform="translate(-56.19 -3.22)"/><path class="cls-2" d="M123.26 52.19l.1.1z" transform="translate(-56.19 -3.22)"/><path class="cls-7" d="M78.06 52.29l.1.1zm-.11.1l.11.11z" transform="translate(-56.19 -3.22)"/><path class="cls-8" d="M102.12 52.39l.11.11z" transform="translate(-56.19 -3.22)"/><path class="cls-7" d="M77.85 52.5l.1.1z" transform="translate(-56.19 -3.22)"/><path class="cls-8" d="M82.14 52.5l.1.1z" transform="translate(-56.19 -3.22)"/><path class="cls-7" d="M114.57 52.6l.11.11z" transform="translate(-56.19 -3.22)"/><path class="cls-6" d="M119.39 52.92l.1.1z" transform="translate(-56.19 -3.22)"/><path class="cls-7" d="M77.43 53l.1.11z" transform="translate(-56.19 -3.22)"/><path class="cls-8" d="M82.66 53l.1.11zm-.21.11l.11.1z" transform="translate(-56.19 -3.22)"/><path d="M98.25 53.34l-.73.1c.24.59.68 1.06.88 1.68s.08 1.61.79 2c.33-.73 1.13-1.93.94-2.72a1.91 1.91 0 00-.94 1.6h-.1z" transform="translate(-56.19 -3.22)"/><path class="cls-7" d="M77.11 53.44l.11.11z" transform="translate(-56.19 -3.22)"/><path d="M88.52 53.44a21.58 21.58 0 01-.84 6c.73 0 1.11-.74 1.51-1.26A7.71 7.71 0 0192 55.43v-.11c-1.24-.16-2.79 1.7-3.24 2.72h-.11a7.54 7.54 0 00.11-4.6z" transform="translate(-56.19 -3.22)"/><path class="cls-8" d="M94.8 53.44l.1.11z" transform="translate(-56.19 -3.22)"/><path class="cls-3" d="M124.93 53.44l.11.11z" transform="translate(-56.19 -3.22)"/><path class="cls-4" d="M127.44 53.44l.11.11z" transform="translate(-56.19 -3.22)"/><path d="M106.31 55.74l-2.41-1.67c.13.43.47.55.79.85.63.58 1.17 1.93 2 2.08l.2-3.45c-.8.32-.58 1.45-.58 2.19z" transform="translate(-56.19 -3.22)"/><path class="cls-6" d="M119.7 53.55l.1.1z" transform="translate(-56.19 -3.22)"/><path class="cls-3" d="M127.34 53.55l.1.1z" transform="translate(-56.19 -3.22)"/><path class="cls-8" d="M98.35 53.65l.11.11z" transform="translate(-56.19 -3.22)"/><path class="cls-7" d="M114.36 53.76l.11.1z" transform="translate(-56.19 -3.22)"/><path class="cls-8" d="M97.73 53.86l.1.1z" transform="translate(-56.19 -3.22)"/><path class="cls-7" d="M113.21 53.86l.11.1zm.73.1l.11.11z" transform="translate(-56.19 -3.22)"/><path class="cls-6" d="M114.05 54.07l.1.1z" transform="translate(-56.19 -3.22)"/><path class="cls-8" d="M94.07 54.17l.1.11zm10.25 0l.1.11z" transform="translate(-56.19 -3.22)"/><path class="cls-7" d="M118.44 54.28l.11.1z" transform="translate(-56.19 -3.22)"/><path class="cls-6" d="M77.32 54.38l.11.11z" transform="translate(-56.19 -3.22)"/><path class="cls-8" d="M100.13 54.38l.11.11zm-6.38.21l.11.11z" transform="translate(-56.19 -3.22)"/><path class="cls-7" d="M113.84 54.59l.1.11z" transform="translate(-56.19 -3.22)"/><path class="cls-2" d="M120.75 54.59l.1.11z" transform="translate(-56.19 -3.22)"/><path class="cls-3" d="M125.77 54.59l.1.11z" transform="translate(-56.19 -3.22)"/><path class="cls-9" d="M126.29 54.59l.11.11z" transform="translate(-56.19 -3.22)"/><path class="cls-6" d="M77.53 54.7l.11.1z" transform="translate(-56.19 -3.22)"/><path class="cls-3" d="M126.19 54.7l.1.1z" transform="translate(-56.19 -3.22)"/><path class="cls-8" d="M104.63 54.8l.11.11z" transform="translate(-56.19 -3.22)"/><path class="cls-2" d="M119.39 54.8l.1.11z" transform="translate(-56.19 -3.22)"/><path class="cls-3" d="M126.08 54.8l.11.11z" transform="translate(-56.19 -3.22)"/><path class="cls-8" d="M82.66 55l.1.11zm15.69 0l.11.11zm6.7.21l.11.1z" transform="translate(-56.19 -3.22)"/><path class="cls-7" d="M82.56 55.43l.1.1z" transform="translate(-56.19 -3.22)"/><path class="cls-8" d="M106 55.53l.11.11z" transform="translate(-56.19 -3.22)"/><path d="M112.27 55.53c-.74 1.31.34 4 .52 5.44h-.1a14.5 14.5 0 00-2.62-3.24c-.12-.14-.79-1-1-.66s1 1.33 1.19 1.6a20.72 20.72 0 012.22 3.25c.37.65.69 1.53 1.38 1.88-.52-2.7-1.35-5.5-1.36-8.27z" transform="translate(-56.19 -3.22)"/><path class="cls-2" d="M119.39 55.53l.1.11z" transform="translate(-56.19 -3.22)"/><path class="cls-9" d="M90.82 55.64l.11.1z" transform="translate(-56.19 -3.22)"/><path class="cls-8" d="M91.34 55.64l.11.1zm7.64 0l.11.1z" transform="translate(-56.19 -3.22)"/><path class="cls-6" d="M114.89 55.64l.1.1z" transform="translate(-56.19 -3.22)"/><path class="cls-7" d="M112.06 55.74l.11.11z" transform="translate(-56.19 -3.22)"/><path class="cls-3" d="M125.66 55.74l.11.11z" transform="translate(-56.19 -3.22)"/><path class="cls-8" d="M92.7 55.85l.11.1z" transform="translate(-56.19 -3.22)"/><path class="cls-7" d="M99.09 55.85l.1.1z" transform="translate(-56.19 -3.22)"/><path class="cls-3" d="M123.26 56l.1.11zm1.36 0l.1.11z" transform="translate(-56.19 -3.22)"/><path class="cls-8" d="M90.82 56.06l.11.1zm14.86 0l.1.1z" transform="translate(-56.19 -3.22)"/><path class="cls-2" d="M119.91 56.06l.1.1z" transform="translate(-56.19 -3.22)"/><path class="cls-7" d="M82.35 56.16l.1.11z" transform="translate(-56.19 -3.22)"/><path class="cls-3" d="M123.78 56.27l.1.1z" transform="translate(-56.19 -3.22)"/><path class="cls-8" d="M88.31 56.37l.11.11z" transform="translate(-56.19 -3.22)"/><path class="cls-6" d="M78.89 56.48l.11.1z" transform="translate(-56.19 -3.22)"/><path class="cls-7" d="M106 56.48l.11.1zm6.07 0l.11.1z" transform="translate(-56.19 -3.22)"/><path class="cls-4" d="M125.66 56.48l.11.1z" transform="translate(-56.19 -3.22)"/><path d="M77.43 56.58l-1.15 3.24 2.4-1.67a1.61 1.61 0 00-1.25-1.57z" transform="translate(-56.19 -3.22)" fill="url(#radial-gradient-7)"/><path class="cls-8" d="M90.19 56.68l.11.11zm16 .11l.11.1z" transform="translate(-56.19 -3.22)"/><path class="cls-7" d="M81.93 57.21l.1.1z" transform="translate(-56.19 -3.22)"/><path class="cls-2" d="M121.16 57.21l.11.1z" transform="translate(-56.19 -3.22)"/><path class="cls-7" d="M109.65 57.31l.11.11z" transform="translate(-56.19 -3.22)"/><path class="cls-8" d="M86.74 57.42l.11.1z" transform="translate(-56.19 -3.22)"/><path d="M94.8 57.42l-.11.1A22 22 0 0196 61.6c.11.7 0 1.62.62 2.1.58-1.12.8-2.42 1.33-3.56.31-.66.82-1.24.65-2-1 .49-1.6 2.73-1.88 3.77-.52-1.39-.36-3.79-1.88-4.5z" transform="translate(-56.19 -3.22)"/><path class="cls-7" d="M109.24 57.63l.1.1zm.1.1l.11.11z" transform="translate(-56.19 -3.22)"/><path class="cls-8" d="M88.62 57.84l.11.1z" transform="translate(-56.19 -3.22)"/><path class="cls-7" d="M109.45 57.84l.1.1z" transform="translate(-56.19 -3.22)"/><path class="cls-6" d="M80.36 57.94l.1.1z" transform="translate(-56.19 -3.22)"/><path class="cls-7" d="M82.56 57.94l.1.1z" transform="translate(-56.19 -3.22)"/><path class="cls-5" d="M88.62 57.94l.11.1z" transform="translate(-56.19 -3.22)"/><path class="cls-7" d="M109.55 57.94l.1.1z" transform="translate(-56.19 -3.22)"/><path class="cls-9" d="M123.78 57.94l.1.1z" transform="translate(-56.19 -3.22)"/><path class="cls-8" d="M89.15 58l.1.11zm9.1.11l.1.1z" transform="translate(-56.19 -3.22)"/><path class="cls-6" d="M112.27 58.15l.11.1z" transform="translate(-56.19 -3.22)"/><path class="cls-8" d="M98.56 58.25l.11.11z" transform="translate(-56.19 -3.22)"/><path class="cls-7" d="M110.49 58.25l.11.11z" transform="translate(-56.19 -3.22)"/><path class="cls-2" d="M110.6 58.36l.1.1z" transform="translate(-56.19 -3.22)"/><path class="cls-6" d="M81 58.46l.1.11zm7.84 0l.11.11z" transform="translate(-56.19 -3.22)"/><path d="M101.91 58.46a34.08 34.08 0 012.72 7.12c.74-.42.64-1.15.63-1.88 0-1.73.64-3.44.52-5.13-.49.17-.58.67-.66 1.15-.21 1.14-.21 2.32-.49 3.45-.56-1.32-1.01-4.43-2.72-4.71z" transform="translate(-56.19 -3.22)"/><path class="cls-8" d="M102.23 58.46l.1.11z" transform="translate(-56.19 -3.22)"/><path class="cls-2" d="M119 58.46l.1.11z" transform="translate(-56.19 -3.22)"/><path class="cls-8" d="M95.22 58.57l.1.1z" transform="translate(-56.19 -3.22)"/><path class="cls-6" d="M110.18 58.57l.1.1zm-27.83.1l.1.11z" transform="translate(-56.19 -3.22)"/><path class="cls-8" d="M90.3 58.67l.1.11z" transform="translate(-56.19 -3.22)"/><path class="cls-7" d="M105.37 58.67l.1.11z" transform="translate(-56.19 -3.22)"/><path class="cls-2" d="M123.26 58.67l.1.11z" transform="translate(-56.19 -3.22)"/><path class="cls-4" d="M77.43 58.78l.1.1z" transform="translate(-56.19 -3.22)"/><path class="cls-7" d="M105.26 58.88l.11.11zM84 59.09l.11.11z" transform="translate(-56.19 -3.22)"/><path class="cls-8" d="M97.73 59.09l.1.11zm.62 0l.11.11z" transform="translate(-56.19 -3.22)"/><path class="cls-6" d="M110.6 59.09l.1.11zm-26.68.11l.1.1z" transform="translate(-56.19 -3.22)"/><path class="cls-2" d="M119.28 59.2l.11.1z" transform="translate(-56.19 -3.22)"/><path class="cls-4" d="M122.84 59.2l.1.1z" transform="translate(-56.19 -3.22)"/><path class="cls-7" d="M83.81 59.3l.11.11z" transform="translate(-56.19 -3.22)"/><path class="cls-8" d="M98.25 59.3l.1.11z" transform="translate(-56.19 -3.22)"/><path class="cls-7" d="M103 59.3l.1.11z" transform="translate(-56.19 -3.22)"/><path d="M124 59.3l-.73 1.26 2.3 1z" transform="translate(-56.19 -3.22)" fill="url(#radial-gradient-8)"/><path class="cls-6" d="M111.54 59.41l.1.1z" transform="translate(-56.19 -3.22)"/><path class="cls-8" d="M98.15 59.51l.1.1z" transform="translate(-56.19 -3.22)"/><path class="cls-7" d="M102.54 59.61l.1.11z" transform="translate(-56.19 -3.22)"/><path class="cls-4" d="M76.38 59.72l.11.1z" transform="translate(-56.19 -3.22)"/><path class="cls-7" d="M84.75 59.72l.11.1z" transform="translate(-56.19 -3.22)"/><path class="cls-5" d="M76.17 59.82l.11.11z" transform="translate(-56.19 -3.22)"/><path class="cls-8" d="M97.41 59.82l.11.11z" transform="translate(-56.19 -3.22)"/><path class="cls-7" d="M102.64 59.82l.11.11z" transform="translate(-56.19 -3.22)"/><path class="cls-3" d="M122.32 59.82l.1.11z" transform="translate(-56.19 -3.22)"/><path class="cls-7" d="M102.75 60l.1.11zm.63 0l.1.11zm-.53.21l.11.11zm.63 0l.11.11zm-6.28.11l.11.1zm.53 0l.1.1z" transform="translate(-56.19 -3.22)"/><path class="cls-2" d="M115.93 60.35l.11.1z" transform="translate(-56.19 -3.22)"/><path class="cls-7" d="M103.59 60.45l.1.11z" transform="translate(-56.19 -3.22)"/><path class="cls-9" d="M123.36 60.56l.11.1z" transform="translate(-56.19 -3.22)"/><path class="cls-6" d="M82.56 60.66l.1.11z" transform="translate(-56.19 -3.22)"/><path d="M94.38 60.77l.1.1z" transform="translate(-56.19 -3.22)"/><path class="cls-6" d="M111.75 60.77l.1.1z" transform="translate(-56.19 -3.22)"/><path class="cls-7" d="M97 60.87l.11.1z" transform="translate(-56.19 -3.22)"/><path class="cls-2" d="M116.67 60.87l.1.1z" transform="translate(-56.19 -3.22)"/><path class="cls-6" d="M84.33 61l.11.11z" transform="translate(-56.19 -3.22)"/><path class="cls-7" d="M94.59 61l.1.11z" transform="translate(-56.19 -3.22)"/><path class="cls-2" d="M117.08 61.18l.11.11zm-6.69.11l.1.1zm.21 0l.1.1z" transform="translate(-56.19 -3.22)"/><path class="cls-6" d="M81.93 61.39l.1.11z" transform="translate(-56.19 -3.22)"/><path class="cls-7" d="M96.79 61.39l.1.11z" transform="translate(-56.19 -3.22)"/><path class="cls-6" d="M112.17 61.39l.1.11zm-26.58.42l.1.11z" transform="translate(-56.19 -3.22)"/><path class="cls-7" d="M98.67 61.81l.1.11zm-17.16.11l.1.1z" transform="translate(-56.19 -3.22)"/><path class="cls-2" d="M113.42 61.92l.11.1z" transform="translate(-56.19 -3.22)"/><path class="cls-6" d="M104.21 62l.11.11zM86 62.13l.1.1z" transform="translate(-56.19 -3.22)"/><path class="cls-2" d="M112.58 62.13l.11.1z" transform="translate(-56.19 -3.22)"/><path class="cls-6" d="M106.2 62.23l.11.1z" transform="translate(-56.19 -3.22)"/><path class="cls-7" d="M86.22 62.33l.1.11z" transform="translate(-56.19 -3.22)"/><path class="cls-3" d="M118.55 62.44l.1.1z" transform="translate(-56.19 -3.22)"/><path class="cls-6" d="M81.09 62.54l.11.11z" transform="translate(-56.19 -3.22)"/><path class="cls-7" d="M96.05 62.54l.11.11z" transform="translate(-56.19 -3.22)"/><path class="cls-6" d="M102.44 62.54l.1.11z" transform="translate(-56.19 -3.22)"/><path class="cls-3" d="M118.65 62.54l.11.11z" transform="translate(-56.19 -3.22)"/><path class="cls-6" d="M90.09 62.65l.1.1zm14.33.1l.11.11zM87 62.86l.1.1zm20.51 0l.1.1zm-20.2.21l.11.1zm19.57.1l.1.11zm-14.13.11l.11.1zm15.07 0l.11.1zm-15.17.21l.1.1zm-4.29.1l.11.11zm1.36 0l.11.11zm18.31 0l.11.11zm-19.36.11l.11.1zm11 .1l.11.1z" transform="translate(-56.19 -3.22)"/><path d="M86.22 64L86 67.25c.93-.98 2.46-3.04.22-3.25z" transform="translate(-56.19 -3.22)" fill="url(#radial-gradient-9)"/><path class="cls-6" d="M93.12 64l.11.1z" transform="translate(-56.19 -3.22)"/><path class="cls-3" d="M116.67 64.43l.1.1z" transform="translate(-56.19 -3.22)"/><path class="cls-4" d="M120.85 64.43l.11.1z" transform="translate(-56.19 -3.22)"/><path class="cls-6" d="M105.37 64.53l.1.11z" transform="translate(-56.19 -3.22)"/><path class="cls-3" d="M116.25 64.64l.1.1z" transform="translate(-56.19 -3.22)"/><path class="cls-6" d="M100 64.85l.1.1zm4.39 0l.11.1z" transform="translate(-56.19 -3.22)"/><path class="cls-4" d="M115.51 65l.11.11z" transform="translate(-56.19 -3.22)"/><path class="cls-6" d="M105.05 65.26l.11.11z" transform="translate(-56.19 -3.22)"/><path class="cls-2" d="M108.09 65.26l.1.11z" transform="translate(-56.19 -3.22)"/><path class="cls-3" d="M114.89 65.26l.1.11z" transform="translate(-56.19 -3.22)"/><path class="cls-6" d="M92.91 65.37l.11.1zm12 0l.1.1z" transform="translate(-56.19 -3.22)"/><path class="cls-3" d="M114.68 65.37l.1.1z" transform="translate(-56.19 -3.22)"/><path class="cls-6" d="M102.54 65.58l.1.1z" transform="translate(-56.19 -3.22)"/><path class="cls-2" d="M108.19 65.58l.1.1zm.84 0l.1.1z" transform="translate(-56.19 -3.22)"/><path class="cls-4" d="M86.85 65.79l.1.1z" transform="translate(-56.19 -3.22)"/><path class="cls-6" d="M94.48 65.89l.11.11zm6 .21l.1.11z" transform="translate(-56.19 -3.22)"/><path class="cls-3" d="M112.9 66.1l.1.11zm-.32.11l.11.1z" transform="translate(-56.19 -3.22)"/><path class="cls-4" d="M121.79 66.31l.11.11zm.21 0l.11.11z" transform="translate(-56.19 -3.22)"/><path class="cls-2" d="M111.85 66.42l.11.1z" transform="translate(-56.19 -3.22)"/><path d="M113.84 67.15a6.77 6.77 0 002.09 2.3l-.93-2.93z" transform="translate(-56.19 -3.22)" fill="url(#radial-gradient-10)"/><path class="cls-2" d="M109.45 66.62l.1.11zm-18.21.21l.1.11z" transform="translate(-56.19 -3.22)"/><path class="cls-6" d="M97.73 66.83l.1.11z" transform="translate(-56.19 -3.22)"/><path class="cls-4" d="M114.05 66.94l.1.1z" transform="translate(-56.19 -3.22)"/><path class="cls-2" d="M98.67 67l.1.11z" transform="translate(-56.19 -3.22)"/><path class="cls-4" d="M114.26 67.78l.1.1zm.1.1l.11.1z" transform="translate(-56.19 -3.22)"/><path d="M96.05 71.65h.11l.94-3.35-1.19-.2-.07.93z" transform="translate(-56.19 -3.22)" fill="url(#radial-gradient-11)"/><path class="cls-4" d="M114.47 68l.1.11zm1 .42l.11.11z" transform="translate(-56.19 -3.22)"/><path d="M104.74 68.93l1.15 3.34c.26-.59 1-2.91.49-3.39s-1.17-.08-1.64.05z" transform="translate(-56.19 -3.22)" fill="url(#radial-gradient-12)"/><path class="cls-4" d="M105 68.82l.1.11z" transform="translate(-56.19 -3.22)"/><path class="cls-9" d="M115.2 68.82l.11.11zm-4.92.42l.11.11z" transform="translate(-56.19 -3.22)"/><path class="cls-4" d="M115.72 69.35l.11.1zm-10.88.1l.11.1zm11 0l.21.21z" transform="translate(-56.19 -3.22)"/><path class="cls-5" d="M115.93 69.45l.11.1z" transform="translate(-56.19 -3.22)"/><path class="cls-3" d="M110.81 69.66l.1.1z" transform="translate(-56.19 -3.22)"/><path class="cls-4" d="M96.58 69.76l.1.11z" transform="translate(-56.19 -3.22)"/><path d="M127.6 44.19a.82.82 0 01-.74-.7c0-.3.19-.6 1-1.54.63-.74.55-.72-.6.16a5.64 5.64 0 01-3.47 1.41 3.36 3.36 0 01-1.08 0 1.38 1.38 0 01.39-.41 19.3 19.3 0 001.59-1.94c1.21-1.62 1.8-2.17 2.58-2.4a2.77 2.77 0 013.17 1.9 3.39 3.39 0 01-1.92 3.51 2.72 2.72 0 01-.52.11l-.37-.07z" transform="translate(-56.19 -3.22)" fill="#fef666"/><path d="M125.94 51.21a2.88 2.88 0 01-1.3-1.06 10.38 10.38 0 01-1.3-3.47c-.23-.88-.45-1.69-.48-1.8-.18-.56 1-.85 2.54-.6 1.18.2 1.61.6 1.82 1.66.08.41.16.79.18.86s.11-.25.19-.72a2.88 2.88 0 01.44-1.16l.27-.32.45.3a3 3 0 011.1 2.56 3.62 3.62 0 01-1.85 3.45 4.2 4.2 0 01-2.09.3z" transform="translate(-56.19 -3.22)" fill="#fef67a"/></svg>