<svg xmlns="http://www.w3.org/2000/svg" id="oracle" width="183.32" height="23.83"><path d="M87.65 43.58h12.09l-6.38-10.32-11.74 18.63h-5.34l14.28-22.35a3.4 3.4 0 015.55 0l14.32 22.39h-5.34l-2.51-4.17H90.34l-2.66-4.14m55.47 4.14V28.31h-4.53v21.33a2.18 2.18 0 00.67 1.58 2.25 2.25 0 001.65.69h20.63l2.69-4.16h-21.13m-75-3.49a8 8 0 000-15.95H48.3v23.58h4.53v-19.4h15a3.82 3.82 0 110 7.63H55.07l13.54 11.77h6.57l-9.09-7.63h2m-47.65 7.63h13.7a11.79 11.79 0 000-23.57h-13.7a11.79 11.79 0 00-.62 23.57h.62m13.39-4.15H20.74a7.63 7.63 0 010-15.25h13.09a7.63 7.63 0 01.49 15.25h-.49m86.06 4.15h14l2.65-4.15H120.2a7.63 7.63 0 01-.49-15.25 4 4 0 01.49 0h13.29l2.68-4.17h-16.28a11.79 11.79 0 00-.61 23.57h.61m55.43-4.15a7.64 7.64 0 01-7.32-5.55h19.37L190 38h-22a7.61 7.61 0 017.34-5.55h13.3l2.66-4.17H175a11.79 11.79 0 000 23.57h14l2.66-4.15h-16.34" transform="translate(-8.34 -28.09)" fill="#c74634"/></svg>