<svg xmlns="http://www.w3.org/2000/svg" id="_.org.uk" data-name=".org.uk" width="160.17" height="74.95"><defs><style>.cls-1{fill:#00b288}</style></defs><g id="_.org.uk-2" data-name=".org.uk"><path class="cls-1" d="M50.47 48.65a12 12 0 00-8.62-3.55 11.81 11.81 0 00-11.1 7.39 12.15 12.15 0 00-.9 4.62v.08a12.08 12.08 0 00.9 4.6 11.51 11.51 0 002.49 3.78A12.07 12.07 0 0037 68.16a12.4 12.4 0 009.57 0 11.57 11.57 0 003.82-2.6 12.21 12.21 0 002.52-3.82 12 12 0 00.9-4.62V57a11.94 11.94 0 00-.89-4.61 10.82 10.82 0 00-2.45-3.74zm-.12 8.55a9.5 9.5 0 01-.62 3.42A8.61 8.61 0 0148 63.43a8.28 8.28 0 01-2.67 1.91 8.49 8.49 0 01-6.81 0 8.36 8.36 0 01-2.69-1.91A8.71 8.71 0 0134 60.62a9.52 9.52 0 01-.64-3.5V57a9.75 9.75 0 01.64-3.38 8.7 8.7 0 011.72-2.82 7.82 7.82 0 012.61-1.94 8 8 0 013.42-.72 7.87 7.87 0 013.38.72 8.53 8.53 0 012.71 1.94 8.62 8.62 0 011.83 2.82 9.36 9.36 0 01.67 3.51zm14.81-10.28A10.45 10.45 0 0063 49a12.63 12.63 0 00-1.55 2.63v-6h-3.4v23h3.42v-9.2a13.17 13.17 0 01.72-4.57 9.41 9.41 0 012-3.31 7.9 7.9 0 012.91-2 9.56 9.56 0 013.54-.68h.25v-3.7a8.77 8.77 0 00-5.68 1.75zm26.66 2.82a15 15 0 00-1.6-1.74 10.17 10.17 0 00-2-1.47 11.18 11.18 0 00-2.4-1 11.47 11.47 0 00-7 .38A10.79 10.79 0 0075.37 48 10.37 10.37 0 0073 51.4a10.75 10.75 0 00-.91 4.54V56a10.59 10.59 0 00.91 4.49 10.88 10.88 0 009.9 6.29 9.36 9.36 0 005.33-1.43 14.27 14.27 0 003.68-3.42v2.72c0 2.69-.75 4.74-2.26 6.12a8.72 8.72 0 01-6.09 2.06 14.33 14.33 0 01-4.68-.75 17 17 0 01-4.18-2.19l-1.55 2.67a17.75 17.75 0 004.9 2.44 18.76 18.76 0 005.52.8 15.59 15.59 0 005-.75 9.81 9.81 0 003.78-2.32 9.38 9.38 0 002.18-3.45 12.88 12.88 0 00.76-4.68v-19h-3.46v4.14zM92 56a6.82 6.82 0 01-.72 3.2 8.17 8.17 0 01-1.93 2.4 7.84 7.84 0 01-2.69 1.61 9.16 9.16 0 01-3.2.54 8.14 8.14 0 01-3-.54 7.9 7.9 0 01-2.53-1.61 7.53 7.53 0 01-1.74-2.47 7.66 7.66 0 01-.64-3.2v-.08a8 8 0 01.61-3.21 7.09 7.09 0 011.73-2.4 7.42 7.42 0 012.53-1.55 8.33 8.33 0 013.09-.56 9 9 0 013.2.56 8.35 8.35 0 012.69 1.6 7.68 7.68 0 011.89 2.45A7.24 7.24 0 0192 56z" transform="translate(-19.92 -2.53)"/><circle class="cls-1" cx="3.78" cy="62.29" r="3.78"/><circle class="cls-1" cx="84.15" cy="62.29" r="3.78"/><path class="cls-1" d="M142.61 2.53A37.47 37.47 0 00113 63a12.68 12.68 0 01-.8-4.76V44.81h6.73v11.9c0 3.81.65 5.6 3.76 5.6s3.88-1.91 3.88-5.6v-11.9h6.61v13.37c0 7.08-4.09 10.41-10.55 10.41a12.24 12.24 0 01-5.49-1.12 37.47 37.47 0 1025.47-64.94zm10.26 66.07l-6.24-9.75-2.34 2.49v7.21h-6.77V36.12h6.77v17.3l7.91-8.68h8.11l-9.05 9.4 9.39 14.41h-7.78z" transform="translate(-19.92 -2.53)"/></g></svg>