<svg xmlns="http://www.w3.org/2000/svg" id="org" width="177.1" height="60.81"><path d="M31 17h6.3a7.14 7.14 0 014 .76l-4.23-4.5a8.4 8.4 0 00-6-2.56 8.54 8.54 0 00-5.8 2.47L21 17.68a7 7 0 014-.68zm12.9 14.94a5.9 5.9 0 00-1.48-2.88l-7.34-7.55A5.34 5.34 0 0032.2 20a6.3 6.3 0 00-1.84 0 5.54 5.54 0 00-2.84 1.48l-7.6 7.69a5.49 5.49 0 000 7.65l7.56 7.7a5.32 5.32 0 007.51 0l7.61-7.7a5.81 5.81 0 001.48-3.15 6.65 6.65 0 000-1.89m-12.82 17H25a7.5 7.5 0 01-4-.78l4.19 4.5a8.31 8.31 0 0011.74 0h.09l4.23-4.5a7.5 7.5 0 01-3.92.81zM15.33 32.57v-6.34a7.59 7.59 0 01.81-4l-4.5 4.22a8.69 8.69 0 000 12.24l4.5 4.23a7.94 7.94 0 01-.76-4v-6.35zm31.72 0V39a7.14 7.14 0 01-.76 4l4.5-4.23a8.69 8.69 0 000-12.24l-4.5-4.22a7.11 7.11 0 01.76 3.95z" transform="translate(-9.12 -9.72)" fill="#ff8400"/><path d="M82.55 20.25c-6.16 0-9.49 5.26-9.49 12.59s3.33 12.56 9.49 12.56 9.59-5.22 9.59-12.56-3.33-12.59-9.59-12.59m0 36a23.26 23.26 0 1123.08-23.45v.31A21.77 21.77 0 0185.3 56.24h-2.75m53.63-32.8a9.83 9.83 0 00-3.64-.67c-5.26 0-9.54 3.91-9.54 12.91v19.26h-12.82V10.57H123v5.49a12.34 12.34 0 0110.75-6.21 14 14 0 014.5.72zm26.1-3.19c-6.25 0-9.49 4.77-9.49 11s3.24 11.25 9.49 11.25a10 10 0 009.94-10.12v-1.11a9.84 9.84 0 00-8.63-10.93h-1.22m9.85 27a16 16 0 01-13.09 5.85 21.69 21.69 0 010-43.19 15.23 15.23 0 0113 6v-5.4H185v36a23.9 23.9 0 01-5 16.83 25.83 25.83 0 01-19.66 7A35.65 35.65 0 01140.41 65l5.22-9.58a24.17 24.17 0 0014.27 4.5c7.15 0 12.41-2.74 12.41-10.08zm9.68 20.56v2.57h-.45v-3h-1v-.36h2.34v.36zm4.1 2.56v-2.93l-.95 2.52h-.36l-1.17-2.52v2.52h-.4v-2.92h.63l.94 2.43.9-2.43h.59v2.92z" transform="translate(-9.12 -9.72)" fill="#173b4f"/></svg>