<svg xmlns="http://www.w3.org/2000/svg" width="500" height="500"><path fill="#fff" d="M242 207h48v29h-48z"/><path d="M301.5 297.5l-28-52h23l27 13-24-55h-77l-29-17 39 56-27 55h-60l92 126 124-126zm-43-88l25 13h-25z" fill="#ea3500"/><path d="M179.61 472.36c75.64-80.64 154.8-173.53 207.2-256.47 42.54 86.7 3.39 197.48-55.89 255.87a242.6 242.6 0 01-151.31.6z" fill="#f25c2c"/><path d="M368.46 243.55c6.43-9.41 12.59-18.74 18.4-27.93C439 299 402 417 331.05 471.41c38.87-47.31 63.29-136.27 37.41-227.86z" fill="#821b0d"/><path d="M376.5 203.26c-13.46-26.91-24.79-44.64-46.5-82.9V15.14a241.3 241.3 0 0135.47 15.4L411 128V62a242.65 242.65 0 0150.43 61.48L454 236l30.9-56.18a241.58 241.58 0 018.57 63.93q0 8.81-.63 17.45l-60.76 90.21 48.28-29A242.16 242.16 0 01330 472.38v-.12c81.5-95 94.82-172.36 46.5-269z" fill="#ea3500"/><path d="M329 472c-75.64-80.64-155.41-172.43-207.81-255.37-42.54 86.7-3.39 197.48 55.89 255.87a241.32 241.32 0 0076.59 12.4c26.08 0 51.8-5.25 75.33-12.9z" fill="#f67800"/><path d="M139.54 244.29c-6.43-9.41-12.59-18.74-18.4-27.94C72 303 103 433 177 472.14c-38.92-47.3-63.34-136.27-37.46-227.85z" fill="#821b0d"/><path d="M128.5 202c13.46-26.91 24.79-44.64 46.5-82.9V13.88a241.3 241.3 0 00-35.47 15.4L94 126.71v-66a242.65 242.65 0 00-50.43 61.48L51 234.75l-30.9-56.18a241.58 241.58 0 00-8.6 63.93q0 8.81.63 17.45l60.76 90.2-48.28-29C48.82 391.47 106.59 448 177 472l-2-1c-81.5-95-94.82-172.36-46.5-269z" fill="#f7b43f"/></svg>