<svg xmlns="http://www.w3.org/2000/svg" width="67.301" height="79.73"><path id="Path_29551" data-name="Path 29551" d="M68.076 25.565C66.283 15 58.651 9.47 49.663 9.47c-12.946 0-22.677 14.608-16.379 28.078a26.241 26.241 0 00-16.16 24.842 26.963 26.963 0 0027.16 26.81c13.558 0 24.055-9.141 26.416-23.727a20.665 20.665 0 0013.711-19.987c0-9.206-6.32-17.21-16.335-19.922zm.219 37.678c-2.187 12.4-10.934 21.54-24.579 21.54a23.748 23.748 0 01-23.749-23.858c0-11.918 6.845-18.456 15.657-23-8.747-17.013 6.56-24.645 13.361-24.645 9.031 0 16.335 6.56 16.335 14.542a17.844 17.844 0 0118.019 17.8c0 9.775-7.195 17.232-15.045 17.691z" transform="translate(-17.117 -9.47)"/></svg>