<svg xmlns="http://www.w3.org/2000/svg" width="96.533" height="71.429"><g id="osticket" transform="translate(-.5 -19.357)"><path id="Path_29560" data-name="Path 29560" d="M.5 85.31a8.58 8.58 0 012.268.2 17.078 17.078 0 005.037.4 8.406 8.406 0 004.937-2.068 13.943 13.943 0 002.668-3.336 12.442 12.442 0 001.4-4.37c.3-2.035.567-4.069.867-6.1s.634-4.169.934-6.271c.2-1.468.233-2.969.467-4.436a45.8 45.8 0 011.268-5.537 88.864 88.864 0 013.336-9.506 31.321 31.321 0 015.971-10.007 26.684 26.684 0 016.671-5.3 31.288 31.288 0 019.807-3.6C48 25.037 49.9 24.9 51.768 24.7a28.152 28.152 0 016.271.2 17.411 17.411 0 016.5 1.7 40.025 40.025 0 013.736 2.468c1.134.767 2.235 1.634 3.336 2.3a8.339 8.339 0 005 .8 16.011 16.011 0 002.135-.4 4.5 4.5 0 003-2.5c.534-1.034 1.134-2.068 1.768-3.169V23.7a14.342 14.342 0 01.534-2.7 2.769 2.769 0 01.667-1.067 1.5 1.5 0 011.534-.534l.6.967c.767-.467 1.2-.3 1.534.6a5.6 5.6 0 01-.534 4.67l-.224.364c.634.2 1.234.334 1.8.567a6.1 6.1 0 012.935 3c.467.9.834 1.835 1.268 2.735a1.268 1.268 0 00.3.434l2.6 2.7a1.768 1.768 0 010 2.468 1.8 1.8 0 01-1 .434.967.967 0 00-.334 0v.767a.7.7 0 01-.934.2 13.842 13.842 0 01-1.76-1.06 3.335 3.335 0 00-1.8-.634 7.739 7.739 0 01-3.536-.8c-.467.867-.934 1.735-1.468 2.568a17.345 17.345 0 01-7.138 6.671 3.335 3.335 0 01-.7.267 3.636 3.636 0 00-2 1.3c-1.034 1.134-2.135 2.168-3.169 3.336a30.016 30.016 0 00-2.235 2.769 6.671 6.671 0 00-.734 1.668 1.234 1.234 0 01-1.167.934h-.8a4.269 4.269 0 00-2.135.367 2.2 2.2 0 01-1.534 0l-1.868-.133a1 1 0 01-.7-1.2s.4-.233.6-.334h.367a1.2 1.2 0 011.434-.233c.534-.667 1.067-.334 1.6 0a1.3 1.3 0 011.6-.5 9.24 9.24 0 003.336-6 3.1 3.1 0 00-.667.334 5.67 5.67 0 00-2.068 3.1 3.6 3.6 0 01-1.868 2.135 1.067 1.067 0 01-.5.2h-2.775a3.1 3.1 0 00-.967.167 1.668 1.668 0 01-2.035-1.067 5.036 5.036 0 010-1h1.267c.434-1.234 1.334-.934 2.2-.534.6-.8.667-.834 2.1-.5l1.8-2.568a36.091 36.091 0 01-10.307-1.1c-.6 1.334-1.167 2.668-1.8 3.936a20.013 20.013 0 01-5.67 6.671c-2.635 2.1-5.57 3.836-8.372 5.7a39.294 39.294 0 00-7.469 6.435 10.007 10.007 0 00-2.7 5.937c-.2 2.068-.467 4.136-.7 6.238 0 1.268-.2 2.535-.267 3.8a3.336 3.336 0 01-1.368 2.8 25.716 25.716 0 01-2.568 1.634 2.5 2.5 0 01-.867.167.867.867 0 01-.934-.634 1.668 1.668 0 01.367-1.935 1.734 1.734 0 00.767-1.6 4.169 4.169 0 01.934-2.769 4.27 4.27 0 00.734-2.435c0-1.835.167-3.669.167-5.5 0-1.167-.233-2.335-.3-3.5s0-2.6 0-3.869a3.8 3.8 0 011.732-2.934c1.2-.934 2.468-1.868 3.636-2.869a28.119 28.119 0 002.869-2.769 10.007 10.007 0 002.135-4.636 37.592 37.592 0 00.834-7.138v-.4a5.537 5.537 0 01-1.2-6.671 7.338 7.338 0 00-2.368 1.368 22.815 22.815 0 00-5.37 6.471 43.362 43.362 0 00-3.736 8.439 57.6 57.6 0 00-1.3 5.771 140.564 140.564 0 01-3.639 15.54 14.943 14.943 0 01-2.769 5.237 12.742 12.742 0 01-7.638 4.5 11.308 11.308 0 01-6.371-1A8.939 8.939 0 01.5 85.677z" fill="#f68d29"/></g></svg>