<svg xmlns="http://www.w3.org/2000/svg" id="paddle" width="167.8" height="62.8"><g id="hQTdvS"><path d="M15.53 33.34c.25-1.13.51-2.26.74-3.39.19-.88.35-1.76.52-2.65a4.28 4.28 0 013.47-3.68c3.67-.78 7.36-1.57 11.07-2.11a17.48 17.48 0 018.34 1 13.43 13.43 0 018.35 8 22.64 22.64 0 010 17.48 14 14 0 01-11.22 8.79 15.13 15.13 0 01-7-.5l-.55-.17v8.13a5.57 5.57 0 01-3.7 5.32l-4.62 1.84h-.25c0-.27.05-.54.05-.81V38.44A6.76 6.76 0 0122.22 34c.7-.87 1.34-1.79 2.09-2.79-.27.05-.4.06-.51.09L18 33l-2.5.73zm13.71 5.41v8.09a.93.93 0 00.45.87 6.69 6.69 0 003.08 1.15c3.06.36 5.58-.36 7.1-3.65a14.28 14.28 0 00.49-11.16 6.67 6.67 0 00-5.47-4.51 14.07 14.07 0 00-5.09.35c-.45.09-.56.26-.56.7.01 2.72 0 5.41 0 8.16z" transform="translate(-15.53 -8.6)" fill="#45577c"/><path d="M137 8.6a16.54 16.54 0 012.41 1.34 4.53 4.53 0 011.72 3.69v42.4c-1.5-.07-3 0-4.52-.23a3.87 3.87 0 01-2.74-2.22 26.4 26.4 0 01-3.17 2c-7.31 3.2-15.05-.44-17.51-8.19a27.68 27.68 0 01-.94-11.23 22.45 22.45 0 012-7.42 12.22 12.22 0 0118.16-5.05c.24.16.47.33.7.5 0-.06.09-.09.09-.11V8.63zm-3.53 30.95c0-1 .06-1.93 0-2.89a11.51 11.51 0 00-1.7-5.44c-1.91-3-6.85-3.49-9.07-.85a8.55 8.55 0 00-1.75 3.43 22.89 22.89 0 00-.19 10.38 7 7 0 002.11 4 6 6 0 009.4-2 16 16 0 001.19-6.63zM105.59 8.6a14.91 14.91 0 012.27 1.21 4.92 4.92 0 011.87 4.07v42.06a40.27 40.27 0 01-4.12 0 4.1 4.1 0 01-3.24-2.43c-.05 0-.12 0-.16.06-2.71 2.67-6.08 3.3-9.68 3-5.46-.51-9-3.66-10.61-8.71a25.77 25.77 0 01.84-19 12.15 12.15 0 0117.43-5.59c.49.3 1 .65 1.43 1 0 0 .08-.08.08-.11V8.72zm-3.77 30.19a15.67 15.67 0 00-1.14-6.39A6.09 6.09 0 0094 28.72a5.36 5.36 0 00-4.36 3.8 20.1 20.1 0 00-.3 12.82A5.57 5.57 0 0095 49.67c3 0 4.79-1.26 5.88-4.23a20.57 20.57 0 00.94-6.65zm81.51 6.11c-.37 1.53-.75 3.06-1.12 4.6-.13.57-.25 1.14-.39 1.71a4.89 4.89 0 01-3.62 3.86 30.79 30.79 0 01-9.4 1.27 13.86 13.86 0 01-13.14-9.78c-1.93-5.9-1.86-11.78 1.21-17.31s7.82-7.93 14-7.95a16.66 16.66 0 015.73.92 9 9 0 016.28 9.24c-.1 5.06-2.77 8.39-7.09 10.6a29.68 29.68 0 01-9.22 2.71c-1.07.16-2.14.28-3.26.43a5.75 5.75 0 002.84 3.31 9.49 9.49 0 005.86.85 21.16 21.16 0 0011-4.54 3.24 3.24 0 01.32-.17zm-20.88-6.62c.56-.06 1-.1 1.47-.17a24.47 24.47 0 006.88-1.77 6.86 6.86 0 003.45-2.78c1.12-2 .82-4.31-1.93-5.17a6.26 6.26 0 00-5.92 1.12c-2.84 2.16-3.61 5.31-3.95 8.77zM148 8.6a1.44 1.44 0 00.32.13 5.07 5.07 0 013.83 4.66v42.69a28.9 28.9 0 01-4.32-.31c-2.26-.47-3.66-2.57-3.66-5.14V9.34c0-.24 0-.49.05-.74zM78.46 55.94c-1.32 0-2.58.09-3.82 0a4.69 4.69 0 01-3.24-1.84l-.35-.45a14.28 14.28 0 01-13 2.25A9.85 9.85 0 0153.62 40a15.84 15.84 0 017.93-4.79 46 46 0 018.54-1.65h.23a4.45 4.45 0 00-3.88-5.08A17.49 17.49 0 0060 29.52c-2.17.67-4.3 1.48-6.45 2.23l-.71.27c.19-1.33.47-2.57.53-3.83.14-2.71 1.76-4.23 4.06-5.12A20.8 20.8 0 0169.72 22a10.81 10.81 0 017.91 6 8.64 8.64 0 01.82 3.64v23.79zm-8-15.55c-.81.13-1.57.22-2.32.39-1.4.33-2.79.69-4.18 1.07a9.17 9.17 0 00-3.44 1.59 3.24 3.24 0 00.39 5.39 5.5 5.5 0 001 .46 7.91 7.91 0 007.56-2.2 3.53 3.53 0 00.93-1.72c.09-1.64.01-3.29.01-4.98z" transform="translate(-15.53 -8.6)" fill="#45567c"/></g></svg>