<svg xmlns="http://www.w3.org/2000/svg" id="Paypal" width="190.26" height="46.46"><defs><style>.cls-1{fill:#253b80}.cls-2{fill:#179bd7}</style></defs><path class="cls-1" d="M76 25.06H65.48A1.45 1.45 0 0064 26.29l-4.26 27a.88.88 0 00.87 1h5a1.46 1.46 0 001.45-1.23l1.15-7.29a1.45 1.45 0 011.44-1.23h3.34c6.93 0 10.93-3.36 12-10 .47-2.91 0-5.19-1.34-6.8s-4.11-2.68-7.65-2.68zm1.22 9.86c-.58 3.77-3.47 3.77-6.26 3.77h-1.58l1.12-7a.87.87 0 01.87-.74h.72c1.91 0 3.7 0 4.63 1.08a3.54 3.54 0 01.51 2.89zm30.26-.12h-5a.88.88 0 00-.87.74l-.26 1.46-.35-.52c-1.09-1.58-3.53-2.11-6-2.11a11.58 11.58 0 00-11.21 10.09 9.52 9.52 0 001.88 7.75A7.87 7.87 0 0092 54.77a9.61 9.61 0 007-2.89l-.22 1.4a.88.88 0 00.87 1h4.54a1.45 1.45 0 001.44-1.24l2.73-17.25a.88.88 0 00-.88-.99zm-7 9.81a5.62 5.62 0 01-5.69 4.81 3.9 3.9 0 01-4.18-4.9 5.64 5.64 0 015.65-4.85A4.23 4.23 0 0199.6 41a4.37 4.37 0 01.86 3.61zm33.85-9.81h-5.06a1.45 1.45 0 00-1.21.64l-7 10.29-3-9.89a1.47 1.47 0 00-1.41-1h-5a.88.88 0 00-.83 1.16l5.58 16.37-5.24 7.41a.87.87 0 00.71 1.38H117a1.46 1.46 0 001.2-.62l16.85-24.33a.87.87 0 00-.72-1.41z" transform="translate(-4.87 -14.67)"/><path class="cls-2" d="M151.11 25.06h-10.53a1.47 1.47 0 00-1.45 1.23l-4.25 27a.87.87 0 00.86 1h5.41a1 1 0 001-.86l1.21-7.66a1.46 1.46 0 011.45-1.23h3.33c6.94 0 10.94-3.36 12-10 .48-2.91 0-5.19-1.34-6.8s-4.17-2.68-7.69-2.68zm1.21 9.86c-.57 3.77-3.46 3.77-6.25 3.77h-1.59l1.12-7a.86.86 0 01.86-.74h.73c1.9 0 3.7 0 4.62 1.08a3.5 3.5 0 01.51 2.89zm30.26-.12h-5a.88.88 0 00-.87.74l-.26 1.46-.35-.52c-1.09-1.58-3.53-2.11-6-2.11a11.59 11.59 0 00-11.25 10.14 9.52 9.52 0 001.88 7.75 7.88 7.88 0 006.35 2.56 9.64 9.64 0 007-2.89l-.22 1.4a.88.88 0 00.87 1h4.54a1.45 1.45 0 001.44-1.24l2.73-17.25a.88.88 0 00-.86-1.04zm-7 9.81a5.61 5.61 0 01-5.69 4.81 3.9 3.9 0 01-4.17-4.9 5.63 5.63 0 015.65-4.85A4.25 4.25 0 01174.7 41a4.36 4.36 0 01.85 3.61zm12.94-18.81l-4.32 27.49a.88.88 0 00.87 1h4.34a1.46 1.46 0 001.45-1.23l4.26-27a.88.88 0 00-.87-1h-4.86a.88.88 0 00-.87.74z" transform="translate(-4.87 -14.67)"/><path class="cls-1" d="M16.06 59.55l.8-5.12H6.51l6-37.73a.55.55 0 01.16-.3.47.47 0 01.32-.12h14.39c4.79 0 8.1 1 9.83 3a6.64 6.64 0 011.57 2.95 10.58 10.58 0 010 4.07v1.12l.81.46a5.39 5.39 0 013 4.23 12.77 12.77 0 01-.19 4.33 15.14 15.14 0 01-1.78 4.9 9.91 9.91 0 01-2.81 3.08A11.38 11.38 0 0134 46.1a19 19 0 01-4.73.54h-1.12a3.39 3.39 0 00-2.2.81 3.48 3.48 0 00-1.15 2l-.08.46L23.3 59l-.07.33c0 .11 0 .16-.09.19a.18.18 0 01-.14.06z" transform="translate(-4.87 -14.67)"/><path class="cls-2" d="M40.35 26.47c0 .28-.09.56-.14.85-1.91 9.77-8.42 13.15-16.74 13.15h-4.24a2 2 0 00-2 1.74L15 56l-.62 3.9a1.09 1.09 0 001.07 1.25H23a1.8 1.8 0 001.78-1.52l.08-.38 1.41-9 .09-.49a1.82 1.82 0 011.79-1.53h1.12c7.28 0 13-3 14.65-11.51.69-3.57.33-6.56-1.51-8.65a7.13 7.13 0 00-2.06-1.6z" transform="translate(-4.87 -14.67)"/><path d="M38.36 25.68q-.44-.13-.9-.24l-1-.18a24.08 24.08 0 00-3.69-.26H21.46a1.82 1.82 0 00-.78.18 1.8 1.8 0 00-1 1.35l-2.42 15.24-.06.44a2 2 0 012-1.74h4.24c8.32 0 14.83-3.38 16.74-13.15 0-.29.1-.57.14-.85a10 10 0 00-1.56-.66z" transform="translate(-4.87 -14.67)" fill="#222d65"/><path class="cls-1" d="M19.67 26.52a1.8 1.8 0 011-1.35 1.82 1.82 0 01.78-.18h11.32a22.86 22.86 0 013.74.28c.33.05.64.11 1 .18s.61.14.9.23l.43.13a11.08 11.08 0 011.56.66c.57-3.61 0-6.07-2-8.3-2.16-2.45-6-3.5-11-3.5H12.94a2.07 2.07 0 00-2 1.74l-6 38.13A1.24 1.24 0 006.11 56H15l2.23-14.2z" transform="translate(-4.87 -14.67)"/></svg>