<svg xmlns="http://www.w3.org/2000/svg" width="80.039" height="82.224"><defs><linearGradient id="linear-gradient" x1="-.001" y1=".5" x2=".999" y2=".5" gradientUnits="objectBoundingBox"><stop offset=".202" stop-color="#0b3c56"/><stop offset=".315" stop-color="#075980"/><stop offset=".867" stop-color="#0079b1"/><stop offset=".985" stop-color="#0b4c6d"/></linearGradient><linearGradient id="linear-gradient-2" x1="-.033" y1="-.496" x2="1.033" y2="1.496" gradientUnits="objectBoundingBox"><stop offset="0" stop-color="#00b4d8"/><stop offset=".089" stop-color="#0192c1"/><stop offset=".473" stop-color="#015d8f"/><stop offset=".744" stop-color="#076f93"/><stop offset="1" stop-color="#1f406f"/></linearGradient><linearGradient id="linear-gradient-3" x1=".187" y1="-.373" x2=".813" y2="1.37" gradientUnits="objectBoundingBox"><stop offset=".32" stop-color="#b96d1f"/><stop offset=".527" stop-color="#f4ac1b"/><stop offset="1" stop-color="#905c1e"/></linearGradient><linearGradient id="linear-gradient-4" y1=".501" x2="1" y2=".501" gradientUnits="objectBoundingBox"><stop offset="0" stop-color="#f2a41d"/><stop offset=".33" stop-color="#f7be1b"/><stop offset=".631" stop-color="#f7be1b"/><stop offset=".833" stop-color="#fbd010"/></linearGradient><linearGradient id="linear-gradient-5" x1=".148" y1=".085" x2=".851" y2=".916" gradientUnits="objectBoundingBox"><stop offset=".704" stop-color="#181918"/><stop offset="1" stop-color="#5a5b5b"/></linearGradient><linearGradient id="linear-gradient-6" x1="-.104" y1="1.2" x2="1.104" y2="-.202" gradientUnits="objectBoundingBox"><stop offset="0" stop-color="#454645"/><stop offset=".291" stop-color="#5a5b5b"/><stop offset=".685" stop-color="#3a3a3a"/><stop offset=".975" stop-color="#717171"/></linearGradient><linearGradient id="linear-gradient-7" x1="-.005" y1=".507" x2="1.009" y2=".507" gradientUnits="objectBoundingBox"><stop offset=".32" stop-color="#b96d1f"/><stop offset="1" stop-color="#905c1e"/></linearGradient><linearGradient id="linear-gradient-8" x1=".006" y1=".502" x2="1.01" y2=".502" gradientUnits="objectBoundingBox"><stop offset="0" stop-color="#f4af19"/><stop offset=".961" stop-color="#f7be1b"/></linearGradient><radialGradient id="radial-gradient" cx=".5" cy=".499" r=".521" gradientTransform="matrix(.918 0 0 -1 .041 1.358)" gradientUnits="objectBoundingBox"><stop offset=".315" stop-color="#4c4c4c"/><stop offset=".892" stop-color="#181918"/></radialGradient></defs><g id="php-fusion-logo" transform="translate(-105.303 -.029)"><path id="Path_29697" data-name="Path 29697" d="M157.358 28.657c-16.663-14.686-35.491-20.9-41.892-13.839s1.883 24.665 18.64 39.445c16.757 14.686 35.491 20.9 41.987 13.839s-1.977-24.759-18.734-39.445zm13.65 35.962c-5.366 6.025-21.652.659-36.432-11.956-14.686-12.615-22.217-27.771-16.851-33.89 5.366-6.025 21.652-.659 36.432 11.956 14.686 12.614 22.217 27.771 16.851 33.89z" transform="translate(-.469 -.696)" fill="url(#linear-gradient)"/><path id="Path_29698" data-name="Path 29698" d="M157.929 26.29c-17.51-15.627-37.091-22.217-43.869-14.78-6.684 7.531 1.977 26.265 19.487 41.986 17.51 15.627 37.091 22.217 43.869 14.78 6.684-7.531-2.071-26.359-19.487-41.986zm14.121 38.221c-5.648 6.4-22.688.753-38.033-12.709s-23.253-29.56-17.6-36.056c5.648-6.4 22.688-.753 38.033 12.709 15.435 13.462 23.25 29.654 17.6 36.056z" transform="translate(-.381 -.494)" fill="url(#linear-gradient-2)"/><path id="Path_29699" data-name="Path 29699" d="M182.311 23.922c-4.236-8.849-24.759-7.908-45.752 2.071s-34.644 25.23-30.407 34.079S130.911 67.98 151.9 58c20.993-10.073 34.644-25.23 30.407-34.079zm-31.066 32.573c-17.887 8.473-35.3 9.32-38.88 1.789s7.908-20.428 25.794-28.9 35.3-9.32 38.88-1.789c3.671 7.437-7.908 20.428-25.794 28.9z" transform="translate(-.005 -1.044)" fill="url(#linear-gradient-3)"/><path id="Path_29700" data-name="Path 29700" d="M184.66 23.177c-4.048-9.226-24.853-9.037-46.6.471s-36.056 24.665-32.1 33.8c4.048 9.226 24.853 9.037 46.6-.471 21.746-9.414 36.15-24.571 32.1-33.8zm-32.667 32.29c-18.451 8.1-36.244 8.284-39.633.471s8.849-20.617 27.3-28.713 36.244-8.284 39.633-.471-8.849 20.711-27.3 28.713z" transform="translate(0 -.958)" fill="url(#linear-gradient-4)"/><ellipse id="Ellipse_919" data-name="Ellipse 919" cx="4.613" cy="4.236" rx="4.613" ry="4.236" transform="translate(137.684 37.375)" fill="url(#radial-gradient)"/><ellipse id="Ellipse_920" data-name="Ellipse 920" cx=".847" cy="1.412" rx=".847" ry="1.412" transform="rotate(-40.153 124.23 -174.275)" fill="#fff"/><path id="Path_29701" data-name="Path 29701" d="M161.979 49.46c-9.6 18.828-25.324 30.219-34.926 25.512-9.6-4.8-9.7-23.912 0-42.74 9.6-18.828 25.324-30.219 34.926-25.418 9.7 4.707 9.7 23.817 0 42.645zm3.107-47.729c-11.3-5.178-28.9 8.378-39.351 30.313s-9.885 43.869 1.412 49.141c11.3 5.178 28.9-8.378 39.351-30.313S176.383 7 165.086 1.731z" transform="translate(-.76 -.035)" fill="url(#linear-gradient-5)"/><path id="Path_29702" data-name="Path 29702" d="M163.336 1.131C152.321-4.046 135 9.51 124.644 31.445c-10.261 21.935-9.7 43.869 1.412 49.141 11.014 5.178 28.336-8.378 38.692-30.313 10.261-22.029 9.6-43.963-1.412-49.141zm-3.013 47.729c-9.508 18.828-24.853 30.219-34.267 25.418-9.508-4.8-9.508-23.912 0-42.74S150.909 1.32 160.323 6.121c9.414 4.707 9.414 23.911 0 42.739z" transform="translate(-.704)" fill="url(#linear-gradient-6)"/><path id="Path_29703" data-name="Path 29703" d="M127.954 30.13c-.094.094-.188.094-.282.188l-1.977 1.224a12.256 12.256 0 00-.753 1.6l-2.542 5.837 1.883-1.506 1.977-1.412c.377-.659.659-1.412 1.036-2.071.847-1.789 1.883-3.389 2.824-4.989a11.933 11.933 0 00-2.165 1.13z" transform="translate(-1.002 -1.698)" fill="#f2a30a"/><path id="Path_29704" data-name="Path 29704" d="M126.489 32.812l-.094.094a13.453 13.453 0 00-1.883 1.318l-3.012 7.437 1.695-1.506c.659-.471 1.883-1.506 2.542-2.071.659-1.506.753-2.542 1.506-4.142l1.318-2.542a10.079 10.079 0 01-2.072 1.412z" transform="translate(-.949 -1.838)" fill="url(#linear-gradient-7)"/><path id="Path_29705" data-name="Path 29705" d="M146.748 63.2l-.847-.471-1.412-.847c-.753.188-2.636-.471-3.389-.282l2.165 1.6c.188.094.282.188.471.282.094.094.188.094.282.188l1.036.659c.094-.847 1.13-.941 1.695-1.13z" transform="translate(-2.098 -3.606)" fill="#0f3951"/><path id="Path_29706" data-name="Path 29706" d="M127.954 30.118c-.094.094-.188.094-.282.188l-1.977 1.224a9.593 9.593 0 00-1.506 2.071 16.4 16.4 0 00-1.789 5.366l1.883-1.506L127.2 35.3a17 17 0 002.542-2.918c.847-1.695.847-1.695.377-3.577l-2.165 1.318z" transform="translate(-1.002 -1.686)" fill="url(#linear-gradient-8)"/><path id="Path_29707" data-name="Path 29707" d="M148.072 63.945l-1.972-1.224-1.695-1.13c-.753.188-2.448-.282-3.2-.094l2.259 1.6a1.653 1.653 0 01.471.377c.094.094.188.094.282.188a9.922 9.922 0 001.036.659c1.031-.282 2.254-.188 2.819-.376z" transform="translate(-2.104 -3.599)" fill="#04688d"/></g></svg>