<svg xmlns="http://www.w3.org/2000/svg" id="php" width="141.52" height="71.11"><path d="M40.44 19.4h21q9.24.08 13.39 5.33t2.74 14.33a27.66 27.66 0 01-2.43 8.14 24.12 24.12 0 01-5 7.21 17.5 17.5 0 01-8.38 5.17 38.7 38.7 0 01-9.24 1.1H43.1l-3 14.88H29.24l11.2-56.16m9.16 8.93l-4.7 23.5a6 6 0 00.94.07h1.1a41.09 41.09 0 0012.53-1.48q5-1.65 6.73-11.44 1.41-8.22-2.82-9.47A34.93 34.93 0 0053 28.33c-.63.05-1.23.08-1.8.08h-1.68l.08-.08M90 4.44h10.81l-3.06 15h9.71q8 .17 11.91 3.29t2.35 11.91l-5.25 26.08h-11l5-24.91q.78-3.92-.47-5.56c-.84-1.1-2.64-1.64-5.41-1.64l-8.69-.08-6.41 32.15H78.68L90 4.44m43.28 14.96h21q9.24.08 13.39 5.33t2.74 14.33A27.34 27.34 0 01168 47.2a24.15 24.15 0 01-5 7.21 17.5 17.5 0 01-8.38 5.17 38.57 38.57 0 01-9.24 1.1H136l-3 14.88h-10.92l11.2-56.16m9.17 8.93l-4.7 23.5a5.86 5.86 0 00.94.07h1.09a41.09 41.09 0 0012.53-1.48q5-1.65 6.74-11.44 1.41-8.22-2.82-9.47a35 35 0 00-10.42-1.18c-.62.05-1.22.08-1.8.08h-1.64l.08-.08" transform="translate(-29.24 -4.44)"/></svg>