<svg xmlns="http://www.w3.org/2000/svg" width="69.587" height="68.35"><g id="phpbb-seeklogo.com" transform="translate(-38.6 -188.3)" fill="#2692d8"><path id="Path_29561" data-name="Path 29561" d="M147.018 218.753v-13.366c0-6.476-3.472-9.976-9.343-9.976a6.47 6.47 0 00-4.961 3.059v-6.532c0-2.122-1.323-3.638-4.024-3.638h-1.79v26.677c0 2.315 1.213 3.8 3.886 3.8h1.846v-12.949c0-4.024 2.315-5.374 4.106-5.374 2.48 0 4.52 1.488 4.52 5.209v9.315a3.475 3.475 0 003.858 3.776z" transform="translate(-63.965)"/><path id="Path_29563" data-name="Path 29563" d="M223.437 214.2c-8.047 0-11.437 5.236-11.437 12.815v13.807a3.874 3.874 0 003.969 3.941h1.791v-10.086a6.687 6.687 0 005.76 3.39c6.669 0 10.307-5.291 10.28-12.595 0-5.76-4.3-11.272-10.363-11.272zm-.138 18.823c-3.39 0-5.622-2.591-5.622-7.165 0-3.941 1.736-6.642 4.878-6.642 3.638 0 5.429 2.343 5.4 7.717.002 3.637-1.9 6.09-4.655 6.09z" transform="translate(-125.612 -18.762)"/><path id="Path_29569" data-name="Path 29569" d="M60.4 225.472c0-5.76-4.3-11.272-10.362-11.272-8.047 0-11.437 5.236-11.437 12.815v13.807a3.874 3.874 0 003.969 3.941h1.764v-10.086a6.8 6.8 0 005.787 3.417c6.641 0 10.279-5.294 10.279-12.622zm-16.177.386c0-3.941 1.736-6.642 4.878-6.642 3.638 0 5.429 2.343 5.429 7.717 0 3.638-1.9 6.091-4.685 6.091-3.391-.001-5.623-2.592-5.623-7.166z" transform="translate(0 -18.762)"/><path id="Path_29572" data-name="Path 29572" d="M400.739 207.007a5.985 5.985 0 004.6-6.146c0-4.74-3.941-7.661-9.48-7.661h-3.5a30.309 30.309 0 00-7.661 1.323v21.055c0 4.52 2.646 6.89 8.075 6.89h3.142c5.291 0 9.949-3.252 9.949-9.122a7.206 7.206 0 00-5.125-6.339zm-10.339-8.653a17.212 17.212 0 012.508-.3h2.15c2.177 0 4.492.8 4.492 3.335 0 2.508-2.122 3.5-4.713 3.528H390.4zm4.961 18.823H393c-1.433 0-2.535-.8-2.535-1.819v-5.98h4.6c3.39 0 4.961 1.02 4.961 4.161-.003 2.204-1.519 3.638-4.661 3.638z" transform="translate(-311.719 34.181)"/><path id="Path_29580" data-name="Path 29580" d="M320.665 213.346a7.206 7.206 0 00-5.126-6.339 5.985 5.985 0 004.6-6.146c0-4.74-3.941-7.661-9.48-7.661h-3.5a30.308 30.308 0 00-7.661 1.323v21.055c0 4.52 2.646 6.89 8.075 6.89v-.028h3.142c5.293 0 9.95-3.252 9.95-9.094zM305.2 198.354a17.211 17.211 0 012.508-.3h2.15c2.177 0 4.492.8 4.492 3.335 0 2.508-2.122 3.5-4.713 3.528H305.2zm4.961 18.823H307.8c-1.433 0-2.535-.8-2.535-1.819v-5.98h4.6c3.39 0 4.961 1.02 4.961 4.161-.003 2.204-1.519 3.638-4.661 3.638z" transform="translate(-250 34.182)"/></g></svg>