<svg xmlns="http://www.w3.org/2000/svg" width="81.153" height="67.943"><g id="Group_4423" data-name="Group 4423" transform="translate(-1581.782 -4797.44)"><g id="phpcoin" transform="translate(1581.782 4837.135)"><path id="Path_29583" data-name="Path 29583" d="M70.558 52.747H62c-4.052 0-5.919-.637-7.536-2.527-1.935-2.277-2.55-6.238-1.73-11.383.956-6.147 3.529-10.723 7.126-12.658a15.8 15.8 0 016.693-1.366h8.355l-.775 4.987h-7.764a7.058 7.058 0 00-5.51 2.117 13.159 13.159 0 00-2.277 6.375c-.615 3.939-.342 6.83.842 8.128a5.874 5.874 0 004.376 1.341h7.51zM96.786 28.66a17.394 17.394 0 01.914 10.518 17.963 17.963 0 01-5.327 10.974 13.364 13.364 0 01-8.583 2.755c-4.553 0-8.037-1.685-9.494-4.553A15.937 15.937 0 0173.45 39a18.441 18.441 0 015.282-11.383 13.979 13.979 0 019.107-2.937c4.212-.091 7.49 1.389 8.947 3.984zm-15.277 3.346a15.39 15.39 0 00-2.277 6.694c-1.025 6.534.524 9.494 4.94 9.494s6.83-2.982 7.809-9.425S91.5 29.3 87.11 29.3a6.83 6.83 0 00-5.623 2.686zm21.291-7.217h5.236l-4.417 27.958h-5.24zm9.9 27.958h-4.986l4.348-27.958h6.671l6.58 20.832 3.233-20.832h4.986l-4.348 27.958h-6.42l-6.83-20.49z" transform="translate(-52.378 -24.666)" fill="#ebb62f" opacity=".98" style="isolation:isolate"/></g><path id="Path_29584" data-name="Path 29584" d="M13.5 32.233c3.347 0 4.69.364 5.988 1.753a9.881 9.881 0 011.844 8.742 12.567 12.567 0 01-3.483 7.263 8.833 8.833 0 01-6.83 2.618H6.647L5.44 60.3H.5l4.348-28.067zM7.307 48.169h3.028c3.392 0 5.4-1.958 6.01-5.942s-.8-5.441-3.825-5.441H9.129zm23.336-15.936h5.145c5.145 0 6.83 2.277 6.1 7.741l-1.979 12.749h-4.94l1.8-11.611c.615-3.483 0-4.44-2.8-4.44H29.96l-2.481 16.051h-4.94l4.326-27.958h4.963zm24.816 0c3.347 0 4.69.364 5.988 1.753a9.881 9.881 0 011.844 8.742 12.841 12.841 0 01-3.483 7.263 8.879 8.879 0 01-6.83 2.618h-4.395L47.4 60.3h-4.94l4.348-28.071zm-6.193 15.936h3.028c3.392 0 5.4-1.958 6.01-5.942s-.8-5.441-3.825-5.441h-3.391zm16.142-9.357c.956-6.147-.82 5.145 0 0z" transform="translate(1594.217 4772.675)" fill="#ebb62f" opacity=".98" style="isolation:isolate"/></g></svg>