<svg xmlns="http://www.w3.org/2000/svg" width="68.409" height="83.516"><g id="phpformgenerator" transform="translate(-6.3 -.5)"><path id="Path_29585" data-name="Path 29585" d="M70.409 80.584l-5.481 3.432h-50.5c-3.184 0-7.947-1.3-7.947-11.379V.5h63.941z" transform="translate(.055)" fill="#e7e7e7"/><path id="Path_29586" data-name="Path 29586" d="M11.9 7.51h49.627v2.062H11.9zm0 7.79h49.627v2.062H11.9zm0 7.79h49.627v2.062H11.9zm0 7.8h49.627v2.062H11.9zm0 7.79h49.627v2.062H11.9zm0 7.79h49.627v2.062H11.9zm0 7.8h49.627v2.062H11.9zm60.157 12.092c2.218 5.089.274 11.927-3.184 15.516H12.761c8.117-3.915 6.172-11.862 4.58-15.516z" transform="translate(1.708 2.138)" fill="#bbbdbf"/><ellipse id="Ellipse_918" data-name="Ellipse 918" cx="32.049" cy="14.876" rx="32.049" ry="14.876" transform="translate(6.3 24.276)" fill="#5a6679"/><path id="Path_29587" data-name="Path 29587" d="M25.635 27.543c1.553 0 2.179.157 2.793.718a3.719 3.719 0 01.835 3.6 4.893 4.893 0 01-1.618 2.962 4.437 4.437 0 01-3.184 1.083h-2.023l-.561 3.145h-2.3l2.036-11.509zm-2.884 6.525h1.409a2.61 2.61 0 002.806-2.375c.261-1.5-.378-2.349-1.788-2.349H23.6zm10.87-6.525h2.349c2.44 0 3.249.861 2.884 3.145l-.913 5.22h-2.31l.835-4.763c.287-1.422 0-1.814-1.3-1.814h-1.858l-1.161 6.525h-2.31l2.035-11.406h2.3zm11.536 0c1.566 0 2.192.157 2.793.718a3.719 3.719 0 01.887 3.6 5.037 5.037 0 01-1.618 2.962 4.45 4.45 0 01-3.2 1.083h-2.046l-.561 3.145h-2.3l2.023-11.509zm-2.871 6.525H43.7a2.61 2.61 0 002.8-2.376c.261-1.5-.378-2.349-1.788-2.349h-1.578z" transform="translate(4.049 7.303)" fill="#fff"/></g></svg>