<svg xmlns="http://www.w3.org/2000/svg" width="99.732" height="92.462"><g id="_2eapWo.tif" data-name="2eapWo.tif" transform="translate(1064.77 148.633)"><g id="Group_4424" data-name="Group 4424" transform="translate(-1064.77 -148.633)"><path id="Path_29588" data-name="Path 29588" d="M-1063.843-38.461l-.927-1.309v-5.211c.36-.975.716-1.953 1.083-2.926q.967-2.565 1.945-5.126a9.375 9.375 0 01-.273 1.942 24.746 24.746 0 00-1.725 10.59 14.506 14.506 0 01-.103 2.04z" transform="translate(1064.77 103.034)" fill="#386a13"/><path id="Path_29589" data-name="Path 29589" d="M-1023.993-47.64a2.321 2.321 0 00-1.687-1.931c-.881-.811-1.98-.651-3.037-.68l.595-1.393a6.277 6.277 0 00-1.9-.659c-1.858.031-3.764-.225-5.54.6a2.072 2.072 0 00-2.736-.171c-.219.158-.622.063-.94.085l.1-1.958 1.021-1.875-1.2-2.9-.339-1.084-.056-4.672a13.333 13.333 0 002.043-7.841l-1.785 1.3c-1.01-3.718.125-7.069.876-10.461l-1.456-.225a4.4 4.4 0 01-.608-3.445c.161-1.268.2-2.552.292-3.829l.044-1.012c.182-.833.391-1.661.541-2.5.885-4.945 1.572-9.934 2.682-14.828 1.319-5.814 2.944-11.577 6.252-16.657.852-1.307 1.506-2.854 3.083-3.563a7.144 7.144 0 013.8 5.25c.254 1.776.561 3.548.936 5.3.451 2.108-.016 4.526 1.994 6.131.691.95 1.356 1.92 2.079 2.845a6.8 6.8 0 008.393 2.323 12.568 12.568 0 01.986 1.636c.718 1.721 1.371 3.47 2.049 5.208.194.688-.693 1.413.071 2.081q.3 1.572.593 3.145l-.439 17.661c-.374 2.808-.768 5.612-1.118 8.422-.467 3.745-.856 7.506-2.824 10.862-.059.1-.026.256-.036.383l1.185.235.128 1.2.026.163-1.894-.362-2.078 1.928-3.094.179a3.892 3.892 0 00-1.7 3.758c.9 1.01 1.7-.877 2.408.33l-1.471 1.017z" transform="translate(1053.305 138.475)" fill="#fccb03"/><path id="Path_29590" data-name="Path 29590" d="M-921.748-100.377c-1.267 1.252-2.472 2.576-3.819 3.736a49.664 49.664 0 01-4.518 3.438c-1.837 1.247-3.635 2.611-5.943 2.958a3.693 3.693 0 00-1.105.613l-.832.4.146.317 1.04-.321c2.312-.289 4.642-.482 6.928-.91a2.641 2.641 0 012.351.737c-1.1 2.4-3.082 3.866-5.019 5.216-5.164 3.6-10.459 7.012-15.7 10.505-.78.521-1.537 1.077-2.661 1.868l3.813.439c.455 1.612-.1 2.424-1.337 2.883a10.432 10.432 0 01-5.061.679c-1.359-.176-2.734-.231-4.5-.37l4.682 2.753c-.178 1.141-.733 1.486-1.489 1.466a126.345 126.345 0 01-4.92-.24c-.673-.045-1.339-.194-2.2-.325l1.43 2.2c-.569 1.207-1.486 1.1-2.347 1.084a12.86 12.86 0 01-6.528-2.277 49.2 49.2 0 01-4.655-3.635l-.02-1.445c1.354.679 2.7 1.366 4.067 2.024.1.048.295-.106.535-.2v-2.031l-1.46-1.8c1.077 0 2.066-.278 2.765.054 1.864.885 3.391.2 5.63-.683l-4.185-1.652c2.046-.629 3.6-.249 5.113-.405s3.024-.4 4.581-.619l1.44-1.544-3.924-.745c.214-.348.282-.589.383-.6a84.465 84.465 0 0014.14-3.823 12.108 12.108 0 005.474-3.017l-.706-1.422-3.833-.576.013.147h-3.941c1.679-.709 3.33-.951 4.207-2.473-1.374-1.759-3.525-1.357-5.059-2.2 5.848-2.286 11.749-4.564 17.623-6.912 1.211-.484 2.615-.879 3.012-2.42l-1.528-.843z" transform="translate(1021.48 125.616)" fill="#396f13"/><path id="Path_29591" data-name="Path 29591" d="M-983.184-134.369a22.246 22.246 0 012.666 5.909 17.021 17.021 0 01-2.112 12.85c-.71 1.174-1.594 2.242-2.336 3.4a3.241 3.241 0 00-.224 1.135c-.759.109-1.478.278-1.731 1.148l-1.515 1.08-1.206-.34.648-2.03-2.084-2.32.609-1.73.691 1.01.823-1.427c1.039-.881.146-2.055.537-3.012-.195-.348-.333-.656-.523-.928-1.157-1.66-2.521-3.032-4.678-3.265-.108-.316-.119-.787-.339-.925-1.79-1.125-3.619-2.188-5.436-3.27a6.892 6.892 0 00-1.271-1.053c-.922-.453-2.058-.44-2.735-1.447-.143-.213-.791-.088-1.206-.118l-.812-2.464 1.8-.781 1.993 1.277 1.413 1.05 4.379.353 3.856-.779 2.968-2.823 1.466-.074 2.409-1.705 1.318.655zm-.593 4.644l-.139-.931-.35.146.486.788a38.346 38.346 0 01.478 4.778c-.04 2.213-.353 4.422-.548 6.614.107-.039.336-.05.4-.157 1.576-2.734 1.543-5.674.934-8.625a11.688 11.688 0 00-1.261-2.614z" transform="translate(1036.46 142.442)" fill="#595c55"/><path id="Path_29592" data-name="Path 29592" d="M-1063-51.3a14.506 14.506 0 00.1-2.04 24.747 24.747 0 011.725-10.59 9.375 9.375 0 00.273-1.942.818.818 0 01.089-.282l.49-1.1-.022.027c.859-.129.521-.748.507-1.235a.741.741 0 01.086-.3l.424-.784.059-.252.521-1.1-.017.023c.732-.089.555-.62.524-1.08l-.022.026c.759-.064.572-.607.542-1.07l-.023.025c.766-.063.575-.606.539-1.072l-.023.025c.771-.051.579-.6.55-1.063l-.022.025c.76-.056.574-.6.548-1.063l-.021.025c.743-.056.568-.6.557-1.053l-.017.022.557-1.04-.006.011.543-1.027v-.006l.42-.621-.023.011.979-.157c.632.733-.476 1.822.7 2.33v4.158c-.606.828-.619 2.079-1.873 2.691l-.44-2.416a12.359 12.359 0 00-1.334 7.033 4.573 4.573 0 01-1.386 3.534c-.625 5.421-1.439 10.606.735 15.968l3.778 2.915v1.934l-1.163.186c-2.734-.681-6.625-3.918-7.734-6.44a.764.764 0 01-.018-.254c.025-.474.219-1.02-.5-1.174-.017-.088-.036-.175-.055-.263.027-.505.332-1.115-.489-1.3z" transform="translate(1063.925 115.874)" fill="#366c10"/><path id="Path_29593" data-name="Path 29593" d="M-1028.289-135.981c-1.577.709-2.231 2.256-3.083 3.563-3.308 5.08-4.933 10.843-6.252 16.657-1.11 4.894-1.8 9.884-2.681 14.828-.15.839-.359 1.666-.541 2.5l-1.009-.011-.006-1.043c1.071-.556.666-1.648.468-2.268-.754-2.359-.305-4.745-.454-7.109l.434-8.075a2.548 2.548 0 00.059-.258l.506-1.105-.021.025c.756-.076.57-.613.528-1.079l-.023.024c.775-.046.582-.6.552-1.06l-.021.024c.741-.04.573-.583.574-1.033l-.01.016.556-1.019v-.009l.418-.622-.021.017c.835.021.6-.561.582-1.026l-.022.025c.757-.039.578-.587.569-1.043l-.016.022c.718-.085.552-.613.535-1.066l-.017.022c.733-.094.556-.622.519-1.084l-.024.027c.871-.109.531-.733.519-1.217a.617.617 0 01.092-.309l.416-.781a1.083 1.083 0 00.062-.254c.691-.134.548-.644.5-1.111l-.023.027c.87-.117.527-.741.514-1.227a.691.691 0 01.093-.3l.423-.757a1.292 1.292 0 01.087-.283l.518-1.046.44-.745a.8.8 0 01.1-.294l.421-.617-.021.021c.793.028.6-.548.609-1l-.01.015.451-.609.068.113-.087-.1c.806.058.6-.53.625-.975l-.006.011.466-.6-.017.019.511-.554.106.09-.107-.083c.172-.177.343-.354.517-.531l.514-.522.094.111-.085-.113.513-.519.094.111-.085-.113.513-.519.094.111-.085-.113.513-.519.093.112-.083-.115.525-.516.105.092-.106-.086.54-.521-.01.013.614-.443c.44-.016.976.138 1.019-.577l-.022.02c.518.022 1.123.17 1.022-.7l1.073-.411.058.169.133 1.632-.033-.052c-.836-.018-.6.568-.586 1.033l.034-.02c-1.688.675-1.65 2.145-1.658 3.594a7.077 7.077 0 00-1.26.018 3.122 3.122 0 00-2.904 3.1z" transform="translate(1053.843 147.119)" fill="#396a0b"/><path id="Path_29594" data-name="Path 29594" d="M-996.214 17.448c-.7-1.206-1.507.681-2.408-.33a3.892 3.892 0 011.7-3.758l3.094-.179 2.078-1.928 1.894.362 1.448 1.639c4.445.117 4.867.5 6.229 5.591l-1.728.108-2.346-2.126-.265 2.38-3.778-.755.344 1.237-2.38.269-2.51-2.922c-.522-.109-.704.978-1.372.412z" transform="translate(1033.23 72.37)" fill="#43413e"/><path id="Path_29595" data-name="Path 29595" d="M-982.581-139.711l-2.968 2.823-3.856.779c.5-1.107-1.068-1.255-.946-2.749.774-1.872 1.51-4.337.432-6.577l-2.03-1.66a13.8 13.8 0 011.528-.448c.867-.153 1.747-.235 2.622-.347l1.023.247c.592 1.007 1.325.843 2.11.254l1.062.335c.317.947 1.048.445 1.63.466l-.01-.017c.188 1.068 1 .475 1.548.577l-.017-.014c.093.732.61.571 1.078.511l-.01-.009.554.556 1.035 1-.441.446c-2.752-1.244-3.505 1.127-4.743 2.419z" transform="translate(1030.035 148.278)" fill="#376c12"/><path id="Path_29596" data-name="Path 29596" d="M-983.09-7.611l-.128-1.2-1.184-.235c.009-.127-.024-.282.035-.383 1.968-3.356 2.357-7.116 2.824-10.862.35-2.81.744-5.615 1.118-8.422l.839.013c-.214 3.5-.37 7-.663 10.5-.171 2.036-.569 4.053-.853 6.081-.237 1.689-.436 3.395-1.988 4.508z" transform="translate(1026.437 91.434)" fill="#396f13"/><path id="Path_29597" data-name="Path 29597" d="M-975.959-44.807l-.839-.013.439-17.661.5 1.006c.161 1.071.678 2.24.414 3.194a14.834 14.834 0 00.1 7.75l.02 1.445a8.566 8.566 0 00-.479 1.528c-.107.909-.107 1.833-.155 2.751z" transform="translate(1022.809 107.54)" fill="#1f4205"/><path id="Path_29598" data-name="Path 29598" d="M-993.559-148.244c-.875.112-1.755.194-2.622.347a13.8 13.8 0 00-1.528.448c-2.055-.458-3.551.868-5.224 1.631.072-.766-.212-1.158-1.035-.985l-.058-.169c2.154-1.518 4.689-1.479 7.142-1.649a17.778 17.778 0 013.325.377z" transform="translate(1035.797 148.633)" fill="#52772a"/><path id="Path_29599" data-name="Path 29599" d="M-970.052-87.516c.253-.87.972-1.039 1.731-1.148l6.606.687-1.478.513a1.328 1.328 0 00-1.632.987z" transform="translate(1019.591 120.029)" fill="#376c12"/><path id="Path_29600" data-name="Path 29600" d="M-1043.411-90.934l-.434 8.075h-.523c-1.179-.508-.071-1.6-.7-2.33l-.979.157z" transform="translate(1055.841 121.112)" fill="#386a13"/><path id="Path_29601" data-name="Path 29601" d="M-964.254-136.639l-.629-.63-.847-2.7.441-.446 1.98 1.981z" transform="translate(1017.53 144.712)" fill="#376c12"/><path id="Path_29602" data-name="Path 29602" d="M-979.947-147.163c-.785.589-1.518.753-2.11-.254z" transform="translate(1025.318 148.053)" fill="#52772a"/><path id="Path_29603" data-name="Path 29603" d="M-974.363-145.825c-.582-.021-1.314.481-1.63-.466z" transform="translate(1022.425 147.516)" fill="#52772a"/><path id="Path_29604" data-name="Path 29604" d="M-971.346-144.855c-.55-.1-1.36.491-1.548-.577z" transform="translate(1020.947 147.106)" fill="#52772a"/><path id="Path_29605" data-name="Path 29605" d="M-1007.009-144.674c.1.874-.5.726-1.022.7z" transform="translate(1037.707 146.745)" fill="#386a13"/><path id="Path_29606" data-name="Path 29606" d="M-968.888-143.843c-.469.06-.985.221-1.078-.511z" transform="translate(1019.55 146.592)" fill="#52772a"/><path id="Path_29607" data-name="Path 29607" d="M-1008.917-143.367c-.043.715-.579.562-1.019.577z" transform="translate(1038.615 146.121)" fill="#386a13"/><path id="Path_29608" data-name="Path 29608" d="M-1030.491-112.767c.012.484.352 1.108-.519 1.217z" transform="translate(1048.667 131.526)" fill="#386a13"/><path id="Path_29609" data-name="Path 29609" d="M-1025.358-124.32l-.518 1.046z" transform="translate(1046.218 137.036)" fill="#386a13"/><path id="Path_29610" data-name="Path 29610" d="M-1031.438-110.491c.037.462.214.99-.519 1.084z" transform="translate(1049.119 130.44)" fill="#386a13"/><path id="Path_29611" data-name="Path 29611" d="M-1032.413-108.462c.017.453.182.981-.535 1.066z" transform="translate(1049.592 129.472)" fill="#386a13"/><path id="Path_29612" data-name="Path 29612" d="M-1033.437-106.466c.009.457.188 1-.569 1.043z" transform="translate(1050.096 128.52)" fill="#386a13"/><path id="Path_29613" data-name="Path 29613" d="M-1034.493-104.518c.023.465.254 1.047-.582 1.026z" transform="translate(1050.606 127.591)" fill="#386a13"/><path id="Path_29614" data-name="Path 29614" d="M-1022.482-129.354c-.011.449.184 1.025-.609 1z" transform="translate(1044.89 139.437)" fill="#386a13"/><path id="Path_29615" data-name="Path 29615" d="M-1036.349-101.382l-.556 1.019z" transform="translate(1051.479 126.095)" fill="#386a13"/><path id="Path_29616" data-name="Path 29616" d="M-1028.427-117.461c.045.467.188.977-.5 1.111z" transform="translate(1047.675 133.765)" fill="#386a13"/><path id="Path_29617" data-name="Path 29617" d="M-1037.41-99.465c0 .45.167.994-.574 1.033z" transform="translate(1051.994 125.181)" fill="#386a13"/><path id="Path_29618" data-name="Path 29618" d="M-1038.447-97.535c.03.464.223 1.014-.552 1.06z" transform="translate(1052.478 124.26)" fill="#386a13"/><path id="Path_29619" data-name="Path 29619" d="M-1039.437-95.555c.042.466.228 1-.528 1.079z" transform="translate(1052.939 123.316)" fill="#386a13"/><path id="Path_29620" data-name="Path 29620" d="M-1040.386-93.54l-.506 1.105z" transform="translate(1053.381 122.355)" fill="#386a13"/><path id="Path_29621" data-name="Path 29621" d="M-1058.322-55.68l-.49 1.1z" transform="translate(1061.928 104.296)" fill="#386a13"/><path id="Path_29622" data-name="Path 29622" d="M-1020.492-132.329c-.021.445.18 1.032-.626.975z" transform="translate(1043.949 140.856)" fill="#386a13"/><path id="Path_29623" data-name="Path 29623" d="M-1027.5-119.756c.013.486.356 1.11-.514 1.227z" transform="translate(1047.237 134.859)" fill="#386a13"/><path id="Path_29624" data-name="Path 29624" d="M-1057.41-57.991c.014.487.352 1.106-.507 1.235z" transform="translate(1061.501 105.399)" fill="#386a13"/><path id="Path_29625" data-name="Path 29625" d="M-1055.338-62.634l-.521 1.1z" transform="translate(1060.52 107.613)" fill="#386a13"/><path id="Path_29626" data-name="Path 29626" d="M-1054.372-64.654c.031.46.208.99-.524 1.08z" transform="translate(1060.06 108.577)" fill="#386a13"/><path id="Path_29627" data-name="Path 29627" d="M-1053.395-66.65c.03.463.218 1.005-.541 1.07z" transform="translate(1059.602 109.529)" fill="#386a13"/><path id="Path_29628" data-name="Path 29628" d="M-1052.406-68.651c.036.465.227 1.009-.539 1.072z" transform="translate(1059.13 110.483)" fill="#386a13"/><path id="Path_29629" data-name="Path 29629" d="M-1047.312-78.474l-.543 1.027z" transform="translate(1056.702 115.169)" fill="#386a13"/><path id="Path_29630" data-name="Path 29630" d="M-1048.351-76.532l-.557 1.04z" transform="translate(1057.204 114.242)" fill="#386a13"/><path id="Path_29631" data-name="Path 29631" d="M-1051.409-70.636c.029.464.221 1.013-.55 1.063z" transform="translate(1058.659 111.43)" fill="#386a13"/><path id="Path_29632" data-name="Path 29632" d="M-1049.384-74.586c.01.454.186 1-.557 1.053z" transform="translate(1057.697 113.314)" fill="#386a13"/><path id="Path_29633" data-name="Path 29633" d="M-1050.4-72.62c.026.462.212 1.006-.549 1.063z" transform="translate(1058.178 112.376)" fill="#386a13"/><path id="Path_29634" data-name="Path 29634" d="M-1018.563-134.481l-.511.554z" transform="translate(1042.974 141.883)" fill="#386a13"/><path id="Path_29635" data-name="Path 29635" d="M-1017.586-135.483l-.514.531z" transform="translate(1042.509 142.361)" fill="#386a13"/><path id="Path_29636" data-name="Path 29636" d="M-1056.358-60.059l-.424.784z" transform="translate(1060.96 106.385)" fill="#386a13"/><path id="Path_29637" data-name="Path 29637" d="M-1019.468-133.458l-.466.6z" transform="translate(1043.384 141.395)" fill="#386a13"/><path id="Path_29638" data-name="Path 29638" d="M-1016.6-136.481l-.512.523z" transform="translate(1042.036 142.837)" fill="#386a13"/><path id="Path_29639" data-name="Path 29639" d="M-1015.6-137.478l-.513.519z" transform="translate(1041.561 143.312)" fill="#386a13"/><path id="Path_29640" data-name="Path 29640" d="M-1021.493-130.491l-.451.609z" transform="translate(1044.343 139.98)" fill="#386a13"/><path id="Path_29641" data-name="Path 29641" d="M-1014.6-138.474l-.513.519z" transform="translate(1041.086 143.787)" fill="#386a13"/><path id="Path_29642" data-name="Path 29642" d="M-1013.605-139.47l-.512.519z" transform="translate(1040.61 144.262)" fill="#386a13"/><path id="Path_29643" data-name="Path 29643" d="M-1035.416-102.588l-.418.622z" transform="translate(1050.968 126.67)" fill="#386a13"/><path id="Path_29644" data-name="Path 29644" d="M-1023.434-127.488l-.421.617z" transform="translate(1045.254 138.547)" fill="#386a13"/><path id="Path_29645" data-name="Path 29645" d="M-1024.444-125.746l-.44.745z" transform="translate(1045.745 137.716)" fill="#386a13"/><path id="Path_29646" data-name="Path 29646" d="M-1012.595-140.461l-.525.516z" transform="translate(1040.134 144.735)" fill="#386a13"/><path id="Path_29647" data-name="Path 29647" d="M-1011.577-141.445l-.54.521z" transform="translate(1039.656 145.204)" fill="#386a13"/><path id="Path_29648" data-name="Path 29648" d="M-1010.49-142.266l-.614.442z" transform="translate(1039.172 145.596)" fill="#386a13"/><path id="Path_29649" data-name="Path 29649" d="M-967.369-142.838l-.554-.556z" transform="translate(1018.576 146.134)" fill="#52772a"/><path id="Path_29650" data-name="Path 29650" d="M-1026.428-121.779l-.423.757z" transform="translate(1046.683 135.824)" fill="#386a13"/><path id="Path_29651" data-name="Path 29651" d="M-1029.427-114.852l-.415.781z" transform="translate(1048.11 132.52)" fill="#386a13"/><path id="Path_29652" data-name="Path 29652" d="M-1046.39-79.674l-.42.621z" transform="translate(1056.203 115.741)" fill="#386a13"/><path id="Path_29653" data-name="Path 29653" d="M-1041.856-53.614c-.092 1.277-.131 2.561-.292 3.829a4.4 4.4 0 00.608 3.445l1.456.225c-.752 3.392-1.886 6.743-.876 10.461l1.784-1.3a13.331 13.331 0 01-2.043 7.841 4.715 4.715 0 00.056 4.672l.339 1.084-1.076.649.016-.049c.12-.491.272-1-.459-1.146l-.03-.254a21.2 21.2 0 00-.114-2.217c-.245-1.612-.56-3.214-.847-4.82a34.944 34.944 0 01-.493-4.037c-.04-4.041-.245-8.1.475-12.109.007-.9.059-1.8 0-2.7-.023-.33-.314-.641-.482-.961l-.006-2.063z" transform="translate(1054.808 103.311)" fill="#396a0b"/><path id="Path_29654" data-name="Path 29654" d="M-1037.919 16.627c.318-.021.721.074.94-.085a2.072 2.072 0 012.736.171l-.307 4.023.366 1.1-.046.031-2.74.533c-.9-.426-.99-1.273-.988-2.153.004-1.204.025-2.412.039-3.62z" transform="translate(1051.981 70.058)" fill="#4c4e47"/><path id="Path_29655" data-name="Path 29655" d="M-1044.367-10.741c.287 1.606.6 3.207.847 4.82a21.2 21.2 0 01.114 2.217l-1.434-3.8-1.211-1.1 1.163-.186v-1.934c.174-.009.347-.014.521-.017z" transform="translate(1055.841 82.861)" fill="#386a13"/><path id="Path_29656" data-name="Path 29656" d="M-1040.091 4.891l1.076-.649 1.2 2.9-1.021 1.875z" transform="translate(1052.999 75.715)" fill="#386a13"/><path id="Path_29657" data-name="Path 29657" d="M-1040.938 3.2c.731.151.578.655.459 1.146z" transform="translate(1053.403 76.213)" fill="#386a13"/><path id="Path_29658" data-name="Path 29658" d="M-1061.836-21.7c.722.154.528.7.5 1.174z" transform="translate(1063.371 88.091)" fill="#386a13"/><path id="Path_29659" data-name="Path 29659" d="M-1062.875-24.7c.82.189.515.8.488 1.3z" transform="translate(1063.866 89.519)" fill="#386a13"/><path id="Path_29660" data-name="Path 29660" d="M-1024.287 18.165c-.188.156-.556.339-.538.464a4.558 4.558 0 01-1.375 3.58l-1.818-1.378-1.442 1.007h-1.618l-.367-1.1.308-4.023c1.776-.824 3.682-.568 5.54-.6a6.275 6.275 0 011.9.659z" transform="translate(1048.874 70.059)" fill="#43413e"/><path id="Path_29661" data-name="Path 29661" d="M-968.471-92.052a1.328 1.328 0 011.632-.987l.056.79c8.1 1.851 15.534-1.066 23.211-2.853l-.348-1.108 4.256-4.14h8.244l1.528.843c-.4 1.541-1.8 1.936-3.012 2.42-5.874 2.348-11.775 4.626-17.623 6.912 1.534.848 3.685.445 5.059 2.2-.877 1.522-2.528 1.764-4.207 2.473h3.941l-.013-.147 3.833.576.706 1.422a12.107 12.107 0 01-5.474 3.017 84.461 84.461 0 01-14.14 3.823c-.1.015-.169.256-.383.6l3.924.745-1.44 1.544c-1.557.214-3.064.463-4.581.619s-3.067-.224-5.113.405l4.185 1.652c-2.239.883-3.766 1.569-5.63.683-.7-.332-1.688-.054-2.765-.054l1.46 1.8v2.031c-.24.1-.436.25-.535.2-1.364-.658-2.714-1.345-4.068-2.024a14.834 14.834 0 01-.1-7.75c.264-.954-.254-2.123-.414-3.194l4.151 1.094c-1.039-2.389-2.905-3.671-4.492-5.194-.139-.133-.5-.039-.752-.051-.764-.668.123-1.393-.071-2.081 1.1.61 2.191 1.233 3.3 1.828a16.773 16.773 0 002.5 1.239c1.166.393 1.721-.118 2.105-1.762a13.283 13.283 0 00-1.045-1.082 10.316 10.316 0 01-1.227-.861 7.88 7.88 0 01-.822-1.465 12.209 12.209 0 008.263-.252c.3-1.231-.5-1.735-1.179-2.207-.928-.628-1.949-1.137-2.92-1.704z" transform="translate(1023.237 125.603)" fill="#49831e"/><path id="Path_29662" data-name="Path 29662" d="M-1006.273-131.324l-1.8.781.812 2.464-.5.767.515.759c.318 3.231.472 6.489.993 9.687.709 4.349 3.474 7.081 7.513 8.695l2.886-1.119a2.523 2.523 0 00.131.43l-.642 1.033a6.8 6.8 0 01-8.393-2.323c-.722-.925-1.388-1.9-2.078-2.845-.074-.76-.112-1.526-.228-2.28a38.536 38.536 0 01-.707-4.325 18.537 18.537 0 00-3.22-10.321l1.572-1.863 1.578-.459a1.981 1.981 0 00.5.258 9.6 9.6 0 001 .09 1.147 1.147 0 00.053.269 1.231 1.231 0 01.015.302z" transform="translate(1039.119 140.814)" fill="#e7e9e5"/><path id="Path_29663" data-name="Path 29663" d="M-983.028-87.465l.642-1.033.932-1.059 1.952 1.429-.356 2.26a6.5 6.5 0 004.673 3.144 7.859 7.859 0 00.822 1.466 10.316 10.316 0 001.227.861 13.281 13.281 0 011.045 1.082c-.384 1.644-.939 2.155-2.105 1.762a16.767 16.767 0 01-2.5-1.239c-1.107-.595-2.2-1.218-3.3-1.828-.678-1.738-1.331-3.486-2.049-5.208a12.553 12.553 0 00-.983-1.637z" transform="translate(1025.781 120.455)" fill="#589927"/><path id="Path_29664" data-name="Path 29664" d="M-1011.767-132.309l-1.572 1.864a18.535 18.535 0 013.22 10.321 38.537 38.537 0 00.707 4.325c.116.754.154 1.519.228 2.28-2.01-1.6-1.543-4.023-1.994-6.131a78.129 78.129 0 01-.936-5.3 7.145 7.145 0 00-3.8-5.25 3.122 3.122 0 012.9-3.1 7.078 7.078 0 011.26-.018l.154.152z" transform="translate(1041.466 141.342)" fill="#232d12"/><path id="Path_29665" data-name="Path 29665" d="M-977.09-68.514c.256.012.613-.082.752.051 1.586 1.523 3.453 2.8 4.492 5.194L-976-64.363l-.5-1.006q-.293-1.572-.59-3.145z" transform="translate(1022.949 110.428)" fill="#589927"/><path id="Path_29666" data-name="Path 29666" d="M-1041.818-54.546l-1.987.556v-1.444l1.023-.134 1.009.011z" transform="translate(1054.77 104.243)" fill="#1f4205"/><path id="Path_29667" data-name="Path 29667" d="M-1039.27-2.092a4.716 4.716 0 01-.055-4.672z" transform="translate(1052.915 80.964)" fill="#386a13"/><path id="Path_29668" data-name="Path 29668" d="M-903.906-79.435l-1.04.321-.146-.317.832-.4z" transform="translate(988.607 115.816)" fill="#fefefe"/><path id="Path_29669" data-name="Path 29669" d="M-992.441-104.1l-2.886 1.119c-4.039-1.614-6.8-4.346-7.513-8.695-.521-3.2-.676-6.456-.993-9.687l1.243.133c.9 1.053 1.572 1.936 2.339 2.732 1.5 1.557 3.038 3.08 4.586 4.591 2.047 2 4.339 3.546 7.346 3.655l.122 1.381-.823 1.427-.691-1.01-.609 1.73-2.065 1.525z" transform="translate(1035.705 135.626)" fill="#4c4e47"/><path id="Path_29670" data-name="Path 29670" d="M-1003.447-144.825c1.673-.763 3.169-2.089 5.224-1.631l2.03 1.66c1.077 2.24.342 4.705-.432 6.577-.122 1.494 1.447 1.642.946 2.749l-4.379-.352-1.413-1.05 1.15-1.215v-.494l-.082-.543c1.315-.881 1.076-2.444 1.617-3.679-.72-1.112-1.807-1-2.973-.956l-.885 1.518-.091.028-.506-1.169-.227 1.167.022-.022-.957 1.05h-.6l-.1-1.026.169-1-.034.02.586-1.033.033.052z" transform="translate(1036.31 147.639)" fill="#f2f7eb"/><path id="Path_29671" data-name="Path 29671" d="M-988.667-110.272l-.122-1.381c-3.007-.109-5.3-1.656-7.346-3.655a213.454 213.454 0 01-4.586-4.591c-.767-.8-1.443-1.678-2.339-2.732l-1.243-.133-.515-.759.5-.767c.415.03 1.063-.095 1.206.118.677 1.007 1.813.993 2.735 1.447a6.892 6.892 0 011.271 1.053l-.955.824c1.88 1.663 4.638 2.43 5.47 5.743l1.26-2.372c2.157.233 3.522 1.6 4.678 3.265.19.273.328.58.523.928-.391.957.502 2.132-.537 3.012z" transform="translate(1036.174 137.027)" fill="#191918"/><path id="Path_29672" data-name="Path 29672" d="M-966.723-85.431c.975.567 1.991 1.076 2.912 1.72.675.472 1.477.975 1.179 2.207a12.208 12.208 0 01-8.263.252l-3.138-3.133.566-1.006 1.515-1.08z" transform="translate(1021.489 118.982)" fill="#589927"/><path id="Path_29673" data-name="Path 29673" d="M-970.055-139.878l.847 2.7-1.318-.655-2.409 1.705-1.466.074-.4-1.4c1.241-1.297 1.994-3.668 4.746-2.424z" transform="translate(1021.855 144.624)" fill="#f2f7eb"/><path id="Path_29674" data-name="Path 29674" d="M-988.994-115.08l-1.26 2.372c-.832-3.313-3.59-4.081-5.47-5.743l.955-.824c1.817 1.082 3.646 2.145 5.436 3.27.22.138.233.605.339.925z" transform="translate(1031.837 134.63)" fill="#9b8f7f"/><path id="Path_29675" data-name="Path 29675" d="M-964.108-124.319a11.693 11.693 0 011.26 2.614c.609 2.95.642 5.891-.934 8.625-.062.107-.291.118-.4.157.195-2.193.507-4.4.548-6.614a38.369 38.369 0 00-.478-4.778z" transform="translate(1016.791 137.036)" fill="#9b8f7f"/><path id="Path_29676" data-name="Path 29676" d="M-977.29-88.683l-.566 1.006-1.536-.011.356-2.26-1.952-1.429-.933 1.059a2.532 2.532 0 01-.131-.43l.055-1.1 2.065-1.525 2.084 2.32-.649 2.03z" transform="translate(1025.315 122.275)" fill="#386a13"/><path id="Path_29677" data-name="Path 29677" d="M-998.839-130.815l-1.15 1.215-1.993-1.277a1.238 1.238 0 00-.013-.3l.551-.128 1.084.084z" transform="translate(1034.828 140.366)" fill="#d1dcc4"/><path id="Path_29678" data-name="Path 29678" d="M-964.491-125.165l-.486-.788.35-.146.139.931z" transform="translate(1017.171 137.885)" fill="#9b8f7f"/><path id="Path_29679" data-name="Path 29679" d="M-1047.531-56.521l-1.023.134v1.444l.006 2.063-2.782.892 1.292 3.6 1.975-.832c-.72 4.014-.516 8.068-.475 12.109a34.917 34.917 0 00.493 4.037c-.174 0-.347.008-.52.014l-3.778-2.915c-2.174-5.362-1.361-10.547-.735-15.968a4.572 4.572 0 001.386-3.534h1.885l.4-2.085h1.872z" transform="translate(1059.519 105.195)" fill="#193604"/><path id="Path_29680" data-name="Path 29680" d="M-1045.67-66.119h-1.872l-.4 2.085h-1.885a12.36 12.36 0 011.334-7.033l.44 2.416c1.254-.612 1.267-1.862 1.873-2.691V-75.5h.523c.148 2.365-.3 4.75.453 7.109.204.624.604 1.716-.466 2.272z" transform="translate(1057.652 113.75)" fill="#1f4205"/><path id="Path_29681" data-name="Path 29681" d="M-1006.291-140.179l-.169 1-.424 1.587a.911.911 0 01-.91 1.156l-.154-.152c.007-1.446-.031-2.912 1.657-3.591z" transform="translate(1037.668 144.601)" fill="#232d12"/><path id="Path_29682" data-name="Path 29682" d="M-1002.88-144.188l-.9.646-.133-1.632c.821-.172 1.105.221 1.033.986z" transform="translate(1035.744 147.002)" fill="#386a13"/><path id="Path_29683" data-name="Path 29683" d="M-1004.3-142.115l-.586 1.033c-.014-.465-.247-1.051.586-1.033z" transform="translate(1036.225 145.524)" fill="#232d12"/><path id="Path_29684" data-name="Path 29684" d="M-1045.846-44.947l-1.975.832-1.292-3.6 2.783-.892c.168.32.459.631.482.961.061.896.009 1.799.002 2.699z" transform="translate(1057.302 100.922)" fill="#1f4205"/><path id="Path_29685" data-name="Path 29685" d="M-1003.468-133.345a9.579 9.579 0 01-1-.09 1.978 1.978 0 01-.5-.258l.023-1.584.231.01.231-.02.56.448.567.572h.006z" transform="translate(1036.247 142.268)" fill="#595c55"/><path id="Path_29686" data-name="Path 29686" d="M-1006.387-135.305l-.023 1.584-1.577.459.174-.865a.911.911 0 00.91-1.156 1.8 1.8 0 01.475-.062z" transform="translate(1037.686 142.295)" fill="#9b8f7f"/><path id="Path_29687" data-name="Path 29687" d="M-1002.1-132.453l.113-.921.934-.043-.443 1.106-.551.128a1.141 1.141 0 01-.053-.27z" transform="translate(1034.876 141.375)" fill="#9b8f7f"/><path id="Path_29688" data-name="Path 29688" d="M-976.967-82.5l1.536.011 3.138 3.133a6.5 6.5 0 01-4.674-3.144z" transform="translate(1022.89 117.09)" fill="#49831e"/><path id="Path_29689" data-name="Path 29689" d="M-1000.407-139.723l.886-1.518c1.166-.048 2.253-.156 2.973.956-.541 1.235-.3 2.8-1.617 3.679-.321-.163-.645-.321-.964-.49s-.656-.361-.983-.542z" transform="translate(1034.07 145.12)" fill="#191918"/><path id="Path_29690" data-name="Path 29690" d="M-1001.159-138.314l.295 2.086a1.3 1.3 0 00-.132.475l-.934.043h-.006l-.026-2.6-.022.022h.733z" transform="translate(1034.822 143.711)" fill="#d9e4cc"/><path id="Path_29691" data-name="Path 29691" d="M-1000.5-133.851a1.3 1.3 0 01.132-.475c.327.181.653.367.983.542s.642.327.963.49l.082.543-1.519.091-1.084-.084z" transform="translate(1034.325 141.809)" fill="#595c55"/><path id="Path_29692" data-name="Path 29692" d="M-1003.412-138.306l.026 2.6-.566-.572-.56-.448-.231.02-.231-.01-.041-.04a1.05 1.05 0 01.051-.5h.6z" transform="translate(1036.273 143.707)" fill="#9b8f7f"/><path id="Path_29693" data-name="Path 29693" d="M-998.869-131.224l1.519-.091v.494z" transform="translate(1033.337 140.373)" fill="#fefefe"/><path id="Path_29694" data-name="Path 29694" d="M-1005.388-137.235a1.054 1.054 0 00-.051.5 1.8 1.8 0 00-.475.062l.424-1.587z" transform="translate(1036.697 143.686)" fill="#386a13"/><path id="Path_29695" data-name="Path 29695" d="M-1001.25-139.326h-.733l.227-1.167z" transform="translate(1034.822 144.751)" fill="#9b8f7f"/><path id="Path_29696" data-name="Path 29696" d="M-1004.044-135.288l.56.448z" transform="translate(1035.805 142.268)" fill="#f2f7eb"/></g></g></svg>