<svg xmlns="http://www.w3.org/2000/svg" xmlns:xlink="http://www.w3.org/1999/xlink" id="Artwork_2" data-name="Artwork 2" width="82.471" height="82.306"><defs><linearGradient id="linear-gradient" x1=".297" y1=".792" x2=".838" y2=".256" gradientUnits="objectBoundingBox"><stop offset="0" stop-color="#fff" stop-opacity="0"/><stop offset="1" stop-color="#192a37"/></linearGradient><linearGradient id="linear-gradient-2" x1=".727" y1=".26" x2=".235" y2=".807" xlink:href="#linear-gradient"/></defs><path id="Path_17" data-name="Path 17" d="M82.436 41.194a41.1 41.1 0 01-5.07 19.7l-.242.483c-.725 1.208-1.451 2.3-2.176 3.505l-.362.483a41.1 41.1 0 01-33.361 17.044h-2.42A41.214 41.214 0 015.083 21.372l.242-.483A39.765 39.765 0 017.5 17.505l.362-.362A41.214 41.214 0 0181.953 34.9a42.18 42.18 0 01.483 6.285z" transform="translate(.034 -.103)" fill="#1a2a36"/><path id="Path_18" data-name="Path 18" d="M50.37 32.723l2.78-2.78.6-.6 1.934-1.934A10.878 10.878 0 0057.743 21a11.964 11.964 0 00-.121-1.572 11 11 0 00-21.756-.121 10.032 10.032 0 00-.121 1.572 11 11 0 001.816 6.164l5.56 5.56-1.934 1.934-1.328 1.328-5.809 5.808L6.98 14.835l-.362.362a39.763 39.763 0 00-2.176 3.384l-.242.485 26.224 26.348-2.417 2.416-3.5 3.5a11.12 11.12 0 00-1.693 5.809 11.361 11.361 0 00.121 1.693 11 11 0 0021.875-.242 10.516 10.516 0 00.121-1.451 10.878 10.878 0 00-2.3-6.768l-1.812-1.812-3.019-3.022 3.384-3.384 2.416-2.417 3.384-3.384L73.7 63.3l.362-.483c.725-1.087 1.451-2.3 2.176-3.505l.242-.483zM38.525 53.636a5.9 5.9 0 11-9.792.846l1.934-1.934 3.384-3.384zm3.142-29.611a5.945 5.945 0 1110.031.121l-1.812 1.812-3.142 3.132z" transform="translate(.917 1.961)" fill="#fff"/><path id="Path_19" data-name="Path 19" d="M26.839 39.3l3.505 3.746-5.2 5.2-3.744-3.635z" transform="translate(4.507 8.077)" opacity=".8" fill="url(#linear-gradient)"/><path id="Path_20" data-name="Path 20" d="M43.027 30.265l-3.627-3.63 4.956-4.835 3.627 3.627z" transform="translate(8.263 4.425)" opacity=".8" fill="url(#linear-gradient-2)"/></svg>