<svg xmlns="http://www.w3.org/2000/svg" width="70.777" height="95.682"><g id="F6RQeR" transform="translate(841.279 -51.841)"><g id="Group_4426" data-name="Group 4426" transform="translate(-841.279 51.841)"><path id="Path_29710" data-name="Path 29710" d="M-797.3 51.841c1.8.562 3.6 1.133 5.406 1.683 17.117 5.213 26.516 21.168 22.194 38.693-4.276 17.337-14.6 30.236-30.707 39.21a78.909 78.909 0 01-3.585-7.1 2.965 2.965 0 011.092-2.614c14.638-8.823 17.094-22.572 15.247-37.914-1.2-9.969-10.014-13.676-18.37-13.012-8.153.648-14.515 4.432-18.688 11.71-.76 1.325-2.525 3.133-3.556 2.974-1.249-.194-2.664-2.07-3.212-3.519a116.133 116.133 0 01-3.832-12.422c-.224-.885.513-2.326 1.245-3.095 7.142-7.5 15.563-12.715 26.04-14.1.153-.02.27-.325.4-.5h10.326z" transform="translate(839.43 -51.841)" fill="#f27c43"/><path id="Path_29712" data-name="Path 29712" d="M-808.766 141.142c-22.926 3.893-37.927-20.168-30.672-48.506 3.444 4.492 6.674 8.65 9.811 12.877a3.117 3.117 0 01.2 2c-1.7 14.177 5.648 23.372 16.723 30.557 1.22.79 2.304 1.79 3.938 3.072z" transform="translate(841.279 -64.563)" fill="#515151"/><path id="Path_29713" data-name="Path 29713" d="M-769.726 181.884c-5.326.019-9.215-3.511-9.306-8.446-.106-5.816 5.685-11.355 11.932-11.41 5.39-.048 9.505 3.74 9.453 8.7-.062 5.972-5.653 11.133-12.079 11.156z" transform="translate(821.868 -86.203)" fill="#f27c44"/></g></g></svg>