<svg xmlns="http://www.w3.org/2000/svg" width="65" height="65"><circle cx="32.5" cy="32.5" r="32" fill="#18b99b"/><path d="M8.06 28.23V28h4.12a3.1 3.1 0 011.88.5 1.67 1.67 0 01.75 1.5 2.2 2.2 0 01-.94 1.9 3.71 3.71 0 01-2.22.7h-1v2.82a.59.59 0 00.38.58 3.36 3.36 0 001 .14v.27h-4v-.27A2.94 2.94 0 009 36a.62.62 0 00.39-.62V29a.59.59 0 00-.39-.59 3.72 3.72 0 00-.94-.18zm2.64 3.95h.6a2.48 2.48 0 00.89-.14 2 2 0 00.6-.35 1.81 1.81 0 00.33-.5 2.24 2.24 0 00.16-.5 2 2 0 000-.43 2.33 2.33 0 00-.4-1.4 1.62 1.62 0 00-1.38-.57h-.8zm4.3-4.61v-.24l2.2-.13.09.08v4.41l.23-.23.27-.24a1.94 1.94 0 01.29-.21 2.16 2.16 0 01.34-.17 1.48 1.48 0 01.41-.12 2.7 2.7 0 01.49 0 1.46 1.46 0 011.24.5 2.26 2.26 0 01.4 1.43v2.85a.57.57 0 00.33.56 1.7 1.7 0 00.55.13v.25h-2.93v-.24a3.83 3.83 0 00.59-.1.5.5 0 00.34-.56v-3a1.43 1.43 0 00-.3-1 .9.9 0 00-.73-.36 1.64 1.64 0 00-1 .28 1.76 1.76 0 00-.54.58v3.37a.55.55 0 00.34.56 1.42 1.42 0 00.58.15v.25h-2.92v-.25a2.09 2.09 0 00.55-.08.51.51 0 00.33-.56v-7a.94.94 0 00-.33-.72 2 2 0 00-.82-.19zM22 39a3.11 3.11 0 00.68-.11c.21-.06.32-.26.32-.58V32a.78.78 0 00-.32-.62 1.37 1.37 0 00-.68-.22v-.19l2-.18.09.08v.63h.05a2.19 2.19 0 011.66-.8 2.39 2.39 0 011.87.83 3.14 3.14 0 01.76 2.17 2.89 2.89 0 01-2.86 2.9 2.32 2.32 0 01-1.42-.39h-.05v2a.55.55 0 00.35.58 2.49 2.49 0 00.85.18v.25H22zm2.13-3.65a1.51 1.51 0 00.49.68 1.33 1.33 0 00.9.31 1.35 1.35 0 001.19-.71 3.54 3.54 0 00.45-1.94 4 4 0 00-.16-1.22 2.1 2.1 0 00-.57-.92 1.4 1.4 0 00-1-.36 1.63 1.63 0 00-1.29.61zm4.75-4.22v-.25l2-.12.08.07v.86a2.17 2.17 0 011.67-1 .78.78 0 01.54.23.69.69 0 01.24.52.86.86 0 01-.17.56.55.55 0 01-.5.22c-.44 0-.67-.2-.67-.59a.59.59 0 01.05-.19.45.45 0 000-.2 1.25 1.25 0 00-.76.26 1.88 1.88 0 00-.5.55v3.41a.49.49 0 00.34.55 2.22 2.22 0 00.8.15v.25h-3v-.25a2 2 0 00.55-.07.5.5 0 00.33-.55V32a.84.84 0 00-.33-.67 1.23 1.23 0 00-.67-.2zm5.53 4.66a2.87 2.87 0 01-.83-2.13 3 3 0 01.81-2.16 2.85 2.85 0 012.11-.82 2.74 2.74 0 012.1.82 2.88 2.88 0 01.8 2.08 2.93 2.93 0 01-5 2.22zm.5-2.23a4.32 4.32 0 00.4 2 1.3 1.3 0 001.19.77 1.27 1.27 0 001.18-.77 5 5 0 000-3.85A1.27 1.27 0 0036.5 31a1.36 1.36 0 00-.79.24 1.47 1.47 0 00-.5.63 3.45 3.45 0 00-.25.83 5.49 5.49 0 00-.07.91z" fill="#fff"/><path d="M38.33 38.29a.66.66 0 01.17-.44.57.57 0 01.46-.21.72.72 0 01.47.15.54.54 0 01.2.46 1.35 1.35 0 01-.06.34 1.64 1.64 0 000 .32.67.67 0 00.24 0 .82.82 0 00.79-.6 6.82 6.82 0 00.22-2.06V32a.84.84 0 00-.34-.65 1.54 1.54 0 00-.47-.16 3.35 3.35 0 00-.55-.11v-.18l2.39-.14.09.08v5.08a3.53 3.53 0 01-.78 2.53 2.16 2.16 0 01-1.6.77 1.31 1.31 0 01-.88-.26.83.83 0 01-.35-.67zm2.08-9.95a.76.76 0 01.24-.55.81.81 0 01.57-.23.73.73 0 01.55.21.68.68 0 01.22.5.76.76 0 01-.22.57.72.72 0 01-.55.24.81.81 0 01-.57-.23.72.72 0 01-.24-.51zm2.75 5.24a3.1 3.1 0 01.73-2 2.44 2.44 0 012-.86 2 2 0 011.69.66 2.63 2.63 0 01.54 1.71v.11h-3.6v.14a3.77 3.77 0 00.45 2 1.47 1.47 0 001.39.73 1.67 1.67 0 001-.24 3 3 0 00.69-.85l.22.15a2.74 2.74 0 01-.91 1.09 2.27 2.27 0 01-1.32.41 2.59 2.59 0 01-2.09-.86 3.18 3.18 0 01-.79-2.19zm1.31-.7H47c0-1.27-.4-1.88-1.15-1.88a1.11 1.11 0 00-1 .53 2.58 2.58 0 00-.4 1.38zm4.08.72a3 3 0 01.77-2.06 2.61 2.61 0 012-.86 2.2 2.2 0 011.4.41 1.26 1.26 0 01.49 1 .73.73 0 01-.16.5.59.59 0 01-.47.19.77.77 0 01-.46-.15.52.52 0 01-.22-.47 1.22 1.22 0 01.08-.5.9.9 0 00.08-.28.51.51 0 00-.22-.36 1.24 1.24 0 00-.5-.1 1.32 1.32 0 00-1.06.62 3.42 3.42 0 00-.45 2 3.27 3.27 0 00.46 1.83 1.45 1.45 0 001.27.71 1.78 1.78 0 001-.26 2.34 2.34 0 00.72-.84l.24.18a3.18 3.18 0 01-1 1.06 2.33 2.33 0 01-1.33.42 2.5 2.5 0 01-2-.82 3.2 3.2 0 01-.64-2.22zm4.85-2.21v-.53h1.19v-1.92h1.09v1.92h1.69v.53h-1.68v3.3a1.47 1.47 0 00.21.87.84.84 0 00.74.3.64.64 0 00.47-.17.83.83 0 00.2-.32c0-.1 0-.26.09-.49h.26a2 2 0 01-.49 1.17 1.39 1.39 0 01-1.09.48q-1.5 0-1.5-1.71v-3.43z" fill="#fff"/></svg>