<svg xmlns="http://www.w3.org/2000/svg" width="73.986" height="79.109"><g id="Symbole_23_1" data-name="Symbole 23 – 1" transform="translate(-577 -446.516)"><path id="Tracé_3467" data-name="Tracé 3467" d="M19.6 0h34.783a19.6 19.6 0 0119.6 19.6v46.084l-2.628 5.627-5.7 2.676H19.6A19.6 19.6 0 010 54.383V19.6A19.6 19.6 0 0119.6 0z" transform="rotate(-90 551.313 -25.688)" fill="#f70"/><path id="Tracé_3469" data-name="Tracé 3469" d="M-7.143 0A13.472 13.472 0 016.4 13.252 13.54 13.54 0 01-7.143 26.583c-7.341 0-33.127-21.444-32.539-21.448s-14.87-.041 4.98 0S-15.685.193-7.143 0z" transform="translate(644.578 446.516)" fill="#f70"/><circle id="Ellipse_69" data-name="Ellipse 69" cx="4.644" cy="4.644" r="4.644" transform="translate(633.085 454.907)" fill="#fff"/><circle id="Ellipse_67" data-name="Ellipse 67" cx="21.939" cy="21.939" r="21.939" transform="translate(592.053 466.693)" fill="#fff"/><circle id="Ellipse_68" data-name="Ellipse 68" cx="15.534" cy="15.534" r="15.534" transform="translate(598.459 473.099)" fill="#3c3c3c"/></g></svg>