<svg xmlns="http://www.w3.org/2000/svg" id="prestashop" width="88.393" height="88.393"><path id="Path_29851" data-name="Path 29851" d="M28.651 67.819c.706-.314 1.421-.6 2.142-.874a39.24 39.24 0 015.609-1.664 38.948 38.948 0 014.328-.669q-1.233 3.867-2.7 7.654.06.739.077 1.481a31.341 31.341 0 0112.169 0q.017-.741.077-1.481-1.463-3.786-2.7-7.654a38.941 38.941 0 014.328.669 39.466 39.466 0 015.609 1.664c.722.271 1.437.56 2.143.875a38.349 38.349 0 0113.327 9.83 44.2 44.2 0 10-57.727 0 38.352 38.352 0 0113.318-9.831" fill="#a5dbe8"/><path id="Path_29852" data-name="Path 29852" d="M150.118 190.335l2.744 9.434.778.037c.505 0 .86.133.86.638 0 .84.044 1.783.124 2.607.684.58 1.516 1.235 2.147 1.871a44.3 44.3 0 006.664-4.757 38.349 38.349 0 00-13.318-9.831m-5.365-.094l3.221-.78a39.24 39.24 0 00-5.609-1.664 38.949 38.949 0 00-4.328-.669q1.233 3.867 2.7 7.654-.06.739-.077 1.481a31.681 31.681 0 016.6 2.15l-2.506-8.172" transform="translate(-90.376 -122.515)" fill="#525353"/><path id="Path_29853" data-name="Path 29853" d="M63.707 221.112c.513.3 1.031.591 1.558.869.184-.886.479-2.113.568-3.024-.684.58-1.5 1.519-2.127 2.155m34.832-6.591a31.015 31.015 0 00-6.548-2.069 31.342 31.342 0 00-12.169 0 32.659 32.659 0 00-6.738 2.05l-.221 1.375H98.95l-.411-1.356" transform="translate(-41.71 -138.706)"/><path id="Path_29854" data-name="Path 29854" d="M53.117 209.111a23.59 23.59 0 00.139-2.4.793.793 0 01.851-.828l.828-.029 2.79-9.439a38.352 38.352 0 00-13.318 9.831A44.3 44.3 0 0051.071 211q.947-.955 1.972-1.827" transform="translate(-29.074 -128.597)" fill="#525353"/><path id="Path_29855" data-name="Path 29855" d="M186.7 234.948a4.418 4.418 0 00.252 1.083q.788-.419 1.558-.869-.957-.965-1.993-1.847l.183 1.633" transform="translate(-122.118 -152.755)"/><path id="Path_29856" data-name="Path 29856" d="M159.938 202.755l.411 1.356h5.336l-2.834-9.352q-1.058-.469-2.143-.875l-3.221.78 2.452 8.09" transform="translate(-103.109 -126.939)" fill="#aa9678"/><path id="Path_29857" data-name="Path 29857" d="M75.039 228.858l.084-.059h-.08v.059" transform="translate(-49.129 -149.798)" fill="#c4b6a1"/><path id="Path_29858" data-name="Path 29858" d="M180.8 228.8h-.08l.084.059v-.059" transform="translate(-118.318 -149.798)" fill="#aa9678"/><path id="Path_29859" data-name="Path 29859" d="M146.119 228.4l-18.229.021.038 9.508a44.012 44.012 0 0018.954-4.265 27.933 27.933 0 01-.474-5.15c-.028-.02-.289-.114-.289-.114" transform="translate(-83.732 -149.54)" fill="#aa9678"/><path id="Path_29860" data-name="Path 29860" d="M92.031 228.556s-18.329-.023-18.357 0c-.061 1.727-.417 3.777-.567 5.207a44.012 44.012 0 0018.954 4.265l.01-9.438-.04-.031" transform="translate(-47.864 -149.632)" fill="#c4b6a1"/><path id="Path_29861" data-name="Path 29861" d="M128 226.15v.915z" transform="translate(-83.804 -148.064)" fill="#786453"/><path id="Path_29863" data-name="Path 29863" d="M165.666 206.246l.009.029-.009-.029a8.572 8.572 0 01-1.017-1.01 8.572 8.572 0 001.017 1.01" transform="translate(-107.798 -134.371)" fill="#aa9678"/><path id="Path_29866" data-name="Path 29866" d="M211.521 126.152c0 .012 0 .022.006.034s0 .014 0 .021a5.151 5.151 0 01.033.523c0 .033.006.064.006.1v.025c0 .035-.006.068-.007.1q0 .257-.032.513v.025c0 .013-.006.026-.007.039a4.741 4.741 0 01-.1.523l.006-.007v-.008l1.157-1.211-1.166-1.221a4.687 4.687 0 01.1.534" transform="translate(-138.42 -82.243)" fill="#676a6a"/><path id="Path_29867" data-name="Path 29867" d="M205.063 124.079c0-.023.009-.043.012-.066a5.35 5.35 0 00.032-.513c0-.039.007-.076.007-.116s-.006-.071-.006-.108a5.149 5.149 0 00-.033-.523c0-.02-.008-.038-.01-.057a4.687 4.687 0 00-.1-.534c-.015-.059-.036-.112-.054-.17a3.419 3.419 0 00-.416-.905 2.747 2.747 0 00-.212-.276 1.792 1.792 0 00-.229-.212c-.03-.023-.062-.039-.094-.059a1.3 1.3 0 00-.307-.148.946.946 0 00-.633 0 1.287 1.287 0 00-.307.148c-.03.02-.063.036-.093.059a1.824 1.824 0 00-.371.39q-.036.049-.07.1a3.407 3.407 0 00-.416.905l-.013.041a4.652 4.652 0 00-.112.5c-.009.052-.021.1-.028.157a4.774 4.774 0 00-.045.6v.084h.007c0 1.684.8 3.048 1.779 3.048a1.105 1.105 0 00.487-.12 1.442 1.442 0 00.262-.165c.033-.027.065-.059.1-.09a2.031 2.031 0 00.224-.248c.049-.065.1-.129.142-.2.029-.046.055-.1.081-.145a3.2 3.2 0 00.139-.289c.016-.037.032-.072.047-.11a4.051 4.051 0 00.142-.447 4.743 4.743 0 00.1-.523zm-1.664-1.1c-.368 0-.667-.512-.667-1.143s.3-1.143.667-1.143.667.512.667 1.143-.298 1.142-.666 1.142z" transform="translate(-131.963 -78.786)"/><path id="Path_29868" data-name="Path 29868" d="M205.626 121.367c-.368 0-.667.512-.667 1.143s.3 1.143.667 1.143.667-.512.667-1.143-.3-1.143-.667-1.143" transform="translate(-134.19 -79.461)" fill="#fff"/><path id="Path_29869" data-name="Path 29869" d="M202.147 111.465a3.407 3.407 0 01.416-.905c.023-.035.046-.067.07-.1a1.8 1.8 0 01.371-.39c.03-.023.063-.039.093-.059a1.274 1.274 0 01.307-.148.946.946 0 01.633 0 1.3 1.3 0 01.307.148c.031.02.063.036.094.059a1.792 1.792 0 01.229.212 2.752 2.752 0 01.212.276 3.418 3.418 0 01.416.905l-1.574-7.208-1.574 7.208" transform="translate(-132.349 -68.259)" fill="#909393"/><path id="Path_29870" data-name="Path 29870" d="M130.515 121.186a4.294 4.294 0 00-.028-.429.029.029 0 010-.006q-.025-.207-.069-.41v-.01q-.044-.2-.108-.392v-.009a3.958 3.958 0 00-.146-.376v-.008a4.185 4.185 0 00-2.224-2.155h-.012a4.13 4.13 0 00-.745-.225h-.019a4.091 4.091 0 00-1.583 0h-.027a4.142 4.142 0 00-.732.218l-.019.007a4.126 4.126 0 00-.68.353 4.241 4.241 0 00-.6.471v.014h-.016a4.22 4.22 0 00-.756.965l-.008.013a3.972 3.972 0 00-.17.339l-.018.037a4.23 4.23 0 00-.126.33c-.007.022-.017.043-.024.065-.033.1-.06.212-.086.319-.007.031-.017.061-.023.092a4.286 4.286 0 00-.051.324c0 .033-.011.066-.015.1a4.144 4.144 0 00.057 1.239.147.147 0 000 .017 4.1 4.1 0 00.227.751.087.087 0 000 .01 4.2 4.2 0 001.816 2.049h.005c.112.063.228.119.345.172l.029.014c.109.048.222.089.336.127l.057.021c.1.033.213.06.322.085.029.007.058.017.087.023.105.022.214.037.323.051.033 0 .065.011.1.015a4.163 4.163 0 004.6-4.141v-.029c0-.01-.019-.017-.019-.031zm-4.161-.488a1.564 1.564 0 111.564-1.564 1.564 1.564 0 01-1.564 1.564z" transform="translate(-80 -76.656)"/><path id="Path_29871" data-name="Path 29871" d="M131.283 118.494a1.564 1.564 0 101.564 1.564 1.564 1.564 0 00-1.564-1.564" transform="translate(-84.929 -77.58)" fill="#fff"/><path id="Path_29872" data-name="Path 29872" d="M78.3 98.841h.016v-.014l2.868-8.771v-2.079a24.444 24.444 0 00-4.92-.508c-.561 0-1.118.024-1.671.061l-.242.017a24.639 24.639 0 00-8.338 2.167A26.66 26.66 0 0059.8 93.7q-.755.646-1.461 1.346c-.088.086-.178.172-.266.26q-.667.673-1.29 1.388c-.09.1-.179.21-.268.315q-.628.737-1.209 1.513l-.094.133q-.551.752-1.055 1.536c-.066.1-.134.2-.2.305-.273.433-.527.877-.779 1.322h13.061L78.3 98.841" transform="translate(-34.814 -57.267)" fill="#bbbcbd"/><path id="Path_29873" data-name="Path 29873" d="M142.457 98.817q.04-.513.066-1.027.036-.7.049-1.391c.007-.36.006-.721 0-1.081v-.312q-.016-1.395-.1-2.787l-.008-.005v-.007q-.518-.3-1.037-.593l-.027-.014-.27-.153-.187-.1-.037-.021-.136-.074q-.9-.468-1.837-.863a32.568 32.568 0 00-4.614-1.443v2.076l2.843 8.785v.007a4.191 4.191 0 01.748.955c.066.116.127.236.182.358v.008a3.951 3.951 0 01.146.376v.009q.063.192.108.392v.01c.03.134.053.271.069.41a.029.029 0 000 .006 4.289 4.289 0 01.028.429l.011.023h3.481a38.015 38.015 0 00.5-3.861c0-.036.007-.071.009-.107" transform="translate(-87.939 -58.23)" fill="#e3dddb"/><path id="Path_29874" data-name="Path 29874" d="M171.067 108.55l-.006.012.006-.012" transform="translate(-111.996 -71.069)" fill="#fcb03f"/><path id="Path_29875" data-name="Path 29875" d="M126.01 103.722a4.242 4.242 0 01.605-.472 4.127 4.127 0 01.677-.351l.019-.007a4.139 4.139 0 01.732-.218h.027a4.091 4.091 0 011.583 0h.019a4.13 4.13 0 01.757.229 4.194 4.194 0 011.294.84v-.007l-2.843-8.785-2.868 8.771" transform="translate(-82.501 -62.166)" fill="#909393"/><path id="Path_29876" data-name="Path 29876" d="M102.042 124.993a4.1 4.1 0 01-.227-.751.151.151 0 010-.017 4.144 4.144 0 01-.057-1.239c0-.033.011-.066.015-.1.014-.109.029-.218.051-.324.007-.031.017-.06.023-.091.026-.107.052-.215.086-.319.007-.022.016-.042.024-.065.038-.112.079-.223.126-.33l.018-.037c.052-.116.108-.23.17-.339l.008-.013a4.22 4.22 0 01.756-.965l-12.065 2.98h-.023l11.95 2.917a4.179 4.179 0 01-.848-1.3.087.087 0 010-.01" transform="translate(-59.543 -78.83)" fill="#676a6a"/><path id="Path_29877" data-name="Path 29877" d="M181.641 101.224c.008-.054.019-.1.028-.157a4.656 4.656 0 01.112-.5c.005-.018.007-.038.013-.056l1.574-7.208V89.2a6.424 6.424 0 00-4.1-1.643 7.085 7.085 0 00-4.765 2.236 17.866 17.866 0 00-3.315 4.771l-.12.234q.4.346.79.7.881.809 1.732 1.651c.264.261.524.528.784.793.276.281.553.562.825.848q.746.784 1.472 1.588.622.686 1.231 1.385c.068.071.116.122.134.143h3.55c0-.029.006-.055.006-.084a4.771 4.771 0 01.045-.6m-10.57-6.411V94.8l-.006.012.016.015-.006-.016" transform="translate(-111.996 -57.322)" fill="#e3dddb"/><path id="Path_29878" data-name="Path 29878" d="M41.355 74.225l.032-.079a33.481 33.481 0 011.646-3.616c.1-.182.19-.365.289-.546.055-.1.117-.2.173-.295.252-.445.506-.89.779-1.322l.2-.305q.5-.784 1.055-1.536l.094-.133q.58-.776 1.209-1.513c.089-.1.177-.211.268-.315q.623-.714 1.29-1.388c.088-.088.177-.173.266-.26q.706-.7 1.461-1.346C52.1 54.917 58.516 50.83 65.7 50.83a15.885 15.885 0 018.237 2.342 13.454 13.454 0 015.593 5.7l.02.04c.034.067.072.131.1.2v.007l.008.005a26.658 26.658 0 013.2 2.329q.509.43 1 .882c.108.1.219.193.325.293l.006-.012v-.008l.109-.225c1.013-6.394 4.232-9.88 7.558-9.88 2.507 0 4.33 1.5 5.707 5.52l.014.043a15.033 15.033 0 011.135 1.4l.022.029c.02.058.037.118.056.177l-.052-.21a31 31 0 00-60.371 9.925 30.656 30.656 0 001.541 9.647v-.018a33.222 33.222 0 011.419-4.792" transform="translate(-25.135 -25.135)" fill="#525353"/><path id="Path_29879" data-name="Path 29879" d="M199.3 129.06l-1.081 1.21v.008a4.008 4.008 0 01-.147.451c-.015.038-.031.073-.047.11a3.151 3.151 0 01-.139.289c-.027.049-.053.1-.081.145a2.368 2.368 0 01-.142.2 2.032 2.032 0 01-.224.248c-.032.03-.063.063-.1.09a1.439 1.439 0 01-.262.165 1.105 1.105 0 01-.487.12c-.982 0-1.779-1.365-1.779-3.048h-3.569q1.006 1.163 1.98 2.352.936 1.144 1.849 2.306l.09.114q.865 1.1 1.714 2.22l.165.215q.9 1.187 1.792 2.384a30.935 30.935 0 001.626-9.594l-1-.038-.156.05" transform="translate(-125.209 -84.465)" fill="#fff"/><path id="Path_29880" data-name="Path 29880" d="M86.916 77.57l.242-.017q.834-.059 1.671-.061a24.441 24.441 0 014.92.508 32.567 32.567 0 014.614 1.443q.935.4 1.837.863l.136.074.037.021.188.1.27.153.024.014c.382.216.8.459.966.552l.041.024.029.017c-.033-.068-.071-.132-.1-.2l-.02-.04a16.138 16.138 0 00-5.93-6.456 15.807 15.807 0 00-23.487 9.151 26.66 26.66 0 016.222-3.987 24.639 24.639 0 018.338-2.167" transform="translate(-47.372 -47.29)"/><path id="Path_29881" data-name="Path 29881" d="M208.957 94.823l-.022-.029a15.036 15.036 0 00-1.135-1.4l-.01-.012q-.259-.282-.536-.547c-.068-.065-.138-.122-.207-.185-.114-.1-.227-.21-.342-.3v4.11l1.574 7.209c.017.056.038.108.053.166l1.09 1.222.011-.012h1.141c0-.106.008-.21.008-.316A30.928 30.928 0 00209.014 95c-.019-.058-.036-.118-.056-.177" transform="translate(-135.334 -60.462)" fill="#bbbcbd"/><path id="Path_29882" data-name="Path 29882" d="M134.188 82.237A7.085 7.085 0 01138.953 80a6.424 6.424 0 014.1 1.643v.012c.115.095.228.2.342.3.069.063.139.119.207.185q.276.265.536.547l.01.012-.014-.044c-1.377-4.025-3.6-6.639-6.1-6.639-3.327 0-6.147 4.606-7.16 11l.011-.009a17.865 17.865 0 013.315-4.771m-4.5 39.3a8.561 8.561 0 01-1.017-1.009 10.284 10.284 0 01-.739-.952q-.109-.158-.216-.329a10.43 10.43 0 01-.576-1.163 6.727 6.727 0 01-.345-1.23 8.686 8.686 0 01-.22-.989 8.5 8.5 0 01-.1-1.633 8.873 8.873 0 01.089-.974 9.562 9.562 0 01.192-.98 11.764 11.764 0 011.36-3.2l.172-.386c.221-.368.27-.352.48-.706 2.957-4.99 4.552-8.764 3.772-14.574q-.128-.893-.291-1.78-.1.643-.216 1.284a3.165 3.165 0 01-.14.367 26.3 26.3 0 01-6.216 9.756q-.608.657-1.23 1.3-1.111 1.149-2.246 2.275l-.963.955c-.3.3-.673.932-1.119 1.4-.275.77-.587 1.638-.851 2.551-.119-.045-.233-.086-.354-.133a41.368 41.368 0 01-9.436-5.107 41.372 41.372 0 007.817 7.349 15.9 15.9 0 001.4.907c-.2 3.2 1.211 6.278 7.588 7.195a12.948 12.948 0 003.295.022c-.011-.033.062-.032.056-.051s.059-.068.059-.068" transform="translate(-71.678 -49.77)"/><path id="Path_29883" data-name="Path 29883" d="M157.871 177.641a39.432 39.432 0 0022.741-3.309c.21-.1.441.16.65.057a54.057 54.057 0 01-13.046 9.506c-.208.1-.412.207-.622.3-.686.314-1.384.587-2.084.839a19.529 19.529 0 01-4.148 1.041c-.064.008-.127.02-.191.027l-.026-.078-.009-.029a8.568 8.568 0 01-1.017-1.01 10.09 10.09 0 01-.738-.952 9.892 9.892 0 01-.829-1.454 9.08 9.08 0 01-.493-1.325 8.535 8.535 0 01-.325-2.621 8.869 8.869 0 01.089-.974l.048-.021" transform="translate(-103.268 -114.123)" fill="#9f2254"/><path id="Path_29884" data-name="Path 29884" d="M142.4 121.52q1.135-1.126 2.246-2.275.622-.643 1.23-1.3a27.192 27.192 0 006.329-9.914c.03-.09.06-.209.09-.343l.014-.062c.03-.142.059-.3.089-.478.012-.123.4-.37.407-.485a15.1 15.1 0 00-1.875-4.724l.006.016-.016-.015c-.106-.1-.217-.194-.325-.293q-.489-.452-1-.882a26.687 26.687 0 00-3.2-2.329c.057.93.093 1.859.1 2.787v1.393q-.013.7-.049 1.391-.026.514-.066 1.027c0 .036-.007.071-.009.107a38.01 38.01 0 01-.5 3.861l-.409 1.933c-.854 3.462-2.588 6.6-4.014 9.844a38.34 38.34 0 00-1.051 2.615l-.089.25q.562-.593 1.139-1.169l.963-.955" transform="translate(-91.855 -64.448)" fill="#fcb03f"/><path id="Path_29885" data-name="Path 29885" d="M90.225 198.206a28.412 28.412 0 016.277-1.944q-.017-.741-.077-1.481 1.463-3.786 2.7-7.654a38.949 38.949 0 00-4.328.669 39.466 39.466 0 00-5.609 1.664l3.222.78-2.592 8.137.411-.172" transform="translate(-58.39 -122.515)" fill="#525353"/><path id="Path_29886" data-name="Path 29886" d="M175.113 122.632q-.849-1.116-1.714-2.22l-.09-.114q-.924-1.177-1.872-2.334-.963-1.175-1.957-2.324l-.126-.146q-.819-.941-1.663-1.859-.515-.561-1.04-1.113-.409-.427-.825-.848c-.26-.266-.52-.532-.785-.793q-.851-.841-1.732-1.651-.39-.357-.79-.7v.008a35.424 35.424 0 011.519 4.918q.125.655.208 1.277c.78 5.81-1.081 9.6-4.038 14.594q-.325.547-.652 1.092a11.786 11.786 0 00-1.36 3.2 9.656 9.656 0 00-.192.98 38.969 38.969 0 0023.439-3.273s-1.75-2.571-4.382-6.106q-.884-1.188-1.78-2.367l-.165-.215" transform="translate(-103.446 -71.054)" fill="#df0067"/><path id="Path_29887" data-name="Path 29887" d="M80 204.256l2.9-9.591-3.222-.78c-.722.271-1.437.56-2.142.874l-2.872 9.5 3.207.05 2.13-.05" transform="translate(-48.881 -126.939)" fill="#aa9678"/><path id="Path_29888" data-name="Path 29888" d="M61.219 157.649c.283.109.571.207.858.307a30.975 30.975 0 0021.817-.5c.189-.076.375-.16.562-.239q.455-.193.9-.4c.267-.124.534-.248.8-.379-.064.008-.127.02-.191.027a12.947 12.947 0 01-3.295-.022c-6.378-.917-7.791-3.992-7.588-7.195a15.9 15.9 0 01-1.4-.907 41.373 41.373 0 01-7.817-7.349A41.368 41.368 0 0075.3 146.1c.121.047.235.087.354.133.264-.913.577-1.781.851-2.551l.089-.25c.315-.886.673-1.755 1.051-2.615 1.426-3.242 3.16-6.382 4.014-9.844l.409-1.933h-3.486v.036a4.162 4.162 0 01-4.6 4.141c-.034 0-.066-.011-.1-.015a4.182 4.182 0 01-.323-.051l-.087-.023a4.35 4.35 0 01-.322-.085l-.057-.021a3.87 3.87 0 01-.336-.127l-.029-.014q-.177-.078-.345-.172h-.005a4.2 4.2 0 01-.967-.751l-11.95-2.917H46.425c-.056.1-.118.195-.173.295-.1.181-.193.364-.289.546q-.481.908-.9 1.844-.4.875-.742 1.772l-.032.079a33.221 33.221 0 00-1.419 4.792A31.074 31.074 0 0054.134 153.8c.152.11.312.208.466.316a31 31 0 002.743 1.719 30.678 30.678 0 003.875 1.814" transform="translate(-28.064 -84.482)" fill="#fff"/><path id="Path_29889" data-name="Path 29889" d="M109.088 226.91q-.125-1.243-.13-2.494a.915.915 0 00-.914-.915H69.678a.915.915 0 00-.915.915c0 .84-.049 1.671-.13 2.494a25.306 25.306 0 01-.414 2.7c.556.294 1.117.58 1.687.852a27.115 27.115 0 00.667-5.068v-.059h36.566v.059a27.144 27.144 0 00.667 5.068q.853-.408 1.687-.852a25.4 25.4 0 01-.414-2.7" transform="translate(-44.665 -146.33)" fill="#8b7460"/></svg>