<svg xmlns="http://www.w3.org/2000/svg" width="81.899" height="81.897"><path id="download" d="M74.868 17.982A41.73 41.73 0 0036.665.206a41.2 41.2 0 00-23.58 10.251A39.039 39.039 0 001.367 28.636a39.378 39.378 0 00-.9 16.407 55.736 55.736 0 002.87 10 3.262 3.262 0 001.4 1.682c1.611.88 4.255.106 6.286-2.174a.573.573 0 00.1-.5 46.824 46.824 0 01-.973-5.091 45.885 45.885 0 01-.358-10.609 30.914 30.914 0 011.28-6.719 29.711 29.711 0 018.872-13.582 32.121 32.121 0 0117.22-7.75 30.614 30.614 0 0110.916.693 32.753 32.753 0 0110.152 4.6 30.37 30.37 0 018.1 8.064 30.21 30.21 0 014.914 22.481 32.206 32.206 0 01-4.306 11.176A30.151 30.151 0 0158.741 66a31.952 31.952 0 01-10.865 4.893 29.64 29.64 0 01-5.9.819 33.015 33.015 0 01-5.791-.28c-2.46-.392-2.972-1.02-3.535-1.873a5.232 5.232 0 01-.5-2.259c.038-15.032.031-11.019.031-18.823 0-2.2-.072-4.2-.051-6.02.1-2.979.355-5.027 2.484-7.245a8.288 8.288 0 016.064-2.621 7.965 7.965 0 018.2 7.18 9.331 9.331 0 01-3.283 8.07 11.89 11.89 0 01-3.283 1.74 13.924 13.924 0 01-5.224.621.509.509 0 00-.539.406l-.563 2.921c-.549 2.218.682 3.03 1.4 3.317a17.271 17.271 0 006.726.819 16.835 16.835 0 0010.418-4.593 15.257 15.257 0 004.638-9.026 20.055 20.055 0 00-1.9-11.432 18.782 18.782 0 00-22.017-9.456l-.051.017a18.827 18.827 0 00-8.06 4.955 18.518 18.518 0 00-4.153 6.665 21.262 21.262 0 00-1.167 7.456c-.055 2.2.051 4.252.051 6.17V61.05c0 4.04-.136 4.74 0 6.818a15.837 15.837 0 00.87 4.614 13.188 13.188 0 002.82 4.618 13.36 13.36 0 004.412 3.071c3.586 1.594 8.456 1.846 12.4 1.693a40.617 40.617 0 007.827-1.076 41.685 41.685 0 0014.452-6.545A40.19 40.19 0 0075.6 62.664a41.849 41.849 0 005.7-14.82 40.357 40.357 0 00-6.559-29.989l.13.126z" transform="translate(.001)" fill="#2480e6"/></svg>