<svg xmlns="http://www.w3.org/2000/svg" id="python" width="183.304" height="53.201"><defs><linearGradient id="linear-gradient" x1="-2024.126" y1="-121.943" x2="-2016.133" y2="-115.066" gradientTransform="matrix(2.962 0 0 2.991 6005.981 381.138)" gradientUnits="userSpaceOnUse"><stop offset="0" stop-color="#5a9fd4"/><stop offset="1" stop-color="#306998"/></linearGradient><linearGradient id="linear-gradient-2" x1="-2013.045" y1="-110.904" x2="-2015.899" y2="-114.942" gradientTransform="matrix(2.962 0 0 2.991 6005.981 381.138)" gradientUnits="userSpaceOnUse"><stop offset="0" stop-color="#ffd43b"/><stop offset="1" stop-color="#ffe873"/></linearGradient><radialGradient id="radial-gradient" cx="-2942.497" cy="-283.842" r="2.129" gradientTransform="matrix(0 -1.263 5.553 0 1609.859 -3652.416)" gradientUnits="userSpaceOnUse"><stop offset="0" stop-color="#b8b8b8" stop-opacity=".498"/><stop offset="1" stop-color="#7f7f7f" stop-opacity="0"/></radialGradient><style>.cls-1{fill:#646464}</style></defs><path class="cls-1" d="M81.141 36.63q0-8.433-4.809-8.666a9.028 9.028 0 00-3.733.614 5.474 5.474 0 00-1.96 1.035v13.419a9.523 9.523 0 005.46 1.791q5.04-.334 5.042-8.193zm3.955.234a11.929 11.929 0 01-2.017 7.112 7.438 7.438 0 01-6.243 3.292 11.075 11.075 0 01-6.2-1.881v12.2L67.2 56.356V29.285a7.685 7.685 0 012.171-1.791 14.9 14.9 0 017.462-1.836l.049.048A6.846 6.846 0 0183.067 29a14 14 0 012.033 7.864zm21.02 8q0 5.746-1.151 7.959a8.117 8.117 0 01-4.407 3.529 16.857 16.857 0 01-5.7 1.133l-.568-2.167a27.38 27.38 0 004.38-.847 5.781 5.781 0 003.439-2.589q.758-1.416.753-5.414v-.9a17.667 17.667 0 01-7.394 1.6A6.8 6.8 0 0191 45.576a5.441 5.441 0 01-2.167-4.425V26.835l3.439-1.177v14.408a4.38 4.38 0 001.49 3.556 5.627 5.627 0 003.857 1.2 9.641 9.641 0 005.061-1.836v-16.81h3.44v18.692zm13.426 2.212c-.376.032-.754.048-1.132.049a6.767 6.767 0 01-4.546-1.392 4.81 4.81 0 01-1.622-3.85V28.34h-2.355v-2.163h2.355v-5.746l3.436-1.223v6.969h3.864v2.163h-3.864v13.453a3.26 3.26 0 001.038 2.74 5.256 5.256 0 002.826.756v1.791zm20.825-.282h-3.439V33.522a6.275 6.275 0 00-.944-3.484 3.439 3.439 0 00-3.03-1.649q-2.365 0-5.915 2.5V46.8H123.6V15.065l3.439-1.084v14.454a11.977 11.977 0 017.206-2.4 5.745 5.745 0 014.426 1.836 6.47 6.47 0 011.7 4.568V46.8zm18.281-10.709a10.564 10.564 0 00-1.227-5.355 5.135 5.135 0 00-4.519-2.721q-5.656.327-5.653 8.1a13.326 13.326 0 001.182 5.95 4.75 4.75 0 004.539 2.995q5.677-.045 5.678-8.967zm3.767.022a12.235 12.235 0 01-2.356 7.677 8.472 8.472 0 01-7.157 3.435 8.3 8.3 0 01-7.067-3.435 12.4 12.4 0 01-2.307-7.677 10.954 10.954 0 012.5-7.3 8.594 8.594 0 016.924-3.153 8.741 8.741 0 016.973 3.153 10.959 10.959 0 012.5 7.3zM182.133 46.8h-3.44V32.77a4.69 4.69 0 00-1.388-3.605 5.042 5.042 0 00-3.7-1.246 8.261 8.261 0 00-4.662 1.6V46.8H165.5V29.093a16.939 16.939 0 015.464-2.822 16.674 16.674 0 014.147-.613 10.717 10.717 0 012.307.237 6.63 6.63 0 013.3 1.742 4.608 4.608 0 011.415 3.39V46.8z" transform="translate(-12.026 -13.981)"/><path d="M33.229 15.192a29.55 29.55 0 00-4.947.422c-4.38.774-5.175 2.394-5.175 5.381v3.945h10.351v1.315H19.222a6.465 6.465 0 00-6.467 5.245 19.361 19.361 0 000 10.521c.736 3.064 2.493 5.248 5.5 5.248h3.559v-4.726a6.578 6.578 0 016.466-6.431h10.34a5.214 5.214 0 005.175-5.26V21c0-2.806-2.366-4.913-5.175-5.381a32.217 32.217 0 00-5.393-.422zm-5.6 3.172a1.973 1.973 0 11-1.943 1.979 1.964 1.964 0 011.943-1.979z" transform="translate(-12.026 -13.981)" fill="url(#linear-gradient)"/><path d="M45.088 26.255v4.6a6.639 6.639 0 01-6.466 6.563h-10.34a5.28 5.28 0 00-5.175 5.261v9.856c0 2.806 2.439 4.456 5.175 5.26a17.313 17.313 0 0010.34 0c2.606-.754 5.175-2.273 5.175-5.26v-3.949H33.458v-1.314h15.515c3.009 0 4.129-2.1 5.176-5.249 1.081-3.242 1.035-6.361 0-10.52-.744-3-2.164-5.248-5.176-5.248zm-5.815 24.961a1.973 1.973 0 11-1.942 1.967 1.953 1.953 0 011.942-1.967z" transform="translate(-12.026 -13.981)" fill="url(#linear-gradient-2)"/><path class="cls-1" d="M188.831 23.11h.6v-3.782h1.428v-.451H187.4v.451h1.428v3.782m2.567 0h.515v-3.454l1.118 3.454h.573l1.166-3.442v3.442h.562v-4.232h-.744l-1.271 3.622-1.086-3.626h-.828v4.236" transform="translate(-12.026 -13.981)"/><path d="M47.447 64.492c0 1.486-6.21 2.69-13.872 2.69S19.7 65.978 19.7 64.492s6.211-2.69 13.872-2.69 13.875 1.205 13.875 2.69z" transform="translate(-12.026 -13.981)" style="isolation:isolate" opacity=".444" fill="url(#radial-gradient)"/></svg>