<svg xmlns="http://www.w3.org/2000/svg" width="66.039" height="109.577"><g id="Y8fe9Q.tif" transform="translate(-59.772 -186.242)"><g id="Group_4433" data-name="Group 4433" transform="translate(59.772 186.242)"><path id="Path_29932" data-name="Path 29932" d="M117.147 210.38c-2.125-.615-2.37.651-2.606 2.032-.263 1.535-.634 3.052-.961 4.592-3.858-2.022-6.709-7.866-6.163-12.861.251-2.3.758-4.572 1.215-6.844.368-1.828.929-3.62 1.23-5.456s.379-3.68.562-5.6c.235.473.481.936.7 1.412a25.193 25.193 0 006.573 8.79 43.58 43.58 0 014.365 4.2c2.36 2.677 3.078 5.929 2.958 9.645-1.811 0-3.56.043-5.3-.043-.284-.014-.633-.558-.793-.926-1-2.307-1.942-4.639-2.934-6.95a3.284 3.284 0 00-1.18-1.451zm-2.373-10l-.1-.052v.206c.034-.017.079-.026.1-.053s0-.071.001-.105z" transform="translate(-91.054 -186.242)" fill="#279339"/><path id="Path_29933" data-name="Path 29933" d="M129.061 309.228a22.925 22.925 0 009.257-6.033 17.152 17.152 0 004.823-12.609 34.183 34.183 0 00-.213-5.266c-1.4-7.323-6.363-11.838-14.3-12.886a78.888 78.888 0 00-9.23-.389c-4.392-.059-8.786-.015-13.293-.015l-2.9 14.283c-1.394 6.432-2.807 12.86-4.175 19.3-.953 4.487-1.842 8.987-2.761 13.481-.812 3.68-1.632 7.358-2.432 11.041-.464 2.136-.9 4.28-1.352 6.475h13.55c.268-1.2.533-2.331.766-3.463q1.447-7.023 2.879-14.048l1.7-7.214c1.409 0 2.726.064 4.032-.022.93-.061 1.307.3 1.607 1.144.947 2.655 1.994 5.275 3 7.909 1.824 5.008 3.636 10.02 5.5 15.014a1.3 1.3 0 00.913.735c4.636.047 9.272.033 14.2.033L133.7 320.6zm-10.521-8.643c-1.562.06-3.128.009-4.814.009l2.9-13.954.823-3.362c2.747-.071 5.557-.363 8.242.729 2.941 1.2 3.745 3.69 3.823 6.575-.072 6.308-4.025 9.734-10.974 10.003z" transform="translate(-77.108 -240.673)" fill="#083c7e"/><path id="Path_29934" data-name="Path 29934" d="M70.412 288.121c2.446 1.45 4.908 2.874 7.321 4.378a1.544 1.544 0 01.619 1.229c-.2 1.391-.556 2.759-.88 4.253-3.2 0-6.3-.389-8.518-2.824a66.423 66.423 0 01-4.839-6.538c-1.5-2.117-2.937-4.276-4.307-6.28-.141 0 .162-.084.386.013 3.595 1.553 7.36 1.625 11.178 1.352a10.413 10.413 0 017.7 2.083 2.069 2.069 0 01.613 1.572 36.309 36.309 0 01-.758 3.754L70.6 287.9l-.893-.167-.042.2z" transform="translate(-59.772 -251.364)" fill="#279339"/><path id="Path_29935" data-name="Path 29935" d="M79.609 347.939l3.66-.586-1.185 5.621-11.695-2.687a5.562 5.562 0 00.754-.407 58.7 58.7 0 005.224-3.8c1.834-1.63 3.532-3.359 6.163-3.539.541-.037 1.086-.005 1.938-.005-.472 1.362-.577 2.868-1.385 3.662-.838.823-2.358.957-3.579 1.392z" transform="translate(-67.161 -292.348)" fill="#279339"/><path id="Path_29936" data-name="Path 29936" d="M156.664 527.429l-.269.163.048-.375z" transform="translate(-124.373 -418.287)" fill="#fdfdfd"/><path id="Path_29937" data-name="Path 29937" d="M165.237 312.223l.823-3.362c2.747-.071 5.557-.364 8.242.729 2.941 1.2 3.745 3.69 3.823 6.575-.067 6.308-4.021 9.734-10.969 10-1.562.061-3.128.009-4.814.009z" transform="translate(-127.377 -269.262)" fill="#fdfdfd"/><path id="Path_29938" data-name="Path 29938" d="M131.531 232.61c0 .034.012.078 0 .1s-.065.036-.1.053v-.206z" transform="translate(-107.686 -218.477)" fill="#fdfdfd"/><path id="Path_29939" data-name="Path 29939" d="M93.067 300.551l-.743-.19.042-.2.893.168c-.059.076-.127.15-.192.222z" transform="translate(-82.427 -263.775)" fill="#fdfdfd"/><path id="Path_29940" data-name="Path 29940" d="M256.556 528.631l-.147.217-.052-.137.21-.067z" transform="translate(-191.156 -419.271)" fill="#fdfdfd"/></g></g></svg>