<svg xmlns="http://www.w3.org/2000/svg" id="rocky_linux" data-name="rocky linux" width="184.09" height="32.2"><path d="M39.25 44.92a16.1 16.1 0 10-26.67 6l16.33-16.35 4 4zM36.31 50l-7.4-7.41-11.6 11.6a16.09 16.09 0 0019-4.19z" transform="translate(-7.95 -23.51)" fill="#10b981" fill-rule="evenodd"/><path d="M50.05 48V31.09h8.26a6.78 6.78 0 012.35.39 5.22 5.22 0 011.85 1.08 4.7 4.7 0 011.21 1.64 5.17 5.17 0 01.44 2.13 4.73 4.73 0 01-.92 2.85A5.33 5.33 0 0160.85 41l3.74 7h-3.91l-3.31-6.47h-3.81V48zm8-13.88h-4.49v4.54H58a2.69 2.69 0 001.88-.66 2.22 2.22 0 000-3.29 2.73 2.73 0 00-1.88-.6zm6.92 7.6a6.42 6.42 0 01.5-2.56 6.6 6.6 0 011.43-2.07 6.5 6.5 0 012.1-1.41 7 7 0 015.26 0 6.31 6.31 0 012.13 1.4 6.12 6.12 0 011.42 2.07 6.27 6.27 0 01.53 2.56 6.45 6.45 0 01-.53 2.59 6.13 6.13 0 01-1.42 2.05 6.75 6.75 0 01-2.13 1.38 7 7 0 01-7.41-1.38 6.18 6.18 0 01-1.93-4.64zm6.71 3.65a3.26 3.26 0 002.46-1.06 3.81 3.81 0 000-5.19 3.36 3.36 0 00-4.92 0 3.81 3.81 0 000 5.19 3.25 3.25 0 002.41 1.05zm15 0A3.79 3.79 0 0088.2 45a4.47 4.47 0 001.42-1.07l2 2.06a6.8 6.8 0 01-2.32 1.66 7.06 7.06 0 01-5.41.08 6.84 6.84 0 01-2.1-1.38 6.3 6.3 0 01-1.39-2.05 6.61 6.61 0 01-.51-2.59 6.43 6.43 0 01.51-2.56 6.29 6.29 0 011.37-2.07 6.39 6.39 0 012.1-1.4 6.75 6.75 0 012.61-.51 7.15 7.15 0 012.88.6 6.72 6.72 0 012.34 1.65l-2 2.14a5.05 5.05 0 00-1.45-1.13 3.63 3.63 0 00-1.7-.43 3.17 3.17 0 00-2.41 1.07 3.72 3.72 0 00-1 2.6 3.63 3.63 0 001 2.59 3.34 3.34 0 002.49 1.08zM93.32 48V31.09l3.31-.73v10.36l5.43-5.31h3.74l-5.89 5.77 6.26 6.82h-4.23l-5.31-5.75V48zm17.37.58l.19-.46L106 35.41h3.64l3.1 8.59 3.57-8.57h3.58L114.09 49a7.76 7.76 0 01-2.25 3.24 5.39 5.39 0 01-3.33 1 5.75 5.75 0 01-.84 0A2.49 2.49 0 01107 53v-2.81a3.92 3.92 0 00.51.07 5.79 5.79 0 00.65 0 2.53 2.53 0 001.5-.44 3 3 0 001.03-1.25zm15.78-.58V31.09h1.85v15.24h10.07V48zm15.12-14.41a1.12 1.12 0 01-.84-.37 1.15 1.15 0 01-.36-.84 1.13 1.13 0 01.36-.85 1.15 1.15 0 01.84-.36 1.23 1.23 0 011.21 1.21 1.15 1.15 0 01-.36.84 1.1 1.1 0 01-.85.36zm.9 2.31V48h-1.79V35.89zm3 12.1V35.89h1.79v1.43a4.38 4.38 0 011.72-1.23 5.16 5.16 0 012.15-.44 4.49 4.49 0 014.66 4.69V48H154v-7.3a3.5 3.5 0 00-.91-2.54 3.34 3.34 0 00-2.47-.94 3.87 3.87 0 00-2 .49 3.77 3.77 0 00-1.38 1.37V48zm14.85-12.1v7.3a3.48 3.48 0 00.92 2.53 3.26 3.26 0 002.46.94 3.71 3.71 0 003.34-1.88v-8.9h1.78V48h-1.74v-1.4a4.46 4.46 0 01-1.67 1.23 5.17 5.17 0 01-2.12.41 4.46 4.46 0 01-4.69-4.68v-7.67zM170.52 48l4.76-6.23-4.52-5.87h2.13l3.43 4.54 3.43-4.54h2.05l-4.47 5.85 4.78 6.25H180l-3.7-4.92-3.75 4.92zm13.17-12.82v-2.62h-.87v-.51h.87V31l.59-.15v1.17h1.21v.51h-1.21V35a.68.68 0 00.14.47.71.71 0 00.48.14 1.39 1.39 0 00.3 0 1.72 1.72 0 00.28-.08v.52a1.13 1.13 0 01-.34.08h-.36a1.17 1.17 0 01-.81-.25.92.92 0 01-.28-.7zm2.44.91v-4h.6v.45a1.4 1.4 0 01.52-.39 1.59 1.59 0 01.66-.14 1.45 1.45 0 01.75.2 1.35 1.35 0 01.52.54 1.64 1.64 0 01.6-.55 1.58 1.58 0 01.78-.19 1.42 1.42 0 011.07.44 1.54 1.54 0 01.42 1.12v2.56h-.59v-2.47a1.26 1.26 0 00-.28-.85 1 1 0 00-.77-.31 1 1 0 00-.6.17 1.39 1.39 0 00-.47.49v.18a1.15 1.15 0 010 .19v2.56h-.59v-2.43a1.21 1.21 0 00-.28-.85 1 1 0 00-.75-.31 1.18 1.18 0 00-.59.15 1.29 1.29 0 00-.44.43v3z" transform="translate(-7.95 -23.51)"/></svg>