<svg xmlns="http://www.w3.org/2000/svg" width="91.037" height="91.037"><g id="roundcube" transform="translate(-.5 -.5)" fill-rule="evenodd"><path id="Path_29941" data-name="Path 29941" d="M78.019 62.162L32.5 35.875V7.81L78.019 34.1v28.062z" transform="translate(13.519 3.088)" fill="#37beff"/><path id="Path_29942" data-name="Path 29942" d="M.5 62.162l45.519-26.287V7.81L.5 34.1z" transform="translate(0 3.088)" fill="#404f54"/><path id="Path_29943" data-name="Path 29943" d="M41.853.5A31.493 31.493 0 1110.36 31.993 31.493 31.493 0 0141.853.5" transform="translate(4.165)" fill="#ccc"/><path id="Path_29944" data-name="Path 29944" d="M36.691.5a31.49 31.49 0 110 62.979C26.734 56.758 22.58 43.231 22.58 32.007S26.705 7.228 36.691.5" transform="translate(9.328)" fill="#e5e5e5"/><path id="Path_29945" data-name="Path 29945" d="M78.019 26.29L32.5 52.577v28.065l45.519-26.287z" transform="translate(13.519 10.895)" fill="#37beff"/><path id="Path_29946" data-name="Path 29946" d="M.5 26.29l45.519 26.287v28.065L.5 54.355z" transform="translate(0 10.895)" fill="#404f54"/></g></svg>