<svg xmlns="http://www.w3.org/2000/svg" id="sage_pay" data-name="sage pay" width="187.16" height="70.89"><defs><style>.cls-1{fill:#00dc00;fill-rule:evenodd}</style></defs><g id="Symbols"><g id="logo_sage" data-name="logo/sage"><g id="logo-sage"><path id="Fill-6" class="cls-1" d="M156.63 27.2c0-8.91 6.67-13.21 13.86-13.21s13.68 4.38 13.68 13.21zm12.59-22.65c-14.66 0-24.25 10.18-24.25 27 0 20.84 14.67 26.81 25.15 26.81a28.69 28.69 0 0020.85-9l-6.75-6.85a19.27 19.27 0 01-13.93 5.21c-8.17 0-13.68-4.84-13.68-11.46H193s6.36-31.65-23.8-31.65z" transform="translate(-6.42 -4.55)"/><path id="Fill-7" class="cls-1" d="M36.91 26.31c-4.53-.59-17.68-.06-17.68-6.29 0-3.69 5.51-5.67 10.59-5.67a26.11 26.11 0 0115 4.49l6.82-7.08c-2-1.7-9.53-7.21-21.84-7.21-11.21 0-21.3 6.09-21.3 15.86 0 15 17.41 15 24.68 15.72 4.4.45 8.42.77 8.42 5.25 0 4.17-6.15 6.49-10.91 6.49-7.75 0-12.4-2.65-17-6.9l-7.27 7.64a33 33 0 0023.66 9.72c13 0 22.52-6 22.52-18 0-8-5.14-12.7-15.69-14.06" transform="translate(-6.42 -4.55)"/><path id="Fill-8" class="cls-1" d="M86 38.49c0 10-6.85 9.43-13 9.43s-10.15-1.71-10.15-6.18c0-4.16 3.22-5.54 9.88-5.54H86zM74.54 4.55a31.32 31.32 0 00-20.08 7.2l6.88 7.12a21.23 21.23 0 0113.28-4.46c8.7 0 11.29 3.59 11.29 7.65v5.06H70.42c-5.73 0-17 1.49-17 14.55 0 9.59 5.32 16.65 18 16.65 6.37 0 11.18-2.13 14.5-6.25v5.2h11.24V22.83c0-12-7.13-18.28-22.62-18.28z" transform="translate(-6.42 -4.55)"/><path id="Fill-9" class="cls-1" d="M132.45 30.6a50.18 50.18 0 01-.38 8.24c-.71 3.24-4.48 7.5-11.32 7.5-1.71 0-10.48-1-11.46-8.39a54.15 54.15 0 01-.35-7.35c0-5.79.24-7.63.54-9.1.61-2.92 4.5-7.21 11.27-7.21 8.29 0 10.95 5.53 11.34 7.66a64.6 64.6 0 01.36 8.65zm0-25v5.6a18.66 18.66 0 00-15-6.68c-11 0-16.58 6-18.49 12.4-.71 2.38-1 6.92-1 13.62 0 6.32.06 12.07 2.31 16.49 3.14 6.18 10.77 9.64 17.14 9.64a19.63 19.63 0 0015-6.41v3.14a9.39 9.39 0 01-3.7 8 14.75 14.75 0 01-9.65 3.1c-3.82 0-7.47-2-9.56-3.46l-7.76 7.59c5 4 11 6.71 17.54 6.77a26.89 26.89 0 0017.27-5.72c4.64-3.57 7.57-10.29 7.57-17.41V5.63z" transform="translate(-6.42 -4.55)"/></g></g></g></svg>