<svg xmlns="http://www.w3.org/2000/svg" width="87.621" height="39.553"><defs><linearGradient id="linear-gradient" x1=".5" x2=".5" y2="1" gradientUnits="objectBoundingBox"><stop offset="0" stop-color="#1d2e3e"/><stop offset="1" stop-color="#15212d"/></linearGradient><linearGradient id="linear-gradient-2" x1=".345" y1="-.144" x2=".656" y2="1.156" gradientUnits="objectBoundingBox"><stop offset=".17" stop-color="#feffbf"/><stop offset=".28" stop-color="#feffb9"/><stop offset=".43" stop-color="#feffa8"/><stop offset=".6" stop-color="#ffff8d"/><stop offset=".78" stop-color="#ffff69"/></linearGradient><linearGradient id="linear-gradient-3" x1=".385" y1=".102" x2=".605" y2=".802" gradientUnits="objectBoundingBox"><stop offset="0" stop-color="#91b4c8"/><stop offset="1" stop-color="#456689"/></linearGradient><linearGradient id="linear-gradient-4" x1=".343" y1=".185" x2=".647" y2=".861" gradientUnits="objectBoundingBox"><stop offset="0" stop-color="#ea0"/><stop offset="1" stop-color="#c23a00"/></linearGradient><linearGradient id="linear-gradient-5" x1=".254" y1=".012" x2=".66" y2=".948" gradientUnits="objectBoundingBox"><stop offset="0" stop-color="#466989"/><stop offset="1" stop-color="#162333"/></linearGradient></defs><g id="serendipity" transform="translate(-.5 -18.08)"><path id="Path_29949" data-name="Path 29949" d="M16.847 47.68C5.47 49.336.5 44.243.5 39.985c0-3.546 2.492-5.914 6.038-7.927-.479-7.119 7.106-9.365 16.333-9.72 1.547-1.889 5.216-3.669 10.953-3.669a18.811 18.811 0 017.694 1.068c1.068-.821 3.4-1.657 7.585-1.657 5.2 0 9.118.835 10.884 2.848a10.2 10.2 0 013.327-.356c6.024 0 13.253 1.657 14.553 6.75 5.463 1.6 10.254 4.025 10.254 8.995s-4.97 7.215-8.214 7.215a7.858 7.858 0 01.246 1.78c0 6.394-6.626 9.83-14.8 9.83-9.474 0-15.06-4.025-15.06-4.614 0 .821-5.558 7.106-17.278 7.106-10.966.04-16.168-5.434-16.168-9.954z" fill="url(#linear-gradient)"/><path id="Path_29950" data-name="Path 29950" d="M48.4 43.66c-.835 12.322-34.1 12.322-28.9-1.369C.081 46.193-1.7 34.473 9.555 31.338c-4.737-5.682 6.5-8.762 13.965-8.214 1.08-4.024 11.842-5.217 17.291-2.369 1.889-2.369 14.211-3.436 17.4.945 5.8-.835 16.347-.712 16.429 5.914 4.026.586 10.06 2.916 10.06 6.517 0 2.807-3.313 4.97-9.474 5.093 4.974 8.406-4.61 10.953-10.306 10.953-8.009 0-13.568-2.6-16.525-6.517z" transform="translate(.775 .227)" fill="url(#linear-gradient-2)"/><path id="Path_29951" data-name="Path 29951" d="M18.5 30.174c4.189 0 7.585 1.369 7.585 3.08 0 2.6-6.366 5.682-14.211 5.682-4.258 0-7.694-1.369-7.694-3.08 0-2.368 6.407-5.682 14.32-5.682zm-8.406-3.258c0 1.232 2.916 2.245 6.517 2.245 5.75 0 10.405-2.013 10.405-3.669 0-1.109-2.807-2.013-6.27-2.013-5.86-.054-10.652 1.958-10.652 3.437zm15.156-4.983c0 .972 2.807 1.78 6.27 1.78 4.326 0 7.817-1 7.817-2.245 0-.917-2.807-1.657-6.27-1.657-4.326-.055-7.817 1.123-7.817 2.067z" transform="translate(1.358 .638)" fill="url(#linear-gradient-3)"/><path id="Path_29952" data-name="Path 29952" d="M30.3 36.156c6.079 0 10.953 2.478 10.953 5.558 0 3.929-6.462 7.106-14.444 7.106-5.887 0-10.651-2.588-10.651-5.8s6.353-6.859 14.143-6.859zm-6.284-6.845c0 3.012 6.517 5.476 14.567 5.476 8.516 0 15.388-2.437 15.388-5.476s-6.5-5.476-14.553-5.476c-8.516 0-15.4 2.437-15.4 5.449zm19.906-9.953c-3.669 0-6.64.753-6.64 1.657 0 1.123 2.807 2.013 6.284 2.013 5.791 0 7.448-.739 7.448-1.657s-3.176-2.04-7.092-2.04z" transform="translate(5.78 .461)" fill="url(#linear-gradient-4)"/><path id="Path_29953" data-name="Path 29953" d="M49.888 21.24c4.847 0 9.584 1.26 9.584 2.834 0 1.054-2.861 1.9-6.394 1.9-4.491 0-9.584-1.273-9.584-2.848 0-1.037 2.861-1.886 6.394-1.886zm12.554 13.253c3.984 0 7.215-1.218 7.215-2.738 0-2.615-7.461-4.737-13.143-4.737-3.861 0-6.982 1.177-6.982 2.615 0 2.697 6.982 4.86 12.91 4.86zm-15.279-.465c-5.476 0-9.953 1.958-9.953 4.381 0 3.984 7.106 7.215 14.334 7.215 5.682 0 10.172-2.108 10.172-4.737 0-3.792-7.092-6.845-14.553-6.845z" transform="translate(13.549 1.166)" fill="url(#linear-gradient-5)"/></g></svg>