<svg xmlns="http://www.w3.org/2000/svg" width="70.236" height="70.811"><g id="global-logo-home" transform="translate(98.947 -95.76)"><g id="XMLID_543_" transform="translate(-98.947 95.76)" fill="#005a92"><path id="XMLID_14_" d="M-70.416 143.046a12.158 12.158 0 003.164-16.9L-77.275 133a6.088 6.088 0 01-8.451-1.592 6.092 6.092 0 011.592-8.451l9.159-6.269 5.876-4.029a12.158 12.158 0 003.164-16.9l-10.023 6.879-15.035 10.279-.02.02a18.228 18.228 0 00-4.736 25.353 18.22 18.22 0 0025.333 4.756z" transform="translate(98.947 -95.76)"/><path id="XMLID_13_" d="M-74.474 109.3a.271.271 0 00-.079.059l.079-.059a12.158 12.158 0 00-3.164 16.9l10.023-6.859a6.054 6.054 0 018.451 1.592 6.07 6.07 0 01-1.572 8.451l-9.158 6.269-5.9 4.029a12.158 12.158 0 00-3.164 16.9l10.023-6.859 15.035-10.3a18.247 18.247 0 004.756-25.353 18.175 18.175 0 00-25.33-4.77" transform="translate(116.193 -85.775)"/></g></g></svg>