<svg xmlns="http://www.w3.org/2000/svg" width="100.016" height="39.762"><g id="simplemachinesforum" transform="translate(-.49 -19.79)"><path id="Path_29954" data-name="Path 29954" d="M99.473 19.79v.188c.219.688.454 1.377.673 2.049.125.391.25.751.36 1.126v.141l-1.564.5L67.251 34.2l-13.406 4.282-.282.094 11.67 20.976H31.821c0-.094.078-.188.109-.266l9.135-16.424.141-.282L1.679 55.423l-.094-.266c-.3-.985-.766-2.19-1.095-3.254l1.017-.3 37.15-12.073 4.9-1.564.3-.094 4.686-8.372.829 1.455c.25.485.532.97.8 1.455l.8 1.439.813 1.455.36-.109 26.826-8.713zM48.449 40.563a2.237 2.237 0 10-1.583-.672 2.252 2.252 0 001.583.672z"/><path id="Path_29955" data-name="Path 29955" d="M43.774 46.012a1.564 1.564 0 01-1.564-1.423 1.126 1.126 0 01.375-.86 1.564 1.564 0 012.331 0 1.236 1.236 0 010 1.736 1.564 1.564 0 01-1.142.547zM43.7 43.54a.516.516 0 00-.219 0 1.111 1.111 0 00-.845 1.564 1.251 1.251 0 001.689.485.97.97 0 00.344-.266 1.048 1.048 0 00-.094-1.564.235.235 0 00-.094 0 1.173 1.173 0 00-.782-.25z" transform="translate(23.539 13.212)"/><path id="Path_29956" data-name="Path 29956" d="M44.167 45.2h-.391l-.375-.626h-.282v.626h-.329v-1.56h1.079a.391.391 0 01.36.375.407.407 0 01-.266.454h-.156zm-1.048-.876h.547a.2.2 0 10.016-.407h-.563z" transform="translate(23.866 13.456)"/></g></svg>