<svg xmlns="http://www.w3.org/2000/svg" id="Group_4434" data-name="Group 4434" width="72.028" height="78.594"><path id="Path_29957" data-name="Path 29957" d="M-453.508 169.009c0-6.876.008-13.752-.016-20.628a4.475 4.475 0 00-.372-1.227 4.234 4.234 0 00-.418 1.233c-.034 3.454 0 6.908-.025 10.362a6.953 6.953 0 01-7.306 7.291c-1.343 0-2.688.037-4.029-.013a9.014 9.014 0 01-2.167-.319 6.423 6.423 0 01-4.889-6.525c0-2.239-.009-4.477 0-6.716a2.591 2.591 0 012.884-2.915q1.1-.013 2.207 0a2.55 2.55 0 012.789 2.813c.016 1.311 0 2.623.01 3.934a3.73 3.73 0 00.109.946 1.106 1.106 0 001.315.964 1.128 1.128 0 001.016-1.2c.048-1.053.024-2.11.025-3.165 0-3.006-.017-6.013.009-9.019a6.433 6.433 0 015.671-6.227 19.8 19.8 0 012.386-.146c.688.012.919-.258 1.043-.922a31.98 31.98 0 011.137-5.031 20.7 20.7 0 0115.411-13.829 20.843 20.843 0 0113.442.97 49.054 49.054 0 015.439 3.324 3.757 3.757 0 001.684.655c2.557.067 5.118.086 7.674.007a7.943 7.943 0 017.77 7.831c-.162 7.032-.042 14.071-.046 21.107a7.7 7.7 0 01-7.632 7.73c-.576.006-1.156-.038-1.725.022a2.444 2.444 0 00-.76.382c.2.209.365.529.609.61a7.2 7.2 0 013.322 1.993 6.578 6.578 0 011.766 4.43 18.542 18.542 0 00.021 1.917 2.128 2.128 0 00.442 1.089 2.31 2.31 0 01.535 2.393c-.309.94-.51 1.919-.877 2.833-.153.382-.6.87-.937.892a1.437 1.437 0 01-1.026-.775c-.464-.978-.769-2.031-1.17-3.04a2.123 2.123 0 01.656-2.412 2.494 2.494 0 00.633-1.358c.175-1.928.037-3.807-1.643-5.146a9.682 9.682 0 00-1.617-1.009c-.445-.228-.743-.043-.758.486-.008.287-.008.576-.008.863 0 8.347-.114 16.7.05 25.04a6.931 6.931 0 01-7.046 7.071 43.456 43.456 0 01-5.708-.365 6.465 6.465 0 01-4.757-6.157c-.027-1.759 0-3.518-.011-5.277a3.751 3.751 0 00-3.827-3.923 3.741 3.741 0 00-3.671 3.972c0 1.5-.043 3.008.007 4.509a6.92 6.92 0 01-7.212 7.244c-1.084-.06-2.174-.012-3.262-.015a6.89 6.89 0 01-7.15-7.217q-.005-10.167.003-20.337zm3.747 24.378l.79.577a7.506 7.506 0 001.7.573c1.17.107 2.353.085 3.53.09 3.372.014 4.814-1.009 5.886-4.156.085-.867.24-1.734.24-2.6 0-1.318-.108-2.636-.17-3.954a2 2 0 01-.007-.38 5.6 5.6 0 016.129-4.606 5.506 5.506 0 015.2 5.4c.03 1.759 0 3.518.012 5.277a4.919 4.919 0 005.055 5.015c1.087.01 2.175.014 3.262.006 3.322-.023 5.293-2.009 5.294-5.345q.006-13.96 0-27.921v-1.138c-4.173.381-7.941-.31-11.1-3.025a13.108 13.108 0 01-4.638-10.357h1.887c.023.316.043.569.059.821a11.083 11.083 0 0010.4 10.647c2.481.183 4.987.06 7.481.049a5.927 5.927 0 006.088-6.141q.01-10.266 0-20.533a5.917 5.917 0 00-5.929-6.111 164.758 164.758 0 00-7.1.005 11.051 11.051 0 00-10.514 8.172 35.112 35.112 0 00-.583 3.54h-1.763a12.668 12.668 0 011.02-5.663 13.7 13.7 0 017.8-7.418c-3.769-3.846-11.314-5.368-17.6-3.341-9.34 3.013-13.781 9.807-14.2 19.547-1.276 0-2.551-.023-3.824 0a4.849 4.849 0 00-5.112 5.219c0 3.742.007 7.484 0 11.226a3.078 3.078 0 01-2.413 3.344c-2.164.464-3.79-.928-3.856-3.343-.039-1.438-.017-2.878-.015-4.317 0-.706-.324-1.074-1.044-1.071-.64 0-1.279-.008-1.919 0-.789.009-1.138.393-1.126 1.2.029 2.11.005 4.221.014 6.332a4.888 4.888 0 004.923 5.043c1.534.037 3.071.038 4.6 0a4.635 4.635 0 003.981-2.1l.706-1.461.148-.576c.033-.346.093-.691.094-1.037.009-3.6.034-7.2 0-10.8a2.856 2.856 0 011.685-2.932l.557-.123 1.387-.026.915-.006a.162.162 0 01.043.115q-.012 22.13-.013 44.261a3.124 3.124 0 00.266.868l.164.581.275.686a.052.052 0 00.034.081l.4.768.886 1.029zm43.479-18.861h.342c.206-.713.465-1.415.6-2.141.108-.585-.295-.906-.848-.876-.517.028-.97.31-.821.913.177.716.478 1.404.726 2.104z" transform="translate(472.734 -117.998)" fill="#639038"/><path id="Path_29958" data-name="Path 29958" d="M-443.067 199.879a.052.052 0 01-.034-.081l.025-.687a1.653 1.653 0 00-.386-1.908c-.015-.414-.043-.828-.043-1.241q-.006-20.78-.019-41.56a3.991 3.991 0 00-.268-1 .162.162 0 00-.043-.115l-.915.006-1.387.026-.556-.057c-1.55.479-1.911.946-1.913 2.529q-.007 5.7 0 11.392a8.023 8.023 0 00.132 1.031l-.148.576-.706 1.461a4.636 4.636 0 01-3.981 2.1 84.995 84.995 0 01-4.6 0 4.888 4.888 0 01-4.923-5.043c-.009-2.111.015-4.222-.014-6.332-.011-.811.338-1.195 1.126-1.2.639-.007 1.279 0 1.919 0 .72 0 1.045.365 1.044 1.07 0 1.439-.024 2.879.015 4.317.066 2.415 1.692 3.807 3.856 3.343a3.078 3.078 0 002.413-3.344c.012-3.742 0-7.484 0-11.226a4.849 4.849 0 015.112-5.219c1.274-.028 2.548 0 3.824 0 .417-9.741 4.858-16.534 14.2-19.547 6.283-2.027 13.829-.505 17.6 3.341a13.7 13.7 0 00-7.8 7.418 12.667 12.667 0 00-1.02 5.663h1.763a35.112 35.112 0 01.583-3.54 11.051 11.051 0 0110.514-8.172c2.365-.058 4.734-.049 7.1-.005a5.917 5.917 0 015.929 6.111q.007 10.266 0 20.533a5.927 5.927 0 01-6.088 6.141c-2.494.012-5 .135-7.481-.049a11.083 11.083 0 01-10.4-10.647c-.016-.253-.036-.505-.059-.821h-1.887a13.108 13.108 0 004.638 10.357c3.156 2.715 6.924 3.407 11.1 3.025v29.059c0 3.336-1.972 5.321-5.294 5.345-1.087.008-2.175 0-3.262-.006a4.919 4.919 0 01-5.055-5.015c-.017-1.759.018-3.518-.012-5.277a5.506 5.506 0 00-5.2-5.4 5.6 5.6 0 00-6.129 4.606 2 2 0 00.007.38l-.07 6.554c-1.073 3.147-2.514 4.17-5.886 4.156-1.178-.005-2.361.018-3.53-.09a7.5 7.5 0 01-1.7-.573l-.79-.578-.006-.006-.886-1.029zm40.422-64.413c-.721.1-1.3.23-1.337 1.053s.472 1.09 1.235 1.093a7.136 7.136 0 011.422.183 3.142 3.142 0 012.907 3.059c.051.315-.021.724.153.927a1.869 1.869 0 001.075.682c.243.023.721-.44.776-.743a5.1 5.1 0 00-2.777-5.213 32.858 32.858 0 00-3.454-1.041zm-28.516 9.853a2.4 2.4 0 00-2.426-2.432 2.4 2.4 0 00-2.359 2.415 2.374 2.374 0 002.437 2.413 2.323 2.323 0 002.348-2.396z" transform="translate(464.744 -126.294)" fill="#fcfdfb"/><path id="Path_29959" data-name="Path 29959" d="M-363.63 259.248a3.992 3.992 0 01.268 1q.023 20.78.019 41.56c0 .414.028.828.043 1.241q0 .57-.008 1.14l.018.19h-.088a3.124 3.124 0 01-.266-.868q-.007-22.132.014-44.263z" transform="translate(384.581 -232.139)" fill="#598134"/><path id="Path_29960" data-name="Path 29960" d="M-129.673 399.82c-.248-.7-.55-1.388-.728-2.107-.149-.6.3-.885.821-.913.553-.03.956.292.848.876-.134.726-.394 1.428-.6 2.141z" transform="translate(196.124 -343.292)" fill="#eef8e3"/><path id="Path_29961" data-name="Path 29961" d="M-388.526 273.465a8.029 8.029 0 01-.132-1.031q-.015-5.7 0-11.392c0-1.583.363-2.05 1.913-2.529v.181a2.856 2.856 0 00-1.685 2.932c.038 3.6.013 7.2 0 10.8-.003.348-.063.694-.096 1.039z" transform="translate(404.801 -231.545)" fill="#e9f6d8"/><path id="Path_29962" data-name="Path 29962" d="M-291.021 468.023l.07-6.554c.062 1.318.169 2.636.17 3.954 0 .867-.155 1.734-.24 2.6z" transform="translate(325.895 -395.55)" fill="#597d31"/><path id="Path_29963" data-name="Path 29963" d="M-362.182 488.611q0-.57.008-1.14a1.654 1.654 0 01.386 1.908h-.3l-.164-.581h.088c.013-.021.039-.046.035-.063a.771.771 0 00-.053-.124z" transform="translate(383.455 -416.562)" fill="#e9f6d8"/><path id="Path_29964" data-name="Path 29964" d="M-392.386 340.885l.706-1.461z" transform="translate(407.806 -296.928)" fill="#e9f6d8"/><path id="Path_29965" data-name="Path 29965" d="M-357.684 505.423l.886 1.029z" transform="translate(379.764 -431.069)" fill="#e7f5d5"/><path id="Path_29966" data-name="Path 29966" d="M-353.035 510.814l.79.577z" transform="translate(376.008 -435.425)" fill="#e7f5d5"/><path id="Path_29967" data-name="Path 29967" d="M-359.787 501.416l.4.768z" transform="translate(381.464 -427.831)" fill="#e7f5d5"/><path id="Path_29968" data-name="Path 29968" d="M-368.561 258.654l.915-.006z" transform="translate(388.554 -231.655)" fill="#e7f5d5"/><path id="Path_29969" data-name="Path 29969" d="M-361.4 497.416h.3l-.025.687z" transform="translate(382.766 -424.597)" fill="#e7f5d5"/><path id="Path_29970" data-name="Path 29970" d="M-378.686 258.694v-.181l.556.057z" transform="translate(396.736 -231.545)" fill="#e7f5d5"/><path id="Path_29971" data-name="Path 29971" d="M-154.8 165.791a32.865 32.865 0 013.454 1.041 5.1 5.1 0 012.777 5.213c-.055.3-.533.767-.776.743a1.868 1.868 0 01-1.075-.682c-.174-.2-.1-.613-.153-.927a3.142 3.142 0 00-2.907-3.059 7.136 7.136 0 00-1.422-.183c-.763 0-1.267-.268-1.235-1.093s.617-.944 1.337-1.053z" transform="translate(216.898 -156.619)" fill="#66903c"/><path id="Path_29972" data-name="Path 29972" d="M-317.894 206.887a2.323 2.323 0 01-2.348 2.4 2.374 2.374 0 01-2.437-2.413 2.4 2.4 0 012.359-2.415 2.4 2.4 0 012.426 2.428z" transform="translate(351.478 -187.862)" fill="#64903a"/><path id="Path_29973" data-name="Path 29973" d="M-361.889 493.409a.774.774 0 01.053.128c0 .017-.022.042-.035.063z" transform="translate(383.162 -421.36)" fill="#e7f5d5"/></svg>