<svg xmlns="http://www.w3.org/2000/svg" width="87" height="92.192"><g id="ObFmHx" transform="translate(465.902 -180.271)"><g id="Group_4435" data-name="Group 4435" transform="translate(-465.902 180.271)"><path id="Path_29974" data-name="Path 29974" d="M-387.183 253.126c.566 2.815 1.282 5.611 1.656 8.452a39.612 39.612 0 01.425 8.088 57.266 57.266 0 01-1.647 10.377c-1.356 5.094-3.794 9.791-8.644 12.325-2.97 1.552-6.449 2.124-9.689 3.17-2.119.684-4.425 1.089-6.286 2.215-4.779 2.894-9.605 2.918-14.512.782a61.664 61.664 0 00-14.548-4.8c-5.994-1-10.838-4.155-12.611-10.507-.44-1.574-1.25-1.927-2.725-1.926a10.762 10.762 0 01-2.827-.776c.422-.152.853-.282 1.263-.461 1.8-.787 2.531-1.939 2.142-3.551a3.028 3.028 0 00-3.184-2.371c-2.895-.129-4.061 1.176-3.865 4.375-1.936-.491-2.555-2.2-2.992-3.745-1.107-3.914-1.014-7.77 1.516-11.243l2.924.215-.141-3 1.1-.127c1.695 2.04 2.781 1.888 4.016-.563.307-.261.85-.492.888-.787.627-4.893 3.03-8.9 6.11-12.6a5.71 5.71 0 00.637-1.44 8.764 8.764 0 002.322-.533 27.52 27.52 0 0112.1-3.655c9.379-.377 15.97 4.227 20.8 11.9a23.091 23.091 0 002.383 2.75c.9.588 1.758 1.25 2.7 1.75 3.428 1.81 6.885 3.565 10.332 5.342a.753.753 0 00.06.2c.02.032.086.037.132.053l-.23-.212c-.689-1.143-1.321-2.325-2.076-3.423-2.384-3.468-4.815-6.905-7.562-10.833zm-4.911 23.893c.428-.069 1.128 0 1.242-.227q1.734-3.458 3.244-7.024c.051-.121-.773-.613-1.189-.932-1.518.484-3.011 1.09-4.562 1.418a2.227 2.227 0 00-2.028 2.377 3.629 3.629 0 00-3.915-.886c-3.174.935-6.394 1.712-9.6 2.554-2.354.711-2.441.967-.984 2.641a16.336 16.336 0 007.6 4.917 6.739 6.739 0 003.076.206c3.128-.558 5.225-2.682 7.116-5.044zm-27.79 5.374v-.016c.725.039 1.451.133 2.173.1a18.782 18.782 0 002.013-.291 15.957 15.957 0 00-.828-1.63c-1.936-2.959-3.843-5.939-5.878-8.83a3.232 3.232 0 01-.38-3.514c1.456-3.416 2.793-6.883 4.138-10.346a5.436 5.436 0 00.142-1.466 5.985 5.985 0 00-1.292.073c-3.4.944-6.807 1.889-10.192 2.9a4.335 4.335 0 01-4.662-1.063c-2.448-2.285-5.129-4.319-7.7-6.477-.98-.823-1.748-1.522-1.777.626-.046 3.349-.385 6.7-.364 10.045.013 2.029-.508 3.386-2.417 4.378a72.15 72.15 0 00-6.683 4.182c-.746.5-1.848.746-1.541 2.207a2.5 2.5 0 001.918 1.989c2.641.954 5.247 2.017 7.922 2.859a3.4 3.4 0 012.436 2.857c.82 3.434 1.742 6.844 2.645 10.257.155.586.418 1.143.631 1.714a12.9 12.9 0 001.488-1.36c2.223-2.751 4.463-5.491 6.578-8.323a3.189 3.189 0 013.223-1.425c2.791.274 5.604.379 8.408.554zm-3.065 8.983c.723.344 1.265.657 1.845.869 7.22 2.636 13.9-1.056 17.651-4.7a2.524 2.524 0 00.661-.848 5.591 5.591 0 00.167-1.263 9 9 0 00-1.153.287c-2.763 1.078-5.457 2.385-8.293 3.209-3.439 1-6.997 1.595-10.878 2.447z" transform="translate(465.902 -207.85)" fill="#f2c7bc"/><path id="Path_29975" data-name="Path 29975" d="M-399.975 232.845a23.093 23.093 0 01-2.383-2.75c-4.826-7.677-11.416-12.281-20.8-11.9a27.52 27.52 0 00-12.1 3.656 8.765 8.765 0 01-2.322.533l-.144-.974c.021-.078.082-.173.057-.23a2.8 2.8 0 00-.246-.39l-.238-.587a14.91 14.91 0 00-.266-1.868c-1.294-4.788-2.577-9.58-3.956-14.344-.35-1.207-.3-1.994.834-2.764 4.989-3.379 9.923-6.841 14.888-10.256a3.2 3.2 0 01.958-.276 3.4 3.4 0 01.041 1.23c-.591 1.609-1.311 3.171-1.888 4.785-.52 1.458-.914 2.961-1.363 4.444 1.468-.675 2.952-1.314 4.4-2.031 4.858-2.406 9.7-4.839 14.552-7.261.067.072.135.141.207.208a22.4 22.4 0 01-.915 2.513c-1.012 2.026-2.117 4.005-3.148 6.023a5.6 5.6 0 00-.314 1.266 5.3 5.3 0 001.232.017c4.663-1.028 9.318-2.1 13.982-3.122 1.5-.331 3.026-.57 4.54-.851l.253.621-10.985 8.091 23.727 4.1.115.4-16.762 7.89c.952.548 1.4.836 1.875 1.075 2.107 1.06 4.24 2.071 6.316 3.187.448.241.7.845 1.041 1.281a10.022 10.022 0 01-1.657.608c-.316.061-.681-.218-1.035-.274-2.853-.448-5.708-.879-8.563-1.315a.683.683 0 00-.092-.2c-.03-.031-.106-.019-.162-.025l.235.24a11.127 11.127 0 00.823 1.634c2.413 3.331 4.858 6.638 7.293 9.953l-.269.37z" transform="translate(455.307 -185.002)" fill="#0c0c0b"/><path id="Path_29976" data-name="Path 29976" d="M-403.508 218.852c2.855.436 5.71.868 8.563 1.315.354.056.72.334 1.035.274a10.022 10.022 0 001.657-.608c-.342-.437-.593-1.041-1.041-1.281-2.076-1.116-4.209-2.127-6.316-3.187-.474-.239-.923-.527-1.875-1.075l16.762-7.89-.115-.4-23.727-4.1 10.985-8.091-.253-.621c-1.514.281-3.037.52-4.539.851-4.664 1.026-9.319 2.094-13.982 3.122a5.3 5.3 0 01-1.232-.017 5.6 5.6 0 01.314-1.266c1.031-2.017 2.137-4 3.148-6.023a22.4 22.4 0 00.915-2.513l.121-.485-.328.277c-4.85 2.422-9.694 4.855-14.552 7.261-1.447.716-2.932 1.356-4.4 2.031.449-1.483.843-2.986 1.363-4.444.577-1.613 1.3-3.176 1.888-4.785a3.4 3.4 0 00-.041-1.23 3.2 3.2 0 00-.958.276c-4.966 3.414-9.9 6.877-14.888 10.256-1.138.77-1.184 1.558-.834 2.764 1.38 4.764 2.662 9.556 3.956 14.344a14.9 14.9 0 01.266 1.868c-1.373-2.926-2.779-5.837-4.11-8.781-1.42-3.142-2.745-6.328-4.165-9.47-.425-.942-.545-1.557.543-2.2 8.44-4.978 16.845-10.018 25.753-14.748l-5.115 11.25a15.4 15.4 0 001.812-.6q9.158-4.52 18.3-9.074a17.046 17.046 0 011.716-.832 14.514 14.514 0 011.745-.413 7.494 7.494 0 01-.65 1.867c-2.352 3.438-4.763 6.835-7.583 10.856l28.173-5.148.251.541-17.431 11.2.1.5 30.5 3.928-20.955 8.476c-.6.167-1.221.293-1.806.509-.949.35-1.13.888-.188 1.47q5.97 3.687 11.96 7.341a26.1 26.1 0 013.409 2.546c1.04 1.062-.264.721-.7.866l-20.029-4.561c2.747 3.928 5.178 7.365 7.562 10.833.755 1.1 1.387 2.28 2.076 3.423l.039-.037c-3.446-1.776-6.9-3.532-10.332-5.342-.946-.5-1.805-1.162-2.7-1.75l7.761 2.713.269-.37c-2.435-3.315-4.88-6.623-7.293-9.953a11.127 11.127 0 01-.823-1.634z" transform="translate(458.772 -180.271)" fill="#772376"/><path id="Path_29977" data-name="Path 29977" d="M-337.153 249.195q-5.981-3.668-11.96-7.341c-.942-.582-.761-1.12.188-1.47.585-.216 1.2-.342 1.806-.509 4.2 2.168 7.989 4.775 9.966 9.32z" transform="translate(413.163 -207.331)" fill="#f2c7bc"/><path id="Path_29978" data-name="Path 29978" d="M-459.2 306.054c-.2-3.2.97-4.5 3.865-4.375a3.028 3.028 0 013.184 2.371c.389 1.612-.346 2.764-2.142 3.551-.41.179-.841.309-1.263.461zm6.27-1.374c-1.363-.815-2.128-1.63-2.859-1.6a2.437 2.437 0 00-1.729 1.6c-.2 1.207.863 1.753 1.937 1.547.718-.139 1.347-.761 2.647-1.547z" transform="translate(462.871 -235.385)" fill="#0c0c0b"/><path id="Path_29979" data-name="Path 29979" d="M-459.264 277l.141 3-2.924-.215a1.692 1.692 0 01-.066-.254c-.3-2.894-.299-2.894 2.849-2.531z" transform="translate(464.238 -224.111)" fill="#423d3d"/><path id="Path_29980" data-name="Path 29980" d="M-450.756 273.957c-1.235 2.451-2.321 2.6-4.016.563l1.563-2.872z" transform="translate(460.849 -221.756)" fill="#423d3d"/><path id="Path_29981" data-name="Path 29981" d="M-434.132 245.81a2.8 2.8 0 01.246.39c.025.057-.036.152-.057.23a2.785 2.785 0 01-.292-.394c-.023-.045.066-.149.103-.226z" transform="translate(451.527 -210.025)" fill="#772376"/><path id="Path_29982" data-name="Path 29982" d="M-410.971 290.719c-2.8-.175-5.613-.28-8.407-.554a3.189 3.189 0 00-3.223 1.425c-2.115 2.833-4.355 5.573-6.578 8.323a12.9 12.9 0 01-1.488 1.36c-.213-.571-.476-1.128-.631-1.714-.9-3.414-1.825-6.823-2.645-10.257a3.4 3.4 0 00-2.436-2.857c-2.675-.842-5.281-1.906-7.922-2.859a2.5 2.5 0 01-1.918-1.989c-.306-1.461.8-1.709 1.541-2.207a72.15 72.15 0 016.683-4.182c1.909-.992 2.43-2.349 2.417-4.378-.021-3.348.317-6.7.364-10.045.029-2.149.8-1.45 1.777-.626 2.569 2.157 5.25 4.192 7.7 6.477a4.335 4.335 0 004.662 1.063c3.385-1.008 6.788-1.953 10.192-2.9a5.985 5.985 0 011.292-.073 5.436 5.436 0 01-.142 1.466c-1.344 3.463-2.682 6.929-4.138 10.346a3.232 3.232 0 00.38 3.514c2.035 2.891 3.942 5.871 5.878 8.83a15.957 15.957 0 01.828 1.63 18.782 18.782 0 01-2.013.291c-.721.031-1.448-.063-2.173-.1zm-19.5-10.277a3.733 3.733 0 00-2.8-2.088c-1.292-.267-2.545-.72-3.814-1.092-.585.02-1.651-.554-1.3.781.788 2.979 1.661 5.946 4.414 7.832a12.986 12.986 0 001.229 1.245c2.813 2.194 5.861 3.9 9.421 2.027a50.377 50.377 0 006.4-4.465c.44-.328.627-1 .931-1.508l-1.967-.525c-2.72-.793-5.409-1.73-8.172-2.317a18.225 18.225 0 00-4.345.11z" transform="translate(456.989 -216.176)" fill="#781c76"/><path id="Path_29983" data-name="Path 29983" d="M-349.613 295.76a2.227 2.227 0 012.028-2.377c1.551-.328 3.044-.934 4.562-1.418l-3.3 8.184c-1.891 2.362-3.988 4.487-7.114 5.045a6.739 6.739 0 01-3.076-.206 16.336 16.336 0 01-7.6-4.917c-1.457-1.674-1.369-1.93.984-2.641.894 3.023 3.372 3.942 6.072 4.324a7.5 7.5 0 007.432-2.818 2.294 2.294 0 00.012-3.176z" transform="translate(420.127 -230.979)" fill="#fdfdfd"/><path id="Path_29984" data-name="Path 29984" d="M-347.992 298a2.294 2.294 0 01-.008 3.174 7.505 7.505 0 01-7.432 2.818c-2.7-.383-5.177-1.3-6.072-4.324 3.2-.842 6.422-1.619 9.6-2.554a3.629 3.629 0 013.912.886z" transform="translate(418.505 -233.217)" fill="#0c0c0b"/><path id="Path_29985" data-name="Path 29985" d="M-387.234 328.308c3.881-.852 7.438-1.447 10.878-2.446 2.836-.823 5.53-2.131 8.293-3.209a9 9 0 011.153-.287 5.592 5.592 0 01-.167 1.263 2.525 2.525 0 01-.661.848c-3.747 3.645-10.431 7.336-17.651 4.7-.58-.211-1.122-.525-1.845-.869z" transform="translate(430.187 -244.781)" fill="#423d3d"/><path id="Path_29986" data-name="Path 29986" d="M-330.724 300.149l3.3-8.184c.417.319 1.241.811 1.189.932q-1.509 3.562-3.244 7.024c-.121.227-.821.159-1.245.228z" transform="translate(404.532 -230.979)" fill="#423d3d"/><path id="Path_29987" data-name="Path 29987" d="M-340.76 280.92l.23.212c-.045-.017-.111-.021-.132-.053a.754.754 0 01-.06-.2z" transform="translate(409.088 -225.948)" fill="#772376"/><path id="Path_29988" data-name="Path 29988" d="M-364.918 250.766l-.235-.24c.056.007.132-.006.162.025a.682.682 0 01.092.2z" transform="translate(420.163 -212.166)" fill="#772376"/><path id="Path_29989" data-name="Path 29989" d="M-382.835 192.6l.328-.277-.121.485a5.794 5.794 0 01-.207-.208z" transform="translate(428.19 -185.742)" fill="#0c0c0b"/><path id="Path_29990" data-name="Path 29990" d="M-451.538 305.851c-1.3.786-1.929 1.408-2.651 1.546-1.074.205-2.137-.341-1.937-1.547a2.437 2.437 0 011.729-1.6c.73-.029 1.497.786 2.859 1.601z" transform="translate(461.475 -236.556)" fill="#fdfdfd"/><path id="Path_29991" data-name="Path 29991" d="M-429.444 292.149c1.269.372 2.523.825 3.814 1.092a3.733 3.733 0 012.8 2.089c-.991.874-1.681 1.744-.643 3.107a7.553 7.553 0 006.781 3.2c2.733-.2 5.342-1.049 6.387-4.1l1.967.525c-.3.512-.491 1.18-.931 1.508a50.374 50.374 0 01-6.4 4.465c-3.559 1.875-6.608.168-9.421-2.027a12.986 12.986 0 01-1.229-1.245c-.257-.72-.51-1.441-.771-2.161q-1.179-3.227-2.354-6.453z" transform="translate(449.35 -231.063)" fill="#fdfdfd"/><path id="Path_29992" data-name="Path 29992" d="M-405.777 299.993c-1.044 3.048-3.653 3.9-6.387 4.1a7.553 7.553 0 01-6.781-3.2c-1.038-1.363-.348-2.233.643-3.107a18.224 18.224 0 014.353-.11c2.763.587 5.449 1.524 8.172 2.317z" transform="translate(444.818 -233.519)" fill="#0c0c0b"/><path id="Path_29993" data-name="Path 29993" d="M-430.581 292.061l2.345 6.453c.261.719.515 1.44.771 2.161-2.753-1.886-3.627-4.853-4.414-7.832-.353-1.336.713-.763 1.298-.782z" transform="translate(450.488 -230.975)" fill="#423d3d"/></g></g></svg>