<svg xmlns="http://www.w3.org/2000/svg" id="square" width="189.44" height="46.22"><g id="Layer_2" data-name="Layer 2"><path d="M34.7 44a1.41 1.41 0 01-1.4 1.41h-9.8A1.41 1.41 0 0122.1 44v-9.8a1.4 1.4 0 011.4-1.4h9.8a1.4 1.4 0 011.4 1.4zm8.4 7.36a2.45 2.45 0 01-2.45 2.45H16.14a2.45 2.45 0 01-2.45-2.45V26.84a2.45 2.45 0 012.45-2.45h24.51a2.44 2.44 0 012.45 2.45zM43.8 16H13a7.73 7.73 0 00-7.7 7.7v30.8a7.72 7.72 0 007.7 7.7h30.8a7.72 7.72 0 007.71-7.7V23.68A7.72 7.72 0 0043.8 16m29.1 38.27a10.25 10.25 0 01-7.22-2.91 8.54 8.54 0 01-2.58-6h2.78a5.8 5.8 0 001.76 4.07 7.52 7.52 0 005.28 2.1c3.87 0 7-2.72 7-6 0-2.5-1.36-4.48-8.14-6A12.15 12.15 0 0166 36.75a6.82 6.82 0 01-1.9-5.16c0-4.35 3.9-7.88 8.69-7.88a9.19 9.19 0 016.11 2.22 7.44 7.44 0 012.6 5.66h-2.78c0-2.8-2.66-5.08-5.94-5.08s-5.92 2.32-5.92 5.08c0 2.54.86 4.07 5.61 5.13 5.06 1.17 10.24 3.13 10.25 8.74a8.3 8.3 0 01-2.92 6.28 10.27 10.27 0 01-6.88 2.53zM97.35 34.6a8.39 8.39 0 00-8.6 8.15v.51a8.32 8.32 0 008.13 8.51h.46a8.59 8.59 0 000-17.17m8.25 27.56V50h-.09a9.55 9.55 0 01-8.14 4.18 11 11 0 110-22 9.47 9.47 0 018.14 4.21h.09v-3.67h2.68v29.44zm41.19-27.56a8.37 8.37 0 00-8.58 8.16 4.17 4.17 0 000 .5 8.31 8.31 0 008.12 8.51h.46a8.59 8.59 0 000-17.17M155 53.69V50a9.62 9.62 0 01-8.14 4.18 11 11 0 110-22A9.37 9.37 0 01155 36.4v-3.68h2.68v21zm10.75-12.27v12.27h-2.68v-21h2.68v3h.07c1.18-2.69 3.18-3.33 5.91-3.51V35c-3.68.31-6 2.64-6 6.4m18.03-6.81a8.29 8.29 0 00-8.14 7.18H192a8.33 8.33 0 00-8.23-7.18m10.93 9.59h-19.13a8.31 8.31 0 008.15 7.59 7.91 7.91 0 007.51-5h2.84a10.94 10.94 0 11-10.35-14.64 11.19 11.19 0 0111 11.24v.76m-65.62 9.59v-3.28h-.1a7.16 7.16 0 01-6.74 3.78 9 9 0 01-7.26-3.16c-1.5-1.89-1.85-4.43-1.85-6.79V32.65h2.72v11.59c0 4.35 1.57 7.55 6.39 7.55a6 6 0 004.47-1.7c1.85-1.77 2.19-3.85 2.19-6.31V32.65h2.72v21.07z" transform="translate(-5.28 -15.98)" id="Layer_1-2" data-name="Layer 1-2"/></g></svg>