<svg xmlns="http://www.w3.org/2000/svg" width="107.608" height="85.136"><g id="Group_4436" data-name="Group 4436" transform="translate(577.231 -204.619)"><path id="Path_29994" data-name="Path 29994" d="M-560.321 273.42c1.48-.9.017-3.249 2.266-4.094 1.057-.4 1.483-2.463 2.2-3.781h1.457v1.969c-.329.4-.912.775-.942 1.194-.113 1.563-.045 3.14-.045 4.712v.984c-1.35.012-1.161 1.154-.932 1.731a42.947 42.947 0 002.187 4.229l.719-.2v-1.819h3.571l-4.558-4.922v-.984c2.069-.2.16-2.381 1.685-3.029l.574 3.029h1.414l.772-4.1c.4 2.127.6 3.136.779 4.1h1.685l.987.984a8.382 8.382 0 00.468 2.391c-.05.367-.471-.478-1.25-2.042v3.586c.638-.051 1.065-.085 1.25-1.544-.195-1.515.078-1.623.351-1.731l-.818-.66a2.432 2.432 0 012.96-1.969l.987 2.953c-1.842.608-.8 1.816-.663 3.371l1.65-1.4 1.974-1.969c-.149-.746.49-1.884-.987-1.969l-1.027-1.963.875-1.788-.553-.4-2.256 2.179v-2.953l-.732-2.8 3.337-.264a62.443 62.443 0 016.881-6.621l1.021.786.7-1.955 1.064.918 1.542-.895c.329.819 1.075 1.741.9 2.435a28.226 28.226 0 01-1.889 4.456l-2.96.984c0-.158.065-.381-.014-.46a3.625 3.625 0 00-.708-.434l-1.473 5.815c1.7 0 2.936 0 4.157.084-.231 1.7.762 2.513 2.361 2.973l1.53-2.889c-1.345 0-2.612 0-3.891-.084.011-1.069.011-2.053.011-3.037h4.934l.987-.984h.987v1.969l-.987.984v.985c-1.476.084-.838 1.223-.987 1.969-1.476.084-.839 1.222-.987 1.969a8.4 8.4 0 01-.755.976c-.374.364-.81.665-1.219.993l-2.365 3.2 2.365 1.722v.985l-.987.984-.325-.817-.662.817c-1.9-.3-3.411.648-4.934 1.541v1.412l-.987.984h-6.75l-.322-3.443-3.784-1.478v-1.884h-2.618a6.027 6.027 0 01-.7 1.687 8.038 8.038 0 01-1.62 1.181v.984c-.329.251-.944.506-.941.752.024 1.65-1.162 1.133-2.02 1.217l-.226-2.943-1.748.975c-.715-.221-1.423-.47-2.147-.654-.59-.15-1.2-.223-1.8-.33l.908-1.576-2.015-.894 2.094-.938v-1.513h2.358z" transform="translate(-7.987 -30.059)" fill="#706b5f"/><path id="Path_29995" data-name="Path 29995" d="M-542.091 250.018v-1.969l2.705 2.713c.806-1.61.161-3.161-.732-4.682 1.463-2.566 4.239-3.477 6.548-4.845a77.542 77.542 0 0110.2-4.954 3.615 3.615 0 002.265-2.913l2.267-.147c.171-1.4 1.1-2 2.36-2.385a8.437 8.437 0 003.3-1.418 3.755 3.755 0 013.314-1.026l.7-2.024c1.839 1.3-.928 3.945 1.606 4.946l.987.984v3.937c-1.476.084-.838 1.222-.987 1.969l-.987.984-1.476-.843-1.485 1.828-1.974-.985v-2.733c-1.969.26-2.951 1.506-3.948 2.733l-1.542.895-1.064-.918-.7 1.955-1.021-.786a62.426 62.426 0 00-6.881 6.621l-3.337.264.733 2.8c-2.111-.332-2.767 1.532-3.947 2.52v2.4h-1.685l-.779-4.1-.772 4.1h-1.414l-.574-3.029c-1.525.648.384 2.834-1.685 3.029z" transform="translate(-20.296 -12.563)" fill="#615c51"/><path id="Path_29996" data-name="Path 29996" d="M-523.865 381.625h-1.974c-1.827-.2-4.151.835-4.934-1.968l-.987-.984h-.987v-.985c3.8-.126 3.821-.148 3.948-3.937h1.974c1.476-.084.838-1.222.987-1.969v-7.874h1.974l.987.984 2.1 1.673-3.4.628c1.623 1.154 4.449.142 4.253 3.1-.585 1.313-2.753-.575-2.952 1.484v.985a33.139 33.139 0 00.079 4.894c.1.651 1.073 1.171 1.648 1.75 1.2-1.538 1.946.862 3.257.34 1.131-.451 2.586-.093 3.9-.093h12.055c.985-2.01 1.806-3.606 2.551-5.237.355-.778.454-1.57-.79-1.653V370.8h4.934c0 .8 0 1.386.02 2.257a3.559 3.559 0 01-.038-.375l-2.276.444c.654.355.914.617 1.151.6a1.743 1.743 0 001.163-.667c1.6.049.419-2.832 2.475-2.416.479.1 1.362-1.792 2.078-2.794h3.321c-2.96 3.577-6.328 6.883-7.647 11.812h3.7v1.968h-21.715l-2.662-.724a4.9 4.9 0 01-5.53 0zm-.9-4.04l-.193.192.688.8.311-.31a2.358 2.358 0 00-.856-.544l-.142-1.818c-1.626-.438-2.12.054-1.681 1.676a8.355 8.355 0 001.875.003z" transform="translate(-25.693 -92)" fill="#555048"/><path id="Path_29997" data-name="Path 29997" d="M-420.49 245.069c-1.975 4.046-4.818 7.211-9.127 8.852-1.969.75-3.3 2.3-4.882 3.569-4.206 3.366-7.918 7.464-13.206 9.311-.853.3-1.72.563-2.549.917a2.568 2.568 0 00-1.816 2.944c-1.786 1.45-3.906.907-5.921.984v-1.5l3.947-1.927v-1.5c.006-1.31 1.007-.971 1.716-.969a4.45 4.45 0 004.2-1.984c2.008.711 2.837-1.267 3.9-2.083 2.378-1.827 5.485-2.876 6.956-5.792.7-.133 1.758.447 1.915-.741.048-.362-.6-.816-.929-1.228.248-.328.526-.96.739-.939 2.941.29 4.945-1.582 7.393-2.687l-1.224-2.281h3.611l2.6-2.953z" transform="translate(-68.87 -23.363)" fill="#a0a197"/><path id="Path_29998" data-name="Path 29998" d="M-483.627 306.637c2.015-.078 4.135.466 5.921-.984.715.221 1.423.47 2.147.654.59.15 1.2.223 1.8.33v1.969h-1.974a13.125 13.125 0 00-2.988-.94c-2.091-.147-4.2-.057-6.3-.018-.16 0-.313.379-.51.634l1.742.643-.814 1.61 3.64 1.387-1.813-2.019 2.35-.484a5.759 5.759 0 00.746 5.094c-.971.375-2.5-.912-2.96.985h-4.97l3.049-1.442-.345-2.6-1.3 1.043-.6-1.53-4.518.861-.527 2.906-5.458-.768a2.653 2.653 0 001.148 3.29c.544.415 1.118.793 1.678 1.188-.748.148-1.89-.488-1.974.984h-2.96a2.432 2.432 0 00-2.961-1.969V315.5l1.974-1.969c2.612-.388 3.728-1.224 3.948-2.953h.987l.987-.984.987-.985.987-.984c.971-.375 2.5.912 2.96-.984zm-9.779 5.8l-.193.192.688.8.311-.31a1.566 1.566 0 00-.985-.48l.193-.192-.688-.8-.311.31a1.565 1.565 0 00.985.483z" transform="translate(-43.234 -58.354)" fill="#3f3e27"/><path id="Path_29999" data-name="Path 29999" d="M-408.307 292.542l.987-.984c.971.375 2.5-.913 2.961.984-.2.367-.384.749-.614 1.1-.588.89-.74 1.615.614 1.856.993 1.348 1.968 1.348 2.96 0q2.422-.448 1.974 1.968l-.339.159.7 1.959.63-.4v-1.717h.987c-.2 1.822.837 4.14-1.974 4.922-.276-1.425-1.042-1.167-2.173-.4.843.585-.718 2.107 1.186 2.366v1.969c-.329.412-.976.866-.929 1.228.158 1.188 1.216.608 1.915.741.149.746-.489 1.884.987 1.968v4.922c-1.476.084-.839 1.223-.987 1.969-1.9-.461-.611-1.984-.987-2.953l-.325-.816-.662.816h-.987c.2-1.23.4-2.459.6-3.711l-2.572-1.211v-.984c.329-.412.976-.866.928-1.228-.157-1.188-1.216-.608-1.915-.741v-1.969l.985-1.968h-2.959l-1.974-.984h-.987l-.987-.985 4.321-3.713c-1.438-1.19 1.043-3.249-1.364-4.163zm4.934 8.859l.818-.324-.818-.66-5.531-1.276c2.133 1.803 3.668 2.504 5.532 2.259zm-.819-2.125l.853-.106-.383-1.6-.469.078z" transform="translate(-95.856 -50.165)" fill="#929389"/><path id="Path_30000" data-name="Path 30000" d="M-387.906 205.456l2.961.984 1.332 3.937h4.589c2.583 2.031 2.011 4.826 1.83 7.526-1.766.463.267 3.02-1.83 3.3-1.492-.935-2.953-1.773-4.514-.033-.214.239-.926.033-1.407.033v-1.969a4.346 4.346 0 00-2.612-4.176c-.315-.143-.242-1.132-.349-1.73l.987-1.969 1.875-.334-.065-.651h-1.81a17.527 17.527 0 00-.044-2.773c-.069-.428-.613-.779-.942-1.165z" transform="translate(-109.349 -.483)" fill="#929389"/><path id="Path_30001" data-name="Path 30001" d="M-431.406 213.383c.387-.328.739-.871 1.168-.94a17.664 17.664 0 012.78-.044l.987 1.969c-1.7-.225-2.56.671-3.088 2.408l2.1 1.529c1.37.186 2.3-.361 2.931-1.969h-1.944v-.984h3.947v1.969l-1.974 1.969c0 .656 0 1.313.013 2.351a3.937 3.937 0 01-.031-.468l-1.928.376.081.636a3.5 3.5 0 001.879-.544 3.594 3.594 0 011.96-.382 2.426 2.426 0 01-1.974 2.953c-.084-1.473-1.225-.836-1.974-.984h-5.921q.449-2.416-1.974-1.968v-.984a7.13 7.13 0 00-.052-1.029 1.992 1.992 0 00.141.147l.806-.686-.311-.31a5.568 5.568 0 00-.636.849 9.489 9.489 0 01-.935 1.029l-2.961.984c-.184-1.019 2.162-1.653.557-2.824l-1.544.855v-2.953l5.921-.984.325.816.662-.816c1.478-.086.84-1.224.989-1.971zm.817 3.106l-.874.087.373 2.58.5-.058zm-.323 4.769c-.109.109-.327.242-.308.324a3.073 3.073 0 00.308.661c.11-.109.327-.243.309-.324a3.062 3.062 0 00-.31-.661zm2.325-.35l-.351-.634c-.109.109-.327.242-.308.324a3.075 3.075 0 00.308.661z" transform="translate(-79.665 -4.474)" fill="#929389"/><path id="Path_30002" data-name="Path 30002" d="M-450.724 309.952v-1.969h4.934c.221.713.471 1.419.656 2.142.151.588.224 1.2.331 1.8l-.987.984c-1.476.084-.838 1.222-.987 1.969h-2.961c-.971.375-2.5-.912-2.96.984h-3.948a5.759 5.759 0 01-.746-5.094l-2.35.485 1.813 2.019-3.64-1.387.814-1.61-1.742-.643c.2-.255.35-.631.51-.634 2.1-.039 4.209-.129 6.3.018a13.124 13.124 0 012.988.94c1.609 1.287 1.728 1.3 4.279 0z" transform="translate(-66.268 -59.7)" fill="#555048"/><path id="Path_30003" data-name="Path 30003" d="M-576.2 338.7c-.274-.109-.772-.191-.79-.332a24.874 24.874 0 011.777-13.448l2.968 4.3.979-1.345c1.9-.461.611-1.984.987-2.953v-2.953h.987c.329.254.9.47.944.768a30.191 30.191 0 01.209 3.169h1.807l.987.984v2.953h-1.974c-.089-.849.461-2.09-1.653-1.937l-1.307 3.906-2.877 2.953h-1.07l-.818.324.818.66-1 1.969h1.988l.987.984a2.842 2.842 0 01-3.949-.002z" transform="translate(0 -67.775)" fill="#7e7d72"/><path id="Path_30004" data-name="Path 30004" d="M-421.961 303.845c-.107-.6-.18-1.207-.331-1.8-.185-.723-.434-1.429-.656-2.142a6.431 6.431 0 002.148-.727c1.977-1.653 3.841-3.441 5.747-5.179 2.411.915-.074 2.973 1.361 4.161l-4.321 3.713.987.985h.987c.329.984.658 1.969 1.01 2.894-1.008.074-1.978.2-3.43.387l3.294 1.582c.057-.731.1-1.318.135-1.969.635.059 1.293.059 1.951.059v3.937h-3.346l-3.232-4.082 1.069-3.693-2.386 1.869z" transform="translate(-89.11 -51.625)" fill="#706b5f"/><path id="Path_30005" data-name="Path 30005" d="M-574.834 361.577a2.842 2.842 0 003.947 0l.987.984c1.155 1.878 2.99 2.061 4.934 1.968v1.971l-.987.984c-1.645.328-3.29.656-4.979 1.036a1.906 1.906 0 00.148-.141l-.688-.8-.311.31a5.523 5.523 0 00.851.635c-.254 1.559.4 2.216 2.019 1.917.463 1.9 1.989.61 2.96.985v1.969c-1.819-.338-3.8-.345-5.4-1.127-1.1-.537-2.407-2.2-2.329-3.273.189-2.637-1.404-4.872-1.152-7.418zm5.163 5.448l-1.652-3.411-1.759 1.558z" transform="translate(-1.369 -90.655)" fill="#a0a197"/><path id="Path_30006" data-name="Path 30006" d="M-356.569 289.148c2.876-.677 5.037 1.234 7.551 2.167l1.331 2.755v2.953h-2.96l-.987-.984h-.987a2.432 2.432 0 00-2.961-1.969v-.985l-.987-.984c-1.476-.084-.838-1.223-.987-1.969v-.984z" transform="translate(-126.871 -48.739)" fill="#929389"/><path id="Path_30007" data-name="Path 30007" d="M-459.339 228.163l-.987-.984v-1.969l.987-.984.818-.324-.818-.66c-.451-2.033 1.487-2.6 2.5-4.034 1.341.684 3.221-.907 4.411 1.081-1.3 1.447-.961 3.221-.987 4.922l-1.554 1.969h-2.394zm4.649-7.784c-1.689.828-2.085 2.04-1.4 3.757 1.685-.829 2.082-2.036 1.4-3.757z" transform="translate(-67.521 -8.426)" fill="#7e7d72"/><path id="Path_30008" data-name="Path 30008" d="M-553.772 378.636v-1.969l.987-.985.808-.67a4.691 4.691 0 00-.834-.3 5.82 5.82 0 00-.961-.012v-1.97l.987-.984 2.218-1.084c1.562.685-.337 2.855 1.729 3.052.463 1.9 1.989.61 2.96.984h.987c.084 1.473 1.226.836 1.974.984v.985h-5.4c-1.214 1.114-1.884 2.4-3.479 1.969z" transform="translate(-13.549 -95.902)" fill="#706b5f"/><path id="Path_30009" data-name="Path 30009" d="M-549.1 386.848c1.595.436 2.265-.855 3.479-1.969h5.4c.084 1.472 1.225.836 1.974.984-.127 3.789-.148 3.811-3.948 3.937v-3.079l-2.96 3.079h-.987c-.229-1.862-1.865-.516-2.961-1.421z" transform="translate(-16.248 -104.113)" fill="#3f3e27"/><path id="Path_30010" data-name="Path 30010" d="M-388.993 238.078v1.939c-.983.5-1.94 1.014-3.931 2.086l3.931-.326v-1.76c.481.03 1.193.236 1.407 0 1.56-1.74 3.022-.9 4.514.033l-.987.985h-2.667l-2.6 2.953h-3.611q.449-2.416-1.974-1.969v-2.953l.987-.984z" transform="translate(-105.301 -19.325)" fill="#706b5f"/><path id="Path_30011" data-name="Path 30011" d="M-330.227 309.952l.987 4.922-.987 1.969h-3.948v-1.969l2.866-.285-.07-.7h-1.808v-1.969c-.149-.746.489-1.885-.987-1.969v-1.969h1.974z" transform="translate(-140.382 -59.7)" fill="#929389"/><path id="Path_30012" data-name="Path 30012" d="M-385.932 292.194q.449-2.416-1.974-1.969l.987-5.906 2.392.648 2.542-2.617.987.984v.985c-1.476.084-.838 1.223-.987 1.969-.971.375-2.5-.912-2.96.984.376.969-.915 2.491.987 2.953l-.987 1.969z" transform="translate(-109.349 -44.896)" fill="#a0a197"/><path id="Path_30013" data-name="Path 30013" d="M-566.642 305.653v1.513l-2.094.938 2.016.894-.908 1.576c-1.476.084-.839 1.223-.987 1.969q-2.422-.447-1.974 1.969h-1.974c0-.49-.186-1.09.03-1.451 1.438-2.4 1.9-5.316 3.917-7.407z" transform="translate(-2.653 -58.354)" fill="#7e7d72"/><path id="Path_30014" data-name="Path 30014" d="M-383.334 279.536l-2.542 2.617-2.392-.648c-.084-1.473-1.225-.836-1.974-.985v-1.447c1.609-.833 3.2-2.032 5.1-1.436.733.227 1.214 1.243 1.808 1.899z" transform="translate(-108 -42.081)" fill="#7e7d72"/><path id="Path_30015" data-name="Path 30015" d="M-374.976 209.894h-4.589l-1.332-3.937.7-1.338a18.555 18.555 0 015.221 5.275z" transform="translate(-113.397)" fill="#a0a197"/><path id="Path_30016" data-name="Path 30016" d="M-401.923 207.424v-1.969h2.961c.149.746-.49 1.884.987 1.969v.984l-.987 1.969-1.974.984c-.149-.746.49-1.885-.987-1.969.195-.358.521-.709.542-1.078.017-.284-.347-.592-.542-.89z" transform="translate(-101.253 -.483)" fill="#929389"/><path id="Path_30017" data-name="Path 30017" d="M-572.461 326.6h1.974c.748.148 1.89-.488 1.974.985v2.953l-.979 1.345-2.968-4.3z" transform="translate(-2.755 -70.448)" fill="#615c51"/><path id="Path_30018" data-name="Path 30018" d="M-399.058 288.618c-.463-1.9-1.99-.61-2.961-.984q-.449-2.416 1.974-1.969c.748-.148 1.889.488 1.974-.985h.987c.079 1.681.21 3.387-1.974 3.938z" transform="translate(-101.157 -46.242)" fill="#aeafa5"/><path id="Path_30019" data-name="Path 30019" d="M-542.091 401.813v-2.953h3.947v2.953z" transform="translate(-20.296 -112.188)" fill="#555048"/><path id="Path_30020" data-name="Path 30020" d="M-444 226.689c.026-1.7-.31-3.474.987-4.922h.987v5.906h-.987z" transform="translate(-76.938 -9.904)" fill="#706b5f"/><path id="Path_30021" data-name="Path 30021" d="M-540.213 272.935c.892 1.52 1.537 3.072.732 4.682l-2.705-2.713q-.449-2.416 1.973-1.969z" transform="translate(-20.2 -39.417)" fill="#706b5f"/><path id="Path_30022" data-name="Path 30022" d="M-558.9 296.236l1.371 3.938h-2.358c-.149-.746.489-1.885-.987-1.969q-.451-2.416 1.974-1.969z" transform="translate(-9.406 -52.875)" fill="#7e7d72"/><path id="Path_30023" data-name="Path 30023" d="M-407.32 210.071c.195.3.559.605.542.891-.022.368-.348.719-.542 1.078l-2.96.985-.987-1.969a5.292 5.292 0 013.947-.985z" transform="translate(-95.856 -3.129)" fill="#7e7d72"/><path id="Path_30024" data-name="Path 30024" d="M-393.947 207.424c-1.476-.084-.838-1.223-.987-1.969h2.96v.984z" transform="translate(-105.282 -.483)" fill="#615c51"/><path id="Path_30025" data-name="Path 30025" d="M-332.2 303.946h-1.974v-2.953a2.426 2.426 0 011.974 2.953z" transform="translate(-140.382 -55.663)" fill="#aeafa5"/><path id="Path_30026" data-name="Path 30026" d="M-366.881 283.255c.242-1.35.969-1.2 1.86-.613.35.23.732.41 1.1.613l-.987.985h-1.974z" transform="translate(-121.492 -44.815)" fill="#615c51"/><path id="Path_30027" data-name="Path 30027" d="M-362.208 285.57l.987-.985q2.422-.447 1.974 1.969h-.987c-.749-.148-1.89.488-1.974-.984z" transform="translate(-124.191 -46.146)" fill="#7e7d72"/><path id="Path_30028" data-name="Path 30028" d="M-562.149 300.993c1.476.084.838 1.223.987 1.969h-1.974c.149-.746-.489-1.885.987-1.969z" transform="translate(-8.133 -55.663)" fill="#706b5f"/><path id="Path_30029" data-name="Path 30029" d="M-421.981 214.776c-.149.746.49 1.885-.987 1.969.149-.745-.489-1.885.987-1.969z" transform="translate(-89.09 -5.866)" fill="#615c51"/><path id="Path_30030" data-name="Path 30030" d="M-395.276 284.662c-.084 1.473-1.226.836-1.974.985.084-1.473 1.225-.837 1.974-.985z" transform="translate(-103.952 -46.222)" fill="#929389"/><ellipse id="Ellipse_922" data-name="Ellipse 922" cx="1.396" cy=".696" rx="1.396" ry=".696" transform="translate(-490.756 238.236)" fill="#7e7d72"/><path id="Path_30031" data-name="Path 30031" d="M-459.339 231.088l-.987.984z" transform="translate(-67.521 -15.288)" fill="#615c51"/><ellipse id="Ellipse_923" data-name="Ellipse 923" cx=".698" cy=".696" rx=".698" ry=".696" transform="translate(-562.592 285.483)" fill="#a0a197"/><path id="Path_30032" data-name="Path 30032" d="M-457.99 228.757l.818.66-.818.324z" transform="translate(-68.87 -13.941)" fill="#615c51"/><path id="Path_30033" data-name="Path 30033" d="M-424.3 219.437l-.662.816-.325-.816z" transform="translate(-87.76 -8.558)" fill="#615c51"/><path id="Path_30034" data-name="Path 30034" d="M-554.235 344.242c-2.066-.2-.168-2.368-1.729-3.052l-2.218 1.084V340.3l.987-.984-.325-.816-.662.816v.984c-1.945.092-3.78-.09-4.934-1.968.972-.375 2.5.912 2.961-.984h.987c2.292-.634-.009-2.96 1.723-4.077l3.212 2.109 2.17 1.7v2.227l1.563-.138-1.176-3.794h-1.571v-2.64l-1.568-.515.744-3.735h-3.129v-2.945a5.259 5.259 0 00.987-3.937c.857-.084 2.044.433 2.02-1.217 0-.246.612-.5.941-.751a2.426 2.426 0 011.974 2.953v1.969c-.329.411-.976.865-.928 1.227.158 1.189 1.216.608 1.915.741h.987v1.969h-1.785v3.466l1.785-1.5q2.422-.447 1.974 1.969a7.673 7.673 0 01-.028 1.917 18.771 18.771 0 01-1.3 3.785c-.784 1.524 1.029 2.708.342 4.141-1.9.461-.611 1.984-.987 2.953h-1.974c-.46-1.895-1.987-.608-2.958-.983zm1.683-1.51c2.627 1.119 2.322-.056 2.1-1.309z" transform="translate(-8.152 -66.429)" fill="#555048"/><path id="Path_30035" data-name="Path 30035" d="M-530.773 314.974l3.784 1.478.322 3.443h4.776l-1.974 1.969-.819.324.819.66c-.868 1.581-1.781 3.1-3.948 2.953-.463-1.9-1.989-.609-2.96-.984l-.987-.984-.987-.984v-.984l.987-.744-.987-1.225v-.984l4.7-.218-2.729-1.257z" transform="translate(-25.693 -63.738)" fill="#555048"/><path id="Path_30036" data-name="Path 30036" d="M-517.118 328.593l1.974-1.969h1.974v2.953l-.987.984c-2.244.9-3.02 2.971-3.948 4.922v1.969h-.987q.449-2.416-1.974-1.969v-2.953c2.167.148 3.08-1.372 3.948-2.953z" transform="translate(-32.44 -70.467)" fill="#a0a197"/><path id="Path_30037" data-name="Path 30037" d="M-486.124 270.621h-2.961c-.463-1.9-1.989-.61-2.96-.984l-.987-.984 2.96-.984h1.974l.987 1.958v-4.912l1.974-.969v5.891z" transform="translate(-48.631 -34.15)" fill="#7e7d72"/><path id="Path_30038" data-name="Path 30038" d="M-486.922 305.914l-2.365-1.722 2.365-3.2c.329 1.9 1.81.648 2.714.975.767.278 2.056-.633 2.22.993v.984c-.971.375-2.5-.912-2.96.984l-.987.984z" transform="translate(-50.794 -55.663)" fill="#555048"/><path id="Path_30039" data-name="Path 30039" d="M-483.063 256.92v.984c-1.476.084-.838 1.223-.987 1.969h-1.974a28.227 28.227 0 001.889-4.456c.173-.694-.573-1.616-.9-2.435 1-1.227 1.979-2.473 3.948-2.733v2.733a4.516 4.516 0 00-1.976 3.938z" transform="translate(-52.679 -26.355)" fill="#929389"/><path id="Path_30040" data-name="Path 30040" d="M-474.343 280.283v-.983h.987c.748-.148 1.89.488 1.974-.984h1.974v-2.953l4.891 1.337-1.931 1.616-4.934 1.969-1.974.984z" transform="translate(-59.425 -40.859)" fill="#929389"/><path id="Path_30041" data-name="Path 30041" d="M-525.738 287.219v-2.4c1.18-.988 1.836-2.852 3.947-2.52v3.937a2.432 2.432 0 00-2.96 1.968z" transform="translate(-29.741 -44.842)" fill="#929389"/><path id="Path_30042" data-name="Path 30042" d="M-496.033 274.139l.987.984.987.984v2.953h-4.169l1.473-5.815a3.625 3.625 0 01.708.434c.079.079.014.302.014.46z" transform="translate(-45.63 -39.637)" fill="#555048"/><path id="Path_30043" data-name="Path 30043" d="M-516.394 287.347v-.984l2.256-2.179.553.4-.875 1.788 1.027 1.963c.149.746-.49 1.885.987 1.969l-1.974 1.969c-.149-.746.489-1.885-.987-1.969z" transform="translate(-35.138 -45.954)" fill="#555048"/><path id="Path_30044" data-name="Path 30044" d="M-543.44 296.332l4.558 4.922h-3.571c-.329-.226-.834-.384-.955-.691-.413-1.054-.69-2.16-1.019-3.246v-.984z" transform="translate(-18.947 -52.971)" fill="#555048"/><path id="Path_30045" data-name="Path 30045" d="M-556.833 323.21h-1.807a30.176 30.176 0 00-.209-3.169c-.047-.3-.615-.514-.944-.768l-.987-1.969c.6.107 1.21.18 1.8.33.724.185 1.432.433 2.147.654v1.969c-.6.06-1.143.052-.583.947a7.5 7.5 0 01.583 2.006z" transform="translate(-9.502 -65.084)" fill="#555048"/><path id="Path_30046" data-name="Path 30046" d="M-495.107 317.225c-.219 1.729-1.336 2.565-3.948 2.953h-.987v-1.412c1.524-.892 3.032-1.845 4.935-1.541z" transform="translate(-44.583 -65.005)" fill="#7e7d72"/><path id="Path_30047" data-name="Path 30047" d="M-539.755 313.383a8.041 8.041 0 001.62-1.181 6.028 6.028 0 00.7-1.687h2.617v1.885q-2.422-.448-1.974 1.969z" transform="translate(-21.645 -61.163)" fill="#555048"/><path id="Path_30048" data-name="Path 30048" d="M-488.455 287.41h3.9l-1.53 2.889c-1.597-.46-2.59-1.274-2.37-2.889z" transform="translate(-51.257 -47.818)" fill="#555048"/><path id="Path_30049" data-name="Path 30049" d="M-545.923 298.662c.329 1.087.606 2.192 1.019 3.246.12.307.626.465.955.691v1.819l-.719.2a42.947 42.947 0 01-2.186-4.229c-.23-.573-.419-1.715.931-1.727z" transform="translate(-17.451 -54.317)" fill="#929389"/><path id="Path_30050" data-name="Path 30050" d="M-539.755 317.3l2.96.984v2.953h-.987a2.426 2.426 0 00-1.974-2.953z" transform="translate(-21.645 -65.084)" fill="#7e7d72"/><path id="Path_30051" data-name="Path 30051" d="M-543.468 288.257h-.987c0-1.572-.068-3.149.045-4.712.03-.419.612-.8.942-1.194v5.906z" transform="translate(-18.919 -44.896)" fill="#929389"/><path id="Path_30052" data-name="Path 30052" d="M-515.536 298.662c1.476.084.839 1.223.987 1.969l-1.65 1.4c-.141-1.553-1.179-2.761.663-3.369z" transform="translate(-35.009 -54.317)" fill="#929389"/><path id="Path_30053" data-name="Path 30053" d="M-551.436 320.27v-1.97l1.748-.975.226 2.943z" transform="translate(-14.899 -65.096)" fill="#929389"/><path id="Path_30054" data-name="Path 30054" d="M-472.007 279.564V277.6q2.422-.447 1.974 1.969z" transform="translate(-60.775 -42.109)" fill="#3f3e27"/><path id="Path_30055" data-name="Path 30055" d="M-483.688 298.3c.409-.328.845-.629 1.219-.993a8.381 8.381 0 00.755-.976h.987v1.969z" transform="translate(-54.028 -52.971)" fill="#615c51"/><path id="Path_30056" data-name="Path 30056" d="M-523.537 300.608l-1.717.136v-3.586z" transform="translate(-30.021 -53.448)" fill="#555048"/><path id="Path_30057" data-name="Path 30057" d="M-489.709 278.561l-.987-.984c.971.375 2.5-.912 2.96.984z" transform="translate(-49.98 -42.09)" fill="#929389"/><path id="Path_30058" data-name="Path 30058" d="M-475.712 287.012l.987.984-.987.984h-.987c.149-.746-.489-1.88.987-1.968z" transform="translate(-58.057 -47.588)" fill="#aeafa5"/><path id="Path_30059" data-name="Path 30059" d="M-501.39 324.294h.987l-1.974 1.969v-.985z" transform="translate(-43.234 -69.121)" fill="#aeafa5"/><path id="Path_30060" data-name="Path 30060" d="M-478.048 293.641h-.987c.148-.746-.49-1.884.987-1.969z" transform="translate(-56.707 -50.279)" fill="#7e7d72"/><path id="Path_30061" data-name="Path 30061" d="M-508.418 295.971c-1.476-.084-.838-1.222-.987-1.969 1.477.084.839 1.222.987 1.969z" transform="translate(-39.167 -51.625)" fill="#929389"/><ellipse id="Ellipse_924" data-name="Ellipse 924" cx=".698" cy="1.392" rx=".698" ry="1.392" transform="translate(-533.973 233.11)" fill="#3f3e27"/><path id="Path_30062" data-name="Path 30062" d="M-523.4 296.332l.818.66-.818.324z" transform="translate(-31.09 -52.971)" fill="#555048"/><path id="Path_30063" data-name="Path 30063" d="M-476.679 278.675l.987-.984z" transform="translate(-58.076 -42.204)" fill="#555048"/><path id="Path_30064" data-name="Path 30064" d="M-473.356 283.335h-.987l.987-.984z" transform="translate(-59.425 -44.896)" fill="#3f3e27"/><path id="Path_30065" data-name="Path 30065" d="M-483.688 312.643h.987l-.987.985z" transform="translate(-54.028 -62.392)" fill="#7e7d72"/><path id="Path_30066" data-name="Path 30066" d="M-487.373 316.188h-.987l.662-.817z" transform="translate(-51.33 -63.967)" fill="#7e7d72"/><path id="Path_30067" data-name="Path 30067" d="M-464.737 239.062l1.974-.984c.107.6.18 1.207.331 1.8.185.722.434 1.429.656 2.142l-1.22 2.137 2.574 1.3-1.354 2.47c-1.285-.546-2.376 1.622-3.947.034v2.919l-.987.984h-1.974v-.984c1.825-.288.724-1.643.888-2.348l-1.874-1.589 1.485-1.828 1.476.843.987-.984c1.476-.084.838-1.222.987-1.968z" transform="translate(-62.124 -19.325)" fill="#929389"/><path id="Path_30068" data-name="Path 30068" d="M-475.075 257.7l1.874 1.589c-.164.705.938 2.061-.888 2.348h-.987l-.672-.806a4.666 4.666 0 00-.3.832 5.788 5.788 0 00-.012.958v.985h-.987v-3.922l-1.974.969a4.516 4.516 0 011.974-3.937z" transform="translate(-56.72 -30.091)" fill="#706b5f"/><path id="Path_30069" data-name="Path 30069" d="M-459.359 249.729c-.149.746.49 1.884-.987 1.969.146-.746-.489-1.885.987-1.969z" transform="translate(-67.502 -26.054)" fill="#aeafa5"/><path id="Path_30070" data-name="Path 30070" d="M-461.675 254.389l-.987.984z" transform="translate(-66.172 -28.746)" fill="#aeafa5"/><path id="Path_30071" data-name="Path 30071" d="M-482.64 367.383c1.243.083 1.144.875.789 1.653-.744 1.631-1.565 3.228-2.551 5.237h-12.055v-2.75c1.577-.187 2.628-.459 1.661-1.962l-2.609 1.008c.88-2.251.849-2.752-.038-4.171l-1.974-1.969-2.961-3.937h1.974c2.014 2.259 3.131 2.635 4.158.994l-2.007-1.475c-.029-.795-1.03-2.056.81-2.472 1.476-.084.838-1.222.987-1.969l.987-.985h1.974c.463 1.9 1.99.61 2.961.985l.987.984-.987 2.953-2.863.286.073.7h3.777a12.576 12.576 0 01.943 3.005c.162 2.887 1.87 4.22 4.234 4.891z" transform="translate(-43.234 -86.617)" fill="#929389"/><path id="Path_30072" data-name="Path 30072" d="M-440.126 361.115h-3.321c-.716 1-1.6 2.892-2.078 2.794-2.057-.416-.876 2.465-2.5 2.127v-1.969h-2.961V362.1l3.948-1.494v-1.459l3.4 1.3-1.226-2.985 2.943-1.284 1.45.9.687-1.877.906.757 2.693-2.718c.6-.107 1.211-.18 1.8-.33.724-.185 1.432-.433 2.147-.654v3.937h-.987c-.748.148-1.889-.488-1.974.984l-4.934 1.364z" transform="translate(-72.918 -85.271)" fill="#706b5f"/><path id="Path_30073" data-name="Path 30073" d="M-501.563 382.548c.887 1.419.918 1.919.038 4.171l2.609-1.008c.968 1.5-.084 1.775-1.661 1.962v2.75c-1.312 0-2.767-.357-3.9.093-1.311.523-2.059-1.878-3.257-.34-.576-.579-1.55-1.1-1.648-1.75a33.13 33.13 0 01-.079-4.894h2.51l.883 1.884c2.513.469 3.568-1.108 4.505-2.868zm-4.952 5.34c.875.711 1.213 2.192 3 1.132-.879-.71-1.218-2.192-3-1.132z" transform="translate(-39.113 -102.767)" fill="#706b5f"/><path id="Path_30074" data-name="Path 30074" d="M-525.856 347.5q2.422-.447 1.974 1.968v9.843l-4.934-.984c.687-1.433-1.127-2.617-.342-4.141a18.776 18.776 0 001.3-3.785 7.674 7.674 0 00.027-1.917c.749-.148 1.891.489 1.975-.984z" transform="translate(-27.649 -82.484)" fill="#dbdad7"/><path id="Path_30075" data-name="Path 30075" d="M-465.1 374.112l-1.73 1.006c-2.364-.671-4.072-2-4.234-4.891a12.573 12.573 0 00-.943-3.005l.746-.984 1.227.984c.463 1.9 1.989.61 2.961.985l1.974 1.549v4.357z" transform="translate(-60.775 -93.346)" fill="#aeafa5"/><path id="Path_30076" data-name="Path 30076" d="M-508.2 367.221l2.961 3.937-1.553 1.969h-4.368c.2-2.059 2.367-.171 2.952-1.484.2-2.963-2.63-1.951-4.253-3.1l3.4-.628-2.1-1.673h2.96z" transform="translate(-37.408 -93.346)" fill="#706b5f"/><path id="Path_30077" data-name="Path 30077" d="M-509.385 379.857h4.368l1.553-1.969 1.974 1.969c-.934 1.76-1.992 3.337-4.5 2.869l-.883-1.884h-2.51z" transform="translate(-39.186 -100.075)" fill="#615c51"/><path id="Path_30078" data-name="Path 30078" d="M-529.538 373.228l4.934.984v2.953h-1.974l-.334-1.87-.653.071v1.8l-1.974-.984h-.987c.377-.97-.914-2.493.988-2.954z" transform="translate(-26.928 -97.384)" fill="#a0a197"/><path id="Path_30079" data-name="Path 30079" d="M-516.394 358.523v-3.937c1.451 1.293 3.229.958 4.934.985-.409.328-.845.629-1.219.993a8.343 8.343 0 00-.755.976l-.987.984z" transform="translate(-35.138 -86.617)" fill="#3f3e27"/><path id="Path_30080" data-name="Path 30080" d="M-458.352 373.358v-2.388l-1.974-1.549c.266-1.4 1.1-1.278 1.872-.547a24.322 24.322 0 012.075 2.516v1.969z" transform="translate(-67.521 -94.561)" fill="#615c51"/><path id="Path_30081" data-name="Path 30081" d="M-539.755 393.3v-.985l2.96-3.079v4.064z" transform="translate(-21.645 -106.632)" fill="#615c51"/><path id="Path_30082" data-name="Path 30082" d="M-516.665 393.929l-1.823-.142c-.439-1.622.054-2.114 1.681-1.676l.142 1.818z" transform="translate(-33.841 -108.202)" fill="#aeafa5"/><path id="Path_30083" data-name="Path 30083" d="M-526.1 385.863c-.748-.148-1.89.488-1.974-.984h2.96l.987.984z" transform="translate(-28.392 -104.113)" fill="#706b5f"/><path id="Path_30084" data-name="Path 30084" d="M-520.079 384.517l-.987-.984v-.985h1.974c-.149.746.492 1.885-.987 1.969z" transform="translate(-32.44 -102.767)" fill="#929389"/><path id="Path_30085" data-name="Path 30085" d="M-447.068 385.339a5.132 5.132 0 01-1.183.378c-.237.019-.5-.243-1.151-.6l2.276-.444z" transform="translate(-73.831 -103.995)" fill="#706b5f"/><path id="Path_30086" data-name="Path 30086" d="M-511.721 362.561l.987-.984v1.969z" transform="translate(-37.837 -90.655)" fill="#706b5f"/><path id="Path_30087" data-name="Path 30087" d="M-514.109 396.285l.806.686-.311.31-.688-.8z" transform="translate(-36.346 -110.701)" fill="#7e7d72"/><ellipse id="Ellipse_925" data-name="Ellipse 925" cx=".698" cy=".696" rx=".698" ry=".696" transform="translate(-558.644 286.468)" fill="#615c51"/><path id="Path_30088" data-name="Path 30088" d="M-530.411 399.844v-.984l.987.984z" transform="translate(-27.042 -112.188)" fill="#3f3e27"/><path id="Path_30089" data-name="Path 30089" d="M-452.651 253.3l1.354-2.47-2.574-1.3 1.22-2.137h1.974v1.969h2.96c1.155 1.878 2.99 2.061 4.934 1.969 1.14 1.618 3.123 1.078 4.934 2.527v-2.527h.987c0 .16-.07.393.01.468 2.258 2.119 2.7 2.087 6.9-.468v-1.969h2.96l1.224 2.281c-2.448 1.105-4.452 2.976-7.393 2.687-.213-.021-.491.61-.739.939h-2.96c-.993-1.349-1.968-1.349-2.961 0-.987 0-1.974 0-3.005.051a2.009 2.009 0 00.148-.141l-.688-.8-.311.31a5.554 5.554 0 00.851.634 6.155 6.155 0 01.045.933v.984c-.463 1.9-1.99.61-2.961.985v-.985a4.534 4.534 0 00-3.947-1.968c.171-2.071 2.451-.12 3.006-1.672l-.381-1.473-5.585 2.161z" transform="translate(-71.249 -24.709)" fill="#706b5f"/><path id="Path_30090" data-name="Path 30090" d="M-480.727 282.874v-1.969h.987a17.659 17.659 0 002.78-.044c.429-.069.781-.612 1.167-.94l5.879 1.343c-1.7-1.824.25-3.538-1.931-4.3l1.93-1.616-4.891-1.337v-.984h2.96c.084 1.472 1.225.836 1.974.984l1.974.984v2.953l-.852 1.861c1.159-.1 2.472.974 2.825-.876v-.985h.987l.987.985.987.984a4.451 4.451 0 01-4.2 1.984c-.71 0-1.71-.341-1.716.969-.709.215-1.418.433-2.128.646-2.7.813-4.772 3.1-7.74 3.292-.164-1.626-1.454-.715-2.22-.993-.9-.328-2.385.925-2.714-.975h2.961zm5.751.823l-.053-.88-2.614.365.046.515z" transform="translate(-54.028 -39.513)" fill="#706b5f"/><path id="Path_30091" data-name="Path 30091" d="M-428.445 266.04h.987c.149.746-.49 1.885.987 1.969-1.472 2.915-4.579 3.964-6.957 5.791-1.062.817-1.891 2.795-3.9 2.083l-.987-.984c-.149-.746.49-1.885-.987-1.969v-2.953l1.974 1v-1.982c.971-.375 2.5.912 2.961-.985.971-.375 2.5.912 2.96-.984v-.984z" transform="translate(-79.665 -35.475)" fill="#615c51"/><path id="Path_30092" data-name="Path 30092" d="M-472.007 300.269c2.968-.19 5.038-2.479 7.74-3.292.71-.213 1.419-.43 2.128-.646v1.5l-3.947 1.927v1.5h-5.921z" transform="translate(-60.775 -52.971)" fill="#929389"/><path id="Path_30093" data-name="Path 30093" d="M-410.3 268.009c-1.476-.084-.838-1.223-.987-1.969h1.974c.329.412.976.866.929 1.228-.158 1.188-1.216.607-1.916.741z" transform="translate(-95.837 -35.475)" fill="#7e7d72"/><path id="Path_30094" data-name="Path 30094" d="M-487.835 325.721c-.56-.395-1.134-.773-1.678-1.188a2.653 2.653 0 01-1.148-3.29l5.458.768.527-2.906 4.518-.861.6 1.53 1.3-1.043.345 2.6-3.049 1.442h4.97c.213.656.249 1.69.676 1.888.835.388 1.341-.192 1.346-1.194 0-.233.609-.463.938-.694h2.961c1.476.084.838 1.223.987 1.969l-1 1.969h1.988c-.743.656-1.5 1.3-2.221 1.977a7.222 7.222 0 00-.74.976h-3.948v-.984a2.4 2.4 0 00-2.242-2.933c-.973-.169-2.085.385-4.666 1.948v.985c-.748.148-1.89-.488-1.974.984h-3.948a2.824 2.824 0 000-3.943zm6.908-1.969l-.818.324.818.66 2.863-.286-.073-.7z" transform="translate(-49.881 -65.626)" fill="#555048"/><path id="Path_30095" data-name="Path 30095" d="M-511.46 343.424c-1.705-.026-3.483.309-4.934-.985v-.984h.987l.987-.744-.987-1.224c.928-1.95 1.7-4.022 3.948-4.922l.338 1.867.649-.074v-2.778a2.432 2.432 0 012.961 1.969c.564 1.806-1.313 2.331-1.91 3.627a5.648 5.648 0 011.688.642 7.874 7.874 0 011.209 1.638v.984l.987.985h.987c-.149.746.49 1.884-.987 1.969-.084-1.473-1.226-.836-1.974-.984-2.049-.2-.194-2.324-1.356-2.872zm-.935-.8l1.852-2.856c-1.908-.8-1.962.382-1.8 1.779l-.193-.192-.806.686.311.311c.231-.272.459-.54.637.269z" transform="translate(-35.138 -74.47)" fill="#555048"/><path id="Path_30096" data-name="Path 30096" d="M-496.992 342.816a7.875 7.875 0 00-1.209-1.638 5.648 5.648 0 00-1.688-.642c.6-1.3 2.474-1.82 1.91-3.627h.987c.58 1.84 1.8.785 3.512.73l-1.538-.73c.084-1.473 1.225-.836 1.974-.984a2.824 2.824 0 010 3.937v2.953h-.987l-.325-.816-.662.816z" transform="translate(-44.671 -75.831)" fill="#615c51"/><path id="Path_30097" data-name="Path 30097" d="M-452.694 327.495c-.329.231-.937.461-.938.694 0 1-.511 1.582-1.346 1.194-.427-.2-.463-1.232-.676-1.888.463-1.9 1.989-.61 2.96-.985z" transform="translate(-70.22 -70.353)" fill="#7e7d72"/><path id="Path_30098" data-name="Path 30098" d="M-437.327 312.643h2.306c-2.551 1.3-2.671 1.287-4.279 0z" transform="translate(-79.665 -62.392)" fill="#706b5f"/><path id="Path_30099" data-name="Path 30099" d="M-491.058 338.275l1.538.73c-1.708.055-2.931 1.111-3.512-.73z" transform="translate(-48.631 -77.196)" fill="#a0a197"/><path id="Path_30100" data-name="Path 30100" d="M-479.015 308.853c.463-1.9 1.989-.61 2.96-.984-.462 1.896-1.989.609-2.96.984z" transform="translate(-56.727 -59.586)" fill="#929389"/><path id="Path_30101" data-name="Path 30101" d="M-481.352 311.3l.987-.984z" transform="translate(-55.377 -61.046)" fill="#929389"/><path id="Path_30102" data-name="Path 30102" d="M-482.666 320.846l-.806-.686.311-.31.688.8z" transform="translate(-54.153 -66.554)" fill="#555048"/><path id="Path_30103" data-name="Path 30103" d="M-481.4 321.72l.806.686-.311.311-.688-.8z" transform="translate(-55.236 -67.634)" fill="#555048"/><path id="Path_30104" data-name="Path 30104" d="M-440.65 321.639c-.149-.746.49-1.885-.987-1.969v-.985h3.947c.972-.375 2.5.912 2.961-.984.748-.148 1.89.488 1.974-.984 1.476-.084.838-1.223.987-1.969l2.386-1.869-1.069 3.693 3.232 4.082h5.32v.984c.59 1.7-2.486 3.108-.4 4.922h4.35c.376.969-.915 2.492 1.032 2.9a2.222 2.222 0 00-.148.141l.688.8.311-.311a5.572 5.572 0 00-.851-.634c.1-.694-.534-1.833.942-1.917h.987l.987-.984h.987c.722 1.817 1.884.872 2.96.569v-1.553l1.974-1.969h1.974c.368.2.75.383 1.1.613.892.586 1.619.738 1.86-.613h.987a4.534 4.534 0 003.947-1.969h2.961v-1.969h2.96c-.094 5.582-1.194 6.939-6.322 7.888a6.467 6.467 0 00-1.693.613c-2.154 1.084-4.187 2.732-6.458 3.167-2.373.454-4.122 1.889-6.251 2.555v1.527c-2.23.186-4.108-.92-6.1-1.632a11.146 11.146 0 00-1.8-.336l-.987-.984v-1.525l-1.9-.879 1.321-1.881a10.033 10.033 0 01-2.162-.965 7.645 7.645 0 01-1.209-1.64l-1.679 1.2.692 2.739c-.715.221-1.423.47-2.147.654-.59.15-1.2.223-1.8.33v-.984l.987-1.969 1.963-.984h-3.937c-.748-.148-1.889.488-1.974-.984l1.974-.3c0-.5.067-.712-.011-.8a15.221 15.221 0 00-1.83-1.808c-.082-.063-.732.6-1.119.931h-4.934c-.145-.735.493-1.874-.983-1.958zm5.779-.35l-.351-.634c-.11.109-.327.242-.309.324a3.08 3.08 0 00.309.661z" transform="translate(-78.315 -62.529)" fill="#615c51"/><path id="Path_30105" data-name="Path 30105" d="M-383.234 310.575c2.811-.781 1.772-3.1 1.974-4.922h1.974c0 .779.008 1.558 0 2.336-.026 2.021 1.168 2.644 2.962 2.585v1.969l-.987.984h-3.947l-.987-.984h-.987zm3.6 1.126l-.636.35c.109.109.243.326.324.308a3.106 3.106 0 00.662-.308z" transform="translate(-112.047 -58.354)" fill="#7e7d72"/><path id="Path_30106" data-name="Path 30106" d="M-382.609 322.948h1.974l.987 1.969v1.969l-2.96.984h-.987c-1.476-.084-.839-1.222-.987-1.968v-.984l.819-.324-.819-.66h-.987v-1.969h1.974z" transform="translate(-110.698 -67.775)" fill="#555048"/><path id="Path_30107" data-name="Path 30107" d="M-396.344 288.6c2.184-.551 2.053-2.258 1.974-3.937.748.148 1.89-.488 1.974.985l-.987 5.906h-2.96c-1.354-.241-1.2-.966-.614-1.856.229-.35.41-.732.613-1.098z" transform="translate(-103.871 -46.222)" fill="#3f3e27"/><path id="Path_30108" data-name="Path 30108" d="M-379.91 340.867h-.987v-2.953l.987-.984a17.606 17.606 0 002.78-.044c.429-.069.781-.612 1.168-.94H-373v.984l-1.974 1.969-2.96.984h-.987z" transform="translate(-113.397 -75.85)" fill="#aeafa5"/><path id="Path_30109" data-name="Path 30109" d="M-394.494 338.537h-2.377c-2.083-1.814.993-3.226.4-4.922l2.572 1.211c-.201 1.252-.401 2.481-.595 3.711z" transform="translate(-103.747 -74.504)" fill="#7e7d72"/><path id="Path_30110" data-name="Path 30110" d="M-397.613 328.556h-1.974v-1.969h.987c.7.133 1.758-.447 1.915.741.048.362-.599.816-.928 1.228z" transform="translate(-102.602 -70.429)" fill="#7e7d72"/><path id="Path_30111" data-name="Path 30111" d="M-386.2 317.874h-.987c-1.9-.259-.343-1.781-1.186-2.366 1.131-.77 1.9-1.028 2.173.4z" transform="translate(-109.077 -63.685)" fill="#706b5f"/><path id="Path_30112" data-name="Path 30112" d="M-400.141 311.883c-1.864.244-3.4-.457-5.531-2.26l5.531 1.276z" transform="translate(-99.088 -60.647)" fill="#aeafa5"/><path id="Path_30113" data-name="Path 30113" d="M-403.635 317.927h-1.974l-.987-2.953 1.974.984z" transform="translate(-98.555 -63.738)" fill="#615c51"/><path id="Path_30114" data-name="Path 30114" d="M-385.856 327.609v.984c-.7-.133-1.758.447-1.915-.741-.048-.362.6-.816.928-1.228h.987z" transform="translate(-109.425 -70.467)" fill="#706b5f"/><path id="Path_30115" data-name="Path 30115" d="M-400.936 319.273l-.987-1.969h2.959l-.985 1.969z" transform="translate(-101.253 -65.084)" fill="#aeafa5"/><path id="Path_30116" data-name="Path 30116" d="M-377.937 302.961h-2.96l.987-1.969 1.974.984z" transform="translate(-113.397 -55.663)" fill="#aeafa5"/><path id="Path_30117" data-name="Path 30117" d="M-383.854 305.653h.987v1.717l-.63.4-.7-1.959z" transform="translate(-111.427 -58.354)" fill="#aeafa5"/><path id="Path_30118" data-name="Path 30118" d="M-394.914 300.993h2.96c-.992 1.348-1.967 1.348-2.96 0z" transform="translate(-105.301 -55.663)" fill="#dbdad7"/><ellipse id="Ellipse_926" data-name="Ellipse 926" cx=".698" cy="1.392" rx=".698" ry="1.392" transform="translate(-502.394 253.781)" fill="#615c51"/><path id="Path_30119" data-name="Path 30119" d="M-394.516 307.608v-1.631l.469-.078.383 1.6z" transform="translate(-105.531 -58.497)" fill="#aeafa5"/><path id="Path_30120" data-name="Path 30120" d="M-379.91 336.929l-.987.984v-1.969h.987z" transform="translate(-113.397 -75.85)" fill="#7e7d72"/><path id="Path_30121" data-name="Path 30121" d="M-386.919 344.15h-.987l.662-.817z" transform="translate(-109.349 -80.117)" fill="#7e7d72"/><path id="Path_30122" data-name="Path 30122" d="M-410.28 313.628l-.987-.985z" transform="translate(-95.856 -62.392)" fill="#615c51"/><path id="Path_30123" data-name="Path 30123" d="M-392.578 313.628v-.985l.818.66z" transform="translate(-106.651 -62.392)" fill="#706b5f"/><path id="Path_30124" data-name="Path 30124" d="M-390.342 230h-4.934v-1.969c-.084-1.473-1.226-.836-1.974-.984v-.985l.987-.984 2.96-.984c.106.6.034 1.587.348 1.73a4.346 4.346 0 012.613 4.176z" transform="translate(-103.952 -11.25)" fill="#615c51"/><path id="Path_30125" data-name="Path 30125" d="M-392.578 208.77l1.974-.984c.329.386.873.737.942 1.165a17.523 17.523 0 01.044 2.773h-1.974c-.149-.746.49-1.885-.987-1.969z" transform="translate(-106.651 -1.829)" fill="#7e7d72"/><path id="Path_30126" data-name="Path 30126" d="M-391.954 221.405l-2.96.984 1.974-2.953h1.974z" transform="translate(-105.301 -8.558)" fill="#3f3e27"/><path id="Path_30127" data-name="Path 30127" d="M-388.268 218.091h-1.974v-.984h3.783l.065.651z" transform="translate(-108 -7.213)" fill="#615c51"/><path id="Path_30128" data-name="Path 30128" d="M-425.646 238.078h5.921v.984h-1.975V243h-2.961c-.463-1.9-1.989-.61-2.96-.984v-2.953c.749-.149 1.891.488 1.975-.985z" transform="translate(-86.411 -19.325)" fill="#615c51"/><path id="Path_30129" data-name="Path 30129" d="M-443.349 239.947h-2.96v-1.969h1.416c.895-1.519 1.849-3.022 1.545-4.922v-.984h.987l2.961-.984h.987v.984c-.482.316-.982.926-1.441.9-1.724-.112-1.538.994-1.52 2.057-.329.386-.873.737-.942 1.165a17.47 17.47 0 00-.045 2.773z" transform="translate(-75.617 -15.288)" fill="#a0a197"/><path id="Path_30130" data-name="Path 30130" d="M-399.325 233.418v1.969l-.987.984q-2.422-.447-1.974 1.969h-1.974v-1.969a2.426 2.426 0 001.974-2.953h2.961z" transform="translate(-99.904 -16.633)" fill="#706b5f"/><path id="Path_30131" data-name="Path 30131" d="M-434.649 236.275c-.019-1.062-.2-2.169 1.52-2.057.459.03.959-.58 1.441-.9q2.422-.448 1.974 1.969c-.084 1.473-1.226.836-1.974.984z" transform="translate(-82.343 -16.538)" fill="#7e7d72"/><path id="Path_30132" data-name="Path 30132" d="M-395.639 218.091l-1.974 2.953-.987.984h-.987v-3.937l1.974-.984c.084 1.472 1.225.836 1.974.984z" transform="translate(-102.602 -7.213)" fill="#706b5f"/><path id="Path_30133" data-name="Path 30133" d="M-413.152 218.045v.984l-.987 1.969-2.1-1.529c.528-1.737 1.391-2.633 3.088-2.408z" transform="translate(-92.984 -7.166)" fill="#7e7d72"/><path id="Path_30134" data-name="Path 30134" d="M-408.931 216.745v-.984l2.96-.985c1.476.084.838 1.222.987 1.969z" transform="translate(-97.206 -5.866)" fill="#615c51"/><path id="Path_30135" data-name="Path 30135" d="M-406.957 239.043v1.969h-1.974v-2.953c.748.148 1.889-.489 1.974.984z" transform="translate(-97.206 -19.306)" fill="#7e7d72"/><path id="Path_30136" data-name="Path 30136" d="M-401.3 230.726h-2.961v-1.969h1.974l.987.985z" transform="translate(-99.904 -13.941)" fill="#aeafa5"/><path id="Path_30137" data-name="Path 30137" d="M-438.314 229.556h-.987v-1.969l1.544-.855c1.605 1.168-.743 1.805-.557 2.824z" transform="translate(-79.665 -12.772)" fill="#7e7d72"/><path id="Path_30138" data-name="Path 30138" d="M-411.267 223.736l.987-1.968h1.944c-.632 1.606-1.564 2.153-2.931 1.968z" transform="translate(-95.856 -9.904)" fill="#706b5f"/><path id="Path_30139" data-name="Path 30139" d="M-402.285 226.066h-1.974l1.974-1.969z" transform="translate(-99.904 -11.25)" fill="#7e7d72"/><path id="Path_30140" data-name="Path 30140" d="M-419.874 222.128v2.608l-.5.058-.373-2.58z" transform="translate(-90.38 -10.113)" fill="#aeafa5"/><path id="Path_30141" data-name="Path 30141" d="M-406.893 234.064l-1.892.162-.081-.636 1.928-.376z" transform="translate(-97.243 -16.516)" fill="#aeafa5"/><path id="Path_30142" data-name="Path 30142" d="M-419.867 233.418a3.054 3.054 0 01.309.661c.018.081-.2.214-.309.324a3.076 3.076 0 01-.308-.661c-.019-.082.198-.215.308-.324z" transform="translate(-90.71 -16.633)" fill="#706b5f"/><path id="Path_30143" data-name="Path 30143" d="M-414.844 231.722l-.352.35a3.075 3.075 0 01-.308-.661c-.018-.081.2-.215.308-.324z" transform="translate(-93.409 -15.288)" fill="#706b5f"/><path id="Path_30144" data-name="Path 30144" d="M-428.969 229.742h-.987l.987-.985z" transform="translate(-85.062 -13.941)" fill="#7e7d72"/><path id="Path_30145" data-name="Path 30145" d="M-427.865 227.446l.688-.8.311.31-.806.686z" transform="translate(-86.27 -12.72)" fill="#7e7d72"/><path id="Path_30146" data-name="Path 30146" d="M-420.974 317.3c-.149.746.49 1.885-.987 1.969l-.987-.984.987-.984z" transform="translate(-89.11 -65.084)" fill="#929389"/><ellipse id="Ellipse_927" data-name="Ellipse 927" cx="2.093" cy=".696" rx="2.093" ry=".696" transform="translate(-523.526 255.954)" fill="#929389"/><path id="Path_30147" data-name="Path 30147" d="M-424.317 319.634l.987.984c-.084 1.473-1.225.836-1.974.984.149-.745-.489-1.884.987-1.968z" transform="translate(-87.741 -66.429)" fill="#706b5f"/><path id="Path_30148" data-name="Path 30148" d="M-429.332 324.294c-.463 1.9-1.989.61-2.961.984v-.984z" transform="translate(-83.712 -69.121)" fill="#a0a197"/><path id="Path_30149" data-name="Path 30149" d="M-436.341 324.18v.984h-2.96c.463-1.897 1.989-.609 2.96-.984z" transform="translate(-79.665 -69.007)" fill="#dbdad7"/><path id="Path_30150" data-name="Path 30150" d="M-558.283 347.5l-3.212-2.109c-1.732 1.117.569 3.443-1.723 4.077-.084-1.473-1.226-.836-1.974-.984-.463-1.9-1.99-.61-2.961-.984-.084-1.473-1.226-.836-1.974-.985v-.984h1.07l2.877-2.953h2.96v-1.969h5.1l-.744 3.735 1.568.515v2.64zm-6.132-3.476a5.75 5.75 0 00-.719 1.735c0 .25.787.777.883.708a2.749 2.749 0 00.978-1.185c.064-.173-.499-.576-1.141-1.262zm3.339.367l.852-.106-.383-1.6-.469.076z" transform="translate(-4.104 -78.542)" fill="#706b5f"/><path id="Path_30151" data-name="Path 30151" d="M-557.82 337.939v1.969h-2.96l1.307-3.906c2.114-.153 1.565 1.088 1.653 1.937z" transform="translate(-9.502 -75.875)" fill="#615c51"/><path id="Path_30152" data-name="Path 30152" d="M-566.8 356.8c.971.375 2.5-.912 2.961.984l.987.984c-.463 1.9-1.989.61-2.961.984l-.987-.984-.987-.984z" transform="translate(-5.454 -87.848)" fill="#929389"/><path id="Path_30153" data-name="Path 30153" d="M-552.555 324.294h1.974a5.258 5.258 0 01-.987 3.937l-.987-.984a7.508 7.508 0 00-.583-2.006c-.562-.895-.021-.887.583-.947z" transform="translate(-13.78 -69.121)" fill="#706b5f"/><path id="Path_30154" data-name="Path 30154" d="M-565.911 324.822c-.084-1.473-1.225-.836-1.974-.985q-.449-2.416 1.974-1.969h.987v2.953z" transform="translate(-5.358 -67.68)" fill="#555048"/><path id="Path_30155" data-name="Path 30155" d="M-569.52 355.552l-.987.984h-1.988l1-1.969c.75.148 1.895-.488 1.975.985z" transform="translate(-2.736 -86.598)" fill="#555048"/><path id="Path_30156" data-name="Path 30156" d="M-562.149 319.273h-.987c.149-.746-.489-1.884.987-1.969l.987 1.969z" transform="translate(-8.133 -65.084)" fill="#929389"/><path id="Path_30157" data-name="Path 30157" d="M-563.117 328.955h.987c-.376.969.914 2.491-.987 2.953z" transform="translate(-8.152 -71.813)" fill="#929389"/><path id="Path_30158" data-name="Path 30158" d="M-571.244 352.256v.984l-.818-.66z" transform="translate(-2.986 -85.271)" fill="#555048"/><path id="Path_30159" data-name="Path 30159" d="M-408.871 321.685c-.055.709-.1 1.3-.158 2.028l-3.294-1.582z" transform="translate(-95.246 -67.614)" fill="#615c51"/><path id="Path_30160" data-name="Path 30160" d="M-560.614 375.558v1.969c-.971.375-2.5-.912-2.96.984q-2.422.448-1.974-1.969z" transform="translate(-6.707 -98.73)" fill="#7e7d72"/><path id="Path_30161" data-name="Path 30161" d="M-560.78 381.088c.463-1.9 1.989-.609 2.96-.984l.987.984-.987.985c-.971-.373-2.498.912-2.96-.985z" transform="translate(-9.502 -101.307)" fill="#615c51"/><path id="Path_30162" data-name="Path 30162" d="M-567.24 369.811l-3.411-1.853 1.759-1.558z" transform="translate(-3.801 -93.44)" fill="#706b5f"/><path id="Path_30163" data-name="Path 30163" d="M-566.767 376.77l-.806-.686.311-.31.688.8z" transform="translate(-5.578 -98.854)" fill="#7e7d72"/><path id="Path_30164" data-name="Path 30164" d="M-365.632 291.672c.149.746-.49 1.884.987 1.969l.987.984v1.969h-3.947c-.084-1.473-1.226-.836-1.974-.984l-1.974-1.969v-1.969z" transform="translate(-118.794 -50.279)" fill="#3f3e27"/><path id="Path_30165" data-name="Path 30165" d="M-342.29 306.637v1.969c-1.476.084-.838 1.222-.987 1.969l-1.6.917c-1.185-.536.7-2.687-1.408-2.834a2 2 0 00.148-.141l-.688-.8-.311.31a5.528 5.528 0 00.851.635c-.284.277-.613.6-.942.933-1.476-.084-.838-1.223-.987-1.969.148-.746-.49-1.884.987-1.969h.987l.987.984z" transform="translate(-132.268 -58.354)" fill="#aeafa5"/><path id="Path_30166" data-name="Path 30166" d="M-367 288.98h-6.908c.149-.746-.49-1.885.987-1.969h3.948c.084 1.472 1.225.836 1.974.984z" transform="translate(-117.425 -47.588)" fill="#dbdad7"/><path id="Path_30167" data-name="Path 30167" d="M-349.9 302.927c-1.476.084-.839 1.223-.987 1.968h-1.974c.195-.358.521-.709.542-1.078.016-.286-.348-.593-.542-.891v-1.969a2.432 2.432 0 012.961 1.97z" transform="translate(-129.588 -55.628)" fill="#615c51"/><path id="Path_30168" data-name="Path 30168" d="M-354.213 297.316l-.987-.984z" transform="translate(-128.239 -52.971)" fill="#aeafa5"/><path id="Path_30169" data-name="Path 30169" d="M-342.532 306.637l-.987-.984z" transform="translate(-134.986 -58.354)" fill="#615c51"/><path id="Path_30170" data-name="Path 30170" d="M-451.344 239.324h-.987c-.221-.713-.471-1.419-.656-2.142-.151-.588-.224-1.2-.331-1.8h2.394l1.554-1.969.987.984a18.145 18.145 0 01-2.024 2.453 2.569 2.569 0 00-.937 2.474z" transform="translate(-71.569 -16.633)" fill="#a0a197"/><path id="Path_30171" data-name="Path 30171" d="M-449.337 221.981c.682 1.716.285 2.928-1.4 3.757-.685-1.717-.288-2.929 1.4-3.757z" transform="translate(-72.875 -10.028)" fill="#615c51"/><path id="Path_30172" data-name="Path 30172" d="M-542.091 377.773c.971.375 2.5-.912 2.96.984-.969-.374-2.497.913-2.96-.984z" transform="translate(-20.296 -99.961)" fill="#3f3e27"/><path id="Path_30173" data-name="Path 30173" d="M-526.1 382.187h-1.974v-1.969l1.974.984z" transform="translate(-28.392 -101.421)" fill="#615c51"/><path id="Path_30174" data-name="Path 30174" d="M-530.773 380.218v.984c-.748-.148-1.89.488-1.974-.984h1.974z" transform="translate(-25.693 -101.421)" fill="#3f3e27"/><path id="Path_30175" data-name="Path 30175" d="M-552.785 381.182l-.987-.984a5.824 5.824 0 01.961.012 4.694 4.694 0 01.834.3z" transform="translate(-13.549 -101.401)" fill="#7e7d72"/><path id="Path_30176" data-name="Path 30176" d="M-412.979 245.069h1.974c.387.328.739.871 1.168.939a17.606 17.606 0 002.78.045q2.422-.448 1.974 1.968h-2.96c-.066-1.216-.924-1.211-1.613-.794a2.424 2.424 0 00-1.348 2.762h-4.934v-1.969c.972-.375 2.5.912 2.961-.984v-1.969z" transform="translate(-93.157 -23.363)" fill="#615c51"/><path id="Path_30177" data-name="Path 30177" d="M-399.683 242.281q-.449-2.417 1.974-1.969v1.969z" transform="translate(-102.507 -20.575)" fill="#615c51"/><path id="Path_30178" data-name="Path 30178" d="M-386.272 242.6v1.79l-3.931.326z" transform="translate(-108.022 -21.934)" fill="#a0a197"/><path id="Path_30179" data-name="Path 30179" d="M-402.285 245.069h1.974v.984a17.606 17.606 0 01-2.78-.045c-.429-.069-.781-.612-1.168-.939z" transform="translate(-99.904 -23.363)" fill="#929389"/><path id="Path_30180" data-name="Path 30180" d="M-394.914 239.062l.987-.984z" transform="translate(-105.301 -19.325)" fill="#615c51"/><path id="Path_30181" data-name="Path 30181" d="M-339.934 324.889v1.969h-2.961c-.207-2.205-.75-2.747-2.96-2.953v-.984c1.451-1.293 3.229-.958 4.934-.984v1.963l-.818.324.818.66z" transform="translate(-133.636 -67.747)" fill="#dbdad7"/><path id="Path_30182" data-name="Path 30182" d="M-340.921 316.58c-1.705.026-3.483-.309-4.934.984v-3.937l.987-.985c2.059.2.178 2.35 1.364 2.886l1.6-.917h1.974v1.969z" transform="translate(-133.636 -62.392)" fill="#615c51"/><path id="Path_30183" data-name="Path 30183" d="M-334.556 314.612h-1.974c.149-.746-.489-1.885.987-1.969 1.476.084.843 1.223.987 1.969z" transform="translate(-139.014 -62.392)" fill="#3f3e27"/><path id="Path_30184" data-name="Path 30184" d="M-334.175 321.964h2.8l.07.7-2.866.285z" transform="translate(-140.382 -67.775)" fill="#3f3e27"/><path id="Path_30185" data-name="Path 30185" d="M-335.294 327.609l-.818-.66.818-.324z" transform="translate(-139.264 -70.467)" fill="#a0a197"/><path id="Path_30186" data-name="Path 30186" d="M-378.052 291.672h.987v1.969c-1.476.084-.838 1.223-.987 1.969v.984l-1.974-.984c-1.9-.462-.611-1.985-.987-2.953.972-.375 2.499.912 2.961-.985z" transform="translate(-113.282 -50.279)" fill="#929389"/><path id="Path_30187" data-name="Path 30187" d="M-377.937 291.557c-.463 1.9-1.989.61-2.96.984.463-1.896 1.989-.609 2.96-.984z" transform="translate(-113.397 -50.165)" fill="#706b5f"/><path id="Path_30188" data-name="Path 30188" d="M-392.94 215.4c-.748-.148-1.89.488-1.974-.984l.987-1.969c1.476.084.838 1.223.987 1.969z" transform="translate(-105.301 -4.521)" fill="#555048"/><path id="Path_30189" data-name="Path 30189" d="M-448.686 240.67a2.568 2.568 0 01.937-2.469 18.141 18.141 0 002.024-2.453h.987c.3 1.9-.65 3.4-1.545 4.922h-2.4z" transform="translate(-74.227 -17.979)" fill="#615c51"/><path id="Path_30190" data-name="Path 30190" d="M-526.463 342.1c-.084 1.473-1.226.836-1.974.984q.449-2.416-1.974-1.969v-.984c1.476-.084.839-1.223.987-1.969.971.375 2.5-.912 2.96.984z" transform="translate(-27.042 -77.082)" fill="#615c51"/><path id="Path_30191" data-name="Path 30191" d="M-542.091 356.917h2.557l1.177 3.794-1.563.138v-2.227z" transform="translate(-20.296 -87.963)" fill="#3f3e27"/><path id="Path_30192" data-name="Path 30192" d="M-532.852 341.59v.984l-1.785 1.5v-3.466h1.785z" transform="translate(-24.601 -78.542)" fill="#3f3e27"/><path id="Path_30193" data-name="Path 30193" d="M-535.083 326.624h.987l.987 1.225-.987.744h-.987z" transform="translate(-24.344 -70.467)" fill="#3f3e27"/><path id="Path_30194" data-name="Path 30194" d="M-536.356 331.285h.987v1.969c-.7-.133-1.758.447-1.915-.741-.048-.363.599-.813.928-1.228z" transform="translate(-23.071 -73.159)" fill="#706b5f"/><path id="Path_30195" data-name="Path 30195" d="M-538.108 372.524l2.1-1.309c.222 1.253.528 2.428-2.1 1.309z" transform="translate(-22.597 -96.221)" fill="#3f3e27"/><path id="Path_30196" data-name="Path 30196" d="M-530.411 338.9v-2.953l.987.984c-.149.744.489 1.883-.987 1.969z" transform="translate(-27.042 -75.85)" fill="#a0a197"/><path id="Path_30197" data-name="Path 30197" d="M-557.457 360.212l-.987-.984c.748.148 1.89-.488 1.974.984z" transform="translate(-10.851 -89.289)" fill="#3f3e27"/><path id="Path_30198" data-name="Path 30198" d="M-551.436 365.121l.662-.816.325.816z" transform="translate(-14.899 -92.23)" fill="#3f3e27"/><path id="Path_30199" data-name="Path 30199" d="M-551.436 366.237h.987l-.987.984z" transform="translate(-14.899 -93.346)" fill="#706b5f"/><path id="Path_30200" data-name="Path 30200" d="M-532.747 334.6v-.984l.987.984z" transform="translate(-25.693 -74.504)" fill="#3f3e27"/><path id="Path_30201" data-name="Path 30201" d="M-532.843 318.815v-1.969q-.449-2.416 1.974-1.969v2.461l2.729 1.257z" transform="translate(-25.597 -63.642)" fill="#706b5f"/><path id="Path_30202" data-name="Path 30202" d="M-512.84 331.285v.984l-.819-.66z" transform="translate(-36.718 -73.159)" fill="#615c51"/><path id="Path_30203" data-name="Path 30203" d="M-503.726 333.615v2.777l-.649.074-.338-1.867z" transform="translate(-41.885 -74.504)" fill="#3f3e27"/><path id="Path_30204" data-name="Path 30204" d="M-514.058 347.6l.987 1.224-.987.744z" transform="translate(-36.487 -82.58)" fill="#3f3e27"/><path id="Path_30205" data-name="Path 30205" d="M-481.371 270.339c.149-.746-.489-1.885.987-1.969v3.93z" transform="translate(-55.358 -36.821)" fill="#615c51"/><path id="Path_30206" data-name="Path 30206" d="M-462.4 282.351c2.181.758.231 2.472 1.931 4.3l-5.879-1.343-.987-.984z" transform="translate(-63.473 -44.896)" fill="#555048"/><path id="Path_30207" data-name="Path 30207" d="M-470.033 270.7h1.974v.985l-.819.324.819.66v2.953h-1.974q.449-2.416-1.974-1.969v-1.969c.748-.148 1.89.489 1.974-.984z" transform="translate(-60.775 -38.167)" fill="#615c51"/><path id="Path_30208" data-name="Path 30208" d="M-471.383 287.012l.987.984c-.387.328-.738.871-1.167.94a17.662 17.662 0 01-2.78.044l.987-.984z" transform="translate(-59.425 -47.588)" fill="#615c51"/><path id="Path_30209" data-name="Path 30209" d="M-472.007 283.335v-.984h1.974c-.084 1.473-1.226.836-1.974.984z" transform="translate(-60.775 -44.896)" fill="#615c51"/><path id="Path_30210" data-name="Path 30210" d="M-456.379 267.162c-.748-.148-1.889.488-1.974-.984q.449-2.417-1.974-1.969v-2.919c1.571 1.588 2.662-.58 3.947-.034v1.969q-.449 2.416 1.974 1.969v.985c-.747.147-1.888-.49-1.973.983z" transform="translate(-67.521 -32.66)" fill="#615c51"/><path id="Path_30211" data-name="Path 30211" d="M-461.675 268.274q2.422-.447 1.974 1.969h-2.96v-.985z" transform="translate(-66.172 -36.725)" fill="#3f3e27"/><path id="Path_30212" data-name="Path 30212" d="M-470.033 269.354c-.084 1.473-1.225.836-1.974.985v-.985l.987-.984h.987z" transform="translate(-60.775 -36.821)" fill="#3f3e27"/><path id="Path_30213" data-name="Path 30213" d="M-471.041 267.268l-.987.984a5.8 5.8 0 01.012-.958 4.671 4.671 0 01.3-.832z" transform="translate(-60.754 -35.719)" fill="#7e7d72"/><path id="Path_30214" data-name="Path 30214" d="M-499.416 359.228c.748.148 1.889-.488 1.974.984-1.841.417-.839 1.677-.81 2.472l2.007 1.475c-1.027 1.641-2.143 1.265-4.158-.994-.084-1.473-1.226-.836-1.974-.984v-1.532c1.095-.905 2.732.441 2.961-1.421z" transform="translate(-43.234 -89.289)" fill="#7e7d72"/><path id="Path_30215" data-name="Path 30215" d="M-483.688 348.219v-2.953h3.948v1.968l-.819.324.819.66v1.969c-.971-.375-2.5.912-2.961-.985z" transform="translate(-54.028 -81.234)" fill="#706b5f"/><path id="Path_30216" data-name="Path 30216" d="M-474.343 352.86v-.985l.987-.984c.084-1.473 1.225-.836 1.974-.984h.987l.987.984a17.477 17.477 0 01-.045 2.773c-.069.428-.613.779-.942 1.165-.463-1.9-1.989-.61-2.96-.984zm3.6-.142l.351-.351a3.1 3.1 0 00-.662-.308c-.081-.018-.215.2-.324.308z" transform="translate(-59.425 -83.906)" fill="#aeafa5"/><path id="Path_30217" data-name="Path 30217" d="M-473.356 359.132c.971.375 2.5-.912 2.96.984-.376.969.915 2.492-.987 2.953l-1.228-.984-.746.984h-.987v-.984z" transform="translate(-59.425 -89.194)" fill="#7e7d72"/><path id="Path_30218" data-name="Path 30218" d="M-493.032 352.256h2.96v.984l-.987.985h-.987l-.987-.985z" transform="translate(-48.631 -85.271)" fill="#a0a197"/><path id="Path_30219" data-name="Path 30219" d="M-478.257 366.237v.984h-2.79l-.073-.7z" transform="translate(-55.511 -93.346)" fill="#aeafa5"/><path id="Path_30220" data-name="Path 30220" d="M-486.024 353.24v-.984h.987l.987.984z" transform="translate(-52.679 -85.271)" fill="#aeafa5"/><path id="Path_30221" data-name="Path 30221" d="M-502.377 366.218c.748.148 1.89-.488 1.974.984h-1.974z" transform="translate(-43.234 -93.327)" fill="#615c51"/><path id="Path_30222" data-name="Path 30222" d="M-436.441 340.244c.084 1.472 1.225.836 1.974.984v.984l-1 1.969h1.987v.984l-2.693 2.717-.906-.757-.687 1.877-1.45-.9-2.943 1.284 1.226 2.985-3.4-1.3a8.38 8.38 0 00-.755-.975c-.374-.364-.81-.665-1.219-.993.2-2 2.192-.256 2.928-1.516l-.955-.453c-.085-1.473-1.226-.836-1.974-.984l.987-1.969c3.042.49 4.255-1.075 4.109-3.841l3.786-.3v-1.761c1.475.08.837 1.221.985 1.965z" transform="translate(-75.617 -77.196)" fill="#7e7d72"/><path id="Path_30223" data-name="Path 30223" d="M-458.453 353.14c.409.328.845.629 1.219.993a8.379 8.379 0 01.755.975v1.459l-3.948 1.494a24.321 24.321 0 00-2.075-2.516c-.776-.731-1.606-.85-1.872.548-.972-.375-2.5.912-2.961-.985 1.9-.461.611-1.984.987-2.953.329-.386.873-.737.942-1.165a17.469 17.469 0 00.045-2.773 7.216 7.216 0 001.031-.052 2.222 2.222 0 00-.148.141l.688.8.311-.31a5.554 5.554 0 00-.851-.634c-.343-1.559.314-2.215 1.929-1.917l.987-.984h.987c.2 1.822-.837 4.14 1.974 4.922.748.148 1.889-.488 1.974.984h-3.541z" transform="translate(-63.473 -81.234)" fill="#929389"/><path id="Path_30224" data-name="Path 30224" d="M-405.608 342.936a7.643 7.643 0 001.209 1.64 10.035 10.035 0 002.162.965l-1.32 1.881 1.9.879v1.525c-1.705.026-3.483-.309-4.934.984v-3.937h1.622c-.243-1.479-.441-2.708-.639-3.937z" transform="translate(-98.555 -79.888)" fill="#555048"/><path id="Path_30225" data-name="Path 30225" d="M-420.35 363.907v1.708c-2.059-.266-2.612 2.687-4.934 2.23v-2.573z" transform="translate(-87.76 -92)" fill="#555048"/><path id="Path_30226" data-name="Path 30226" d="M-407.944 361.577l-.662.816-.325-.816z" transform="translate(-97.206 -90.655)" fill="#555048"/><path id="Path_30227" data-name="Path 30227" d="M-502.419 394.683c1.783-1.06 2.121.422 3 1.132-1.787 1.06-2.125-.422-3-1.132z" transform="translate(-43.209 -109.562)" fill="#615c51"/><path id="Path_30228" data-name="Path 30228" d="M-503.464 355.32c-.229 1.862-1.866.516-2.961 1.421v1.532h-2.96V356.3a8.329 8.329 0 01.754-.976c.374-.364.81-.665 1.219-.993l2.591-1.888c1.163.557-.692 2.677 1.357 2.877z" transform="translate(-39.186 -85.382)" fill="#615c51"/><path id="Path_30229" data-name="Path 30229" d="M-523.4 379.992v-1.8l.653-.07.334 1.87z" transform="translate(-31.09 -100.21)" fill="#7e7d72"/><ellipse id="Ellipse_928" data-name="Ellipse 928" cx=".698" cy=".696" rx=".698" ry=".696" transform="translate(-554.697 279.578)" fill="#a0a197"/><path id="Path_30230" data-name="Path 30230" d="M-439.3 249.253l.987-.984a17.667 17.667 0 002.78-.044c.429-.069.781-.612 1.168-.94.971.375 2.5-.912 2.96.984-.743.656-1.5 1.3-2.221 1.977a7.246 7.246 0 00-.74.976c-1.945.092-3.78-.091-4.934-1.969z" transform="translate(-79.665 -24.594)" fill="#555048"/><path id="Path_30231" data-name="Path 30231" d="M-427.62 252.682a7.248 7.248 0 01.74-.976c.719-.682 1.478-1.321 2.221-1.977h1.974v5.48c-1.815-1.449-3.795-.909-4.935-2.527z" transform="translate(-86.411 -26.054)" fill="#929389"/><path id="Path_30232" data-name="Path 30232" d="M-446.309 268.986V268l.987-1.969a4.534 4.534 0 013.947 1.969h-3.54l1.567 1.969v.984h-1.974z" transform="translate(-75.617 -35.468)" fill="#555048"/><path id="Path_30233" data-name="Path 30233" d="M-413.642 256.719h6.908c-4.2 2.555-4.64 2.587-6.9.468-.078-.075-.008-.308-.008-.468z" transform="translate(-94.468 -30.091)" fill="#a0a197"/><path id="Path_30234" data-name="Path 30234" d="M-450.982 261.74v-.984l5.585-2.161.381 1.473c-.555 1.552-2.835-.4-3.006 1.672z" transform="translate(-72.918 -31.175)" fill="#555048"/><path id="Path_30235" data-name="Path 30235" d="M-401.406 252.6h-2.961a2.423 2.423 0 011.348-2.762c.689-.417 1.547-.422 1.613.794z" transform="translate(-99.796 -25.969)" fill="#7e7d72"/><path id="Path_30236" data-name="Path 30236" d="M-441.443 272.669l-1.567-1.969h3.54v2.967z" transform="translate(-77.522 -38.167)" fill="#7e7d72"/><ellipse id="Ellipse_929" data-name="Ellipse 929" cx="2.093" cy=".696" rx="2.093" ry=".696" transform="translate(-514.645 230.361)" fill="#a0a197"/><path id="Path_30237" data-name="Path 30237" d="M-417.651 264.657h-2.961c.993-1.349 1.968-1.349 2.961 0z" transform="translate(-90.459 -34.092)" fill="#929389"/><path id="Path_30238" data-name="Path 30238" d="M-427.62 268.37h2.96c-.463 1.9-1.989.61-2.96.984z" transform="translate(-86.411 -36.821)" fill="#555048"/><path id="Path_30239" data-name="Path 30239" d="M-428.935 264.921l-.806-.686.311-.31.688.8z" transform="translate(-85.186 -34.253)" fill="#a0a197"/><path id="Path_30240" data-name="Path 30240" d="M-445.322 277.691h1.974v1.969h-2.96v-1.969z" transform="translate(-75.617 -42.204)" fill="#7e7d72"/><path id="Path_30241" data-name="Path 30241" d="M-448.021 274.98h-.987l-1.974-.984c.084-1.473 1.226-.836 1.974-.984z" transform="translate(-72.918 -39.494)" fill="#929389"/><path id="Path_30242" data-name="Path 30242" d="M-445.5 285.666c-.353 1.85-1.666.775-2.825.876l.852-1.861z" transform="translate(-74.453 -46.242)" fill="#929389"/><path id="Path_30243" data-name="Path 30243" d="M-466.711 297.078h-2.62l-.047-.515 2.614-.365z" transform="translate(-62.293 -52.893)" fill="#7e7d72"/><path id="Path_30244" data-name="Path 30244" d="M-444.335 284.32l-1.974-.985v-.984h1.974v1.969z" transform="translate(-75.617 -44.896)" fill="#555048"/><path id="Path_30245" data-name="Path 30245" d="M-439.3 282.351c1.476.084.838 1.223.987 1.969l-.987-.985z" transform="translate(-79.665 -44.896)" fill="#929389"/><path id="Path_30246" data-name="Path 30246" d="M-463.781 274.015l-.819-.66.819-.324z" transform="translate(-65.053 -39.513)" fill="#3f3e27"/><path id="Path_30247" data-name="Path 30247" d="M-436.965 287.012l.987.984z" transform="translate(-81.014 -47.588)" fill="#929389"/><ellipse id="Ellipse_930" data-name="Ellipse 930" cx=".698" cy=".696" rx=".698" ry=".696" transform="translate(-520.157 237.251)" fill="#615c51"/><path id="Path_30248" data-name="Path 30248" d="M-436.078 338.275v1.761l-3.786.3c.146 2.766-1.067 4.331-4.109 3.841v-2.953a7.218 7.218 0 01.74-.976c.719-.682 1.478-1.321 2.221-1.977z" transform="translate(-76.966 -77.196)" fill="#929389"/><path id="Path_30249" data-name="Path 30249" d="M-465.723 342.824h-.987l-.987-.984c2.324-.3-.462-1.18.193-1.668l1.653-.6c-.683-1.992-2.322-1.665-3.82-1.669 2.581-1.563 3.693-2.117 4.666-1.948a2.4 2.4 0 012.242 2.933c-1.476.084-.838 1.222-.987 1.969q-2.422-.449-1.973 1.967z" transform="translate(-62.124 -75.839)" fill="#706b5f"/><path id="Path_30250" data-name="Path 30250" d="M-448.06 345.266v2.953l-.987 1.969c-2.811-.781-1.772-3.1-1.974-4.922z" transform="translate(-72.88 -81.234)" fill="#aeafa5"/><path id="Path_30251" data-name="Path 30251" d="M-469.671 340.581c1.5 0 3.136-.323 3.82 1.669l-1.653.6c-.654.488 2.131 1.371-.193 1.668h-.987l-.987-2.953z" transform="translate(-62.124 -78.518)" fill="#615c51"/><path id="Path_30252" data-name="Path 30252" d="M-472.369 342.917l.987 2.953c-.748.148-1.89-.488-1.974.984h-.987V343.9c.084-1.472 1.225-.835 1.974-.983z" transform="translate(-59.425 -79.869)" fill="#3f3e27"/><path id="Path_30253" data-name="Path 30253" d="M-440.669 333.615c1.476.084.838 1.222.987 1.969h-1.988z" transform="translate(-78.296 -74.504)" fill="#706b5f"/><path id="Path_30254" data-name="Path 30254" d="M-467.335 331.285h2.79l.073.7-2.863.286z" transform="translate(-63.473 -73.159)" fill="#aeafa5"/><path id="Path_30255" data-name="Path 30255" d="M-455.673 344.9c.149-.746-.49-1.885.987-1.968v.984z" transform="translate(-70.2 -79.888)" fill="#615c51"/><path id="Path_30256" data-name="Path 30256" d="M-468.454 331.285v.984l-.818-.66z" transform="translate(-62.354 -73.159)" fill="#706b5f"/><path id="Path_30257" data-name="Path 30257" d="M-506.972 350.773c-.11-2.474-.057-3.654 1.852-2.856z" transform="translate(-40.56 -82.622)" fill="#3f3e27"/><path id="Path_30258" data-name="Path 30258" d="M-493.032 354.586l.987.985z" transform="translate(-48.631 -86.617)" fill="#615c51"/><path id="Path_30259" data-name="Path 30259" d="M-508.171 352.2l-.688.8-.311-.311.806-.686z" transform="translate(-39.31 -85.13)" fill="#3f3e27"/><path id="Path_30260" data-name="Path 30260" d="M-487.373 351.14h-.987l.662-.816z" transform="translate(-51.33 -84.155)" fill="#706b5f"/><path id="Path_30261" data-name="Path 30261" d="M-347.2 326.624c2.211.206 2.754.748 2.96 2.953a4.534 4.534 0 01-3.947 1.968v-1.968c1.897-.461.607-1.984.987-2.953z" transform="translate(-132.287 -70.467)" fill="#a0a197"/><path id="Path_30262" data-name="Path 30262" d="M-354.576 335.584c-.241 1.35-.968 1.2-1.86.613-.35-.23-.732-.41-1.1-.613l1.974-1.969c1.476.085.838 1.222.986 1.969z" transform="translate(-126.89 -74.504)" fill="#a0a197"/><path id="Path_30263" data-name="Path 30263" d="M-358.261 330.924l-1.974 1.968h-1.974v-.984l.987-.984.987-.984.987-.984h.987z" transform="translate(-124.191 -71.813)" fill="#dbdad7"/><path id="Path_30264" data-name="Path 30264" d="M-406.554 342.936c.2 1.229.4 2.458.635 3.937h-1.622l-.692-2.739z" transform="translate(-97.609 -79.888)" fill="#706b5f"/><path id="Path_30265" data-name="Path 30265" d="M-352.864 330.924v-1.969h1.974v3.937h-.987c-.149-.746.489-1.884-.987-1.968z" transform="translate(-129.588 -71.813)" fill="#706b5f"/><path id="Path_30266" data-name="Path 30266" d="M-424.3 338.965c-.149-.746.49-1.885-.987-1.969.387-.328 1.038-.994 1.119-.931a15.221 15.221 0 011.83 1.808c.077.084.011.3.011.8z" transform="translate(-87.76 -75.917)" fill="#929389"/><path id="Path_30267" data-name="Path 30267" d="M-373.889 343.92l2.96-.984v1.553c-1.071.304-2.238 1.248-2.96-.569z" transform="translate(-117.445 -79.888)" fill="#929389"/><path id="Path_30268" data-name="Path 30268" d="M-418.657 349.565h-1.988l1-1.969h1.974z" transform="translate(-90.44 -82.58)" fill="#929389"/><path id="Path_30269" data-name="Path 30269" d="M-416.3 346.25h-1.974v-.984h3.937z" transform="translate(-91.808 -81.234)" fill="#3f3e27"/><path id="Path_30270" data-name="Path 30270" d="M-378.561 346.25l.987-.984z" transform="translate(-114.746 -81.234)" fill="#929389"/><path id="Path_30271" data-name="Path 30271" d="M-383.285 352.012l.806.686-.311.311-.688-.8z" transform="translate(-111.906 -85.13)" fill="#929389"/><path id="Path_30272" data-name="Path 30272" d="M-426.525 331.919l-.351.35a3.079 3.079 0 01-.309-.661c-.018-.081.2-.214.309-.324z" transform="translate(-86.662 -73.159)" fill="#7e7d72"/><path id="Path_30273" data-name="Path 30273" d="M-370.932 310.575c-1.794.059-2.988-.564-2.962-2.585.01-.779 0-1.557 0-2.336h2.96c.084 1.473 1.226.836 1.974.984.846 1.476.846 1.476 0 2.953-.746.148-1.887-.491-1.972.984z" transform="translate(-117.442 -58.354)" fill="#929389"/><path id="Path_30274" data-name="Path 30274" d="M-365.994 326.263l-.987.984h-.987c-.084-1.473-1.226-.836-1.974-.984h-2.958l-.987-1.969h7.895l.987.984z" transform="translate(-117.445 -69.121)" fill="#706b5f"/><path id="Path_30275" data-name="Path 30275" d="M-366.881 315.939c.085-1.473 1.226-.836 1.974-.984.748.148 1.889-.488 1.974.984-1.476.084-.838 1.223-.987 1.969h-2.961z" transform="translate(-121.492 -63.719)" fill="#706b5f"/><path id="Path_30276" data-name="Path 30276" d="M-368.23 321.964h4.934v.984h-5.921z" transform="translate(-120.143 -67.775)" fill="#929389"/><path id="Path_30277" data-name="Path 30277" d="M-375.589 319.97l.351.35a3.109 3.109 0 01-.662.308c-.081.018-.215-.2-.324-.308z" transform="translate(-116.096 -66.624)" fill="#929389"/><path id="Path_30278" data-name="Path 30278" d="M-379.91 322.948l-.987-.984z" transform="translate(-113.397 -67.775)" fill="#929389"/><path id="Path_30279" data-name="Path 30279" d="M-371.553 328.955h2.961v2.953h-1.974l-.987-.984z" transform="translate(-118.794 -71.813)" fill="#929389"/><path id="Path_30280" data-name="Path 30280" d="M-375.6 333.615l.987.984c-.387.328-.739.871-1.168.94a17.613 17.613 0 01-2.78.044v-.983z" transform="translate(-114.746 -74.504)" fill="#3f3e27"/><path id="Path_30281" data-name="Path 30281" d="M-383.234 327.609v-.985l.819.66z" transform="translate(-112.047 -70.467)" fill="#929389"/><path id="Path_30282" data-name="Path 30282" d="M-364.544 331.888v-2.953c.748.148 1.889-.488 1.974.984v.984l-.987.984z" transform="translate(-122.842 -71.794)" fill="#a0a197"/><path id="Path_30283" data-name="Path 30283" d="M-370.929 302.942h-2.96v-1.969h2.96c.748.148 1.89-.488 1.974.984l-.987.984z" transform="translate(-117.445 -55.644)" fill="#7e7d72"/><path id="Path_30284" data-name="Path 30284" d="M-397.25 232.053v-.984c.748.148 1.889-.488 1.974.984z" transform="translate(-103.952 -15.268)" fill="#7e7d72"/><path id="Path_30285" data-name="Path 30285" d="M-398.6 229.742l-.987-.985h.987z" transform="translate(-102.602 -13.941)" fill="#7e7d72"/><path id="Path_30286" data-name="Path 30286" d="M-433.064 243.361c-.387.328-.739.871-1.168.94a17.666 17.666 0 01-2.78.044 17.473 17.473 0 01.045-2.773c.069-.428.613-.779.942-1.165h2.961z" transform="translate(-80.967 -20.671)" fill="#929389"/><path id="Path_30287" data-name="Path 30287" d="M-411.629 242.377v.984h-1.971v-2.953h1.974z" transform="translate(-94.507 -20.671)" fill="#929389"/><path id="Path_30288" data-name="Path 30288" d="M-415.94 250.713v-.984h2.961c-.463 1.897-1.989.61-2.961.984z" transform="translate(-93.157 -26.054)" fill="#a0a197"/><ellipse id="Ellipse_931" data-name="Ellipse 931" cx="1.396" cy=".696" rx="1.396" ry=".696" transform="translate(-508.519 222.486)" fill="#7e7d72"/><path id="Path_30289" data-name="Path 30289" d="M-557.589 348.689c.643.686 1.206 1.089 1.142 1.258a2.75 2.75 0 01-.978 1.185c-.1.068-.885-.459-.883-.708a5.749 5.749 0 01.719-1.735z" transform="translate(-10.93 -83.211)" fill="#555048"/><path id="Path_30290" data-name="Path 30290" d="M-548.7 347.221v-1.632l.469-.076.383 1.6z" transform="translate(-16.478 -81.376)" fill="#555048"/><path id="Path_30291" data-name="Path 30291" d="M-370.948 298.3h-2.96c.149-.746-.49-1.885.987-1.969z" transform="translate(-117.425 -52.971)" fill="#dbdad7"/><path id="Path_30292" data-name="Path 30292" d="M-358.261 303.323v.984h-3.947v-.984z" transform="translate(-124.191 -57.009)" fill="#aeafa5"/><path id="Path_30293" data-name="Path 30293" d="M-351.252 312.282v1.969h-1.974c-.084-1.473-1.225-.836-1.974-.984l.987-2.953h1.974c.148.745-.49 1.886.987 1.968z" transform="translate(-128.239 -61.046)" fill="#929389"/><path id="Path_30294" data-name="Path 30294" d="M-344.834 311.525l-.806-.686.311-.31.688.8z" transform="translate(-133.761 -61.17)" fill="#929389"/><path id="Path_30295" data-name="Path 30295" d="M-358.261 307.622l-.987 2.953h-.987c-.084-1.473-1.226-.836-1.974-.984.846-1.477.846-1.477 0-2.953l.987-.984h2.96c.195.3.559.605.542.891-.02.367-.346.718-.541 1.077z" transform="translate(-124.191 -58.354)" fill="#7e7d72"/><path id="Path_30296" data-name="Path 30296" d="M-353.226 319.634h1.974v2.953h-2.961l-.987-.984v-.984z" transform="translate(-128.239 -66.429)" fill="#555048"/><path id="Path_30297" data-name="Path 30297" d="M-451.078 266.04h2.961l-.987 1.969q-2.422.448-1.974-1.969z" transform="translate(-72.822 -35.475)" fill="#706b5f"/><path id="Path_30298" data-name="Path 30298" d="M-474.343 352.256h.987l-.987.984z" transform="translate(-59.425 -85.271)" fill="#929389"/><path id="Path_30299" data-name="Path 30299" d="M-475.462 349.926v.984l-.819-.66z" transform="translate(-58.306 -83.925)" fill="#aeafa5"/><path id="Path_30300" data-name="Path 30300" d="M-466.7 355.68l-.636-.351c.11-.109.243-.326.324-.308a3.093 3.093 0 01.662.308z" transform="translate(-63.473 -86.868)" fill="#929389"/><path id="Path_30301" data-name="Path 30301" d="M-448.452 361.216l-1.567-1.969h3.541l.955.453c-.737 1.26-2.726-.481-2.929 1.516z" transform="translate(-73.474 -89.309)" fill="#aeafa5"/><path id="Path_30302" data-name="Path 30302" d="M-460.378 352.012l.806.686-.311.311-.688-.8z" transform="translate(-67.38 -85.13)" fill="#706b5f"/><path id="Path_30303" data-name="Path 30303" d="M-348.191 326.624h.987c-.376.969.915 2.492-.987 2.953v-2.953z" transform="translate(-132.287 -70.467)" fill="#dbdad7"/><path id="Path_30304" data-name="Path 30304" d="M-352.239 326.624v.985h-2.961l.987-.985z" transform="translate(-128.239 -70.467)" fill="#615c51"/><path id="Path_30305" data-name="Path 30305" d="M-359.872 332.269v-.984h.987z" transform="translate(-125.541 -73.159)" fill="#929389"/><path id="Path_30306" data-name="Path 30306" d="M-363.92 305.653l-.987.984c-.748-.148-1.89.488-1.974-.984h2.961z" transform="translate(-121.492 -58.354)" fill="#555048"/><path id="Path_30307" data-name="Path 30307" d="M-355.944 318.269l-1.974.984h-1.974c.149-.746-.49-1.884.987-1.969h.987c.748.149 1.89-.484 1.974.985z" transform="translate(-125.521 -65.064)" fill="#615c51"/><path id="Path_30308" data-name="Path 30308" d="M-363.557 304.307h-.987l.987-.984z" transform="translate(-122.842 -57.009)" fill="#929389"/></g></svg>