<svg xmlns="http://www.w3.org/2000/svg" id="Stack_mail" data-name="Stack mail" width="189.93" height="30.13"><path d="M3.71 51.81l2.73-6.19a17.36 17.36 0 008.32 2.3c2.41 0 3.27-.5 3.27-1.37 0-3.17-13.93-.61-13.93-10 0-4.67 3.93-8.49 11.74-8.49a20 20 0 019.5 2.2l-2.56 6.14a15.51 15.51 0 00-7-1.87c-2.49 0-3.28.72-3.28 1.58 0 3 13.93.51 13.93 9.79 0 4.61-3.92 8.5-11.73 8.5-4.23 0-8.47-1.05-10.99-2.59zm39.49 1.33a10.53 10.53 0 01-5 1c-5.43 0-8.6-2.55-8.6-8v-5h-2.7v-5.93h2.7v-5.5h8.14v5.5h4v5.94h-4v5A1.69 1.69 0 0039.42 48a3.32 3.32 0 001.83-.54zm21.52-9.9v10.58h-7.56v-2.59c-.93 2-2.8 3-5.58 3-4.82 0-7.3-2.73-7.3-6.12 0-3.81 2.88-5.94 9-5.94h3.27c-.25-1.51-1.4-2.3-3.7-2.3a8.87 8.87 0 00-5 1.55L45.21 36a17.9 17.9 0 018.86-2.23c6.77 0 10.65 2.92 10.65 9.47zm-8.13 4.18v-1.37h-2c-1.72 0-2.48.57-2.48 1.65 0 .9.72 1.59 1.94 1.59a2.58 2.58 0 002.54-1.87zM67.57 44c0-6 4.82-10.19 11.63-10.19 4.78 0 8.38 2.2 9.68 5.83l-6.3 3.1c-.83-1.84-2-2.59-3.42-2.59-1.84 0-3.35 1.29-3.35 3.85s1.51 3.89 3.35 3.89c1.4 0 2.59-.76 3.42-2.59l6.3 3.09C87.58 52 84 54.18 79.2 54.18 72.39 54.18 67.57 50 67.57 44zm32.61 3.78l-1.29 1.4v4.64h-8.14V27.11h8.14v12.75l5.65-5.73h9.61L106 42.66l8.79 11.16H105zm38.99 6.04l-.07-11.48-5.47 9.21h-3.75l-5.47-8.81v11.08h-7.74V28.63h7l8.2 13.42 8-13.42h7l.07 25.19zm31.07-10.58v10.58h-7.56v-2.59c-.94 2-2.81 3-5.58 3-4.82 0-7.31-2.73-7.31-6.12 0-3.81 2.88-5.94 9-5.94h3.28c-.25-1.51-1.41-2.3-3.71-2.3a8.92 8.92 0 00-5 1.55L150.73 36a17.83 17.83 0 018.85-2.23c6.77 0 10.66 2.92 10.66 9.47zm-8.14 4.18v-1.37h-2c-1.73 0-2.49.57-2.49 1.65 0 .9.72 1.59 2 1.59a2.58 2.58 0 002.49-1.87zm10.84-19.01c0-2.34 1.91-4.14 4.9-4.14s4.89 1.66 4.89 4-1.91 4.28-4.89 4.28-4.9-1.8-4.9-4.14zm.83 5.72h8.13v19.69h-8.13zm11.73-7.02h8.14v26.71h-8.14z" transform="translate(-3.71 -24.27)" fill="#333"/></svg>