<svg xmlns="http://www.w3.org/2000/svg" id="stackcp" width="181.93" height="30.94"><path d="M22.86 52c7.23 0 11.89-3.46 11.89-9.12v-.08c0-5.43-4.62-7.43-11.51-8.7-2.85-.54-3.58-1-3.58-1.73v-.08c0-.65.62-1.12 2-1.12a14.15 14.15 0 018.08 2.66l4.39-6.08C31 25.27 27.13 24 21.93 24c-7.43 0-11.43 4-11.43 9.13v.07c0 5.7 5.31 7.43 11.35 8.67 2.89.57 3.74 1 3.74 1.77v.07c0 .74-.69 1.16-2.31 1.16a15.37 15.37 0 01-9.43-3.16L9 47.45c3.43 3 8.36 4.54 13.83 4.54zm23.29 0a12.59 12.59 0 005.58-1.19V44a6.44 6.44 0 01-2.65.66c-1.39 0-2.12-.58-2.12-2.16v-5.29h4.85v-6.74H47v-5.28h-8.78v5.28h-2.47v6.74h2.47v7.24c0 5.12 2.77 7.5 7.93 7.5zm13.71 0a7.9 7.9 0 006-2.62v2.12h8.74v-12c0-3-.61-5.08-2.19-6.66-1.85-1.85-4.62-2.74-8.9-2.74a24.31 24.31 0 00-8.85 1.54l1.54 5.82a15.25 15.25 0 015.81-1.2c2.7 0 3.89 1.12 3.89 3v.34a16.49 16.49 0 00-5-.77c-4.89 0-8 2.35-8 6.55v.08C53 49.68 55.81 52 59.86 52zm3.46-5a2 2 0 01-2-1.9v-.22a2.39 2.39 0 012.68-2.4 6 6 0 012 .35v.89c0 2-1.16 3.23-2.7 3.23zm24.18 5c5 0 8.2-2.23 10.09-5.74l-6.35-3.61A3.66 3.66 0 0188 44.79c-1.73 0-3.11-1.57-3.11-3.77v-.08a3.41 3.41 0 013.23-3.69 3.37 3.37 0 013.08 2.11l6.28-3.54A10.06 10.06 0 0087.93 30c-6.86 0-11.48 5.12-11.48 11v.08A10.89 10.89 0 0087.32 52zm11.44-.54h8.74V48l1.73-2.23 3 5.77h9.36L115.11 39l6.58-8.55h-9.51l-4.5 6.47V23.39h-8.74zm37.23.58c6.7 0 10.47-3.27 12.74-7.28l-7.43-4.19c-1.11 2-2.54 3.38-5.08 3.38-3 0-5-2.46-5-6v-.08c0-3.24 2-5.89 5-5.89 2.47 0 3.89 1.35 4.89 3.27l7.43-4.25a13.21 13.21 0 00-12.2-7 13.94 13.94 0 00-14.33 14v.07a13.73 13.73 0 0014 14zm14.48-.58h9v-7.28h2.92c7.28 0 12.25-3.47 12.25-10v-.07c0-6.39-4.89-9.59-12.05-9.59h-12.12zm9-13.74v-6h2.46c2.39 0 3.81 1 3.81 3v.07c0 1.93-1.54 3-3.85 3z" transform="translate(-9.03 -21.13)" fill-rule="evenodd" fill="#333"/><path d="M191 27a5.9 5.9 0 11-11.8.11V27a5.83 5.83 0 015.76-5.9h.15a5.76 5.76 0 015.89 5.65V27zm-1.14 0a4.63 4.63 0 00-4.75-4.78 4.82 4.82 0 000 9.63 4.73 4.73 0 004.78-4.68V27zm-2.89 1.11l1.42 2.17h-1.74l-1.25-1.88h-1.15v1.87h-1.74v-6.48h2.82c1.78 0 2.83.9 2.83 2.3a2.07 2.07 0 01-1.22 2zm-1.72-1c.78 0 1.23-.36 1.23-1s-.45-1-1.23-1h-1v2z" transform="translate(-9.03 -21.13)" fill="#333"/></svg>