<svg xmlns="http://www.w3.org/2000/svg" id="stripe" width="173.98" height="72.4"><defs><style>.cls-1{fill:#635bff;fill-rule:evenodd}</style></defs><path class="cls-1" d="M189.45 41.21c0-12.37-6-22.14-17.45-22.14s-18.46 9.77-18.46 22c0 14.55 8.21 21.89 20 21.89a26.87 26.87 0 0013.38-3.14V50.2a25.66 25.66 0 01-11.84 2.66c-4.69 0-8.84-1.65-9.37-7.35h23.63c.01-.63.11-3.14.11-4.3zm-23.88-4.59c0-5.46 3.34-7.74 6.38-7.74s6.05 2.28 6.05 7.74zm-30.69-17.55a13.69 13.69 0 00-9.47 3.77l-.63-3h-10.63V76.2l12.08-2.56V59.96a13.58 13.58 0 008.55 3c8.65 0 16.53-7 16.53-22.28 0-13.97-7.97-21.61-16.43-21.61zM132 52.37a7.21 7.21 0 01-5.7-2.27V32.17a7.21 7.21 0 015.7-2.37c4.4 0 7.45 4.93 7.45 11.26s-3.02 11.31-7.45 11.31z" transform="translate(-15.46 -3.8)"/><path class="cls-1" d="M82.06 12.42l12.13-2.61V0L82.06 2.56v9.86z"/><path fill="#635bff" d="M82.06 16.09h12.13v42.29H82.06z"/><path class="cls-1" d="M84.52 23.47l-.77-3.57H73.31v42.28h12.08V33.52c2.86-3.72 7.69-3 9.19-2.51V19.9c-1.58-.58-7.2-1.65-10.06 3.57zM60.36 9.41l-11.79 2.51v38.71A12.14 12.14 0 0061 63.05c4 0 6.86-.72 8.45-1.59v-9.81c-1.54.63-9.18 2.85-9.18-4.3V30.19h9.18V19.9h-9.14zM27.69 32.17c0-1.88 1.55-2.61 4.11-2.61a27 27 0 0112 3.09V21.3a31.75 31.75 0 00-12-2.23c-9.81 0-16.34 5.13-16.34 13.68 0 13.34 18.37 11.21 18.37 17 0 2.23-1.94 2.95-4.64 2.95-4 0-9.14-1.64-13.2-3.86V60.3a33.58 33.58 0 0013.2 2.75c10.05 0 17-5 17-13.63-.09-14.42-18.5-11.84-18.5-17.25z" transform="translate(-15.46 -3.8)"/></svg>