<svg xmlns="http://www.w3.org/2000/svg" width="73.892" height="73.893"><g id="_0utv6s.tif" data-name="0utv6s.tif" transform="translate(400.908 -123.877)"><g id="Group_4438" data-name="Group 4438" transform="translate(-400.908 123.877)"><path id="Path_30311" data-name="Path 30311" d="M-400.908 165.414v-40.326a9.03 9.03 0 011.121-.137q35.732-.01 71.465-.006h.5c.414-.011.63.177.621.6v39.305c0 .264-.016.527-.024.79-.225-.084-.452-.161-.673-.252a95.517 95.517 0 00-18.009-5.389 93.68 93.68 0 00-16.2-1.742c-2.9-.058-5.8.106-8.693.218a76.419 76.419 0 00-9.063 1.01 88.331 88.331 0 00-13.817 3.32c-2.427.81-4.82 1.738-7.228 2.609zm29.968-24.2c0-1.127-.009-2.254.005-3.38 0-.351-.077-.543-.478-.505-.309.029-.623 0-.934.006-.628.006-.635.007-.636.617v5.754a5.129 5.129 0 01-.08 1 2.343 2.343 0 01-2.6 2.051 2.384 2.384 0 01-2.355-2.415 13.778 13.778 0 01-.023-.862v-4.6c0-1.678 0-1.67-1.668-1.549-.31.022-.423.127-.418.428.01.647 0 1.295 0 1.942.013 1.606-.054 3.218.065 4.816a4.112 4.112 0 003.82 4 4.408 4.408 0 005.3-4.491c-.002-.939.001-1.874.002-2.809zm29.236 1.691v4.892c0 .619.009.626.636.627 1.774 0 3.548.013 5.322 0 1.219-.011 1.016.23 1.064-1.06.016-.446-.128-.578-.568-.569-1.27.025-2.541 0-3.811.015-.381 0-.573-.083-.556-.514.028-.718.015-1.439 0-2.158 0-.3.039-.5.423-.486.838.023 1.678.014 2.517 0 1.02-.011.94.178.941-.972 0-.606-.009-.61-.65-.613-.911 0-1.822-.016-2.733.006-.372.009-.512-.112-.5-.489a30.87 30.87 0 000-2.086c-.017-.423.159-.532.55-.525q1.654.027 3.308 0c1.236-.016 1.035.218 1.076-1.126.013-.414-.137-.527-.535-.524a290.09 290.09 0 01-5.9 0c-.491-.007-.6.163-.6.619.03 1.658.02 3.311.02 4.966zm-48.485 5.654a4.3 4.3 0 002.265-.512 3.359 3.359 0 001.733-3.3 2.7 2.7 0 00-2.025-2.507c-.558-.213-1.131-.388-1.688-.606a3.761 3.761 0 01-.89-.453 1.181 1.181 0 01.118-1.987 2.427 2.427 0 01.879-.269 2.98 2.98 0 011.911.49c.664.382.8.332 1.17-.351a1.939 1.939 0 01.136-.253c.253-.331.119-.537-.188-.742a4.765 4.765 0 00-3.978-.68 3.1 3.1 0 00-2.433 2.851 2.805 2.805 0 002.073 3.063c.4.156.821.258 1.226.4a7.029 7.029 0 011.061.431 1.308 1.308 0 01.618 1.718 1.465 1.465 0 01-1.3.981 3.466 3.466 0 01-2.5-.684c-.654-.441-.832-.382-1.258.295a2.134 2.134 0 01-.151.244c-.265.316-.165.535.142.766a5.488 5.488 0 003.08 1.108zm39.312-4.8v-3.954c0-.761 0-.762.793-.763.527 0 1.054.006 1.581 0 1.11-.015.972.163.981-1 .005-.7 0-.705-.7-.706h-6.827c-1.341 0-1.328 0-1.239 1.317.022.325.148.4.439.4.742-.012 1.485-.006 2.228 0 .665 0 .67.005.671.656v7.261c0 1.506 0 1.486 1.521 1.477.455 0 .567-.151.561-.579-.023-1.368-.009-2.737-.009-4.103zm-11.278-.89v-4.166c0-1.385 0-1.385-1.4-1.371-.646.007-.651.007-.651.673v8.978c0 .45-.136 1.1.1 1.3.288.244.9.092 1.363.146.482.056.6-.143.6-.6-.027-1.651-.012-3.303-.012-4.955z" transform="translate(400.908 -124.791)" fill="#e24f47"/><path id="Path_30312" data-name="Path 30312" d="M-400.908 362.894c2.41-.871 4.8-1.8 7.234-2.6a88.327 88.327 0 0113.817-3.32 76.416 76.416 0 019.063-1.01c2.9-.112 5.8-.277 8.693-.218a93.679 93.679 0 0116.2 1.742 95.515 95.515 0 0118.009 5.389c.221.091.449.169.673.252.008.287.024.575.024.862v32.175h-73.712zm54.2 16.717a1.488 1.488 0 01-.12-.175c-1.9-3.789-3.8-7.573-5.676-11.373a1.518 1.518 0 00-1.514-.97q-1.547.021-3.094 0c-.344-.005-.462.113-.453.456.019.791.006 1.584.006 2.375v15.693c0 .873-.124.788.819.794h2.447c.685 0 .688 0 .689-.721v-11.923c.119.207.23.382.324.565.538 1.042 1.072 2.087 1.61 3.13 1 1.937 2.015 3.864 2.988 5.814a1.978 1.978 0 001.893 1.169 2.091 2.091 0 002.132-1.258c1.476-2.929 3-5.835 4.5-8.749.106-.206.218-.408.327-.612a.377.377 0 01.094.284c-.019 3.911-.032 7.822-.065 11.732 0 .432.107.594.562.577.886-.034 1.775-.008 2.662-.011.83 0 .734.056.735-.732v-17.852a2.449 2.449 0 010-.288c.042-.352-.123-.452-.457-.446a67.47 67.47 0 01-2.95 0 1.634 1.634 0 00-1.689 1.045c-1.043 2.155-2.161 4.273-3.24 6.41-.848 1.683-1.688 3.373-2.534 5.066zm-18.045-1.241c.5-.293.982-.52 1.4-.824a5.609 5.609 0 002.328-5.665 4.911 4.911 0 00-3.518-4.14 12.527 12.527 0 00-4.312-.642c-1.8-.013-3.6-.005-5.4 0-.805 0-.741-.077-.741.726v13.89c0 1.391.013 2.783-.008 4.174-.006.4.1.541.517.532a92.05 92.05 0 013.525 0c.349.005.454-.114.447-.455-.019-.887-.006-1.775-.006-2.663v-3.526c0-.2-.073-.422.263-.485a1.985 1.985 0 012.447 1.13c.928 1.621 1.866 3.236 2.77 4.871a1.967 1.967 0 001.921 1.125c.767-.021 1.535 0 2.3 0h1.575c-.174-.311-.281-.519-.4-.718-1.06-1.738-2.133-3.469-3.181-5.214a5.167 5.167 0 00-1.931-2.116zm-24.134-1.6c.077-.665.108-1.339.239-1.994a5.033 5.033 0 017.774-3.4c1.482.9 1.643.88 2.666-.531.338-.466.607-.982.908-1.475a14.612 14.612 0 00-1.412-1.1 9.846 9.846 0 00-6.924-1.2 8.588 8.588 0 00-6.348 4.249 10.9 10.9 0 00-.6 9.823 8.175 8.175 0 005.45 5.041 10.611 10.611 0 007.051-.244 7.171 7.171 0 002.794-1.968c.248-.277.325-.465.014-.755-.455-.425-.858-.9-1.3-1.348-.527-.535-.933-.6-1.506-.1a5.167 5.167 0 01-3.666 1.183 4.71 4.71 0 01-4.335-2.7 7.574 7.574 0 01-.809-3.483z" transform="translate(400.908 -322.27)" fill="#4a4358"/><path id="Path_30313" data-name="Path 30313" d="M-327.2 197.769v-32.175c0-.287-.016-.574-.024-.862.008-.264.024-.527.024-.79v-39.305c.009-.425-.207-.613-.621-.6h-.5q-35.732 0-71.465.006a9.03 9.03 0 00-1.121.137c.048-.1.079-.257.147-.275a2.011 2.011 0 01.5-.013h73.208q0 36.617-.009 73.235c0 .205.161.483-.139.642z" transform="translate(400.908 -123.877)" fill="#fbfbfb"/><path id="Path_30314" data-name="Path 30314" d="M-247.778 214.37v2.805a4.408 4.408 0 01-5.3 4.491 4.112 4.112 0 01-3.82-4c-.118-1.6-.052-3.21-.065-4.816-.005-.647.007-1.295 0-1.942 0-.3.108-.406.418-.428 1.668-.121 1.668-.129 1.668 1.549v4.6c0 .288 0 .576.023.862a2.384 2.384 0 002.355 2.415 2.343 2.343 0 002.6-2.051 5.134 5.134 0 00.08-1c.007-1.918 0-3.836 0-5.754 0-.611.008-.612.636-.617.312 0 .625.023.934-.006.4-.038.482.154.478.505-.015 1.133-.007 2.26-.007 3.387z" transform="translate(277.746 -197.943)" fill="#fcf9f9"/><path id="Path_30315" data-name="Path 30315" d="M9.265 216.312c0-1.655.013-3.31-.009-4.964-.006-.455.107-.625.6-.619 1.965.028 3.932.021 5.9 0 .4 0 .547.11.535.524-.04 1.345.16 1.11-1.075 1.126q-1.654.022-3.308 0c-.391-.006-.566.1-.55.525a29.61 29.61 0 010 2.086c-.011.377.129.5.5.489.91-.021 1.822-.01 2.733-.006.641 0 .651.007.65.613 0 1.149.079.96-.941.972-.839.009-1.679.019-2.517 0-.385-.011-.428.183-.423.487.01.719.023 1.44 0 2.158-.017.431.175.519.556.514 1.27-.016 2.541.011 3.812-.015.44-.009.584.123.568.569-.047 1.289.155 1.049-1.064 1.06-1.774.016-3.548.006-5.322 0-.627 0-.634-.008-.636-.627-.011-1.631-.009-3.262-.009-4.892z" transform="translate(49.939 -198.194)" fill="#fcf9f9"/><path id="Path_30316" data-name="Path 30316" d="M-346.631 221.348a5.488 5.488 0 01-3.078-1.108c-.307-.231-.407-.45-.142-.766a2.146 2.146 0 00.151-.244c.426-.677.6-.736 1.258-.295a3.465 3.465 0 002.5.684 1.465 1.465 0 001.3-.981 1.308 1.308 0 00-.618-1.718 7.03 7.03 0 00-1.061-.431c-.405-.145-.826-.247-1.226-.4a2.805 2.805 0 01-2.073-3.063 3.1 3.1 0 012.433-2.851 4.765 4.765 0 013.978.68c.307.206.441.411.188.742a1.939 1.939 0 00-.136.253c-.375.684-.507.733-1.17.351a2.979 2.979 0 00-1.911-.49 2.428 2.428 0 00-.879.269 1.181 1.181 0 00-.118 1.987 3.761 3.761 0 00.89.453c.556.218 1.129.394 1.688.606a2.7 2.7 0 012.025 2.507 3.359 3.359 0 01-1.733 3.3 4.3 4.3 0 01-2.266.515z" transform="translate(357.35 -197.576)" fill="#fcf9f9"/><path id="Path_30317" data-name="Path 30317" d="M-86.531 217.235c0 1.366-.014 2.732.008 4.1.007.428-.106.576-.561.579-1.521.009-1.521.029-1.521-1.477v-7.261c0-.65-.006-.653-.671-.656-.743 0-1.485-.009-2.228 0-.291 0-.417-.071-.439-.4-.089-1.318-.1-1.317 1.239-1.317h6.827c.7 0 .706 0 .7.706-.009 1.165.129.987-.981 1-.527.007-1.054 0-1.581 0-.789 0-.792 0-.793.763q-.002 1.986.001 3.963z" transform="translate(136.562 -198.261)" fill="#fcf9f9"/><path id="Path_30318" data-name="Path 30318" d="M-144.751 216.338c0 1.652-.015 3.3.01 4.956.007.46-.113.659-.6.6-.466-.054-1.076.1-1.363-.146-.233-.2-.1-.848-.1-1.3q-.007-4.489 0-8.978c0-.667 0-.667.651-.673 1.4-.014 1.4-.014 1.4 1.371z" transform="translate(183.503 -198.254)" fill="#fbfbfb"/><path id="Path_30319" data-name="Path 30319" d="M-89.764 446.938c.847-1.692 1.686-3.383 2.537-5.067 1.08-2.137 2.2-4.256 3.24-6.41a1.634 1.634 0 011.689-1.045c.983.027 1.967.017 2.95 0 .334-.005.5.094.457.446a2.452 2.452 0 000 .288v17.852c0 .787.1.729-.735.732-.887 0-1.776-.023-2.662.011-.456.017-.566-.145-.562-.577.033-3.911.046-7.821.065-11.732a.377.377 0 00-.094-.284c-.109.2-.221.406-.327.612-1.506 2.914-3.029 5.82-4.5 8.749a2.091 2.091 0 01-2.132 1.258 1.978 1.978 0 01-1.893-1.169c-.972-1.95-1.99-3.877-2.988-5.814-.537-1.043-1.071-2.088-1.61-3.13-.095-.183-.205-.359-.324-.565v11.923c0 .716 0 .718-.689.721h-2.447c-.943-.005-.818.079-.819-.794q-.005-7.846 0-15.693c0-.792.013-1.584-.006-2.375-.008-.343.109-.462.453-.456q1.547.025 3.094 0a1.518 1.518 0 011.514.97c1.874 3.8 3.78 7.584 5.676 11.373a1.488 1.488 0 00.113.176z" transform="translate(143.959 -389.598)" fill="#fbfbfb"/><path id="Path_30320" data-name="Path 30320" d="M-211.156 445.716a5.167 5.167 0 011.935 2.106c1.048 1.745 2.121 3.476 3.181 5.214.122.2.229.407.4.718h-1.575c-.767 0-1.535-.018-2.3 0a1.967 1.967 0 01-1.921-1.125c-.9-1.634-1.842-3.25-2.77-4.871a1.985 1.985 0 00-2.447-1.13c-.336.063-.262.287-.263.485-.005 1.175 0 2.351 0 3.526 0 .888-.013 1.775.006 2.663.007.341-.1.46-.447.455-1.175-.018-2.35-.023-3.525 0-.416.009-.523-.134-.517-.532.021-1.391.008-2.783.008-4.174v-13.89c0-.8-.064-.725.741-.726 1.8 0 3.6-.011 5.4 0a12.528 12.528 0 014.312.642 4.911 4.911 0 013.518 4.14 5.609 5.609 0 01-2.328 5.665c-.426.318-.904.541-1.408.834zm-5.761-5.073c0 .79.021 1.58-.009 2.368-.016.417.133.542.533.52.644-.036 1.292 0 1.936-.046a2.756 2.756 0 002.732-2.974 2.532 2.532 0 00-2.679-2.65c-.643-.045-1.291-.023-1.935-.06-.413-.024-.612.074-.588.547.037.762.01 1.529.01 2.294z" transform="translate(247.307 -389.616)" fill="#fbfbfb"/><path id="Path_30321" data-name="Path 30321" d="M-344.807 442.963a7.575 7.575 0 00.807 3.477 4.71 4.71 0 004.335 2.7 5.167 5.167 0 003.666-1.183c.573-.5.979-.432 1.506.1.438.444.841.923 1.3 1.348.311.291.234.478-.014.755a7.171 7.171 0 01-2.793 1.967 10.61 10.61 0 01-7.051.244 8.175 8.175 0 01-5.45-5.041 10.9 10.9 0 01.6-9.823 8.588 8.588 0 016.348-4.249 9.846 9.846 0 016.924 1.2 14.617 14.617 0 011.412 1.1c-.3.493-.57 1.009-.908 1.475-1.023 1.411-1.184 1.433-2.666.531a5.033 5.033 0 00-7.774 3.4c-.135.659-.164 1.336-.242 1.999z" transform="translate(356.823 -388.466)" fill="#fbfbfb"/><path id="Path_30322" data-name="Path 30322" d="M-190.413 460.562c0-.766.028-1.533-.01-2.3-.024-.473.175-.571.588-.547.644.038 1.292.015 1.935.06a2.532 2.532 0 012.679 2.65 2.756 2.756 0 01-2.732 2.974c-.643.044-1.292.011-1.936.046-.4.022-.548-.1-.533-.52.03-.783.009-1.574.009-2.363z" transform="translate(220.802 -409.536)" fill="#4a4358"/></g></g></svg>