<svg xmlns="http://www.w3.org/2000/svg" width="73.577" height="73.578"><g id="Group_4439" data-name="Group 4439" transform="translate(278.908 -245.877)"><path id="Path_30323" data-name="Path 30323" d="M-205.331 319.454h-73.577v-73.577h73.577v73.577zm-45.885-72.289v71.278h41.446c2.485 0 3.153-.668 3.153-3.151v-64.951c0-2.5-.667-3.173-3.133-3.173h-40.064zm-9.866 39.644h8.1v-1.549h-6.438v-4.946h6.408v-1.524h-8.075zm-9.91-8.067l.081 1.626h3.212v6.473h1.666v-6.53h3.273l-.069-1.569z" fill="#fdc20b"/><path id="Path_30324" data-name="Path 30324" d="M-178.042 250.569h41.464c2.467 0 3.133.675 3.133 3.173v64.951c0 2.483-.668 3.151-3.153 3.151h-41.446zm29.433 31.628h-8.071v8.058h1.546V287.1h4.948v3.131h1.577zm9.826 8.058v-8.07c-2.2-.589-2.622 1.778-4.083 2.363-2.943-2.475-2.943-2.475-3.972-2.28v7.994h1.551v-5.276l.409-.277 2.2 2.834 2.381-2.618v5.331zm-22.368-4.108c2.719-3.047 2.719-3.047 2.628-4.028-2.1-.219-2.524 2.09-4 2.686-1.484-.67-1.933-2.926-4.151-2.655.011 2.1 2.063 2.627 2.755 4.035-.622 1.515-2.941 1.927-2.654 4.132 2.161.132 2.6-2.156 4.05-2.69 1.52.679 1.926 2.9 4.1 2.646.159-2.143-1.995-2.593-2.728-4.126zm-7.144-3.964h-8.181l.068 1.483h8.113zm-8.188 3.247l.078 1.51h8.157l-.076-1.51zm8.188 3.318h-8.18l.068 1.483h8.112z" transform="translate(-73.174 -3.404)" fill="#03166c"/><path id="Path_30325" data-name="Path 30325" d="M-213.978 373.779v-8.02h8.075v1.525h-6.408v4.946h6.438v1.549z" transform="translate(-47.104 -86.969)" fill="#03166c"/><path id="Path_30326" data-name="Path 30326" d="M-250.074 365.588h8.162l.069 1.569h-3.273v6.53h-1.666v-6.473h-3.212z" transform="translate(-20.918 -86.845)" fill="#03166c"/><path id="Path_30327" data-name="Path 30327" d="M-92.162 365.773v8.027h-1.577v-3.131h-4.948v3.16h-1.546v-8.058zm-6.476 3.1h4.806v-1.483h-4.806z" transform="translate(-129.621 -86.979)" fill="#fdc20b"/><path id="Path_30328" data-name="Path 30328" d="M-56.33 373.551h-1.513v-5.331l-2.381 2.618-2.2-2.834-.409.277v5.276h-1.551v-7.994c1.03-.194 1.03-.194 3.972 2.281 1.461-.586 1.884-2.952 4.083-2.364z" transform="translate(-155.627 -86.7)" fill="#fdc20b"/><path id="Path_30329" data-name="Path 30329" d="M-131.11 369.476c.733 1.533 2.887 1.983 2.732 4.126-2.176.25-2.583-1.966-4.1-2.645-1.45.534-1.889 2.822-4.05 2.69-.287-2.205 2.032-2.616 2.654-4.132-.692-1.408-2.744-1.934-2.755-4.035 2.218-.271 2.667 1.985 4.151 2.655 1.474-.6 1.9-2.9 4-2.686.087.98.087.98-2.632 4.027z" transform="translate(-103.215 -86.733)" fill="#fdc20b"/><path id="Path_30330" data-name="Path 30330" d="M-164.157 365.719v1.481h-8.113l-.068-1.483z" transform="translate(-77.312 -86.94)" fill="#fdc20b"/><path id="Path_30331" data-name="Path 30331" d="M-172.364 377.547h8.159l.076 1.51h-8.157l-.078-1.51z" transform="translate(-77.293 -95.521)" fill="#fdc20b"/><path id="Path_30332" data-name="Path 30332" d="M-164.156 389.631v1.483h-8.112l-.068-1.483z" transform="translate(-77.313 -104.287)" fill="#fdc20b"/><path id="Path_30333" data-name="Path 30333" d="M-94.424 373.133v-1.483h4.806v1.483z" transform="translate(-133.835 -91.243)" fill="#03166c"/></g></svg>