<svg xmlns="http://www.w3.org/2000/svg" width="70.582" height="70.563"><defs><linearGradient id="linear-gradient" x1=".342" y1=".358" x2=".657" y2=".673" gradientUnits="objectBoundingBox"><stop offset="0" stop-color="#fff"/><stop offset=".5"/></linearGradient></defs><g id="textpattern" transform="translate(-.5 -.5)"><path id="Path_30334" data-name="Path 30334" d="M66.645 66.655c-2.459 2.448-5.017 3.605-6.02 2.6-.176-.176-6.615-7.244-13.87-14.531-6.615-6.615-14.333-13.3-19.1-18.06S14.98 23.017 14.969 23.006l-.529-.6 3.848-4.179L22.4 14.45l.6.529s8.909 7.927 13.66 12.679 11.477 12.5 18.093 19.107c7.288 7.288 14.333 13.605 14.6 13.925.849.86-.077 3.374-2.668 5.954z" transform="translate(1.429 1.43)"/><path id="Path_30335" data-name="Path 30335" d="M35.9 28.177c-4.73-4.73-13.627-12.657-13.627-12.657l-3.539 3.252-3.244 3.54s7.96 8.9 12.69 13.583 12.47 11.466 19.1 18.093c7.288 7.266 13.749 14.421 13.87 14.531s1.477.695 4.774-2.6 2.712-4.664 2.635-4.741-7.277-6.615-14.565-13.9c-6.615-6.615-13.33-14.333-18.06-19.1z" transform="translate(1.537 1.54)" fill="#c6b56f"/><path id="Path_30336" data-name="Path 30336" d="M65.234 66.563a1.621 1.621 0 01-.772-.518c-.331-.331-7.1-7.222-14.333-14.5-2.712-2.712-8.06-7.641-8.82-8.3a2.426 2.426 0 01-.5-3.462 6.185 6.185 0 013.576-2.683l-3.241-3.5c-3.186 1.764-6.836 3.892-7.376 3.308-2.536-2.547-8.986-8.986-11.709-11.709a2.856 2.856 0 01-.4-3.649 7.718 7.718 0 013.749-3.2c-1.83-1.665-3.1-2.789-3.1-2.789l-3.539 3.241-3.249 3.549S23.458 31.2 28.177 35.89s12.47 11.477 19.1 18.093c7.288 7.266 13.76 14.421 13.87 14.531s1.286.606 4.087-1.951z" transform="translate(1.54 1.545)" fill="#42361a"/><path id="Path_30337" data-name="Path 30337" d="M52.164 48.37s-.915-1.1-2.007-2.205-2.3-2.205-2.3-2.205 1.334 1.522 2.04 2.205zm-16.637-17.3l-2.734-2.745s1.566 2.007 2.514 2.966 1.267.817.22-.22zm-2.359 4.112c-1.665-1.676-4.41-4.234-8.754-8.611q-3.407-3.407-6.935-6.692l-.2.209c1.18 1.1 6.218 5.965 9 8.743 3.142 3.142 8.49 8.137 9.923 9.305s4.157 3.539 6.251 5.634 4.289 4.013 4.289 4.013-3.572-3.671-5.149-5.248-6.461-5.425-8.4-7.365zm-1.036-7.4l-5.513-5.513c-2.536-2.525-5.05-5.05-5.733-5.733.673.75 3.241 3.638 5.513 5.943a122.605 122.605 0 005.678 5.281zm-6.737-3.958c.441.43 1.632 1.6 2.514 2.481s2.712 2.867 3.164 3.308c1.819 1.83 3.076 2.955 5.226 5.116s7.453 7.718 8.523 8.732c1.786 1.786 4.245 4.41 5.513 5.634s4.124 3.991 5.557 5.436 3.308 3.31 4.63 4.569 4.741 4.256 4.741 4.256-5.513-5.436-7.475-7.409-4.465-4.19-5.689-5.4c-1.709-1.709-4.509-4.719-5.965-6.163s-1.885-1.7-2.205-2.018-3.308-3.466-4.129-4.271-7.828-7.949-9.129-9.25-2.679-2.646-3.2-3.2-1.5-1.676-2.084-2.271-1.577-1.455-2.271-2.15-2.437-2.37-3.539-3.473l-.408.4c1.874 1.841 3.054 2.624 3.771 3.308s1.985 1.929 2.415 2.381zm4.289 7.387c1.334 1.345 6.946 6.395 6.946 6.395s-3.837-3.649-5.777-5.59-4.311-4.41-6.615-6.737l-6.075-6.119-.287.309c1.3 1.235 5.557 5.292 6.814 6.549 1.477 1.477 3.66 3.859 5.006 5.2zm28.4 26.218c-1.389-1.389-2.767-2.6-3.991-3.837s-4.741-4.9-4.741-4.9 3.594 4.112 4.928 5.447 2.282 1.985 3.87 3.572 3.991 4.1 4.939 5.05c.772.772 2.459 2.106 3.076 2.591l.176-.176c-.794-.695-3.308-2.889-4.41-3.991-1.312-1.323-2.481-2.37-3.87-3.76zm4.774 1.389l-3.793-3.815c-.507-.507-2.348-1.94-2.348-1.94s1.268 1.389 1.621 1.731 2.282 1.94 3.727 3.4c1.235 1.235 4.542 4.609 5.513 5.513.11-.165.209-.32.309-.5-.937-.816-4.234-3.682-4.961-4.41zM28.272 27.852c-1.51-1.555-3.308-3.594-4-4.245-1.5-1.5-4.41-4.057-5.513-5.1l-.176.165c1.1 1.1 4.311 4.1 6.351 6.13 1.312 1.312 3.363 3.032 3.363 3.032zm-1.246-.6C28.68 28.9 40.775 40.752 42.33 42.3s3.308 3.473 4.234 4.41l3.484 3.484s-3.4-3.837-5.358-5.81-6.814-6.968-9.041-9.2c-1.632-1.632-8.567-7.927-8.567-7.927z" transform="translate(1.721 1.645)" fill="#261e0f"/><path id="Path_30338" data-name="Path 30338" d="M46.873 51.787c-2.205-2.205-6.615-6.351-8.479-8.236l-4.972-4.84c-.816-.8-7.828-7.189-9.129-8.479s-2.756-3.065-3.308-3.605-1.585-1.775-2.205-2.359-1.477-1.555-2.205-2.205a1.885 1.885 0 00-.518-.408l-.077.077a2.205 2.205 0 00.452.551c.75.761 1.72 1.94 2.205 2.381s1.9 1.874 2.778 2.745 2.536 2.778 2.988 3.241c1.83 1.819 3.252 2.778 5.413 4.939l8.346 8.357c1.786 1.786 4.41 4.035 5.678 5.292s4.112 4.256 5.513 5.7 3.308 3.418 4.631 4.708 4.752 4.531 4.752 4.531c-5.292-5.4-5.127-5.568-6.979-7.409s-3.7-3.76-4.884-4.983zM58.56 61.2c-1.764-1.8-3.153-3.241-5.072-5.138s-4.057-3.914-5.744-5.59-6.527-6.34-6.527-6.34 4.783 5.02 6.615 6.839l5.513 5.513c2.205 2.205 5.513 5.6 6.8 6.891 1.1 1.1 4.168 3.87 4.168 3.87l.485-.4s-3.528-2.922-6.229-5.623zM22.209 26.969c1.566 1.687 11.491 10.838 12.922 12.36s7.828 7.5 7.828 7.5-4.333-4.3-6.395-6.516-9.923-9.085-12.382-11.72-6.8-6.946-6.8-6.946l-.386.309s3.649 3.308 5.215 5.028zM61.669 66.9a30.705 30.705 0 00-2.392-2.2 27.983 27.983 0 002.073 2.426c.441.4.948.9 1.235 1.2l.375-.187a9.382 9.382 0 01-1.29-1.191zM35.693 36.594l1.1 1-1.1-1.014zm4.565 4.939a1.841 1.841 0 010-.353c-1.488-1.29-3.528-2.966-5.138-4.41h-.209c.617.562 1.1 1 1.433 1.257.937.761 2.426 2.04 3.925 3.418zm.276-1.477l-3.815-3.9a2.206 2.206 0 01-.342.143l4.057 3.98zM23.643 19.163L21.03 16.55c.375.408 1.323 1.466 2.481 2.723l.143-.121zm17.42 20.044l-1.1-1.1-2.315-2.337-.154.066c1 1.014 2.271 2.315 3.473 3.561l.11-.143zM21.272 22.184l-2.955-3c-.1.121-.187.221-.265.331l3.131 3.043a1.156 1.156 0 01.088-.32zm1.1-1.841c-.8-.794-1.885-1.83-2.646-2.591l-.419.4c1.235 1.1 2.205 1.874 2.856 2.459l.2-.265zm-1.268 2.823a213.704 213.704 0 00-3.385-3.208l-.176.243c.628.6 2.018 1.929 3.594 3.462a2.5 2.5 0 010-.5zm.5-1.709l.176-.265c-1.169-1.1-2.3-2.084-2.878-2.646l-.121.11-.077.088c.606.507 1.709 1.544 2.889 2.712z" transform="translate(1.587 1.646)" fill="none"/><path id="Path_30339" data-name="Path 30339" d="M23.2.5A42.271 42.271 0 0128 4.756a42.272 42.272 0 014.256 4.8v1.654L11.195 32.253H9.552A58.512 58.512 0 014.756 28 42.271 42.271 0 01.5 23.2v-1.641L21.559.5z"/><path id="Path_30340" data-name="Path 30340" d="M22.844 1.31h-1L1.3 21.839v1a39.692 39.692 0 003.991 4.41 40.574 40.574 0 004.5 4.035h.992l20.507-20.54v-.955a39.79 39.79 0 00-4-4.41 39.691 39.691 0 00-4.446-4.069z" transform="translate(.082 .083)" fill="none"/><path id="Path_30341" data-name="Path 30341" d="M22.844 1.31h-1L1.3 21.839v1a39.692 39.692 0 003.991 4.41 40.574 40.574 0 004.5 4.035h.992l20.507-20.54v-.955a39.79 39.79 0 00-4-4.41 39.691 39.691 0 00-4.446-4.069z" transform="translate(.082 .083)" fill="url(#linear-gradient)"/><path id="Path_30342" data-name="Path 30342" d="M30.457 10.412s-5.766 6.141-9.835 10.21-10.21 9.835-10.21 9.835a21.687 21.687 0 01-4.752-3.672A21.83 21.83 0 012 22.033s5.766-6.141 9.835-10.21S22.033 2 22.033 2A25.623 25.623 0 0126.7 5.749a25.039 25.039 0 013.76 4.664z" transform="translate(.154 .154)" fill="#181818"/><path id="Path_30343" data-name="Path 30343" d="M10.482 30.521A21.687 21.687 0 015.73 26.85a21.83 21.83 0 01-3.66-4.75l-.75-.276v1a38.92 38.92 0 003.991 4.41 41.8 41.8 0 004.41 3.991h1zm20.8-19.78v-.959a38.589 38.589 0 00-4-4.41 40.794 40.794 0 00-4.41-4h-1l.265.761a25.447 25.447 0 014.642 3.682 25.215 25.215 0 013.749 4.664l.761.265z" transform="translate(.084 .089)" fill="none"/><path id="Path_30344" data-name="Path 30344" d="M13.93 15.769l-.243.231-.187-.2.684-.684.187.2-.243.243 1.246 1.235-.22.206-1.213-1.235zm1.224-.276l-.926-.364.221-.209.584.265-.276-.584.221-.221.419.959 1.1.463-.221.221-.662-.309.309.662-.221.221-.463-1.1zm0-1.279l.309-.309a.474.474 0 01.364-.165.584.584 0 01.43.287.728.728 0 01.232.342.441.441 0 01-.143.452l-.11.11.562.562-.209.2-1.433-1.466zm.882.463l.11-.088c.165-.165.066-.276-.088-.419s-.243-.243-.408-.077l-.1.11.485.485z" transform="translate(1.333 1.358)"/><path id="Path_30345" data-name="Path 30345" d="M13.93 15.61l-.243.232-.187-.187.684-.684.187.187-.243.243 1.246 1.246-.2.2zm1.224-.276l-.959-.419.221-.209.584.264-.276-.584.221-.221.419.959 1.1.463-.221.209-.662-.309.309.662-.221.221-.518-1.036zm0-1.29l.309-.309a.507.507 0 01.364-.165.617.617 0 01.43.243.728.728 0 01.232.353.452.452 0 01-.143.452l-.1.1.551.562-.2.209zm.882.485l.1-.11c.165-.154.077-.265-.077-.408s-.243-.243-.408-.077l-.11.1z" transform="translate(1.333 1.34)"/><path id="Path_30346" data-name="Path 30346" d="M14.934 16.71l-.243.232-.187-.2.684-.673.187.187-.243.243 1.246 1.246-.2.2-1.233-1.235zm1.224-.276l-.948-.419.209-.209.584.265-.265-.584.209-.221.419.959 1.1.452-.221.221-.662-.309.309.673-.221.209zm0-1.279l.309-.309a.5.5 0 01.375-.165c.143 0 .254.066.43.243a.639.639 0 01.221.342.441.441 0 01-.143.452l-.1.1.551.562-.2.209-1.444-1.433zm.893.474l.1-.1c.165-.176.066-.276-.088-.408s-.243-.254-.408-.088l-.1.1zM7.183 67.041a28.777 28.777 0 01-3.473-4.41l1.9-1.9a8.379 8.379 0 003.2-1.753l39.211-39.17c2.5-2.5 5.1-7.993 5.1-7.993l6.891-6.9 1.8-1.213 8.92 8.92-1.224 1.8-6.889 6.878s-5.513 2.613-7.993 5.1L15.419 65.619a8.28 8.28 0 00-1.753 3.2l-1.918 1.918a35.977 35.977 0 01-4.565-3.694z" transform="translate(.329 .328)"/><path id="Path_30347" data-name="Path 30347" d="M56.413 5.42L49.8 12.035s-1.6 6.891-4.124 9.46l-1.336 1.334 2.933 2.911 1.334-1.334c2.525-2.525 9.383-4.09 9.383-4.09L64.6 13.7z" transform="translate(4.495 .505)" fill="#cfcece"/><path id="Path_30348" data-name="Path 30348" d="M47 24.356l1.2 1.2 1.334-1.334c2.525-2.536 8.181-5.3 8.181-5.3s-6.858 1.577-9.394 4.1z" transform="translate(4.768 1.889)" fill="#6b6b6b"/><path id="Path_30349" data-name="Path 30349" d="M43.26 20.962l1.2 1.2 1.334-1.29c2.525-2.536 4.09-9.394 4.09-9.394s-2.767 5.656-5.292 8.192z" transform="translate(4.385 1.126)" fill="#fff"/><path id="Path_30350" data-name="Path 30350" d="M48.252 21.09L10.291 59.062a11.114 11.114 0 01-3.131 2.205l3.9 3.826a11.3 11.3 0 012.205-3.12L51.2 24.045l-2.948-2.955z" transform="translate(.683 2.111)" fill="#ffe038"/><path id="Path_30351" data-name="Path 30351" d="M4.75 57.28a33.143 33.143 0 002.95 3.638 41.622 41.622 0 003.848 3.164z" transform="translate(.436 5.822)"/><path id="Path_30352" data-name="Path 30352" d="M63.546 13.737l.75-1.1-7.883-7.897-1.1.75" transform="translate(5.62 .435)" fill="#fff"/><path id="Path_30353" data-name="Path 30353" d="M12.9 55.407l-.176.176-.143-.143.518-.518.143.143-.176.187.934.938-.154.154-.948-.937zm.353-.65l.463-.463.154.143-.309.309.32.309.265-.265.143.143-.265.276.32.32.309-.309.154.154-.474.463-1.1-1.1zm1.323-.287l-.728-.309.176-.161.43.209-.209-.452.165-.165.309.728.8.353-.165.165-.507-.254.232.5-.165.165-.353-.794zm.276-1.014l-.176.176-.143-.154.507-.518.143.154-.176.176.948.937-.154.154-.948-.9zm.353-.651l.232-.232a.375.375 0 01.287-.132.452.452 0 01.32.187.6.6 0 01.176.265.364.364 0 01-.121.342l-.077.088.43.419-.152.158-1.1-1.1zm.673.364l.077-.077c.132-.132 0-.209-.055-.309a.188.188 0 00-.309-.066l-.077.077zm.154-1.191l.132-.132 1.345.849-.165.154-.287-.187-.209.209.187.287-.165.154-.838-1.345zm.386.243l.32.474.165-.154-.474-.32zm.32-.662l-.176.176-.143-.143.518-.507.143.143-.176.176.937.948-.154.154-.937-.948zm.606-.606l-.176.187-.145-.14.507-.518.143.143-.176.187.937.937-.154.154zm.353-.639l.463-.463.143.143-.309.309.32.32.276-.265.143.143-.276.276.32.32.309-.32.154.154-.463.474-1.1-1.1zm.662-.662l.2-.254a.4.4 0 01.606 0 .408.408 0 01.132.408l.662.331-.159.163-.617-.309-.1.088.474.474-.154.154-1.1-1.1zm.639.331l.088-.088c.11-.11.066-.187 0-.3s-.187-.154-.309 0l-.077.088.342.342zm.1-1.1l.143-.143.893.419-.65-.662.154-.154 1.1 1.1-.138.157-.937-.4.662.651-.171.149-1.1-1.1z" transform="translate(1.239 4.906)" fill="#ffd531"/><path id="Path_30354" data-name="Path 30354" d="M12.9 55.523l-.176.187-.143-.143.518-.518.143.143-.176.176.937.948-.154.154-.948-.937zm.353-.639l.463-.474.154.154-.309.309.32.309.265-.265.143.143-.265.265.32.331.309-.32.154.165-.474.463-1.1-1.1zm1.323-.287l-.717-.309.165-.165.43.2-.2-.441.165-.165.309.728.794.342-.154.176-.507-.232.232.5-.176.176-.353-.838zm.276-1.014l-.176.176-.143-.143.507-.518.143.143-.176.187.948.937-.154.2-.948-.937zm.353-.651l.232-.232a.331.331 0 01.287-.121.43.43 0 01.32.176.54.54 0 01.176.265.331.331 0 01-.11.342l-.088.1.43.43-.154.154-1.1-1.1zm.673.364l.077-.077c.132-.132 0-.209-.055-.309a.188.188 0 00-.309-.066l-.077.077zm.154-1.2l.132-.121 1.345.838-.165.165-.287-.187-.21.209.187.287-.154.154-.849-1.334zm.386.254l.309.474.154-.165-.474-.3zm.32-.662l-.176.176-.143-.143.518-.518.143.143-.176.187.937.937-.154.154-.948-.937zm.606-.606l-.176.187-.154-.143.518-.518.143.143-.176.187.948.937-.165.154zm.353-.639l.463-.474.143.154-.309.309.32.32.265-.276.143.143-.265.276.32.32.309-.309.154.154-.474.474-1.1-1.1zm.662-.662l.243-.254a.413.413 0 01.606 0 .408.408 0 01.132.408l.662.331-.154.165-.617-.276-.1.1.474.463-.154.154-1.1-1.1zm.641.329l.088-.088c.11-.11.066-.187 0-.3s-.187-.154-.309 0l-.079.078zm.088-1.1l.154-.154.893.419-.662-.651.187-.121 1.1 1.1-.143.143-.959-.419.65.662-.154.154-1.1-1.1z" transform="translate(1.239 4.922)" fill="#ffd531"/><path id="Path_30355" data-name="Path 30355" d="M12.9 55.466l-.176.176-.144-.142.507-.518.143.143-.165.187.935.948-.154.154-.948-.937zm.353-.65l.463-.463.154.143-.309.309.32.32.265-.265.143.154-.265.265.32.32.309-.309.154.154-.463.474-1.1-1.1zm1.323-.276l-.717-.32.165-.165.43.209-.2-.441.165-.165.309.717.794.353-.165.165-.507-.232.232.507-.165.165-.353-.761zm.276-1.025l-.176.187-.143-.154.507-.507.143.143-.176.176.937.948-.154.154-.937-.992zm.353-.639l.232-.232a.375.375 0 01.287-.132.452.452 0 01.32.187.54.54 0 01.176.265.342.342 0 01-.11.342l-.077.077.43.419-.165.165-1.1-1.1zm.673.364l.077-.077c.132-.132 0-.209-.055-.309a.188.188 0 00-.309-.066l-.077.077zm.154-1.2l.132-.121 1.345.849-.165.154-.287-.187-.209.209.187.276-.165.154zm.386.254l.309.485.154-.165zm.331-.662l-.187.176-.143-.143.518-.518.143.154-.176.176.937.937-.154.154-.948-.948zm.6-.6l-.176.176-.154-.154.518-.518.143.143-.176.187.948.937-.165.154-.937-.937zm.353-.651l.463-.463.143.143-.309.309.32.32.265-.276.154.154-.276.265.32.32.309-.309.154.165-.463.463-1.1-1.1zm.662-.662l.243-.243a.4.4 0 01.606 0 .419.419 0 01.132.419l.662.331-.154.165-.617-.232-.088.088.463.463-.154.165-1.1-1.1zm.639.331l.088-.088c.11-.11.066-.187 0-.3s-.187-.143-.309 0l-.077.077.342.342zm.1-1.1l.143-.143.893.419-.65-.662.154-.154 1.1 1.1-.143.143-.937-.386.65.651-.165.165z" transform="translate(1.239 4.913)" fill="#ffd531"/><path id="Path_30356" data-name="Path 30356" d="M9.61 62.252l1.2-1.2 1.433 1.433-1.2 1.213z" transform="translate(.934 6.209)" fill="#432c14"/><path id="Path_30357" data-name="Path 30357" d="M6.194 58.836L4.75 57.392l1.213-1.2L7.4 57.623z" transform="translate(.436 5.711)" fill="#f9efbd"/><path id="Path_30358" data-name="Path 30358" d="M11.176 61.414l-1.2 1.2L6.06 58.7l1.2-1.2z" transform="translate(.57 5.845)" fill="#ffd637"/><path id="Path_30359" data-name="Path 30359" d="M52.037 24.972l-1.2-1.2-37.962 37.97a11.1 11.1 0 00-2.205 3.12l1.466 1.444a8.082 8.082 0 011.929-3.374l37.983-37.971z" transform="translate(1.043 2.386)" fill="#4e3517"/><path id="Path_30360" data-name="Path 30360" d="M47.185 20L9.214 57.972A8.159 8.159 0 015.84 59.9l1.444 1.444a11.389 11.389 0 003.131-2.205L48.387 21.2z" transform="translate(.548 2)" fill="#fffcc4"/></g></svg>