<svg xmlns="http://www.w3.org/2000/svg" width="70.61" height="71.471"><g id="typo3" transform="translate(-.494 -23.6)"><path id="Path_30368" data-name="Path 30368" d="M53.93 72.87a9.613 9.613 0 01-3.137.6c-9.09 0-22.4-31.734-22.4-42.271 0-4.022.925-5.188 2.212-6.315-11.105 1.29-24.417 5.393-28.72 10.581A10.216 10.216 0 00.517 41.3c0 16.45 17.576 53.774 30.165 53.774 5.751 0 15.445-9.412 23.408-22.2M48.138 23.6c11.5 0 22.966 1.85 22.966 8.326C71.1 45.078 62.778 61 58.515 61 50.913 61 41.5 39.889 41.5 29.352c0-4.826 1.85-5.751 6.636-5.751" fill="#ff8700"/></g></svg>