<svg xmlns="http://www.w3.org/2000/svg" id="Ubuntu" width="72.1" height="74.82"><defs><style>.cls-1{fill:#dd4814}</style></defs><g id="U"><circle class="cls-1" cx="6.91" cy="37.41" r="6.91"/><path class="cls-1" d="M84 65a30.07 30.07 0 01-12.39-17.47 9.71 9.71 0 000-15.06A30.07 30.07 0 0184 15l5.06 8.47a20.18 20.18 0 000 33z" transform="translate(-58.57 -2.59)"/></g><g id="U-2" data-name="U"><circle class="cls-1" cx="59.73" cy="6.91" r="6.91"/><path class="cls-1" d="M87.38 13.08a30.1 30.1 0 0121.34-2 9.71 9.71 0 0013 7.53 30.11 30.11 0 018.91 19.48l-9.86.15a20.19 20.19 0 00-28.58-16.55z" transform="translate(-58.57 -2.59)"/></g><g id="U-3" data-name="U"><circle class="cls-1" cx="59.73" cy="67.9" r="6.91"/><path class="cls-1" d="M130.67 41.94a30.11 30.11 0 01-8.91 19.48 9.71 9.71 0 00-13 7.53 30.1 30.1 0 01-21.34-2l4.81-8.61a20.19 20.19 0 0028.62-16.52z" transform="translate(-58.57 -2.59)"/></g></svg>