<svg xmlns="http://www.w3.org/2000/svg" id="_.uk" data-name=".uk" width="77.21" height="73.78"><path d="M70.59 60.83a3.83 3.83 0 103.65 4v-.36a3.64 3.64 0 00-3.47-3.65h-.18m47.46 7.3L112 58.56l-2.34 2.27v7.3h-6.57v-32h6.57v17l7.74-8.55h7.89l-8.87 9.28 9.19 14.31zm-10-65a37 37 0 00-28.8 59.36 12.62 12.62 0 01-.77-4.67V44.62h6.54v11.72c0 3.65.65 5.54 3.65 5.54s3.65-1.89 3.65-5.54V44.62h6.38V57.8a9.23 9.23 0 01-8 10.33 11.45 11.45 0 01-2.19 0A12.23 12.23 0 0183.19 67a36.11 36.11 0 0024.86 9.86 36.91 36.91 0 000-73.78z" transform="translate(-66.58 -3.11)" fill="#00a2d2" fill-rule="evenodd"/></svg>