<svg xmlns="http://www.w3.org/2000/svg" id="two_checkout" data-name="two checkout" width="186.61" height="46.42"><defs><style>.cls-1{fill:#11ca79}.cls-2{fill:#3474ff}.cls-3{fill:#231f20}</style></defs><path class="cls-1" d="M155.82 34.07c0 5.92-4.18 9.88-10.22 9.88s-10.27-4-10.27-9.88 4.19-9.82 10.27-9.82 10.22 3.93 10.22 9.82m-15.66.09c0 3.48 2.25 5.92 5.53 5.92s5.48-2.41 5.48-5.92-2.25-5.92-5.48-5.92-5.53 2.41-5.53 5.92m37-9.79v19.41h-4.72v-3.62a7.12 7.12 0 01-6.78 3.84c-4.35 0-7-2.86-7-7.46V24.37h4.72v10.75c0 2.75 1.54 4.35 4.18 4.35 3.06-.06 4.85-2.42 4.85-5.53v-9.57zm17.24 18.24a9.28 9.28 0 01-4.85 1.39c-3.18 0-5.73-1.8-5.73-5.78V28.6h-2.75v-3.42h2.75v-5.36h4.66v5.36H194v3.42h-5.53v8.79c0 1.88.76 2.49 2 2.49a6.67 6.67 0 002.75-.81l1.18 3.54z" transform="translate(-7.78 -16.79)"/><path class="cls-2" d="M135.37 43.92l-18.11-18v6.65l11.46 11.39z" transform="translate(-7.78 -16.79)"/><path class="cls-2" d="M117.26 16.79H122v27.1h-4.72z" transform="translate(-7.78 -16.79)"/><path class="cls-1" d="M128.41 24.2L122 30.54l-4.72-4.66v6.65l1.44 1.37 3.28 3.34 13.07-13z" transform="translate(-7.78 -16.79)"/><path class="cls-2" d="M26.53 43.78H8.38v-3.62L17 31a22.7 22.7 0 002.61-3.37 5.51 5.51 0 00.87-2.75 4.36 4.36 0 00-.87-2.8 3.24 3.24 0 00-2.55-1 3.6 3.6 0 00-2.81 1.24 5.05 5.05 0 00-1.06 3.23H7.78A8.08 8.08 0 019 21.18 8.16 8.16 0 0112.19 18 10 10 0 0117 16.88a9.49 9.49 0 016.4 2 6.94 6.94 0 012.3 5.61 9.18 9.18 0 01-1 4 25.54 25.54 0 01-3.48 4.8l-6 6.33h11.41v4.1h-.11zm12.68-15.43c-3.12 0-5.27 2.3-5.27 5.72s2.18 5.78 5.27 5.78a6.23 6.23 0 005.22-2.3L47.35 40c-1.69 2.5-4.61 3.93-8.39 3.93-5.78 0-9.83-4-9.83-9.82s4.05-9.88 9.88-9.88a10 10 0 018.14 3.54l-2.86 2.75a6.81 6.81 0 00-5.08-2.13m31.28 3.36v12.09h-4.71V33.09c0-2.75-1.63-4.4-4.29-4.4-3.18 0-5.11 2.41-5.11 5.61v9.51h-4.72V16.87h4.72v11.2c1.37-2.66 3.79-3.85 7-3.85 4.34 0 7.09 2.84 7.09 7.49m22.7 4H78.83a5.41 5.41 0 005.53 4.4A7.16 7.16 0 0089.58 38l2.55 2.66A10.73 10.73 0 0184 44c-6 0-10-4-10-9.82s4-9.88 9.87-9.88c6.85 0 9.79 4.44 9.34 11.46m-4.31-3.17a4.6 4.6 0 00-5-4.66c-2.81 0-4.72 1.79-5.17 4.66zm16.66-4.24c-3.11 0-5.27 2.3-5.27 5.72s2.19 5.78 5.27 5.78a6.21 6.21 0 005.22-2.3L113.7 40c-1.69 2.5-4.6 3.93-8.39 3.93a9.36 9.36 0 01-9.82-9.82c0-5.92 4-9.88 9.87-9.88a10 10 0 018.14 3.54l-2.86 2.75a6.82 6.82 0 00-5.08-2.13" transform="translate(-7.78 -16.79)"/><path class="cls-3" d="M88 54.48a.65.65 0 11-.65-.68.65.65 0 01.65.68zm-.15 1.94v6.75h-1v-6.75zm4.17.8c-.76 0-1.34.27-1.34.91 0 1.52 3.77.74 3.77 3.17 0 1.32-1.18 1.91-2.47 1.91a3.85 3.85 0 01-2.6-1l.39-.74a3.42 3.42 0 002.24.86c.8 0 1.44-.3 1.45-1 0-1.64-3.74-.81-3.73-3.2 0-1.28 1.12-1.83 2.35-1.83a4 4 0 012.16.62l-.39.77a3.55 3.55 0 00-1.85-.47zM106.1 59v4.15h-1v-3.9a1.76 1.76 0 00-1.91-1.92 2.2 2.2 0 00-2.27 2.21v3.62h-1v-6.74h1v1.49a2.67 2.67 0 012.62-1.53A2.39 2.39 0 01106.1 59zm8.4.76a3.43 3.43 0 11-3.42-3.4 3.28 3.28 0 013.42 3.42zm-5.84 0a2.43 2.43 0 102.42-2.53 2.37 2.37 0 00-2.42 2.57zm7.48-3.38l2 5.74 2-5.74h1l2 5.74 2-5.74h1l-2.5 6.75h-1l-2-5.53-2 5.53h-1l-2.53-6.75zM156 54.11h2.39l.39-1.94h-2.4zm-.25 1.25h2.39L156.63 63a2.67 2.67 0 01-.93.17c-.64 0-1.22-.25-1.22-1.13a2.33 2.33 0 01.06-.56c.48-2.39 1.22-6.13 1.22-6.13m23.78-.18a2.64 2.64 0 00-2.53 1.5l.09-1.32h-2.36a18.22 18.22 0 01-.27 2l-.65 3.3a9.12 9.12 0 00-.22 1.36 1.05 1.05 0 001.21 1.16 2.5 2.5 0 00.94-.18l.79-4a2.07 2.07 0 012-1.82 1.05 1.05 0 011.14 1 6.41 6.41 0 01-.18 1.23l-.34 1.7a5.3 5.3 0 00-.12.91c0 .75.42 1.13 1.23 1.13a2.77 2.77 0 00.92-.17l.71-3.57a8.21 8.21 0 00.21-1.75 2.31 2.31 0 00-2.5-2.51m-10.43 0a4.35 4.35 0 00-4.71 4.51c0 2 1.23 3.49 3.79 3.49a4.35 4.35 0 004.7-4.57c0-1.93-1.31-3.43-3.78-3.43m-.77 6.16c-1.06 0-1.52-.69-1.52-1.72 0-1.22.74-2.59 2.08-2.59a1.44 1.44 0 011.57 1.56c0 1.73-.94 2.75-2.13 2.75m-9.11 0a3.14 3.14 0 00-.09.71 1.06 1.06 0 001.21 1.13 2.54 2.54 0 00.92-.17l1.15-5.8h1.86l.37-1.85h-1.86l.09-.45c.17-.85.57-1.23 1.27-1.23a3.74 3.74 0 011 .12l.35-1.76a7.53 7.53 0 00-1.86-.21 2.92 2.92 0 00-3 2.57l-.19 1h-1.21l-.37 1.85h1.21s-.48 2.4-.82 4.13m-5.51-6.16a2.25 2.25 0 00-2.12 1.5l.09-1.32h-2.37a16.75 16.75 0 01-.36 2.46c-.24 1.23-.48 2.46-.73 3.67a3 3 0 00-.06.57c0 .63.31 1.13 1.23 1.13a2.7 2.7 0 00.93-.17l.7-3.55c.25-1.36.71-2.25 2.05-2.25a5.26 5.26 0 011.31.17l.4-2a2.45 2.45 0 00-1-.17M191 58.56c0-2.32-1.52-3.34-3.57-3.34a4.34 4.34 0 00-4.36 4.51c0 1.92 1.23 3.49 3.75 3.49 1.83 0 2.86-.81 2.86-1.87v-.2a6.35 6.35 0 01-1.95.37c-1.88 0-2.36-1-2.34-1.52h5.42a6.78 6.78 0 00.19-1.44m-2.38-.06h-3a1.88 1.88 0 011.62-1.5 1.15 1.15 0 011.21 1.42m-40.89.06c0-2.32-1.52-3.34-3.57-3.34a4.34 4.34 0 00-4.36 4.51c0 1.92 1.23 3.49 3.75 3.49 1.83 0 2.86-.81 2.86-1.87v-.2a6.35 6.35 0 01-2 .37c-1.88 0-2.36-1-2.34-1.52h5.42a6.78 6.78 0 00.19-1.44m-2.38-.06h-3.05A1.86 1.86 0 01144 57a1.15 1.15 0 011.21 1.42m-13.32-5.7h2.4v7.61c0 1.14.58 1.73 1.49 1.73a1.09 1.09 0 00.17 0 2.25 2.25 0 01-2.12 1.1c-1.26 0-1.94-.88-1.94-2.19v-8.21z" transform="translate(-7.78 -16.79)"/><path d="M134.94 59.58v.79c0 .77.41 1.05.87 1.05s.71-.32.94-.67l5.07-8h-2.51z" transform="translate(-7.78 -16.79)" fill="#00adef"/><path class="cls-3" d="M193 56.27h.27c.24 0 .36-.12.36-.26s0-.22-.27-.22h-.27zm0-.59h.39c.24 0 .38.12.38.31a.4.4 0 01-.42.38l.26.65h-.14l-.25-.64H193l-.12.64h-.13l.27-1.34zm.11 1.74a1.14 1.14 0 001.15-1.05.91.91 0 00-.92-1 1.14 1.14 0 00-1.16 1 .92.92 0 00.93 1.05m.24-2.23a1 1 0 011 1.18 1.3 1.3 0 01-1.31 1.18 1 1 0 01-1.04-1.18 1.31 1.31 0 011.31-1.18" transform="translate(-7.78 -16.79)"/></svg>