<svg xmlns="http://www.w3.org/2000/svg" width="109.029" height="82.159"><g id="oeG8So.tif" transform="translate(437.695 -316.112)"><g id="IkUAMm.tif" transform="translate(-437.695 316.112)"><g id="_5cx5lu" data-name="5cx5lu"><g id="Group_4440" data-name="Group 4440"><path id="Path_30369" data-name="Path 30369" d="M-388.587 335.193l-7.059-2.609c5.168-9.855 13.315-15.535 24.175-16.362 14.151-1.076 24.124 5.748 30.644 18.526 6.941-1.144 13.21.933 18.74 5.446 3.722 3.037 5.73 7.183 6.954 11.639 2.591 9.434-1.743 19.685-10.237 24.853-9.163 5.574-19.272 4.1-28.9-4.211-24.186 11.835-46.233-7.925-44.355-27.612 4.75.386 6.869 2.185 8.051 6.709a21.488 21.488 0 0012.639 14.844c8.165 3.644 15.773 2.278 22.7-2.939 2.445-1.84 3.6-1.76 4.99 1.007 3.521 7 9.247 8.35 15.762 7.411a14.77 14.77 0 0012.192-12.524 14.9 14.9 0 00-8.1-15.5c-4.038-2.1-8.36-1.969-12.556-.59-2.464.81-3.563.877-4.281-2.222-2.092-9.036-7.939-14.843-16.986-16.82-9.19-2.008-16.775 1.144-22.64 8.455-.584.737-1.076 1.548-1.733 2.499z" transform="translate(423.417 -316.112)" fill="#2c9455"/><path id="Path_30370" data-name="Path 30370" d="M-363.477 389.773l7.081 2.671c-5.35 9.608-13.156 15.367-23.9 16.239-13.283 1.079-23.384-4.467-29.626-16.327-1.252-2.377-2.837-1.925-4.639-1.906a22.71 22.71 0 01-22.55-17.55 22.458 22.458 0 0112.888-25.834c8.354-3.578 16.395-2.97 23.436 3.4a4.809 4.809 0 005.805 1.017c10.113-4.069 19.716-2.879 28.89 3.223 8.671 5.768 12.356 13.975 12.929 23.977a7.125 7.125 0 01-.218 1.462c-4.9-.534-6.914-2.2-8.092-6.56-4.287-15.868-22.572-22.129-35.5-12.053-2.2 1.719-3.278 1.868-4.748-.818a14.9 14.9 0 00-20.425-6.082c-7.24 3.974-10.21 13.272-5.844 20.508 3.977 6.594 10.337 9.731 18.6 6.477 2.844-1.121 3.87-.7 4.517 2.339 1.937 9.1 8.024 15.073 16.64 17 9.319 2.086 17.6-1.183 23.427-9.287.422-.591.833-1.189 1.329-1.896z" transform="translate(437.695 -326.657)" fill="#174fdb"/></g></g></g></g></svg>