<svg xmlns="http://www.w3.org/2000/svg" width="88" height="88"><g id="webcalendar" transform="translate(-.5 -.5)"><circle id="Ellipse_932" data-name="Ellipse 932" cx="44" cy="44" r="44" transform="translate(.5 .5)" fill="#eab53f"/><path id="Path_30371" data-name="Path 30371" d="M60.945 26.579L16.67 26.4v32.368a2.942 2.942 0 002.943 2.956h38.376a2.943 2.943 0 002.956-2.874z" transform="translate(6.064 9.713)" fill="#e6e7e8"/><path id="Path_30372" data-name="Path 30372" d="M60.945 26.579L16.67 26.4v32.368a2.942 2.942 0 002.943 2.956h32.381c1.705-1.705 7.521-7.7 8.951-9.144z" transform="translate(6.064 9.713)" fill="#d1d3d4"/><path id="Path_30373" data-name="Path 30373" d="M60.849 31.785l-2.942 1.65-3.328-3.685-2.75 1.292-2.406-1.292-4.057 2.75-2.585-2.75-3.341 1.856-4.235-1.856-3.864 2.392-1.485-2.392-1.664 1.842L25.8 30.3l-5.72 1.292-3.41-.729v26.648a2.943 2.943 0 002.942 2.956h32.382V54.28a2.613 2.613 0 012.406-2.942h6.545z" transform="translate(6.064 10.969)" fill="#fff"/><rect id="Rectangle_1291" data-name="Rectangle 1291" width="49.995" height="16.789" rx="1.88" transform="translate(19.874 23.009)" fill="#d95141"/><path id="Path_30374" data-name="Path 30374" d="M25.777 25v-9.214a2.31 2.31 0 00-2.214-2.406 2.379 2.379 0 00-2.392 2.392V25a2.3 2.3 0 002.214 2.392A2.392 2.392 0 0025.777 25zm27.115 0v-9.214a2.31 2.31 0 00-2.214-2.406 2.393 2.393 0 00-2.393 2.392V25a2.3 2.3 0 002.215 2.391A2.393 2.393 0 0052.892 25zM35.636 58.3v-3.134h-7.192V53.5a1.293 1.293 0 011.293-1.292H31.4a4.606 4.606 0 004.662-4.608 4.331 4.331 0 00-4.235-4.428h-5.775v2.943H31.4a1.581 1.581 0 011.664 1.485 1.471 1.471 0 01-1.471 1.471h-1.664a4.331 4.331 0 00-4.429 4.253V58.3zm2.228 0h6.27a4.812 4.812 0 100-9.625h-2.957l.385-2.557h6.449v-2.942h-9.2l-.921 8.662h6.27a1.678 1.678 0 010 3.327h-6.3z" transform="translate(7.751 4.83)" fill="#414042"/></g></svg>