<svg xmlns="http://www.w3.org/2000/svg" width="84.744" height="84.744"><path id="Path_30375" data-name="Path 30375" d="M74.482 32.11a42.372 42.372 0 1042.372 42.371A42.419 42.419 0 0074.482 32.11zm-38.1 42.371a37.952 37.952 0 013.3-15.5l18.172 49.789a38.1 38.1 0 01-21.468-34.289zm38.1 38.1a38.067 38.067 0 01-10.762-1.552l11.431-33.216 11.709 32.081a3.577 3.577 0 00.273.525 38.027 38.027 0 01-12.651 2.16zm5.25-55.959c2.293-.121 4.36-.362 4.36-.362a1.575 1.575 0 00-.243-3.14s-6.171.485-10.154.485c-3.743 0-10.033-.485-10.033-.485a1.575 1.575 0 00-.242 3.14s1.943.242 4 .362l5.935 16.262-8.338 25-13.876-41.265c2.3-.121 4.36-.362 4.36-.362a1.575 1.575 0 00-.243-3.14s-6.171.483-10.158.483a81.19 81.19 0 01-2.452-.046 38.085 38.085 0 0157.555-7.169c-.164-.01-.324-.031-.493-.031a6.6 6.6 0 00-6.4 6.761c0 3.14 1.811 5.8 3.742 8.935a20.066 20.066 0 013.148 10.509c0 3.26-1.254 7.044-2.9 12.315l-3.8 12.7zm28.179-.415a38.1 38.1 0 01-14.276 51.2l11.635-33.64a35.971 35.971 0 002.9-13.645 29.245 29.245 0 00-.259-3.922z" transform="translate(-32.11 -32.11)" fill="#363432"/></svg>