<svg xmlns="http://www.w3.org/2000/svg" id="world_pay" data-name="world pay" width="187.4" height="35.61"><defs><style>.cls-1{fill:#9d9d9c}.cls-2{fill:#e30613}</style></defs><path id="path8223" class="cls-1" d="M58.94 50l-3.58-14.6L51.3 50h-4.06l-5.19-15.93c-.17-.47-.35-.51-.76-.63l-1.54-.34.47-2h7.43v2l-2.38.3 4.1 13.22 4.25-15h3.85l3.58 15 4.1-13.18-2.4-.28.43-2h7v2l-1.34.2c-.63.12-.75.24-.91.75L62.9 50z" transform="translate(-6.3 -22.2)"/><path id="path8225" class="cls-1" d="M84.74 40.49c0-4.83-1.77-7-5.32-7s-5.7 2.14-5.7 7 1.88 7.25 5.54 7.25 5.48-2.26 5.48-7.29m-14.52 0c0-5.79 3-9.77 9.22-9.77s8.73 4 8.73 9.52c0 6.22-2.8 10.2-9.09 10.2s-8.86-4.13-8.86-9.95" transform="translate(-6.3 -22.2)"/><path id="path8227" class="cls-1" d="M89.94 50v-2l1.85-.2c.5-.09.58-.17.58-.76V34.48c0-.43-.12-.67-.46-.75L89.82 33l.34-2H95l.39 2.55h.12A7.48 7.48 0 01101 30.7a11.24 11.24 0 012.64.35v5.58l-2.6-.12-.42-2.51c0-.28-.12-.39-.47-.39-1.68 0-3.53 1.51-4.41 2.32v11.01c0 .59.05.71.59.75l3.39.29v2h-9.78z" transform="translate(-6.3 -22.2)"/><path id="path8229" class="cls-1" d="M104.7 50v-2l2.27-.2c.51 0 .59-.17.59-.76V25.63c0-.43-.12-.67-.47-.76l-2.21-.71.35-2h5.7V47c0 .59 0 .67.59.76l2.21.24v2z" transform="translate(-6.3 -22.2)"/><path id="path8231" class="cls-1" d="M128 35.45a8.62 8.62 0 00-5-2c-3.47 0-4.83 3-4.83 7.43 0 5.12 1.72 6.8 4.32 6.8 2.17 0 3.94-1.42 5.59-3.06v-9.2zm.65 14.55l-.28-2.44h-.16a8.84 8.84 0 01-6.5 2.91c-4.2 0-7-2.73-7-9.53 0-7.24 3.27-10.23 7.71-10.23a9.79 9.79 0 015.63 1.77v-6.89a.75.75 0 00-.47-.76l-2.17-.67.34-2h5.63V47c0 .59 0 .67.58.76l1.89.24v2z" transform="translate(-6.3 -22.2)"/><path id="path8233" class="cls-2" d="M141.53 45.3a7.68 7.68 0 005 2.39c3.53 0 4.83-2.9 4.83-7.55 0-5-2-6.58-4.24-6.58a9.71 9.71 0 00-5.62 2.28v9.46zm-5.47 12.5v-2l1.51-.21c.5-.08.63-.16.63-.75V34.48c0-.43-.13-.67-.47-.75l-2.09-.73.34-2h4.88l.34 2.13h.12a10.79 10.79 0 016.58-2.56c4.1 0 6.92 2.64 6.92 9.14 0 5.54-1.88 10.62-7.67 10.62a8.08 8.08 0 01-5.62-2v6.37c0 .59 0 .71.58.75l3.48.29v2z" transform="translate(-6.3 -22.2)"/><path id="path8235" class="cls-2" d="M168.28 41.52l-4.16.39c-3.19.28-4.06 1.22-4.06 3.15s.83 2.8 2.56 2.8c2.17 0 4.49-1.77 5.62-2.85v-3.49zm.63 8.49l-.34-2.4h-.12a9.38 9.38 0 01-6.66 2.85c-4.61 0-5.2-3.19-5.2-5 0-3.69 2.27-5.4 6.72-5.79l5-.42v-2c0-2.68-.5-4-3.73-4-2.27 0-3.86.08-3.9 2.84l-3.19-.34c0-4.53 4.21-5 7.13-5 5.24 0 7 1.46 7 6.54V47c0 .59 0 .67.59.75l1.89.25v2h-5.18z" transform="translate(-6.3 -22.2)"/><path id="path8237" class="cls-2" d="M176.16 57.8v-2l2.64-.35c.47 0 .59-.24.79-.75l2.13-4.91-6.61-15.7c-.17-.46-.35-.51-.76-.63l-1.5-.38.43-2h7.63v2l-2.43.28 4.91 12.37 5.12-12.37-2.51-.28.42-2h7.29v2l-1.26.16c-.46.08-.75.2-.91.63l-8.94 21.56s-.43 1-.63 1.42a1.54 1.54 0 01-1.46.91h-4.35z" transform="translate(-6.3 -22.2)"/><path id="path8239" class="cls-2" d="M31.69 48.67a11.92 11.92 0 01-.87 1.14A13.36 13.36 0 0128.34 52a17.6 17.6 0 01-3.65 1.89 10.49 10.49 0 01-2.91.63h-.28a1.44 1.44 0 01-.87-.17h-.08l-.09-.08a.43.43 0 010-.2 2.08 2.08 0 01.39-.59.87.87 0 00.16-.2c.63-.17 1.26-.39 2-.59a7.63 7.63 0 001.89.12 5.65 5.65 0 002.1-.73 7.07 7.07 0 002-1.64 5.62 5.62 0 00.8-1.44 17.35 17.35 0 002.85-2.72l.38-.5a10.65 10.65 0 01-1.34 2.92m-4.32 1.89c.24-.12.46-.29.71-.43a6.12 6.12 0 01-1.18 1.1 5.34 5.34 0 01-1.85.79l-.83.12c1.06-.47 2.13-1 3.15-1.58M35 40a7.12 7.12 0 00-.87-3.47 10 10 0 00-2.13-2.7 6.43 6.43 0 00-1.69-3.15 10.73 10.73 0 00-2.68-2 15 15 0 00-2.72-1.14 11.74 11.74 0 00-2.38-.46 6.91 6.91 0 00-1.84 0 4.79 4.79 0 00-1.5.55h-.09a9.5 9.5 0 00-1.84 0h-.17c-.58 0-1.8.2-1.72.79 0 0 0 .34.75.59l1.06-.63h-.25a9.06 9.06 0 01.92-.08h.2l-.2.12-.35.2c-.63.39-.83.55-1.5.91-.43.25-.79.51-1.22.71-.79.43-1.6.84-2.44 1.26-.67.29-1.34.63-2.21 1h-.08c-.2.08-.43.16-.59.24a1 1 0 00-.59.47v.32a.14.14 0 000 .09l.12.12.12.08a1.57 1.57 0 00.46 0h5.44c1.22 0 2.36.16 3.54.28l1.76.25a8 8 0 00.87-.84c-1.21-.24-2.43-.42-3.61-.54a36.37 36.37 0 00-3.82-.21h-2.38c.63-.28 1.18-.59 1.72-.83.8-.43 1.61-.87 2.4-1.38.59-.39 1.22-.79 1.93-1.3l.12-.08 2.84.55 2.15.53A2.93 2.93 0 0020.85 29c-.71-.13-1.46-.29-2.36-.43a4.91 4.91 0 01.63-.39 7.4 7.4 0 011.85.43 5.24 5.24 0 011.06.55s.12.08.16.12a2 2 0 01.79 1.5 2.63 2.63 0 01-.34 1.46 4.06 4.06 0 01-.51.9 6.57 6.57 0 01-1.26 1.34 17.2 17.2 0 01-2.94 2.13c-.43.24-.8.47-1.22.67s-1 .51-1.42.67a31 31 0 01-3.23 1.22c-.75.2-1.46.42-2.17.55A12.8 12.8 0 018 40a8.64 8.64 0 012.48-.67 21.22 21.22 0 004-1.34c-.88 0-1.77 0-2.68.12a18.18 18.18 0 00-3.8.71c-.63.21-1.46.55-1.69 1.1a1.35 1.35 0 00.08.71 1.25 1.25 0 001.06.59 5.43 5.43 0 001.5 0 18.77 18.77 0 003.74-.83A33 33 0 0016 39.07a21.93 21.93 0 013.47.38 18.09 18.09 0 013.27.87 13.75 13.75 0 012.9 1.43c.29-.21.55-.43.75-.59h-.08a16.94 16.94 0 00-3.43-1.73 22.51 22.51 0 00-3.43-.91 13.15 13.15 0 00-1.81-.25 16.92 16.92 0 002.68-1.72 19.23 19.23 0 001.85-1.65A29.38 29.38 0 0126 36.08 16.74 16.74 0 0129.34 38h.08a6.78 6.78 0 00.5-.87A18.87 18.87 0 0027 35.45a22.87 22.87 0 00-3.9-1.38L23 34a5.35 5.35 0 001.1-2.52 2.12 2.12 0 000-.71 30.15 30.15 0 013.47 1.34 13.58 13.58 0 012.8 1.69 4.91 4.91 0 00-.91-1.8c-.51-.28-1.06-.55-1.65-.83a28.69 28.69 0 00-3.35-1.26 5.38 5.38 0 00-.79-.2 3.43 3.43 0 00-1.42-1.3 6.69 6.69 0 00-1.77-.59 6 6 0 01.84-.08h.08a6.05 6.05 0 01.83 0 .36.36 0 01.2 0 10.49 10.49 0 012.22.51 11.34 11.34 0 012.55 1.13 9.14 9.14 0 012.4 1.89c.2.25.43.51.59.75a.21.21 0 01.08.17 4.49 4.49 0 01.63 2 5.15 5.15 0 01-.35 2.35 8 8 0 01-.91 1.81 13.58 13.58 0 01-2.35 2.6 13.75 13.75 0 01-1.73 1.34c-.83.58-1.73 1.13-2.64 1.64a23.43 23.43 0 01-2.4 1.18c-.38.16-.91.38-1.54.59a24.76 24.76 0 01-3 .91 23.41 23.41 0 01-4 .63 8.41 8.41 0 01-1.42 0 3 3 0 01-1.81-.51l-.08-.08v-.08a1.25 1.25 0 01.51-.59 4.46 4.46 0 011-.55 12.2 12.2 0 013.31-.75 17.26 17.26 0 013.53.12 11.4 11.4 0 011.77.43 7 7 0 001.14-.43 17.23 17.23 0 00-2.36-.75 15.05 15.05 0 00-3.69-.28 13.31 13.31 0 00-3.62.59 4.89 4.89 0 00-2.43 1.42A1.33 1.33 0 007.55 47a1.58 1.58 0 00.71 1 4.07 4.07 0 001.69.55 10.53 10.53 0 001.64.12h.29a21.34 21.34 0 004.06-.55 25 25 0 004-1.22c.38-.16.79-.28 1.17-.46a4.12 4.12 0 011.38 1.38 2.85 2.85 0 01.43 1.46 2.53 2.53 0 01-.38 1.34 3.53 3.53 0 01-.21.34 5.31 5.31 0 00.88-.34l.12-.25a3.47 3.47 0 00.2-1.68 3.73 3.73 0 00-.83-1.81 5.36 5.36 0 00-.79-.79 31.15 31.15 0 003.65-2c.55-.39 1.1-.75 1.6-1.14A6.42 6.42 0 0129 45.58a5.12 5.12 0 01.24 1.55c.35-.29.63-.55.84-.76a5.63 5.63 0 00-.75-2.17 8.07 8.07 0 00-1.43-1.8 13.75 13.75 0 002.72-3 1.83 1.83 0 00.13-.16 9.28 9.28 0 011.88 2.68c.09.16.13.38.21.55a6.17 6.17 0 00.46-1.65A8.52 8.52 0 0032 39c-.21-.24-.47-.46-.72-.71a8 8 0 00.84-2.76c.2.25.42.51.59.75a6.56 6.56 0 011.13 3 9.93 9.93 0 010 1.09 5.27 5.27 0 01-.12 1 .74.74 0 01-.08.28 10.43 10.43 0 01-.64 1.64s0 .12-.08.16 0 .12-.08.16a12 12 0 01-2.28 3 4.19 4.19 0 01-.42.38 12.47 12.47 0 01-1.3 1.1 19.4 19.4 0 01-3 1.89 26.35 26.35 0 01-2.51 1.18 17.52 17.52 0 01-2.48.83 23.21 23.21 0 01-3.65.71 12 12 0 01-2.72 0 3.73 3.73 0 01-1.22-.39 1 1 0 01-.21-.16v-.25c.17-.43.71-.63 1.26-.79a5.87 5.87 0 011.81-.25h.08a7.75 7.75 0 011.93.25 12 12 0 011.81.54h.08a6.25 6.25 0 00.91-.24h-.16c-.25-.08-.51-.2-.75-.28a15.46 15.46 0 00-1.89-.63 9.14 9.14 0 00-2.13-.29 7 7 0 00-2.09.21 3.68 3.68 0 00-1.61.79 1.33 1.33 0 00-.38.91 1.15 1.15 0 00.46.91 4.86 4.86 0 002.95.88 16.58 16.58 0 003.94-.29l.54-.12a2 2 0 00-.28.67 1 1 0 00.59 1 3.22 3.22 0 001.54.34h.39a10.31 10.31 0 003.35-.75A15.92 15.92 0 0028.85 53a13.46 13.46 0 002.64-2.35 11.07 11.07 0 001.89-3 7.72 7.72 0 00.62-3.37 2.11 2.11 0 000-.5A7.15 7.15 0 0035 40" transform="translate(-6.3 -22.2)"/></svg>