<svg xmlns="http://www.w3.org/2000/svg" id="WP_CLI" data-name="WP CLI" width="142.93" height="68.86"><g id="_9liruk.tif" data-name="9liruk.tif"><path d="M119.33 21.29c-.46.77-1 1.53-1.37 2.32q-12.45 23.61-24.88 47.24c-.36.67-.77 1.31-1.08 2a2.46 2.46 0 01-2.42 1.53c-3.23 0-6.45.05-9.67 0a8 8 0 01-2.23-.76V41.16c-1.28.23-1.37 1.15-1.68 1.84q-5.09 10.88-10.16 21.77c-1.14 2.44-2.37 4.85-3.41 7.33A3.26 3.26 0 0159 74.43c-3.31-.09-6.62 0-9.92 0a3.17 3.17 0 01-2.83-1.17c-.2-2.46-.4-5.07-.61-7.67-.3-3.7-.61-7.4-.9-11.1-.21-2.61-.42-5.21-.59-7.82-.42-5.83-.74-11.67-1.15-17.45s-1-11.44-1.37-17.16c-.13-1.84 0-3.69 0-5.81a12.83 12.83 0 012.63-.58h14.75a3.06 3.06 0 013 1.4v27.56c1.34-.47 1.44-1.51 1.81-2.27 3.79-8 7.62-16 11.26-24 .91-2 2.07-2.81 4.25-2.71 3.21.14 6.44 0 9.66 0 2.42 0 3 .59 3 3v25.86c1.25 0 1.23-1 1.5-1.61 3.77-7.92 7.49-15.86 11.22-23.79a6.35 6.35 0 00.44-.91c.58-2.22 2.1-2.79 4.24-2.65s4.24 0 6.36 0h20.85a36.6 36.6 0 0115.95 3.54 31.76 31.76 0 016 3.73c5.73 4.63 7.57 11.29 5.4 18.44a22.71 22.71 0 01-9.33 12.25 41.56 41.56 0 01-16.61 6.55c-2.48.44-5 .68-7.57 1-1.66 5.93-3.28 11.76-4.91 17.58-.25.89-.48 1.79-.76 2.67-.72 2.28-1.4 2.85-3.82 2.92s-4.74 0-7.12 0c-1.69 0-3.39.07-5.08 0-2.1-.1-2.65-.91-2.11-2.93l13-48.48c.12-.47.19-1 .29-1.42zm14.53 14a9.42 9.42 0 002 .14 19.49 19.49 0 007.42-2.27 15.31 15.31 0 002.81-2.16 5.32 5.32 0 00-.59-7.83 10.43 10.43 0 00-7.68-2.33c-1.41 1.78-4.24 11.89-3.96 14.43z" transform="translate(-25.41 -5.57)"/><path d="M148.3 60.94l-1.64 1.78c-4.84-4.32-9.27-.56-10.34 3.49a7.32 7.32 0 00-.21 2.24 3.66 3.66 0 004.55 3.48 10.65 10.65 0 002.13-.78c.69-.31 1.33-.71 2.14-1.16l1 1.52c-2.68 2-5.27 3.61-8.66 2.53a5 5 0 01-3.63-4.67A10.33 10.33 0 01141 58.64a6.52 6.52 0 017.3 2.3zm3.33 10.59h6.94c.22.31.39.44.39.58 0 .49-.05 1-.08 1.45-1.83.53-7.27.63-10.56.16 1.23-4.94 2.93-9.72 4.36-14.72h2.52c-1.2 4.16-2.32 8.14-3.57 12.53zM33.57 34.5L28 41.8l-2.54-1.66 3.86-5.64-3.89-5.5 2.26-1.77c2.31 2.17 3.8 4.82 5.88 7.27zM165.94 59h2.4c-1.05 5.16-2.77 9.94-4.1 14.83a7.38 7.38 0 01-1.11.17 8 8 0 01-1-.15 4 4 0 010-1c1.21-4.61 2.48-9.12 3.81-13.85z" transform="translate(-25.41 -5.57)"/></g></svg>