<svg xmlns="http://www.w3.org/2000/svg" width="68.561" height="87.282"><g id="xerte" transform="translate(-25 -232.116)"><path id="Path_30376" data-name="Path 30376" d="M71.3 154.131L61.123 167.48l-8.491-12.36v-4.307l-7.736-10-9.422 6.1 6.571 9.962 5.176 2.077 9.422 14.713L25 220.075c1.575 1.575 5.885 3.307 12.644 3.307l25-36.453 7.28 9.537 14.131-.234-14.15-20.468 11.035-16.575c10.18-1.337 15.76-11.342 10.76-17.506l-6.629 8.9h-5.165l-3.563-5.176 5.816-9.307c-6 0-14.989 3.433-10.858 18.031z" transform="translate(0 96.016)" fill="#fca71f"/></g></svg>