<svg xmlns="http://www.w3.org/2000/svg" width="80.49" height="80.49"><defs><radialGradient id="radial-gradient" cx=".497" cy=".498" r=".544" gradientTransform="rotate(83.66 .5 .5)" gradientUnits="objectBoundingBox"><stop offset="0" stop-color="#f6c229"/><stop offset="1" stop-color="#cc2129"/></radialGradient></defs><g id="zencart" transform="translate(-.502 -.504)"><path id="Path_30377" data-name="Path 30377" d="M0 0h72.846v72.846H0z" transform="rotate(-83.63 40.997 36.162)" fill="url(#radial-gradient)"/><path id="Path_30378" data-name="Path 30378" d="M3.08 3.73v73.287h73.312V3.73zm6.553 44.158c-2.05 0-3.773-2.226-3.773-5.031 0-4.515 4.654-12.011 10.615-17.067 3.773-3.195 12.992-5.873 20.664-5.873 4.565 0 8.251 1.874 8.251 4.188s-4.4 2.151-9.6 3.773c-11.131 3.4-15.985 9.169-18.979 13.231-2.364 3.27-5.534 6.779-7.232 6.779zM51.2 28.117a7.005 7.005 0 016.779 7.232c0 3.5-1.258 6.289-6.439 6.289-3.987 0-7.232-2.629-7.232-5.873 0-4.238 3.081-7.685 6.892-7.685zm-21.381 35.92a33.279 33.279 0 011.132 7.005 1.56 1.56 0 01-1.358 1.685c-6.289 0-11.407-9.4-11.407-21a22.01 22.01 0 018.8-17.734 15.294 15.294 0 0110.2-3.509c2.44 0 4.415 1.006 4.415 2.251s-.654 1.56-1.472 2.151C31.215 41.323 28.272 42 28.272 51.6a51.566 51.566 0 001.585 12.439zm23.041 2.817c-4.855 0-8.628-2.515-11.181-4.289A15.7 15.7 0 0134.9 50.479c0-4.968 3.773-10.615 7.005-10.615 1.685 0 2.063 1.358 1.912 3.61-.679 10.275 5.534 11.76 10.275 11.76a25.708 25.708 0 006.213-.453 20.639 20.639 0 015.031-.906c1.132 0 2.037.654 2.037 1.472-.025 2.478-6.54 11.508-14.476 11.508zm9.37-21c-.566 0-1.019-.654-1.019-1.472 0-11.407-2.364-16.941-7.106-21-6.942-5.993-15.784-9.615-15.784-13.682 0-1.685 2.075-3.044 4.628-3.044 7.345 0 14.967 6.15 17.734 8.917 4.352 4.352 8.59 11.319 8.59 19.318 0 8.251-6.289 10.955-7.005 10.955z" transform="translate(.664 .831)"/></g></svg>