<svg xmlns="http://www.w3.org/2000/svg" width="89.597" height="89.379"><g id="mfhRJF.tif" transform="translate(528.122 293.824)"><g id="Group_4441" data-name="Group 4441" transform="translate(-528.122 -293.824)"><path id="Path_30379" data-name="Path 30379" d="M-483.345-293.824a44.735 44.735 0 0144.82 44.485 44.788 44.788 0 01-44.849 44.893 44.784 44.784 0 01-44.748-44.721 44.707 44.707 0 0144.777-44.657zm43.834 44.731A43.8 43.8 0 00-483.3-292.9a43.844 43.844 0 00-43.865 43.745 43.785 43.785 0 0043.74 43.712 43.753 43.753 0 0043.914-43.65z" transform="translate(528.122 293.824)" fill="#2f2f2f"/><path id="Path_30380" data-name="Path 30380" d="M-436.9-246.564a43.753 43.753 0 01-43.914 43.653 43.785 43.785 0 01-43.74-43.712 43.844 43.844 0 0143.866-43.745 43.8 43.8 0 0143.788 43.804zm-32.795-5.633v27.583h4.79v-10.553h1.7c2.5-.022 5.011.082 7.5-.1 4.759-.345 7.611-3.45 7.672-8.128.067-5.082-2.537-8.421-7.42-8.738-4.702-.303-9.447-.067-14.24-.067zm-36.905 25.828c.526-.7.864-1.16 1.211-1.611q14.94-19.414 29.9-38.808a3.875 3.875 0 00.689-3.331h-31.359v1.877h29.388c-.409.555-.66.908-.924 1.251q-14.972 19.474-29.97 38.927a3.845 3.845 0 00-.868 3.412h35.27l-.081-1.717z" transform="translate(525.509 291.295)" fill="#fff"/><path id="Path_30381" data-name="Path 30381" d="M-320-148.283c4.8 0 9.539-.239 14.245.066 4.883.316 7.487 3.655 7.42 8.738-.061 4.678-2.913 7.783-7.672 8.128-2.49.18-5 .076-7.5.1h-1.7v10.551H-320zm4.842 12.891c2.913 0 5.682.174 8.416-.056 2.151-.181 3.343-1.84 3.488-4.082.15-2.31-.772-4.283-2.64-4.528-3.053-.4-6.162-.375-9.265-.53z" transform="translate(375.817 187.381)" fill="#2f2f2f"/><path id="Path_30382" data-name="Path 30382" d="M-463.159-171.117h33.259l.081 1.717h-35.27a3.845 3.845 0 01.868-3.412q15.029-19.43 29.97-38.927c.264-.344.515-.7.924-1.251h-29.388v-1.877h31.359a3.875 3.875 0 01-.689 3.331q-14.995 19.371-29.9 38.808c-.355.451-.688.91-1.214 1.611z" transform="translate(482.07 236.043)" fill="#2f2f2f"/><path id="Path_30383" data-name="Path 30383" d="M-301.945-125.064v-9.2c3.1.155 6.212.129 9.265.53 1.867.245 2.79 2.218 2.64 4.528-.146 2.242-1.337 3.9-3.488 4.082-2.735.234-5.504.06-8.417.06z" transform="translate(362.604 177.054)" fill="#f4f3ef"/></g></g></svg>