<svg data-v-423bf9ae="" xmlns="http://www.w3.org/2000/svg" viewBox="0 0 294 90" class="iconLeft"><!----><!----><!----><g data-v-423bf9ae="" id="53116805-f874-4af4-8fe0-55759768ae77" fill="black" transform="matrix(5.7471261427876925,0,0,5.7471261427876925,150.77025005054662,-5.11494245343124)"><path d="M6.05 13.01C5.96 12.99 5.36 12.95 4.26 12.87L4.26 3.77L3.25 3.77L0.27 6.34L0.66 6.89C0.73 7.00 0.84 7.04 0.99 7.04C1.08 7.04 1.16 7.00 1.25 6.93L3.04 5.40C3.02 5.61 3.02 5.84 3.02 6.03L3.02 12.87L1.06 13.01C0.92 13.03 0.87 13.12 0.87 13.26L0.87 13.40L0.87 13.82L6.24 13.82L6.24 13.26C6.24 13.12 6.19 13.03 6.05 13.01ZM10.46 12.94C9.95 12.94 9.59 12.80 9.34 12.50C9.09 12.21 8.97 11.77 8.97 11.24L8.97 6.73L6.71 6.73L6.71 7.32C6.71 7.46 6.79 7.56 6.93 7.59C7.01 7.62 7.27 7.67 7.71 7.76L7.71 11.26C7.71 12.10 7.94 12.73 8.33 13.20C8.75 13.69 9.34 13.94 10.09 13.94C10.99 13.94 11.77 13.57 12.45 12.81L12.54 13.57C12.60 13.73 12.71 13.83 12.88 13.83L14.63 13.83L14.63 13.23C14.63 13.09 14.56 13.01 14.42 12.98C14.34 12.95 14.07 12.89 13.62 12.81L13.62 6.73L12.38 6.73L11.37 6.73L11.37 7.34C11.37 7.48 11.44 7.57 11.58 7.60C12.03 7.69 12.29 7.74 12.38 7.77L12.38 11.97C11.80 12.61 11.16 12.95 10.46 12.95ZM17.65 8.18L17.57 7.07C17.54 6.94 17.51 6.86 17.46 6.80C17.40 6.75 17.33 6.73 17.19 6.73L16.48 6.73L15.47 6.73L15.47 7.32C15.47 7.46 15.54 7.56 15.68 7.59C15.76 7.62 16.03 7.67 16.48 7.76L16.48 12.81L15.68 12.96C15.54 12.99 15.47 13.09 15.47 13.23L15.47 13.82L18.73 13.82L18.73 13.23C18.73 13.09 18.66 12.99 18.52 12.96C18.10 12.88 17.84 12.84 17.72 12.81L17.72 9.31C18.12 8.33 18.73 7.83 19.54 7.83C19.80 7.83 19.98 7.85 20.12 7.90C20.26 7.94 20.37 7.97 20.45 7.97C20.54 7.97 20.61 7.90 20.64 7.78L20.79 6.85C20.51 6.68 20.19 6.59 19.82 6.59C18.90 6.59 18.19 7.13 17.67 8.18ZM24.54 12.95C24.46 12.92 24.21 12.87 23.76 12.78L23.76 3.50L21.49 3.50L21.49 4.10C21.49 4.24 21.57 4.33 21.71 4.35C21.80 4.38 22.05 4.44 22.50 4.52L22.50 12.80L21.71 12.95C21.57 12.98 21.49 13.08 21.49 13.22L21.49 13.82L24.77 13.82L24.77 13.22C24.77 13.08 24.68 12.98 24.54 12.95Z"></path></g><!----><g data-v-423bf9ae="" id="809b2c25-f3d4-4328-8bdc-d5a8fa190a78" transform="matrix(1.4702277900381788,0,0,1.4702277900381788,-6.512129820467763,-28.118656500808427)" stroke="none" fill="black"><path d="M76.31 35.389H47.45c-9.202 0-16.853 6.692-18.39 15.46h10.653c1.267-3.025 4.257-5.156 7.737-5.156h28.86c4.625 0 8.389 3.76 8.389 8.385v7.838c0 4.625-3.764 8.387-8.389 8.387H47.45c-.062 0-.12-.017-.182-.018H30.764c3.077 6.111 9.392 10.322 16.687 10.322h28.86c10.306 0 18.69-8.385 18.69-18.691v-7.838C95 43.774 86.616 35.389 76.31 35.389z"></path><path d="M29.527 64.611l.001.004H40.97l-.004-.004H52.55c9.234 0 16.904-6.739 18.404-15.553H60.315c-1.246 3.072-4.252 5.249-7.766 5.249h-9.538v.004h-19.18v-.004h-.141a8.304 8.304 0 01-1.917-.242c-3.7-.872-6.471-4.183-6.471-8.146v-7.838c0-4.625 3.764-8.385 8.389-8.385h28.86c.059 0 .114.016.173.017h16.514c-3.077-6.11-9.392-10.321-16.687-10.321H23.69C13.384 19.394 5 27.779 5 38.082v7.838c0 9.778 7.55 17.812 17.124 18.612.518.043 1.037.079 1.566.079h5.837z"></path></g><!----></svg>